%TF.GenerationSoftware,KiCad,Pcbnew,7.0.6*%
%TF.CreationDate,2024-01-08T15:45:07+11:00*%
%TF.ProjectId,turbidity_sensor_v2,74757262-6964-4697-9479-5f73656e736f,0.1.0*%
%TF.SameCoordinates,Original*%
%TF.FileFunction,Paste,Bot*%
%TF.FilePolarity,Positive*%
%FSLAX46Y46*%
G04 Gerber Fmt 4.6, Leading zero omitted, Abs format (unit mm)*
G04 Created by KiCad (PCBNEW 7.0.6) date 2024-01-08 15:45:07*
%MOMM*%
%LPD*%
G01*
G04 APERTURE LIST*
G04 Aperture macros list*
%AMRoundRect*
0 Rectangle with rounded corners*
0 $1 Rounding radius*
0 $2 $3 $4 $5 $6 $7 $8 $9 X,Y pos of 4 corners*
0 Add a 4 corners polygon primitive as box body*
4,1,4,$2,$3,$4,$5,$6,$7,$8,$9,$2,$3,0*
0 Add four circle primitives for the rounded corners*
1,1,$1+$1,$2,$3*
1,1,$1+$1,$4,$5*
1,1,$1+$1,$6,$7*
1,1,$1+$1,$8,$9*
0 Add four rect primitives between the rounded corners*
20,1,$1+$1,$2,$3,$4,$5,0*
20,1,$1+$1,$4,$5,$6,$7,0*
20,1,$1+$1,$6,$7,$8,$9,0*
20,1,$1+$1,$8,$9,$2,$3,0*%
G04 Aperture macros list end*
%ADD10RoundRect,0.135000X-0.185000X0.135000X-0.185000X-0.135000X0.185000X-0.135000X0.185000X0.135000X0*%
%ADD11RoundRect,0.135000X0.135000X0.185000X-0.135000X0.185000X-0.135000X-0.185000X0.135000X-0.185000X0*%
%ADD12RoundRect,0.200000X0.200000X0.275000X-0.200000X0.275000X-0.200000X-0.275000X0.200000X-0.275000X0*%
%ADD13RoundRect,0.250000X-1.025000X0.787500X-1.025000X-0.787500X1.025000X-0.787500X1.025000X0.787500X0*%
%ADD14RoundRect,0.150000X0.512500X0.150000X-0.512500X0.150000X-0.512500X-0.150000X0.512500X-0.150000X0*%
%ADD15RoundRect,0.225000X-0.250000X0.225000X-0.250000X-0.225000X0.250000X-0.225000X0.250000X0.225000X0*%
%ADD16RoundRect,0.250000X0.325000X0.650000X-0.325000X0.650000X-0.325000X-0.650000X0.325000X-0.650000X0*%
%ADD17RoundRect,0.225000X-0.225000X-0.250000X0.225000X-0.250000X0.225000X0.250000X-0.225000X0.250000X0*%
%ADD18RoundRect,0.250000X-0.650000X0.325000X-0.650000X-0.325000X0.650000X-0.325000X0.650000X0.325000X0*%
%ADD19RoundRect,0.225000X0.250000X-0.225000X0.250000X0.225000X-0.250000X0.225000X-0.250000X-0.225000X0*%
%ADD20RoundRect,0.150000X-0.512500X-0.150000X0.512500X-0.150000X0.512500X0.150000X-0.512500X0.150000X0*%
%ADD21RoundRect,0.250000X-0.262500X-0.450000X0.262500X-0.450000X0.262500X0.450000X-0.262500X0.450000X0*%
%ADD22RoundRect,0.150000X0.150000X-0.512500X0.150000X0.512500X-0.150000X0.512500X-0.150000X-0.512500X0*%
%ADD23RoundRect,0.250000X0.787500X1.025000X-0.787500X1.025000X-0.787500X-1.025000X0.787500X-1.025000X0*%
%ADD24RoundRect,0.140000X0.170000X-0.140000X0.170000X0.140000X-0.170000X0.140000X-0.170000X-0.140000X0*%
%ADD25RoundRect,0.140000X-0.170000X0.140000X-0.170000X-0.140000X0.170000X-0.140000X0.170000X0.140000X0*%
%ADD26RoundRect,0.200000X0.275000X-0.200000X0.275000X0.200000X-0.275000X0.200000X-0.275000X-0.200000X0*%
G04 APERTURE END LIST*
D10*
%TO.C,R28*%
X111744871Y-112182415D03*
X111744871Y-113202415D03*
%TD*%
D11*
%TO.C,R27*%
X113200378Y-114833041D03*
X112180378Y-114833041D03*
%TD*%
D12*
%TO.C,R3*%
X118626044Y-101328006D03*
X116976044Y-101328006D03*
%TD*%
D13*
%TO.C,C9*%
X126225915Y-101972873D03*
X126225915Y-108197873D03*
%TD*%
D14*
%TO.C,U4*%
X123297787Y-114180984D03*
X123297787Y-115130984D03*
X123297787Y-116080984D03*
X121022787Y-116080984D03*
X121022787Y-114180984D03*
%TD*%
D15*
%TO.C,C7*%
X127322719Y-114301764D03*
X127322719Y-115851764D03*
%TD*%
D16*
%TO.C,C36*%
X105334460Y-110570944D03*
X102384460Y-110570944D03*
%TD*%
D17*
%TO.C,C10*%
X117698575Y-113226425D03*
X119248575Y-113226425D03*
%TD*%
D14*
%TO.C,U9*%
X104774685Y-101776533D03*
X104774685Y-102726533D03*
X104774685Y-103676533D03*
X102499685Y-103676533D03*
X102499685Y-102726533D03*
X102499685Y-101776533D03*
%TD*%
D18*
%TO.C,C17*%
X103947061Y-113296863D03*
X103947061Y-116246863D03*
%TD*%
D15*
%TO.C,C21*%
X100820230Y-100952848D03*
X100820230Y-102502848D03*
%TD*%
D19*
%TO.C,C22*%
X106524944Y-105038488D03*
X106524944Y-103488488D03*
%TD*%
D13*
%TO.C,C11*%
X131107077Y-102407446D03*
X131107077Y-108632446D03*
%TD*%
D15*
%TO.C,C2*%
X132295440Y-114258082D03*
X132295440Y-115808082D03*
%TD*%
D20*
%TO.C,U2*%
X120330417Y-103895681D03*
X120330417Y-102945681D03*
X120330417Y-101995681D03*
X122605417Y-101995681D03*
X122605417Y-102945681D03*
X122605417Y-103895681D03*
%TD*%
D21*
%TO.C,R19*%
X103329100Y-108440203D03*
X105154100Y-108440203D03*
%TD*%
D13*
%TO.C,C39*%
X137335328Y-100880298D03*
X137335328Y-107105298D03*
%TD*%
D22*
%TO.C,U5*%
X109980397Y-106543265D03*
X109030397Y-106543265D03*
X108080397Y-106543265D03*
X108080397Y-104268265D03*
X109030397Y-104268265D03*
X109980397Y-104268265D03*
%TD*%
D15*
%TO.C,C4*%
X129447227Y-114329735D03*
X129447227Y-115879735D03*
%TD*%
D11*
%TO.C,R12*%
X105255020Y-105028794D03*
X104235020Y-105028794D03*
%TD*%
D15*
%TO.C,C8*%
X125156554Y-114321139D03*
X125156554Y-115871139D03*
%TD*%
D23*
%TO.C,C38*%
X141864765Y-115629643D03*
X135639765Y-115629643D03*
%TD*%
D13*
%TO.C,C12*%
X142367000Y-100900500D03*
X142367000Y-107125500D03*
%TD*%
D24*
%TO.C,C1*%
X118554586Y-104230574D03*
X118554586Y-103270574D03*
%TD*%
D25*
%TO.C,C14*%
X107700155Y-112553626D03*
X107700155Y-113513626D03*
%TD*%
D26*
%TO.C,R8*%
X105857151Y-114556063D03*
X105857151Y-112906063D03*
%TD*%
D11*
%TO.C,R11*%
X103134799Y-105028794D03*
X102114799Y-105028794D03*
%TD*%
D15*
%TO.C,C15*%
X109396527Y-112878238D03*
X109396527Y-114428238D03*
%TD*%
D14*
%TO.C,U8*%
X109816436Y-109435368D03*
X109816436Y-110385368D03*
X109816436Y-111335368D03*
X107541436Y-111335368D03*
X107541436Y-110385368D03*
X107541436Y-109435368D03*
%TD*%
D12*
%TO.C,R20*%
X105490760Y-106703204D03*
X103840760Y-106703204D03*
%TD*%
D17*
%TO.C,C20*%
X100880921Y-106455176D03*
X102430921Y-106455176D03*
%TD*%
D23*
%TO.C,C19*%
X143288413Y-110813323D03*
X137063413Y-110813323D03*
%TD*%
M02*
