%TF.GenerationSoftware,KiCad,Pcbnew,7.0.6*%
%TF.CreationDate,2023-11-06T16:55:11+11:00*%
%TF.ProjectId,turbidity_sensor_v2,74757262-6964-4697-9479-5f73656e736f,0.1.0*%
%TF.SameCoordinates,Original*%
%TF.FileFunction,Drillmap*%
%TF.FilePolarity,Positive*%
%FSLAX45Y45*%
G04 Gerber Fmt 4.5, Leading zero omitted, Abs format (unit mm)*
G04 Created by KiCad (PCBNEW 7.0.6) date 2023-11-06 16:55:11*
%MOMM*%
%LPD*%
G01*
G04 APERTURE LIST*
%ADD10C,0.100000*%
%ADD11C,0.200000*%
%ADD12C,0.030000*%
%ADD13C,0.060000*%
%ADD14C,0.065000*%
%ADD15C,0.080000*%
%ADD16C,0.090000*%
G04 APERTURE END LIST*
D10*
X10000000Y-9963143D02*
X14700000Y-9963143D01*
X14700000Y-11775304D01*
X10000000Y-11775304D01*
X10000000Y-9963143D01*
D11*
D12*
X10051594Y-10359263D02*
X10081594Y-10389263D01*
X10081594Y-10359263D02*
X10051594Y-10389263D01*
X10168349Y-10402302D02*
X10198349Y-10432302D01*
X10198349Y-10402302D02*
X10168349Y-10432302D01*
X10392586Y-10945392D02*
X10422586Y-10975392D01*
X10422586Y-10945392D02*
X10392586Y-10975392D01*
X10438858Y-10613246D02*
X10468858Y-10643246D01*
X10468858Y-10613246D02*
X10438858Y-10643246D01*
X10549140Y-11526149D02*
X10579140Y-11556149D01*
X10579140Y-11526149D02*
X10549140Y-11556149D01*
X10549558Y-11637122D02*
X10579558Y-11667122D01*
X10579558Y-11637122D02*
X10549558Y-11667122D01*
X10568248Y-10904805D02*
X10598248Y-10934805D01*
X10598248Y-10904805D02*
X10568248Y-10934805D01*
X10573669Y-10149515D02*
X10603669Y-10179515D01*
X10603669Y-10149515D02*
X10573669Y-10179515D01*
X10573999Y-11183368D02*
X10603999Y-11213368D01*
X10603999Y-11183368D02*
X10573999Y-11213368D01*
X10602144Y-10843102D02*
X10632144Y-10873102D01*
X10632144Y-10843102D02*
X10602144Y-10873102D01*
X10602179Y-11694072D02*
X10632179Y-11724072D01*
X10632179Y-11694072D02*
X10602179Y-11724072D01*
X10608510Y-10578681D02*
X10638510Y-10608681D01*
X10638510Y-10578681D02*
X10608510Y-10608681D01*
X10614933Y-10758032D02*
X10644933Y-10788032D01*
X10644933Y-10758032D02*
X10614933Y-10788032D01*
X10637950Y-11530638D02*
X10667950Y-11560638D01*
X10667950Y-11530638D02*
X10637950Y-11560638D01*
X10653764Y-10173561D02*
X10683764Y-10203561D01*
X10683764Y-10173561D02*
X10653764Y-10203561D01*
X10654239Y-11238421D02*
X10684239Y-11268421D01*
X10684239Y-11238421D02*
X10654239Y-11268421D01*
X10730405Y-10322793D02*
X10760405Y-10352793D01*
X10760405Y-10322793D02*
X10730405Y-10352793D01*
X10751818Y-10516944D02*
X10781818Y-10546944D01*
X10781818Y-10516944D02*
X10751818Y-10546944D01*
X10793227Y-11410218D02*
X10823227Y-11440218D01*
X10823227Y-11410218D02*
X10793227Y-11440218D01*
X10793744Y-11471124D02*
X10823744Y-11501124D01*
X10823744Y-11471124D02*
X10793744Y-11501124D01*
X10831920Y-11282876D02*
X10861920Y-11312876D01*
X10861920Y-11282876D02*
X10831920Y-11312876D01*
X10834269Y-10290041D02*
X10864269Y-10320041D01*
X10864269Y-10290041D02*
X10834269Y-10320041D01*
X10876190Y-10786115D02*
X10906190Y-10816115D01*
X10906190Y-10786115D02*
X10876190Y-10816115D01*
X10902722Y-11696977D02*
X10932722Y-11726977D01*
X10932722Y-11696977D02*
X10902722Y-11726977D01*
X10965158Y-11338738D02*
X10995158Y-11368738D01*
X10995158Y-11338738D02*
X10965158Y-11368738D01*
X10982404Y-11504979D02*
X11012404Y-11534979D01*
X11012404Y-11504979D02*
X10982404Y-11534979D01*
X11027001Y-10518389D02*
X11057001Y-10548389D01*
X11057001Y-10518389D02*
X11027001Y-10548389D01*
X11065196Y-11025180D02*
X11095196Y-11055180D01*
X11095196Y-11025180D02*
X11065196Y-11055180D01*
X11082518Y-10410179D02*
X11112518Y-10440179D01*
X11112518Y-10410179D02*
X11082518Y-10440179D01*
X11116846Y-10898707D02*
X11146846Y-10928707D01*
X11146846Y-10898707D02*
X11116846Y-10928707D01*
X11120643Y-10526000D02*
X11150643Y-10556000D01*
X11150643Y-10526000D02*
X11120643Y-10556000D01*
X11147203Y-10697410D02*
X11177203Y-10727410D01*
X11177203Y-10697410D02*
X11147203Y-10727410D01*
X11181601Y-11543796D02*
X11211601Y-11573796D01*
X11211601Y-11543796D02*
X11181601Y-11573796D01*
X11222214Y-10919718D02*
X11252214Y-10949718D01*
X11252214Y-10919718D02*
X11222214Y-10949718D01*
X11246126Y-11371540D02*
X11276126Y-11401540D01*
X11276126Y-11371540D02*
X11246126Y-11401540D01*
X11324078Y-11471477D02*
X11354078Y-11501477D01*
X11354078Y-11471477D02*
X11324078Y-11501477D01*
X11378181Y-10702531D02*
X11408181Y-10732531D01*
X11408181Y-10702531D02*
X11378181Y-10732531D01*
X11399122Y-10850122D02*
X11429122Y-10880122D01*
X11429122Y-10850122D02*
X11399122Y-10880122D01*
X11399684Y-11481141D02*
X11429684Y-11511141D01*
X11429684Y-11481141D02*
X11399684Y-11511141D01*
X11488827Y-11023667D02*
X11518827Y-11053667D01*
X11518827Y-11023667D02*
X11488827Y-11053667D01*
X11584062Y-11427824D02*
X11614062Y-11457824D01*
X11614062Y-11427824D02*
X11584062Y-11457824D01*
X11614378Y-10221387D02*
X11644378Y-10251387D01*
X11644378Y-10221387D02*
X11614378Y-10251387D01*
X11615000Y-10449941D02*
X11645000Y-10479941D01*
X11645000Y-10449941D02*
X11615000Y-10479941D01*
X11649446Y-11491943D02*
X11679446Y-11521943D01*
X11679446Y-11491943D02*
X11649446Y-11521943D01*
X11669451Y-11397303D02*
X11699451Y-11427303D01*
X11699451Y-11397303D02*
X11669451Y-11427303D01*
X11674482Y-10978840D02*
X11704482Y-11008840D01*
X11704482Y-10978840D02*
X11674482Y-11008840D01*
X11713904Y-11539818D02*
X11743904Y-11569818D01*
X11743904Y-11539818D02*
X11713904Y-11569818D01*
X11724080Y-11452702D02*
X11754080Y-11482702D01*
X11754080Y-11452702D02*
X11724080Y-11482702D01*
X11738021Y-10593021D02*
X11768021Y-10623021D01*
X11768021Y-10593021D02*
X11738021Y-10623021D01*
X11754132Y-11214648D02*
X11784132Y-11244648D01*
X11784132Y-11214648D02*
X11754132Y-11244648D01*
X11800254Y-11540417D02*
X11830254Y-11570417D01*
X11830254Y-11540417D02*
X11800254Y-11570417D01*
X11807948Y-11468091D02*
X11837948Y-11498091D01*
X11837948Y-11468091D02*
X11807948Y-11498091D01*
X11825000Y-10800000D02*
X11855000Y-10830000D01*
X11855000Y-10800000D02*
X11825000Y-10830000D01*
X11832928Y-10672168D02*
X11862928Y-10702168D01*
X11862928Y-10672168D02*
X11832928Y-10702168D01*
X11857491Y-10587939D02*
X11887491Y-10617939D01*
X11887491Y-10587939D02*
X11857491Y-10617939D01*
X11879301Y-10217405D02*
X11909301Y-10247405D01*
X11909301Y-10217405D02*
X11879301Y-10247405D01*
X11881044Y-11521951D02*
X11911044Y-11551951D01*
X11911044Y-11521951D02*
X11881044Y-11551951D01*
X11899826Y-10863489D02*
X11929826Y-10893489D01*
X11929826Y-10863489D02*
X11899826Y-10893489D01*
X11906152Y-10312057D02*
X11936152Y-10342057D01*
X11936152Y-10312057D02*
X11906152Y-10342057D01*
X11950293Y-11555806D02*
X11980293Y-11585806D01*
X11980293Y-11555806D02*
X11950293Y-11585806D01*
X11974676Y-10751026D02*
X12004676Y-10781026D01*
X12004676Y-10751026D02*
X11974676Y-10781026D01*
X12065373Y-10520816D02*
X12095373Y-10550816D01*
X12095373Y-10520816D02*
X12065373Y-10550816D01*
X12085500Y-10635716D02*
X12115500Y-10665716D01*
X12115500Y-10635716D02*
X12085500Y-10665716D01*
X12087993Y-11082563D02*
X12117993Y-11112563D01*
X12117993Y-11082563D02*
X12087993Y-11112563D01*
X12120818Y-10139000D02*
X12150818Y-10169000D01*
X12150818Y-10139000D02*
X12120818Y-10169000D01*
X12138727Y-11227734D02*
X12168727Y-11257734D01*
X12168727Y-11227734D02*
X12138727Y-11257734D01*
X12194517Y-11182003D02*
X12224517Y-11212003D01*
X12224517Y-11182003D02*
X12194517Y-11212003D01*
X12212031Y-11449217D02*
X12242031Y-11479217D01*
X12242031Y-11449217D02*
X12212031Y-11479217D01*
X12250000Y-10900000D02*
X12280000Y-10930000D01*
X12280000Y-10900000D02*
X12250000Y-10930000D01*
X12264350Y-11186726D02*
X12294350Y-11216726D01*
X12294350Y-11186726D02*
X12264350Y-11216726D01*
X12336819Y-11177701D02*
X12366819Y-11207701D01*
X12366819Y-11177701D02*
X12336819Y-11207701D01*
X12370000Y-10900000D02*
X12400000Y-10930000D01*
X12400000Y-10900000D02*
X12370000Y-10930000D01*
X12427542Y-10145157D02*
X12457542Y-10175157D01*
X12457542Y-10145157D02*
X12427542Y-10175157D01*
X12432712Y-11281190D02*
X12462712Y-11311190D01*
X12462712Y-11281190D02*
X12432712Y-11311190D01*
X12461100Y-11130720D02*
X12491100Y-11160720D01*
X12491100Y-11130720D02*
X12461100Y-11160720D01*
X12461911Y-10430890D02*
X12491911Y-10460890D01*
X12491911Y-10430890D02*
X12461911Y-10460890D01*
X12519099Y-10653568D02*
X12549099Y-10683568D01*
X12549099Y-10653568D02*
X12519099Y-10683568D01*
X12540166Y-10362649D02*
X12570166Y-10392649D01*
X12570166Y-10362649D02*
X12540166Y-10392649D01*
X12578705Y-11172800D02*
X12608705Y-11202800D01*
X12608705Y-11172800D02*
X12578705Y-11202800D01*
X12588361Y-10600753D02*
X12618361Y-10630753D01*
X12618361Y-10600753D02*
X12588361Y-10630753D01*
X12601901Y-11017028D02*
X12631901Y-11047028D01*
X12631901Y-11017028D02*
X12601901Y-11047028D01*
X12611453Y-11441523D02*
X12641453Y-11471523D01*
X12641453Y-11441523D02*
X12611453Y-11471523D01*
X12613186Y-11373044D02*
X12643186Y-11403044D01*
X12643186Y-11373044D02*
X12613186Y-11403044D01*
X12636976Y-10550458D02*
X12666976Y-10580458D01*
X12666976Y-10550458D02*
X12636976Y-10580458D01*
X12661000Y-10617000D02*
X12691000Y-10647000D01*
X12691000Y-10617000D02*
X12661000Y-10647000D01*
X12709993Y-10330949D02*
X12739993Y-10360949D01*
X12739993Y-10330949D02*
X12709993Y-10360949D01*
X12778043Y-11223690D02*
X12808043Y-11253690D01*
X12808043Y-11223690D02*
X12778043Y-11253690D01*
X12812285Y-10696530D02*
X12842285Y-10726530D01*
X12842285Y-10696530D02*
X12812285Y-10726530D01*
X12823585Y-11441930D02*
X12853585Y-11471930D01*
X12853585Y-11441930D02*
X12823585Y-11471930D01*
X12825124Y-11374990D02*
X12855124Y-11404990D01*
X12855124Y-11374990D02*
X12825124Y-11404990D01*
X12852341Y-10614073D02*
X12882341Y-10644073D01*
X12882341Y-10614073D02*
X12852341Y-10644073D01*
X12907190Y-10558071D02*
X12937190Y-10588071D01*
X12937190Y-10558071D02*
X12907190Y-10588071D01*
X12907830Y-10824228D02*
X12937830Y-10854228D01*
X12937830Y-10824228D02*
X12907830Y-10854228D01*
X12967545Y-10616603D02*
X12997545Y-10646603D01*
X12997545Y-10616603D02*
X12967545Y-10646603D01*
X13017968Y-10555953D02*
X13047968Y-10585953D01*
X13047968Y-10555953D02*
X13017968Y-10585953D01*
X13029793Y-11371912D02*
X13059793Y-11401912D01*
X13059793Y-11371912D02*
X13029793Y-11401912D01*
X13032870Y-11442699D02*
X13062870Y-11472699D01*
X13062870Y-11442699D02*
X13032870Y-11472699D01*
X13037002Y-11205360D02*
X13067002Y-11235360D01*
X13067002Y-11205360D02*
X13037002Y-11235360D01*
X13107593Y-11372681D02*
X13137593Y-11402681D01*
X13137593Y-11372681D02*
X13107593Y-11402681D01*
X13109901Y-11438852D02*
X13139901Y-11468852D01*
X13139901Y-11438852D02*
X13109901Y-11468852D01*
X13126479Y-10584449D02*
X13156479Y-10614449D01*
X13156479Y-10584449D02*
X13126479Y-10614449D01*
X13133444Y-11220555D02*
X13163444Y-11250555D01*
X13163444Y-11220555D02*
X13133444Y-11250555D01*
X13244072Y-10578018D02*
X13274072Y-10608018D01*
X13274072Y-10578018D02*
X13244072Y-10608018D01*
X13370163Y-10470850D02*
X13400163Y-10500850D01*
X13400163Y-10470850D02*
X13370163Y-10500850D01*
X13399135Y-10674300D02*
X13429135Y-10704300D01*
X13429135Y-10674300D02*
X13399135Y-10704300D01*
X13405431Y-10598740D02*
X13435431Y-10628740D01*
X13435431Y-10598740D02*
X13405431Y-10628740D01*
X13485714Y-10534200D02*
X13515714Y-10564200D01*
X13515714Y-10534200D02*
X13485714Y-10564200D01*
X13488337Y-10601889D02*
X13518337Y-10631889D01*
X13518337Y-10601889D02*
X13488337Y-10631889D01*
X13490436Y-10687943D02*
X13520436Y-10717943D01*
X13520436Y-10687943D02*
X13490436Y-10717943D01*
X13509828Y-10250089D02*
X13539828Y-10280089D01*
X13539828Y-10250089D02*
X13509828Y-10280089D01*
X13683487Y-11397946D02*
X13713487Y-11427946D01*
X13713487Y-11397946D02*
X13683487Y-11427946D01*
X13698991Y-11465733D02*
X13728991Y-11495733D01*
X13728991Y-11465733D02*
X13698991Y-11495733D01*
X13701000Y-11546797D02*
X13731000Y-11576797D01*
X13731000Y-11546797D02*
X13701000Y-11576797D01*
X13763365Y-10336276D02*
X13793365Y-10366276D01*
X13793365Y-10336276D02*
X13763365Y-10366276D01*
X13780993Y-11539734D02*
X13810993Y-11569734D01*
X13810993Y-11539734D02*
X13780993Y-11569734D01*
X13784444Y-11387182D02*
X13814444Y-11417182D01*
X13814444Y-11387182D02*
X13784444Y-11417182D01*
X13786626Y-11456278D02*
X13816626Y-11486278D01*
X13816626Y-11456278D02*
X13786626Y-11486278D01*
X13824632Y-10517544D02*
X13854632Y-10547544D01*
X13854632Y-10517544D02*
X13824632Y-10547544D01*
X13826087Y-10599004D02*
X13856087Y-10629004D01*
X13856087Y-10599004D02*
X13826087Y-10629004D01*
X13845182Y-10250089D02*
X13875182Y-10280089D01*
X13875182Y-10250089D02*
X13845182Y-10280089D01*
X13862268Y-11546886D02*
X13892268Y-11576886D01*
X13892268Y-11546886D02*
X13862268Y-11576886D01*
X13873905Y-11473006D02*
X13903905Y-11503006D01*
X13903905Y-11473006D02*
X13873905Y-11503006D01*
X13874632Y-11388637D02*
X13904632Y-11418637D01*
X13904632Y-11388637D02*
X13874632Y-11418637D01*
X13883896Y-10409185D02*
X13913896Y-10439185D01*
X13913896Y-10409185D02*
X13883896Y-10439185D01*
X13893728Y-10520454D02*
X13923728Y-10550454D01*
X13923728Y-10520454D02*
X13893728Y-10550454D01*
X13893728Y-10595368D02*
X13923728Y-10625368D01*
X13923728Y-10595368D02*
X13893728Y-10625368D01*
X13959914Y-11546886D02*
X13989914Y-11576886D01*
X13989914Y-11546886D02*
X13959914Y-11576886D01*
X13960456Y-11391546D02*
X13990456Y-11421546D01*
X13990456Y-11391546D02*
X13960456Y-11421546D01*
X13961184Y-11473733D02*
X13991184Y-11503733D01*
X13991184Y-11473733D02*
X13961184Y-11503733D01*
X13966803Y-10605914D02*
X13996803Y-10635914D01*
X13996803Y-10605914D02*
X13966803Y-10635914D01*
X13967894Y-10682283D02*
X13997894Y-10712283D01*
X13997894Y-10682283D02*
X13967894Y-10712283D01*
X13970824Y-10524817D02*
X14000824Y-10554817D01*
X14000824Y-10524817D02*
X13970824Y-10554817D01*
X13986610Y-10411547D02*
X14016610Y-10441547D01*
X14016610Y-10411547D02*
X13986610Y-10441547D01*
X14045222Y-10606059D02*
X14075222Y-10636059D01*
X14075222Y-10606059D02*
X14045222Y-10636059D01*
X14046392Y-10524164D02*
X14076392Y-10554164D01*
X14076392Y-10524164D02*
X14046392Y-10554164D01*
X14051072Y-10678594D02*
X14081072Y-10708594D01*
X14081072Y-10678594D02*
X14051072Y-10708594D01*
X14091685Y-10404463D02*
X14121685Y-10434463D01*
X14121685Y-10404463D02*
X14091685Y-10434463D01*
X14122438Y-10528843D02*
X14152438Y-10558843D01*
X14152438Y-10528843D02*
X14122438Y-10558843D01*
X14124518Y-10602159D02*
X14154518Y-10632159D01*
X14154518Y-10602159D02*
X14124518Y-10632159D01*
X14127637Y-10677555D02*
X14157637Y-10707555D01*
X14157637Y-10677555D02*
X14127637Y-10707555D01*
X14180231Y-10411547D02*
X14210231Y-10441547D01*
X14210231Y-10411547D02*
X14180231Y-10441547D01*
X14200823Y-10533523D02*
X14230823Y-10563523D01*
X14230823Y-10533523D02*
X14200823Y-10563523D01*
X14203163Y-10609569D02*
X14233163Y-10639569D01*
X14233163Y-10609569D02*
X14203163Y-10639569D01*
X14204333Y-10678594D02*
X14234333Y-10708594D01*
X14234333Y-10678594D02*
X14204333Y-10708594D01*
D13*
X10123960Y-11008360D02*
G75*
G03*
X10123960Y-11008360I-30000J0D01*
G01*
X12859024Y-10823905D02*
G75*
G03*
X12859024Y-10823905I-30000J0D01*
G01*
X12965817Y-10718013D02*
G75*
G03*
X12965817Y-10718013I-30000J0D01*
G01*
X13111393Y-10678143D02*
G75*
G03*
X13111393Y-10678143I-30000J0D01*
G01*
X13272377Y-10684409D02*
G75*
G03*
X13272377Y-10684409I-30000J0D01*
G01*
X13474714Y-11085298D02*
G75*
G03*
X13474714Y-11085298I-30000J0D01*
G01*
X13790730Y-11193841D02*
G75*
G03*
X13790730Y-11193841I-30000J0D01*
G01*
D14*
X11346264Y-11148743D02*
X11346264Y-11213743D01*
X11313764Y-11181243D02*
X11378764Y-11181243D01*
X11346264Y-11275743D02*
X11346264Y-11340743D01*
X11313764Y-11308243D02*
X11378764Y-11308243D01*
X11473264Y-11148743D02*
X11473264Y-11213743D01*
X11440764Y-11181243D02*
X11505764Y-11181243D01*
X11473264Y-11275743D02*
X11473264Y-11340743D01*
X11440764Y-11308243D02*
X11505764Y-11308243D01*
X11600264Y-11148743D02*
X11600264Y-11213743D01*
X11567764Y-11181243D02*
X11632764Y-11181243D01*
X11600264Y-11275743D02*
X11600264Y-11340743D01*
X11567764Y-11308243D02*
X11632764Y-11308243D01*
D15*
X11321445Y-10294425D02*
X11321445Y-10237856D01*
X11264876Y-10237856D01*
X11264876Y-10294425D01*
X11321445Y-10294425D01*
X11321445Y-10494425D02*
X11321445Y-10437856D01*
X11264876Y-10437856D01*
X11264876Y-10494425D01*
X11321445Y-10494425D01*
X11321445Y-10694425D02*
X11321445Y-10637856D01*
X11264876Y-10637856D01*
X11264876Y-10694425D01*
X11321445Y-10694425D01*
X11521445Y-10294425D02*
X11521445Y-10237856D01*
X11464876Y-10237856D01*
X11464876Y-10294425D01*
X11521445Y-10294425D01*
X11521445Y-10494425D02*
X11521445Y-10437856D01*
X11464876Y-10437856D01*
X11464876Y-10494425D01*
X11521445Y-10494425D01*
X11521445Y-10694425D02*
X11521445Y-10637856D01*
X11464876Y-10637856D01*
X11464876Y-10694425D01*
X11521445Y-10694425D01*
D16*
X10125180Y-11323979D02*
X10170180Y-11278979D01*
X10125180Y-11233979D01*
X10080180Y-11278979D01*
X10125180Y-11323979D01*
X10125180Y-11577979D02*
X10170180Y-11532979D01*
X10125180Y-11487979D01*
X10080180Y-11532979D01*
X10125180Y-11577979D01*
X14565856Y-10679021D02*
X14610856Y-10634021D01*
X14565856Y-10589021D01*
X14520856Y-10634021D01*
X14565856Y-10679021D01*
X14565856Y-10933021D02*
X14610856Y-10888021D01*
X14565856Y-10843021D01*
X14520856Y-10888021D01*
X14565856Y-10933021D01*
X14565856Y-11334965D02*
X14610856Y-11289965D01*
X14565856Y-11244965D01*
X14520856Y-11289965D01*
X14565856Y-11334965D01*
X14565856Y-11588965D02*
X14610856Y-11543965D01*
X14565856Y-11498965D01*
X14520856Y-11543965D01*
X14565856Y-11588965D01*
D11*
X10255777Y-12091788D02*
X10255777Y-11891788D01*
X10255777Y-11891788D02*
X10303396Y-11891788D01*
X10303396Y-11891788D02*
X10331967Y-11901312D01*
X10331967Y-11901312D02*
X10351015Y-11920360D01*
X10351015Y-11920360D02*
X10360539Y-11939407D01*
X10360539Y-11939407D02*
X10370063Y-11977502D01*
X10370063Y-11977502D02*
X10370063Y-12006074D01*
X10370063Y-12006074D02*
X10360539Y-12044169D01*
X10360539Y-12044169D02*
X10351015Y-12063217D01*
X10351015Y-12063217D02*
X10331967Y-12082264D01*
X10331967Y-12082264D02*
X10303396Y-12091788D01*
X10303396Y-12091788D02*
X10255777Y-12091788D01*
X10455777Y-12091788D02*
X10455777Y-11958455D01*
X10455777Y-11996550D02*
X10465301Y-11977502D01*
X10465301Y-11977502D02*
X10474824Y-11967979D01*
X10474824Y-11967979D02*
X10493872Y-11958455D01*
X10493872Y-11958455D02*
X10512920Y-11958455D01*
X10579586Y-12091788D02*
X10579586Y-11958455D01*
X10579586Y-11891788D02*
X10570063Y-11901312D01*
X10570063Y-11901312D02*
X10579586Y-11910836D01*
X10579586Y-11910836D02*
X10589110Y-11901312D01*
X10589110Y-11901312D02*
X10579586Y-11891788D01*
X10579586Y-11891788D02*
X10579586Y-11910836D01*
X10703396Y-12091788D02*
X10684348Y-12082264D01*
X10684348Y-12082264D02*
X10674824Y-12063217D01*
X10674824Y-12063217D02*
X10674824Y-11891788D01*
X10808158Y-12091788D02*
X10789110Y-12082264D01*
X10789110Y-12082264D02*
X10779586Y-12063217D01*
X10779586Y-12063217D02*
X10779586Y-11891788D01*
X11036729Y-12091788D02*
X11036729Y-11891788D01*
X11036729Y-11891788D02*
X11103396Y-12034645D01*
X11103396Y-12034645D02*
X11170063Y-11891788D01*
X11170063Y-11891788D02*
X11170063Y-12091788D01*
X11351015Y-12091788D02*
X11351015Y-11987026D01*
X11351015Y-11987026D02*
X11341491Y-11967979D01*
X11341491Y-11967979D02*
X11322443Y-11958455D01*
X11322443Y-11958455D02*
X11284348Y-11958455D01*
X11284348Y-11958455D02*
X11265301Y-11967979D01*
X11351015Y-12082264D02*
X11331967Y-12091788D01*
X11331967Y-12091788D02*
X11284348Y-12091788D01*
X11284348Y-12091788D02*
X11265301Y-12082264D01*
X11265301Y-12082264D02*
X11255777Y-12063217D01*
X11255777Y-12063217D02*
X11255777Y-12044169D01*
X11255777Y-12044169D02*
X11265301Y-12025121D01*
X11265301Y-12025121D02*
X11284348Y-12015598D01*
X11284348Y-12015598D02*
X11331967Y-12015598D01*
X11331967Y-12015598D02*
X11351015Y-12006074D01*
X11446253Y-11958455D02*
X11446253Y-12158455D01*
X11446253Y-11967979D02*
X11465301Y-11958455D01*
X11465301Y-11958455D02*
X11503396Y-11958455D01*
X11503396Y-11958455D02*
X11522443Y-11967979D01*
X11522443Y-11967979D02*
X11531967Y-11977502D01*
X11531967Y-11977502D02*
X11541491Y-11996550D01*
X11541491Y-11996550D02*
X11541491Y-12053693D01*
X11541491Y-12053693D02*
X11531967Y-12072740D01*
X11531967Y-12072740D02*
X11522443Y-12082264D01*
X11522443Y-12082264D02*
X11503396Y-12091788D01*
X11503396Y-12091788D02*
X11465301Y-12091788D01*
X11465301Y-12091788D02*
X11446253Y-12082264D01*
X11627205Y-12072740D02*
X11636729Y-12082264D01*
X11636729Y-12082264D02*
X11627205Y-12091788D01*
X11627205Y-12091788D02*
X11617682Y-12082264D01*
X11617682Y-12082264D02*
X11627205Y-12072740D01*
X11627205Y-12072740D02*
X11627205Y-12091788D01*
X11627205Y-11967979D02*
X11636729Y-11977502D01*
X11636729Y-11977502D02*
X11627205Y-11987026D01*
X11627205Y-11987026D02*
X11617682Y-11977502D01*
X11617682Y-11977502D02*
X11627205Y-11967979D01*
X11627205Y-11967979D02*
X11627205Y-11987026D01*
D12*
X9965000Y-12405304D02*
X9995000Y-12435304D01*
X9995000Y-12405304D02*
X9965000Y-12435304D01*
D11*
X10293872Y-12311788D02*
X10312920Y-12311788D01*
X10312920Y-12311788D02*
X10331967Y-12321312D01*
X10331967Y-12321312D02*
X10341491Y-12330836D01*
X10341491Y-12330836D02*
X10351015Y-12349883D01*
X10351015Y-12349883D02*
X10360539Y-12387979D01*
X10360539Y-12387979D02*
X10360539Y-12435598D01*
X10360539Y-12435598D02*
X10351015Y-12473693D01*
X10351015Y-12473693D02*
X10341491Y-12492740D01*
X10341491Y-12492740D02*
X10331967Y-12502264D01*
X10331967Y-12502264D02*
X10312920Y-12511788D01*
X10312920Y-12511788D02*
X10293872Y-12511788D01*
X10293872Y-12511788D02*
X10274824Y-12502264D01*
X10274824Y-12502264D02*
X10265301Y-12492740D01*
X10265301Y-12492740D02*
X10255777Y-12473693D01*
X10255777Y-12473693D02*
X10246253Y-12435598D01*
X10246253Y-12435598D02*
X10246253Y-12387979D01*
X10246253Y-12387979D02*
X10255777Y-12349883D01*
X10255777Y-12349883D02*
X10265301Y-12330836D01*
X10265301Y-12330836D02*
X10274824Y-12321312D01*
X10274824Y-12321312D02*
X10293872Y-12311788D01*
X10446253Y-12492740D02*
X10455777Y-12502264D01*
X10455777Y-12502264D02*
X10446253Y-12511788D01*
X10446253Y-12511788D02*
X10436729Y-12502264D01*
X10436729Y-12502264D02*
X10446253Y-12492740D01*
X10446253Y-12492740D02*
X10446253Y-12511788D01*
X10522444Y-12311788D02*
X10646253Y-12311788D01*
X10646253Y-12311788D02*
X10579586Y-12387979D01*
X10579586Y-12387979D02*
X10608158Y-12387979D01*
X10608158Y-12387979D02*
X10627205Y-12397502D01*
X10627205Y-12397502D02*
X10636729Y-12407026D01*
X10636729Y-12407026D02*
X10646253Y-12426074D01*
X10646253Y-12426074D02*
X10646253Y-12473693D01*
X10646253Y-12473693D02*
X10636729Y-12492740D01*
X10636729Y-12492740D02*
X10627205Y-12502264D01*
X10627205Y-12502264D02*
X10608158Y-12511788D01*
X10608158Y-12511788D02*
X10551015Y-12511788D01*
X10551015Y-12511788D02*
X10531967Y-12502264D01*
X10531967Y-12502264D02*
X10522444Y-12492740D01*
X10770063Y-12311788D02*
X10789110Y-12311788D01*
X10789110Y-12311788D02*
X10808158Y-12321312D01*
X10808158Y-12321312D02*
X10817682Y-12330836D01*
X10817682Y-12330836D02*
X10827205Y-12349883D01*
X10827205Y-12349883D02*
X10836729Y-12387979D01*
X10836729Y-12387979D02*
X10836729Y-12435598D01*
X10836729Y-12435598D02*
X10827205Y-12473693D01*
X10827205Y-12473693D02*
X10817682Y-12492740D01*
X10817682Y-12492740D02*
X10808158Y-12502264D01*
X10808158Y-12502264D02*
X10789110Y-12511788D01*
X10789110Y-12511788D02*
X10770063Y-12511788D01*
X10770063Y-12511788D02*
X10751015Y-12502264D01*
X10751015Y-12502264D02*
X10741491Y-12492740D01*
X10741491Y-12492740D02*
X10731967Y-12473693D01*
X10731967Y-12473693D02*
X10722444Y-12435598D01*
X10722444Y-12435598D02*
X10722444Y-12387979D01*
X10722444Y-12387979D02*
X10731967Y-12349883D01*
X10731967Y-12349883D02*
X10741491Y-12330836D01*
X10741491Y-12330836D02*
X10751015Y-12321312D01*
X10751015Y-12321312D02*
X10770063Y-12311788D01*
X10960539Y-12311788D02*
X10979586Y-12311788D01*
X10979586Y-12311788D02*
X10998634Y-12321312D01*
X10998634Y-12321312D02*
X11008158Y-12330836D01*
X11008158Y-12330836D02*
X11017682Y-12349883D01*
X11017682Y-12349883D02*
X11027205Y-12387979D01*
X11027205Y-12387979D02*
X11027205Y-12435598D01*
X11027205Y-12435598D02*
X11017682Y-12473693D01*
X11017682Y-12473693D02*
X11008158Y-12492740D01*
X11008158Y-12492740D02*
X10998634Y-12502264D01*
X10998634Y-12502264D02*
X10979586Y-12511788D01*
X10979586Y-12511788D02*
X10960539Y-12511788D01*
X10960539Y-12511788D02*
X10941491Y-12502264D01*
X10941491Y-12502264D02*
X10931967Y-12492740D01*
X10931967Y-12492740D02*
X10922444Y-12473693D01*
X10922444Y-12473693D02*
X10912920Y-12435598D01*
X10912920Y-12435598D02*
X10912920Y-12387979D01*
X10912920Y-12387979D02*
X10922444Y-12349883D01*
X10922444Y-12349883D02*
X10931967Y-12330836D01*
X10931967Y-12330836D02*
X10941491Y-12321312D01*
X10941491Y-12321312D02*
X10960539Y-12311788D01*
X11112920Y-12511788D02*
X11112920Y-12378455D01*
X11112920Y-12397502D02*
X11122444Y-12387979D01*
X11122444Y-12387979D02*
X11141491Y-12378455D01*
X11141491Y-12378455D02*
X11170063Y-12378455D01*
X11170063Y-12378455D02*
X11189110Y-12387979D01*
X11189110Y-12387979D02*
X11198634Y-12407026D01*
X11198634Y-12407026D02*
X11198634Y-12511788D01*
X11198634Y-12407026D02*
X11208158Y-12387979D01*
X11208158Y-12387979D02*
X11227205Y-12378455D01*
X11227205Y-12378455D02*
X11255777Y-12378455D01*
X11255777Y-12378455D02*
X11274824Y-12387979D01*
X11274824Y-12387979D02*
X11284348Y-12407026D01*
X11284348Y-12407026D02*
X11284348Y-12511788D01*
X11379586Y-12511788D02*
X11379586Y-12378455D01*
X11379586Y-12397502D02*
X11389110Y-12387979D01*
X11389110Y-12387979D02*
X11408158Y-12378455D01*
X11408158Y-12378455D02*
X11436729Y-12378455D01*
X11436729Y-12378455D02*
X11455777Y-12387979D01*
X11455777Y-12387979D02*
X11465301Y-12407026D01*
X11465301Y-12407026D02*
X11465301Y-12511788D01*
X11465301Y-12407026D02*
X11474824Y-12387979D01*
X11474824Y-12387979D02*
X11493872Y-12378455D01*
X11493872Y-12378455D02*
X11522443Y-12378455D01*
X11522443Y-12378455D02*
X11541491Y-12387979D01*
X11541491Y-12387979D02*
X11551015Y-12407026D01*
X11551015Y-12407026D02*
X11551015Y-12511788D01*
X11941491Y-12302264D02*
X11770063Y-12559407D01*
X12198634Y-12311788D02*
X12217682Y-12311788D01*
X12217682Y-12311788D02*
X12236729Y-12321312D01*
X12236729Y-12321312D02*
X12246253Y-12330836D01*
X12246253Y-12330836D02*
X12255777Y-12349883D01*
X12255777Y-12349883D02*
X12265301Y-12387979D01*
X12265301Y-12387979D02*
X12265301Y-12435598D01*
X12265301Y-12435598D02*
X12255777Y-12473693D01*
X12255777Y-12473693D02*
X12246253Y-12492740D01*
X12246253Y-12492740D02*
X12236729Y-12502264D01*
X12236729Y-12502264D02*
X12217682Y-12511788D01*
X12217682Y-12511788D02*
X12198634Y-12511788D01*
X12198634Y-12511788D02*
X12179586Y-12502264D01*
X12179586Y-12502264D02*
X12170063Y-12492740D01*
X12170063Y-12492740D02*
X12160539Y-12473693D01*
X12160539Y-12473693D02*
X12151015Y-12435598D01*
X12151015Y-12435598D02*
X12151015Y-12387979D01*
X12151015Y-12387979D02*
X12160539Y-12349883D01*
X12160539Y-12349883D02*
X12170063Y-12330836D01*
X12170063Y-12330836D02*
X12179586Y-12321312D01*
X12179586Y-12321312D02*
X12198634Y-12311788D01*
X12351015Y-12492740D02*
X12360539Y-12502264D01*
X12360539Y-12502264D02*
X12351015Y-12511788D01*
X12351015Y-12511788D02*
X12341491Y-12502264D01*
X12341491Y-12502264D02*
X12351015Y-12492740D01*
X12351015Y-12492740D02*
X12351015Y-12511788D01*
X12484348Y-12311788D02*
X12503396Y-12311788D01*
X12503396Y-12311788D02*
X12522444Y-12321312D01*
X12522444Y-12321312D02*
X12531967Y-12330836D01*
X12531967Y-12330836D02*
X12541491Y-12349883D01*
X12541491Y-12349883D02*
X12551015Y-12387979D01*
X12551015Y-12387979D02*
X12551015Y-12435598D01*
X12551015Y-12435598D02*
X12541491Y-12473693D01*
X12541491Y-12473693D02*
X12531967Y-12492740D01*
X12531967Y-12492740D02*
X12522444Y-12502264D01*
X12522444Y-12502264D02*
X12503396Y-12511788D01*
X12503396Y-12511788D02*
X12484348Y-12511788D01*
X12484348Y-12511788D02*
X12465301Y-12502264D01*
X12465301Y-12502264D02*
X12455777Y-12492740D01*
X12455777Y-12492740D02*
X12446253Y-12473693D01*
X12446253Y-12473693D02*
X12436729Y-12435598D01*
X12436729Y-12435598D02*
X12436729Y-12387979D01*
X12436729Y-12387979D02*
X12446253Y-12349883D01*
X12446253Y-12349883D02*
X12455777Y-12330836D01*
X12455777Y-12330836D02*
X12465301Y-12321312D01*
X12465301Y-12321312D02*
X12484348Y-12311788D01*
X12741491Y-12511788D02*
X12627206Y-12511788D01*
X12684348Y-12511788D02*
X12684348Y-12311788D01*
X12684348Y-12311788D02*
X12665301Y-12340360D01*
X12665301Y-12340360D02*
X12646253Y-12359407D01*
X12646253Y-12359407D02*
X12627206Y-12368931D01*
X12931967Y-12511788D02*
X12817682Y-12511788D01*
X12874825Y-12511788D02*
X12874825Y-12311788D01*
X12874825Y-12311788D02*
X12855777Y-12340360D01*
X12855777Y-12340360D02*
X12836729Y-12359407D01*
X12836729Y-12359407D02*
X12817682Y-12368931D01*
X13046253Y-12397502D02*
X13027206Y-12387979D01*
X13027206Y-12387979D02*
X13017682Y-12378455D01*
X13017682Y-12378455D02*
X13008158Y-12359407D01*
X13008158Y-12359407D02*
X13008158Y-12349883D01*
X13008158Y-12349883D02*
X13017682Y-12330836D01*
X13017682Y-12330836D02*
X13027206Y-12321312D01*
X13027206Y-12321312D02*
X13046253Y-12311788D01*
X13046253Y-12311788D02*
X13084348Y-12311788D01*
X13084348Y-12311788D02*
X13103396Y-12321312D01*
X13103396Y-12321312D02*
X13112920Y-12330836D01*
X13112920Y-12330836D02*
X13122444Y-12349883D01*
X13122444Y-12349883D02*
X13122444Y-12359407D01*
X13122444Y-12359407D02*
X13112920Y-12378455D01*
X13112920Y-12378455D02*
X13103396Y-12387979D01*
X13103396Y-12387979D02*
X13084348Y-12397502D01*
X13084348Y-12397502D02*
X13046253Y-12397502D01*
X13046253Y-12397502D02*
X13027206Y-12407026D01*
X13027206Y-12407026D02*
X13017682Y-12416550D01*
X13017682Y-12416550D02*
X13008158Y-12435598D01*
X13008158Y-12435598D02*
X13008158Y-12473693D01*
X13008158Y-12473693D02*
X13017682Y-12492740D01*
X13017682Y-12492740D02*
X13027206Y-12502264D01*
X13027206Y-12502264D02*
X13046253Y-12511788D01*
X13046253Y-12511788D02*
X13084348Y-12511788D01*
X13084348Y-12511788D02*
X13103396Y-12502264D01*
X13103396Y-12502264D02*
X13112920Y-12492740D01*
X13112920Y-12492740D02*
X13122444Y-12473693D01*
X13122444Y-12473693D02*
X13122444Y-12435598D01*
X13122444Y-12435598D02*
X13112920Y-12416550D01*
X13112920Y-12416550D02*
X13103396Y-12407026D01*
X13103396Y-12407026D02*
X13084348Y-12397502D01*
X13198634Y-12311788D02*
X13198634Y-12349883D01*
X13274825Y-12311788D02*
X13274825Y-12349883D01*
X13570063Y-12587979D02*
X13560539Y-12578455D01*
X13560539Y-12578455D02*
X13541491Y-12549883D01*
X13541491Y-12549883D02*
X13531968Y-12530836D01*
X13531968Y-12530836D02*
X13522444Y-12502264D01*
X13522444Y-12502264D02*
X13512920Y-12454645D01*
X13512920Y-12454645D02*
X13512920Y-12416550D01*
X13512920Y-12416550D02*
X13522444Y-12368931D01*
X13522444Y-12368931D02*
X13531968Y-12340360D01*
X13531968Y-12340360D02*
X13541491Y-12321312D01*
X13541491Y-12321312D02*
X13560539Y-12292740D01*
X13560539Y-12292740D02*
X13570063Y-12283217D01*
X13751015Y-12511788D02*
X13636729Y-12511788D01*
X13693872Y-12511788D02*
X13693872Y-12311788D01*
X13693872Y-12311788D02*
X13674825Y-12340360D01*
X13674825Y-12340360D02*
X13655777Y-12359407D01*
X13655777Y-12359407D02*
X13636729Y-12368931D01*
X13922444Y-12378455D02*
X13922444Y-12511788D01*
X13874825Y-12302264D02*
X13827206Y-12445121D01*
X13827206Y-12445121D02*
X13951015Y-12445121D01*
X14112920Y-12378455D02*
X14112920Y-12511788D01*
X14065301Y-12302264D02*
X14017682Y-12445121D01*
X14017682Y-12445121D02*
X14141491Y-12445121D01*
X14370063Y-12511788D02*
X14370063Y-12311788D01*
X14455777Y-12511788D02*
X14455777Y-12407026D01*
X14455777Y-12407026D02*
X14446253Y-12387979D01*
X14446253Y-12387979D02*
X14427206Y-12378455D01*
X14427206Y-12378455D02*
X14398634Y-12378455D01*
X14398634Y-12378455D02*
X14379587Y-12387979D01*
X14379587Y-12387979D02*
X14370063Y-12397502D01*
X14579587Y-12511788D02*
X14560539Y-12502264D01*
X14560539Y-12502264D02*
X14551015Y-12492740D01*
X14551015Y-12492740D02*
X14541491Y-12473693D01*
X14541491Y-12473693D02*
X14541491Y-12416550D01*
X14541491Y-12416550D02*
X14551015Y-12397502D01*
X14551015Y-12397502D02*
X14560539Y-12387979D01*
X14560539Y-12387979D02*
X14579587Y-12378455D01*
X14579587Y-12378455D02*
X14608158Y-12378455D01*
X14608158Y-12378455D02*
X14627206Y-12387979D01*
X14627206Y-12387979D02*
X14636730Y-12397502D01*
X14636730Y-12397502D02*
X14646253Y-12416550D01*
X14646253Y-12416550D02*
X14646253Y-12473693D01*
X14646253Y-12473693D02*
X14636730Y-12492740D01*
X14636730Y-12492740D02*
X14627206Y-12502264D01*
X14627206Y-12502264D02*
X14608158Y-12511788D01*
X14608158Y-12511788D02*
X14579587Y-12511788D01*
X14760539Y-12511788D02*
X14741491Y-12502264D01*
X14741491Y-12502264D02*
X14731968Y-12483217D01*
X14731968Y-12483217D02*
X14731968Y-12311788D01*
X14912920Y-12502264D02*
X14893872Y-12511788D01*
X14893872Y-12511788D02*
X14855777Y-12511788D01*
X14855777Y-12511788D02*
X14836730Y-12502264D01*
X14836730Y-12502264D02*
X14827206Y-12483217D01*
X14827206Y-12483217D02*
X14827206Y-12407026D01*
X14827206Y-12407026D02*
X14836730Y-12387979D01*
X14836730Y-12387979D02*
X14855777Y-12378455D01*
X14855777Y-12378455D02*
X14893872Y-12378455D01*
X14893872Y-12378455D02*
X14912920Y-12387979D01*
X14912920Y-12387979D02*
X14922444Y-12407026D01*
X14922444Y-12407026D02*
X14922444Y-12426074D01*
X14922444Y-12426074D02*
X14827206Y-12445121D01*
X14998634Y-12502264D02*
X15017682Y-12511788D01*
X15017682Y-12511788D02*
X15055777Y-12511788D01*
X15055777Y-12511788D02*
X15074825Y-12502264D01*
X15074825Y-12502264D02*
X15084349Y-12483217D01*
X15084349Y-12483217D02*
X15084349Y-12473693D01*
X15084349Y-12473693D02*
X15074825Y-12454645D01*
X15074825Y-12454645D02*
X15055777Y-12445121D01*
X15055777Y-12445121D02*
X15027206Y-12445121D01*
X15027206Y-12445121D02*
X15008158Y-12435598D01*
X15008158Y-12435598D02*
X14998634Y-12416550D01*
X14998634Y-12416550D02*
X14998634Y-12407026D01*
X14998634Y-12407026D02*
X15008158Y-12387979D01*
X15008158Y-12387979D02*
X15027206Y-12378455D01*
X15027206Y-12378455D02*
X15055777Y-12378455D01*
X15055777Y-12378455D02*
X15074825Y-12387979D01*
X15151015Y-12587979D02*
X15160539Y-12578455D01*
X15160539Y-12578455D02*
X15179587Y-12549883D01*
X15179587Y-12549883D02*
X15189111Y-12530836D01*
X15189111Y-12530836D02*
X15198634Y-12502264D01*
X15198634Y-12502264D02*
X15208158Y-12454645D01*
X15208158Y-12454645D02*
X15208158Y-12416550D01*
X15208158Y-12416550D02*
X15198634Y-12368931D01*
X15198634Y-12368931D02*
X15189111Y-12340360D01*
X15189111Y-12340360D02*
X15179587Y-12321312D01*
X15179587Y-12321312D02*
X15160539Y-12292740D01*
X15160539Y-12292740D02*
X15151015Y-12283217D01*
D13*
X9995000Y-12684304D02*
G75*
G03*
X9995000Y-12684304I-30000J0D01*
G01*
D11*
X10293872Y-12575788D02*
X10312920Y-12575788D01*
X10312920Y-12575788D02*
X10331967Y-12585312D01*
X10331967Y-12585312D02*
X10341491Y-12594836D01*
X10341491Y-12594836D02*
X10351015Y-12613883D01*
X10351015Y-12613883D02*
X10360539Y-12651979D01*
X10360539Y-12651979D02*
X10360539Y-12699598D01*
X10360539Y-12699598D02*
X10351015Y-12737693D01*
X10351015Y-12737693D02*
X10341491Y-12756740D01*
X10341491Y-12756740D02*
X10331967Y-12766264D01*
X10331967Y-12766264D02*
X10312920Y-12775788D01*
X10312920Y-12775788D02*
X10293872Y-12775788D01*
X10293872Y-12775788D02*
X10274824Y-12766264D01*
X10274824Y-12766264D02*
X10265301Y-12756740D01*
X10265301Y-12756740D02*
X10255777Y-12737693D01*
X10255777Y-12737693D02*
X10246253Y-12699598D01*
X10246253Y-12699598D02*
X10246253Y-12651979D01*
X10246253Y-12651979D02*
X10255777Y-12613883D01*
X10255777Y-12613883D02*
X10265301Y-12594836D01*
X10265301Y-12594836D02*
X10274824Y-12585312D01*
X10274824Y-12585312D02*
X10293872Y-12575788D01*
X10446253Y-12756740D02*
X10455777Y-12766264D01*
X10455777Y-12766264D02*
X10446253Y-12775788D01*
X10446253Y-12775788D02*
X10436729Y-12766264D01*
X10436729Y-12766264D02*
X10446253Y-12756740D01*
X10446253Y-12756740D02*
X10446253Y-12775788D01*
X10627205Y-12575788D02*
X10589110Y-12575788D01*
X10589110Y-12575788D02*
X10570063Y-12585312D01*
X10570063Y-12585312D02*
X10560539Y-12594836D01*
X10560539Y-12594836D02*
X10541491Y-12623407D01*
X10541491Y-12623407D02*
X10531967Y-12661502D01*
X10531967Y-12661502D02*
X10531967Y-12737693D01*
X10531967Y-12737693D02*
X10541491Y-12756740D01*
X10541491Y-12756740D02*
X10551015Y-12766264D01*
X10551015Y-12766264D02*
X10570063Y-12775788D01*
X10570063Y-12775788D02*
X10608158Y-12775788D01*
X10608158Y-12775788D02*
X10627205Y-12766264D01*
X10627205Y-12766264D02*
X10636729Y-12756740D01*
X10636729Y-12756740D02*
X10646253Y-12737693D01*
X10646253Y-12737693D02*
X10646253Y-12690074D01*
X10646253Y-12690074D02*
X10636729Y-12671026D01*
X10636729Y-12671026D02*
X10627205Y-12661502D01*
X10627205Y-12661502D02*
X10608158Y-12651979D01*
X10608158Y-12651979D02*
X10570063Y-12651979D01*
X10570063Y-12651979D02*
X10551015Y-12661502D01*
X10551015Y-12661502D02*
X10541491Y-12671026D01*
X10541491Y-12671026D02*
X10531967Y-12690074D01*
X10770063Y-12575788D02*
X10789110Y-12575788D01*
X10789110Y-12575788D02*
X10808158Y-12585312D01*
X10808158Y-12585312D02*
X10817682Y-12594836D01*
X10817682Y-12594836D02*
X10827205Y-12613883D01*
X10827205Y-12613883D02*
X10836729Y-12651979D01*
X10836729Y-12651979D02*
X10836729Y-12699598D01*
X10836729Y-12699598D02*
X10827205Y-12737693D01*
X10827205Y-12737693D02*
X10817682Y-12756740D01*
X10817682Y-12756740D02*
X10808158Y-12766264D01*
X10808158Y-12766264D02*
X10789110Y-12775788D01*
X10789110Y-12775788D02*
X10770063Y-12775788D01*
X10770063Y-12775788D02*
X10751015Y-12766264D01*
X10751015Y-12766264D02*
X10741491Y-12756740D01*
X10741491Y-12756740D02*
X10731967Y-12737693D01*
X10731967Y-12737693D02*
X10722444Y-12699598D01*
X10722444Y-12699598D02*
X10722444Y-12651979D01*
X10722444Y-12651979D02*
X10731967Y-12613883D01*
X10731967Y-12613883D02*
X10741491Y-12594836D01*
X10741491Y-12594836D02*
X10751015Y-12585312D01*
X10751015Y-12585312D02*
X10770063Y-12575788D01*
X10960539Y-12575788D02*
X10979586Y-12575788D01*
X10979586Y-12575788D02*
X10998634Y-12585312D01*
X10998634Y-12585312D02*
X11008158Y-12594836D01*
X11008158Y-12594836D02*
X11017682Y-12613883D01*
X11017682Y-12613883D02*
X11027205Y-12651979D01*
X11027205Y-12651979D02*
X11027205Y-12699598D01*
X11027205Y-12699598D02*
X11017682Y-12737693D01*
X11017682Y-12737693D02*
X11008158Y-12756740D01*
X11008158Y-12756740D02*
X10998634Y-12766264D01*
X10998634Y-12766264D02*
X10979586Y-12775788D01*
X10979586Y-12775788D02*
X10960539Y-12775788D01*
X10960539Y-12775788D02*
X10941491Y-12766264D01*
X10941491Y-12766264D02*
X10931967Y-12756740D01*
X10931967Y-12756740D02*
X10922444Y-12737693D01*
X10922444Y-12737693D02*
X10912920Y-12699598D01*
X10912920Y-12699598D02*
X10912920Y-12651979D01*
X10912920Y-12651979D02*
X10922444Y-12613883D01*
X10922444Y-12613883D02*
X10931967Y-12594836D01*
X10931967Y-12594836D02*
X10941491Y-12585312D01*
X10941491Y-12585312D02*
X10960539Y-12575788D01*
X11112920Y-12775788D02*
X11112920Y-12642455D01*
X11112920Y-12661502D02*
X11122444Y-12651979D01*
X11122444Y-12651979D02*
X11141491Y-12642455D01*
X11141491Y-12642455D02*
X11170063Y-12642455D01*
X11170063Y-12642455D02*
X11189110Y-12651979D01*
X11189110Y-12651979D02*
X11198634Y-12671026D01*
X11198634Y-12671026D02*
X11198634Y-12775788D01*
X11198634Y-12671026D02*
X11208158Y-12651979D01*
X11208158Y-12651979D02*
X11227205Y-12642455D01*
X11227205Y-12642455D02*
X11255777Y-12642455D01*
X11255777Y-12642455D02*
X11274824Y-12651979D01*
X11274824Y-12651979D02*
X11284348Y-12671026D01*
X11284348Y-12671026D02*
X11284348Y-12775788D01*
X11379586Y-12775788D02*
X11379586Y-12642455D01*
X11379586Y-12661502D02*
X11389110Y-12651979D01*
X11389110Y-12651979D02*
X11408158Y-12642455D01*
X11408158Y-12642455D02*
X11436729Y-12642455D01*
X11436729Y-12642455D02*
X11455777Y-12651979D01*
X11455777Y-12651979D02*
X11465301Y-12671026D01*
X11465301Y-12671026D02*
X11465301Y-12775788D01*
X11465301Y-12671026D02*
X11474824Y-12651979D01*
X11474824Y-12651979D02*
X11493872Y-12642455D01*
X11493872Y-12642455D02*
X11522443Y-12642455D01*
X11522443Y-12642455D02*
X11541491Y-12651979D01*
X11541491Y-12651979D02*
X11551015Y-12671026D01*
X11551015Y-12671026D02*
X11551015Y-12775788D01*
X11941491Y-12566264D02*
X11770063Y-12823407D01*
X12198634Y-12575788D02*
X12217682Y-12575788D01*
X12217682Y-12575788D02*
X12236729Y-12585312D01*
X12236729Y-12585312D02*
X12246253Y-12594836D01*
X12246253Y-12594836D02*
X12255777Y-12613883D01*
X12255777Y-12613883D02*
X12265301Y-12651979D01*
X12265301Y-12651979D02*
X12265301Y-12699598D01*
X12265301Y-12699598D02*
X12255777Y-12737693D01*
X12255777Y-12737693D02*
X12246253Y-12756740D01*
X12246253Y-12756740D02*
X12236729Y-12766264D01*
X12236729Y-12766264D02*
X12217682Y-12775788D01*
X12217682Y-12775788D02*
X12198634Y-12775788D01*
X12198634Y-12775788D02*
X12179586Y-12766264D01*
X12179586Y-12766264D02*
X12170063Y-12756740D01*
X12170063Y-12756740D02*
X12160539Y-12737693D01*
X12160539Y-12737693D02*
X12151015Y-12699598D01*
X12151015Y-12699598D02*
X12151015Y-12651979D01*
X12151015Y-12651979D02*
X12160539Y-12613883D01*
X12160539Y-12613883D02*
X12170063Y-12594836D01*
X12170063Y-12594836D02*
X12179586Y-12585312D01*
X12179586Y-12585312D02*
X12198634Y-12575788D01*
X12351015Y-12756740D02*
X12360539Y-12766264D01*
X12360539Y-12766264D02*
X12351015Y-12775788D01*
X12351015Y-12775788D02*
X12341491Y-12766264D01*
X12341491Y-12766264D02*
X12351015Y-12756740D01*
X12351015Y-12756740D02*
X12351015Y-12775788D01*
X12484348Y-12575788D02*
X12503396Y-12575788D01*
X12503396Y-12575788D02*
X12522444Y-12585312D01*
X12522444Y-12585312D02*
X12531967Y-12594836D01*
X12531967Y-12594836D02*
X12541491Y-12613883D01*
X12541491Y-12613883D02*
X12551015Y-12651979D01*
X12551015Y-12651979D02*
X12551015Y-12699598D01*
X12551015Y-12699598D02*
X12541491Y-12737693D01*
X12541491Y-12737693D02*
X12531967Y-12756740D01*
X12531967Y-12756740D02*
X12522444Y-12766264D01*
X12522444Y-12766264D02*
X12503396Y-12775788D01*
X12503396Y-12775788D02*
X12484348Y-12775788D01*
X12484348Y-12775788D02*
X12465301Y-12766264D01*
X12465301Y-12766264D02*
X12455777Y-12756740D01*
X12455777Y-12756740D02*
X12446253Y-12737693D01*
X12446253Y-12737693D02*
X12436729Y-12699598D01*
X12436729Y-12699598D02*
X12436729Y-12651979D01*
X12436729Y-12651979D02*
X12446253Y-12613883D01*
X12446253Y-12613883D02*
X12455777Y-12594836D01*
X12455777Y-12594836D02*
X12465301Y-12585312D01*
X12465301Y-12585312D02*
X12484348Y-12575788D01*
X12627206Y-12594836D02*
X12636729Y-12585312D01*
X12636729Y-12585312D02*
X12655777Y-12575788D01*
X12655777Y-12575788D02*
X12703396Y-12575788D01*
X12703396Y-12575788D02*
X12722444Y-12585312D01*
X12722444Y-12585312D02*
X12731967Y-12594836D01*
X12731967Y-12594836D02*
X12741491Y-12613883D01*
X12741491Y-12613883D02*
X12741491Y-12632931D01*
X12741491Y-12632931D02*
X12731967Y-12661502D01*
X12731967Y-12661502D02*
X12617682Y-12775788D01*
X12617682Y-12775788D02*
X12741491Y-12775788D01*
X12808158Y-12575788D02*
X12931967Y-12575788D01*
X12931967Y-12575788D02*
X12865301Y-12651979D01*
X12865301Y-12651979D02*
X12893872Y-12651979D01*
X12893872Y-12651979D02*
X12912920Y-12661502D01*
X12912920Y-12661502D02*
X12922444Y-12671026D01*
X12922444Y-12671026D02*
X12931967Y-12690074D01*
X12931967Y-12690074D02*
X12931967Y-12737693D01*
X12931967Y-12737693D02*
X12922444Y-12756740D01*
X12922444Y-12756740D02*
X12912920Y-12766264D01*
X12912920Y-12766264D02*
X12893872Y-12775788D01*
X12893872Y-12775788D02*
X12836729Y-12775788D01*
X12836729Y-12775788D02*
X12817682Y-12766264D01*
X12817682Y-12766264D02*
X12808158Y-12756740D01*
X13103396Y-12575788D02*
X13065301Y-12575788D01*
X13065301Y-12575788D02*
X13046253Y-12585312D01*
X13046253Y-12585312D02*
X13036729Y-12594836D01*
X13036729Y-12594836D02*
X13017682Y-12623407D01*
X13017682Y-12623407D02*
X13008158Y-12661502D01*
X13008158Y-12661502D02*
X13008158Y-12737693D01*
X13008158Y-12737693D02*
X13017682Y-12756740D01*
X13017682Y-12756740D02*
X13027206Y-12766264D01*
X13027206Y-12766264D02*
X13046253Y-12775788D01*
X13046253Y-12775788D02*
X13084348Y-12775788D01*
X13084348Y-12775788D02*
X13103396Y-12766264D01*
X13103396Y-12766264D02*
X13112920Y-12756740D01*
X13112920Y-12756740D02*
X13122444Y-12737693D01*
X13122444Y-12737693D02*
X13122444Y-12690074D01*
X13122444Y-12690074D02*
X13112920Y-12671026D01*
X13112920Y-12671026D02*
X13103396Y-12661502D01*
X13103396Y-12661502D02*
X13084348Y-12651979D01*
X13084348Y-12651979D02*
X13046253Y-12651979D01*
X13046253Y-12651979D02*
X13027206Y-12661502D01*
X13027206Y-12661502D02*
X13017682Y-12671026D01*
X13017682Y-12671026D02*
X13008158Y-12690074D01*
X13198634Y-12575788D02*
X13198634Y-12613883D01*
X13274825Y-12575788D02*
X13274825Y-12613883D01*
X13570063Y-12851979D02*
X13560539Y-12842455D01*
X13560539Y-12842455D02*
X13541491Y-12813883D01*
X13541491Y-12813883D02*
X13531968Y-12794836D01*
X13531968Y-12794836D02*
X13522444Y-12766264D01*
X13522444Y-12766264D02*
X13512920Y-12718645D01*
X13512920Y-12718645D02*
X13512920Y-12680550D01*
X13512920Y-12680550D02*
X13522444Y-12632931D01*
X13522444Y-12632931D02*
X13531968Y-12604360D01*
X13531968Y-12604360D02*
X13541491Y-12585312D01*
X13541491Y-12585312D02*
X13560539Y-12556740D01*
X13560539Y-12556740D02*
X13570063Y-12547217D01*
X13627206Y-12575788D02*
X13760539Y-12575788D01*
X13760539Y-12575788D02*
X13674825Y-12775788D01*
X13989110Y-12775788D02*
X13989110Y-12575788D01*
X14074825Y-12775788D02*
X14074825Y-12671026D01*
X14074825Y-12671026D02*
X14065301Y-12651979D01*
X14065301Y-12651979D02*
X14046253Y-12642455D01*
X14046253Y-12642455D02*
X14017682Y-12642455D01*
X14017682Y-12642455D02*
X13998634Y-12651979D01*
X13998634Y-12651979D02*
X13989110Y-12661502D01*
X14198634Y-12775788D02*
X14179587Y-12766264D01*
X14179587Y-12766264D02*
X14170063Y-12756740D01*
X14170063Y-12756740D02*
X14160539Y-12737693D01*
X14160539Y-12737693D02*
X14160539Y-12680550D01*
X14160539Y-12680550D02*
X14170063Y-12661502D01*
X14170063Y-12661502D02*
X14179587Y-12651979D01*
X14179587Y-12651979D02*
X14198634Y-12642455D01*
X14198634Y-12642455D02*
X14227206Y-12642455D01*
X14227206Y-12642455D02*
X14246253Y-12651979D01*
X14246253Y-12651979D02*
X14255777Y-12661502D01*
X14255777Y-12661502D02*
X14265301Y-12680550D01*
X14265301Y-12680550D02*
X14265301Y-12737693D01*
X14265301Y-12737693D02*
X14255777Y-12756740D01*
X14255777Y-12756740D02*
X14246253Y-12766264D01*
X14246253Y-12766264D02*
X14227206Y-12775788D01*
X14227206Y-12775788D02*
X14198634Y-12775788D01*
X14379587Y-12775788D02*
X14360539Y-12766264D01*
X14360539Y-12766264D02*
X14351015Y-12747217D01*
X14351015Y-12747217D02*
X14351015Y-12575788D01*
X14531968Y-12766264D02*
X14512920Y-12775788D01*
X14512920Y-12775788D02*
X14474825Y-12775788D01*
X14474825Y-12775788D02*
X14455777Y-12766264D01*
X14455777Y-12766264D02*
X14446253Y-12747217D01*
X14446253Y-12747217D02*
X14446253Y-12671026D01*
X14446253Y-12671026D02*
X14455777Y-12651979D01*
X14455777Y-12651979D02*
X14474825Y-12642455D01*
X14474825Y-12642455D02*
X14512920Y-12642455D01*
X14512920Y-12642455D02*
X14531968Y-12651979D01*
X14531968Y-12651979D02*
X14541491Y-12671026D01*
X14541491Y-12671026D02*
X14541491Y-12690074D01*
X14541491Y-12690074D02*
X14446253Y-12709121D01*
X14617682Y-12766264D02*
X14636730Y-12775788D01*
X14636730Y-12775788D02*
X14674825Y-12775788D01*
X14674825Y-12775788D02*
X14693872Y-12766264D01*
X14693872Y-12766264D02*
X14703396Y-12747217D01*
X14703396Y-12747217D02*
X14703396Y-12737693D01*
X14703396Y-12737693D02*
X14693872Y-12718645D01*
X14693872Y-12718645D02*
X14674825Y-12709121D01*
X14674825Y-12709121D02*
X14646253Y-12709121D01*
X14646253Y-12709121D02*
X14627206Y-12699598D01*
X14627206Y-12699598D02*
X14617682Y-12680550D01*
X14617682Y-12680550D02*
X14617682Y-12671026D01*
X14617682Y-12671026D02*
X14627206Y-12651979D01*
X14627206Y-12651979D02*
X14646253Y-12642455D01*
X14646253Y-12642455D02*
X14674825Y-12642455D01*
X14674825Y-12642455D02*
X14693872Y-12651979D01*
X14770063Y-12851979D02*
X14779587Y-12842455D01*
X14779587Y-12842455D02*
X14798634Y-12813883D01*
X14798634Y-12813883D02*
X14808158Y-12794836D01*
X14808158Y-12794836D02*
X14817682Y-12766264D01*
X14817682Y-12766264D02*
X14827206Y-12718645D01*
X14827206Y-12718645D02*
X14827206Y-12680550D01*
X14827206Y-12680550D02*
X14817682Y-12632931D01*
X14817682Y-12632931D02*
X14808158Y-12604360D01*
X14808158Y-12604360D02*
X14798634Y-12585312D01*
X14798634Y-12585312D02*
X14779587Y-12556740D01*
X14779587Y-12556740D02*
X14770063Y-12547217D01*
D14*
X9962500Y-12915804D02*
X9962500Y-12980804D01*
X9930000Y-12948304D02*
X9995000Y-12948304D01*
D11*
X10293872Y-12839788D02*
X10312920Y-12839788D01*
X10312920Y-12839788D02*
X10331967Y-12849312D01*
X10331967Y-12849312D02*
X10341491Y-12858836D01*
X10341491Y-12858836D02*
X10351015Y-12877883D01*
X10351015Y-12877883D02*
X10360539Y-12915979D01*
X10360539Y-12915979D02*
X10360539Y-12963598D01*
X10360539Y-12963598D02*
X10351015Y-13001693D01*
X10351015Y-13001693D02*
X10341491Y-13020740D01*
X10341491Y-13020740D02*
X10331967Y-13030264D01*
X10331967Y-13030264D02*
X10312920Y-13039788D01*
X10312920Y-13039788D02*
X10293872Y-13039788D01*
X10293872Y-13039788D02*
X10274824Y-13030264D01*
X10274824Y-13030264D02*
X10265301Y-13020740D01*
X10265301Y-13020740D02*
X10255777Y-13001693D01*
X10255777Y-13001693D02*
X10246253Y-12963598D01*
X10246253Y-12963598D02*
X10246253Y-12915979D01*
X10246253Y-12915979D02*
X10255777Y-12877883D01*
X10255777Y-12877883D02*
X10265301Y-12858836D01*
X10265301Y-12858836D02*
X10274824Y-12849312D01*
X10274824Y-12849312D02*
X10293872Y-12839788D01*
X10446253Y-13020740D02*
X10455777Y-13030264D01*
X10455777Y-13030264D02*
X10446253Y-13039788D01*
X10446253Y-13039788D02*
X10436729Y-13030264D01*
X10436729Y-13030264D02*
X10446253Y-13020740D01*
X10446253Y-13020740D02*
X10446253Y-13039788D01*
X10627205Y-12839788D02*
X10589110Y-12839788D01*
X10589110Y-12839788D02*
X10570063Y-12849312D01*
X10570063Y-12849312D02*
X10560539Y-12858836D01*
X10560539Y-12858836D02*
X10541491Y-12887407D01*
X10541491Y-12887407D02*
X10531967Y-12925502D01*
X10531967Y-12925502D02*
X10531967Y-13001693D01*
X10531967Y-13001693D02*
X10541491Y-13020740D01*
X10541491Y-13020740D02*
X10551015Y-13030264D01*
X10551015Y-13030264D02*
X10570063Y-13039788D01*
X10570063Y-13039788D02*
X10608158Y-13039788D01*
X10608158Y-13039788D02*
X10627205Y-13030264D01*
X10627205Y-13030264D02*
X10636729Y-13020740D01*
X10636729Y-13020740D02*
X10646253Y-13001693D01*
X10646253Y-13001693D02*
X10646253Y-12954074D01*
X10646253Y-12954074D02*
X10636729Y-12935026D01*
X10636729Y-12935026D02*
X10627205Y-12925502D01*
X10627205Y-12925502D02*
X10608158Y-12915979D01*
X10608158Y-12915979D02*
X10570063Y-12915979D01*
X10570063Y-12915979D02*
X10551015Y-12925502D01*
X10551015Y-12925502D02*
X10541491Y-12935026D01*
X10541491Y-12935026D02*
X10531967Y-12954074D01*
X10827205Y-12839788D02*
X10731967Y-12839788D01*
X10731967Y-12839788D02*
X10722444Y-12935026D01*
X10722444Y-12935026D02*
X10731967Y-12925502D01*
X10731967Y-12925502D02*
X10751015Y-12915979D01*
X10751015Y-12915979D02*
X10798634Y-12915979D01*
X10798634Y-12915979D02*
X10817682Y-12925502D01*
X10817682Y-12925502D02*
X10827205Y-12935026D01*
X10827205Y-12935026D02*
X10836729Y-12954074D01*
X10836729Y-12954074D02*
X10836729Y-13001693D01*
X10836729Y-13001693D02*
X10827205Y-13020740D01*
X10827205Y-13020740D02*
X10817682Y-13030264D01*
X10817682Y-13030264D02*
X10798634Y-13039788D01*
X10798634Y-13039788D02*
X10751015Y-13039788D01*
X10751015Y-13039788D02*
X10731967Y-13030264D01*
X10731967Y-13030264D02*
X10722444Y-13020740D01*
X10960539Y-12839788D02*
X10979586Y-12839788D01*
X10979586Y-12839788D02*
X10998634Y-12849312D01*
X10998634Y-12849312D02*
X11008158Y-12858836D01*
X11008158Y-12858836D02*
X11017682Y-12877883D01*
X11017682Y-12877883D02*
X11027205Y-12915979D01*
X11027205Y-12915979D02*
X11027205Y-12963598D01*
X11027205Y-12963598D02*
X11017682Y-13001693D01*
X11017682Y-13001693D02*
X11008158Y-13020740D01*
X11008158Y-13020740D02*
X10998634Y-13030264D01*
X10998634Y-13030264D02*
X10979586Y-13039788D01*
X10979586Y-13039788D02*
X10960539Y-13039788D01*
X10960539Y-13039788D02*
X10941491Y-13030264D01*
X10941491Y-13030264D02*
X10931967Y-13020740D01*
X10931967Y-13020740D02*
X10922444Y-13001693D01*
X10922444Y-13001693D02*
X10912920Y-12963598D01*
X10912920Y-12963598D02*
X10912920Y-12915979D01*
X10912920Y-12915979D02*
X10922444Y-12877883D01*
X10922444Y-12877883D02*
X10931967Y-12858836D01*
X10931967Y-12858836D02*
X10941491Y-12849312D01*
X10941491Y-12849312D02*
X10960539Y-12839788D01*
X11112920Y-13039788D02*
X11112920Y-12906455D01*
X11112920Y-12925502D02*
X11122444Y-12915979D01*
X11122444Y-12915979D02*
X11141491Y-12906455D01*
X11141491Y-12906455D02*
X11170063Y-12906455D01*
X11170063Y-12906455D02*
X11189110Y-12915979D01*
X11189110Y-12915979D02*
X11198634Y-12935026D01*
X11198634Y-12935026D02*
X11198634Y-13039788D01*
X11198634Y-12935026D02*
X11208158Y-12915979D01*
X11208158Y-12915979D02*
X11227205Y-12906455D01*
X11227205Y-12906455D02*
X11255777Y-12906455D01*
X11255777Y-12906455D02*
X11274824Y-12915979D01*
X11274824Y-12915979D02*
X11284348Y-12935026D01*
X11284348Y-12935026D02*
X11284348Y-13039788D01*
X11379586Y-13039788D02*
X11379586Y-12906455D01*
X11379586Y-12925502D02*
X11389110Y-12915979D01*
X11389110Y-12915979D02*
X11408158Y-12906455D01*
X11408158Y-12906455D02*
X11436729Y-12906455D01*
X11436729Y-12906455D02*
X11455777Y-12915979D01*
X11455777Y-12915979D02*
X11465301Y-12935026D01*
X11465301Y-12935026D02*
X11465301Y-13039788D01*
X11465301Y-12935026D02*
X11474824Y-12915979D01*
X11474824Y-12915979D02*
X11493872Y-12906455D01*
X11493872Y-12906455D02*
X11522443Y-12906455D01*
X11522443Y-12906455D02*
X11541491Y-12915979D01*
X11541491Y-12915979D02*
X11551015Y-12935026D01*
X11551015Y-12935026D02*
X11551015Y-13039788D01*
X11941491Y-12830264D02*
X11770063Y-13087407D01*
X12198634Y-12839788D02*
X12217682Y-12839788D01*
X12217682Y-12839788D02*
X12236729Y-12849312D01*
X12236729Y-12849312D02*
X12246253Y-12858836D01*
X12246253Y-12858836D02*
X12255777Y-12877883D01*
X12255777Y-12877883D02*
X12265301Y-12915979D01*
X12265301Y-12915979D02*
X12265301Y-12963598D01*
X12265301Y-12963598D02*
X12255777Y-13001693D01*
X12255777Y-13001693D02*
X12246253Y-13020740D01*
X12246253Y-13020740D02*
X12236729Y-13030264D01*
X12236729Y-13030264D02*
X12217682Y-13039788D01*
X12217682Y-13039788D02*
X12198634Y-13039788D01*
X12198634Y-13039788D02*
X12179586Y-13030264D01*
X12179586Y-13030264D02*
X12170063Y-13020740D01*
X12170063Y-13020740D02*
X12160539Y-13001693D01*
X12160539Y-13001693D02*
X12151015Y-12963598D01*
X12151015Y-12963598D02*
X12151015Y-12915979D01*
X12151015Y-12915979D02*
X12160539Y-12877883D01*
X12160539Y-12877883D02*
X12170063Y-12858836D01*
X12170063Y-12858836D02*
X12179586Y-12849312D01*
X12179586Y-12849312D02*
X12198634Y-12839788D01*
X12351015Y-13020740D02*
X12360539Y-13030264D01*
X12360539Y-13030264D02*
X12351015Y-13039788D01*
X12351015Y-13039788D02*
X12341491Y-13030264D01*
X12341491Y-13030264D02*
X12351015Y-13020740D01*
X12351015Y-13020740D02*
X12351015Y-13039788D01*
X12484348Y-12839788D02*
X12503396Y-12839788D01*
X12503396Y-12839788D02*
X12522444Y-12849312D01*
X12522444Y-12849312D02*
X12531967Y-12858836D01*
X12531967Y-12858836D02*
X12541491Y-12877883D01*
X12541491Y-12877883D02*
X12551015Y-12915979D01*
X12551015Y-12915979D02*
X12551015Y-12963598D01*
X12551015Y-12963598D02*
X12541491Y-13001693D01*
X12541491Y-13001693D02*
X12531967Y-13020740D01*
X12531967Y-13020740D02*
X12522444Y-13030264D01*
X12522444Y-13030264D02*
X12503396Y-13039788D01*
X12503396Y-13039788D02*
X12484348Y-13039788D01*
X12484348Y-13039788D02*
X12465301Y-13030264D01*
X12465301Y-13030264D02*
X12455777Y-13020740D01*
X12455777Y-13020740D02*
X12446253Y-13001693D01*
X12446253Y-13001693D02*
X12436729Y-12963598D01*
X12436729Y-12963598D02*
X12436729Y-12915979D01*
X12436729Y-12915979D02*
X12446253Y-12877883D01*
X12446253Y-12877883D02*
X12455777Y-12858836D01*
X12455777Y-12858836D02*
X12465301Y-12849312D01*
X12465301Y-12849312D02*
X12484348Y-12839788D01*
X12627206Y-12858836D02*
X12636729Y-12849312D01*
X12636729Y-12849312D02*
X12655777Y-12839788D01*
X12655777Y-12839788D02*
X12703396Y-12839788D01*
X12703396Y-12839788D02*
X12722444Y-12849312D01*
X12722444Y-12849312D02*
X12731967Y-12858836D01*
X12731967Y-12858836D02*
X12741491Y-12877883D01*
X12741491Y-12877883D02*
X12741491Y-12896931D01*
X12741491Y-12896931D02*
X12731967Y-12925502D01*
X12731967Y-12925502D02*
X12617682Y-13039788D01*
X12617682Y-13039788D02*
X12741491Y-13039788D01*
X12922444Y-12839788D02*
X12827206Y-12839788D01*
X12827206Y-12839788D02*
X12817682Y-12935026D01*
X12817682Y-12935026D02*
X12827206Y-12925502D01*
X12827206Y-12925502D02*
X12846253Y-12915979D01*
X12846253Y-12915979D02*
X12893872Y-12915979D01*
X12893872Y-12915979D02*
X12912920Y-12925502D01*
X12912920Y-12925502D02*
X12922444Y-12935026D01*
X12922444Y-12935026D02*
X12931967Y-12954074D01*
X12931967Y-12954074D02*
X12931967Y-13001693D01*
X12931967Y-13001693D02*
X12922444Y-13020740D01*
X12922444Y-13020740D02*
X12912920Y-13030264D01*
X12912920Y-13030264D02*
X12893872Y-13039788D01*
X12893872Y-13039788D02*
X12846253Y-13039788D01*
X12846253Y-13039788D02*
X12827206Y-13030264D01*
X12827206Y-13030264D02*
X12817682Y-13020740D01*
X13103396Y-12839788D02*
X13065301Y-12839788D01*
X13065301Y-12839788D02*
X13046253Y-12849312D01*
X13046253Y-12849312D02*
X13036729Y-12858836D01*
X13036729Y-12858836D02*
X13017682Y-12887407D01*
X13017682Y-12887407D02*
X13008158Y-12925502D01*
X13008158Y-12925502D02*
X13008158Y-13001693D01*
X13008158Y-13001693D02*
X13017682Y-13020740D01*
X13017682Y-13020740D02*
X13027206Y-13030264D01*
X13027206Y-13030264D02*
X13046253Y-13039788D01*
X13046253Y-13039788D02*
X13084348Y-13039788D01*
X13084348Y-13039788D02*
X13103396Y-13030264D01*
X13103396Y-13030264D02*
X13112920Y-13020740D01*
X13112920Y-13020740D02*
X13122444Y-13001693D01*
X13122444Y-13001693D02*
X13122444Y-12954074D01*
X13122444Y-12954074D02*
X13112920Y-12935026D01*
X13112920Y-12935026D02*
X13103396Y-12925502D01*
X13103396Y-12925502D02*
X13084348Y-12915979D01*
X13084348Y-12915979D02*
X13046253Y-12915979D01*
X13046253Y-12915979D02*
X13027206Y-12925502D01*
X13027206Y-12925502D02*
X13017682Y-12935026D01*
X13017682Y-12935026D02*
X13008158Y-12954074D01*
X13198634Y-12839788D02*
X13198634Y-12877883D01*
X13274825Y-12839788D02*
X13274825Y-12877883D01*
X13570063Y-13115979D02*
X13560539Y-13106455D01*
X13560539Y-13106455D02*
X13541491Y-13077883D01*
X13541491Y-13077883D02*
X13531968Y-13058836D01*
X13531968Y-13058836D02*
X13522444Y-13030264D01*
X13522444Y-13030264D02*
X13512920Y-12982645D01*
X13512920Y-12982645D02*
X13512920Y-12944550D01*
X13512920Y-12944550D02*
X13522444Y-12896931D01*
X13522444Y-12896931D02*
X13531968Y-12868360D01*
X13531968Y-12868360D02*
X13541491Y-12849312D01*
X13541491Y-12849312D02*
X13560539Y-12820740D01*
X13560539Y-12820740D02*
X13570063Y-12811217D01*
X13731968Y-12839788D02*
X13693872Y-12839788D01*
X13693872Y-12839788D02*
X13674825Y-12849312D01*
X13674825Y-12849312D02*
X13665301Y-12858836D01*
X13665301Y-12858836D02*
X13646253Y-12887407D01*
X13646253Y-12887407D02*
X13636729Y-12925502D01*
X13636729Y-12925502D02*
X13636729Y-13001693D01*
X13636729Y-13001693D02*
X13646253Y-13020740D01*
X13646253Y-13020740D02*
X13655777Y-13030264D01*
X13655777Y-13030264D02*
X13674825Y-13039788D01*
X13674825Y-13039788D02*
X13712920Y-13039788D01*
X13712920Y-13039788D02*
X13731968Y-13030264D01*
X13731968Y-13030264D02*
X13741491Y-13020740D01*
X13741491Y-13020740D02*
X13751015Y-13001693D01*
X13751015Y-13001693D02*
X13751015Y-12954074D01*
X13751015Y-12954074D02*
X13741491Y-12935026D01*
X13741491Y-12935026D02*
X13731968Y-12925502D01*
X13731968Y-12925502D02*
X13712920Y-12915979D01*
X13712920Y-12915979D02*
X13674825Y-12915979D01*
X13674825Y-12915979D02*
X13655777Y-12925502D01*
X13655777Y-12925502D02*
X13646253Y-12935026D01*
X13646253Y-12935026D02*
X13636729Y-12954074D01*
X13989110Y-13039788D02*
X13989110Y-12839788D01*
X14074825Y-13039788D02*
X14074825Y-12935026D01*
X14074825Y-12935026D02*
X14065301Y-12915979D01*
X14065301Y-12915979D02*
X14046253Y-12906455D01*
X14046253Y-12906455D02*
X14017682Y-12906455D01*
X14017682Y-12906455D02*
X13998634Y-12915979D01*
X13998634Y-12915979D02*
X13989110Y-12925502D01*
X14198634Y-13039788D02*
X14179587Y-13030264D01*
X14179587Y-13030264D02*
X14170063Y-13020740D01*
X14170063Y-13020740D02*
X14160539Y-13001693D01*
X14160539Y-13001693D02*
X14160539Y-12944550D01*
X14160539Y-12944550D02*
X14170063Y-12925502D01*
X14170063Y-12925502D02*
X14179587Y-12915979D01*
X14179587Y-12915979D02*
X14198634Y-12906455D01*
X14198634Y-12906455D02*
X14227206Y-12906455D01*
X14227206Y-12906455D02*
X14246253Y-12915979D01*
X14246253Y-12915979D02*
X14255777Y-12925502D01*
X14255777Y-12925502D02*
X14265301Y-12944550D01*
X14265301Y-12944550D02*
X14265301Y-13001693D01*
X14265301Y-13001693D02*
X14255777Y-13020740D01*
X14255777Y-13020740D02*
X14246253Y-13030264D01*
X14246253Y-13030264D02*
X14227206Y-13039788D01*
X14227206Y-13039788D02*
X14198634Y-13039788D01*
X14379587Y-13039788D02*
X14360539Y-13030264D01*
X14360539Y-13030264D02*
X14351015Y-13011217D01*
X14351015Y-13011217D02*
X14351015Y-12839788D01*
X14531968Y-13030264D02*
X14512920Y-13039788D01*
X14512920Y-13039788D02*
X14474825Y-13039788D01*
X14474825Y-13039788D02*
X14455777Y-13030264D01*
X14455777Y-13030264D02*
X14446253Y-13011217D01*
X14446253Y-13011217D02*
X14446253Y-12935026D01*
X14446253Y-12935026D02*
X14455777Y-12915979D01*
X14455777Y-12915979D02*
X14474825Y-12906455D01*
X14474825Y-12906455D02*
X14512920Y-12906455D01*
X14512920Y-12906455D02*
X14531968Y-12915979D01*
X14531968Y-12915979D02*
X14541491Y-12935026D01*
X14541491Y-12935026D02*
X14541491Y-12954074D01*
X14541491Y-12954074D02*
X14446253Y-12973121D01*
X14617682Y-13030264D02*
X14636730Y-13039788D01*
X14636730Y-13039788D02*
X14674825Y-13039788D01*
X14674825Y-13039788D02*
X14693872Y-13030264D01*
X14693872Y-13030264D02*
X14703396Y-13011217D01*
X14703396Y-13011217D02*
X14703396Y-13001693D01*
X14703396Y-13001693D02*
X14693872Y-12982645D01*
X14693872Y-12982645D02*
X14674825Y-12973121D01*
X14674825Y-12973121D02*
X14646253Y-12973121D01*
X14646253Y-12973121D02*
X14627206Y-12963598D01*
X14627206Y-12963598D02*
X14617682Y-12944550D01*
X14617682Y-12944550D02*
X14617682Y-12935026D01*
X14617682Y-12935026D02*
X14627206Y-12915979D01*
X14627206Y-12915979D02*
X14646253Y-12906455D01*
X14646253Y-12906455D02*
X14674825Y-12906455D01*
X14674825Y-12906455D02*
X14693872Y-12915979D01*
X14770063Y-13115979D02*
X14779587Y-13106455D01*
X14779587Y-13106455D02*
X14798634Y-13077883D01*
X14798634Y-13077883D02*
X14808158Y-13058836D01*
X14808158Y-13058836D02*
X14817682Y-13030264D01*
X14817682Y-13030264D02*
X14827206Y-12982645D01*
X14827206Y-12982645D02*
X14827206Y-12944550D01*
X14827206Y-12944550D02*
X14817682Y-12896931D01*
X14817682Y-12896931D02*
X14808158Y-12868360D01*
X14808158Y-12868360D02*
X14798634Y-12849312D01*
X14798634Y-12849312D02*
X14779587Y-12820740D01*
X14779587Y-12820740D02*
X14770063Y-12811217D01*
D15*
X9983285Y-13240589D02*
X9983285Y-13184020D01*
X9926716Y-13184020D01*
X9926716Y-13240589D01*
X9983285Y-13240589D01*
D11*
X10293872Y-13103788D02*
X10312920Y-13103788D01*
X10312920Y-13103788D02*
X10331967Y-13113312D01*
X10331967Y-13113312D02*
X10341491Y-13122836D01*
X10341491Y-13122836D02*
X10351015Y-13141883D01*
X10351015Y-13141883D02*
X10360539Y-13179979D01*
X10360539Y-13179979D02*
X10360539Y-13227598D01*
X10360539Y-13227598D02*
X10351015Y-13265693D01*
X10351015Y-13265693D02*
X10341491Y-13284740D01*
X10341491Y-13284740D02*
X10331967Y-13294264D01*
X10331967Y-13294264D02*
X10312920Y-13303788D01*
X10312920Y-13303788D02*
X10293872Y-13303788D01*
X10293872Y-13303788D02*
X10274824Y-13294264D01*
X10274824Y-13294264D02*
X10265301Y-13284740D01*
X10265301Y-13284740D02*
X10255777Y-13265693D01*
X10255777Y-13265693D02*
X10246253Y-13227598D01*
X10246253Y-13227598D02*
X10246253Y-13179979D01*
X10246253Y-13179979D02*
X10255777Y-13141883D01*
X10255777Y-13141883D02*
X10265301Y-13122836D01*
X10265301Y-13122836D02*
X10274824Y-13113312D01*
X10274824Y-13113312D02*
X10293872Y-13103788D01*
X10446253Y-13284740D02*
X10455777Y-13294264D01*
X10455777Y-13294264D02*
X10446253Y-13303788D01*
X10446253Y-13303788D02*
X10436729Y-13294264D01*
X10436729Y-13294264D02*
X10446253Y-13284740D01*
X10446253Y-13284740D02*
X10446253Y-13303788D01*
X10570063Y-13189502D02*
X10551015Y-13179979D01*
X10551015Y-13179979D02*
X10541491Y-13170455D01*
X10541491Y-13170455D02*
X10531967Y-13151407D01*
X10531967Y-13151407D02*
X10531967Y-13141883D01*
X10531967Y-13141883D02*
X10541491Y-13122836D01*
X10541491Y-13122836D02*
X10551015Y-13113312D01*
X10551015Y-13113312D02*
X10570063Y-13103788D01*
X10570063Y-13103788D02*
X10608158Y-13103788D01*
X10608158Y-13103788D02*
X10627205Y-13113312D01*
X10627205Y-13113312D02*
X10636729Y-13122836D01*
X10636729Y-13122836D02*
X10646253Y-13141883D01*
X10646253Y-13141883D02*
X10646253Y-13151407D01*
X10646253Y-13151407D02*
X10636729Y-13170455D01*
X10636729Y-13170455D02*
X10627205Y-13179979D01*
X10627205Y-13179979D02*
X10608158Y-13189502D01*
X10608158Y-13189502D02*
X10570063Y-13189502D01*
X10570063Y-13189502D02*
X10551015Y-13199026D01*
X10551015Y-13199026D02*
X10541491Y-13208550D01*
X10541491Y-13208550D02*
X10531967Y-13227598D01*
X10531967Y-13227598D02*
X10531967Y-13265693D01*
X10531967Y-13265693D02*
X10541491Y-13284740D01*
X10541491Y-13284740D02*
X10551015Y-13294264D01*
X10551015Y-13294264D02*
X10570063Y-13303788D01*
X10570063Y-13303788D02*
X10608158Y-13303788D01*
X10608158Y-13303788D02*
X10627205Y-13294264D01*
X10627205Y-13294264D02*
X10636729Y-13284740D01*
X10636729Y-13284740D02*
X10646253Y-13265693D01*
X10646253Y-13265693D02*
X10646253Y-13227598D01*
X10646253Y-13227598D02*
X10636729Y-13208550D01*
X10636729Y-13208550D02*
X10627205Y-13199026D01*
X10627205Y-13199026D02*
X10608158Y-13189502D01*
X10770063Y-13103788D02*
X10789110Y-13103788D01*
X10789110Y-13103788D02*
X10808158Y-13113312D01*
X10808158Y-13113312D02*
X10817682Y-13122836D01*
X10817682Y-13122836D02*
X10827205Y-13141883D01*
X10827205Y-13141883D02*
X10836729Y-13179979D01*
X10836729Y-13179979D02*
X10836729Y-13227598D01*
X10836729Y-13227598D02*
X10827205Y-13265693D01*
X10827205Y-13265693D02*
X10817682Y-13284740D01*
X10817682Y-13284740D02*
X10808158Y-13294264D01*
X10808158Y-13294264D02*
X10789110Y-13303788D01*
X10789110Y-13303788D02*
X10770063Y-13303788D01*
X10770063Y-13303788D02*
X10751015Y-13294264D01*
X10751015Y-13294264D02*
X10741491Y-13284740D01*
X10741491Y-13284740D02*
X10731967Y-13265693D01*
X10731967Y-13265693D02*
X10722444Y-13227598D01*
X10722444Y-13227598D02*
X10722444Y-13179979D01*
X10722444Y-13179979D02*
X10731967Y-13141883D01*
X10731967Y-13141883D02*
X10741491Y-13122836D01*
X10741491Y-13122836D02*
X10751015Y-13113312D01*
X10751015Y-13113312D02*
X10770063Y-13103788D01*
X10960539Y-13103788D02*
X10979586Y-13103788D01*
X10979586Y-13103788D02*
X10998634Y-13113312D01*
X10998634Y-13113312D02*
X11008158Y-13122836D01*
X11008158Y-13122836D02*
X11017682Y-13141883D01*
X11017682Y-13141883D02*
X11027205Y-13179979D01*
X11027205Y-13179979D02*
X11027205Y-13227598D01*
X11027205Y-13227598D02*
X11017682Y-13265693D01*
X11017682Y-13265693D02*
X11008158Y-13284740D01*
X11008158Y-13284740D02*
X10998634Y-13294264D01*
X10998634Y-13294264D02*
X10979586Y-13303788D01*
X10979586Y-13303788D02*
X10960539Y-13303788D01*
X10960539Y-13303788D02*
X10941491Y-13294264D01*
X10941491Y-13294264D02*
X10931967Y-13284740D01*
X10931967Y-13284740D02*
X10922444Y-13265693D01*
X10922444Y-13265693D02*
X10912920Y-13227598D01*
X10912920Y-13227598D02*
X10912920Y-13179979D01*
X10912920Y-13179979D02*
X10922444Y-13141883D01*
X10922444Y-13141883D02*
X10931967Y-13122836D01*
X10931967Y-13122836D02*
X10941491Y-13113312D01*
X10941491Y-13113312D02*
X10960539Y-13103788D01*
X11112920Y-13303788D02*
X11112920Y-13170455D01*
X11112920Y-13189502D02*
X11122444Y-13179979D01*
X11122444Y-13179979D02*
X11141491Y-13170455D01*
X11141491Y-13170455D02*
X11170063Y-13170455D01*
X11170063Y-13170455D02*
X11189110Y-13179979D01*
X11189110Y-13179979D02*
X11198634Y-13199026D01*
X11198634Y-13199026D02*
X11198634Y-13303788D01*
X11198634Y-13199026D02*
X11208158Y-13179979D01*
X11208158Y-13179979D02*
X11227205Y-13170455D01*
X11227205Y-13170455D02*
X11255777Y-13170455D01*
X11255777Y-13170455D02*
X11274824Y-13179979D01*
X11274824Y-13179979D02*
X11284348Y-13199026D01*
X11284348Y-13199026D02*
X11284348Y-13303788D01*
X11379586Y-13303788D02*
X11379586Y-13170455D01*
X11379586Y-13189502D02*
X11389110Y-13179979D01*
X11389110Y-13179979D02*
X11408158Y-13170455D01*
X11408158Y-13170455D02*
X11436729Y-13170455D01*
X11436729Y-13170455D02*
X11455777Y-13179979D01*
X11455777Y-13179979D02*
X11465301Y-13199026D01*
X11465301Y-13199026D02*
X11465301Y-13303788D01*
X11465301Y-13199026D02*
X11474824Y-13179979D01*
X11474824Y-13179979D02*
X11493872Y-13170455D01*
X11493872Y-13170455D02*
X11522443Y-13170455D01*
X11522443Y-13170455D02*
X11541491Y-13179979D01*
X11541491Y-13179979D02*
X11551015Y-13199026D01*
X11551015Y-13199026D02*
X11551015Y-13303788D01*
X11941491Y-13094264D02*
X11770063Y-13351407D01*
X12198634Y-13103788D02*
X12217682Y-13103788D01*
X12217682Y-13103788D02*
X12236729Y-13113312D01*
X12236729Y-13113312D02*
X12246253Y-13122836D01*
X12246253Y-13122836D02*
X12255777Y-13141883D01*
X12255777Y-13141883D02*
X12265301Y-13179979D01*
X12265301Y-13179979D02*
X12265301Y-13227598D01*
X12265301Y-13227598D02*
X12255777Y-13265693D01*
X12255777Y-13265693D02*
X12246253Y-13284740D01*
X12246253Y-13284740D02*
X12236729Y-13294264D01*
X12236729Y-13294264D02*
X12217682Y-13303788D01*
X12217682Y-13303788D02*
X12198634Y-13303788D01*
X12198634Y-13303788D02*
X12179586Y-13294264D01*
X12179586Y-13294264D02*
X12170063Y-13284740D01*
X12170063Y-13284740D02*
X12160539Y-13265693D01*
X12160539Y-13265693D02*
X12151015Y-13227598D01*
X12151015Y-13227598D02*
X12151015Y-13179979D01*
X12151015Y-13179979D02*
X12160539Y-13141883D01*
X12160539Y-13141883D02*
X12170063Y-13122836D01*
X12170063Y-13122836D02*
X12179586Y-13113312D01*
X12179586Y-13113312D02*
X12198634Y-13103788D01*
X12351015Y-13284740D02*
X12360539Y-13294264D01*
X12360539Y-13294264D02*
X12351015Y-13303788D01*
X12351015Y-13303788D02*
X12341491Y-13294264D01*
X12341491Y-13294264D02*
X12351015Y-13284740D01*
X12351015Y-13284740D02*
X12351015Y-13303788D01*
X12484348Y-13103788D02*
X12503396Y-13103788D01*
X12503396Y-13103788D02*
X12522444Y-13113312D01*
X12522444Y-13113312D02*
X12531967Y-13122836D01*
X12531967Y-13122836D02*
X12541491Y-13141883D01*
X12541491Y-13141883D02*
X12551015Y-13179979D01*
X12551015Y-13179979D02*
X12551015Y-13227598D01*
X12551015Y-13227598D02*
X12541491Y-13265693D01*
X12541491Y-13265693D02*
X12531967Y-13284740D01*
X12531967Y-13284740D02*
X12522444Y-13294264D01*
X12522444Y-13294264D02*
X12503396Y-13303788D01*
X12503396Y-13303788D02*
X12484348Y-13303788D01*
X12484348Y-13303788D02*
X12465301Y-13294264D01*
X12465301Y-13294264D02*
X12455777Y-13284740D01*
X12455777Y-13284740D02*
X12446253Y-13265693D01*
X12446253Y-13265693D02*
X12436729Y-13227598D01*
X12436729Y-13227598D02*
X12436729Y-13179979D01*
X12436729Y-13179979D02*
X12446253Y-13141883D01*
X12446253Y-13141883D02*
X12455777Y-13122836D01*
X12455777Y-13122836D02*
X12465301Y-13113312D01*
X12465301Y-13113312D02*
X12484348Y-13103788D01*
X12617682Y-13103788D02*
X12741491Y-13103788D01*
X12741491Y-13103788D02*
X12674825Y-13179979D01*
X12674825Y-13179979D02*
X12703396Y-13179979D01*
X12703396Y-13179979D02*
X12722444Y-13189502D01*
X12722444Y-13189502D02*
X12731967Y-13199026D01*
X12731967Y-13199026D02*
X12741491Y-13218074D01*
X12741491Y-13218074D02*
X12741491Y-13265693D01*
X12741491Y-13265693D02*
X12731967Y-13284740D01*
X12731967Y-13284740D02*
X12722444Y-13294264D01*
X12722444Y-13294264D02*
X12703396Y-13303788D01*
X12703396Y-13303788D02*
X12646253Y-13303788D01*
X12646253Y-13303788D02*
X12627206Y-13294264D01*
X12627206Y-13294264D02*
X12617682Y-13284740D01*
X12931967Y-13303788D02*
X12817682Y-13303788D01*
X12874825Y-13303788D02*
X12874825Y-13103788D01*
X12874825Y-13103788D02*
X12855777Y-13132360D01*
X12855777Y-13132360D02*
X12836729Y-13151407D01*
X12836729Y-13151407D02*
X12817682Y-13160931D01*
X13112920Y-13103788D02*
X13017682Y-13103788D01*
X13017682Y-13103788D02*
X13008158Y-13199026D01*
X13008158Y-13199026D02*
X13017682Y-13189502D01*
X13017682Y-13189502D02*
X13036729Y-13179979D01*
X13036729Y-13179979D02*
X13084348Y-13179979D01*
X13084348Y-13179979D02*
X13103396Y-13189502D01*
X13103396Y-13189502D02*
X13112920Y-13199026D01*
X13112920Y-13199026D02*
X13122444Y-13218074D01*
X13122444Y-13218074D02*
X13122444Y-13265693D01*
X13122444Y-13265693D02*
X13112920Y-13284740D01*
X13112920Y-13284740D02*
X13103396Y-13294264D01*
X13103396Y-13294264D02*
X13084348Y-13303788D01*
X13084348Y-13303788D02*
X13036729Y-13303788D01*
X13036729Y-13303788D02*
X13017682Y-13294264D01*
X13017682Y-13294264D02*
X13008158Y-13284740D01*
X13198634Y-13103788D02*
X13198634Y-13141883D01*
X13274825Y-13103788D02*
X13274825Y-13141883D01*
X13570063Y-13379979D02*
X13560539Y-13370455D01*
X13560539Y-13370455D02*
X13541491Y-13341883D01*
X13541491Y-13341883D02*
X13531968Y-13322836D01*
X13531968Y-13322836D02*
X13522444Y-13294264D01*
X13522444Y-13294264D02*
X13512920Y-13246645D01*
X13512920Y-13246645D02*
X13512920Y-13208550D01*
X13512920Y-13208550D02*
X13522444Y-13160931D01*
X13522444Y-13160931D02*
X13531968Y-13132360D01*
X13531968Y-13132360D02*
X13541491Y-13113312D01*
X13541491Y-13113312D02*
X13560539Y-13084740D01*
X13560539Y-13084740D02*
X13570063Y-13075217D01*
X13731968Y-13103788D02*
X13693872Y-13103788D01*
X13693872Y-13103788D02*
X13674825Y-13113312D01*
X13674825Y-13113312D02*
X13665301Y-13122836D01*
X13665301Y-13122836D02*
X13646253Y-13151407D01*
X13646253Y-13151407D02*
X13636729Y-13189502D01*
X13636729Y-13189502D02*
X13636729Y-13265693D01*
X13636729Y-13265693D02*
X13646253Y-13284740D01*
X13646253Y-13284740D02*
X13655777Y-13294264D01*
X13655777Y-13294264D02*
X13674825Y-13303788D01*
X13674825Y-13303788D02*
X13712920Y-13303788D01*
X13712920Y-13303788D02*
X13731968Y-13294264D01*
X13731968Y-13294264D02*
X13741491Y-13284740D01*
X13741491Y-13284740D02*
X13751015Y-13265693D01*
X13751015Y-13265693D02*
X13751015Y-13218074D01*
X13751015Y-13218074D02*
X13741491Y-13199026D01*
X13741491Y-13199026D02*
X13731968Y-13189502D01*
X13731968Y-13189502D02*
X13712920Y-13179979D01*
X13712920Y-13179979D02*
X13674825Y-13179979D01*
X13674825Y-13179979D02*
X13655777Y-13189502D01*
X13655777Y-13189502D02*
X13646253Y-13199026D01*
X13646253Y-13199026D02*
X13636729Y-13218074D01*
X13989110Y-13303788D02*
X13989110Y-13103788D01*
X14074825Y-13303788D02*
X14074825Y-13199026D01*
X14074825Y-13199026D02*
X14065301Y-13179979D01*
X14065301Y-13179979D02*
X14046253Y-13170455D01*
X14046253Y-13170455D02*
X14017682Y-13170455D01*
X14017682Y-13170455D02*
X13998634Y-13179979D01*
X13998634Y-13179979D02*
X13989110Y-13189502D01*
X14198634Y-13303788D02*
X14179587Y-13294264D01*
X14179587Y-13294264D02*
X14170063Y-13284740D01*
X14170063Y-13284740D02*
X14160539Y-13265693D01*
X14160539Y-13265693D02*
X14160539Y-13208550D01*
X14160539Y-13208550D02*
X14170063Y-13189502D01*
X14170063Y-13189502D02*
X14179587Y-13179979D01*
X14179587Y-13179979D02*
X14198634Y-13170455D01*
X14198634Y-13170455D02*
X14227206Y-13170455D01*
X14227206Y-13170455D02*
X14246253Y-13179979D01*
X14246253Y-13179979D02*
X14255777Y-13189502D01*
X14255777Y-13189502D02*
X14265301Y-13208550D01*
X14265301Y-13208550D02*
X14265301Y-13265693D01*
X14265301Y-13265693D02*
X14255777Y-13284740D01*
X14255777Y-13284740D02*
X14246253Y-13294264D01*
X14246253Y-13294264D02*
X14227206Y-13303788D01*
X14227206Y-13303788D02*
X14198634Y-13303788D01*
X14379587Y-13303788D02*
X14360539Y-13294264D01*
X14360539Y-13294264D02*
X14351015Y-13275217D01*
X14351015Y-13275217D02*
X14351015Y-13103788D01*
X14531968Y-13294264D02*
X14512920Y-13303788D01*
X14512920Y-13303788D02*
X14474825Y-13303788D01*
X14474825Y-13303788D02*
X14455777Y-13294264D01*
X14455777Y-13294264D02*
X14446253Y-13275217D01*
X14446253Y-13275217D02*
X14446253Y-13199026D01*
X14446253Y-13199026D02*
X14455777Y-13179979D01*
X14455777Y-13179979D02*
X14474825Y-13170455D01*
X14474825Y-13170455D02*
X14512920Y-13170455D01*
X14512920Y-13170455D02*
X14531968Y-13179979D01*
X14531968Y-13179979D02*
X14541491Y-13199026D01*
X14541491Y-13199026D02*
X14541491Y-13218074D01*
X14541491Y-13218074D02*
X14446253Y-13237121D01*
X14617682Y-13294264D02*
X14636730Y-13303788D01*
X14636730Y-13303788D02*
X14674825Y-13303788D01*
X14674825Y-13303788D02*
X14693872Y-13294264D01*
X14693872Y-13294264D02*
X14703396Y-13275217D01*
X14703396Y-13275217D02*
X14703396Y-13265693D01*
X14703396Y-13265693D02*
X14693872Y-13246645D01*
X14693872Y-13246645D02*
X14674825Y-13237121D01*
X14674825Y-13237121D02*
X14646253Y-13237121D01*
X14646253Y-13237121D02*
X14627206Y-13227598D01*
X14627206Y-13227598D02*
X14617682Y-13208550D01*
X14617682Y-13208550D02*
X14617682Y-13199026D01*
X14617682Y-13199026D02*
X14627206Y-13179979D01*
X14627206Y-13179979D02*
X14646253Y-13170455D01*
X14646253Y-13170455D02*
X14674825Y-13170455D01*
X14674825Y-13170455D02*
X14693872Y-13179979D01*
X14770063Y-13379979D02*
X14779587Y-13370455D01*
X14779587Y-13370455D02*
X14798634Y-13341883D01*
X14798634Y-13341883D02*
X14808158Y-13322836D01*
X14808158Y-13322836D02*
X14817682Y-13294264D01*
X14817682Y-13294264D02*
X14827206Y-13246645D01*
X14827206Y-13246645D02*
X14827206Y-13208550D01*
X14827206Y-13208550D02*
X14817682Y-13160931D01*
X14817682Y-13160931D02*
X14808158Y-13132360D01*
X14808158Y-13132360D02*
X14798634Y-13113312D01*
X14798634Y-13113312D02*
X14779587Y-13084740D01*
X14779587Y-13084740D02*
X14770063Y-13075217D01*
D16*
X9950000Y-13521304D02*
X9995000Y-13476304D01*
X9950000Y-13431304D01*
X9905000Y-13476304D01*
X9950000Y-13521304D01*
D11*
X10293872Y-13367788D02*
X10312920Y-13367788D01*
X10312920Y-13367788D02*
X10331967Y-13377312D01*
X10331967Y-13377312D02*
X10341491Y-13386836D01*
X10341491Y-13386836D02*
X10351015Y-13405883D01*
X10351015Y-13405883D02*
X10360539Y-13443979D01*
X10360539Y-13443979D02*
X10360539Y-13491598D01*
X10360539Y-13491598D02*
X10351015Y-13529693D01*
X10351015Y-13529693D02*
X10341491Y-13548740D01*
X10341491Y-13548740D02*
X10331967Y-13558264D01*
X10331967Y-13558264D02*
X10312920Y-13567788D01*
X10312920Y-13567788D02*
X10293872Y-13567788D01*
X10293872Y-13567788D02*
X10274824Y-13558264D01*
X10274824Y-13558264D02*
X10265301Y-13548740D01*
X10265301Y-13548740D02*
X10255777Y-13529693D01*
X10255777Y-13529693D02*
X10246253Y-13491598D01*
X10246253Y-13491598D02*
X10246253Y-13443979D01*
X10246253Y-13443979D02*
X10255777Y-13405883D01*
X10255777Y-13405883D02*
X10265301Y-13386836D01*
X10265301Y-13386836D02*
X10274824Y-13377312D01*
X10274824Y-13377312D02*
X10293872Y-13367788D01*
X10446253Y-13548740D02*
X10455777Y-13558264D01*
X10455777Y-13558264D02*
X10446253Y-13567788D01*
X10446253Y-13567788D02*
X10436729Y-13558264D01*
X10436729Y-13558264D02*
X10446253Y-13548740D01*
X10446253Y-13548740D02*
X10446253Y-13567788D01*
X10551015Y-13567788D02*
X10589110Y-13567788D01*
X10589110Y-13567788D02*
X10608158Y-13558264D01*
X10608158Y-13558264D02*
X10617682Y-13548740D01*
X10617682Y-13548740D02*
X10636729Y-13520169D01*
X10636729Y-13520169D02*
X10646253Y-13482074D01*
X10646253Y-13482074D02*
X10646253Y-13405883D01*
X10646253Y-13405883D02*
X10636729Y-13386836D01*
X10636729Y-13386836D02*
X10627205Y-13377312D01*
X10627205Y-13377312D02*
X10608158Y-13367788D01*
X10608158Y-13367788D02*
X10570063Y-13367788D01*
X10570063Y-13367788D02*
X10551015Y-13377312D01*
X10551015Y-13377312D02*
X10541491Y-13386836D01*
X10541491Y-13386836D02*
X10531967Y-13405883D01*
X10531967Y-13405883D02*
X10531967Y-13453502D01*
X10531967Y-13453502D02*
X10541491Y-13472550D01*
X10541491Y-13472550D02*
X10551015Y-13482074D01*
X10551015Y-13482074D02*
X10570063Y-13491598D01*
X10570063Y-13491598D02*
X10608158Y-13491598D01*
X10608158Y-13491598D02*
X10627205Y-13482074D01*
X10627205Y-13482074D02*
X10636729Y-13472550D01*
X10636729Y-13472550D02*
X10646253Y-13453502D01*
X10770063Y-13367788D02*
X10789110Y-13367788D01*
X10789110Y-13367788D02*
X10808158Y-13377312D01*
X10808158Y-13377312D02*
X10817682Y-13386836D01*
X10817682Y-13386836D02*
X10827205Y-13405883D01*
X10827205Y-13405883D02*
X10836729Y-13443979D01*
X10836729Y-13443979D02*
X10836729Y-13491598D01*
X10836729Y-13491598D02*
X10827205Y-13529693D01*
X10827205Y-13529693D02*
X10817682Y-13548740D01*
X10817682Y-13548740D02*
X10808158Y-13558264D01*
X10808158Y-13558264D02*
X10789110Y-13567788D01*
X10789110Y-13567788D02*
X10770063Y-13567788D01*
X10770063Y-13567788D02*
X10751015Y-13558264D01*
X10751015Y-13558264D02*
X10741491Y-13548740D01*
X10741491Y-13548740D02*
X10731967Y-13529693D01*
X10731967Y-13529693D02*
X10722444Y-13491598D01*
X10722444Y-13491598D02*
X10722444Y-13443979D01*
X10722444Y-13443979D02*
X10731967Y-13405883D01*
X10731967Y-13405883D02*
X10741491Y-13386836D01*
X10741491Y-13386836D02*
X10751015Y-13377312D01*
X10751015Y-13377312D02*
X10770063Y-13367788D01*
X10960539Y-13367788D02*
X10979586Y-13367788D01*
X10979586Y-13367788D02*
X10998634Y-13377312D01*
X10998634Y-13377312D02*
X11008158Y-13386836D01*
X11008158Y-13386836D02*
X11017682Y-13405883D01*
X11017682Y-13405883D02*
X11027205Y-13443979D01*
X11027205Y-13443979D02*
X11027205Y-13491598D01*
X11027205Y-13491598D02*
X11017682Y-13529693D01*
X11017682Y-13529693D02*
X11008158Y-13548740D01*
X11008158Y-13548740D02*
X10998634Y-13558264D01*
X10998634Y-13558264D02*
X10979586Y-13567788D01*
X10979586Y-13567788D02*
X10960539Y-13567788D01*
X10960539Y-13567788D02*
X10941491Y-13558264D01*
X10941491Y-13558264D02*
X10931967Y-13548740D01*
X10931967Y-13548740D02*
X10922444Y-13529693D01*
X10922444Y-13529693D02*
X10912920Y-13491598D01*
X10912920Y-13491598D02*
X10912920Y-13443979D01*
X10912920Y-13443979D02*
X10922444Y-13405883D01*
X10922444Y-13405883D02*
X10931967Y-13386836D01*
X10931967Y-13386836D02*
X10941491Y-13377312D01*
X10941491Y-13377312D02*
X10960539Y-13367788D01*
X11112920Y-13567788D02*
X11112920Y-13434455D01*
X11112920Y-13453502D02*
X11122444Y-13443979D01*
X11122444Y-13443979D02*
X11141491Y-13434455D01*
X11141491Y-13434455D02*
X11170063Y-13434455D01*
X11170063Y-13434455D02*
X11189110Y-13443979D01*
X11189110Y-13443979D02*
X11198634Y-13463026D01*
X11198634Y-13463026D02*
X11198634Y-13567788D01*
X11198634Y-13463026D02*
X11208158Y-13443979D01*
X11208158Y-13443979D02*
X11227205Y-13434455D01*
X11227205Y-13434455D02*
X11255777Y-13434455D01*
X11255777Y-13434455D02*
X11274824Y-13443979D01*
X11274824Y-13443979D02*
X11284348Y-13463026D01*
X11284348Y-13463026D02*
X11284348Y-13567788D01*
X11379586Y-13567788D02*
X11379586Y-13434455D01*
X11379586Y-13453502D02*
X11389110Y-13443979D01*
X11389110Y-13443979D02*
X11408158Y-13434455D01*
X11408158Y-13434455D02*
X11436729Y-13434455D01*
X11436729Y-13434455D02*
X11455777Y-13443979D01*
X11455777Y-13443979D02*
X11465301Y-13463026D01*
X11465301Y-13463026D02*
X11465301Y-13567788D01*
X11465301Y-13463026D02*
X11474824Y-13443979D01*
X11474824Y-13443979D02*
X11493872Y-13434455D01*
X11493872Y-13434455D02*
X11522443Y-13434455D01*
X11522443Y-13434455D02*
X11541491Y-13443979D01*
X11541491Y-13443979D02*
X11551015Y-13463026D01*
X11551015Y-13463026D02*
X11551015Y-13567788D01*
X11941491Y-13358264D02*
X11770063Y-13615407D01*
X12198634Y-13367788D02*
X12217682Y-13367788D01*
X12217682Y-13367788D02*
X12236729Y-13377312D01*
X12236729Y-13377312D02*
X12246253Y-13386836D01*
X12246253Y-13386836D02*
X12255777Y-13405883D01*
X12255777Y-13405883D02*
X12265301Y-13443979D01*
X12265301Y-13443979D02*
X12265301Y-13491598D01*
X12265301Y-13491598D02*
X12255777Y-13529693D01*
X12255777Y-13529693D02*
X12246253Y-13548740D01*
X12246253Y-13548740D02*
X12236729Y-13558264D01*
X12236729Y-13558264D02*
X12217682Y-13567788D01*
X12217682Y-13567788D02*
X12198634Y-13567788D01*
X12198634Y-13567788D02*
X12179586Y-13558264D01*
X12179586Y-13558264D02*
X12170063Y-13548740D01*
X12170063Y-13548740D02*
X12160539Y-13529693D01*
X12160539Y-13529693D02*
X12151015Y-13491598D01*
X12151015Y-13491598D02*
X12151015Y-13443979D01*
X12151015Y-13443979D02*
X12160539Y-13405883D01*
X12160539Y-13405883D02*
X12170063Y-13386836D01*
X12170063Y-13386836D02*
X12179586Y-13377312D01*
X12179586Y-13377312D02*
X12198634Y-13367788D01*
X12351015Y-13548740D02*
X12360539Y-13558264D01*
X12360539Y-13558264D02*
X12351015Y-13567788D01*
X12351015Y-13567788D02*
X12341491Y-13558264D01*
X12341491Y-13558264D02*
X12351015Y-13548740D01*
X12351015Y-13548740D02*
X12351015Y-13567788D01*
X12484348Y-13367788D02*
X12503396Y-13367788D01*
X12503396Y-13367788D02*
X12522444Y-13377312D01*
X12522444Y-13377312D02*
X12531967Y-13386836D01*
X12531967Y-13386836D02*
X12541491Y-13405883D01*
X12541491Y-13405883D02*
X12551015Y-13443979D01*
X12551015Y-13443979D02*
X12551015Y-13491598D01*
X12551015Y-13491598D02*
X12541491Y-13529693D01*
X12541491Y-13529693D02*
X12531967Y-13548740D01*
X12531967Y-13548740D02*
X12522444Y-13558264D01*
X12522444Y-13558264D02*
X12503396Y-13567788D01*
X12503396Y-13567788D02*
X12484348Y-13567788D01*
X12484348Y-13567788D02*
X12465301Y-13558264D01*
X12465301Y-13558264D02*
X12455777Y-13548740D01*
X12455777Y-13548740D02*
X12446253Y-13529693D01*
X12446253Y-13529693D02*
X12436729Y-13491598D01*
X12436729Y-13491598D02*
X12436729Y-13443979D01*
X12436729Y-13443979D02*
X12446253Y-13405883D01*
X12446253Y-13405883D02*
X12455777Y-13386836D01*
X12455777Y-13386836D02*
X12465301Y-13377312D01*
X12465301Y-13377312D02*
X12484348Y-13367788D01*
X12617682Y-13367788D02*
X12741491Y-13367788D01*
X12741491Y-13367788D02*
X12674825Y-13443979D01*
X12674825Y-13443979D02*
X12703396Y-13443979D01*
X12703396Y-13443979D02*
X12722444Y-13453502D01*
X12722444Y-13453502D02*
X12731967Y-13463026D01*
X12731967Y-13463026D02*
X12741491Y-13482074D01*
X12741491Y-13482074D02*
X12741491Y-13529693D01*
X12741491Y-13529693D02*
X12731967Y-13548740D01*
X12731967Y-13548740D02*
X12722444Y-13558264D01*
X12722444Y-13558264D02*
X12703396Y-13567788D01*
X12703396Y-13567788D02*
X12646253Y-13567788D01*
X12646253Y-13567788D02*
X12627206Y-13558264D01*
X12627206Y-13558264D02*
X12617682Y-13548740D01*
X12922444Y-13367788D02*
X12827206Y-13367788D01*
X12827206Y-13367788D02*
X12817682Y-13463026D01*
X12817682Y-13463026D02*
X12827206Y-13453502D01*
X12827206Y-13453502D02*
X12846253Y-13443979D01*
X12846253Y-13443979D02*
X12893872Y-13443979D01*
X12893872Y-13443979D02*
X12912920Y-13453502D01*
X12912920Y-13453502D02*
X12922444Y-13463026D01*
X12922444Y-13463026D02*
X12931967Y-13482074D01*
X12931967Y-13482074D02*
X12931967Y-13529693D01*
X12931967Y-13529693D02*
X12922444Y-13548740D01*
X12922444Y-13548740D02*
X12912920Y-13558264D01*
X12912920Y-13558264D02*
X12893872Y-13567788D01*
X12893872Y-13567788D02*
X12846253Y-13567788D01*
X12846253Y-13567788D02*
X12827206Y-13558264D01*
X12827206Y-13558264D02*
X12817682Y-13548740D01*
X13103396Y-13434455D02*
X13103396Y-13567788D01*
X13055777Y-13358264D02*
X13008158Y-13501121D01*
X13008158Y-13501121D02*
X13131967Y-13501121D01*
X13198634Y-13367788D02*
X13198634Y-13405883D01*
X13274825Y-13367788D02*
X13274825Y-13405883D01*
X13570063Y-13643979D02*
X13560539Y-13634455D01*
X13560539Y-13634455D02*
X13541491Y-13605883D01*
X13541491Y-13605883D02*
X13531968Y-13586836D01*
X13531968Y-13586836D02*
X13522444Y-13558264D01*
X13522444Y-13558264D02*
X13512920Y-13510645D01*
X13512920Y-13510645D02*
X13512920Y-13472550D01*
X13512920Y-13472550D02*
X13522444Y-13424931D01*
X13522444Y-13424931D02*
X13531968Y-13396360D01*
X13531968Y-13396360D02*
X13541491Y-13377312D01*
X13541491Y-13377312D02*
X13560539Y-13348740D01*
X13560539Y-13348740D02*
X13570063Y-13339217D01*
X13731968Y-13367788D02*
X13693872Y-13367788D01*
X13693872Y-13367788D02*
X13674825Y-13377312D01*
X13674825Y-13377312D02*
X13665301Y-13386836D01*
X13665301Y-13386836D02*
X13646253Y-13415407D01*
X13646253Y-13415407D02*
X13636729Y-13453502D01*
X13636729Y-13453502D02*
X13636729Y-13529693D01*
X13636729Y-13529693D02*
X13646253Y-13548740D01*
X13646253Y-13548740D02*
X13655777Y-13558264D01*
X13655777Y-13558264D02*
X13674825Y-13567788D01*
X13674825Y-13567788D02*
X13712920Y-13567788D01*
X13712920Y-13567788D02*
X13731968Y-13558264D01*
X13731968Y-13558264D02*
X13741491Y-13548740D01*
X13741491Y-13548740D02*
X13751015Y-13529693D01*
X13751015Y-13529693D02*
X13751015Y-13482074D01*
X13751015Y-13482074D02*
X13741491Y-13463026D01*
X13741491Y-13463026D02*
X13731968Y-13453502D01*
X13731968Y-13453502D02*
X13712920Y-13443979D01*
X13712920Y-13443979D02*
X13674825Y-13443979D01*
X13674825Y-13443979D02*
X13655777Y-13453502D01*
X13655777Y-13453502D02*
X13646253Y-13463026D01*
X13646253Y-13463026D02*
X13636729Y-13482074D01*
X13989110Y-13567788D02*
X13989110Y-13367788D01*
X14074825Y-13567788D02*
X14074825Y-13463026D01*
X14074825Y-13463026D02*
X14065301Y-13443979D01*
X14065301Y-13443979D02*
X14046253Y-13434455D01*
X14046253Y-13434455D02*
X14017682Y-13434455D01*
X14017682Y-13434455D02*
X13998634Y-13443979D01*
X13998634Y-13443979D02*
X13989110Y-13453502D01*
X14198634Y-13567788D02*
X14179587Y-13558264D01*
X14179587Y-13558264D02*
X14170063Y-13548740D01*
X14170063Y-13548740D02*
X14160539Y-13529693D01*
X14160539Y-13529693D02*
X14160539Y-13472550D01*
X14160539Y-13472550D02*
X14170063Y-13453502D01*
X14170063Y-13453502D02*
X14179587Y-13443979D01*
X14179587Y-13443979D02*
X14198634Y-13434455D01*
X14198634Y-13434455D02*
X14227206Y-13434455D01*
X14227206Y-13434455D02*
X14246253Y-13443979D01*
X14246253Y-13443979D02*
X14255777Y-13453502D01*
X14255777Y-13453502D02*
X14265301Y-13472550D01*
X14265301Y-13472550D02*
X14265301Y-13529693D01*
X14265301Y-13529693D02*
X14255777Y-13548740D01*
X14255777Y-13548740D02*
X14246253Y-13558264D01*
X14246253Y-13558264D02*
X14227206Y-13567788D01*
X14227206Y-13567788D02*
X14198634Y-13567788D01*
X14379587Y-13567788D02*
X14360539Y-13558264D01*
X14360539Y-13558264D02*
X14351015Y-13539217D01*
X14351015Y-13539217D02*
X14351015Y-13367788D01*
X14531968Y-13558264D02*
X14512920Y-13567788D01*
X14512920Y-13567788D02*
X14474825Y-13567788D01*
X14474825Y-13567788D02*
X14455777Y-13558264D01*
X14455777Y-13558264D02*
X14446253Y-13539217D01*
X14446253Y-13539217D02*
X14446253Y-13463026D01*
X14446253Y-13463026D02*
X14455777Y-13443979D01*
X14455777Y-13443979D02*
X14474825Y-13434455D01*
X14474825Y-13434455D02*
X14512920Y-13434455D01*
X14512920Y-13434455D02*
X14531968Y-13443979D01*
X14531968Y-13443979D02*
X14541491Y-13463026D01*
X14541491Y-13463026D02*
X14541491Y-13482074D01*
X14541491Y-13482074D02*
X14446253Y-13501121D01*
X14617682Y-13558264D02*
X14636730Y-13567788D01*
X14636730Y-13567788D02*
X14674825Y-13567788D01*
X14674825Y-13567788D02*
X14693872Y-13558264D01*
X14693872Y-13558264D02*
X14703396Y-13539217D01*
X14703396Y-13539217D02*
X14703396Y-13529693D01*
X14703396Y-13529693D02*
X14693872Y-13510645D01*
X14693872Y-13510645D02*
X14674825Y-13501121D01*
X14674825Y-13501121D02*
X14646253Y-13501121D01*
X14646253Y-13501121D02*
X14627206Y-13491598D01*
X14627206Y-13491598D02*
X14617682Y-13472550D01*
X14617682Y-13472550D02*
X14617682Y-13463026D01*
X14617682Y-13463026D02*
X14627206Y-13443979D01*
X14627206Y-13443979D02*
X14646253Y-13434455D01*
X14646253Y-13434455D02*
X14674825Y-13434455D01*
X14674825Y-13434455D02*
X14693872Y-13443979D01*
X14770063Y-13643979D02*
X14779587Y-13634455D01*
X14779587Y-13634455D02*
X14798634Y-13605883D01*
X14798634Y-13605883D02*
X14808158Y-13586836D01*
X14808158Y-13586836D02*
X14817682Y-13558264D01*
X14817682Y-13558264D02*
X14827206Y-13510645D01*
X14827206Y-13510645D02*
X14827206Y-13472550D01*
X14827206Y-13472550D02*
X14817682Y-13424931D01*
X14817682Y-13424931D02*
X14808158Y-13396360D01*
X14808158Y-13396360D02*
X14798634Y-13377312D01*
X14798634Y-13377312D02*
X14779587Y-13348740D01*
X14779587Y-13348740D02*
X14770063Y-13339217D01*
M02*
