M48
; DRILL file {KiCad 7.0.6} date Mon Jan  8 15:28:10 2024
; FORMAT={-:-/ absolute / inch / decimal}
; #@! TF.CreationDate,2024-01-08T15:28:10+11:00
; #@! TF.GenerationSoftware,Kicad,Pcbnew,7.0.6
; #@! TF.FileFunction,Plated,1,4,PTH
FMAT,2
INCH
; #@! TA.AperFunction,Plated,PTH,ViaDrill
T1C0.0118
; #@! TA.AperFunction,Plated,PTH,ViaDrill
T2C0.0236
; #@! TA.AperFunction,Plated,PTH,ComponentDrill
T3C0.0256
; #@! TA.AperFunction,Plated,PTH,ComponentDrill
T4C0.0354
; #@! TA.AperFunction,Plated,PTH,ComponentDrill
T5C0.0394
%
G90
G05
T1
X3.9654Y-4.0355
X3.9907Y-4.0862
X4.0986Y-4.3168
X4.1157Y-4.1843
X4.1591Y-4.5438
X4.1593Y-4.5874
X4.1676Y-4.3001
X4.1689Y-4.4088
X4.1765Y-3.9937
X4.18Y-4.2748
X4.18Y-4.6099
X4.1825Y-4.1707
X4.185Y-4.2414
X4.1941Y-4.5455
X4.2005Y-4.4305
X4.2034Y-3.9998
X4.2296Y-4.1739
X4.2305Y-4.07
X4.2363Y-4.1468
X4.2432Y-3.9937
X4.2461Y-4.5235
X4.2552Y-4.4981
X4.2698Y-4.0622
X4.2705Y-4.4476
X4.288Y-4.2518
X4.2998Y-4.6079
X4.3128Y-4.5713
X4.3496Y-4.154
X4.3566Y-4.3414
X4.36Y-4.3093
X4.3635Y-4.1136
X4.3881Y-4.5427
X4.3946Y-4.2175
X4.4141Y-4.3168
X4.4175Y-4.3566
X4.4335Y-4.4829
X4.4724Y-4.5687
X4.4749Y-4.3632
X4.5189Y-4.5651
X4.5666Y-4.505
X4.5923Y-4.5303
X4.6002Y-4.493
X4.6177Y-4.5491
X4.6217Y-4.5148
X4.6307Y-4.0451
X4.6517Y-4.5494
X4.6547Y-4.5209
X4.6584Y-4.1771
X4.6795Y-4.0318
X4.6835Y-4.2903
X4.6835Y-4.5421
X4.6841Y-4.2215
X4.6934Y-4.0658
X4.7107Y-4.5554
X4.7265Y-4.243
X4.7539Y-4.1574
X4.7661Y-4.1327
X4.7727Y-4.2203
X4.7753Y-4.3714
X4.7793Y-3.9976
X4.7902Y-4.3987
X4.8138Y-4.5135
X4.8287Y-4.2972
X4.836Y-4.4063
X4.8658Y-4.4086
X4.8667Y-4.1292
X4.876Y-4.2972
X4.8904Y-4.1508
X4.8933Y-4.4067
X4.8986Y-4.0001
X4.9116Y-4.386
X4.9122Y-4.1126
X4.9241Y-4.4106
X4.927Y-4.4477
X4.9291Y-4.2012
X4.943Y-4.0857
X4.962Y-4.1794
X4.971Y-4.5104
X4.9717Y-4.4835
X4.9774Y-4.3549
X4.9811Y-4.1596
X4.9906Y-4.1858
X5.0072Y-4.4154
X5.0124Y-4.0775
X5.0358Y-4.38
X5.0501Y-4.2171
X5.0546Y-4.5106
X5.0552Y-4.4842
X5.0659Y-4.1847
X5.0682Y-4.4126
X5.0875Y-4.1626
X5.0877Y-4.2674
X5.1106Y-4.3615
X5.1112Y-4.1857
X5.1311Y-4.1618
X5.1357Y-4.483
X5.137Y-4.5109
X5.1664Y-4.4833
X5.1673Y-4.5094
X5.1738Y-4.173
X5.2201Y-4.1705
X5.2697Y-4.1283
X5.2812Y-4.2084
X5.2836Y-4.1786
X5.3152Y-4.1532
X5.3163Y-4.1799
X5.3171Y-4.2138
X5.3247Y-4.0414
X5.3931Y-4.4933
X5.3992Y-4.52
X5.4Y-4.5519
X5.4246Y-4.0753
X5.4315Y-4.5491
X5.4329Y-4.489
X5.4337Y-4.5163
X5.4487Y-4.1467
X5.4492Y-4.1787
X5.4627Y-4.0537
X5.4635Y-4.5519
X5.4681Y-4.5228
X5.4684Y-4.4896
X5.472Y-4.104
X5.4759Y-4.1478
X5.4759Y-4.1773
X5.5019Y-4.5519
X5.5021Y-4.4908
X5.5024Y-4.5231
X5.5046Y-4.1815
X5.5051Y-4.2115
X5.5062Y-4.1495
X5.5124Y-4.1049
X5.5328Y-4.2118
X5.5355Y-4.1815
X5.536Y-4.1493
X5.5538Y-4.1022
X5.5659Y-4.1511
X5.5707Y-4.2114
X5.582Y-4.1907
X5.5887Y-4.1049
X5.5957Y-4.1466
X5.5982Y-4.2101
X5.6192Y-4.1608
T2
X3.974Y-4.334
X5.0533Y-4.2605
X5.0928Y-4.2197
X5.1502Y-4.204
X5.2135Y-4.2065
X5.2932Y-4.3643
X5.4176Y-4.407
T3
X4.467Y-4.4021
X4.467Y-4.4521
X4.517Y-4.4021
X4.517Y-4.4521
X4.567Y-4.4021
X4.567Y-4.4521
T4
X3.9863Y-4.4405
X3.9863Y-4.5405
X5.7346Y-4.1866
X5.7346Y-4.2866
X5.7346Y-4.4449
X5.7346Y-4.5449
T5
X4.4461Y-4.0418
X4.4461Y-4.1418
X4.4461Y-4.2418
X4.5461Y-4.0418
X4.5461Y-4.1418
X4.5461Y-4.2418
T0
M30
