M48
; DRILL file {KiCad 7.0.6} date Fri Sep  8 17:51:27 2023
; FORMAT={-:-/ absolute / inch / decimal}
; #@! TF.CreationDate,2023-09-08T17:51:27+10:00
; #@! TF.GenerationSoftware,Kicad,Pcbnew,7.0.6
; #@! TF.FileFunction,Plated,1,4,PTH
FMAT,2
INCH
; #@! TA.AperFunction,Plated,PTH,ViaDrill
T1C0.0118
; #@! TA.AperFunction,Plated,PTH,ViaDrill
T2C0.0236
; #@! TA.AperFunction,Plated,PTH,ComponentDrill
T3C0.0256
; #@! TA.AperFunction,Plated,PTH,ComponentDrill
T4C0.0315
; #@! TA.AperFunction,Plated,PTH,ComponentDrill
T5C0.0354
%
G90
G05
T1
X4.0387Y-4.0694
X4.1535Y-4.0059
X4.2126Y-4.311
X4.3552Y-4.2512
X4.3769Y-4.4108
X4.378Y-4.5098
X4.4068Y-4.0886
X4.408Y-4.2569
X4.4803Y-4.1575
X4.4875Y-4.3175
X4.5188Y-4.5249
X4.5291Y-4.3459
X4.5616Y-4.5445
X4.5787Y-4.1201
X4.6007Y-4.3269
X4.6233Y-4.4417
X4.6272Y-4.1764
X4.6378Y-3.9646
X4.6541Y-4.1821
X4.6614Y-4.2579
X4.6645Y-4.2075
X4.685Y-4.0387
X4.6873Y-4.2719
X4.7203Y-4.2386
X4.7579Y-4.4469
X4.762Y-4.1459
X4.764Y-4.1932
X4.7753Y-4.3761
X4.7846Y-4.0017
X4.7945Y-4.4419
X4.8189Y-4.4193
X4.8287Y-4.2972
X4.8504Y-4.4094
X4.8544Y-4.126
X4.876Y-4.2972
X4.8986Y-4.0001
X4.9055Y-4.1732
X4.9091Y-4.4166
X4.9347Y-4.2002
X4.9422Y-4.1006
X4.9478Y-4.4419
X4.9534Y-4.1458
X4.9685Y-4.3465
X4.9906Y-4.1858
X5.011Y-4.0769
X5.0236Y-4.4291
X5.1311Y-4.1618
X5.1768Y-4.2038
X5.1852Y-4.4646
X5.2716Y-4.1986
X5.3255Y-4.2577
X5.3406Y-4.0402
X5.4229Y-4.076
X5.4418Y-4.0472
T2
X3.9628Y-4.1804
X3.9799Y-4.353
X4.1808Y-4.4615
X4.1842Y-4.5052
X4.191Y-4.1399
X4.1958Y-4.3979
X4.2035Y-4.2404
X4.274Y-4.056
X4.3748Y-4.105
X4.4268Y-4.5446
X4.4268Y-4.581
X4.6352Y-4.5328
X4.6875Y-4.5328
X4.933Y-4.5318
X5.0126Y-4.5318
X5.0444Y-4.2351
X5.045Y-4.2761
X5.0754Y-4.3337
X5.0833Y-4.241
X5.0842Y-4.2881
X5.0886Y-4.5315
X5.1535Y-4.3465
X5.1936Y-4.3465
X5.2135Y-4.2065
X5.2625Y-4.4114
X5.3967Y-4.5409
X5.3988Y-4.1935
X5.4071Y-4.5045
X5.436Y-4.5409
X5.4447Y-4.5039
X5.4557Y-4.4254
X5.4612Y-4.1616
X5.5558Y-4.479
X5.5635Y-4.1635
X5.5637Y-4.2012
X5.5827Y-4.1024
X5.626Y-4.063
X5.6299Y-4.4799
X5.6732Y-4.063
T3
X4.467Y-4.4021
X4.467Y-4.4521
X4.517Y-4.4021
X4.517Y-4.4521
X4.567Y-4.4021
X4.567Y-4.4521
T4
X4.4461Y-4.0418
X4.4461Y-4.1205
X4.4461Y-4.1993
X4.5249Y-4.0418
X4.5249Y-4.1205
X4.5249Y-4.1993
T5
X4.0649Y-4.4449
X4.0649Y-4.5449
X5.7346Y-4.1866
X5.7346Y-4.2866
X5.7346Y-4.4449
X5.7346Y-4.5449
T0
M30
