%TF.GenerationSoftware,KiCad,Pcbnew,7.0.6*%
%TF.CreationDate,2023-09-08T17:54:17+10:00*%
%TF.ProjectId,turbidity_sensor_v2,74757262-6964-4697-9479-5f73656e736f,0.1.0*%
%TF.SameCoordinates,Original*%
%TF.FileFunction,Copper,L3,Inr*%
%TF.FilePolarity,Positive*%
%FSLAX46Y46*%
G04 Gerber Fmt 4.6, Leading zero omitted, Abs format (unit mm)*
G04 Created by KiCad (PCBNEW 7.0.6) date 2023-09-08 17:54:17*
%MOMM*%
%LPD*%
G01*
G04 APERTURE LIST*
%TA.AperFunction,ComponentPad*%
%ADD10R,1.000000X1.000000*%
%TD*%
%TA.AperFunction,ComponentPad*%
%ADD11O,1.000000X1.000000*%
%TD*%
%TA.AperFunction,ComponentPad*%
%ADD12R,1.800000X1.800000*%
%TD*%
%TA.AperFunction,ComponentPad*%
%ADD13C,1.800000*%
%TD*%
%TA.AperFunction,ComponentPad*%
%ADD14R,1.350000X1.350000*%
%TD*%
%TA.AperFunction,ComponentPad*%
%ADD15O,1.350000X1.350000*%
%TD*%
%TA.AperFunction,ViaPad*%
%ADD16C,0.500000*%
%TD*%
%TA.AperFunction,ViaPad*%
%ADD17C,0.900000*%
%TD*%
G04 APERTURE END LIST*
D10*
%TO.N,MISO*%
%TO.C,J1*%
X113462636Y-113082428D03*
D11*
%TO.N,+3.3V*%
X113462636Y-111812428D03*
%TO.N,CLKO*%
X114732636Y-113082428D03*
%TO.N,MOSI*%
X114732636Y-111812428D03*
%TO.N,RST*%
X116002636Y-113082428D03*
%TO.N,GND*%
X116002636Y-111812428D03*
%TD*%
D12*
%TO.N,Net-(D1-K)*%
%TO.C,D1*%
X145658563Y-108880210D03*
D13*
%TO.N,LED_PWR*%
X145658563Y-106340210D03*
%TD*%
D12*
%TO.N,Net-(D2-K)*%
%TO.C,D2*%
X103249445Y-115439646D03*
D13*
%TO.N,Net-(D2-A)*%
X103249445Y-112899646D03*
%TD*%
D14*
%TO.N,WKE*%
%TO.C,J3*%
X112931610Y-102661401D03*
D15*
%TO.N,GND*%
X114931610Y-102661401D03*
%TO.N,TX*%
X112931610Y-104661401D03*
%TO.N,RST*%
X114931610Y-104661401D03*
%TO.N,RX*%
X112931610Y-106661401D03*
%TO.N,+BATT*%
X114931610Y-106661401D03*
%TD*%
D12*
%TO.N,Net-(D3-K)*%
%TO.C,D3*%
X145658563Y-115439646D03*
D13*
%TO.N,LED_PWR*%
X145658563Y-112899646D03*
%TD*%
D16*
%TO.N,GND*%
X117431747Y-112819419D03*
D17*
X112439941Y-116357410D03*
X129115383Y-107720303D03*
X131916497Y-110400000D03*
X137339946Y-114413730D03*
X137075085Y-115338137D03*
X106770139Y-107705797D03*
D16*
X117530213Y-106080213D03*
D17*
X143000000Y-113790146D03*
X138294980Y-114399037D03*
X128127156Y-107570595D03*
D16*
X130329681Y-105709526D03*
D17*
X142900000Y-103200000D03*
X138713663Y-105704613D03*
X112439941Y-115433819D03*
X119062593Y-115131928D03*
X137128358Y-106515591D03*
X106573442Y-111706900D03*
D16*
X124425417Y-101601571D03*
D17*
X141117864Y-113765385D03*
D16*
X122650000Y-109150000D03*
D17*
X128915491Y-110076860D03*
D16*
X111200000Y-114550000D03*
D17*
X144100000Y-103200000D03*
D16*
X135652093Y-102620014D03*
D17*
X108559432Y-103023520D03*
X138575957Y-112404485D03*
X117733790Y-115131928D03*
X138074588Y-115338137D03*
X129139116Y-108918792D03*
X132423771Y-106844088D03*
X101089244Y-110565149D03*
X128143041Y-108614172D03*
D16*
X123850000Y-109150000D03*
D17*
X100655381Y-106182875D03*
X106278799Y-114431872D03*
X130900000Y-110400000D03*
D16*
%TO.N,+3.3VADC*%
X131490783Y-106776486D03*
D17*
X106191672Y-113322508D03*
D16*
X133898623Y-106645275D03*
X135268698Y-108145547D03*
D17*
%TO.N,+BATT*%
X125297802Y-115108976D03*
D16*
X111173423Y-112034124D03*
D17*
X129250000Y-115100000D03*
X127320103Y-115108132D03*
D16*
%TO.N,+3.3V*%
X138222899Y-102799822D03*
X126200000Y-110400000D03*
X117800000Y-100700000D03*
D17*
X141313086Y-105752987D03*
X133668546Y-112049979D03*
D16*
X121528931Y-101642406D03*
D17*
X141800000Y-104200000D03*
X106451058Y-105153746D03*
D16*
X127278974Y-103552871D03*
D17*
X141317983Y-106710135D03*
D16*
X110622782Y-107981360D03*
X119056862Y-108506034D03*
D17*
%TO.N,TIA_PWR*%
X111120805Y-104268265D03*
D16*
%TO.N,TIA_BIAS*%
X107000000Y-109500000D03*
%TO.N,MISO*%
X124690517Y-112182843D03*
X125673591Y-112824704D03*
%TO.N,CLKO*%
X114777217Y-114931928D03*
%TO.N,MOSI*%
X115038274Y-110386668D03*
X121779195Y-112825204D03*
%TO.N,TX*%
X113800000Y-105600000D03*
X118214751Y-106224125D03*
%TO.N,RX*%
X121004999Y-106507162D03*
X111963403Y-108125869D03*
%TO.N,LED_DIGITAL_SIGNAL*%
X126760000Y-106320000D03*
X137742074Y-103529169D03*
%TO.N,LED_PWR_EN*%
X118999723Y-102584220D03*
X119896763Y-107660255D03*
X120953579Y-105305378D03*
%TO.N,LED_PWR_FAULT*%
X118400000Y-108150000D03*
X121291912Y-111151834D03*
X116858319Y-109902604D03*
%TO.N,LED_2_EN*%
X127600000Y-112500000D03*
X120850000Y-112950000D03*
%TO.N,LED_1_EN*%
X131703088Y-113400111D03*
X122400000Y-112250704D03*
%TO.N,SS*%
X113983227Y-109664507D03*
X123200000Y-112000000D03*
%TO.N,REF_EN*%
X115863418Y-115431235D03*
%TO.N,TIA_PWR_EN*%
X125340989Y-106685682D03*
%TO.N,SDA*%
X124600000Y-106000000D03*
X123300517Y-104800517D03*
%TO.N,SCL*%
X125531155Y-104154887D03*
X125815945Y-105303887D03*
%TO.N,NEG_VOLT_EN*%
X111931610Y-103850644D03*
X102582347Y-103363524D03*
X105500000Y-101750000D03*
X118479281Y-106871680D03*
%TO.N,WKE*%
X116300000Y-104649406D03*
%TD*%
%TA.AperFunction,Conductor*%
%TO.N,GND*%
G36*
X117205810Y-100020185D02*
G01*
X117251565Y-100072989D01*
X117261509Y-100142147D01*
X117232484Y-100205703D01*
X117226452Y-100212181D01*
X117209523Y-100229109D01*
X117209518Y-100229115D01*
X117119547Y-100372302D01*
X117119545Y-100372305D01*
X117063685Y-100531943D01*
X117044751Y-100699997D01*
X117044751Y-100700002D01*
X117063685Y-100868056D01*
X117119545Y-101027694D01*
X117119547Y-101027697D01*
X117209518Y-101170884D01*
X117209523Y-101170890D01*
X117329109Y-101290476D01*
X117329115Y-101290481D01*
X117472302Y-101380452D01*
X117472305Y-101380454D01*
X117472309Y-101380455D01*
X117472310Y-101380456D01*
X117544913Y-101405860D01*
X117631943Y-101436314D01*
X117799997Y-101455249D01*
X117800000Y-101455249D01*
X117800003Y-101455249D01*
X117968056Y-101436314D01*
X118008077Y-101422310D01*
X118127690Y-101380456D01*
X118127692Y-101380454D01*
X118127694Y-101380454D01*
X118127697Y-101380452D01*
X118270884Y-101290481D01*
X118270885Y-101290480D01*
X118270890Y-101290477D01*
X118390477Y-101170890D01*
X118390481Y-101170884D01*
X118480452Y-101027697D01*
X118480454Y-101027694D01*
X118480454Y-101027692D01*
X118480456Y-101027690D01*
X118536313Y-100868059D01*
X118536313Y-100868058D01*
X118536314Y-100868056D01*
X118555249Y-100700002D01*
X118555249Y-100699997D01*
X118536314Y-100531943D01*
X118480454Y-100372305D01*
X118480452Y-100372302D01*
X118390481Y-100229115D01*
X118390476Y-100229109D01*
X118373548Y-100212181D01*
X118340063Y-100150858D01*
X118345047Y-100081166D01*
X118386919Y-100025233D01*
X118452383Y-100000816D01*
X118461229Y-100000500D01*
X146875500Y-100000500D01*
X146942539Y-100020185D01*
X146988294Y-100072989D01*
X146999500Y-100124500D01*
X146999500Y-105415585D01*
X146979815Y-105482624D01*
X146927011Y-105528379D01*
X146857853Y-105538323D01*
X146794297Y-105509298D01*
X146771694Y-105483411D01*
X146767546Y-105477062D01*
X146767543Y-105477059D01*
X146767542Y-105477057D01*
X146610347Y-105306297D01*
X146610342Y-105306293D01*
X146610340Y-105306291D01*
X146427197Y-105163745D01*
X146427191Y-105163741D01*
X146223067Y-105053274D01*
X146223058Y-105053271D01*
X146003547Y-104977912D01*
X145798055Y-104943622D01*
X145774612Y-104939710D01*
X145542514Y-104939710D01*
X145519071Y-104943622D01*
X145313578Y-104977912D01*
X145094067Y-105053271D01*
X145094058Y-105053274D01*
X144889934Y-105163741D01*
X144889928Y-105163745D01*
X144706785Y-105306291D01*
X144706782Y-105306294D01*
X144706779Y-105306296D01*
X144706779Y-105306297D01*
X144675681Y-105340079D01*
X144549579Y-105477062D01*
X144422638Y-105671361D01*
X144329405Y-105883909D01*
X144272429Y-106108901D01*
X144272427Y-106108912D01*
X144253263Y-106340203D01*
X144253263Y-106340216D01*
X144272427Y-106571507D01*
X144272429Y-106571518D01*
X144329405Y-106796510D01*
X144422638Y-107009058D01*
X144549579Y-107203357D01*
X144549582Y-107203361D01*
X144549584Y-107203363D01*
X144644366Y-107306324D01*
X144675287Y-107368977D01*
X144667427Y-107438403D01*
X144623279Y-107492558D01*
X144596469Y-107506487D01*
X144516232Y-107536413D01*
X144516227Y-107536416D01*
X144401018Y-107622662D01*
X144401015Y-107622665D01*
X144314769Y-107737874D01*
X144314765Y-107737881D01*
X144264471Y-107872727D01*
X144258064Y-107932326D01*
X144258063Y-107932345D01*
X144258063Y-109828080D01*
X144258064Y-109828086D01*
X144264471Y-109887693D01*
X144314765Y-110022538D01*
X144314769Y-110022545D01*
X144401015Y-110137754D01*
X144401018Y-110137757D01*
X144516227Y-110224003D01*
X144516234Y-110224007D01*
X144651080Y-110274301D01*
X144651079Y-110274301D01*
X144658007Y-110275045D01*
X144710690Y-110280710D01*
X146606435Y-110280709D01*
X146666046Y-110274301D01*
X146800894Y-110224006D01*
X146801187Y-110223786D01*
X146801531Y-110223657D01*
X146808677Y-110219756D01*
X146809237Y-110220783D01*
X146866652Y-110199368D01*
X146934925Y-110214219D01*
X146984331Y-110263624D01*
X146999500Y-110323052D01*
X146999500Y-111975021D01*
X146979815Y-112042060D01*
X146927011Y-112087815D01*
X146857853Y-112097759D01*
X146794297Y-112068734D01*
X146771694Y-112042847D01*
X146767546Y-112036498D01*
X146767543Y-112036495D01*
X146767542Y-112036493D01*
X146610347Y-111865733D01*
X146610342Y-111865729D01*
X146610340Y-111865727D01*
X146427197Y-111723181D01*
X146427191Y-111723177D01*
X146223067Y-111612710D01*
X146223058Y-111612707D01*
X146003547Y-111537348D01*
X145794034Y-111502387D01*
X145774612Y-111499146D01*
X145542514Y-111499146D01*
X145523092Y-111502387D01*
X145313578Y-111537348D01*
X145094067Y-111612707D01*
X145094058Y-111612710D01*
X144889934Y-111723177D01*
X144889928Y-111723181D01*
X144706785Y-111865727D01*
X144706782Y-111865730D01*
X144706779Y-111865732D01*
X144706779Y-111865733D01*
X144668714Y-111907083D01*
X144549579Y-112036498D01*
X144422638Y-112230797D01*
X144329405Y-112443345D01*
X144272429Y-112668337D01*
X144272427Y-112668348D01*
X144253263Y-112899639D01*
X144253263Y-112899652D01*
X144272427Y-113130943D01*
X144272429Y-113130954D01*
X144329405Y-113355946D01*
X144422638Y-113568494D01*
X144549579Y-113762793D01*
X144549582Y-113762797D01*
X144549584Y-113762799D01*
X144644366Y-113865760D01*
X144675287Y-113928413D01*
X144667427Y-113997839D01*
X144623279Y-114051994D01*
X144596469Y-114065923D01*
X144516232Y-114095849D01*
X144516227Y-114095852D01*
X144401018Y-114182098D01*
X144401015Y-114182101D01*
X144314769Y-114297310D01*
X144314765Y-114297317D01*
X144264471Y-114432163D01*
X144260994Y-114464508D01*
X144258064Y-114491769D01*
X144258063Y-114491781D01*
X144258063Y-116387516D01*
X144258064Y-116387522D01*
X144264471Y-116447129D01*
X144314765Y-116581974D01*
X144314769Y-116581981D01*
X144401015Y-116697190D01*
X144401018Y-116697193D01*
X144516227Y-116783439D01*
X144516234Y-116783443D01*
X144651080Y-116833737D01*
X144651079Y-116833737D01*
X144658007Y-116834481D01*
X144710690Y-116840146D01*
X146606435Y-116840145D01*
X146666046Y-116833737D01*
X146800894Y-116783442D01*
X146801187Y-116783222D01*
X146801531Y-116783093D01*
X146808677Y-116779192D01*
X146809237Y-116780219D01*
X146866652Y-116758804D01*
X146934925Y-116773655D01*
X146984331Y-116823060D01*
X146999500Y-116882488D01*
X146999500Y-117875500D01*
X146979815Y-117942539D01*
X146927011Y-117988294D01*
X146875500Y-117999500D01*
X100124500Y-117999500D01*
X100057461Y-117979815D01*
X100011706Y-117927011D01*
X100000500Y-117875500D01*
X100000500Y-112899652D01*
X101844144Y-112899652D01*
X101863309Y-113130943D01*
X101863311Y-113130954D01*
X101920287Y-113355946D01*
X102013520Y-113568494D01*
X102140461Y-113762793D01*
X102140464Y-113762797D01*
X102140466Y-113762799D01*
X102235248Y-113865760D01*
X102266169Y-113928413D01*
X102258309Y-113997839D01*
X102214161Y-114051994D01*
X102187351Y-114065923D01*
X102107114Y-114095849D01*
X102107109Y-114095852D01*
X101991900Y-114182098D01*
X101991897Y-114182101D01*
X101905651Y-114297310D01*
X101905647Y-114297317D01*
X101855353Y-114432163D01*
X101851876Y-114464508D01*
X101848946Y-114491769D01*
X101848945Y-114491781D01*
X101848945Y-116387516D01*
X101848946Y-116387522D01*
X101855353Y-116447129D01*
X101905647Y-116581974D01*
X101905651Y-116581981D01*
X101991897Y-116697190D01*
X101991900Y-116697193D01*
X102107109Y-116783439D01*
X102107116Y-116783443D01*
X102241962Y-116833737D01*
X102241961Y-116833737D01*
X102248889Y-116834481D01*
X102301572Y-116840146D01*
X104197317Y-116840145D01*
X104256928Y-116833737D01*
X104391776Y-116783442D01*
X104506991Y-116697192D01*
X104593241Y-116581977D01*
X104643536Y-116447129D01*
X104649945Y-116387519D01*
X104649945Y-116124000D01*
X104669630Y-116056961D01*
X104722434Y-116011206D01*
X104773945Y-116000000D01*
X108099999Y-116000000D01*
X108100000Y-116000000D01*
X109800000Y-114200000D01*
X109800000Y-112034126D01*
X110418174Y-112034126D01*
X110437108Y-112202180D01*
X110492968Y-112361818D01*
X110492970Y-112361821D01*
X110582941Y-112505008D01*
X110582946Y-112505014D01*
X110702532Y-112624600D01*
X110702538Y-112624605D01*
X110845725Y-112714576D01*
X110845728Y-112714578D01*
X110845732Y-112714579D01*
X110845733Y-112714580D01*
X110866221Y-112721749D01*
X111005366Y-112770438D01*
X111173420Y-112789373D01*
X111173423Y-112789373D01*
X111173426Y-112789373D01*
X111341479Y-112770438D01*
X111341482Y-112770437D01*
X111501113Y-112714580D01*
X111501115Y-112714578D01*
X111501117Y-112714578D01*
X111501120Y-112714576D01*
X111644307Y-112624605D01*
X111644308Y-112624604D01*
X111644313Y-112624601D01*
X111763900Y-112505014D01*
X111764934Y-112503368D01*
X111853875Y-112361821D01*
X111853877Y-112361818D01*
X111853877Y-112361816D01*
X111853879Y-112361814D01*
X111909736Y-112202183D01*
X111909736Y-112202182D01*
X111909737Y-112202180D01*
X111928672Y-112034126D01*
X111928672Y-112034121D01*
X111909737Y-111866067D01*
X111890968Y-111812428D01*
X112457295Y-111812428D01*
X112476611Y-112008557D01*
X112482846Y-112029110D01*
X112529480Y-112182843D01*
X112533823Y-112197157D01*
X112534957Y-112199278D01*
X112535216Y-112200522D01*
X112536154Y-112202787D01*
X112535724Y-112202964D01*
X112549200Y-112267681D01*
X112524869Y-112332042D01*
X112518841Y-112340094D01*
X112518838Y-112340099D01*
X112468544Y-112474945D01*
X112462137Y-112534544D01*
X112462136Y-112534563D01*
X112462136Y-113630298D01*
X112462137Y-113630304D01*
X112468544Y-113689911D01*
X112518838Y-113824756D01*
X112518842Y-113824763D01*
X112605088Y-113939972D01*
X112605091Y-113939975D01*
X112720300Y-114026221D01*
X112720307Y-114026225D01*
X112855153Y-114076519D01*
X112855152Y-114076519D01*
X112862080Y-114077263D01*
X112914763Y-114082928D01*
X114010508Y-114082927D01*
X114070119Y-114076519D01*
X114204967Y-114026224D01*
X114213015Y-114020198D01*
X114278478Y-113995779D01*
X114342110Y-114009323D01*
X114342281Y-114008911D01*
X114344511Y-114009834D01*
X114345782Y-114010105D01*
X114347909Y-114011242D01*
X114414016Y-114031295D01*
X114472453Y-114069592D01*
X114500909Y-114133404D01*
X114490349Y-114202471D01*
X114444125Y-114254864D01*
X114443992Y-114254948D01*
X114306329Y-114341449D01*
X114306326Y-114341451D01*
X114186740Y-114461037D01*
X114186735Y-114461043D01*
X114096764Y-114604230D01*
X114096762Y-114604233D01*
X114040902Y-114763871D01*
X114021968Y-114931925D01*
X114021968Y-114931930D01*
X114040902Y-115099984D01*
X114096762Y-115259622D01*
X114096764Y-115259625D01*
X114186735Y-115402812D01*
X114186740Y-115402818D01*
X114306326Y-115522404D01*
X114306332Y-115522409D01*
X114449519Y-115612380D01*
X114449522Y-115612382D01*
X114449526Y-115612383D01*
X114449527Y-115612384D01*
X114501657Y-115630625D01*
X114609160Y-115668242D01*
X114777214Y-115687177D01*
X114777217Y-115687177D01*
X114777220Y-115687177D01*
X114945276Y-115668241D01*
X114945277Y-115668241D01*
X115011722Y-115644991D01*
X115081500Y-115641428D01*
X115142128Y-115676157D01*
X115169719Y-115721078D01*
X115182962Y-115758927D01*
X115182965Y-115758932D01*
X115272936Y-115902119D01*
X115272941Y-115902125D01*
X115392527Y-116021711D01*
X115392533Y-116021716D01*
X115535720Y-116111687D01*
X115535723Y-116111689D01*
X115535727Y-116111690D01*
X115535728Y-116111691D01*
X115608331Y-116137095D01*
X115695361Y-116167549D01*
X115863415Y-116186484D01*
X115863418Y-116186484D01*
X115863421Y-116186484D01*
X116031474Y-116167549D01*
X116031477Y-116167548D01*
X116191108Y-116111691D01*
X116191110Y-116111689D01*
X116191112Y-116111689D01*
X116191115Y-116111687D01*
X116334302Y-116021716D01*
X116334303Y-116021715D01*
X116334308Y-116021712D01*
X116453895Y-115902125D01*
X116458915Y-115894136D01*
X116543870Y-115758932D01*
X116543872Y-115758929D01*
X116543872Y-115758927D01*
X116543874Y-115758925D01*
X116599731Y-115599294D01*
X116599731Y-115599293D01*
X116599732Y-115599291D01*
X116618667Y-115431237D01*
X116618667Y-115431232D01*
X116599732Y-115263178D01*
X116545774Y-115108975D01*
X124342703Y-115108975D01*
X124361054Y-115295307D01*
X124361055Y-115295309D01*
X124415406Y-115474478D01*
X124503664Y-115639599D01*
X124503666Y-115639602D01*
X124622444Y-115784333D01*
X124767175Y-115903111D01*
X124767178Y-115903113D01*
X124915506Y-115982395D01*
X124932301Y-115991372D01*
X125108689Y-116044879D01*
X125111468Y-116045722D01*
X125111470Y-116045723D01*
X125128176Y-116047368D01*
X125297802Y-116064075D01*
X125484133Y-116045723D01*
X125663303Y-115991372D01*
X125828427Y-115903112D01*
X125973159Y-115784333D01*
X126091938Y-115639601D01*
X126180198Y-115474477D01*
X126190421Y-115440778D01*
X126228716Y-115382342D01*
X126292528Y-115353885D01*
X126361595Y-115364444D01*
X126413989Y-115410668D01*
X126427740Y-115440778D01*
X126437707Y-115473635D01*
X126525965Y-115638755D01*
X126525967Y-115638758D01*
X126644745Y-115783489D01*
X126789476Y-115902267D01*
X126789479Y-115902269D01*
X126939386Y-115982395D01*
X126954602Y-115990528D01*
X127106965Y-116036747D01*
X127133769Y-116044878D01*
X127133771Y-116044879D01*
X127142331Y-116045722D01*
X127320103Y-116063231D01*
X127506434Y-116044879D01*
X127685604Y-115990528D01*
X127850728Y-115902268D01*
X127995460Y-115783489D01*
X128114239Y-115638757D01*
X128177867Y-115519715D01*
X128226827Y-115469873D01*
X128294965Y-115454412D01*
X128360645Y-115478243D01*
X128396582Y-115519717D01*
X128455862Y-115630623D01*
X128455864Y-115630626D01*
X128574642Y-115775357D01*
X128719373Y-115894135D01*
X128719376Y-115894137D01*
X128884497Y-115982395D01*
X128884499Y-115982396D01*
X129014106Y-116021712D01*
X129063666Y-116036746D01*
X129063668Y-116036747D01*
X129082019Y-116038554D01*
X129250000Y-116055099D01*
X129436331Y-116036747D01*
X129615501Y-115982396D01*
X129780625Y-115894136D01*
X129925357Y-115775357D01*
X130044136Y-115630625D01*
X130132396Y-115465501D01*
X130186747Y-115286331D01*
X130205099Y-115100000D01*
X130186747Y-114913669D01*
X130132396Y-114734499D01*
X130129931Y-114729887D01*
X130044137Y-114569376D01*
X130044135Y-114569373D01*
X129925357Y-114424642D01*
X129780626Y-114305864D01*
X129780623Y-114305862D01*
X129615502Y-114217604D01*
X129436333Y-114163253D01*
X129436331Y-114163252D01*
X129250000Y-114144901D01*
X129063668Y-114163252D01*
X129063666Y-114163253D01*
X128884497Y-114217604D01*
X128719376Y-114305862D01*
X128719373Y-114305864D01*
X128574642Y-114424642D01*
X128455864Y-114569373D01*
X128455862Y-114569376D01*
X128392236Y-114688414D01*
X128343274Y-114738258D01*
X128275136Y-114753719D01*
X128209457Y-114729887D01*
X128173520Y-114688414D01*
X128114240Y-114577508D01*
X128114238Y-114577505D01*
X127995460Y-114432774D01*
X127850729Y-114313996D01*
X127850726Y-114313994D01*
X127685605Y-114225736D01*
X127506436Y-114171385D01*
X127506434Y-114171384D01*
X127320103Y-114153033D01*
X127133771Y-114171384D01*
X127133769Y-114171385D01*
X126954600Y-114225736D01*
X126789479Y-114313994D01*
X126789476Y-114313996D01*
X126644745Y-114432774D01*
X126525967Y-114577505D01*
X126525965Y-114577508D01*
X126437708Y-114742627D01*
X126427484Y-114776330D01*
X126389185Y-114834768D01*
X126325372Y-114863223D01*
X126256306Y-114852661D01*
X126203913Y-114806436D01*
X126190164Y-114776331D01*
X126180198Y-114743475D01*
X126180196Y-114743472D01*
X126180196Y-114743470D01*
X126091939Y-114578352D01*
X126091937Y-114578349D01*
X125973159Y-114433618D01*
X125828428Y-114314840D01*
X125828425Y-114314838D01*
X125663304Y-114226580D01*
X125484135Y-114172229D01*
X125484133Y-114172228D01*
X125297802Y-114153877D01*
X125111470Y-114172228D01*
X125111468Y-114172229D01*
X124932299Y-114226580D01*
X124767178Y-114314838D01*
X124767175Y-114314840D01*
X124622444Y-114433618D01*
X124503666Y-114578349D01*
X124503664Y-114578352D01*
X124415406Y-114743473D01*
X124361055Y-114922642D01*
X124361054Y-114922644D01*
X124342703Y-115108975D01*
X116545774Y-115108975D01*
X116543872Y-115103540D01*
X116543870Y-115103537D01*
X116453899Y-114960350D01*
X116453894Y-114960344D01*
X116334308Y-114840758D01*
X116334302Y-114840753D01*
X116191115Y-114750782D01*
X116191112Y-114750780D01*
X116031474Y-114694920D01*
X115863421Y-114675986D01*
X115863415Y-114675986D01*
X115695358Y-114694921D01*
X115628910Y-114718172D01*
X115559132Y-114721733D01*
X115498505Y-114687004D01*
X115470915Y-114642083D01*
X115457673Y-114604237D01*
X115457669Y-114604230D01*
X115367698Y-114461043D01*
X115367693Y-114461037D01*
X115248107Y-114341451D01*
X115248101Y-114341446D01*
X115104914Y-114251475D01*
X115104907Y-114251471D01*
X115101458Y-114250265D01*
X115099531Y-114248882D01*
X115098634Y-114248451D01*
X115098709Y-114248293D01*
X115044682Y-114209545D01*
X115018933Y-114144592D01*
X115032388Y-114076030D01*
X115080775Y-114025627D01*
X115106413Y-114014563D01*
X115117363Y-114011242D01*
X115291174Y-113918338D01*
X115291180Y-113918332D01*
X115296243Y-113914951D01*
X115297339Y-113916592D01*
X115353275Y-113892833D01*
X115422143Y-113904622D01*
X115438784Y-113915316D01*
X115439029Y-113914951D01*
X115444094Y-113918335D01*
X115444098Y-113918338D01*
X115579266Y-113990587D01*
X115615783Y-114010106D01*
X115617909Y-114011242D01*
X115806504Y-114068452D01*
X116002636Y-114087769D01*
X116198768Y-114068452D01*
X116387363Y-114011242D01*
X116389489Y-114010106D01*
X116520696Y-113939974D01*
X116561174Y-113918338D01*
X116713519Y-113793311D01*
X116838546Y-113640966D01*
X116909168Y-113508841D01*
X116931447Y-113467161D01*
X116931447Y-113467160D01*
X116931450Y-113467155D01*
X116988660Y-113278560D01*
X117007977Y-113082428D01*
X116994934Y-112950002D01*
X120094751Y-112950002D01*
X120113685Y-113118056D01*
X120169545Y-113277694D01*
X120169547Y-113277697D01*
X120259518Y-113420884D01*
X120259523Y-113420890D01*
X120379109Y-113540476D01*
X120379115Y-113540481D01*
X120522302Y-113630452D01*
X120522305Y-113630454D01*
X120522309Y-113630455D01*
X120522310Y-113630456D01*
X120552329Y-113640960D01*
X120681943Y-113686314D01*
X120849997Y-113705249D01*
X120850000Y-113705249D01*
X120850003Y-113705249D01*
X121018056Y-113686314D01*
X121018059Y-113686313D01*
X121177690Y-113630456D01*
X121320890Y-113540477D01*
X121325442Y-113535924D01*
X121386762Y-113502438D01*
X121454079Y-113506560D01*
X121538001Y-113535926D01*
X121611138Y-113561518D01*
X121779192Y-113580453D01*
X121779195Y-113580453D01*
X121779198Y-113580453D01*
X121947251Y-113561518D01*
X121948683Y-113561017D01*
X122106885Y-113505660D01*
X122106887Y-113505658D01*
X122106889Y-113505658D01*
X122106892Y-113505656D01*
X122250079Y-113415685D01*
X122250080Y-113415684D01*
X122250085Y-113415681D01*
X122369672Y-113296094D01*
X122369990Y-113295588D01*
X122459647Y-113152901D01*
X122459650Y-113152896D01*
X122459651Y-113152894D01*
X122490944Y-113063461D01*
X122531664Y-113006688D01*
X122567031Y-112987376D01*
X122568056Y-112987017D01*
X122568059Y-112987017D01*
X122727690Y-112931160D01*
X122870890Y-112841181D01*
X122939221Y-112772848D01*
X123000544Y-112739364D01*
X123040787Y-112737310D01*
X123199997Y-112755249D01*
X123200000Y-112755249D01*
X123200003Y-112755249D01*
X123368056Y-112736314D01*
X123368059Y-112736313D01*
X123527690Y-112680456D01*
X123527692Y-112680454D01*
X123527694Y-112680454D01*
X123527697Y-112680452D01*
X123670884Y-112590481D01*
X123670885Y-112590480D01*
X123670890Y-112590477D01*
X123790477Y-112470890D01*
X123790485Y-112470876D01*
X123793559Y-112467023D01*
X123850743Y-112426878D01*
X123920554Y-112424021D01*
X123980828Y-112459361D01*
X124007553Y-112503368D01*
X124010059Y-112510530D01*
X124010064Y-112510540D01*
X124100035Y-112653727D01*
X124100040Y-112653733D01*
X124219626Y-112773319D01*
X124219632Y-112773324D01*
X124362819Y-112863295D01*
X124362822Y-112863297D01*
X124362826Y-112863298D01*
X124362827Y-112863299D01*
X124428549Y-112886296D01*
X124522460Y-112919157D01*
X124690514Y-112938092D01*
X124690517Y-112938092D01*
X124690520Y-112938092D01*
X124811248Y-112924489D01*
X124880070Y-112936543D01*
X124931450Y-112983892D01*
X124942174Y-113006755D01*
X124993135Y-113152395D01*
X124993138Y-113152401D01*
X125083109Y-113295588D01*
X125083114Y-113295594D01*
X125202700Y-113415180D01*
X125202706Y-113415185D01*
X125345893Y-113505156D01*
X125345896Y-113505158D01*
X125345900Y-113505159D01*
X125345901Y-113505160D01*
X125356421Y-113508841D01*
X125505534Y-113561018D01*
X125673588Y-113579953D01*
X125673591Y-113579953D01*
X125673594Y-113579953D01*
X125841647Y-113561018D01*
X125841650Y-113561017D01*
X126001281Y-113505160D01*
X126001283Y-113505158D01*
X126001285Y-113505158D01*
X126001288Y-113505156D01*
X126144475Y-113415185D01*
X126144476Y-113415184D01*
X126144481Y-113415181D01*
X126159549Y-113400113D01*
X130947839Y-113400113D01*
X130966773Y-113568167D01*
X131022633Y-113727805D01*
X131022635Y-113727808D01*
X131112606Y-113870995D01*
X131112611Y-113871001D01*
X131232197Y-113990587D01*
X131232203Y-113990592D01*
X131375390Y-114080563D01*
X131375393Y-114080565D01*
X131375397Y-114080566D01*
X131375398Y-114080567D01*
X131448001Y-114105971D01*
X131535031Y-114136425D01*
X131703085Y-114155360D01*
X131703088Y-114155360D01*
X131703091Y-114155360D01*
X131871144Y-114136425D01*
X131871147Y-114136424D01*
X132030778Y-114080567D01*
X132030780Y-114080565D01*
X132030782Y-114080565D01*
X132030785Y-114080563D01*
X132173972Y-113990592D01*
X132173973Y-113990591D01*
X132173978Y-113990588D01*
X132293565Y-113871001D01*
X132293569Y-113870995D01*
X132383540Y-113727808D01*
X132383542Y-113727805D01*
X132383542Y-113727803D01*
X132383544Y-113727801D01*
X132439401Y-113568170D01*
X132439401Y-113568169D01*
X132439402Y-113568167D01*
X132458337Y-113400113D01*
X132458337Y-113400108D01*
X132439402Y-113232054D01*
X132389862Y-113090477D01*
X132383544Y-113072421D01*
X132383543Y-113072420D01*
X132383542Y-113072416D01*
X132383540Y-113072413D01*
X132293569Y-112929226D01*
X132293564Y-112929220D01*
X132173978Y-112809634D01*
X132173972Y-112809629D01*
X132030785Y-112719658D01*
X132030782Y-112719656D01*
X131871144Y-112663796D01*
X131703091Y-112644862D01*
X131703085Y-112644862D01*
X131535031Y-112663796D01*
X131375393Y-112719656D01*
X131375390Y-112719658D01*
X131232203Y-112809629D01*
X131232197Y-112809634D01*
X131112611Y-112929220D01*
X131112606Y-112929226D01*
X131022635Y-113072413D01*
X131022633Y-113072416D01*
X130966773Y-113232054D01*
X130947839Y-113400108D01*
X130947839Y-113400113D01*
X126159549Y-113400113D01*
X126264068Y-113295594D01*
X126274773Y-113278557D01*
X126354043Y-113152401D01*
X126354045Y-113152398D01*
X126354046Y-113152395D01*
X126354047Y-113152394D01*
X126409904Y-112992763D01*
X126409904Y-112992762D01*
X126409905Y-112992760D01*
X126428840Y-112824706D01*
X126428840Y-112824701D01*
X126409905Y-112656647D01*
X126367179Y-112534544D01*
X126355093Y-112500002D01*
X126844751Y-112500002D01*
X126863685Y-112668056D01*
X126919545Y-112827694D01*
X126919547Y-112827697D01*
X127009518Y-112970884D01*
X127009523Y-112970890D01*
X127129109Y-113090476D01*
X127129115Y-113090481D01*
X127272302Y-113180452D01*
X127272305Y-113180454D01*
X127272309Y-113180455D01*
X127272310Y-113180456D01*
X127344913Y-113205860D01*
X127431943Y-113236314D01*
X127599997Y-113255249D01*
X127600000Y-113255249D01*
X127600003Y-113255249D01*
X127768056Y-113236314D01*
X127768059Y-113236313D01*
X127927690Y-113180456D01*
X127927692Y-113180454D01*
X127927694Y-113180454D01*
X127927697Y-113180452D01*
X128070884Y-113090481D01*
X128070885Y-113090480D01*
X128070890Y-113090477D01*
X128190477Y-112970890D01*
X128190481Y-112970884D01*
X128280452Y-112827697D01*
X128280454Y-112827694D01*
X128280454Y-112827692D01*
X128280456Y-112827690D01*
X128336313Y-112668059D01*
X128336313Y-112668058D01*
X128336314Y-112668056D01*
X128355249Y-112500002D01*
X128355249Y-112499997D01*
X128336314Y-112331943D01*
X128302850Y-112236310D01*
X128280456Y-112172310D01*
X128280455Y-112172309D01*
X128280454Y-112172305D01*
X128280452Y-112172302D01*
X128203590Y-112049978D01*
X132713447Y-112049978D01*
X132731798Y-112236310D01*
X132731799Y-112236312D01*
X132786150Y-112415481D01*
X132874408Y-112580602D01*
X132874410Y-112580605D01*
X132993188Y-112725336D01*
X133137919Y-112844114D01*
X133137922Y-112844116D01*
X133300770Y-112931159D01*
X133303045Y-112932375D01*
X133472873Y-112983892D01*
X133482212Y-112986725D01*
X133482214Y-112986726D01*
X133500565Y-112988533D01*
X133668546Y-113005078D01*
X133854877Y-112986726D01*
X134034047Y-112932375D01*
X134199171Y-112844115D01*
X134343903Y-112725336D01*
X134462682Y-112580604D01*
X134550942Y-112415480D01*
X134605293Y-112236310D01*
X134623645Y-112049979D01*
X134605293Y-111863648D01*
X134550942Y-111684478D01*
X134516255Y-111619582D01*
X134462683Y-111519355D01*
X134462681Y-111519352D01*
X134343903Y-111374621D01*
X134199172Y-111255843D01*
X134199169Y-111255841D01*
X134034048Y-111167583D01*
X133854879Y-111113232D01*
X133854877Y-111113231D01*
X133668546Y-111094880D01*
X133482214Y-111113231D01*
X133482212Y-111113232D01*
X133303043Y-111167583D01*
X133137922Y-111255841D01*
X133137919Y-111255843D01*
X132993188Y-111374621D01*
X132874410Y-111519352D01*
X132874408Y-111519355D01*
X132786150Y-111684476D01*
X132731799Y-111863645D01*
X132731798Y-111863647D01*
X132713447Y-112049978D01*
X128203590Y-112049978D01*
X128190481Y-112029115D01*
X128190476Y-112029109D01*
X128070890Y-111909523D01*
X128070884Y-111909518D01*
X127927697Y-111819547D01*
X127927694Y-111819545D01*
X127768056Y-111763685D01*
X127600003Y-111744751D01*
X127599997Y-111744751D01*
X127431943Y-111763685D01*
X127272305Y-111819545D01*
X127272302Y-111819547D01*
X127129115Y-111909518D01*
X127129109Y-111909523D01*
X127009523Y-112029109D01*
X127009518Y-112029115D01*
X126919547Y-112172302D01*
X126919545Y-112172305D01*
X126863685Y-112331943D01*
X126844751Y-112499997D01*
X126844751Y-112500002D01*
X126355093Y-112500002D01*
X126354047Y-112497014D01*
X126354046Y-112497013D01*
X126354045Y-112497009D01*
X126354043Y-112497006D01*
X126264072Y-112353819D01*
X126264067Y-112353813D01*
X126144481Y-112234227D01*
X126144475Y-112234222D01*
X126001288Y-112144251D01*
X126001285Y-112144249D01*
X125841647Y-112088389D01*
X125673594Y-112069455D01*
X125673587Y-112069455D01*
X125552859Y-112083057D01*
X125484037Y-112071002D01*
X125432658Y-112023653D01*
X125421934Y-112000792D01*
X125374675Y-111865733D01*
X125370973Y-111855153D01*
X125370972Y-111855152D01*
X125370971Y-111855148D01*
X125370969Y-111855145D01*
X125280998Y-111711958D01*
X125280993Y-111711952D01*
X125161407Y-111592366D01*
X125161401Y-111592361D01*
X125018214Y-111502390D01*
X125018211Y-111502388D01*
X124858573Y-111446528D01*
X124690520Y-111427594D01*
X124690514Y-111427594D01*
X124522460Y-111446528D01*
X124362822Y-111502388D01*
X124362819Y-111502390D01*
X124219632Y-111592361D01*
X124219626Y-111592366D01*
X124100039Y-111711953D01*
X124096948Y-111715830D01*
X124039759Y-111755969D01*
X123969947Y-111758817D01*
X123909678Y-111723471D01*
X123882961Y-111679469D01*
X123880455Y-111672308D01*
X123880452Y-111672302D01*
X123790481Y-111529115D01*
X123790476Y-111529109D01*
X123670890Y-111409523D01*
X123670884Y-111409518D01*
X123527697Y-111319547D01*
X123527694Y-111319545D01*
X123368056Y-111263685D01*
X123200003Y-111244751D01*
X123199997Y-111244751D01*
X123031943Y-111263685D01*
X122872305Y-111319545D01*
X122872302Y-111319547D01*
X122729112Y-111409520D01*
X122729105Y-111409526D01*
X122660775Y-111477855D01*
X122599451Y-111511340D01*
X122559212Y-111513393D01*
X122400004Y-111495455D01*
X122399997Y-111495455D01*
X122231940Y-111514390D01*
X122165286Y-111537713D01*
X122095507Y-111541274D01*
X122034881Y-111506544D01*
X122002654Y-111444551D01*
X122007292Y-111379715D01*
X122009075Y-111374622D01*
X122028225Y-111319893D01*
X122036692Y-111244751D01*
X122047161Y-111151836D01*
X122047161Y-111151831D01*
X122028226Y-110983777D01*
X121979059Y-110843267D01*
X121972368Y-110824144D01*
X121972367Y-110824143D01*
X121972366Y-110824139D01*
X121972364Y-110824136D01*
X121882393Y-110680949D01*
X121882388Y-110680943D01*
X121762802Y-110561357D01*
X121762796Y-110561352D01*
X121619609Y-110471381D01*
X121619606Y-110471379D01*
X121459968Y-110415519D01*
X121322243Y-110400002D01*
X125444751Y-110400002D01*
X125463685Y-110568056D01*
X125519545Y-110727694D01*
X125519547Y-110727697D01*
X125609518Y-110870884D01*
X125609523Y-110870890D01*
X125729109Y-110990476D01*
X125729115Y-110990481D01*
X125872302Y-111080452D01*
X125872305Y-111080454D01*
X125872309Y-111080455D01*
X125872310Y-111080456D01*
X125913532Y-111094880D01*
X126031943Y-111136314D01*
X126199997Y-111155249D01*
X126200000Y-111155249D01*
X126200003Y-111155249D01*
X126368056Y-111136314D01*
X126368059Y-111136313D01*
X126527690Y-111080456D01*
X126527692Y-111080454D01*
X126527694Y-111080454D01*
X126527697Y-111080452D01*
X126670884Y-110990481D01*
X126670885Y-110990480D01*
X126670890Y-110990477D01*
X126790477Y-110870890D01*
X126790481Y-110870884D01*
X126880452Y-110727697D01*
X126880454Y-110727694D01*
X126880454Y-110727692D01*
X126880456Y-110727690D01*
X126936313Y-110568059D01*
X126936313Y-110568058D01*
X126936314Y-110568056D01*
X126955249Y-110400002D01*
X126955249Y-110399997D01*
X126936314Y-110231943D01*
X126880454Y-110072305D01*
X126880452Y-110072302D01*
X126790481Y-109929115D01*
X126790476Y-109929109D01*
X126670890Y-109809523D01*
X126670884Y-109809518D01*
X126527697Y-109719547D01*
X126527694Y-109719545D01*
X126368056Y-109663685D01*
X126200003Y-109644751D01*
X126199997Y-109644751D01*
X126031943Y-109663685D01*
X125872305Y-109719545D01*
X125872302Y-109719547D01*
X125729115Y-109809518D01*
X125729109Y-109809523D01*
X125609523Y-109929109D01*
X125609518Y-109929115D01*
X125519547Y-110072302D01*
X125519545Y-110072305D01*
X125463685Y-110231943D01*
X125444751Y-110399997D01*
X125444751Y-110400002D01*
X121322243Y-110400002D01*
X121291915Y-110396585D01*
X121291909Y-110396585D01*
X121123855Y-110415519D01*
X120964217Y-110471379D01*
X120964214Y-110471381D01*
X120821027Y-110561352D01*
X120821021Y-110561357D01*
X120701435Y-110680943D01*
X120701430Y-110680949D01*
X120611459Y-110824136D01*
X120611457Y-110824139D01*
X120555597Y-110983777D01*
X120536663Y-111151831D01*
X120536663Y-111151836D01*
X120555597Y-111319890D01*
X120611457Y-111479528D01*
X120611459Y-111479531D01*
X120701430Y-111622718D01*
X120701435Y-111622724D01*
X120821021Y-111742310D01*
X120821027Y-111742315D01*
X120964214Y-111832286D01*
X120964217Y-111832288D01*
X120964221Y-111832289D01*
X120964222Y-111832290D01*
X121029538Y-111855145D01*
X121123855Y-111888148D01*
X121291909Y-111907083D01*
X121291912Y-111907083D01*
X121291915Y-111907083D01*
X121435470Y-111890908D01*
X121504292Y-111902962D01*
X121555672Y-111950311D01*
X121573296Y-112017922D01*
X121551570Y-112084327D01*
X121497391Y-112128446D01*
X121490309Y-112131169D01*
X121451508Y-112144746D01*
X121451497Y-112144751D01*
X121308307Y-112234724D01*
X121308303Y-112234727D01*
X121303745Y-112239286D01*
X121242420Y-112272768D01*
X121175114Y-112268642D01*
X121018057Y-112213686D01*
X120850003Y-112194751D01*
X120849997Y-112194751D01*
X120681943Y-112213685D01*
X120522305Y-112269545D01*
X120522302Y-112269547D01*
X120379115Y-112359518D01*
X120379109Y-112359523D01*
X120259523Y-112479109D01*
X120259518Y-112479115D01*
X120169547Y-112622302D01*
X120169545Y-112622305D01*
X120113685Y-112781943D01*
X120094751Y-112949997D01*
X120094751Y-112950002D01*
X116994934Y-112950002D01*
X116988660Y-112886296D01*
X116931450Y-112697701D01*
X116915760Y-112668348D01*
X116892377Y-112624600D01*
X116838546Y-112523890D01*
X116838542Y-112523885D01*
X116835162Y-112518827D01*
X116836680Y-112517812D01*
X116812717Y-112461390D01*
X116824508Y-112392522D01*
X116835128Y-112376002D01*
X116834747Y-112375748D01*
X116838133Y-112370680D01*
X116930983Y-112196969D01*
X116971796Y-112062428D01*
X116217119Y-112062428D01*
X116288437Y-111977435D01*
X116327636Y-111869734D01*
X116327636Y-111755122D01*
X116288437Y-111647421D01*
X116214765Y-111559623D01*
X116115507Y-111502316D01*
X116031072Y-111487428D01*
X115974200Y-111487428D01*
X115889765Y-111502316D01*
X115790507Y-111559623D01*
X115752636Y-111604755D01*
X115752636Y-110843267D01*
X116252636Y-110843267D01*
X116252636Y-111562428D01*
X116971796Y-111562428D01*
X116971796Y-111562427D01*
X116930983Y-111427886D01*
X116838132Y-111254174D01*
X116838128Y-111254167D01*
X116713164Y-111101899D01*
X116560896Y-110976935D01*
X116560889Y-110976931D01*
X116387177Y-110884080D01*
X116252636Y-110843267D01*
X115752636Y-110843267D01*
X115752636Y-110837103D01*
X115721109Y-110795377D01*
X115715813Y-110725709D01*
X115720055Y-110710571D01*
X115774587Y-110554729D01*
X115774587Y-110554727D01*
X115793523Y-110386670D01*
X115793523Y-110386665D01*
X115774588Y-110218611D01*
X115722819Y-110070663D01*
X115718730Y-110058978D01*
X115718729Y-110058977D01*
X115718728Y-110058973D01*
X115718726Y-110058970D01*
X115628755Y-109915783D01*
X115628750Y-109915777D01*
X115615579Y-109902606D01*
X116103070Y-109902606D01*
X116122004Y-110070660D01*
X116177864Y-110230298D01*
X116177866Y-110230301D01*
X116267837Y-110373488D01*
X116267842Y-110373494D01*
X116387428Y-110493080D01*
X116387434Y-110493085D01*
X116530621Y-110583056D01*
X116530624Y-110583058D01*
X116530628Y-110583059D01*
X116530629Y-110583060D01*
X116603232Y-110608464D01*
X116690262Y-110638918D01*
X116858316Y-110657853D01*
X116858319Y-110657853D01*
X116858322Y-110657853D01*
X117026375Y-110638918D01*
X117026378Y-110638917D01*
X117186009Y-110583060D01*
X117186011Y-110583058D01*
X117186013Y-110583058D01*
X117186016Y-110583056D01*
X117329203Y-110493085D01*
X117329204Y-110493084D01*
X117329209Y-110493081D01*
X117448796Y-110373494D01*
X117461415Y-110353411D01*
X117538771Y-110230301D01*
X117538773Y-110230298D01*
X117538773Y-110230296D01*
X117538775Y-110230294D01*
X117594632Y-110070663D01*
X117594632Y-110070662D01*
X117594633Y-110070660D01*
X117613568Y-109902606D01*
X117613568Y-109902601D01*
X117594633Y-109734547D01*
X117538773Y-109574909D01*
X117538771Y-109574906D01*
X117448800Y-109431719D01*
X117448795Y-109431713D01*
X117329209Y-109312127D01*
X117329203Y-109312122D01*
X117186016Y-109222151D01*
X117186013Y-109222149D01*
X117026375Y-109166289D01*
X116858322Y-109147355D01*
X116858316Y-109147355D01*
X116690262Y-109166289D01*
X116530624Y-109222149D01*
X116530621Y-109222151D01*
X116387434Y-109312122D01*
X116387428Y-109312127D01*
X116267842Y-109431713D01*
X116267837Y-109431719D01*
X116177866Y-109574906D01*
X116177864Y-109574909D01*
X116122004Y-109734547D01*
X116103070Y-109902601D01*
X116103070Y-109902606D01*
X115615579Y-109902606D01*
X115509164Y-109796191D01*
X115509158Y-109796186D01*
X115365971Y-109706215D01*
X115365968Y-109706213D01*
X115206330Y-109650353D01*
X115038277Y-109631419D01*
X115038271Y-109631419D01*
X114863296Y-109651134D01*
X114862985Y-109648381D01*
X114805759Y-109644873D01*
X114749403Y-109603573D01*
X114724689Y-109542140D01*
X114719541Y-109496451D01*
X114663681Y-109336812D01*
X114663679Y-109336809D01*
X114573708Y-109193622D01*
X114573703Y-109193616D01*
X114454117Y-109074030D01*
X114454111Y-109074025D01*
X114310924Y-108984054D01*
X114310921Y-108984052D01*
X114151283Y-108928192D01*
X113983230Y-108909258D01*
X113983224Y-108909258D01*
X113815170Y-108928192D01*
X113655532Y-108984052D01*
X113655529Y-108984054D01*
X113512342Y-109074025D01*
X113512336Y-109074030D01*
X113392750Y-109193616D01*
X113392745Y-109193622D01*
X113302774Y-109336809D01*
X113302772Y-109336812D01*
X113246912Y-109496450D01*
X113227978Y-109664504D01*
X113227978Y-109664509D01*
X113246912Y-109832563D01*
X113302772Y-109992201D01*
X113302774Y-109992204D01*
X113392745Y-110135391D01*
X113392750Y-110135397D01*
X113512336Y-110254983D01*
X113512342Y-110254988D01*
X113655529Y-110344959D01*
X113655532Y-110344961D01*
X113655536Y-110344962D01*
X113655537Y-110344963D01*
X113728140Y-110370367D01*
X113815170Y-110400821D01*
X113983224Y-110419756D01*
X113983227Y-110419756D01*
X113983230Y-110419756D01*
X114158206Y-110400041D01*
X114158516Y-110402799D01*
X114215707Y-110406289D01*
X114272076Y-110447574D01*
X114296811Y-110509032D01*
X114301960Y-110554724D01*
X114357819Y-110714362D01*
X114357820Y-110714363D01*
X114364170Y-110724469D01*
X114383170Y-110791706D01*
X114362802Y-110858541D01*
X114317629Y-110899798D01*
X114174103Y-110976513D01*
X114169035Y-110979901D01*
X114167941Y-110978264D01*
X114111973Y-111002024D01*
X114043107Y-110990223D01*
X114026479Y-110979537D01*
X114026237Y-110979901D01*
X114021168Y-110976514D01*
X113847369Y-110883616D01*
X113847363Y-110883614D01*
X113658768Y-110826404D01*
X113658765Y-110826403D01*
X113462636Y-110807087D01*
X113266506Y-110826403D01*
X113077902Y-110883616D01*
X112904103Y-110976514D01*
X112904096Y-110976518D01*
X112751752Y-111101544D01*
X112626726Y-111253888D01*
X112626722Y-111253895D01*
X112533824Y-111427694D01*
X112476611Y-111616298D01*
X112457295Y-111812428D01*
X111890968Y-111812428D01*
X111873912Y-111763685D01*
X111853879Y-111706434D01*
X111853878Y-111706433D01*
X111853877Y-111706429D01*
X111853875Y-111706426D01*
X111763904Y-111563239D01*
X111763899Y-111563233D01*
X111644313Y-111443647D01*
X111644307Y-111443642D01*
X111501120Y-111353671D01*
X111501117Y-111353669D01*
X111341479Y-111297809D01*
X111173426Y-111278875D01*
X111173420Y-111278875D01*
X111005366Y-111297809D01*
X110845728Y-111353669D01*
X110845725Y-111353671D01*
X110702538Y-111443642D01*
X110702532Y-111443647D01*
X110582946Y-111563233D01*
X110582941Y-111563239D01*
X110492970Y-111706426D01*
X110492968Y-111706429D01*
X110437108Y-111866067D01*
X110418174Y-112034121D01*
X110418174Y-112034126D01*
X109800000Y-112034126D01*
X109800000Y-109652719D01*
X109819685Y-109585680D01*
X109872489Y-109539925D01*
X109920974Y-109528756D01*
X111100000Y-109500000D01*
X111100000Y-108616870D01*
X111119685Y-108549831D01*
X111136314Y-108529194D01*
X111145604Y-108519904D01*
X111206925Y-108486421D01*
X111276617Y-108491405D01*
X111332550Y-108533277D01*
X111338277Y-108541615D01*
X111372926Y-108596759D01*
X111492512Y-108716345D01*
X111492518Y-108716350D01*
X111635705Y-108806321D01*
X111635708Y-108806323D01*
X111635712Y-108806324D01*
X111635713Y-108806325D01*
X111691944Y-108826001D01*
X111795346Y-108862183D01*
X111963400Y-108881118D01*
X111963403Y-108881118D01*
X111963406Y-108881118D01*
X112131459Y-108862183D01*
X112131462Y-108862182D01*
X112291093Y-108806325D01*
X112291095Y-108806323D01*
X112291097Y-108806323D01*
X112291100Y-108806321D01*
X112434287Y-108716350D01*
X112434288Y-108716349D01*
X112434293Y-108716346D01*
X112553880Y-108596759D01*
X112583367Y-108549831D01*
X112643855Y-108453566D01*
X112643857Y-108453563D01*
X112643857Y-108453561D01*
X112643859Y-108453559D01*
X112699716Y-108293928D01*
X112699716Y-108293927D01*
X112699717Y-108293925D01*
X112718652Y-108125871D01*
X112718652Y-108125866D01*
X112701629Y-107974785D01*
X112713683Y-107905963D01*
X112761032Y-107854583D01*
X112824849Y-107836901D01*
X113040534Y-107836901D01*
X113040536Y-107836901D01*
X113254679Y-107796871D01*
X113457820Y-107718173D01*
X113643042Y-107603489D01*
X113804037Y-107456723D01*
X113832658Y-107418822D01*
X113888761Y-107377188D01*
X113958472Y-107372495D01*
X114019655Y-107406235D01*
X114030558Y-107418817D01*
X114059183Y-107456723D01*
X114059185Y-107456725D01*
X114059188Y-107456728D01*
X114141467Y-107531735D01*
X114220178Y-107603489D01*
X114220185Y-107603493D01*
X114220186Y-107603494D01*
X114405396Y-107718171D01*
X114405402Y-107718174D01*
X114428274Y-107727034D01*
X114608541Y-107796871D01*
X114822684Y-107836901D01*
X114822686Y-107836901D01*
X115040534Y-107836901D01*
X115040536Y-107836901D01*
X115254679Y-107796871D01*
X115457820Y-107718173D01*
X115643042Y-107603489D01*
X115804037Y-107456723D01*
X115935322Y-107282873D01*
X116032427Y-107087860D01*
X116092045Y-106878324D01*
X116112146Y-106661401D01*
X116110875Y-106647690D01*
X116101265Y-106543982D01*
X116092045Y-106444478D01*
X116032427Y-106234942D01*
X116027042Y-106224127D01*
X117459502Y-106224127D01*
X117478436Y-106392181D01*
X117534296Y-106551819D01*
X117534298Y-106551822D01*
X117624269Y-106695009D01*
X117624274Y-106695015D01*
X117689594Y-106760335D01*
X117723079Y-106821658D01*
X117725134Y-106861893D01*
X117724032Y-106871678D01*
X117724032Y-106871682D01*
X117742966Y-107039736D01*
X117798826Y-107199374D01*
X117798828Y-107199377D01*
X117888799Y-107342564D01*
X117888804Y-107342570D01*
X117929752Y-107383518D01*
X117963237Y-107444841D01*
X117958253Y-107514533D01*
X117929753Y-107558880D01*
X117809518Y-107679115D01*
X117719547Y-107822302D01*
X117719545Y-107822305D01*
X117663685Y-107981943D01*
X117644751Y-108149997D01*
X117644751Y-108150002D01*
X117663685Y-108318056D01*
X117719545Y-108477694D01*
X117719547Y-108477697D01*
X117809518Y-108620884D01*
X117809523Y-108620890D01*
X117929109Y-108740476D01*
X117929115Y-108740481D01*
X118072302Y-108830452D01*
X118072305Y-108830454D01*
X118072309Y-108830455D01*
X118072310Y-108830456D01*
X118219215Y-108881860D01*
X118231944Y-108886314D01*
X118308867Y-108894980D01*
X118363635Y-108901151D01*
X118428048Y-108928217D01*
X118454745Y-108958400D01*
X118466381Y-108976920D01*
X118585971Y-109096510D01*
X118585977Y-109096515D01*
X118729164Y-109186486D01*
X118729167Y-109186488D01*
X118729171Y-109186489D01*
X118729172Y-109186490D01*
X118801775Y-109211894D01*
X118888805Y-109242348D01*
X119056859Y-109261283D01*
X119056862Y-109261283D01*
X119056865Y-109261283D01*
X119224918Y-109242348D01*
X119224921Y-109242347D01*
X119384552Y-109186490D01*
X119384554Y-109186488D01*
X119384556Y-109186488D01*
X119384559Y-109186486D01*
X119527746Y-109096515D01*
X119527747Y-109096514D01*
X119527752Y-109096511D01*
X119647339Y-108976924D01*
X119647343Y-108976918D01*
X119737314Y-108833731D01*
X119737316Y-108833728D01*
X119737316Y-108833726D01*
X119737318Y-108833724D01*
X119793175Y-108674093D01*
X119793175Y-108674091D01*
X119793176Y-108674089D01*
X119810282Y-108522266D01*
X119837348Y-108457852D01*
X119894943Y-108418297D01*
X119919619Y-108412929D01*
X120064818Y-108396569D01*
X120064820Y-108396568D01*
X120064822Y-108396568D01*
X120224453Y-108340711D01*
X120224455Y-108340709D01*
X120224457Y-108340709D01*
X120224460Y-108340707D01*
X120367647Y-108250736D01*
X120367648Y-108250735D01*
X120367653Y-108250732D01*
X120472836Y-108145549D01*
X134513449Y-108145549D01*
X134532383Y-108313603D01*
X134588243Y-108473241D01*
X134588245Y-108473244D01*
X134678216Y-108616431D01*
X134678221Y-108616437D01*
X134797807Y-108736023D01*
X134797813Y-108736028D01*
X134941000Y-108825999D01*
X134941003Y-108826001D01*
X134941007Y-108826002D01*
X134941008Y-108826003D01*
X135013611Y-108851407D01*
X135100641Y-108881861D01*
X135268695Y-108900796D01*
X135268698Y-108900796D01*
X135268701Y-108900796D01*
X135436754Y-108881861D01*
X135436757Y-108881860D01*
X135596388Y-108826003D01*
X135596390Y-108826001D01*
X135596392Y-108826001D01*
X135596395Y-108825999D01*
X135739582Y-108736028D01*
X135739583Y-108736027D01*
X135739588Y-108736024D01*
X135859175Y-108616437D01*
X135871540Y-108596759D01*
X135949150Y-108473244D01*
X135949152Y-108473241D01*
X135949152Y-108473239D01*
X135949154Y-108473237D01*
X136005011Y-108313606D01*
X136005011Y-108313605D01*
X136005012Y-108313603D01*
X136023947Y-108145549D01*
X136023947Y-108145544D01*
X136005012Y-107977490D01*
X135949152Y-107817852D01*
X135949150Y-107817849D01*
X135859179Y-107674662D01*
X135859174Y-107674656D01*
X135739588Y-107555070D01*
X135739582Y-107555065D01*
X135596395Y-107465094D01*
X135596392Y-107465092D01*
X135436754Y-107409232D01*
X135268701Y-107390298D01*
X135268695Y-107390298D01*
X135100641Y-107409232D01*
X134941003Y-107465092D01*
X134941000Y-107465094D01*
X134797813Y-107555065D01*
X134797807Y-107555070D01*
X134678221Y-107674656D01*
X134678216Y-107674662D01*
X134588245Y-107817849D01*
X134588243Y-107817852D01*
X134532383Y-107977490D01*
X134513449Y-108145544D01*
X134513449Y-108145549D01*
X120472836Y-108145549D01*
X120487240Y-108131145D01*
X120577215Y-107987952D01*
X120577217Y-107987949D01*
X120577217Y-107987947D01*
X120577219Y-107987945D01*
X120633076Y-107828314D01*
X120633076Y-107828313D01*
X120633077Y-107828311D01*
X120652012Y-107660257D01*
X120652012Y-107660252D01*
X120633076Y-107492195D01*
X120633076Y-107492193D01*
X120590502Y-107370524D01*
X120586940Y-107300745D01*
X120621668Y-107240118D01*
X120683662Y-107207890D01*
X120748498Y-107212528D01*
X120836938Y-107243475D01*
X121004996Y-107262411D01*
X121004999Y-107262411D01*
X121005002Y-107262411D01*
X121173055Y-107243476D01*
X121182652Y-107240118D01*
X121332689Y-107187618D01*
X121332691Y-107187616D01*
X121332693Y-107187616D01*
X121332696Y-107187614D01*
X121475883Y-107097643D01*
X121475884Y-107097642D01*
X121475889Y-107097639D01*
X121595476Y-106978052D01*
X121598670Y-106972969D01*
X121685451Y-106834859D01*
X121685453Y-106834856D01*
X121685453Y-106834854D01*
X121685455Y-106834852D01*
X121741312Y-106675221D01*
X121741312Y-106675220D01*
X121741313Y-106675218D01*
X121760248Y-106507164D01*
X121760248Y-106507159D01*
X121741313Y-106339105D01*
X121687742Y-106186009D01*
X121685455Y-106179472D01*
X121685454Y-106179471D01*
X121685453Y-106179467D01*
X121685451Y-106179464D01*
X121595480Y-106036277D01*
X121595475Y-106036271D01*
X121559206Y-106000002D01*
X123844751Y-106000002D01*
X123863685Y-106168056D01*
X123919545Y-106327694D01*
X123919547Y-106327697D01*
X124009518Y-106470884D01*
X124009523Y-106470890D01*
X124129109Y-106590476D01*
X124129115Y-106590481D01*
X124272302Y-106680452D01*
X124272305Y-106680454D01*
X124272309Y-106680455D01*
X124272310Y-106680456D01*
X124431941Y-106736313D01*
X124431944Y-106736314D01*
X124495229Y-106743444D01*
X124559644Y-106770510D01*
X124599199Y-106828104D01*
X124604566Y-106852765D01*
X124604675Y-106853738D01*
X124604675Y-106853740D01*
X124604676Y-106853741D01*
X124608381Y-106864331D01*
X124660533Y-107013374D01*
X124660536Y-107013379D01*
X124750507Y-107156566D01*
X124750512Y-107156572D01*
X124870098Y-107276158D01*
X124870104Y-107276163D01*
X125013291Y-107366134D01*
X125013294Y-107366136D01*
X125013298Y-107366137D01*
X125013299Y-107366138D01*
X125064646Y-107384105D01*
X125172932Y-107421996D01*
X125340986Y-107440931D01*
X125340989Y-107440931D01*
X125340992Y-107440931D01*
X125509045Y-107421996D01*
X125509048Y-107421995D01*
X125668679Y-107366138D01*
X125668681Y-107366136D01*
X125668683Y-107366136D01*
X125668686Y-107366134D01*
X125811873Y-107276163D01*
X125811874Y-107276162D01*
X125811879Y-107276159D01*
X125931466Y-107156572D01*
X125934555Y-107151656D01*
X126021441Y-107013379D01*
X126021442Y-107013375D01*
X126021445Y-107013372D01*
X126052320Y-106925135D01*
X126093040Y-106868360D01*
X126157993Y-106842612D01*
X126226554Y-106856068D01*
X126257042Y-106878409D01*
X126289109Y-106910476D01*
X126289115Y-106910481D01*
X126432302Y-107000452D01*
X126432305Y-107000454D01*
X126432309Y-107000455D01*
X126432310Y-107000456D01*
X126469222Y-107013372D01*
X126591943Y-107056314D01*
X126759997Y-107075249D01*
X126760000Y-107075249D01*
X126760003Y-107075249D01*
X126928056Y-107056314D01*
X126928059Y-107056313D01*
X127087690Y-107000456D01*
X127087692Y-107000454D01*
X127087694Y-107000454D01*
X127087697Y-107000452D01*
X127230884Y-106910481D01*
X127230885Y-106910480D01*
X127230890Y-106910477D01*
X127350477Y-106790890D01*
X127350481Y-106790884D01*
X127359527Y-106776488D01*
X130735534Y-106776488D01*
X130754468Y-106944542D01*
X130810328Y-107104180D01*
X130810330Y-107104183D01*
X130900301Y-107247370D01*
X130900306Y-107247376D01*
X131019892Y-107366962D01*
X131019898Y-107366967D01*
X131163085Y-107456938D01*
X131163088Y-107456940D01*
X131163092Y-107456941D01*
X131163093Y-107456942D01*
X131228161Y-107479710D01*
X131322726Y-107512800D01*
X131490780Y-107531735D01*
X131490783Y-107531735D01*
X131490786Y-107531735D01*
X131658839Y-107512800D01*
X131665501Y-107510469D01*
X131818473Y-107456942D01*
X131818475Y-107456940D01*
X131818477Y-107456940D01*
X131818480Y-107456938D01*
X131961667Y-107366967D01*
X131961668Y-107366966D01*
X131961673Y-107366963D01*
X132081260Y-107247376D01*
X132085417Y-107240760D01*
X132171235Y-107104183D01*
X132171237Y-107104180D01*
X132171237Y-107104178D01*
X132171239Y-107104176D01*
X132227096Y-106944545D01*
X132227096Y-106944544D01*
X132227097Y-106944542D01*
X132246032Y-106776488D01*
X132246032Y-106776483D01*
X132231249Y-106645277D01*
X133143374Y-106645277D01*
X133162308Y-106813331D01*
X133218168Y-106972969D01*
X133218170Y-106972972D01*
X133308141Y-107116159D01*
X133308146Y-107116165D01*
X133427732Y-107235751D01*
X133427738Y-107235756D01*
X133570925Y-107325727D01*
X133570928Y-107325729D01*
X133570932Y-107325730D01*
X133570933Y-107325731D01*
X133628427Y-107345849D01*
X133730566Y-107381589D01*
X133898620Y-107400524D01*
X133898623Y-107400524D01*
X133898626Y-107400524D01*
X134066679Y-107381589D01*
X134066682Y-107381588D01*
X134226313Y-107325731D01*
X134226315Y-107325729D01*
X134226317Y-107325729D01*
X134226320Y-107325727D01*
X134369507Y-107235756D01*
X134369508Y-107235755D01*
X134369513Y-107235752D01*
X134489100Y-107116165D01*
X134500741Y-107097639D01*
X134579075Y-106972972D01*
X134579077Y-106972969D01*
X134579077Y-106972967D01*
X134579079Y-106972965D01*
X134634936Y-106813334D01*
X134634936Y-106813333D01*
X134634937Y-106813331D01*
X134653872Y-106645277D01*
X134653872Y-106645272D01*
X134634937Y-106477218D01*
X134582615Y-106327690D01*
X134579079Y-106317585D01*
X134579078Y-106317584D01*
X134579077Y-106317580D01*
X134579075Y-106317577D01*
X134489104Y-106174390D01*
X134489099Y-106174384D01*
X134369513Y-106054798D01*
X134369507Y-106054793D01*
X134226320Y-105964822D01*
X134226317Y-105964820D01*
X134066679Y-105908960D01*
X133898626Y-105890026D01*
X133898620Y-105890026D01*
X133730566Y-105908960D01*
X133570928Y-105964820D01*
X133570925Y-105964822D01*
X133427738Y-106054793D01*
X133427732Y-106054798D01*
X133308146Y-106174384D01*
X133308141Y-106174390D01*
X133218170Y-106317577D01*
X133218168Y-106317580D01*
X133162308Y-106477218D01*
X133143374Y-106645272D01*
X133143374Y-106645277D01*
X132231249Y-106645277D01*
X132227097Y-106608429D01*
X132184978Y-106488059D01*
X132171239Y-106448796D01*
X132171238Y-106448795D01*
X132171237Y-106448791D01*
X132171235Y-106448788D01*
X132081264Y-106305601D01*
X132081259Y-106305595D01*
X131961673Y-106186009D01*
X131961667Y-106186004D01*
X131818480Y-106096033D01*
X131818477Y-106096031D01*
X131658839Y-106040171D01*
X131490786Y-106021237D01*
X131490780Y-106021237D01*
X131322726Y-106040171D01*
X131163088Y-106096031D01*
X131163085Y-106096033D01*
X131019898Y-106186004D01*
X131019892Y-106186009D01*
X130900306Y-106305595D01*
X130900301Y-106305601D01*
X130810330Y-106448788D01*
X130810328Y-106448791D01*
X130754468Y-106608429D01*
X130735534Y-106776483D01*
X130735534Y-106776488D01*
X127359527Y-106776488D01*
X127440452Y-106647697D01*
X127440454Y-106647694D01*
X127440454Y-106647692D01*
X127440456Y-106647690D01*
X127496313Y-106488059D01*
X127496313Y-106488058D01*
X127496314Y-106488056D01*
X127515249Y-106320002D01*
X127515249Y-106319997D01*
X127496314Y-106151943D01*
X127457203Y-106040171D01*
X127440456Y-105992310D01*
X127440455Y-105992309D01*
X127440454Y-105992305D01*
X127440452Y-105992302D01*
X127350481Y-105849115D01*
X127350476Y-105849109D01*
X127254354Y-105752987D01*
X140357987Y-105752987D01*
X140376338Y-105939318D01*
X140376339Y-105939320D01*
X140430688Y-106118484D01*
X140430689Y-106118487D01*
X140462333Y-106177689D01*
X140476574Y-106246092D01*
X140462334Y-106294591D01*
X140435587Y-106344633D01*
X140435585Y-106344637D01*
X140381236Y-106523801D01*
X140381235Y-106523803D01*
X140362884Y-106710135D01*
X140381235Y-106896466D01*
X140381236Y-106896468D01*
X140435587Y-107075637D01*
X140523845Y-107240758D01*
X140523847Y-107240761D01*
X140642625Y-107385492D01*
X140787356Y-107504270D01*
X140787359Y-107504272D01*
X140917717Y-107573949D01*
X140952482Y-107592531D01*
X141131649Y-107646881D01*
X141131651Y-107646882D01*
X141150002Y-107648689D01*
X141317983Y-107665234D01*
X141504314Y-107646882D01*
X141683484Y-107592531D01*
X141848608Y-107504271D01*
X141993340Y-107385492D01*
X142112119Y-107240760D01*
X142200379Y-107075636D01*
X142254730Y-106896466D01*
X142273082Y-106710135D01*
X142254730Y-106523804D01*
X142200379Y-106344634D01*
X142168733Y-106285429D01*
X142154493Y-106217032D01*
X142168735Y-106168528D01*
X142195482Y-106118488D01*
X142249833Y-105939318D01*
X142268185Y-105752987D01*
X142249833Y-105566656D01*
X142195482Y-105387486D01*
X142170142Y-105340077D01*
X142120437Y-105247084D01*
X142106195Y-105178681D01*
X142131195Y-105113437D01*
X142171338Y-105079275D01*
X142330625Y-104994136D01*
X142475357Y-104875357D01*
X142594136Y-104730625D01*
X142682396Y-104565501D01*
X142736747Y-104386331D01*
X142755099Y-104200000D01*
X142736747Y-104013669D01*
X142682396Y-103834499D01*
X142653371Y-103780197D01*
X142594137Y-103669376D01*
X142594135Y-103669373D01*
X142475357Y-103524642D01*
X142330626Y-103405864D01*
X142330623Y-103405862D01*
X142165502Y-103317604D01*
X141986333Y-103263253D01*
X141986331Y-103263252D01*
X141800000Y-103244901D01*
X141613668Y-103263252D01*
X141613666Y-103263253D01*
X141434497Y-103317604D01*
X141269376Y-103405862D01*
X141269373Y-103405864D01*
X141124642Y-103524642D01*
X141005864Y-103669373D01*
X141005862Y-103669376D01*
X140917604Y-103834497D01*
X140863253Y-104013666D01*
X140863252Y-104013668D01*
X140844901Y-104200000D01*
X140863252Y-104386331D01*
X140863253Y-104386333D01*
X140917604Y-104565502D01*
X140992648Y-104705901D01*
X141006890Y-104774304D01*
X140981890Y-104839548D01*
X140941744Y-104873712D01*
X140782459Y-104958852D01*
X140637728Y-105077629D01*
X140518950Y-105222360D01*
X140518948Y-105222363D01*
X140430690Y-105387484D01*
X140376339Y-105566653D01*
X140376338Y-105566655D01*
X140357987Y-105752987D01*
X127254354Y-105752987D01*
X127230890Y-105729523D01*
X127230884Y-105729518D01*
X127087697Y-105639547D01*
X127087694Y-105639545D01*
X126928056Y-105583685D01*
X126760003Y-105564751D01*
X126759996Y-105564751D01*
X126693508Y-105572242D01*
X126624686Y-105560187D01*
X126573307Y-105512838D01*
X126555683Y-105445227D01*
X126556405Y-105435138D01*
X126559075Y-105411448D01*
X126568267Y-105329862D01*
X126571194Y-105303889D01*
X126571194Y-105303884D01*
X126552259Y-105135830D01*
X126497001Y-104977912D01*
X126496401Y-104976197D01*
X126496400Y-104976196D01*
X126496399Y-104976192D01*
X126496397Y-104976189D01*
X126406426Y-104833002D01*
X126406421Y-104832996D01*
X126286835Y-104713410D01*
X126233910Y-104680155D01*
X126187619Y-104627820D01*
X126176971Y-104558766D01*
X126194889Y-104509188D01*
X126211611Y-104482577D01*
X126267468Y-104322946D01*
X126286404Y-104154887D01*
X126286404Y-104154884D01*
X126267469Y-103986830D01*
X126225216Y-103866077D01*
X126211611Y-103827197D01*
X126211610Y-103827196D01*
X126211609Y-103827192D01*
X126211607Y-103827189D01*
X126121636Y-103684002D01*
X126121631Y-103683996D01*
X126002045Y-103564410D01*
X126002039Y-103564405D01*
X125983686Y-103552873D01*
X126523725Y-103552873D01*
X126542659Y-103720927D01*
X126598519Y-103880565D01*
X126598521Y-103880568D01*
X126688492Y-104023755D01*
X126688497Y-104023761D01*
X126808083Y-104143347D01*
X126808089Y-104143352D01*
X126951276Y-104233323D01*
X126951279Y-104233325D01*
X126951283Y-104233326D01*
X126951284Y-104233327D01*
X127023887Y-104258731D01*
X127110917Y-104289185D01*
X127278971Y-104308120D01*
X127278974Y-104308120D01*
X127278977Y-104308120D01*
X127447030Y-104289185D01*
X127447033Y-104289184D01*
X127606664Y-104233327D01*
X127606666Y-104233325D01*
X127606668Y-104233325D01*
X127606671Y-104233323D01*
X127749858Y-104143352D01*
X127749859Y-104143351D01*
X127749864Y-104143348D01*
X127869451Y-104023761D01*
X127884348Y-104000053D01*
X127959426Y-103880568D01*
X127959428Y-103880565D01*
X127959428Y-103880563D01*
X127959430Y-103880561D01*
X128015287Y-103720930D01*
X128015287Y-103720929D01*
X128015288Y-103720927D01*
X128034223Y-103552873D01*
X128034223Y-103552868D01*
X128031553Y-103529171D01*
X136986825Y-103529171D01*
X137005759Y-103697225D01*
X137061619Y-103856863D01*
X137061621Y-103856866D01*
X137151592Y-104000053D01*
X137151597Y-104000059D01*
X137271183Y-104119645D01*
X137271189Y-104119650D01*
X137414376Y-104209621D01*
X137414379Y-104209623D01*
X137414383Y-104209624D01*
X137414384Y-104209625D01*
X137435455Y-104216998D01*
X137574017Y-104265483D01*
X137742071Y-104284418D01*
X137742074Y-104284418D01*
X137742077Y-104284418D01*
X137910130Y-104265483D01*
X137910133Y-104265482D01*
X138069764Y-104209625D01*
X138069766Y-104209623D01*
X138069768Y-104209623D01*
X138069771Y-104209621D01*
X138212958Y-104119650D01*
X138212959Y-104119649D01*
X138212964Y-104119646D01*
X138332551Y-104000059D01*
X138332555Y-104000053D01*
X138422526Y-103856866D01*
X138422528Y-103856863D01*
X138422528Y-103856861D01*
X138422530Y-103856859D01*
X138478387Y-103697228D01*
X138478387Y-103697226D01*
X138478388Y-103697224D01*
X138492507Y-103571912D01*
X138519573Y-103507498D01*
X138549755Y-103480801D01*
X138550585Y-103480279D01*
X138550589Y-103480278D01*
X138693789Y-103390299D01*
X138813376Y-103270712D01*
X138818063Y-103263253D01*
X138903351Y-103127519D01*
X138903353Y-103127516D01*
X138903353Y-103127514D01*
X138903355Y-103127512D01*
X138959212Y-102967881D01*
X138959212Y-102967880D01*
X138959213Y-102967878D01*
X138978148Y-102799824D01*
X138978148Y-102799819D01*
X138959213Y-102631765D01*
X138903353Y-102472127D01*
X138903351Y-102472124D01*
X138813380Y-102328937D01*
X138813375Y-102328931D01*
X138693789Y-102209345D01*
X138693783Y-102209340D01*
X138550596Y-102119369D01*
X138550593Y-102119367D01*
X138390955Y-102063507D01*
X138222902Y-102044573D01*
X138222896Y-102044573D01*
X138054842Y-102063507D01*
X137895204Y-102119367D01*
X137895201Y-102119369D01*
X137752014Y-102209340D01*
X137752008Y-102209345D01*
X137632422Y-102328931D01*
X137632417Y-102328937D01*
X137542446Y-102472124D01*
X137542444Y-102472127D01*
X137486584Y-102631766D01*
X137472465Y-102757078D01*
X137445398Y-102821492D01*
X137415218Y-102848187D01*
X137271186Y-102938690D01*
X137271183Y-102938692D01*
X137151597Y-103058278D01*
X137151592Y-103058284D01*
X137061621Y-103201471D01*
X137061619Y-103201474D01*
X137005759Y-103361112D01*
X136986825Y-103529166D01*
X136986825Y-103529171D01*
X128031553Y-103529171D01*
X128015288Y-103384814D01*
X127972752Y-103263253D01*
X127959430Y-103225181D01*
X127959429Y-103225180D01*
X127959428Y-103225176D01*
X127959426Y-103225173D01*
X127869455Y-103081986D01*
X127869450Y-103081980D01*
X127749864Y-102962394D01*
X127749858Y-102962389D01*
X127606671Y-102872418D01*
X127606668Y-102872416D01*
X127447030Y-102816556D01*
X127278977Y-102797622D01*
X127278971Y-102797622D01*
X127110917Y-102816556D01*
X126951279Y-102872416D01*
X126951276Y-102872418D01*
X126808089Y-102962389D01*
X126808083Y-102962394D01*
X126688497Y-103081980D01*
X126688492Y-103081986D01*
X126598521Y-103225173D01*
X126598519Y-103225176D01*
X126542659Y-103384814D01*
X126523725Y-103552868D01*
X126523725Y-103552873D01*
X125983686Y-103552873D01*
X125858852Y-103474434D01*
X125858849Y-103474432D01*
X125699211Y-103418572D01*
X125531158Y-103399638D01*
X125531152Y-103399638D01*
X125363098Y-103418572D01*
X125203460Y-103474432D01*
X125203457Y-103474434D01*
X125060270Y-103564405D01*
X125060264Y-103564410D01*
X124940678Y-103683996D01*
X124940673Y-103684002D01*
X124850702Y-103827189D01*
X124850700Y-103827192D01*
X124794840Y-103986830D01*
X124775906Y-104154884D01*
X124775906Y-104154889D01*
X124794840Y-104322943D01*
X124850700Y-104482581D01*
X124850702Y-104482584D01*
X124940673Y-104625771D01*
X124940678Y-104625777D01*
X125060266Y-104745365D01*
X125113189Y-104778619D01*
X125159479Y-104830954D01*
X125170127Y-104900007D01*
X125152212Y-104949581D01*
X125135489Y-104976196D01*
X125079631Y-105135830D01*
X125071362Y-105209213D01*
X125044295Y-105273627D01*
X124986699Y-105313181D01*
X124916862Y-105315318D01*
X124907192Y-105312371D01*
X124876304Y-105301563D01*
X124768056Y-105263685D01*
X124600003Y-105244751D01*
X124599997Y-105244751D01*
X124431943Y-105263685D01*
X124272305Y-105319545D01*
X124272302Y-105319547D01*
X124129115Y-105409518D01*
X124129109Y-105409523D01*
X124009523Y-105529109D01*
X124009518Y-105529115D01*
X123919547Y-105672302D01*
X123919545Y-105672305D01*
X123863685Y-105831943D01*
X123844751Y-105999997D01*
X123844751Y-106000002D01*
X121559206Y-106000002D01*
X121527445Y-105968241D01*
X121493960Y-105906918D01*
X121498944Y-105837226D01*
X121527447Y-105792877D01*
X121544055Y-105776269D01*
X121544056Y-105776268D01*
X121634035Y-105633068D01*
X121689892Y-105473437D01*
X121689892Y-105473436D01*
X121689893Y-105473434D01*
X121708828Y-105305380D01*
X121708828Y-105305375D01*
X121689893Y-105137321D01*
X121639790Y-104994136D01*
X121634035Y-104977688D01*
X121634034Y-104977687D01*
X121634033Y-104977683D01*
X121634031Y-104977680D01*
X121544060Y-104834493D01*
X121544055Y-104834487D01*
X121510087Y-104800519D01*
X122545268Y-104800519D01*
X122564202Y-104968573D01*
X122620062Y-105128211D01*
X122620064Y-105128214D01*
X122710035Y-105271401D01*
X122710040Y-105271407D01*
X122829626Y-105390993D01*
X122829632Y-105390998D01*
X122972819Y-105480969D01*
X122972822Y-105480971D01*
X122972826Y-105480972D01*
X122972827Y-105480973D01*
X122992372Y-105487812D01*
X123132460Y-105536831D01*
X123300514Y-105555766D01*
X123300517Y-105555766D01*
X123300520Y-105555766D01*
X123468573Y-105536831D01*
X123490624Y-105529115D01*
X123628207Y-105480973D01*
X123628209Y-105480971D01*
X123628211Y-105480971D01*
X123628214Y-105480969D01*
X123771401Y-105390998D01*
X123771402Y-105390997D01*
X123771407Y-105390994D01*
X123890994Y-105271407D01*
X123907743Y-105244751D01*
X123980969Y-105128214D01*
X123980971Y-105128211D01*
X123980971Y-105128209D01*
X123980973Y-105128207D01*
X124036830Y-104968576D01*
X124036830Y-104968575D01*
X124036831Y-104968573D01*
X124055766Y-104800519D01*
X124055766Y-104800514D01*
X124036831Y-104632460D01*
X123984386Y-104482581D01*
X123980973Y-104472827D01*
X123980972Y-104472826D01*
X123980971Y-104472822D01*
X123980969Y-104472819D01*
X123890998Y-104329632D01*
X123890993Y-104329626D01*
X123771407Y-104210040D01*
X123771401Y-104210035D01*
X123628214Y-104120064D01*
X123628211Y-104120062D01*
X123468573Y-104064202D01*
X123300520Y-104045268D01*
X123300514Y-104045268D01*
X123132460Y-104064202D01*
X122972822Y-104120062D01*
X122972819Y-104120064D01*
X122829632Y-104210035D01*
X122829626Y-104210040D01*
X122710040Y-104329626D01*
X122710035Y-104329632D01*
X122620064Y-104472819D01*
X122620062Y-104472822D01*
X122564202Y-104632460D01*
X122545268Y-104800514D01*
X122545268Y-104800519D01*
X121510087Y-104800519D01*
X121424469Y-104714901D01*
X121424463Y-104714896D01*
X121281276Y-104624925D01*
X121281273Y-104624923D01*
X121121635Y-104569063D01*
X120953582Y-104550129D01*
X120953576Y-104550129D01*
X120785522Y-104569063D01*
X120625884Y-104624923D01*
X120625881Y-104624925D01*
X120482694Y-104714896D01*
X120482688Y-104714901D01*
X120363102Y-104834487D01*
X120363097Y-104834493D01*
X120273126Y-104977680D01*
X120273124Y-104977683D01*
X120217264Y-105137321D01*
X120198330Y-105305375D01*
X120198330Y-105305380D01*
X120217264Y-105473434D01*
X120273124Y-105633072D01*
X120273126Y-105633075D01*
X120363097Y-105776262D01*
X120363102Y-105776268D01*
X120431132Y-105844298D01*
X120464617Y-105905621D01*
X120459633Y-105975313D01*
X120431134Y-106019658D01*
X120414525Y-106036267D01*
X120414519Y-106036274D01*
X120324546Y-106179464D01*
X120324544Y-106179467D01*
X120268684Y-106339105D01*
X120249750Y-106507159D01*
X120249750Y-106507164D01*
X120268685Y-106675219D01*
X120311260Y-106796893D01*
X120314821Y-106866672D01*
X120280092Y-106927299D01*
X120218099Y-106959526D01*
X120153263Y-106954888D01*
X120064823Y-106923941D01*
X119896766Y-106905006D01*
X119896760Y-106905006D01*
X119728706Y-106923940D01*
X119569068Y-106979800D01*
X119569065Y-106979802D01*
X119425875Y-107069775D01*
X119425164Y-107070343D01*
X119424617Y-107070565D01*
X119419977Y-107073482D01*
X119419466Y-107072669D01*
X119360477Y-107096750D01*
X119291782Y-107083992D01*
X119240889Y-107036120D01*
X119223957Y-106968333D01*
X119224634Y-106959510D01*
X119234530Y-106871682D01*
X119234530Y-106871677D01*
X119215595Y-106703623D01*
X119169368Y-106571515D01*
X119159737Y-106543990D01*
X119159736Y-106543989D01*
X119159735Y-106543985D01*
X119159733Y-106543982D01*
X119069762Y-106400795D01*
X119069757Y-106400789D01*
X119004437Y-106335469D01*
X118970952Y-106274146D01*
X118968898Y-106233901D01*
X118970000Y-106224127D01*
X118970000Y-106224125D01*
X118969201Y-106217032D01*
X118951065Y-106056068D01*
X118899590Y-105908962D01*
X118895207Y-105896435D01*
X118895206Y-105896434D01*
X118895205Y-105896430D01*
X118895203Y-105896427D01*
X118805232Y-105753240D01*
X118805227Y-105753234D01*
X118685641Y-105633648D01*
X118685635Y-105633643D01*
X118542448Y-105543672D01*
X118542445Y-105543670D01*
X118382807Y-105487810D01*
X118214754Y-105468876D01*
X118214748Y-105468876D01*
X118046694Y-105487810D01*
X117887056Y-105543670D01*
X117887053Y-105543672D01*
X117743866Y-105633643D01*
X117743860Y-105633648D01*
X117624274Y-105753234D01*
X117624269Y-105753240D01*
X117534298Y-105896427D01*
X117534296Y-105896430D01*
X117478436Y-106056068D01*
X117459502Y-106224122D01*
X117459502Y-106224127D01*
X116027042Y-106224127D01*
X115935322Y-106039929D01*
X115804037Y-105866079D01*
X115680033Y-105753035D01*
X115643755Y-105693328D01*
X115645515Y-105623480D01*
X115680033Y-105569766D01*
X115804037Y-105456723D01*
X115860465Y-105381998D01*
X115916573Y-105340362D01*
X115986285Y-105335669D01*
X116000370Y-105339680D01*
X116067745Y-105363256D01*
X116131943Y-105385720D01*
X116299997Y-105404655D01*
X116300000Y-105404655D01*
X116300003Y-105404655D01*
X116468056Y-105385720D01*
X116478690Y-105381999D01*
X116627690Y-105329862D01*
X116627692Y-105329860D01*
X116627694Y-105329860D01*
X116627697Y-105329858D01*
X116770884Y-105239887D01*
X116770885Y-105239886D01*
X116770890Y-105239883D01*
X116890477Y-105120296D01*
X116910858Y-105087860D01*
X116980452Y-104977103D01*
X116980454Y-104977100D01*
X116980454Y-104977098D01*
X116980456Y-104977096D01*
X117036313Y-104817465D01*
X117036313Y-104817464D01*
X117036314Y-104817462D01*
X117055249Y-104649408D01*
X117055249Y-104649403D01*
X117036314Y-104481349D01*
X117003066Y-104386331D01*
X116980456Y-104321716D01*
X116980455Y-104321715D01*
X116980454Y-104321711D01*
X116980452Y-104321708D01*
X116890481Y-104178521D01*
X116890476Y-104178515D01*
X116770890Y-104058929D01*
X116770884Y-104058924D01*
X116627697Y-103968953D01*
X116627694Y-103968951D01*
X116468056Y-103913091D01*
X116300003Y-103894157D01*
X116299997Y-103894157D01*
X116131942Y-103913092D01*
X115986045Y-103964143D01*
X115916266Y-103967704D01*
X115855639Y-103932975D01*
X115846137Y-103921828D01*
X115825240Y-103894157D01*
X115804037Y-103866079D01*
X115793923Y-103856859D01*
X115679665Y-103752699D01*
X115643383Y-103692988D01*
X115645144Y-103623141D01*
X115679666Y-103569424D01*
X115803664Y-103456386D01*
X115934894Y-103282609D01*
X116031958Y-103087681D01*
X116082115Y-102911401D01*
X115247296Y-102911401D01*
X115259251Y-102899446D01*
X115316775Y-102786549D01*
X115336596Y-102661401D01*
X115324372Y-102584222D01*
X118244474Y-102584222D01*
X118263408Y-102752276D01*
X118319268Y-102911914D01*
X118319270Y-102911917D01*
X118409241Y-103055104D01*
X118409246Y-103055110D01*
X118528832Y-103174696D01*
X118528838Y-103174701D01*
X118672025Y-103264672D01*
X118672028Y-103264674D01*
X118672032Y-103264675D01*
X118672033Y-103264676D01*
X118723283Y-103282609D01*
X118831666Y-103320534D01*
X118999720Y-103339469D01*
X118999723Y-103339469D01*
X118999726Y-103339469D01*
X119167779Y-103320534D01*
X119167782Y-103320533D01*
X119327413Y-103264676D01*
X119327415Y-103264674D01*
X119327417Y-103264674D01*
X119327420Y-103264672D01*
X119470607Y-103174701D01*
X119470608Y-103174700D01*
X119470613Y-103174697D01*
X119590200Y-103055110D01*
X119606637Y-103028951D01*
X119680175Y-102911917D01*
X119680177Y-102911914D01*
X119680177Y-102911912D01*
X119680179Y-102911910D01*
X119736036Y-102752279D01*
X119736036Y-102752278D01*
X119736037Y-102752276D01*
X119754972Y-102584222D01*
X119754972Y-102584217D01*
X119736037Y-102416163D01*
X119680177Y-102256525D01*
X119680175Y-102256522D01*
X119590204Y-102113335D01*
X119590199Y-102113329D01*
X119470613Y-101993743D01*
X119470607Y-101993738D01*
X119327420Y-101903767D01*
X119327417Y-101903765D01*
X119167779Y-101847905D01*
X118999726Y-101828971D01*
X118999720Y-101828971D01*
X118831666Y-101847905D01*
X118672028Y-101903765D01*
X118672025Y-101903767D01*
X118528838Y-101993738D01*
X118528832Y-101993743D01*
X118409246Y-102113329D01*
X118409241Y-102113335D01*
X118319270Y-102256522D01*
X118319268Y-102256525D01*
X118263408Y-102416163D01*
X118244474Y-102584217D01*
X118244474Y-102584222D01*
X115324372Y-102584222D01*
X115316775Y-102536253D01*
X115259251Y-102423356D01*
X115247296Y-102411401D01*
X116082115Y-102411401D01*
X116082115Y-102411400D01*
X116031958Y-102235120D01*
X115934894Y-102040192D01*
X115803664Y-101866415D01*
X115642741Y-101719715D01*
X115517887Y-101642408D01*
X120773682Y-101642408D01*
X120792616Y-101810462D01*
X120848476Y-101970100D01*
X120848478Y-101970103D01*
X120938449Y-102113290D01*
X120938454Y-102113296D01*
X121058040Y-102232882D01*
X121058046Y-102232887D01*
X121201233Y-102322858D01*
X121201236Y-102322860D01*
X121201240Y-102322861D01*
X121201241Y-102322862D01*
X121273844Y-102348266D01*
X121360874Y-102378720D01*
X121528928Y-102397655D01*
X121528931Y-102397655D01*
X121528934Y-102397655D01*
X121696987Y-102378720D01*
X121696990Y-102378719D01*
X121856621Y-102322862D01*
X121856623Y-102322860D01*
X121856625Y-102322860D01*
X121856628Y-102322858D01*
X121999815Y-102232887D01*
X121999816Y-102232886D01*
X121999821Y-102232883D01*
X122119408Y-102113296D01*
X122119412Y-102113290D01*
X122209383Y-101970103D01*
X122209385Y-101970100D01*
X122209385Y-101970098D01*
X122209387Y-101970096D01*
X122265244Y-101810465D01*
X122265244Y-101810464D01*
X122265245Y-101810462D01*
X122284180Y-101642408D01*
X122284180Y-101642403D01*
X122265245Y-101474349D01*
X122209385Y-101314711D01*
X122209383Y-101314708D01*
X122119412Y-101171521D01*
X122119407Y-101171515D01*
X121999821Y-101051929D01*
X121999815Y-101051924D01*
X121856628Y-100961953D01*
X121856625Y-100961951D01*
X121696987Y-100906091D01*
X121528934Y-100887157D01*
X121528928Y-100887157D01*
X121360874Y-100906091D01*
X121201236Y-100961951D01*
X121201233Y-100961953D01*
X121058046Y-101051924D01*
X121058040Y-101051929D01*
X120938454Y-101171515D01*
X120938449Y-101171521D01*
X120848478Y-101314708D01*
X120848476Y-101314711D01*
X120792616Y-101474349D01*
X120773682Y-101642403D01*
X120773682Y-101642408D01*
X115517887Y-101642408D01*
X115457597Y-101605078D01*
X115457595Y-101605077D01*
X115254541Y-101526414D01*
X115254531Y-101526411D01*
X115181611Y-101512779D01*
X115181610Y-101512780D01*
X115181609Y-102345714D01*
X115169655Y-102333760D01*
X115056758Y-102276236D01*
X114963091Y-102261401D01*
X114900129Y-102261401D01*
X114806462Y-102276236D01*
X114693565Y-102333760D01*
X114681610Y-102345714D01*
X114681610Y-101512780D01*
X114681608Y-101512779D01*
X114608688Y-101526411D01*
X114608678Y-101526414D01*
X114405624Y-101605077D01*
X114405622Y-101605078D01*
X114220479Y-101719715D01*
X114220478Y-101719715D01*
X114209497Y-101729726D01*
X114146692Y-101760341D01*
X114077305Y-101752141D01*
X114026696Y-101712398D01*
X113964156Y-101628855D01*
X113901490Y-101581943D01*
X113848945Y-101542607D01*
X113848938Y-101542603D01*
X113714092Y-101492309D01*
X113714093Y-101492309D01*
X113654493Y-101485902D01*
X113654491Y-101485901D01*
X113654483Y-101485901D01*
X113654474Y-101485901D01*
X112208739Y-101485901D01*
X112208733Y-101485902D01*
X112149126Y-101492309D01*
X112014281Y-101542603D01*
X112014274Y-101542607D01*
X111899065Y-101628853D01*
X111899062Y-101628856D01*
X111812816Y-101744065D01*
X111812812Y-101744072D01*
X111762518Y-101878918D01*
X111756111Y-101938517D01*
X111756110Y-101938536D01*
X111756110Y-103028951D01*
X111736425Y-103095990D01*
X111683621Y-103141745D01*
X111673066Y-103145992D01*
X111603918Y-103170188D01*
X111603910Y-103170192D01*
X111460722Y-103260164D01*
X111460715Y-103260169D01*
X111422590Y-103298295D01*
X111361267Y-103331780D01*
X111310721Y-103332231D01*
X111307135Y-103331517D01*
X111139155Y-103314973D01*
X111120805Y-103313166D01*
X111120804Y-103313166D01*
X110934473Y-103331517D01*
X110934471Y-103331518D01*
X110755302Y-103385869D01*
X110590181Y-103474127D01*
X110590178Y-103474129D01*
X110445447Y-103592907D01*
X110326669Y-103737638D01*
X110326667Y-103737641D01*
X110238409Y-103902762D01*
X110184058Y-104081931D01*
X110184057Y-104081933D01*
X110165706Y-104268264D01*
X110184057Y-104454596D01*
X110184058Y-104454598D01*
X110238409Y-104633767D01*
X110326667Y-104798888D01*
X110326669Y-104798891D01*
X110445447Y-104943622D01*
X110590178Y-105062400D01*
X110590181Y-105062402D01*
X110730346Y-105137321D01*
X110755304Y-105150661D01*
X110934471Y-105205011D01*
X110934473Y-105205012D01*
X110951179Y-105206657D01*
X111120805Y-105223364D01*
X111307136Y-105205012D01*
X111486306Y-105150661D01*
X111614022Y-105082396D01*
X111651423Y-105062405D01*
X111651424Y-105062403D01*
X111651430Y-105062401D01*
X111651434Y-105062397D01*
X111656486Y-105059022D01*
X111657536Y-105060593D01*
X111713735Y-105036706D01*
X111782606Y-105048477D01*
X111834180Y-105095614D01*
X111839126Y-105104596D01*
X111927898Y-105282873D01*
X112059184Y-105456725D01*
X112183182Y-105569764D01*
X112219464Y-105629475D01*
X112217703Y-105699323D01*
X112183182Y-105753038D01*
X112059184Y-105866076D01*
X111927898Y-106039928D01*
X111830794Y-106234938D01*
X111771174Y-106444482D01*
X111751074Y-106661400D01*
X111751074Y-106661401D01*
X111771174Y-106878319D01*
X111771174Y-106878321D01*
X111771175Y-106878324D01*
X111792959Y-106954888D01*
X111830794Y-107087865D01*
X111830795Y-107087866D01*
X111892157Y-107211098D01*
X111904418Y-107279883D01*
X111877545Y-107344378D01*
X111820069Y-107384105D01*
X111798854Y-107388754D01*
X111795349Y-107389553D01*
X111635708Y-107445414D01*
X111635705Y-107445416D01*
X111492518Y-107535387D01*
X111492516Y-107535389D01*
X111440581Y-107587323D01*
X111379257Y-107620807D01*
X111309565Y-107615821D01*
X111253633Y-107573949D01*
X111247907Y-107565612D01*
X111241280Y-107555065D01*
X111213259Y-107510470D01*
X111136319Y-107433530D01*
X111102834Y-107372207D01*
X111100000Y-107345849D01*
X111100000Y-106500000D01*
X111099999Y-106500000D01*
X107000000Y-106523567D01*
X106999999Y-106523568D01*
X106999999Y-108633937D01*
X106980314Y-108700977D01*
X106927510Y-108746731D01*
X106889884Y-108757157D01*
X106831943Y-108763686D01*
X106672305Y-108819545D01*
X106672302Y-108819547D01*
X106529115Y-108909518D01*
X106529109Y-108909523D01*
X106409523Y-109029109D01*
X106409518Y-109029115D01*
X106319547Y-109172302D01*
X106319545Y-109172305D01*
X106263685Y-109331943D01*
X106244751Y-109499997D01*
X106244751Y-109500002D01*
X106263685Y-109668056D01*
X106319545Y-109827694D01*
X106319547Y-109827697D01*
X106409518Y-109970884D01*
X106409523Y-109970890D01*
X106529110Y-110090477D01*
X106543079Y-110099254D01*
X106589368Y-110151586D01*
X106601104Y-110203574D01*
X106612421Y-112289004D01*
X106593101Y-112356149D01*
X106540546Y-112402190D01*
X106471442Y-112412509D01*
X106452433Y-112408339D01*
X106378003Y-112385761D01*
X106378001Y-112385760D01*
X106377999Y-112385760D01*
X106191672Y-112367409D01*
X106005340Y-112385760D01*
X106005338Y-112385761D01*
X105826169Y-112440112D01*
X105661048Y-112528370D01*
X105661045Y-112528372D01*
X105516314Y-112647150D01*
X105397536Y-112791881D01*
X105397534Y-112791884D01*
X105309276Y-112957005D01*
X105254925Y-113136174D01*
X105254924Y-113136176D01*
X105236573Y-113322507D01*
X105254924Y-113508839D01*
X105254925Y-113508841D01*
X105309276Y-113688010D01*
X105397534Y-113853131D01*
X105397536Y-113853134D01*
X105516314Y-113997865D01*
X105661045Y-114116643D01*
X105661048Y-114116645D01*
X105783507Y-114182100D01*
X105826171Y-114204904D01*
X105979694Y-114251475D01*
X106005338Y-114259254D01*
X106005340Y-114259255D01*
X106023692Y-114261062D01*
X106191672Y-114277607D01*
X106274181Y-114269480D01*
X106342824Y-114282498D01*
X106393535Y-114330563D01*
X106410210Y-114398414D01*
X106387555Y-114464508D01*
X106380017Y-114474119D01*
X105936447Y-114985663D01*
X105877656Y-115023416D01*
X105844371Y-115028417D01*
X104775552Y-115042278D01*
X104708263Y-115023464D01*
X104661827Y-114971258D01*
X104649944Y-114918288D01*
X104649944Y-114491775D01*
X104649943Y-114491769D01*
X104649942Y-114491762D01*
X104643693Y-114433619D01*
X104643536Y-114432162D01*
X104593242Y-114297317D01*
X104593238Y-114297310D01*
X104506992Y-114182101D01*
X104506989Y-114182098D01*
X104391780Y-114095852D01*
X104391773Y-114095848D01*
X104311539Y-114065923D01*
X104255605Y-114024052D01*
X104231188Y-113958587D01*
X104246040Y-113890314D01*
X104263635Y-113865767D01*
X104358424Y-113762799D01*
X104485369Y-113568495D01*
X104578602Y-113355946D01*
X104635579Y-113130951D01*
X104636648Y-113118059D01*
X104647029Y-112992763D01*
X104654745Y-112899646D01*
X104640302Y-112725336D01*
X104635580Y-112668348D01*
X104635578Y-112668337D01*
X104578602Y-112443345D01*
X104485369Y-112230797D01*
X104358428Y-112036498D01*
X104358425Y-112036495D01*
X104358424Y-112036493D01*
X104201229Y-111865733D01*
X104122032Y-111804091D01*
X104081221Y-111747384D01*
X104077546Y-111677611D01*
X104099404Y-111631299D01*
X105303028Y-110044704D01*
X105359228Y-110003193D01*
X105375774Y-109998416D01*
X105460709Y-109980182D01*
X105458604Y-108511373D01*
X105458603Y-108511372D01*
X103973174Y-108506927D01*
X103962549Y-109590679D01*
X103942208Y-109657522D01*
X103936171Y-109665929D01*
X102405809Y-111619582D01*
X102406427Y-111628514D01*
X102430445Y-111670761D01*
X102426655Y-111740528D01*
X102385911Y-111797045D01*
X102297663Y-111865731D01*
X102297661Y-111865732D01*
X102297661Y-111865733D01*
X102297354Y-111866067D01*
X102140461Y-112036498D01*
X102013520Y-112230797D01*
X101920287Y-112443345D01*
X101863311Y-112668337D01*
X101863309Y-112668348D01*
X101844144Y-112899639D01*
X101844144Y-112899652D01*
X100000500Y-112899652D01*
X100000500Y-105153745D01*
X105495959Y-105153745D01*
X105514310Y-105340077D01*
X105514311Y-105340079D01*
X105568662Y-105519248D01*
X105656920Y-105684369D01*
X105656922Y-105684372D01*
X105775700Y-105829103D01*
X105920431Y-105947881D01*
X105920434Y-105947883D01*
X106085555Y-106036141D01*
X106085557Y-106036142D01*
X106161358Y-106059136D01*
X106264724Y-106090492D01*
X106264726Y-106090493D01*
X106281432Y-106092138D01*
X106451058Y-106108845D01*
X106637389Y-106090493D01*
X106816559Y-106036142D01*
X106981683Y-105947882D01*
X107126415Y-105829103D01*
X107245194Y-105684371D01*
X107333454Y-105519247D01*
X107387805Y-105340077D01*
X107406157Y-105153746D01*
X107388759Y-104977100D01*
X107387805Y-104967414D01*
X107387804Y-104967412D01*
X107382395Y-104949581D01*
X107333454Y-104788245D01*
X107328309Y-104778619D01*
X107245195Y-104623122D01*
X107245193Y-104623119D01*
X107126415Y-104478388D01*
X106981684Y-104359610D01*
X106981681Y-104359608D01*
X106816560Y-104271350D01*
X106637391Y-104216999D01*
X106637389Y-104216998D01*
X106451058Y-104198647D01*
X106264726Y-104216998D01*
X106264724Y-104216999D01*
X106085555Y-104271350D01*
X105920434Y-104359608D01*
X105920431Y-104359610D01*
X105775700Y-104478388D01*
X105656922Y-104623119D01*
X105656920Y-104623122D01*
X105568662Y-104788243D01*
X105514311Y-104967412D01*
X105514310Y-104967414D01*
X105495959Y-105153745D01*
X100000500Y-105153745D01*
X100000500Y-103363526D01*
X101827098Y-103363526D01*
X101846032Y-103531580D01*
X101901892Y-103691218D01*
X101901894Y-103691221D01*
X101991865Y-103834408D01*
X101991870Y-103834414D01*
X102111456Y-103954000D01*
X102111462Y-103954005D01*
X102254649Y-104043976D01*
X102254652Y-104043978D01*
X102254656Y-104043979D01*
X102254657Y-104043980D01*
X102312454Y-104064204D01*
X102414290Y-104099838D01*
X102582344Y-104118773D01*
X102582347Y-104118773D01*
X102582350Y-104118773D01*
X102750403Y-104099838D01*
X102750406Y-104099837D01*
X102910037Y-104043980D01*
X102910039Y-104043978D01*
X102910041Y-104043978D01*
X102910044Y-104043976D01*
X103053231Y-103954005D01*
X103053232Y-103954004D01*
X103053237Y-103954001D01*
X103172824Y-103834414D01*
X103177364Y-103827189D01*
X103262799Y-103691221D01*
X103262801Y-103691218D01*
X103262801Y-103691216D01*
X103262803Y-103691214D01*
X103318660Y-103531583D01*
X103318660Y-103531582D01*
X103318661Y-103531580D01*
X103337596Y-103363526D01*
X103337596Y-103363521D01*
X103318661Y-103195467D01*
X103271749Y-103061401D01*
X103262803Y-103035834D01*
X103262802Y-103035833D01*
X103262801Y-103035829D01*
X103262799Y-103035826D01*
X103172828Y-102892639D01*
X103172823Y-102892633D01*
X103053237Y-102773047D01*
X103053231Y-102773042D01*
X102910044Y-102683071D01*
X102910041Y-102683069D01*
X102750403Y-102627209D01*
X102582350Y-102608275D01*
X102582344Y-102608275D01*
X102414290Y-102627209D01*
X102254652Y-102683069D01*
X102254649Y-102683071D01*
X102111462Y-102773042D01*
X102111456Y-102773047D01*
X101991870Y-102892633D01*
X101991865Y-102892639D01*
X101901894Y-103035826D01*
X101901892Y-103035829D01*
X101846032Y-103195467D01*
X101827098Y-103363521D01*
X101827098Y-103363526D01*
X100000500Y-103363526D01*
X100000500Y-101750002D01*
X104744751Y-101750002D01*
X104763685Y-101918056D01*
X104819545Y-102077694D01*
X104819547Y-102077697D01*
X104909518Y-102220884D01*
X104909523Y-102220890D01*
X105029109Y-102340476D01*
X105029115Y-102340481D01*
X105172302Y-102430452D01*
X105172305Y-102430454D01*
X105172309Y-102430455D01*
X105172310Y-102430456D01*
X105244913Y-102455860D01*
X105331943Y-102486314D01*
X105499997Y-102505249D01*
X105500000Y-102505249D01*
X105500003Y-102505249D01*
X105668056Y-102486314D01*
X105708609Y-102472124D01*
X105827690Y-102430456D01*
X105827692Y-102430454D01*
X105827694Y-102430454D01*
X105827697Y-102430452D01*
X105970884Y-102340481D01*
X105970885Y-102340480D01*
X105970890Y-102340477D01*
X106090477Y-102220890D01*
X106097731Y-102209345D01*
X106180452Y-102077697D01*
X106180454Y-102077694D01*
X106180454Y-102077692D01*
X106180456Y-102077690D01*
X106236313Y-101918059D01*
X106236313Y-101918058D01*
X106236314Y-101918056D01*
X106255249Y-101750002D01*
X106255249Y-101749997D01*
X106236314Y-101581943D01*
X106180454Y-101422305D01*
X106180452Y-101422302D01*
X106090481Y-101279115D01*
X106090476Y-101279109D01*
X105970890Y-101159523D01*
X105970884Y-101159518D01*
X105827697Y-101069547D01*
X105827694Y-101069545D01*
X105668056Y-101013685D01*
X105500003Y-100994751D01*
X105499997Y-100994751D01*
X105331943Y-101013685D01*
X105172305Y-101069545D01*
X105172302Y-101069547D01*
X105029115Y-101159518D01*
X105029109Y-101159523D01*
X104909523Y-101279109D01*
X104909518Y-101279115D01*
X104819547Y-101422302D01*
X104819545Y-101422305D01*
X104763685Y-101581943D01*
X104744751Y-101749997D01*
X104744751Y-101750002D01*
X100000500Y-101750002D01*
X100000500Y-100124500D01*
X100020185Y-100057461D01*
X100072989Y-100011706D01*
X100124500Y-100000500D01*
X117138771Y-100000500D01*
X117205810Y-100020185D01*
G37*
%TD.AperFunction*%
%TD*%
M02*
