%TF.GenerationSoftware,KiCad,Pcbnew,7.0.6*%
%TF.CreationDate,2023-08-11T09:56:28+10:00*%
%TF.ProjectId,turbidity_sensor_v2,74757262-6964-4697-9479-5f73656e736f,0.1.0*%
%TF.SameCoordinates,Original*%
%TF.FileFunction,Legend,Top*%
%TF.FilePolarity,Positive*%
%FSLAX46Y46*%
G04 Gerber Fmt 4.6, Leading zero omitted, Abs format (unit mm)*
G04 Created by KiCad (PCBNEW 7.0.6) date 2023-08-11 09:56:28*
%MOMM*%
%LPD*%
G01*
G04 APERTURE LIST*
%ADD10C,0.150000*%
%ADD11C,0.125000*%
%ADD12C,0.120000*%
%ADD13C,0.100000*%
G04 APERTURE END LIST*
D10*
X113025477Y-117352828D02*
X119375477Y-117352828D01*
X113030000Y-115570000D02*
X113030000Y-116840000D01*
X113030000Y-116840000D02*
X113025477Y-117352828D01*
X113030000Y-115570000D02*
X119380000Y-115570000D01*
X119375477Y-117352828D02*
X119380000Y-115570000D01*
X113848713Y-114230016D02*
X114300000Y-115570000D01*
D11*
X113278787Y-115843986D02*
X113588311Y-115843986D01*
X113588311Y-115843986D02*
X113421644Y-116034462D01*
X113421644Y-116034462D02*
X113493073Y-116034462D01*
X113493073Y-116034462D02*
X113540692Y-116058272D01*
X113540692Y-116058272D02*
X113564501Y-116082081D01*
X113564501Y-116082081D02*
X113588311Y-116129700D01*
X113588311Y-116129700D02*
X113588311Y-116248748D01*
X113588311Y-116248748D02*
X113564501Y-116296367D01*
X113564501Y-116296367D02*
X113540692Y-116320177D01*
X113540692Y-116320177D02*
X113493073Y-116343986D01*
X113493073Y-116343986D02*
X113350216Y-116343986D01*
X113350216Y-116343986D02*
X113302597Y-116320177D01*
X113302597Y-116320177D02*
X113278787Y-116296367D01*
X113802596Y-116296367D02*
X113826406Y-116320177D01*
X113826406Y-116320177D02*
X113802596Y-116343986D01*
X113802596Y-116343986D02*
X113778787Y-116320177D01*
X113778787Y-116320177D02*
X113802596Y-116296367D01*
X113802596Y-116296367D02*
X113802596Y-116343986D01*
X113993072Y-115843986D02*
X114302596Y-115843986D01*
X114302596Y-115843986D02*
X114135929Y-116034462D01*
X114135929Y-116034462D02*
X114207358Y-116034462D01*
X114207358Y-116034462D02*
X114254977Y-116058272D01*
X114254977Y-116058272D02*
X114278786Y-116082081D01*
X114278786Y-116082081D02*
X114302596Y-116129700D01*
X114302596Y-116129700D02*
X114302596Y-116248748D01*
X114302596Y-116248748D02*
X114278786Y-116296367D01*
X114278786Y-116296367D02*
X114254977Y-116320177D01*
X114254977Y-116320177D02*
X114207358Y-116343986D01*
X114207358Y-116343986D02*
X114064501Y-116343986D01*
X114064501Y-116343986D02*
X114016882Y-116320177D01*
X114016882Y-116320177D02*
X113993072Y-116296367D01*
X114445453Y-115843986D02*
X114612119Y-116343986D01*
X114612119Y-116343986D02*
X114778786Y-115843986D01*
X115326404Y-116343986D02*
X115326404Y-115843986D01*
X115326404Y-115843986D02*
X115493071Y-116201129D01*
X115493071Y-116201129D02*
X115659737Y-115843986D01*
X115659737Y-115843986D02*
X115659737Y-116343986D01*
X115993071Y-115843986D02*
X116088309Y-115843986D01*
X116088309Y-115843986D02*
X116135928Y-115867796D01*
X116135928Y-115867796D02*
X116183547Y-115915415D01*
X116183547Y-115915415D02*
X116207357Y-116010653D01*
X116207357Y-116010653D02*
X116207357Y-116177319D01*
X116207357Y-116177319D02*
X116183547Y-116272557D01*
X116183547Y-116272557D02*
X116135928Y-116320177D01*
X116135928Y-116320177D02*
X116088309Y-116343986D01*
X116088309Y-116343986D02*
X115993071Y-116343986D01*
X115993071Y-116343986D02*
X115945452Y-116320177D01*
X115945452Y-116320177D02*
X115897833Y-116272557D01*
X115897833Y-116272557D02*
X115874024Y-116177319D01*
X115874024Y-116177319D02*
X115874024Y-116010653D01*
X115874024Y-116010653D02*
X115897833Y-115915415D01*
X115897833Y-115915415D02*
X115945452Y-115867796D01*
X115945452Y-115867796D02*
X115993071Y-115843986D01*
X116397834Y-116320177D02*
X116469262Y-116343986D01*
X116469262Y-116343986D02*
X116588310Y-116343986D01*
X116588310Y-116343986D02*
X116635929Y-116320177D01*
X116635929Y-116320177D02*
X116659738Y-116296367D01*
X116659738Y-116296367D02*
X116683548Y-116248748D01*
X116683548Y-116248748D02*
X116683548Y-116201129D01*
X116683548Y-116201129D02*
X116659738Y-116153510D01*
X116659738Y-116153510D02*
X116635929Y-116129700D01*
X116635929Y-116129700D02*
X116588310Y-116105891D01*
X116588310Y-116105891D02*
X116493072Y-116082081D01*
X116493072Y-116082081D02*
X116445453Y-116058272D01*
X116445453Y-116058272D02*
X116421643Y-116034462D01*
X116421643Y-116034462D02*
X116397834Y-115986843D01*
X116397834Y-115986843D02*
X116397834Y-115939224D01*
X116397834Y-115939224D02*
X116421643Y-115891605D01*
X116421643Y-115891605D02*
X116445453Y-115867796D01*
X116445453Y-115867796D02*
X116493072Y-115843986D01*
X116493072Y-115843986D02*
X116612119Y-115843986D01*
X116612119Y-115843986D02*
X116683548Y-115867796D01*
X116897833Y-116343986D02*
X116897833Y-115843986D01*
X117778785Y-115867796D02*
X117731166Y-115843986D01*
X117731166Y-115843986D02*
X117659737Y-115843986D01*
X117659737Y-115843986D02*
X117588309Y-115867796D01*
X117588309Y-115867796D02*
X117540690Y-115915415D01*
X117540690Y-115915415D02*
X117516880Y-115963034D01*
X117516880Y-115963034D02*
X117493071Y-116058272D01*
X117493071Y-116058272D02*
X117493071Y-116129700D01*
X117493071Y-116129700D02*
X117516880Y-116224938D01*
X117516880Y-116224938D02*
X117540690Y-116272557D01*
X117540690Y-116272557D02*
X117588309Y-116320177D01*
X117588309Y-116320177D02*
X117659737Y-116343986D01*
X117659737Y-116343986D02*
X117707356Y-116343986D01*
X117707356Y-116343986D02*
X117778785Y-116320177D01*
X117778785Y-116320177D02*
X117802594Y-116296367D01*
X117802594Y-116296367D02*
X117802594Y-116129700D01*
X117802594Y-116129700D02*
X117707356Y-116129700D01*
X118016880Y-116343986D02*
X118016880Y-115843986D01*
X118016880Y-115843986D02*
X118302594Y-116343986D01*
X118302594Y-116343986D02*
X118302594Y-115843986D01*
X118540690Y-116343986D02*
X118540690Y-115843986D01*
X118540690Y-115843986D02*
X118659738Y-115843986D01*
X118659738Y-115843986D02*
X118731166Y-115867796D01*
X118731166Y-115867796D02*
X118778785Y-115915415D01*
X118778785Y-115915415D02*
X118802595Y-115963034D01*
X118802595Y-115963034D02*
X118826404Y-116058272D01*
X118826404Y-116058272D02*
X118826404Y-116129700D01*
X118826404Y-116129700D02*
X118802595Y-116224938D01*
X118802595Y-116224938D02*
X118778785Y-116272557D01*
X118778785Y-116272557D02*
X118731166Y-116320177D01*
X118731166Y-116320177D02*
X118659738Y-116343986D01*
X118659738Y-116343986D02*
X118540690Y-116343986D01*
X113326406Y-117148986D02*
X113326406Y-116648986D01*
X113326406Y-116648986D02*
X113493073Y-117006129D01*
X113493073Y-117006129D02*
X113659739Y-116648986D01*
X113659739Y-116648986D02*
X113659739Y-117148986D01*
X113897835Y-117148986D02*
X113897835Y-116648986D01*
X114112121Y-117125177D02*
X114183549Y-117148986D01*
X114183549Y-117148986D02*
X114302597Y-117148986D01*
X114302597Y-117148986D02*
X114350216Y-117125177D01*
X114350216Y-117125177D02*
X114374025Y-117101367D01*
X114374025Y-117101367D02*
X114397835Y-117053748D01*
X114397835Y-117053748D02*
X114397835Y-117006129D01*
X114397835Y-117006129D02*
X114374025Y-116958510D01*
X114374025Y-116958510D02*
X114350216Y-116934700D01*
X114350216Y-116934700D02*
X114302597Y-116910891D01*
X114302597Y-116910891D02*
X114207359Y-116887081D01*
X114207359Y-116887081D02*
X114159740Y-116863272D01*
X114159740Y-116863272D02*
X114135930Y-116839462D01*
X114135930Y-116839462D02*
X114112121Y-116791843D01*
X114112121Y-116791843D02*
X114112121Y-116744224D01*
X114112121Y-116744224D02*
X114135930Y-116696605D01*
X114135930Y-116696605D02*
X114159740Y-116672796D01*
X114159740Y-116672796D02*
X114207359Y-116648986D01*
X114207359Y-116648986D02*
X114326406Y-116648986D01*
X114326406Y-116648986D02*
X114397835Y-116672796D01*
X114707358Y-116648986D02*
X114802596Y-116648986D01*
X114802596Y-116648986D02*
X114850215Y-116672796D01*
X114850215Y-116672796D02*
X114897834Y-116720415D01*
X114897834Y-116720415D02*
X114921644Y-116815653D01*
X114921644Y-116815653D02*
X114921644Y-116982319D01*
X114921644Y-116982319D02*
X114897834Y-117077557D01*
X114897834Y-117077557D02*
X114850215Y-117125177D01*
X114850215Y-117125177D02*
X114802596Y-117148986D01*
X114802596Y-117148986D02*
X114707358Y-117148986D01*
X114707358Y-117148986D02*
X114659739Y-117125177D01*
X114659739Y-117125177D02*
X114612120Y-117077557D01*
X114612120Y-117077557D02*
X114588311Y-116982319D01*
X114588311Y-116982319D02*
X114588311Y-116815653D01*
X114588311Y-116815653D02*
X114612120Y-116720415D01*
X114612120Y-116720415D02*
X114659739Y-116672796D01*
X114659739Y-116672796D02*
X114707358Y-116648986D01*
X115802596Y-117101367D02*
X115778787Y-117125177D01*
X115778787Y-117125177D02*
X115707358Y-117148986D01*
X115707358Y-117148986D02*
X115659739Y-117148986D01*
X115659739Y-117148986D02*
X115588311Y-117125177D01*
X115588311Y-117125177D02*
X115540692Y-117077557D01*
X115540692Y-117077557D02*
X115516882Y-117029938D01*
X115516882Y-117029938D02*
X115493073Y-116934700D01*
X115493073Y-116934700D02*
X115493073Y-116863272D01*
X115493073Y-116863272D02*
X115516882Y-116768034D01*
X115516882Y-116768034D02*
X115540692Y-116720415D01*
X115540692Y-116720415D02*
X115588311Y-116672796D01*
X115588311Y-116672796D02*
X115659739Y-116648986D01*
X115659739Y-116648986D02*
X115707358Y-116648986D01*
X115707358Y-116648986D02*
X115778787Y-116672796D01*
X115778787Y-116672796D02*
X115802596Y-116696605D01*
X116254977Y-117148986D02*
X116016882Y-117148986D01*
X116016882Y-117148986D02*
X116016882Y-116648986D01*
X116421644Y-117148986D02*
X116421644Y-116648986D01*
X116707358Y-117148986D02*
X116493073Y-116863272D01*
X116707358Y-116648986D02*
X116421644Y-116934700D01*
X117016882Y-116648986D02*
X117112120Y-116648986D01*
X117112120Y-116648986D02*
X117159739Y-116672796D01*
X117159739Y-116672796D02*
X117207358Y-116720415D01*
X117207358Y-116720415D02*
X117231168Y-116815653D01*
X117231168Y-116815653D02*
X117231168Y-116982319D01*
X117231168Y-116982319D02*
X117207358Y-117077557D01*
X117207358Y-117077557D02*
X117159739Y-117125177D01*
X117159739Y-117125177D02*
X117112120Y-117148986D01*
X117112120Y-117148986D02*
X117016882Y-117148986D01*
X117016882Y-117148986D02*
X116969263Y-117125177D01*
X116969263Y-117125177D02*
X116921644Y-117077557D01*
X116921644Y-117077557D02*
X116897835Y-116982319D01*
X116897835Y-116982319D02*
X116897835Y-116815653D01*
X116897835Y-116815653D02*
X116921644Y-116720415D01*
X116921644Y-116720415D02*
X116969263Y-116672796D01*
X116969263Y-116672796D02*
X117016882Y-116648986D01*
X118112120Y-117148986D02*
X117945454Y-116910891D01*
X117826406Y-117148986D02*
X117826406Y-116648986D01*
X117826406Y-116648986D02*
X118016882Y-116648986D01*
X118016882Y-116648986D02*
X118064501Y-116672796D01*
X118064501Y-116672796D02*
X118088311Y-116696605D01*
X118088311Y-116696605D02*
X118112120Y-116744224D01*
X118112120Y-116744224D02*
X118112120Y-116815653D01*
X118112120Y-116815653D02*
X118088311Y-116863272D01*
X118088311Y-116863272D02*
X118064501Y-116887081D01*
X118064501Y-116887081D02*
X118016882Y-116910891D01*
X118016882Y-116910891D02*
X117826406Y-116910891D01*
X118302597Y-117125177D02*
X118374025Y-117148986D01*
X118374025Y-117148986D02*
X118493073Y-117148986D01*
X118493073Y-117148986D02*
X118540692Y-117125177D01*
X118540692Y-117125177D02*
X118564501Y-117101367D01*
X118564501Y-117101367D02*
X118588311Y-117053748D01*
X118588311Y-117053748D02*
X118588311Y-117006129D01*
X118588311Y-117006129D02*
X118564501Y-116958510D01*
X118564501Y-116958510D02*
X118540692Y-116934700D01*
X118540692Y-116934700D02*
X118493073Y-116910891D01*
X118493073Y-116910891D02*
X118397835Y-116887081D01*
X118397835Y-116887081D02*
X118350216Y-116863272D01*
X118350216Y-116863272D02*
X118326406Y-116839462D01*
X118326406Y-116839462D02*
X118302597Y-116791843D01*
X118302597Y-116791843D02*
X118302597Y-116744224D01*
X118302597Y-116744224D02*
X118326406Y-116696605D01*
X118326406Y-116696605D02*
X118350216Y-116672796D01*
X118350216Y-116672796D02*
X118397835Y-116648986D01*
X118397835Y-116648986D02*
X118516882Y-116648986D01*
X118516882Y-116648986D02*
X118588311Y-116672796D01*
X118731168Y-116648986D02*
X119016882Y-116648986D01*
X118874025Y-117148986D02*
X118874025Y-116648986D01*
X112821905Y-108490179D02*
X112655239Y-108252084D01*
X112536191Y-108490179D02*
X112536191Y-107990179D01*
X112536191Y-107990179D02*
X112726667Y-107990179D01*
X112726667Y-107990179D02*
X112774286Y-108013989D01*
X112774286Y-108013989D02*
X112798096Y-108037798D01*
X112798096Y-108037798D02*
X112821905Y-108085417D01*
X112821905Y-108085417D02*
X112821905Y-108156846D01*
X112821905Y-108156846D02*
X112798096Y-108204465D01*
X112798096Y-108204465D02*
X112774286Y-108228274D01*
X112774286Y-108228274D02*
X112726667Y-108252084D01*
X112726667Y-108252084D02*
X112536191Y-108252084D01*
X112988572Y-107990179D02*
X113321905Y-108490179D01*
X113321905Y-107990179D02*
X112988572Y-108490179D01*
X115623870Y-114967119D02*
X115623870Y-114467119D01*
X115838156Y-114943310D02*
X115909584Y-114967119D01*
X115909584Y-114967119D02*
X116028632Y-114967119D01*
X116028632Y-114967119D02*
X116076251Y-114943310D01*
X116076251Y-114943310D02*
X116100060Y-114919500D01*
X116100060Y-114919500D02*
X116123870Y-114871881D01*
X116123870Y-114871881D02*
X116123870Y-114824262D01*
X116123870Y-114824262D02*
X116100060Y-114776643D01*
X116100060Y-114776643D02*
X116076251Y-114752833D01*
X116076251Y-114752833D02*
X116028632Y-114729024D01*
X116028632Y-114729024D02*
X115933394Y-114705214D01*
X115933394Y-114705214D02*
X115885775Y-114681405D01*
X115885775Y-114681405D02*
X115861965Y-114657595D01*
X115861965Y-114657595D02*
X115838156Y-114609976D01*
X115838156Y-114609976D02*
X115838156Y-114562357D01*
X115838156Y-114562357D02*
X115861965Y-114514738D01*
X115861965Y-114514738D02*
X115885775Y-114490929D01*
X115885775Y-114490929D02*
X115933394Y-114467119D01*
X115933394Y-114467119D02*
X116052441Y-114467119D01*
X116052441Y-114467119D02*
X116123870Y-114490929D01*
X116338155Y-114967119D02*
X116338155Y-114467119D01*
X116338155Y-114467119D02*
X116528631Y-114467119D01*
X116528631Y-114467119D02*
X116576250Y-114490929D01*
X116576250Y-114490929D02*
X116600060Y-114514738D01*
X116600060Y-114514738D02*
X116623869Y-114562357D01*
X116623869Y-114562357D02*
X116623869Y-114633786D01*
X116623869Y-114633786D02*
X116600060Y-114681405D01*
X116600060Y-114681405D02*
X116576250Y-114705214D01*
X116576250Y-114705214D02*
X116528631Y-114729024D01*
X116528631Y-114729024D02*
X116338155Y-114729024D01*
X120291392Y-114509511D02*
X120291392Y-114009511D01*
X120291392Y-114009511D02*
X120410440Y-114009511D01*
X120410440Y-114009511D02*
X120481868Y-114033321D01*
X120481868Y-114033321D02*
X120529487Y-114080940D01*
X120529487Y-114080940D02*
X120553297Y-114128559D01*
X120553297Y-114128559D02*
X120577106Y-114223797D01*
X120577106Y-114223797D02*
X120577106Y-114295225D01*
X120577106Y-114295225D02*
X120553297Y-114390463D01*
X120553297Y-114390463D02*
X120529487Y-114438082D01*
X120529487Y-114438082D02*
X120481868Y-114485702D01*
X120481868Y-114485702D02*
X120410440Y-114509511D01*
X120410440Y-114509511D02*
X120291392Y-114509511D01*
X120886630Y-114009511D02*
X120981868Y-114009511D01*
X120981868Y-114009511D02*
X121029487Y-114033321D01*
X121029487Y-114033321D02*
X121077106Y-114080940D01*
X121077106Y-114080940D02*
X121100916Y-114176178D01*
X121100916Y-114176178D02*
X121100916Y-114342844D01*
X121100916Y-114342844D02*
X121077106Y-114438082D01*
X121077106Y-114438082D02*
X121029487Y-114485702D01*
X121029487Y-114485702D02*
X120981868Y-114509511D01*
X120981868Y-114509511D02*
X120886630Y-114509511D01*
X120886630Y-114509511D02*
X120839011Y-114485702D01*
X120839011Y-114485702D02*
X120791392Y-114438082D01*
X120791392Y-114438082D02*
X120767583Y-114342844D01*
X120767583Y-114342844D02*
X120767583Y-114176178D01*
X120767583Y-114176178D02*
X120791392Y-114080940D01*
X120791392Y-114080940D02*
X120839011Y-114033321D01*
X120839011Y-114033321D02*
X120886630Y-114009511D01*
X121696154Y-114509511D02*
X121696154Y-114009511D01*
X121696154Y-114009511D02*
X121981868Y-114509511D01*
X121981868Y-114509511D02*
X121981868Y-114009511D01*
X122315202Y-114009511D02*
X122410440Y-114009511D01*
X122410440Y-114009511D02*
X122458059Y-114033321D01*
X122458059Y-114033321D02*
X122505678Y-114080940D01*
X122505678Y-114080940D02*
X122529488Y-114176178D01*
X122529488Y-114176178D02*
X122529488Y-114342844D01*
X122529488Y-114342844D02*
X122505678Y-114438082D01*
X122505678Y-114438082D02*
X122458059Y-114485702D01*
X122458059Y-114485702D02*
X122410440Y-114509511D01*
X122410440Y-114509511D02*
X122315202Y-114509511D01*
X122315202Y-114509511D02*
X122267583Y-114485702D01*
X122267583Y-114485702D02*
X122219964Y-114438082D01*
X122219964Y-114438082D02*
X122196155Y-114342844D01*
X122196155Y-114342844D02*
X122196155Y-114176178D01*
X122196155Y-114176178D02*
X122219964Y-114080940D01*
X122219964Y-114080940D02*
X122267583Y-114033321D01*
X122267583Y-114033321D02*
X122315202Y-114009511D01*
X122672346Y-114009511D02*
X122958060Y-114009511D01*
X122815203Y-114509511D02*
X122815203Y-114009511D01*
X123791392Y-114461892D02*
X123767583Y-114485702D01*
X123767583Y-114485702D02*
X123696154Y-114509511D01*
X123696154Y-114509511D02*
X123648535Y-114509511D01*
X123648535Y-114509511D02*
X123577107Y-114485702D01*
X123577107Y-114485702D02*
X123529488Y-114438082D01*
X123529488Y-114438082D02*
X123505678Y-114390463D01*
X123505678Y-114390463D02*
X123481869Y-114295225D01*
X123481869Y-114295225D02*
X123481869Y-114223797D01*
X123481869Y-114223797D02*
X123505678Y-114128559D01*
X123505678Y-114128559D02*
X123529488Y-114080940D01*
X123529488Y-114080940D02*
X123577107Y-114033321D01*
X123577107Y-114033321D02*
X123648535Y-114009511D01*
X123648535Y-114009511D02*
X123696154Y-114009511D01*
X123696154Y-114009511D02*
X123767583Y-114033321D01*
X123767583Y-114033321D02*
X123791392Y-114057130D01*
X124100916Y-114009511D02*
X124196154Y-114009511D01*
X124196154Y-114009511D02*
X124243773Y-114033321D01*
X124243773Y-114033321D02*
X124291392Y-114080940D01*
X124291392Y-114080940D02*
X124315202Y-114176178D01*
X124315202Y-114176178D02*
X124315202Y-114342844D01*
X124315202Y-114342844D02*
X124291392Y-114438082D01*
X124291392Y-114438082D02*
X124243773Y-114485702D01*
X124243773Y-114485702D02*
X124196154Y-114509511D01*
X124196154Y-114509511D02*
X124100916Y-114509511D01*
X124100916Y-114509511D02*
X124053297Y-114485702D01*
X124053297Y-114485702D02*
X124005678Y-114438082D01*
X124005678Y-114438082D02*
X123981869Y-114342844D01*
X123981869Y-114342844D02*
X123981869Y-114176178D01*
X123981869Y-114176178D02*
X124005678Y-114080940D01*
X124005678Y-114080940D02*
X124053297Y-114033321D01*
X124053297Y-114033321D02*
X124100916Y-114009511D01*
X124529488Y-114509511D02*
X124529488Y-114009511D01*
X124529488Y-114009511D02*
X124815202Y-114509511D01*
X124815202Y-114509511D02*
X124815202Y-114009511D01*
X125053298Y-114509511D02*
X125053298Y-114009511D01*
X125053298Y-114009511D02*
X125339012Y-114509511D01*
X125339012Y-114509511D02*
X125339012Y-114009511D01*
X125577108Y-114247606D02*
X125743775Y-114247606D01*
X125815203Y-114509511D02*
X125577108Y-114509511D01*
X125577108Y-114509511D02*
X125577108Y-114009511D01*
X125577108Y-114009511D02*
X125815203Y-114009511D01*
X126315203Y-114461892D02*
X126291394Y-114485702D01*
X126291394Y-114485702D02*
X126219965Y-114509511D01*
X126219965Y-114509511D02*
X126172346Y-114509511D01*
X126172346Y-114509511D02*
X126100918Y-114485702D01*
X126100918Y-114485702D02*
X126053299Y-114438082D01*
X126053299Y-114438082D02*
X126029489Y-114390463D01*
X126029489Y-114390463D02*
X126005680Y-114295225D01*
X126005680Y-114295225D02*
X126005680Y-114223797D01*
X126005680Y-114223797D02*
X126029489Y-114128559D01*
X126029489Y-114128559D02*
X126053299Y-114080940D01*
X126053299Y-114080940D02*
X126100918Y-114033321D01*
X126100918Y-114033321D02*
X126172346Y-114009511D01*
X126172346Y-114009511D02*
X126219965Y-114009511D01*
X126219965Y-114009511D02*
X126291394Y-114033321D01*
X126291394Y-114033321D02*
X126315203Y-114057130D01*
X126458061Y-114009511D02*
X126743775Y-114009511D01*
X126600918Y-114509511D02*
X126600918Y-114009511D01*
X127243774Y-114009511D02*
X127553298Y-114009511D01*
X127553298Y-114009511D02*
X127386631Y-114199987D01*
X127386631Y-114199987D02*
X127458060Y-114199987D01*
X127458060Y-114199987D02*
X127505679Y-114223797D01*
X127505679Y-114223797D02*
X127529488Y-114247606D01*
X127529488Y-114247606D02*
X127553298Y-114295225D01*
X127553298Y-114295225D02*
X127553298Y-114414273D01*
X127553298Y-114414273D02*
X127529488Y-114461892D01*
X127529488Y-114461892D02*
X127505679Y-114485702D01*
X127505679Y-114485702D02*
X127458060Y-114509511D01*
X127458060Y-114509511D02*
X127315203Y-114509511D01*
X127315203Y-114509511D02*
X127267584Y-114485702D01*
X127267584Y-114485702D02*
X127243774Y-114461892D01*
X127767583Y-114461892D02*
X127791393Y-114485702D01*
X127791393Y-114485702D02*
X127767583Y-114509511D01*
X127767583Y-114509511D02*
X127743774Y-114485702D01*
X127743774Y-114485702D02*
X127767583Y-114461892D01*
X127767583Y-114461892D02*
X127767583Y-114509511D01*
X127958059Y-114009511D02*
X128267583Y-114009511D01*
X128267583Y-114009511D02*
X128100916Y-114199987D01*
X128100916Y-114199987D02*
X128172345Y-114199987D01*
X128172345Y-114199987D02*
X128219964Y-114223797D01*
X128219964Y-114223797D02*
X128243773Y-114247606D01*
X128243773Y-114247606D02*
X128267583Y-114295225D01*
X128267583Y-114295225D02*
X128267583Y-114414273D01*
X128267583Y-114414273D02*
X128243773Y-114461892D01*
X128243773Y-114461892D02*
X128219964Y-114485702D01*
X128219964Y-114485702D02*
X128172345Y-114509511D01*
X128172345Y-114509511D02*
X128029488Y-114509511D01*
X128029488Y-114509511D02*
X127981869Y-114485702D01*
X127981869Y-114485702D02*
X127958059Y-114461892D01*
X128410440Y-114009511D02*
X128577106Y-114509511D01*
X128577106Y-114509511D02*
X128743773Y-114009511D01*
X120505678Y-115314511D02*
X120505678Y-115052606D01*
X120505678Y-115052606D02*
X120481868Y-115004987D01*
X120481868Y-115004987D02*
X120434249Y-114981178D01*
X120434249Y-114981178D02*
X120339011Y-114981178D01*
X120339011Y-114981178D02*
X120291392Y-115004987D01*
X120505678Y-115290702D02*
X120458059Y-115314511D01*
X120458059Y-115314511D02*
X120339011Y-115314511D01*
X120339011Y-115314511D02*
X120291392Y-115290702D01*
X120291392Y-115290702D02*
X120267583Y-115243082D01*
X120267583Y-115243082D02*
X120267583Y-115195463D01*
X120267583Y-115195463D02*
X120291392Y-115147844D01*
X120291392Y-115147844D02*
X120339011Y-115124035D01*
X120339011Y-115124035D02*
X120458059Y-115124035D01*
X120458059Y-115124035D02*
X120505678Y-115100225D01*
X120743773Y-114981178D02*
X120743773Y-115314511D01*
X120743773Y-115028797D02*
X120767583Y-115004987D01*
X120767583Y-115004987D02*
X120815202Y-114981178D01*
X120815202Y-114981178D02*
X120886630Y-114981178D01*
X120886630Y-114981178D02*
X120934249Y-115004987D01*
X120934249Y-115004987D02*
X120958059Y-115052606D01*
X120958059Y-115052606D02*
X120958059Y-115314511D01*
X121410440Y-115314511D02*
X121410440Y-114814511D01*
X121410440Y-115290702D02*
X121362821Y-115314511D01*
X121362821Y-115314511D02*
X121267583Y-115314511D01*
X121267583Y-115314511D02*
X121219964Y-115290702D01*
X121219964Y-115290702D02*
X121196154Y-115266892D01*
X121196154Y-115266892D02*
X121172345Y-115219273D01*
X121172345Y-115219273D02*
X121172345Y-115076416D01*
X121172345Y-115076416D02*
X121196154Y-115028797D01*
X121196154Y-115028797D02*
X121219964Y-115004987D01*
X121219964Y-115004987D02*
X121267583Y-114981178D01*
X121267583Y-114981178D02*
X121362821Y-114981178D01*
X121362821Y-114981178D02*
X121410440Y-115004987D01*
X121958059Y-114814511D02*
X122124725Y-115314511D01*
X122124725Y-115314511D02*
X122291392Y-114814511D01*
X122458058Y-115124035D02*
X122839011Y-115124035D01*
X122648534Y-115314511D02*
X122648534Y-114933559D01*
X120505678Y-116119511D02*
X120505678Y-115857606D01*
X120505678Y-115857606D02*
X120481868Y-115809987D01*
X120481868Y-115809987D02*
X120434249Y-115786178D01*
X120434249Y-115786178D02*
X120339011Y-115786178D01*
X120339011Y-115786178D02*
X120291392Y-115809987D01*
X120505678Y-116095702D02*
X120458059Y-116119511D01*
X120458059Y-116119511D02*
X120339011Y-116119511D01*
X120339011Y-116119511D02*
X120291392Y-116095702D01*
X120291392Y-116095702D02*
X120267583Y-116048082D01*
X120267583Y-116048082D02*
X120267583Y-116000463D01*
X120267583Y-116000463D02*
X120291392Y-115952844D01*
X120291392Y-115952844D02*
X120339011Y-115929035D01*
X120339011Y-115929035D02*
X120458059Y-115929035D01*
X120458059Y-115929035D02*
X120505678Y-115905225D01*
X120672345Y-115786178D02*
X120862821Y-115786178D01*
X120743773Y-115619511D02*
X120743773Y-116048082D01*
X120743773Y-116048082D02*
X120767583Y-116095702D01*
X120767583Y-116095702D02*
X120815202Y-116119511D01*
X120815202Y-116119511D02*
X120862821Y-116119511D01*
X121386630Y-116095702D02*
X121434249Y-116119511D01*
X121434249Y-116119511D02*
X121529487Y-116119511D01*
X121529487Y-116119511D02*
X121577106Y-116095702D01*
X121577106Y-116095702D02*
X121600915Y-116048082D01*
X121600915Y-116048082D02*
X121600915Y-116024273D01*
X121600915Y-116024273D02*
X121577106Y-115976654D01*
X121577106Y-115976654D02*
X121529487Y-115952844D01*
X121529487Y-115952844D02*
X121458058Y-115952844D01*
X121458058Y-115952844D02*
X121410439Y-115929035D01*
X121410439Y-115929035D02*
X121386630Y-115881416D01*
X121386630Y-115881416D02*
X121386630Y-115857606D01*
X121386630Y-115857606D02*
X121410439Y-115809987D01*
X121410439Y-115809987D02*
X121458058Y-115786178D01*
X121458058Y-115786178D02*
X121529487Y-115786178D01*
X121529487Y-115786178D02*
X121577106Y-115809987D01*
X122029487Y-116119511D02*
X122029487Y-115857606D01*
X122029487Y-115857606D02*
X122005677Y-115809987D01*
X122005677Y-115809987D02*
X121958058Y-115786178D01*
X121958058Y-115786178D02*
X121862820Y-115786178D01*
X121862820Y-115786178D02*
X121815201Y-115809987D01*
X122029487Y-116095702D02*
X121981868Y-116119511D01*
X121981868Y-116119511D02*
X121862820Y-116119511D01*
X121862820Y-116119511D02*
X121815201Y-116095702D01*
X121815201Y-116095702D02*
X121791392Y-116048082D01*
X121791392Y-116048082D02*
X121791392Y-116000463D01*
X121791392Y-116000463D02*
X121815201Y-115952844D01*
X121815201Y-115952844D02*
X121862820Y-115929035D01*
X121862820Y-115929035D02*
X121981868Y-115929035D01*
X121981868Y-115929035D02*
X122029487Y-115905225D01*
X122267582Y-116119511D02*
X122267582Y-115786178D01*
X122267582Y-115833797D02*
X122291392Y-115809987D01*
X122291392Y-115809987D02*
X122339011Y-115786178D01*
X122339011Y-115786178D02*
X122410439Y-115786178D01*
X122410439Y-115786178D02*
X122458058Y-115809987D01*
X122458058Y-115809987D02*
X122481868Y-115857606D01*
X122481868Y-115857606D02*
X122481868Y-116119511D01*
X122481868Y-115857606D02*
X122505677Y-115809987D01*
X122505677Y-115809987D02*
X122553296Y-115786178D01*
X122553296Y-115786178D02*
X122624725Y-115786178D01*
X122624725Y-115786178D02*
X122672344Y-115809987D01*
X122672344Y-115809987D02*
X122696154Y-115857606D01*
X122696154Y-115857606D02*
X122696154Y-116119511D01*
X123124725Y-116095702D02*
X123077106Y-116119511D01*
X123077106Y-116119511D02*
X122981868Y-116119511D01*
X122981868Y-116119511D02*
X122934249Y-116095702D01*
X122934249Y-116095702D02*
X122910440Y-116048082D01*
X122910440Y-116048082D02*
X122910440Y-115857606D01*
X122910440Y-115857606D02*
X122934249Y-115809987D01*
X122934249Y-115809987D02*
X122981868Y-115786178D01*
X122981868Y-115786178D02*
X123077106Y-115786178D01*
X123077106Y-115786178D02*
X123124725Y-115809987D01*
X123124725Y-115809987D02*
X123148535Y-115857606D01*
X123148535Y-115857606D02*
X123148535Y-115905225D01*
X123148535Y-115905225D02*
X122910440Y-115952844D01*
X123672344Y-115786178D02*
X123862820Y-115786178D01*
X123743772Y-115619511D02*
X123743772Y-116048082D01*
X123743772Y-116048082D02*
X123767582Y-116095702D01*
X123767582Y-116095702D02*
X123815201Y-116119511D01*
X123815201Y-116119511D02*
X123862820Y-116119511D01*
X124029486Y-116119511D02*
X124029486Y-115786178D01*
X124029486Y-115619511D02*
X124005677Y-115643321D01*
X124005677Y-115643321D02*
X124029486Y-115667130D01*
X124029486Y-115667130D02*
X124053296Y-115643321D01*
X124053296Y-115643321D02*
X124029486Y-115619511D01*
X124029486Y-115619511D02*
X124029486Y-115667130D01*
X124267581Y-116119511D02*
X124267581Y-115786178D01*
X124267581Y-115833797D02*
X124291391Y-115809987D01*
X124291391Y-115809987D02*
X124339010Y-115786178D01*
X124339010Y-115786178D02*
X124410438Y-115786178D01*
X124410438Y-115786178D02*
X124458057Y-115809987D01*
X124458057Y-115809987D02*
X124481867Y-115857606D01*
X124481867Y-115857606D02*
X124481867Y-116119511D01*
X124481867Y-115857606D02*
X124505676Y-115809987D01*
X124505676Y-115809987D02*
X124553295Y-115786178D01*
X124553295Y-115786178D02*
X124624724Y-115786178D01*
X124624724Y-115786178D02*
X124672343Y-115809987D01*
X124672343Y-115809987D02*
X124696153Y-115857606D01*
X124696153Y-115857606D02*
X124696153Y-116119511D01*
X125124724Y-116095702D02*
X125077105Y-116119511D01*
X125077105Y-116119511D02*
X124981867Y-116119511D01*
X124981867Y-116119511D02*
X124934248Y-116095702D01*
X124934248Y-116095702D02*
X124910439Y-116048082D01*
X124910439Y-116048082D02*
X124910439Y-115857606D01*
X124910439Y-115857606D02*
X124934248Y-115809987D01*
X124934248Y-115809987D02*
X124981867Y-115786178D01*
X124981867Y-115786178D02*
X125077105Y-115786178D01*
X125077105Y-115786178D02*
X125124724Y-115809987D01*
X125124724Y-115809987D02*
X125148534Y-115857606D01*
X125148534Y-115857606D02*
X125148534Y-115905225D01*
X125148534Y-115905225D02*
X124910439Y-115952844D01*
X125362819Y-116071892D02*
X125386629Y-116095702D01*
X125386629Y-116095702D02*
X125362819Y-116119511D01*
X125362819Y-116119511D02*
X125339010Y-116095702D01*
X125339010Y-116095702D02*
X125362819Y-116071892D01*
X125362819Y-116071892D02*
X125362819Y-116119511D01*
X125362819Y-115929035D02*
X125339010Y-115643321D01*
X125339010Y-115643321D02*
X125362819Y-115619511D01*
X125362819Y-115619511D02*
X125386629Y-115643321D01*
X125386629Y-115643321D02*
X125362819Y-115929035D01*
X125362819Y-115929035D02*
X125362819Y-115619511D01*
X116953551Y-104929553D02*
X116786885Y-104691458D01*
X116667837Y-104929553D02*
X116667837Y-104429553D01*
X116667837Y-104429553D02*
X116858313Y-104429553D01*
X116858313Y-104429553D02*
X116905932Y-104453363D01*
X116905932Y-104453363D02*
X116929742Y-104477172D01*
X116929742Y-104477172D02*
X116953551Y-104524791D01*
X116953551Y-104524791D02*
X116953551Y-104596220D01*
X116953551Y-104596220D02*
X116929742Y-104643839D01*
X116929742Y-104643839D02*
X116905932Y-104667648D01*
X116905932Y-104667648D02*
X116858313Y-104691458D01*
X116858313Y-104691458D02*
X116667837Y-104691458D01*
X117144028Y-104905744D02*
X117215456Y-104929553D01*
X117215456Y-104929553D02*
X117334504Y-104929553D01*
X117334504Y-104929553D02*
X117382123Y-104905744D01*
X117382123Y-104905744D02*
X117405932Y-104881934D01*
X117405932Y-104881934D02*
X117429742Y-104834315D01*
X117429742Y-104834315D02*
X117429742Y-104786696D01*
X117429742Y-104786696D02*
X117405932Y-104739077D01*
X117405932Y-104739077D02*
X117382123Y-104715267D01*
X117382123Y-104715267D02*
X117334504Y-104691458D01*
X117334504Y-104691458D02*
X117239266Y-104667648D01*
X117239266Y-104667648D02*
X117191647Y-104643839D01*
X117191647Y-104643839D02*
X117167837Y-104620029D01*
X117167837Y-104620029D02*
X117144028Y-104572410D01*
X117144028Y-104572410D02*
X117144028Y-104524791D01*
X117144028Y-104524791D02*
X117167837Y-104477172D01*
X117167837Y-104477172D02*
X117191647Y-104453363D01*
X117191647Y-104453363D02*
X117239266Y-104429553D01*
X117239266Y-104429553D02*
X117358313Y-104429553D01*
X117358313Y-104429553D02*
X117429742Y-104453363D01*
X117572599Y-104429553D02*
X117858313Y-104429553D01*
X117715456Y-104929553D02*
X117715456Y-104429553D01*
X138923143Y-101381252D02*
X138994571Y-101405062D01*
X138994571Y-101405062D02*
X139018381Y-101428871D01*
X139018381Y-101428871D02*
X139042190Y-101476490D01*
X139042190Y-101476490D02*
X139042190Y-101547919D01*
X139042190Y-101547919D02*
X139018381Y-101595538D01*
X139018381Y-101595538D02*
X138994571Y-101619348D01*
X138994571Y-101619348D02*
X138946952Y-101643157D01*
X138946952Y-101643157D02*
X138756476Y-101643157D01*
X138756476Y-101643157D02*
X138756476Y-101143157D01*
X138756476Y-101143157D02*
X138923143Y-101143157D01*
X138923143Y-101143157D02*
X138970762Y-101166967D01*
X138970762Y-101166967D02*
X138994571Y-101190776D01*
X138994571Y-101190776D02*
X139018381Y-101238395D01*
X139018381Y-101238395D02*
X139018381Y-101286014D01*
X139018381Y-101286014D02*
X138994571Y-101333633D01*
X138994571Y-101333633D02*
X138970762Y-101357443D01*
X138970762Y-101357443D02*
X138923143Y-101381252D01*
X138923143Y-101381252D02*
X138756476Y-101381252D01*
X139327905Y-101643157D02*
X139280286Y-101619348D01*
X139280286Y-101619348D02*
X139256476Y-101595538D01*
X139256476Y-101595538D02*
X139232667Y-101547919D01*
X139232667Y-101547919D02*
X139232667Y-101405062D01*
X139232667Y-101405062D02*
X139256476Y-101357443D01*
X139256476Y-101357443D02*
X139280286Y-101333633D01*
X139280286Y-101333633D02*
X139327905Y-101309824D01*
X139327905Y-101309824D02*
X139399333Y-101309824D01*
X139399333Y-101309824D02*
X139446952Y-101333633D01*
X139446952Y-101333633D02*
X139470762Y-101357443D01*
X139470762Y-101357443D02*
X139494571Y-101405062D01*
X139494571Y-101405062D02*
X139494571Y-101547919D01*
X139494571Y-101547919D02*
X139470762Y-101595538D01*
X139470762Y-101595538D02*
X139446952Y-101619348D01*
X139446952Y-101619348D02*
X139399333Y-101643157D01*
X139399333Y-101643157D02*
X139327905Y-101643157D01*
X139685048Y-101619348D02*
X139756476Y-101643157D01*
X139756476Y-101643157D02*
X139875524Y-101643157D01*
X139875524Y-101643157D02*
X139923143Y-101619348D01*
X139923143Y-101619348D02*
X139946952Y-101595538D01*
X139946952Y-101595538D02*
X139970762Y-101547919D01*
X139970762Y-101547919D02*
X139970762Y-101500300D01*
X139970762Y-101500300D02*
X139946952Y-101452681D01*
X139946952Y-101452681D02*
X139923143Y-101428871D01*
X139923143Y-101428871D02*
X139875524Y-101405062D01*
X139875524Y-101405062D02*
X139780286Y-101381252D01*
X139780286Y-101381252D02*
X139732667Y-101357443D01*
X139732667Y-101357443D02*
X139708857Y-101333633D01*
X139708857Y-101333633D02*
X139685048Y-101286014D01*
X139685048Y-101286014D02*
X139685048Y-101238395D01*
X139685048Y-101238395D02*
X139708857Y-101190776D01*
X139708857Y-101190776D02*
X139732667Y-101166967D01*
X139732667Y-101166967D02*
X139780286Y-101143157D01*
X139780286Y-101143157D02*
X139899333Y-101143157D01*
X139899333Y-101143157D02*
X139970762Y-101166967D01*
X140423142Y-101643157D02*
X140185047Y-101643157D01*
X140185047Y-101643157D02*
X140185047Y-101143157D01*
X140970761Y-101643157D02*
X140970761Y-101309824D01*
X140970761Y-101143157D02*
X140946952Y-101166967D01*
X140946952Y-101166967D02*
X140970761Y-101190776D01*
X140970761Y-101190776D02*
X140994571Y-101166967D01*
X140994571Y-101166967D02*
X140970761Y-101143157D01*
X140970761Y-101143157D02*
X140970761Y-101190776D01*
X141208856Y-101309824D02*
X141208856Y-101643157D01*
X141208856Y-101357443D02*
X141232666Y-101333633D01*
X141232666Y-101333633D02*
X141280285Y-101309824D01*
X141280285Y-101309824D02*
X141351713Y-101309824D01*
X141351713Y-101309824D02*
X141399332Y-101333633D01*
X141399332Y-101333633D02*
X141423142Y-101381252D01*
X141423142Y-101381252D02*
X141423142Y-101643157D01*
X141661237Y-101452681D02*
X142042190Y-101452681D01*
X142232666Y-101309824D02*
X142327904Y-101643157D01*
X142327904Y-101643157D02*
X142423142Y-101405062D01*
X142423142Y-101405062D02*
X142518380Y-101643157D01*
X142518380Y-101643157D02*
X142613618Y-101309824D01*
X143018381Y-101643157D02*
X143018381Y-101381252D01*
X143018381Y-101381252D02*
X142994571Y-101333633D01*
X142994571Y-101333633D02*
X142946952Y-101309824D01*
X142946952Y-101309824D02*
X142851714Y-101309824D01*
X142851714Y-101309824D02*
X142804095Y-101333633D01*
X143018381Y-101619348D02*
X142970762Y-101643157D01*
X142970762Y-101643157D02*
X142851714Y-101643157D01*
X142851714Y-101643157D02*
X142804095Y-101619348D01*
X142804095Y-101619348D02*
X142780286Y-101571728D01*
X142780286Y-101571728D02*
X142780286Y-101524109D01*
X142780286Y-101524109D02*
X142804095Y-101476490D01*
X142804095Y-101476490D02*
X142851714Y-101452681D01*
X142851714Y-101452681D02*
X142970762Y-101452681D01*
X142970762Y-101452681D02*
X143018381Y-101428871D01*
X143185048Y-101309824D02*
X143375524Y-101309824D01*
X143256476Y-101143157D02*
X143256476Y-101571728D01*
X143256476Y-101571728D02*
X143280286Y-101619348D01*
X143280286Y-101619348D02*
X143327905Y-101643157D01*
X143327905Y-101643157D02*
X143375524Y-101643157D01*
X143732666Y-101619348D02*
X143685047Y-101643157D01*
X143685047Y-101643157D02*
X143589809Y-101643157D01*
X143589809Y-101643157D02*
X143542190Y-101619348D01*
X143542190Y-101619348D02*
X143518381Y-101571728D01*
X143518381Y-101571728D02*
X143518381Y-101381252D01*
X143518381Y-101381252D02*
X143542190Y-101333633D01*
X143542190Y-101333633D02*
X143589809Y-101309824D01*
X143589809Y-101309824D02*
X143685047Y-101309824D01*
X143685047Y-101309824D02*
X143732666Y-101333633D01*
X143732666Y-101333633D02*
X143756476Y-101381252D01*
X143756476Y-101381252D02*
X143756476Y-101428871D01*
X143756476Y-101428871D02*
X143518381Y-101476490D01*
X143970761Y-101643157D02*
X143970761Y-101309824D01*
X143970761Y-101405062D02*
X143994571Y-101357443D01*
X143994571Y-101357443D02*
X144018380Y-101333633D01*
X144018380Y-101333633D02*
X144065999Y-101309824D01*
X144065999Y-101309824D02*
X144113618Y-101309824D01*
X144280285Y-101452681D02*
X144661238Y-101452681D01*
X144827905Y-101309824D02*
X145018381Y-101309824D01*
X144899333Y-101143157D02*
X144899333Y-101571728D01*
X144899333Y-101571728D02*
X144923143Y-101619348D01*
X144923143Y-101619348D02*
X144970762Y-101643157D01*
X144970762Y-101643157D02*
X145018381Y-101643157D01*
X145399333Y-101309824D02*
X145399333Y-101643157D01*
X145185047Y-101309824D02*
X145185047Y-101571728D01*
X145185047Y-101571728D02*
X145208857Y-101619348D01*
X145208857Y-101619348D02*
X145256476Y-101643157D01*
X145256476Y-101643157D02*
X145327904Y-101643157D01*
X145327904Y-101643157D02*
X145375523Y-101619348D01*
X145375523Y-101619348D02*
X145399333Y-101595538D01*
X145637428Y-101643157D02*
X145637428Y-101309824D01*
X145637428Y-101405062D02*
X145661238Y-101357443D01*
X145661238Y-101357443D02*
X145685047Y-101333633D01*
X145685047Y-101333633D02*
X145732666Y-101309824D01*
X145732666Y-101309824D02*
X145780285Y-101309824D01*
X145946952Y-101643157D02*
X145946952Y-101143157D01*
X145946952Y-101333633D02*
X145994571Y-101309824D01*
X145994571Y-101309824D02*
X146089809Y-101309824D01*
X146089809Y-101309824D02*
X146137428Y-101333633D01*
X146137428Y-101333633D02*
X146161238Y-101357443D01*
X146161238Y-101357443D02*
X146185047Y-101405062D01*
X146185047Y-101405062D02*
X146185047Y-101547919D01*
X146185047Y-101547919D02*
X146161238Y-101595538D01*
X146161238Y-101595538D02*
X146137428Y-101619348D01*
X146137428Y-101619348D02*
X146089809Y-101643157D01*
X146089809Y-101643157D02*
X145994571Y-101643157D01*
X145994571Y-101643157D02*
X145946952Y-101619348D01*
X142994574Y-102448157D02*
X142994574Y-102114824D01*
X142994574Y-102210062D02*
X143018384Y-102162443D01*
X143018384Y-102162443D02*
X143042193Y-102138633D01*
X143042193Y-102138633D02*
X143089812Y-102114824D01*
X143089812Y-102114824D02*
X143137431Y-102114824D01*
X143494574Y-102424348D02*
X143446955Y-102448157D01*
X143446955Y-102448157D02*
X143351717Y-102448157D01*
X143351717Y-102448157D02*
X143304098Y-102424348D01*
X143304098Y-102424348D02*
X143280289Y-102376728D01*
X143280289Y-102376728D02*
X143280289Y-102186252D01*
X143280289Y-102186252D02*
X143304098Y-102138633D01*
X143304098Y-102138633D02*
X143351717Y-102114824D01*
X143351717Y-102114824D02*
X143446955Y-102114824D01*
X143446955Y-102114824D02*
X143494574Y-102138633D01*
X143494574Y-102138633D02*
X143518384Y-102186252D01*
X143518384Y-102186252D02*
X143518384Y-102233871D01*
X143518384Y-102233871D02*
X143280289Y-102281490D01*
X143685050Y-102114824D02*
X143804098Y-102448157D01*
X143804098Y-102448157D02*
X143923145Y-102114824D01*
X144589811Y-101948157D02*
X144637430Y-101948157D01*
X144637430Y-101948157D02*
X144685049Y-101971967D01*
X144685049Y-101971967D02*
X144708859Y-101995776D01*
X144708859Y-101995776D02*
X144732668Y-102043395D01*
X144732668Y-102043395D02*
X144756478Y-102138633D01*
X144756478Y-102138633D02*
X144756478Y-102257681D01*
X144756478Y-102257681D02*
X144732668Y-102352919D01*
X144732668Y-102352919D02*
X144708859Y-102400538D01*
X144708859Y-102400538D02*
X144685049Y-102424348D01*
X144685049Y-102424348D02*
X144637430Y-102448157D01*
X144637430Y-102448157D02*
X144589811Y-102448157D01*
X144589811Y-102448157D02*
X144542192Y-102424348D01*
X144542192Y-102424348D02*
X144518383Y-102400538D01*
X144518383Y-102400538D02*
X144494573Y-102352919D01*
X144494573Y-102352919D02*
X144470764Y-102257681D01*
X144470764Y-102257681D02*
X144470764Y-102138633D01*
X144470764Y-102138633D02*
X144494573Y-102043395D01*
X144494573Y-102043395D02*
X144518383Y-101995776D01*
X144518383Y-101995776D02*
X144542192Y-101971967D01*
X144542192Y-101971967D02*
X144589811Y-101948157D01*
X144970763Y-102400538D02*
X144994573Y-102424348D01*
X144994573Y-102424348D02*
X144970763Y-102448157D01*
X144970763Y-102448157D02*
X144946954Y-102424348D01*
X144946954Y-102424348D02*
X144970763Y-102400538D01*
X144970763Y-102400538D02*
X144970763Y-102448157D01*
X145470763Y-102448157D02*
X145185049Y-102448157D01*
X145327906Y-102448157D02*
X145327906Y-101948157D01*
X145327906Y-101948157D02*
X145280287Y-102019586D01*
X145280287Y-102019586D02*
X145232668Y-102067205D01*
X145232668Y-102067205D02*
X145185049Y-102091014D01*
X145685048Y-102400538D02*
X145708858Y-102424348D01*
X145708858Y-102424348D02*
X145685048Y-102448157D01*
X145685048Y-102448157D02*
X145661239Y-102424348D01*
X145661239Y-102424348D02*
X145685048Y-102400538D01*
X145685048Y-102400538D02*
X145685048Y-102448157D01*
X146018381Y-101948157D02*
X146066000Y-101948157D01*
X146066000Y-101948157D02*
X146113619Y-101971967D01*
X146113619Y-101971967D02*
X146137429Y-101995776D01*
X146137429Y-101995776D02*
X146161238Y-102043395D01*
X146161238Y-102043395D02*
X146185048Y-102138633D01*
X146185048Y-102138633D02*
X146185048Y-102257681D01*
X146185048Y-102257681D02*
X146161238Y-102352919D01*
X146161238Y-102352919D02*
X146137429Y-102400538D01*
X146137429Y-102400538D02*
X146113619Y-102424348D01*
X146113619Y-102424348D02*
X146066000Y-102448157D01*
X146066000Y-102448157D02*
X146018381Y-102448157D01*
X146018381Y-102448157D02*
X145970762Y-102424348D01*
X145970762Y-102424348D02*
X145946953Y-102400538D01*
X145946953Y-102400538D02*
X145923143Y-102352919D01*
X145923143Y-102352919D02*
X145899334Y-102257681D01*
X145899334Y-102257681D02*
X145899334Y-102138633D01*
X145899334Y-102138633D02*
X145923143Y-102043395D01*
X145923143Y-102043395D02*
X145946953Y-101995776D01*
X145946953Y-101995776D02*
X145970762Y-101971967D01*
X145970762Y-101971967D02*
X146018381Y-101948157D01*
X116429855Y-106832309D02*
X116596521Y-107332309D01*
X116596521Y-107332309D02*
X116763188Y-106832309D01*
X116929854Y-107141833D02*
X117310807Y-107141833D01*
X117120330Y-107332309D02*
X117120330Y-106951357D01*
X110239918Y-102373762D02*
X110358966Y-102873762D01*
X110358966Y-102873762D02*
X110454204Y-102516619D01*
X110454204Y-102516619D02*
X110549442Y-102873762D01*
X110549442Y-102873762D02*
X110668490Y-102373762D01*
X110858966Y-102873762D02*
X110858966Y-102373762D01*
X111144680Y-102873762D02*
X110930395Y-102588048D01*
X111144680Y-102373762D02*
X110858966Y-102659476D01*
X111358966Y-102611857D02*
X111525633Y-102611857D01*
X111597061Y-102873762D02*
X111358966Y-102873762D01*
X111358966Y-102873762D02*
X111358966Y-102373762D01*
X111358966Y-102373762D02*
X111597061Y-102373762D01*
X120280301Y-116688302D02*
X120446967Y-117188302D01*
X120446967Y-117188302D02*
X120613634Y-116688302D01*
X120780300Y-116997826D02*
X121161253Y-116997826D01*
X120970776Y-117188302D02*
X120970776Y-116807350D01*
X121399348Y-117140683D02*
X121423158Y-117164493D01*
X121423158Y-117164493D02*
X121399348Y-117188302D01*
X121399348Y-117188302D02*
X121375539Y-117164493D01*
X121375539Y-117164493D02*
X121399348Y-117140683D01*
X121399348Y-117140683D02*
X121399348Y-117188302D01*
X121399348Y-116878778D02*
X121423158Y-116902588D01*
X121423158Y-116902588D02*
X121399348Y-116926397D01*
X121399348Y-116926397D02*
X121375539Y-116902588D01*
X121375539Y-116902588D02*
X121399348Y-116878778D01*
X121399348Y-116878778D02*
X121399348Y-116926397D01*
X121970776Y-116688302D02*
X122280300Y-116688302D01*
X122280300Y-116688302D02*
X122113633Y-116878778D01*
X122113633Y-116878778D02*
X122185062Y-116878778D01*
X122185062Y-116878778D02*
X122232681Y-116902588D01*
X122232681Y-116902588D02*
X122256490Y-116926397D01*
X122256490Y-116926397D02*
X122280300Y-116974016D01*
X122280300Y-116974016D02*
X122280300Y-117093064D01*
X122280300Y-117093064D02*
X122256490Y-117140683D01*
X122256490Y-117140683D02*
X122232681Y-117164493D01*
X122232681Y-117164493D02*
X122185062Y-117188302D01*
X122185062Y-117188302D02*
X122042205Y-117188302D01*
X122042205Y-117188302D02*
X121994586Y-117164493D01*
X121994586Y-117164493D02*
X121970776Y-117140683D01*
X122494585Y-117140683D02*
X122518395Y-117164493D01*
X122518395Y-117164493D02*
X122494585Y-117188302D01*
X122494585Y-117188302D02*
X122470776Y-117164493D01*
X122470776Y-117164493D02*
X122494585Y-117140683D01*
X122494585Y-117140683D02*
X122494585Y-117188302D01*
X122946966Y-116688302D02*
X122851728Y-116688302D01*
X122851728Y-116688302D02*
X122804109Y-116712112D01*
X122804109Y-116712112D02*
X122780299Y-116735921D01*
X122780299Y-116735921D02*
X122732680Y-116807350D01*
X122732680Y-116807350D02*
X122708871Y-116902588D01*
X122708871Y-116902588D02*
X122708871Y-117093064D01*
X122708871Y-117093064D02*
X122732680Y-117140683D01*
X122732680Y-117140683D02*
X122756490Y-117164493D01*
X122756490Y-117164493D02*
X122804109Y-117188302D01*
X122804109Y-117188302D02*
X122899347Y-117188302D01*
X122899347Y-117188302D02*
X122946966Y-117164493D01*
X122946966Y-117164493D02*
X122970775Y-117140683D01*
X122970775Y-117140683D02*
X122994585Y-117093064D01*
X122994585Y-117093064D02*
X122994585Y-116974016D01*
X122994585Y-116974016D02*
X122970775Y-116926397D01*
X122970775Y-116926397D02*
X122946966Y-116902588D01*
X122946966Y-116902588D02*
X122899347Y-116878778D01*
X122899347Y-116878778D02*
X122804109Y-116878778D01*
X122804109Y-116878778D02*
X122756490Y-116902588D01*
X122756490Y-116902588D02*
X122732680Y-116926397D01*
X122732680Y-116926397D02*
X122708871Y-116974016D01*
X123208870Y-116997826D02*
X123589823Y-116997826D01*
X124042204Y-116688302D02*
X123946966Y-116688302D01*
X123946966Y-116688302D02*
X123899347Y-116712112D01*
X123899347Y-116712112D02*
X123875537Y-116735921D01*
X123875537Y-116735921D02*
X123827918Y-116807350D01*
X123827918Y-116807350D02*
X123804109Y-116902588D01*
X123804109Y-116902588D02*
X123804109Y-117093064D01*
X123804109Y-117093064D02*
X123827918Y-117140683D01*
X123827918Y-117140683D02*
X123851728Y-117164493D01*
X123851728Y-117164493D02*
X123899347Y-117188302D01*
X123899347Y-117188302D02*
X123994585Y-117188302D01*
X123994585Y-117188302D02*
X124042204Y-117164493D01*
X124042204Y-117164493D02*
X124066013Y-117140683D01*
X124066013Y-117140683D02*
X124089823Y-117093064D01*
X124089823Y-117093064D02*
X124089823Y-116974016D01*
X124089823Y-116974016D02*
X124066013Y-116926397D01*
X124066013Y-116926397D02*
X124042204Y-116902588D01*
X124042204Y-116902588D02*
X123994585Y-116878778D01*
X123994585Y-116878778D02*
X123899347Y-116878778D01*
X123899347Y-116878778D02*
X123851728Y-116902588D01*
X123851728Y-116902588D02*
X123827918Y-116926397D01*
X123827918Y-116926397D02*
X123804109Y-116974016D01*
X124232680Y-116688302D02*
X124399346Y-117188302D01*
X124399346Y-117188302D02*
X124566013Y-116688302D01*
X124732679Y-117188302D02*
X124732679Y-116688302D01*
X124732679Y-116688302D02*
X124851727Y-116688302D01*
X124851727Y-116688302D02*
X124923155Y-116712112D01*
X124923155Y-116712112D02*
X124970774Y-116759731D01*
X124970774Y-116759731D02*
X124994584Y-116807350D01*
X124994584Y-116807350D02*
X125018393Y-116902588D01*
X125018393Y-116902588D02*
X125018393Y-116974016D01*
X125018393Y-116974016D02*
X124994584Y-117069254D01*
X124994584Y-117069254D02*
X124970774Y-117116873D01*
X124970774Y-117116873D02*
X124923155Y-117164493D01*
X124923155Y-117164493D02*
X124851727Y-117188302D01*
X124851727Y-117188302D02*
X124732679Y-117188302D01*
X125518393Y-117140683D02*
X125494584Y-117164493D01*
X125494584Y-117164493D02*
X125423155Y-117188302D01*
X125423155Y-117188302D02*
X125375536Y-117188302D01*
X125375536Y-117188302D02*
X125304108Y-117164493D01*
X125304108Y-117164493D02*
X125256489Y-117116873D01*
X125256489Y-117116873D02*
X125232679Y-117069254D01*
X125232679Y-117069254D02*
X125208870Y-116974016D01*
X125208870Y-116974016D02*
X125208870Y-116902588D01*
X125208870Y-116902588D02*
X125232679Y-116807350D01*
X125232679Y-116807350D02*
X125256489Y-116759731D01*
X125256489Y-116759731D02*
X125304108Y-116712112D01*
X125304108Y-116712112D02*
X125375536Y-116688302D01*
X125375536Y-116688302D02*
X125423155Y-116688302D01*
X125423155Y-116688302D02*
X125494584Y-116712112D01*
X125494584Y-116712112D02*
X125518393Y-116735921D01*
X125756489Y-117164493D02*
X125756489Y-117188302D01*
X125756489Y-117188302D02*
X125732679Y-117235921D01*
X125732679Y-117235921D02*
X125708870Y-117259731D01*
X125732679Y-116878778D02*
X125756489Y-116902588D01*
X125756489Y-116902588D02*
X125732679Y-116926397D01*
X125732679Y-116926397D02*
X125708870Y-116902588D01*
X125708870Y-116902588D02*
X125732679Y-116878778D01*
X125732679Y-116878778D02*
X125732679Y-116926397D01*
X126304107Y-116688302D02*
X126613631Y-116688302D01*
X126613631Y-116688302D02*
X126446964Y-116878778D01*
X126446964Y-116878778D02*
X126518393Y-116878778D01*
X126518393Y-116878778D02*
X126566012Y-116902588D01*
X126566012Y-116902588D02*
X126589821Y-116926397D01*
X126589821Y-116926397D02*
X126613631Y-116974016D01*
X126613631Y-116974016D02*
X126613631Y-117093064D01*
X126613631Y-117093064D02*
X126589821Y-117140683D01*
X126589821Y-117140683D02*
X126566012Y-117164493D01*
X126566012Y-117164493D02*
X126518393Y-117188302D01*
X126518393Y-117188302D02*
X126375536Y-117188302D01*
X126375536Y-117188302D02*
X126327917Y-117164493D01*
X126327917Y-117164493D02*
X126304107Y-117140683D01*
X126827916Y-117140683D02*
X126851726Y-117164493D01*
X126851726Y-117164493D02*
X126827916Y-117188302D01*
X126827916Y-117188302D02*
X126804107Y-117164493D01*
X126804107Y-117164493D02*
X126827916Y-117140683D01*
X126827916Y-117140683D02*
X126827916Y-117188302D01*
X127018392Y-116688302D02*
X127327916Y-116688302D01*
X127327916Y-116688302D02*
X127161249Y-116878778D01*
X127161249Y-116878778D02*
X127232678Y-116878778D01*
X127232678Y-116878778D02*
X127280297Y-116902588D01*
X127280297Y-116902588D02*
X127304106Y-116926397D01*
X127304106Y-116926397D02*
X127327916Y-116974016D01*
X127327916Y-116974016D02*
X127327916Y-117093064D01*
X127327916Y-117093064D02*
X127304106Y-117140683D01*
X127304106Y-117140683D02*
X127280297Y-117164493D01*
X127280297Y-117164493D02*
X127232678Y-117188302D01*
X127232678Y-117188302D02*
X127089821Y-117188302D01*
X127089821Y-117188302D02*
X127042202Y-117164493D01*
X127042202Y-117164493D02*
X127018392Y-117140683D01*
X127470773Y-116688302D02*
X127637439Y-117188302D01*
X127637439Y-117188302D02*
X127804106Y-116688302D01*
X128351724Y-117188302D02*
X128351724Y-116854969D01*
X128351724Y-116688302D02*
X128327915Y-116712112D01*
X128327915Y-116712112D02*
X128351724Y-116735921D01*
X128351724Y-116735921D02*
X128375534Y-116712112D01*
X128375534Y-116712112D02*
X128351724Y-116688302D01*
X128351724Y-116688302D02*
X128351724Y-116735921D01*
X128566010Y-117164493D02*
X128613629Y-117188302D01*
X128613629Y-117188302D02*
X128708867Y-117188302D01*
X128708867Y-117188302D02*
X128756486Y-117164493D01*
X128756486Y-117164493D02*
X128780295Y-117116873D01*
X128780295Y-117116873D02*
X128780295Y-117093064D01*
X128780295Y-117093064D02*
X128756486Y-117045445D01*
X128756486Y-117045445D02*
X128708867Y-117021635D01*
X128708867Y-117021635D02*
X128637438Y-117021635D01*
X128637438Y-117021635D02*
X128589819Y-116997826D01*
X128589819Y-116997826D02*
X128566010Y-116950207D01*
X128566010Y-116950207D02*
X128566010Y-116926397D01*
X128566010Y-116926397D02*
X128589819Y-116878778D01*
X128589819Y-116878778D02*
X128637438Y-116854969D01*
X128637438Y-116854969D02*
X128708867Y-116854969D01*
X128708867Y-116854969D02*
X128756486Y-116878778D01*
X129327914Y-116688302D02*
X129637438Y-116688302D01*
X129637438Y-116688302D02*
X129470771Y-116878778D01*
X129470771Y-116878778D02*
X129542200Y-116878778D01*
X129542200Y-116878778D02*
X129589819Y-116902588D01*
X129589819Y-116902588D02*
X129613628Y-116926397D01*
X129613628Y-116926397D02*
X129637438Y-116974016D01*
X129637438Y-116974016D02*
X129637438Y-117093064D01*
X129637438Y-117093064D02*
X129613628Y-117140683D01*
X129613628Y-117140683D02*
X129589819Y-117164493D01*
X129589819Y-117164493D02*
X129542200Y-117188302D01*
X129542200Y-117188302D02*
X129399343Y-117188302D01*
X129399343Y-117188302D02*
X129351724Y-117164493D01*
X129351724Y-117164493D02*
X129327914Y-117140683D01*
X129851723Y-117140683D02*
X129875533Y-117164493D01*
X129875533Y-117164493D02*
X129851723Y-117188302D01*
X129851723Y-117188302D02*
X129827914Y-117164493D01*
X129827914Y-117164493D02*
X129851723Y-117140683D01*
X129851723Y-117140683D02*
X129851723Y-117188302D01*
X130042199Y-116688302D02*
X130351723Y-116688302D01*
X130351723Y-116688302D02*
X130185056Y-116878778D01*
X130185056Y-116878778D02*
X130256485Y-116878778D01*
X130256485Y-116878778D02*
X130304104Y-116902588D01*
X130304104Y-116902588D02*
X130327913Y-116926397D01*
X130327913Y-116926397D02*
X130351723Y-116974016D01*
X130351723Y-116974016D02*
X130351723Y-117093064D01*
X130351723Y-117093064D02*
X130327913Y-117140683D01*
X130327913Y-117140683D02*
X130304104Y-117164493D01*
X130304104Y-117164493D02*
X130256485Y-117188302D01*
X130256485Y-117188302D02*
X130113628Y-117188302D01*
X130113628Y-117188302D02*
X130066009Y-117164493D01*
X130066009Y-117164493D02*
X130042199Y-117140683D01*
X130494580Y-116688302D02*
X130661246Y-117188302D01*
X130661246Y-117188302D02*
X130827913Y-116688302D01*
X131446960Y-117188302D02*
X131399341Y-117164493D01*
X131399341Y-117164493D02*
X131375531Y-117140683D01*
X131375531Y-117140683D02*
X131351722Y-117093064D01*
X131351722Y-117093064D02*
X131351722Y-116950207D01*
X131351722Y-116950207D02*
X131375531Y-116902588D01*
X131375531Y-116902588D02*
X131399341Y-116878778D01*
X131399341Y-116878778D02*
X131446960Y-116854969D01*
X131446960Y-116854969D02*
X131518388Y-116854969D01*
X131518388Y-116854969D02*
X131566007Y-116878778D01*
X131566007Y-116878778D02*
X131589817Y-116902588D01*
X131589817Y-116902588D02*
X131613626Y-116950207D01*
X131613626Y-116950207D02*
X131613626Y-117093064D01*
X131613626Y-117093064D02*
X131589817Y-117140683D01*
X131589817Y-117140683D02*
X131566007Y-117164493D01*
X131566007Y-117164493D02*
X131518388Y-117188302D01*
X131518388Y-117188302D02*
X131446960Y-117188302D01*
X131827912Y-116854969D02*
X131827912Y-117188302D01*
X131827912Y-116902588D02*
X131851722Y-116878778D01*
X131851722Y-116878778D02*
X131899341Y-116854969D01*
X131899341Y-116854969D02*
X131970769Y-116854969D01*
X131970769Y-116854969D02*
X132018388Y-116878778D01*
X132018388Y-116878778D02*
X132042198Y-116926397D01*
X132042198Y-116926397D02*
X132042198Y-117188302D01*
X132351722Y-117188302D02*
X132304103Y-117164493D01*
X132304103Y-117164493D02*
X132280293Y-117116873D01*
X132280293Y-117116873D02*
X132280293Y-116688302D01*
X132494579Y-116854969D02*
X132613627Y-117188302D01*
X132732674Y-116854969D02*
X132613627Y-117188302D01*
X132613627Y-117188302D02*
X132566008Y-117307350D01*
X132566008Y-117307350D02*
X132542198Y-117331159D01*
X132542198Y-117331159D02*
X132494579Y-117354969D01*
X114696647Y-100849741D02*
X114649028Y-100825931D01*
X114649028Y-100825931D02*
X114577599Y-100825931D01*
X114577599Y-100825931D02*
X114506171Y-100849741D01*
X114506171Y-100849741D02*
X114458552Y-100897360D01*
X114458552Y-100897360D02*
X114434742Y-100944979D01*
X114434742Y-100944979D02*
X114410933Y-101040217D01*
X114410933Y-101040217D02*
X114410933Y-101111645D01*
X114410933Y-101111645D02*
X114434742Y-101206883D01*
X114434742Y-101206883D02*
X114458552Y-101254502D01*
X114458552Y-101254502D02*
X114506171Y-101302122D01*
X114506171Y-101302122D02*
X114577599Y-101325931D01*
X114577599Y-101325931D02*
X114625218Y-101325931D01*
X114625218Y-101325931D02*
X114696647Y-101302122D01*
X114696647Y-101302122D02*
X114720456Y-101278312D01*
X114720456Y-101278312D02*
X114720456Y-101111645D01*
X114720456Y-101111645D02*
X114625218Y-101111645D01*
X114934742Y-101325931D02*
X114934742Y-100825931D01*
X114934742Y-100825931D02*
X115220456Y-101325931D01*
X115220456Y-101325931D02*
X115220456Y-100825931D01*
X115458552Y-101325931D02*
X115458552Y-100825931D01*
X115458552Y-100825931D02*
X115577600Y-100825931D01*
X115577600Y-100825931D02*
X115649028Y-100849741D01*
X115649028Y-100849741D02*
X115696647Y-100897360D01*
X115696647Y-100897360D02*
X115720457Y-100944979D01*
X115720457Y-100944979D02*
X115744266Y-101040217D01*
X115744266Y-101040217D02*
X115744266Y-101111645D01*
X115744266Y-101111645D02*
X115720457Y-101206883D01*
X115720457Y-101206883D02*
X115696647Y-101254502D01*
X115696647Y-101254502D02*
X115649028Y-101302122D01*
X115649028Y-101302122D02*
X115577600Y-101325931D01*
X115577600Y-101325931D02*
X115458552Y-101325931D01*
X110913656Y-104907825D02*
X111199370Y-104907825D01*
X111056513Y-105407825D02*
X111056513Y-104907825D01*
X111318417Y-104907825D02*
X111651750Y-105407825D01*
X111651750Y-104907825D02*
X111318417Y-105407825D01*
X105237092Y-101074399D02*
X105213283Y-101098209D01*
X105213283Y-101098209D02*
X105141854Y-101122018D01*
X105141854Y-101122018D02*
X105094235Y-101122018D01*
X105094235Y-101122018D02*
X105022807Y-101098209D01*
X105022807Y-101098209D02*
X104975188Y-101050589D01*
X104975188Y-101050589D02*
X104951378Y-101002970D01*
X104951378Y-101002970D02*
X104927569Y-100907732D01*
X104927569Y-100907732D02*
X104927569Y-100836304D01*
X104927569Y-100836304D02*
X104951378Y-100741066D01*
X104951378Y-100741066D02*
X104975188Y-100693447D01*
X104975188Y-100693447D02*
X105022807Y-100645828D01*
X105022807Y-100645828D02*
X105094235Y-100622018D01*
X105094235Y-100622018D02*
X105141854Y-100622018D01*
X105141854Y-100622018D02*
X105213283Y-100645828D01*
X105213283Y-100645828D02*
X105237092Y-100669637D01*
X105665664Y-101122018D02*
X105665664Y-100860113D01*
X105665664Y-100860113D02*
X105641854Y-100812494D01*
X105641854Y-100812494D02*
X105594235Y-100788685D01*
X105594235Y-100788685D02*
X105498997Y-100788685D01*
X105498997Y-100788685D02*
X105451378Y-100812494D01*
X105665664Y-101098209D02*
X105618045Y-101122018D01*
X105618045Y-101122018D02*
X105498997Y-101122018D01*
X105498997Y-101122018D02*
X105451378Y-101098209D01*
X105451378Y-101098209D02*
X105427569Y-101050589D01*
X105427569Y-101050589D02*
X105427569Y-101002970D01*
X105427569Y-101002970D02*
X105451378Y-100955351D01*
X105451378Y-100955351D02*
X105498997Y-100931542D01*
X105498997Y-100931542D02*
X105618045Y-100931542D01*
X105618045Y-100931542D02*
X105665664Y-100907732D01*
X105903759Y-101122018D02*
X105903759Y-100788685D01*
X105903759Y-100883923D02*
X105927569Y-100836304D01*
X105927569Y-100836304D02*
X105951378Y-100812494D01*
X105951378Y-100812494D02*
X105998997Y-100788685D01*
X105998997Y-100788685D02*
X106046616Y-100788685D01*
X106403759Y-101098209D02*
X106356140Y-101122018D01*
X106356140Y-101122018D02*
X106260902Y-101122018D01*
X106260902Y-101122018D02*
X106213283Y-101098209D01*
X106213283Y-101098209D02*
X106189474Y-101050589D01*
X106189474Y-101050589D02*
X106189474Y-100860113D01*
X106189474Y-100860113D02*
X106213283Y-100812494D01*
X106213283Y-100812494D02*
X106260902Y-100788685D01*
X106260902Y-100788685D02*
X106356140Y-100788685D01*
X106356140Y-100788685D02*
X106403759Y-100812494D01*
X106403759Y-100812494D02*
X106427569Y-100860113D01*
X106427569Y-100860113D02*
X106427569Y-100907732D01*
X106427569Y-100907732D02*
X106189474Y-100955351D01*
X106641854Y-101074399D02*
X106665664Y-101098209D01*
X106665664Y-101098209D02*
X106641854Y-101122018D01*
X106641854Y-101122018D02*
X106618045Y-101098209D01*
X106618045Y-101098209D02*
X106641854Y-101074399D01*
X106641854Y-101074399D02*
X106641854Y-101122018D01*
X106641854Y-100812494D02*
X106665664Y-100836304D01*
X106665664Y-100836304D02*
X106641854Y-100860113D01*
X106641854Y-100860113D02*
X106618045Y-100836304D01*
X106618045Y-100836304D02*
X106641854Y-100812494D01*
X106641854Y-100812494D02*
X106641854Y-100860113D01*
X107260901Y-100788685D02*
X107260901Y-101122018D01*
X107260901Y-100836304D02*
X107284711Y-100812494D01*
X107284711Y-100812494D02*
X107332330Y-100788685D01*
X107332330Y-100788685D02*
X107403758Y-100788685D01*
X107403758Y-100788685D02*
X107451377Y-100812494D01*
X107451377Y-100812494D02*
X107475187Y-100860113D01*
X107475187Y-100860113D02*
X107475187Y-101122018D01*
X107784711Y-101122018D02*
X107737092Y-101098209D01*
X107737092Y-101098209D02*
X107713282Y-101074399D01*
X107713282Y-101074399D02*
X107689473Y-101026780D01*
X107689473Y-101026780D02*
X107689473Y-100883923D01*
X107689473Y-100883923D02*
X107713282Y-100836304D01*
X107713282Y-100836304D02*
X107737092Y-100812494D01*
X107737092Y-100812494D02*
X107784711Y-100788685D01*
X107784711Y-100788685D02*
X107856139Y-100788685D01*
X107856139Y-100788685D02*
X107903758Y-100812494D01*
X107903758Y-100812494D02*
X107927568Y-100836304D01*
X107927568Y-100836304D02*
X107951377Y-100883923D01*
X107951377Y-100883923D02*
X107951377Y-101026780D01*
X107951377Y-101026780D02*
X107927568Y-101074399D01*
X107927568Y-101074399D02*
X107903758Y-101098209D01*
X107903758Y-101098209D02*
X107856139Y-101122018D01*
X107856139Y-101122018D02*
X107784711Y-101122018D01*
X108546615Y-101122018D02*
X108546615Y-100788685D01*
X108546615Y-100883923D02*
X108570425Y-100836304D01*
X108570425Y-100836304D02*
X108594234Y-100812494D01*
X108594234Y-100812494D02*
X108641853Y-100788685D01*
X108641853Y-100788685D02*
X108689472Y-100788685D01*
X109046615Y-101098209D02*
X108998996Y-101122018D01*
X108998996Y-101122018D02*
X108903758Y-101122018D01*
X108903758Y-101122018D02*
X108856139Y-101098209D01*
X108856139Y-101098209D02*
X108832330Y-101050589D01*
X108832330Y-101050589D02*
X108832330Y-100860113D01*
X108832330Y-100860113D02*
X108856139Y-100812494D01*
X108856139Y-100812494D02*
X108903758Y-100788685D01*
X108903758Y-100788685D02*
X108998996Y-100788685D01*
X108998996Y-100788685D02*
X109046615Y-100812494D01*
X109046615Y-100812494D02*
X109070425Y-100860113D01*
X109070425Y-100860113D02*
X109070425Y-100907732D01*
X109070425Y-100907732D02*
X108832330Y-100955351D01*
X109237091Y-100788685D02*
X109356139Y-101122018D01*
X109356139Y-101122018D02*
X109475186Y-100788685D01*
X109856138Y-101098209D02*
X109808519Y-101122018D01*
X109808519Y-101122018D02*
X109713281Y-101122018D01*
X109713281Y-101122018D02*
X109665662Y-101098209D01*
X109665662Y-101098209D02*
X109641853Y-101050589D01*
X109641853Y-101050589D02*
X109641853Y-100860113D01*
X109641853Y-100860113D02*
X109665662Y-100812494D01*
X109665662Y-100812494D02*
X109713281Y-100788685D01*
X109713281Y-100788685D02*
X109808519Y-100788685D01*
X109808519Y-100788685D02*
X109856138Y-100812494D01*
X109856138Y-100812494D02*
X109879948Y-100860113D01*
X109879948Y-100860113D02*
X109879948Y-100907732D01*
X109879948Y-100907732D02*
X109641853Y-100955351D01*
X110094233Y-101122018D02*
X110094233Y-100788685D01*
X110094233Y-100883923D02*
X110118043Y-100836304D01*
X110118043Y-100836304D02*
X110141852Y-100812494D01*
X110141852Y-100812494D02*
X110189471Y-100788685D01*
X110189471Y-100788685D02*
X110237090Y-100788685D01*
X110379948Y-101098209D02*
X110427567Y-101122018D01*
X110427567Y-101122018D02*
X110522805Y-101122018D01*
X110522805Y-101122018D02*
X110570424Y-101098209D01*
X110570424Y-101098209D02*
X110594233Y-101050589D01*
X110594233Y-101050589D02*
X110594233Y-101026780D01*
X110594233Y-101026780D02*
X110570424Y-100979161D01*
X110570424Y-100979161D02*
X110522805Y-100955351D01*
X110522805Y-100955351D02*
X110451376Y-100955351D01*
X110451376Y-100955351D02*
X110403757Y-100931542D01*
X110403757Y-100931542D02*
X110379948Y-100883923D01*
X110379948Y-100883923D02*
X110379948Y-100860113D01*
X110379948Y-100860113D02*
X110403757Y-100812494D01*
X110403757Y-100812494D02*
X110451376Y-100788685D01*
X110451376Y-100788685D02*
X110522805Y-100788685D01*
X110522805Y-100788685D02*
X110570424Y-100812494D01*
X110998995Y-101098209D02*
X110951376Y-101122018D01*
X110951376Y-101122018D02*
X110856138Y-101122018D01*
X110856138Y-101122018D02*
X110808519Y-101098209D01*
X110808519Y-101098209D02*
X110784710Y-101050589D01*
X110784710Y-101050589D02*
X110784710Y-100860113D01*
X110784710Y-100860113D02*
X110808519Y-100812494D01*
X110808519Y-100812494D02*
X110856138Y-100788685D01*
X110856138Y-100788685D02*
X110951376Y-100788685D01*
X110951376Y-100788685D02*
X110998995Y-100812494D01*
X110998995Y-100812494D02*
X111022805Y-100860113D01*
X111022805Y-100860113D02*
X111022805Y-100907732D01*
X111022805Y-100907732D02*
X110784710Y-100955351D01*
X104951378Y-101593685D02*
X104951378Y-102093685D01*
X104951378Y-101617494D02*
X104998997Y-101593685D01*
X104998997Y-101593685D02*
X105094235Y-101593685D01*
X105094235Y-101593685D02*
X105141854Y-101617494D01*
X105141854Y-101617494D02*
X105165664Y-101641304D01*
X105165664Y-101641304D02*
X105189473Y-101688923D01*
X105189473Y-101688923D02*
X105189473Y-101831780D01*
X105189473Y-101831780D02*
X105165664Y-101879399D01*
X105165664Y-101879399D02*
X105141854Y-101903209D01*
X105141854Y-101903209D02*
X105094235Y-101927018D01*
X105094235Y-101927018D02*
X104998997Y-101927018D01*
X104998997Y-101927018D02*
X104951378Y-101903209D01*
X105475188Y-101927018D02*
X105427569Y-101903209D01*
X105427569Y-101903209D02*
X105403759Y-101879399D01*
X105403759Y-101879399D02*
X105379950Y-101831780D01*
X105379950Y-101831780D02*
X105379950Y-101688923D01*
X105379950Y-101688923D02*
X105403759Y-101641304D01*
X105403759Y-101641304D02*
X105427569Y-101617494D01*
X105427569Y-101617494D02*
X105475188Y-101593685D01*
X105475188Y-101593685D02*
X105546616Y-101593685D01*
X105546616Y-101593685D02*
X105594235Y-101617494D01*
X105594235Y-101617494D02*
X105618045Y-101641304D01*
X105618045Y-101641304D02*
X105641854Y-101688923D01*
X105641854Y-101688923D02*
X105641854Y-101831780D01*
X105641854Y-101831780D02*
X105618045Y-101879399D01*
X105618045Y-101879399D02*
X105594235Y-101903209D01*
X105594235Y-101903209D02*
X105546616Y-101927018D01*
X105546616Y-101927018D02*
X105475188Y-101927018D01*
X105927569Y-101927018D02*
X105879950Y-101903209D01*
X105879950Y-101903209D02*
X105856140Y-101855589D01*
X105856140Y-101855589D02*
X105856140Y-101427018D01*
X106332331Y-101927018D02*
X106332331Y-101665113D01*
X106332331Y-101665113D02*
X106308521Y-101617494D01*
X106308521Y-101617494D02*
X106260902Y-101593685D01*
X106260902Y-101593685D02*
X106165664Y-101593685D01*
X106165664Y-101593685D02*
X106118045Y-101617494D01*
X106332331Y-101903209D02*
X106284712Y-101927018D01*
X106284712Y-101927018D02*
X106165664Y-101927018D01*
X106165664Y-101927018D02*
X106118045Y-101903209D01*
X106118045Y-101903209D02*
X106094236Y-101855589D01*
X106094236Y-101855589D02*
X106094236Y-101807970D01*
X106094236Y-101807970D02*
X106118045Y-101760351D01*
X106118045Y-101760351D02*
X106165664Y-101736542D01*
X106165664Y-101736542D02*
X106284712Y-101736542D01*
X106284712Y-101736542D02*
X106332331Y-101712732D01*
X106570426Y-101927018D02*
X106570426Y-101593685D01*
X106570426Y-101688923D02*
X106594236Y-101641304D01*
X106594236Y-101641304D02*
X106618045Y-101617494D01*
X106618045Y-101617494D02*
X106665664Y-101593685D01*
X106665664Y-101593685D02*
X106713283Y-101593685D01*
X106879950Y-101927018D02*
X106879950Y-101593685D01*
X106879950Y-101427018D02*
X106856141Y-101450828D01*
X106856141Y-101450828D02*
X106879950Y-101474637D01*
X106879950Y-101474637D02*
X106903760Y-101450828D01*
X106903760Y-101450828D02*
X106879950Y-101427018D01*
X106879950Y-101427018D02*
X106879950Y-101474637D01*
X107046617Y-101593685D02*
X107237093Y-101593685D01*
X107118045Y-101427018D02*
X107118045Y-101855589D01*
X107118045Y-101855589D02*
X107141855Y-101903209D01*
X107141855Y-101903209D02*
X107189474Y-101927018D01*
X107189474Y-101927018D02*
X107237093Y-101927018D01*
X107356140Y-101593685D02*
X107475188Y-101927018D01*
X107594235Y-101593685D02*
X107475188Y-101927018D01*
X107475188Y-101927018D02*
X107427569Y-102046066D01*
X107427569Y-102046066D02*
X107403759Y-102069875D01*
X107403759Y-102069875D02*
X107356140Y-102093685D01*
X108165663Y-101593685D02*
X108165663Y-102093685D01*
X108165663Y-101617494D02*
X108213282Y-101593685D01*
X108213282Y-101593685D02*
X108308520Y-101593685D01*
X108308520Y-101593685D02*
X108356139Y-101617494D01*
X108356139Y-101617494D02*
X108379949Y-101641304D01*
X108379949Y-101641304D02*
X108403758Y-101688923D01*
X108403758Y-101688923D02*
X108403758Y-101831780D01*
X108403758Y-101831780D02*
X108379949Y-101879399D01*
X108379949Y-101879399D02*
X108356139Y-101903209D01*
X108356139Y-101903209D02*
X108308520Y-101927018D01*
X108308520Y-101927018D02*
X108213282Y-101927018D01*
X108213282Y-101927018D02*
X108165663Y-101903209D01*
X108618044Y-101927018D02*
X108618044Y-101593685D01*
X108618044Y-101688923D02*
X108641854Y-101641304D01*
X108641854Y-101641304D02*
X108665663Y-101617494D01*
X108665663Y-101617494D02*
X108713282Y-101593685D01*
X108713282Y-101593685D02*
X108760901Y-101593685D01*
X108998997Y-101927018D02*
X108951378Y-101903209D01*
X108951378Y-101903209D02*
X108927568Y-101879399D01*
X108927568Y-101879399D02*
X108903759Y-101831780D01*
X108903759Y-101831780D02*
X108903759Y-101688923D01*
X108903759Y-101688923D02*
X108927568Y-101641304D01*
X108927568Y-101641304D02*
X108951378Y-101617494D01*
X108951378Y-101617494D02*
X108998997Y-101593685D01*
X108998997Y-101593685D02*
X109070425Y-101593685D01*
X109070425Y-101593685D02*
X109118044Y-101617494D01*
X109118044Y-101617494D02*
X109141854Y-101641304D01*
X109141854Y-101641304D02*
X109165663Y-101688923D01*
X109165663Y-101688923D02*
X109165663Y-101831780D01*
X109165663Y-101831780D02*
X109141854Y-101879399D01*
X109141854Y-101879399D02*
X109118044Y-101903209D01*
X109118044Y-101903209D02*
X109070425Y-101927018D01*
X109070425Y-101927018D02*
X108998997Y-101927018D01*
X109308521Y-101593685D02*
X109498997Y-101593685D01*
X109379949Y-101427018D02*
X109379949Y-101855589D01*
X109379949Y-101855589D02*
X109403759Y-101903209D01*
X109403759Y-101903209D02*
X109451378Y-101927018D01*
X109451378Y-101927018D02*
X109498997Y-101927018D01*
X109856139Y-101903209D02*
X109808520Y-101927018D01*
X109808520Y-101927018D02*
X109713282Y-101927018D01*
X109713282Y-101927018D02*
X109665663Y-101903209D01*
X109665663Y-101903209D02*
X109641854Y-101855589D01*
X109641854Y-101855589D02*
X109641854Y-101665113D01*
X109641854Y-101665113D02*
X109665663Y-101617494D01*
X109665663Y-101617494D02*
X109713282Y-101593685D01*
X109713282Y-101593685D02*
X109808520Y-101593685D01*
X109808520Y-101593685D02*
X109856139Y-101617494D01*
X109856139Y-101617494D02*
X109879949Y-101665113D01*
X109879949Y-101665113D02*
X109879949Y-101712732D01*
X109879949Y-101712732D02*
X109641854Y-101760351D01*
X110308520Y-101903209D02*
X110260901Y-101927018D01*
X110260901Y-101927018D02*
X110165663Y-101927018D01*
X110165663Y-101927018D02*
X110118044Y-101903209D01*
X110118044Y-101903209D02*
X110094234Y-101879399D01*
X110094234Y-101879399D02*
X110070425Y-101831780D01*
X110070425Y-101831780D02*
X110070425Y-101688923D01*
X110070425Y-101688923D02*
X110094234Y-101641304D01*
X110094234Y-101641304D02*
X110118044Y-101617494D01*
X110118044Y-101617494D02*
X110165663Y-101593685D01*
X110165663Y-101593685D02*
X110260901Y-101593685D01*
X110260901Y-101593685D02*
X110308520Y-101617494D01*
X110451377Y-101593685D02*
X110641853Y-101593685D01*
X110522805Y-101427018D02*
X110522805Y-101855589D01*
X110522805Y-101855589D02*
X110546615Y-101903209D01*
X110546615Y-101903209D02*
X110594234Y-101927018D01*
X110594234Y-101927018D02*
X110641853Y-101927018D01*
X110808519Y-101927018D02*
X110808519Y-101593685D01*
X110808519Y-101427018D02*
X110784710Y-101450828D01*
X110784710Y-101450828D02*
X110808519Y-101474637D01*
X110808519Y-101474637D02*
X110832329Y-101450828D01*
X110832329Y-101450828D02*
X110808519Y-101427018D01*
X110808519Y-101427018D02*
X110808519Y-101474637D01*
X111118043Y-101927018D02*
X111070424Y-101903209D01*
X111070424Y-101903209D02*
X111046614Y-101879399D01*
X111046614Y-101879399D02*
X111022805Y-101831780D01*
X111022805Y-101831780D02*
X111022805Y-101688923D01*
X111022805Y-101688923D02*
X111046614Y-101641304D01*
X111046614Y-101641304D02*
X111070424Y-101617494D01*
X111070424Y-101617494D02*
X111118043Y-101593685D01*
X111118043Y-101593685D02*
X111189471Y-101593685D01*
X111189471Y-101593685D02*
X111237090Y-101617494D01*
X111237090Y-101617494D02*
X111260900Y-101641304D01*
X111260900Y-101641304D02*
X111284709Y-101688923D01*
X111284709Y-101688923D02*
X111284709Y-101831780D01*
X111284709Y-101831780D02*
X111260900Y-101879399D01*
X111260900Y-101879399D02*
X111237090Y-101903209D01*
X111237090Y-101903209D02*
X111189471Y-101927018D01*
X111189471Y-101927018D02*
X111118043Y-101927018D01*
X111498995Y-101593685D02*
X111498995Y-101927018D01*
X111498995Y-101641304D02*
X111522805Y-101617494D01*
X111522805Y-101617494D02*
X111570424Y-101593685D01*
X111570424Y-101593685D02*
X111641852Y-101593685D01*
X111641852Y-101593685D02*
X111689471Y-101617494D01*
X111689471Y-101617494D02*
X111713281Y-101665113D01*
X111713281Y-101665113D02*
X111713281Y-101927018D01*
X110006008Y-110776026D02*
X109839342Y-110537931D01*
X109720294Y-110776026D02*
X109720294Y-110276026D01*
X109720294Y-110276026D02*
X109910770Y-110276026D01*
X109910770Y-110276026D02*
X109958389Y-110299836D01*
X109958389Y-110299836D02*
X109982199Y-110323645D01*
X109982199Y-110323645D02*
X110006008Y-110371264D01*
X110006008Y-110371264D02*
X110006008Y-110442693D01*
X110006008Y-110442693D02*
X109982199Y-110490312D01*
X109982199Y-110490312D02*
X109958389Y-110514121D01*
X109958389Y-110514121D02*
X109910770Y-110537931D01*
X109910770Y-110537931D02*
X109720294Y-110537931D01*
X110482199Y-110776026D02*
X110196485Y-110776026D01*
X110339342Y-110776026D02*
X110339342Y-110276026D01*
X110339342Y-110276026D02*
X110291723Y-110347455D01*
X110291723Y-110347455D02*
X110244104Y-110395074D01*
X110244104Y-110395074D02*
X110196485Y-110418883D01*
X110648865Y-110276026D02*
X110958389Y-110276026D01*
X110958389Y-110276026D02*
X110791722Y-110466502D01*
X110791722Y-110466502D02*
X110863151Y-110466502D01*
X110863151Y-110466502D02*
X110910770Y-110490312D01*
X110910770Y-110490312D02*
X110934579Y-110514121D01*
X110934579Y-110514121D02*
X110958389Y-110561740D01*
X110958389Y-110561740D02*
X110958389Y-110680788D01*
X110958389Y-110680788D02*
X110934579Y-110728407D01*
X110934579Y-110728407D02*
X110910770Y-110752217D01*
X110910770Y-110752217D02*
X110863151Y-110776026D01*
X110863151Y-110776026D02*
X110720294Y-110776026D01*
X110720294Y-110776026D02*
X110672675Y-110752217D01*
X110672675Y-110752217D02*
X110648865Y-110728407D01*
X118878814Y-114054333D02*
X118878814Y-114292428D01*
X118712148Y-113792428D02*
X118878814Y-114054333D01*
X118878814Y-114054333D02*
X119045481Y-113792428D01*
X119474052Y-114292428D02*
X119188338Y-114292428D01*
X119331195Y-114292428D02*
X119331195Y-113792428D01*
X119331195Y-113792428D02*
X119283576Y-113863857D01*
X119283576Y-113863857D02*
X119235957Y-113911476D01*
X119235957Y-113911476D02*
X119188338Y-113935285D01*
X132306249Y-107785888D02*
X132282440Y-107809698D01*
X132282440Y-107809698D02*
X132211011Y-107833507D01*
X132211011Y-107833507D02*
X132163392Y-107833507D01*
X132163392Y-107833507D02*
X132091964Y-107809698D01*
X132091964Y-107809698D02*
X132044345Y-107762078D01*
X132044345Y-107762078D02*
X132020535Y-107714459D01*
X132020535Y-107714459D02*
X131996726Y-107619221D01*
X131996726Y-107619221D02*
X131996726Y-107547793D01*
X131996726Y-107547793D02*
X132020535Y-107452555D01*
X132020535Y-107452555D02*
X132044345Y-107404936D01*
X132044345Y-107404936D02*
X132091964Y-107357317D01*
X132091964Y-107357317D02*
X132163392Y-107333507D01*
X132163392Y-107333507D02*
X132211011Y-107333507D01*
X132211011Y-107333507D02*
X132282440Y-107357317D01*
X132282440Y-107357317D02*
X132306249Y-107381126D01*
X132472916Y-107333507D02*
X132782440Y-107333507D01*
X132782440Y-107333507D02*
X132615773Y-107523983D01*
X132615773Y-107523983D02*
X132687202Y-107523983D01*
X132687202Y-107523983D02*
X132734821Y-107547793D01*
X132734821Y-107547793D02*
X132758630Y-107571602D01*
X132758630Y-107571602D02*
X132782440Y-107619221D01*
X132782440Y-107619221D02*
X132782440Y-107738269D01*
X132782440Y-107738269D02*
X132758630Y-107785888D01*
X132758630Y-107785888D02*
X132734821Y-107809698D01*
X132734821Y-107809698D02*
X132687202Y-107833507D01*
X132687202Y-107833507D02*
X132544345Y-107833507D01*
X132544345Y-107833507D02*
X132496726Y-107809698D01*
X132496726Y-107809698D02*
X132472916Y-107785888D01*
X132949106Y-107333507D02*
X133258630Y-107333507D01*
X133258630Y-107333507D02*
X133091963Y-107523983D01*
X133091963Y-107523983D02*
X133163392Y-107523983D01*
X133163392Y-107523983D02*
X133211011Y-107547793D01*
X133211011Y-107547793D02*
X133234820Y-107571602D01*
X133234820Y-107571602D02*
X133258630Y-107619221D01*
X133258630Y-107619221D02*
X133258630Y-107738269D01*
X133258630Y-107738269D02*
X133234820Y-107785888D01*
X133234820Y-107785888D02*
X133211011Y-107809698D01*
X133211011Y-107809698D02*
X133163392Y-107833507D01*
X133163392Y-107833507D02*
X133020535Y-107833507D01*
X133020535Y-107833507D02*
X132972916Y-107809698D01*
X132972916Y-107809698D02*
X132949106Y-107785888D01*
X113029991Y-114420570D02*
X113029991Y-114777713D01*
X113029991Y-114777713D02*
X113006182Y-114849141D01*
X113006182Y-114849141D02*
X112958563Y-114896761D01*
X112958563Y-114896761D02*
X112887134Y-114920570D01*
X112887134Y-114920570D02*
X112839515Y-114920570D01*
X113529991Y-114920570D02*
X113244277Y-114920570D01*
X113387134Y-114920570D02*
X113387134Y-114420570D01*
X113387134Y-114420570D02*
X113339515Y-114491999D01*
X113339515Y-114491999D02*
X113291896Y-114539618D01*
X113291896Y-114539618D02*
X113244277Y-114563427D01*
X136079601Y-110057884D02*
X136055792Y-110081694D01*
X136055792Y-110081694D02*
X135984363Y-110105503D01*
X135984363Y-110105503D02*
X135936744Y-110105503D01*
X135936744Y-110105503D02*
X135865316Y-110081694D01*
X135865316Y-110081694D02*
X135817697Y-110034074D01*
X135817697Y-110034074D02*
X135793887Y-109986455D01*
X135793887Y-109986455D02*
X135770078Y-109891217D01*
X135770078Y-109891217D02*
X135770078Y-109819789D01*
X135770078Y-109819789D02*
X135793887Y-109724551D01*
X135793887Y-109724551D02*
X135817697Y-109676932D01*
X135817697Y-109676932D02*
X135865316Y-109629313D01*
X135865316Y-109629313D02*
X135936744Y-109605503D01*
X135936744Y-109605503D02*
X135984363Y-109605503D01*
X135984363Y-109605503D02*
X136055792Y-109629313D01*
X136055792Y-109629313D02*
X136079601Y-109653122D01*
X136270078Y-109653122D02*
X136293887Y-109629313D01*
X136293887Y-109629313D02*
X136341506Y-109605503D01*
X136341506Y-109605503D02*
X136460554Y-109605503D01*
X136460554Y-109605503D02*
X136508173Y-109629313D01*
X136508173Y-109629313D02*
X136531982Y-109653122D01*
X136531982Y-109653122D02*
X136555792Y-109700741D01*
X136555792Y-109700741D02*
X136555792Y-109748360D01*
X136555792Y-109748360D02*
X136531982Y-109819789D01*
X136531982Y-109819789D02*
X136246268Y-110105503D01*
X136246268Y-110105503D02*
X136555792Y-110105503D01*
X136746268Y-109653122D02*
X136770077Y-109629313D01*
X136770077Y-109629313D02*
X136817696Y-109605503D01*
X136817696Y-109605503D02*
X136936744Y-109605503D01*
X136936744Y-109605503D02*
X136984363Y-109629313D01*
X136984363Y-109629313D02*
X137008172Y-109653122D01*
X137008172Y-109653122D02*
X137031982Y-109700741D01*
X137031982Y-109700741D02*
X137031982Y-109748360D01*
X137031982Y-109748360D02*
X137008172Y-109819789D01*
X137008172Y-109819789D02*
X136722458Y-110105503D01*
X136722458Y-110105503D02*
X137031982Y-110105503D01*
X140090638Y-116563606D02*
X139923972Y-116325511D01*
X139804924Y-116563606D02*
X139804924Y-116063606D01*
X139804924Y-116063606D02*
X139995400Y-116063606D01*
X139995400Y-116063606D02*
X140043019Y-116087416D01*
X140043019Y-116087416D02*
X140066829Y-116111225D01*
X140066829Y-116111225D02*
X140090638Y-116158844D01*
X140090638Y-116158844D02*
X140090638Y-116230273D01*
X140090638Y-116230273D02*
X140066829Y-116277892D01*
X140066829Y-116277892D02*
X140043019Y-116301701D01*
X140043019Y-116301701D02*
X139995400Y-116325511D01*
X139995400Y-116325511D02*
X139804924Y-116325511D01*
X140376353Y-116277892D02*
X140328734Y-116254082D01*
X140328734Y-116254082D02*
X140304924Y-116230273D01*
X140304924Y-116230273D02*
X140281115Y-116182654D01*
X140281115Y-116182654D02*
X140281115Y-116158844D01*
X140281115Y-116158844D02*
X140304924Y-116111225D01*
X140304924Y-116111225D02*
X140328734Y-116087416D01*
X140328734Y-116087416D02*
X140376353Y-116063606D01*
X140376353Y-116063606D02*
X140471591Y-116063606D01*
X140471591Y-116063606D02*
X140519210Y-116087416D01*
X140519210Y-116087416D02*
X140543019Y-116111225D01*
X140543019Y-116111225D02*
X140566829Y-116158844D01*
X140566829Y-116158844D02*
X140566829Y-116182654D01*
X140566829Y-116182654D02*
X140543019Y-116230273D01*
X140543019Y-116230273D02*
X140519210Y-116254082D01*
X140519210Y-116254082D02*
X140471591Y-116277892D01*
X140471591Y-116277892D02*
X140376353Y-116277892D01*
X140376353Y-116277892D02*
X140328734Y-116301701D01*
X140328734Y-116301701D02*
X140304924Y-116325511D01*
X140304924Y-116325511D02*
X140281115Y-116373130D01*
X140281115Y-116373130D02*
X140281115Y-116468368D01*
X140281115Y-116468368D02*
X140304924Y-116515987D01*
X140304924Y-116515987D02*
X140328734Y-116539797D01*
X140328734Y-116539797D02*
X140376353Y-116563606D01*
X140376353Y-116563606D02*
X140471591Y-116563606D01*
X140471591Y-116563606D02*
X140519210Y-116539797D01*
X140519210Y-116539797D02*
X140543019Y-116515987D01*
X140543019Y-116515987D02*
X140566829Y-116468368D01*
X140566829Y-116468368D02*
X140566829Y-116373130D01*
X140566829Y-116373130D02*
X140543019Y-116325511D01*
X140543019Y-116325511D02*
X140519210Y-116301701D01*
X140519210Y-116301701D02*
X140471591Y-116277892D01*
X123828445Y-104591635D02*
X123828445Y-104996397D01*
X123828445Y-104996397D02*
X123852255Y-105044016D01*
X123852255Y-105044016D02*
X123876064Y-105067826D01*
X123876064Y-105067826D02*
X123923683Y-105091635D01*
X123923683Y-105091635D02*
X124018921Y-105091635D01*
X124018921Y-105091635D02*
X124066540Y-105067826D01*
X124066540Y-105067826D02*
X124090350Y-105044016D01*
X124090350Y-105044016D02*
X124114159Y-104996397D01*
X124114159Y-104996397D02*
X124114159Y-104591635D01*
X124566541Y-104591635D02*
X124471303Y-104591635D01*
X124471303Y-104591635D02*
X124423684Y-104615445D01*
X124423684Y-104615445D02*
X124399874Y-104639254D01*
X124399874Y-104639254D02*
X124352255Y-104710683D01*
X124352255Y-104710683D02*
X124328446Y-104805921D01*
X124328446Y-104805921D02*
X124328446Y-104996397D01*
X124328446Y-104996397D02*
X124352255Y-105044016D01*
X124352255Y-105044016D02*
X124376065Y-105067826D01*
X124376065Y-105067826D02*
X124423684Y-105091635D01*
X124423684Y-105091635D02*
X124518922Y-105091635D01*
X124518922Y-105091635D02*
X124566541Y-105067826D01*
X124566541Y-105067826D02*
X124590350Y-105044016D01*
X124590350Y-105044016D02*
X124614160Y-104996397D01*
X124614160Y-104996397D02*
X124614160Y-104877349D01*
X124614160Y-104877349D02*
X124590350Y-104829730D01*
X124590350Y-104829730D02*
X124566541Y-104805921D01*
X124566541Y-104805921D02*
X124518922Y-104782111D01*
X124518922Y-104782111D02*
X124423684Y-104782111D01*
X124423684Y-104782111D02*
X124376065Y-104805921D01*
X124376065Y-104805921D02*
X124352255Y-104829730D01*
X124352255Y-104829730D02*
X124328446Y-104877349D01*
X109681700Y-111917534D02*
X109657891Y-111941344D01*
X109657891Y-111941344D02*
X109586462Y-111965153D01*
X109586462Y-111965153D02*
X109538843Y-111965153D01*
X109538843Y-111965153D02*
X109467415Y-111941344D01*
X109467415Y-111941344D02*
X109419796Y-111893724D01*
X109419796Y-111893724D02*
X109395986Y-111846105D01*
X109395986Y-111846105D02*
X109372177Y-111750867D01*
X109372177Y-111750867D02*
X109372177Y-111679439D01*
X109372177Y-111679439D02*
X109395986Y-111584201D01*
X109395986Y-111584201D02*
X109419796Y-111536582D01*
X109419796Y-111536582D02*
X109467415Y-111488963D01*
X109467415Y-111488963D02*
X109538843Y-111465153D01*
X109538843Y-111465153D02*
X109586462Y-111465153D01*
X109586462Y-111465153D02*
X109657891Y-111488963D01*
X109657891Y-111488963D02*
X109681700Y-111512772D01*
X109848367Y-111465153D02*
X110157891Y-111465153D01*
X110157891Y-111465153D02*
X109991224Y-111655629D01*
X109991224Y-111655629D02*
X110062653Y-111655629D01*
X110062653Y-111655629D02*
X110110272Y-111679439D01*
X110110272Y-111679439D02*
X110134081Y-111703248D01*
X110134081Y-111703248D02*
X110157891Y-111750867D01*
X110157891Y-111750867D02*
X110157891Y-111869915D01*
X110157891Y-111869915D02*
X110134081Y-111917534D01*
X110134081Y-111917534D02*
X110110272Y-111941344D01*
X110110272Y-111941344D02*
X110062653Y-111965153D01*
X110062653Y-111965153D02*
X109919796Y-111965153D01*
X109919796Y-111965153D02*
X109872177Y-111941344D01*
X109872177Y-111941344D02*
X109848367Y-111917534D01*
X110634081Y-111965153D02*
X110348367Y-111965153D01*
X110491224Y-111965153D02*
X110491224Y-111465153D01*
X110491224Y-111465153D02*
X110443605Y-111536582D01*
X110443605Y-111536582D02*
X110395986Y-111584201D01*
X110395986Y-111584201D02*
X110348367Y-111608010D01*
X116892204Y-101163090D02*
X116725538Y-100924995D01*
X116606490Y-101163090D02*
X116606490Y-100663090D01*
X116606490Y-100663090D02*
X116796966Y-100663090D01*
X116796966Y-100663090D02*
X116844585Y-100686900D01*
X116844585Y-100686900D02*
X116868395Y-100710709D01*
X116868395Y-100710709D02*
X116892204Y-100758328D01*
X116892204Y-100758328D02*
X116892204Y-100829757D01*
X116892204Y-100829757D02*
X116868395Y-100877376D01*
X116868395Y-100877376D02*
X116844585Y-100901185D01*
X116844585Y-100901185D02*
X116796966Y-100924995D01*
X116796966Y-100924995D02*
X116606490Y-100924995D01*
X117320776Y-100829757D02*
X117320776Y-101163090D01*
X117201728Y-100639281D02*
X117082681Y-100996423D01*
X117082681Y-100996423D02*
X117392204Y-100996423D01*
X115828376Y-110243906D02*
X115661710Y-110005811D01*
X115542662Y-110243906D02*
X115542662Y-109743906D01*
X115542662Y-109743906D02*
X115733138Y-109743906D01*
X115733138Y-109743906D02*
X115780757Y-109767716D01*
X115780757Y-109767716D02*
X115804567Y-109791525D01*
X115804567Y-109791525D02*
X115828376Y-109839144D01*
X115828376Y-109839144D02*
X115828376Y-109910573D01*
X115828376Y-109910573D02*
X115804567Y-109958192D01*
X115804567Y-109958192D02*
X115780757Y-109982001D01*
X115780757Y-109982001D02*
X115733138Y-110005811D01*
X115733138Y-110005811D02*
X115542662Y-110005811D01*
X116304567Y-110243906D02*
X116018853Y-110243906D01*
X116161710Y-110243906D02*
X116161710Y-109743906D01*
X116161710Y-109743906D02*
X116114091Y-109815335D01*
X116114091Y-109815335D02*
X116066472Y-109862954D01*
X116066472Y-109862954D02*
X116018853Y-109886763D01*
X143147411Y-107884384D02*
X142647411Y-107884384D01*
X142647411Y-107884384D02*
X142647411Y-107765336D01*
X142647411Y-107765336D02*
X142671221Y-107693908D01*
X142671221Y-107693908D02*
X142718840Y-107646289D01*
X142718840Y-107646289D02*
X142766459Y-107622479D01*
X142766459Y-107622479D02*
X142861697Y-107598670D01*
X142861697Y-107598670D02*
X142933125Y-107598670D01*
X142933125Y-107598670D02*
X143028363Y-107622479D01*
X143028363Y-107622479D02*
X143075982Y-107646289D01*
X143075982Y-107646289D02*
X143123602Y-107693908D01*
X143123602Y-107693908D02*
X143147411Y-107765336D01*
X143147411Y-107765336D02*
X143147411Y-107884384D01*
X143147411Y-107122479D02*
X143147411Y-107408193D01*
X143147411Y-107265336D02*
X142647411Y-107265336D01*
X142647411Y-107265336D02*
X142718840Y-107312955D01*
X142718840Y-107312955D02*
X142766459Y-107360574D01*
X142766459Y-107360574D02*
X142790268Y-107408193D01*
X131652720Y-114981668D02*
X131628911Y-115005478D01*
X131628911Y-115005478D02*
X131557482Y-115029287D01*
X131557482Y-115029287D02*
X131509863Y-115029287D01*
X131509863Y-115029287D02*
X131438435Y-115005478D01*
X131438435Y-115005478D02*
X131390816Y-114957858D01*
X131390816Y-114957858D02*
X131367006Y-114910239D01*
X131367006Y-114910239D02*
X131343197Y-114815001D01*
X131343197Y-114815001D02*
X131343197Y-114743573D01*
X131343197Y-114743573D02*
X131367006Y-114648335D01*
X131367006Y-114648335D02*
X131390816Y-114600716D01*
X131390816Y-114600716D02*
X131438435Y-114553097D01*
X131438435Y-114553097D02*
X131509863Y-114529287D01*
X131509863Y-114529287D02*
X131557482Y-114529287D01*
X131557482Y-114529287D02*
X131628911Y-114553097D01*
X131628911Y-114553097D02*
X131652720Y-114576906D01*
X131843197Y-114576906D02*
X131867006Y-114553097D01*
X131867006Y-114553097D02*
X131914625Y-114529287D01*
X131914625Y-114529287D02*
X132033673Y-114529287D01*
X132033673Y-114529287D02*
X132081292Y-114553097D01*
X132081292Y-114553097D02*
X132105101Y-114576906D01*
X132105101Y-114576906D02*
X132128911Y-114624525D01*
X132128911Y-114624525D02*
X132128911Y-114672144D01*
X132128911Y-114672144D02*
X132105101Y-114743573D01*
X132105101Y-114743573D02*
X131819387Y-115029287D01*
X131819387Y-115029287D02*
X132128911Y-115029287D01*
X132295577Y-114529287D02*
X132628910Y-114529287D01*
X132628910Y-114529287D02*
X132414625Y-115029287D01*
X101310305Y-101438141D02*
X101286496Y-101461951D01*
X101286496Y-101461951D02*
X101215067Y-101485760D01*
X101215067Y-101485760D02*
X101167448Y-101485760D01*
X101167448Y-101485760D02*
X101096020Y-101461951D01*
X101096020Y-101461951D02*
X101048401Y-101414331D01*
X101048401Y-101414331D02*
X101024591Y-101366712D01*
X101024591Y-101366712D02*
X101000782Y-101271474D01*
X101000782Y-101271474D02*
X101000782Y-101200046D01*
X101000782Y-101200046D02*
X101024591Y-101104808D01*
X101024591Y-101104808D02*
X101048401Y-101057189D01*
X101048401Y-101057189D02*
X101096020Y-101009570D01*
X101096020Y-101009570D02*
X101167448Y-100985760D01*
X101167448Y-100985760D02*
X101215067Y-100985760D01*
X101215067Y-100985760D02*
X101286496Y-101009570D01*
X101286496Y-101009570D02*
X101310305Y-101033379D01*
X101500782Y-101033379D02*
X101524591Y-101009570D01*
X101524591Y-101009570D02*
X101572210Y-100985760D01*
X101572210Y-100985760D02*
X101691258Y-100985760D01*
X101691258Y-100985760D02*
X101738877Y-101009570D01*
X101738877Y-101009570D02*
X101762686Y-101033379D01*
X101762686Y-101033379D02*
X101786496Y-101080998D01*
X101786496Y-101080998D02*
X101786496Y-101128617D01*
X101786496Y-101128617D02*
X101762686Y-101200046D01*
X101762686Y-101200046D02*
X101476972Y-101485760D01*
X101476972Y-101485760D02*
X101786496Y-101485760D01*
X101953162Y-100985760D02*
X102262686Y-100985760D01*
X102262686Y-100985760D02*
X102096019Y-101176236D01*
X102096019Y-101176236D02*
X102167448Y-101176236D01*
X102167448Y-101176236D02*
X102215067Y-101200046D01*
X102215067Y-101200046D02*
X102238876Y-101223855D01*
X102238876Y-101223855D02*
X102262686Y-101271474D01*
X102262686Y-101271474D02*
X102262686Y-101390522D01*
X102262686Y-101390522D02*
X102238876Y-101438141D01*
X102238876Y-101438141D02*
X102215067Y-101461951D01*
X102215067Y-101461951D02*
X102167448Y-101485760D01*
X102167448Y-101485760D02*
X102024591Y-101485760D01*
X102024591Y-101485760D02*
X101976972Y-101461951D01*
X101976972Y-101461951D02*
X101953162Y-101438141D01*
X106937984Y-104506573D02*
X106914175Y-104530383D01*
X106914175Y-104530383D02*
X106842746Y-104554192D01*
X106842746Y-104554192D02*
X106795127Y-104554192D01*
X106795127Y-104554192D02*
X106723699Y-104530383D01*
X106723699Y-104530383D02*
X106676080Y-104482763D01*
X106676080Y-104482763D02*
X106652270Y-104435144D01*
X106652270Y-104435144D02*
X106628461Y-104339906D01*
X106628461Y-104339906D02*
X106628461Y-104268478D01*
X106628461Y-104268478D02*
X106652270Y-104173240D01*
X106652270Y-104173240D02*
X106676080Y-104125621D01*
X106676080Y-104125621D02*
X106723699Y-104078002D01*
X106723699Y-104078002D02*
X106795127Y-104054192D01*
X106795127Y-104054192D02*
X106842746Y-104054192D01*
X106842746Y-104054192D02*
X106914175Y-104078002D01*
X106914175Y-104078002D02*
X106937984Y-104101811D01*
X107104651Y-104054192D02*
X107414175Y-104054192D01*
X107414175Y-104054192D02*
X107247508Y-104244668D01*
X107247508Y-104244668D02*
X107318937Y-104244668D01*
X107318937Y-104244668D02*
X107366556Y-104268478D01*
X107366556Y-104268478D02*
X107390365Y-104292287D01*
X107390365Y-104292287D02*
X107414175Y-104339906D01*
X107414175Y-104339906D02*
X107414175Y-104458954D01*
X107414175Y-104458954D02*
X107390365Y-104506573D01*
X107390365Y-104506573D02*
X107366556Y-104530383D01*
X107366556Y-104530383D02*
X107318937Y-104554192D01*
X107318937Y-104554192D02*
X107176080Y-104554192D01*
X107176080Y-104554192D02*
X107128461Y-104530383D01*
X107128461Y-104530383D02*
X107104651Y-104506573D01*
X107723698Y-104054192D02*
X107771317Y-104054192D01*
X107771317Y-104054192D02*
X107818936Y-104078002D01*
X107818936Y-104078002D02*
X107842746Y-104101811D01*
X107842746Y-104101811D02*
X107866555Y-104149430D01*
X107866555Y-104149430D02*
X107890365Y-104244668D01*
X107890365Y-104244668D02*
X107890365Y-104363716D01*
X107890365Y-104363716D02*
X107866555Y-104458954D01*
X107866555Y-104458954D02*
X107842746Y-104506573D01*
X107842746Y-104506573D02*
X107818936Y-104530383D01*
X107818936Y-104530383D02*
X107771317Y-104554192D01*
X107771317Y-104554192D02*
X107723698Y-104554192D01*
X107723698Y-104554192D02*
X107676079Y-104530383D01*
X107676079Y-104530383D02*
X107652270Y-104506573D01*
X107652270Y-104506573D02*
X107628460Y-104458954D01*
X107628460Y-104458954D02*
X107604651Y-104363716D01*
X107604651Y-104363716D02*
X107604651Y-104244668D01*
X107604651Y-104244668D02*
X107628460Y-104149430D01*
X107628460Y-104149430D02*
X107652270Y-104101811D01*
X107652270Y-104101811D02*
X107676079Y-104078002D01*
X107676079Y-104078002D02*
X107723698Y-104054192D01*
X108396809Y-113179643D02*
X108396809Y-113584405D01*
X108396809Y-113584405D02*
X108420619Y-113632024D01*
X108420619Y-113632024D02*
X108444428Y-113655834D01*
X108444428Y-113655834D02*
X108492047Y-113679643D01*
X108492047Y-113679643D02*
X108587285Y-113679643D01*
X108587285Y-113679643D02*
X108634904Y-113655834D01*
X108634904Y-113655834D02*
X108658714Y-113632024D01*
X108658714Y-113632024D02*
X108682523Y-113584405D01*
X108682523Y-113584405D02*
X108682523Y-113179643D01*
X108873000Y-113179643D02*
X109206333Y-113179643D01*
X109206333Y-113179643D02*
X108992048Y-113679643D01*
X107732374Y-106006496D02*
X107708565Y-106030306D01*
X107708565Y-106030306D02*
X107637136Y-106054115D01*
X107637136Y-106054115D02*
X107589517Y-106054115D01*
X107589517Y-106054115D02*
X107518089Y-106030306D01*
X107518089Y-106030306D02*
X107470470Y-105982686D01*
X107470470Y-105982686D02*
X107446660Y-105935067D01*
X107446660Y-105935067D02*
X107422851Y-105839829D01*
X107422851Y-105839829D02*
X107422851Y-105768401D01*
X107422851Y-105768401D02*
X107446660Y-105673163D01*
X107446660Y-105673163D02*
X107470470Y-105625544D01*
X107470470Y-105625544D02*
X107518089Y-105577925D01*
X107518089Y-105577925D02*
X107589517Y-105554115D01*
X107589517Y-105554115D02*
X107637136Y-105554115D01*
X107637136Y-105554115D02*
X107708565Y-105577925D01*
X107708565Y-105577925D02*
X107732374Y-105601734D01*
X107922851Y-105601734D02*
X107946660Y-105577925D01*
X107946660Y-105577925D02*
X107994279Y-105554115D01*
X107994279Y-105554115D02*
X108113327Y-105554115D01*
X108113327Y-105554115D02*
X108160946Y-105577925D01*
X108160946Y-105577925D02*
X108184755Y-105601734D01*
X108184755Y-105601734D02*
X108208565Y-105649353D01*
X108208565Y-105649353D02*
X108208565Y-105696972D01*
X108208565Y-105696972D02*
X108184755Y-105768401D01*
X108184755Y-105768401D02*
X107899041Y-106054115D01*
X107899041Y-106054115D02*
X108208565Y-106054115D01*
X108446660Y-106054115D02*
X108541898Y-106054115D01*
X108541898Y-106054115D02*
X108589517Y-106030306D01*
X108589517Y-106030306D02*
X108613326Y-106006496D01*
X108613326Y-106006496D02*
X108660945Y-105935067D01*
X108660945Y-105935067D02*
X108684755Y-105839829D01*
X108684755Y-105839829D02*
X108684755Y-105649353D01*
X108684755Y-105649353D02*
X108660945Y-105601734D01*
X108660945Y-105601734D02*
X108637136Y-105577925D01*
X108637136Y-105577925D02*
X108589517Y-105554115D01*
X108589517Y-105554115D02*
X108494279Y-105554115D01*
X108494279Y-105554115D02*
X108446660Y-105577925D01*
X108446660Y-105577925D02*
X108422850Y-105601734D01*
X108422850Y-105601734D02*
X108399041Y-105649353D01*
X108399041Y-105649353D02*
X108399041Y-105768401D01*
X108399041Y-105768401D02*
X108422850Y-105816020D01*
X108422850Y-105816020D02*
X108446660Y-105839829D01*
X108446660Y-105839829D02*
X108494279Y-105863639D01*
X108494279Y-105863639D02*
X108589517Y-105863639D01*
X108589517Y-105863639D02*
X108637136Y-105839829D01*
X108637136Y-105839829D02*
X108660945Y-105816020D01*
X108660945Y-105816020D02*
X108684755Y-105768401D01*
X130471837Y-108006487D02*
X130471837Y-108411249D01*
X130471837Y-108411249D02*
X130495647Y-108458868D01*
X130495647Y-108458868D02*
X130519456Y-108482678D01*
X130519456Y-108482678D02*
X130567075Y-108506487D01*
X130567075Y-108506487D02*
X130662313Y-108506487D01*
X130662313Y-108506487D02*
X130709932Y-108482678D01*
X130709932Y-108482678D02*
X130733742Y-108458868D01*
X130733742Y-108458868D02*
X130757551Y-108411249D01*
X130757551Y-108411249D02*
X130757551Y-108006487D01*
X131019457Y-108506487D02*
X131114695Y-108506487D01*
X131114695Y-108506487D02*
X131162314Y-108482678D01*
X131162314Y-108482678D02*
X131186123Y-108458868D01*
X131186123Y-108458868D02*
X131233742Y-108387439D01*
X131233742Y-108387439D02*
X131257552Y-108292201D01*
X131257552Y-108292201D02*
X131257552Y-108101725D01*
X131257552Y-108101725D02*
X131233742Y-108054106D01*
X131233742Y-108054106D02*
X131209933Y-108030297D01*
X131209933Y-108030297D02*
X131162314Y-108006487D01*
X131162314Y-108006487D02*
X131067076Y-108006487D01*
X131067076Y-108006487D02*
X131019457Y-108030297D01*
X131019457Y-108030297D02*
X130995647Y-108054106D01*
X130995647Y-108054106D02*
X130971838Y-108101725D01*
X130971838Y-108101725D02*
X130971838Y-108220773D01*
X130971838Y-108220773D02*
X130995647Y-108268392D01*
X130995647Y-108268392D02*
X131019457Y-108292201D01*
X131019457Y-108292201D02*
X131067076Y-108316011D01*
X131067076Y-108316011D02*
X131162314Y-108316011D01*
X131162314Y-108316011D02*
X131209933Y-108292201D01*
X131209933Y-108292201D02*
X131233742Y-108268392D01*
X131233742Y-108268392D02*
X131257552Y-108220773D01*
X118667705Y-109358903D02*
X118643896Y-109382713D01*
X118643896Y-109382713D02*
X118572467Y-109406522D01*
X118572467Y-109406522D02*
X118524848Y-109406522D01*
X118524848Y-109406522D02*
X118453420Y-109382713D01*
X118453420Y-109382713D02*
X118405801Y-109335093D01*
X118405801Y-109335093D02*
X118381991Y-109287474D01*
X118381991Y-109287474D02*
X118358182Y-109192236D01*
X118358182Y-109192236D02*
X118358182Y-109120808D01*
X118358182Y-109120808D02*
X118381991Y-109025570D01*
X118381991Y-109025570D02*
X118405801Y-108977951D01*
X118405801Y-108977951D02*
X118453420Y-108930332D01*
X118453420Y-108930332D02*
X118524848Y-108906522D01*
X118524848Y-108906522D02*
X118572467Y-108906522D01*
X118572467Y-108906522D02*
X118643896Y-108930332D01*
X118643896Y-108930332D02*
X118667705Y-108954141D01*
X119096277Y-108906522D02*
X119001039Y-108906522D01*
X119001039Y-108906522D02*
X118953420Y-108930332D01*
X118953420Y-108930332D02*
X118929610Y-108954141D01*
X118929610Y-108954141D02*
X118881991Y-109025570D01*
X118881991Y-109025570D02*
X118858182Y-109120808D01*
X118858182Y-109120808D02*
X118858182Y-109311284D01*
X118858182Y-109311284D02*
X118881991Y-109358903D01*
X118881991Y-109358903D02*
X118905801Y-109382713D01*
X118905801Y-109382713D02*
X118953420Y-109406522D01*
X118953420Y-109406522D02*
X119048658Y-109406522D01*
X119048658Y-109406522D02*
X119096277Y-109382713D01*
X119096277Y-109382713D02*
X119120086Y-109358903D01*
X119120086Y-109358903D02*
X119143896Y-109311284D01*
X119143896Y-109311284D02*
X119143896Y-109192236D01*
X119143896Y-109192236D02*
X119120086Y-109144617D01*
X119120086Y-109144617D02*
X119096277Y-109120808D01*
X119096277Y-109120808D02*
X119048658Y-109096998D01*
X119048658Y-109096998D02*
X118953420Y-109096998D01*
X118953420Y-109096998D02*
X118905801Y-109120808D01*
X118905801Y-109120808D02*
X118881991Y-109144617D01*
X118881991Y-109144617D02*
X118858182Y-109192236D01*
X105750289Y-110026150D02*
X105726480Y-110049960D01*
X105726480Y-110049960D02*
X105655051Y-110073769D01*
X105655051Y-110073769D02*
X105607432Y-110073769D01*
X105607432Y-110073769D02*
X105536004Y-110049960D01*
X105536004Y-110049960D02*
X105488385Y-110002340D01*
X105488385Y-110002340D02*
X105464575Y-109954721D01*
X105464575Y-109954721D02*
X105440766Y-109859483D01*
X105440766Y-109859483D02*
X105440766Y-109788055D01*
X105440766Y-109788055D02*
X105464575Y-109692817D01*
X105464575Y-109692817D02*
X105488385Y-109645198D01*
X105488385Y-109645198D02*
X105536004Y-109597579D01*
X105536004Y-109597579D02*
X105607432Y-109573769D01*
X105607432Y-109573769D02*
X105655051Y-109573769D01*
X105655051Y-109573769D02*
X105726480Y-109597579D01*
X105726480Y-109597579D02*
X105750289Y-109621388D01*
X105940766Y-109621388D02*
X105964575Y-109597579D01*
X105964575Y-109597579D02*
X106012194Y-109573769D01*
X106012194Y-109573769D02*
X106131242Y-109573769D01*
X106131242Y-109573769D02*
X106178861Y-109597579D01*
X106178861Y-109597579D02*
X106202670Y-109621388D01*
X106202670Y-109621388D02*
X106226480Y-109669007D01*
X106226480Y-109669007D02*
X106226480Y-109716626D01*
X106226480Y-109716626D02*
X106202670Y-109788055D01*
X106202670Y-109788055D02*
X105916956Y-110073769D01*
X105916956Y-110073769D02*
X106226480Y-110073769D01*
X106512194Y-109788055D02*
X106464575Y-109764245D01*
X106464575Y-109764245D02*
X106440765Y-109740436D01*
X106440765Y-109740436D02*
X106416956Y-109692817D01*
X106416956Y-109692817D02*
X106416956Y-109669007D01*
X106416956Y-109669007D02*
X106440765Y-109621388D01*
X106440765Y-109621388D02*
X106464575Y-109597579D01*
X106464575Y-109597579D02*
X106512194Y-109573769D01*
X106512194Y-109573769D02*
X106607432Y-109573769D01*
X106607432Y-109573769D02*
X106655051Y-109597579D01*
X106655051Y-109597579D02*
X106678860Y-109621388D01*
X106678860Y-109621388D02*
X106702670Y-109669007D01*
X106702670Y-109669007D02*
X106702670Y-109692817D01*
X106702670Y-109692817D02*
X106678860Y-109740436D01*
X106678860Y-109740436D02*
X106655051Y-109764245D01*
X106655051Y-109764245D02*
X106607432Y-109788055D01*
X106607432Y-109788055D02*
X106512194Y-109788055D01*
X106512194Y-109788055D02*
X106464575Y-109811864D01*
X106464575Y-109811864D02*
X106440765Y-109835674D01*
X106440765Y-109835674D02*
X106416956Y-109883293D01*
X106416956Y-109883293D02*
X106416956Y-109978531D01*
X106416956Y-109978531D02*
X106440765Y-110026150D01*
X106440765Y-110026150D02*
X106464575Y-110049960D01*
X106464575Y-110049960D02*
X106512194Y-110073769D01*
X106512194Y-110073769D02*
X106607432Y-110073769D01*
X106607432Y-110073769D02*
X106655051Y-110049960D01*
X106655051Y-110049960D02*
X106678860Y-110026150D01*
X106678860Y-110026150D02*
X106702670Y-109978531D01*
X106702670Y-109978531D02*
X106702670Y-109883293D01*
X106702670Y-109883293D02*
X106678860Y-109835674D01*
X106678860Y-109835674D02*
X106655051Y-109811864D01*
X106655051Y-109811864D02*
X106607432Y-109788055D01*
X104853734Y-115423700D02*
X104829925Y-115447510D01*
X104829925Y-115447510D02*
X104758496Y-115471319D01*
X104758496Y-115471319D02*
X104710877Y-115471319D01*
X104710877Y-115471319D02*
X104639449Y-115447510D01*
X104639449Y-115447510D02*
X104591830Y-115399890D01*
X104591830Y-115399890D02*
X104568020Y-115352271D01*
X104568020Y-115352271D02*
X104544211Y-115257033D01*
X104544211Y-115257033D02*
X104544211Y-115185605D01*
X104544211Y-115185605D02*
X104568020Y-115090367D01*
X104568020Y-115090367D02*
X104591830Y-115042748D01*
X104591830Y-115042748D02*
X104639449Y-114995129D01*
X104639449Y-114995129D02*
X104710877Y-114971319D01*
X104710877Y-114971319D02*
X104758496Y-114971319D01*
X104758496Y-114971319D02*
X104829925Y-114995129D01*
X104829925Y-114995129D02*
X104853734Y-115018938D01*
X105329925Y-115471319D02*
X105044211Y-115471319D01*
X105187068Y-115471319D02*
X105187068Y-114971319D01*
X105187068Y-114971319D02*
X105139449Y-115042748D01*
X105139449Y-115042748D02*
X105091830Y-115090367D01*
X105091830Y-115090367D02*
X105044211Y-115114176D01*
X105782305Y-114971319D02*
X105544210Y-114971319D01*
X105544210Y-114971319D02*
X105520401Y-115209414D01*
X105520401Y-115209414D02*
X105544210Y-115185605D01*
X105544210Y-115185605D02*
X105591829Y-115161795D01*
X105591829Y-115161795D02*
X105710877Y-115161795D01*
X105710877Y-115161795D02*
X105758496Y-115185605D01*
X105758496Y-115185605D02*
X105782305Y-115209414D01*
X105782305Y-115209414D02*
X105806115Y-115257033D01*
X105806115Y-115257033D02*
X105806115Y-115376081D01*
X105806115Y-115376081D02*
X105782305Y-115423700D01*
X105782305Y-115423700D02*
X105758496Y-115447510D01*
X105758496Y-115447510D02*
X105710877Y-115471319D01*
X105710877Y-115471319D02*
X105591829Y-115471319D01*
X105591829Y-115471319D02*
X105544210Y-115447510D01*
X105544210Y-115447510D02*
X105520401Y-115423700D01*
X103658241Y-109652389D02*
X103658241Y-110057151D01*
X103658241Y-110057151D02*
X103682051Y-110104770D01*
X103682051Y-110104770D02*
X103705860Y-110128580D01*
X103705860Y-110128580D02*
X103753479Y-110152389D01*
X103753479Y-110152389D02*
X103848717Y-110152389D01*
X103848717Y-110152389D02*
X103896336Y-110128580D01*
X103896336Y-110128580D02*
X103920146Y-110104770D01*
X103920146Y-110104770D02*
X103943955Y-110057151D01*
X103943955Y-110057151D02*
X103943955Y-109652389D01*
X104443956Y-110152389D02*
X104158242Y-110152389D01*
X104301099Y-110152389D02*
X104301099Y-109652389D01*
X104301099Y-109652389D02*
X104253480Y-109723818D01*
X104253480Y-109723818D02*
X104205861Y-109771437D01*
X104205861Y-109771437D02*
X104158242Y-109795246D01*
X104920146Y-110152389D02*
X104634432Y-110152389D01*
X104777289Y-110152389D02*
X104777289Y-109652389D01*
X104777289Y-109652389D02*
X104729670Y-109723818D01*
X104729670Y-109723818D02*
X104682051Y-109771437D01*
X104682051Y-109771437D02*
X104634432Y-109795246D01*
X137286131Y-112055937D02*
X137262322Y-112079747D01*
X137262322Y-112079747D02*
X137190893Y-112103556D01*
X137190893Y-112103556D02*
X137143274Y-112103556D01*
X137143274Y-112103556D02*
X137071846Y-112079747D01*
X137071846Y-112079747D02*
X137024227Y-112032127D01*
X137024227Y-112032127D02*
X137000417Y-111984508D01*
X137000417Y-111984508D02*
X136976608Y-111889270D01*
X136976608Y-111889270D02*
X136976608Y-111817842D01*
X136976608Y-111817842D02*
X137000417Y-111722604D01*
X137000417Y-111722604D02*
X137024227Y-111674985D01*
X137024227Y-111674985D02*
X137071846Y-111627366D01*
X137071846Y-111627366D02*
X137143274Y-111603556D01*
X137143274Y-111603556D02*
X137190893Y-111603556D01*
X137190893Y-111603556D02*
X137262322Y-111627366D01*
X137262322Y-111627366D02*
X137286131Y-111651175D01*
X137476608Y-111651175D02*
X137500417Y-111627366D01*
X137500417Y-111627366D02*
X137548036Y-111603556D01*
X137548036Y-111603556D02*
X137667084Y-111603556D01*
X137667084Y-111603556D02*
X137714703Y-111627366D01*
X137714703Y-111627366D02*
X137738512Y-111651175D01*
X137738512Y-111651175D02*
X137762322Y-111698794D01*
X137762322Y-111698794D02*
X137762322Y-111746413D01*
X137762322Y-111746413D02*
X137738512Y-111817842D01*
X137738512Y-111817842D02*
X137452798Y-112103556D01*
X137452798Y-112103556D02*
X137762322Y-112103556D01*
X138238512Y-112103556D02*
X137952798Y-112103556D01*
X138095655Y-112103556D02*
X138095655Y-111603556D01*
X138095655Y-111603556D02*
X138048036Y-111674985D01*
X138048036Y-111674985D02*
X138000417Y-111722604D01*
X138000417Y-111722604D02*
X137952798Y-111746413D01*
X100685116Y-111984808D02*
X100685116Y-111484808D01*
X100685116Y-111484808D02*
X100804164Y-111484808D01*
X100804164Y-111484808D02*
X100875592Y-111508618D01*
X100875592Y-111508618D02*
X100923211Y-111556237D01*
X100923211Y-111556237D02*
X100947021Y-111603856D01*
X100947021Y-111603856D02*
X100970830Y-111699094D01*
X100970830Y-111699094D02*
X100970830Y-111770522D01*
X100970830Y-111770522D02*
X100947021Y-111865760D01*
X100947021Y-111865760D02*
X100923211Y-111913379D01*
X100923211Y-111913379D02*
X100875592Y-111960999D01*
X100875592Y-111960999D02*
X100804164Y-111984808D01*
X100804164Y-111984808D02*
X100685116Y-111984808D01*
X101161307Y-111532427D02*
X101185116Y-111508618D01*
X101185116Y-111508618D02*
X101232735Y-111484808D01*
X101232735Y-111484808D02*
X101351783Y-111484808D01*
X101351783Y-111484808D02*
X101399402Y-111508618D01*
X101399402Y-111508618D02*
X101423211Y-111532427D01*
X101423211Y-111532427D02*
X101447021Y-111580046D01*
X101447021Y-111580046D02*
X101447021Y-111627665D01*
X101447021Y-111627665D02*
X101423211Y-111699094D01*
X101423211Y-111699094D02*
X101137497Y-111984808D01*
X101137497Y-111984808D02*
X101447021Y-111984808D01*
X140217052Y-107711397D02*
X140169433Y-107687588D01*
X140169433Y-107687588D02*
X140121814Y-107639969D01*
X140121814Y-107639969D02*
X140050386Y-107568540D01*
X140050386Y-107568540D02*
X140002767Y-107544730D01*
X140002767Y-107544730D02*
X139955148Y-107544730D01*
X139978957Y-107663778D02*
X139931338Y-107639969D01*
X139931338Y-107639969D02*
X139883719Y-107592349D01*
X139883719Y-107592349D02*
X139859910Y-107497111D01*
X139859910Y-107497111D02*
X139859910Y-107330445D01*
X139859910Y-107330445D02*
X139883719Y-107235207D01*
X139883719Y-107235207D02*
X139931338Y-107187588D01*
X139931338Y-107187588D02*
X139978957Y-107163778D01*
X139978957Y-107163778D02*
X140074195Y-107163778D01*
X140074195Y-107163778D02*
X140121814Y-107187588D01*
X140121814Y-107187588D02*
X140169433Y-107235207D01*
X140169433Y-107235207D02*
X140193243Y-107330445D01*
X140193243Y-107330445D02*
X140193243Y-107497111D01*
X140193243Y-107497111D02*
X140169433Y-107592349D01*
X140169433Y-107592349D02*
X140121814Y-107639969D01*
X140121814Y-107639969D02*
X140074195Y-107663778D01*
X140074195Y-107663778D02*
X139978957Y-107663778D01*
X140383720Y-107211397D02*
X140407529Y-107187588D01*
X140407529Y-107187588D02*
X140455148Y-107163778D01*
X140455148Y-107163778D02*
X140574196Y-107163778D01*
X140574196Y-107163778D02*
X140621815Y-107187588D01*
X140621815Y-107187588D02*
X140645624Y-107211397D01*
X140645624Y-107211397D02*
X140669434Y-107259016D01*
X140669434Y-107259016D02*
X140669434Y-107306635D01*
X140669434Y-107306635D02*
X140645624Y-107378064D01*
X140645624Y-107378064D02*
X140359910Y-107663778D01*
X140359910Y-107663778D02*
X140669434Y-107663778D01*
X138153203Y-109980816D02*
X137986537Y-109742721D01*
X137867489Y-109980816D02*
X137867489Y-109480816D01*
X137867489Y-109480816D02*
X138057965Y-109480816D01*
X138057965Y-109480816D02*
X138105584Y-109504626D01*
X138105584Y-109504626D02*
X138129394Y-109528435D01*
X138129394Y-109528435D02*
X138153203Y-109576054D01*
X138153203Y-109576054D02*
X138153203Y-109647483D01*
X138153203Y-109647483D02*
X138129394Y-109695102D01*
X138129394Y-109695102D02*
X138105584Y-109718911D01*
X138105584Y-109718911D02*
X138057965Y-109742721D01*
X138057965Y-109742721D02*
X137867489Y-109742721D01*
X138629394Y-109980816D02*
X138343680Y-109980816D01*
X138486537Y-109980816D02*
X138486537Y-109480816D01*
X138486537Y-109480816D02*
X138438918Y-109552245D01*
X138438918Y-109552245D02*
X138391299Y-109599864D01*
X138391299Y-109599864D02*
X138343680Y-109623673D01*
X138796060Y-109480816D02*
X139129393Y-109480816D01*
X139129393Y-109480816D02*
X138915108Y-109980816D01*
X125990645Y-101414306D02*
X125823979Y-101176211D01*
X125704931Y-101414306D02*
X125704931Y-100914306D01*
X125704931Y-100914306D02*
X125895407Y-100914306D01*
X125895407Y-100914306D02*
X125943026Y-100938116D01*
X125943026Y-100938116D02*
X125966836Y-100961925D01*
X125966836Y-100961925D02*
X125990645Y-101009544D01*
X125990645Y-101009544D02*
X125990645Y-101080973D01*
X125990645Y-101080973D02*
X125966836Y-101128592D01*
X125966836Y-101128592D02*
X125943026Y-101152401D01*
X125943026Y-101152401D02*
X125895407Y-101176211D01*
X125895407Y-101176211D02*
X125704931Y-101176211D01*
X126466836Y-101414306D02*
X126181122Y-101414306D01*
X126323979Y-101414306D02*
X126323979Y-100914306D01*
X126323979Y-100914306D02*
X126276360Y-100985735D01*
X126276360Y-100985735D02*
X126228741Y-101033354D01*
X126228741Y-101033354D02*
X126181122Y-101057163D01*
X126752550Y-101128592D02*
X126704931Y-101104782D01*
X126704931Y-101104782D02*
X126681121Y-101080973D01*
X126681121Y-101080973D02*
X126657312Y-101033354D01*
X126657312Y-101033354D02*
X126657312Y-101009544D01*
X126657312Y-101009544D02*
X126681121Y-100961925D01*
X126681121Y-100961925D02*
X126704931Y-100938116D01*
X126704931Y-100938116D02*
X126752550Y-100914306D01*
X126752550Y-100914306D02*
X126847788Y-100914306D01*
X126847788Y-100914306D02*
X126895407Y-100938116D01*
X126895407Y-100938116D02*
X126919216Y-100961925D01*
X126919216Y-100961925D02*
X126943026Y-101009544D01*
X126943026Y-101009544D02*
X126943026Y-101033354D01*
X126943026Y-101033354D02*
X126919216Y-101080973D01*
X126919216Y-101080973D02*
X126895407Y-101104782D01*
X126895407Y-101104782D02*
X126847788Y-101128592D01*
X126847788Y-101128592D02*
X126752550Y-101128592D01*
X126752550Y-101128592D02*
X126704931Y-101152401D01*
X126704931Y-101152401D02*
X126681121Y-101176211D01*
X126681121Y-101176211D02*
X126657312Y-101223830D01*
X126657312Y-101223830D02*
X126657312Y-101319068D01*
X126657312Y-101319068D02*
X126681121Y-101366687D01*
X126681121Y-101366687D02*
X126704931Y-101390497D01*
X126704931Y-101390497D02*
X126752550Y-101414306D01*
X126752550Y-101414306D02*
X126847788Y-101414306D01*
X126847788Y-101414306D02*
X126895407Y-101390497D01*
X126895407Y-101390497D02*
X126919216Y-101366687D01*
X126919216Y-101366687D02*
X126943026Y-101319068D01*
X126943026Y-101319068D02*
X126943026Y-101223830D01*
X126943026Y-101223830D02*
X126919216Y-101176211D01*
X126919216Y-101176211D02*
X126895407Y-101152401D01*
X126895407Y-101152401D02*
X126847788Y-101128592D01*
X138715214Y-105251536D02*
X138548548Y-105013441D01*
X138429500Y-105251536D02*
X138429500Y-104751536D01*
X138429500Y-104751536D02*
X138619976Y-104751536D01*
X138619976Y-104751536D02*
X138667595Y-104775346D01*
X138667595Y-104775346D02*
X138691405Y-104799155D01*
X138691405Y-104799155D02*
X138715214Y-104846774D01*
X138715214Y-104846774D02*
X138715214Y-104918203D01*
X138715214Y-104918203D02*
X138691405Y-104965822D01*
X138691405Y-104965822D02*
X138667595Y-104989631D01*
X138667595Y-104989631D02*
X138619976Y-105013441D01*
X138619976Y-105013441D02*
X138429500Y-105013441D01*
X139191405Y-105251536D02*
X138905691Y-105251536D01*
X139048548Y-105251536D02*
X139048548Y-104751536D01*
X139048548Y-104751536D02*
X139000929Y-104822965D01*
X139000929Y-104822965D02*
X138953310Y-104870584D01*
X138953310Y-104870584D02*
X138905691Y-104894393D01*
X139643785Y-104751536D02*
X139405690Y-104751536D01*
X139405690Y-104751536D02*
X139381881Y-104989631D01*
X139381881Y-104989631D02*
X139405690Y-104965822D01*
X139405690Y-104965822D02*
X139453309Y-104942012D01*
X139453309Y-104942012D02*
X139572357Y-104942012D01*
X139572357Y-104942012D02*
X139619976Y-104965822D01*
X139619976Y-104965822D02*
X139643785Y-104989631D01*
X139643785Y-104989631D02*
X139667595Y-105037250D01*
X139667595Y-105037250D02*
X139667595Y-105156298D01*
X139667595Y-105156298D02*
X139643785Y-105203917D01*
X139643785Y-105203917D02*
X139619976Y-105227727D01*
X139619976Y-105227727D02*
X139572357Y-105251536D01*
X139572357Y-105251536D02*
X139453309Y-105251536D01*
X139453309Y-105251536D02*
X139405690Y-105227727D01*
X139405690Y-105227727D02*
X139381881Y-105203917D01*
X126297533Y-108038742D02*
X126273724Y-108062552D01*
X126273724Y-108062552D02*
X126202295Y-108086361D01*
X126202295Y-108086361D02*
X126154676Y-108086361D01*
X126154676Y-108086361D02*
X126083248Y-108062552D01*
X126083248Y-108062552D02*
X126035629Y-108014932D01*
X126035629Y-108014932D02*
X126011819Y-107967313D01*
X126011819Y-107967313D02*
X125988010Y-107872075D01*
X125988010Y-107872075D02*
X125988010Y-107800647D01*
X125988010Y-107800647D02*
X126011819Y-107705409D01*
X126011819Y-107705409D02*
X126035629Y-107657790D01*
X126035629Y-107657790D02*
X126083248Y-107610171D01*
X126083248Y-107610171D02*
X126154676Y-107586361D01*
X126154676Y-107586361D02*
X126202295Y-107586361D01*
X126202295Y-107586361D02*
X126273724Y-107610171D01*
X126273724Y-107610171D02*
X126297533Y-107633980D01*
X126464200Y-107586361D02*
X126773724Y-107586361D01*
X126773724Y-107586361D02*
X126607057Y-107776837D01*
X126607057Y-107776837D02*
X126678486Y-107776837D01*
X126678486Y-107776837D02*
X126726105Y-107800647D01*
X126726105Y-107800647D02*
X126749914Y-107824456D01*
X126749914Y-107824456D02*
X126773724Y-107872075D01*
X126773724Y-107872075D02*
X126773724Y-107991123D01*
X126773724Y-107991123D02*
X126749914Y-108038742D01*
X126749914Y-108038742D02*
X126726105Y-108062552D01*
X126726105Y-108062552D02*
X126678486Y-108086361D01*
X126678486Y-108086361D02*
X126535629Y-108086361D01*
X126535629Y-108086361D02*
X126488010Y-108062552D01*
X126488010Y-108062552D02*
X126464200Y-108038742D01*
X101622533Y-110262010D02*
X101598724Y-110285820D01*
X101598724Y-110285820D02*
X101527295Y-110309629D01*
X101527295Y-110309629D02*
X101479676Y-110309629D01*
X101479676Y-110309629D02*
X101408248Y-110285820D01*
X101408248Y-110285820D02*
X101360629Y-110238200D01*
X101360629Y-110238200D02*
X101336819Y-110190581D01*
X101336819Y-110190581D02*
X101313010Y-110095343D01*
X101313010Y-110095343D02*
X101313010Y-110023915D01*
X101313010Y-110023915D02*
X101336819Y-109928677D01*
X101336819Y-109928677D02*
X101360629Y-109881058D01*
X101360629Y-109881058D02*
X101408248Y-109833439D01*
X101408248Y-109833439D02*
X101479676Y-109809629D01*
X101479676Y-109809629D02*
X101527295Y-109809629D01*
X101527295Y-109809629D02*
X101598724Y-109833439D01*
X101598724Y-109833439D02*
X101622533Y-109857248D01*
X101813010Y-109857248D02*
X101836819Y-109833439D01*
X101836819Y-109833439D02*
X101884438Y-109809629D01*
X101884438Y-109809629D02*
X102003486Y-109809629D01*
X102003486Y-109809629D02*
X102051105Y-109833439D01*
X102051105Y-109833439D02*
X102074914Y-109857248D01*
X102074914Y-109857248D02*
X102098724Y-109904867D01*
X102098724Y-109904867D02*
X102098724Y-109952486D01*
X102098724Y-109952486D02*
X102074914Y-110023915D01*
X102074914Y-110023915D02*
X101789200Y-110309629D01*
X101789200Y-110309629D02*
X102098724Y-110309629D01*
X102551104Y-109809629D02*
X102313009Y-109809629D01*
X102313009Y-109809629D02*
X102289200Y-110047724D01*
X102289200Y-110047724D02*
X102313009Y-110023915D01*
X102313009Y-110023915D02*
X102360628Y-110000105D01*
X102360628Y-110000105D02*
X102479676Y-110000105D01*
X102479676Y-110000105D02*
X102527295Y-110023915D01*
X102527295Y-110023915D02*
X102551104Y-110047724D01*
X102551104Y-110047724D02*
X102574914Y-110095343D01*
X102574914Y-110095343D02*
X102574914Y-110214391D01*
X102574914Y-110214391D02*
X102551104Y-110262010D01*
X102551104Y-110262010D02*
X102527295Y-110285820D01*
X102527295Y-110285820D02*
X102479676Y-110309629D01*
X102479676Y-110309629D02*
X102360628Y-110309629D01*
X102360628Y-110309629D02*
X102313009Y-110285820D01*
X102313009Y-110285820D02*
X102289200Y-110262010D01*
X134410769Y-106592990D02*
X134244103Y-106354895D01*
X134125055Y-106592990D02*
X134125055Y-106092990D01*
X134125055Y-106092990D02*
X134315531Y-106092990D01*
X134315531Y-106092990D02*
X134363150Y-106116800D01*
X134363150Y-106116800D02*
X134386960Y-106140609D01*
X134386960Y-106140609D02*
X134410769Y-106188228D01*
X134410769Y-106188228D02*
X134410769Y-106259657D01*
X134410769Y-106259657D02*
X134386960Y-106307276D01*
X134386960Y-106307276D02*
X134363150Y-106331085D01*
X134363150Y-106331085D02*
X134315531Y-106354895D01*
X134315531Y-106354895D02*
X134125055Y-106354895D01*
X134886960Y-106592990D02*
X134601246Y-106592990D01*
X134744103Y-106592990D02*
X134744103Y-106092990D01*
X134744103Y-106092990D02*
X134696484Y-106164419D01*
X134696484Y-106164419D02*
X134648865Y-106212038D01*
X134648865Y-106212038D02*
X134601246Y-106235847D01*
X135315531Y-106259657D02*
X135315531Y-106592990D01*
X135196483Y-106069181D02*
X135077436Y-106426323D01*
X135077436Y-106426323D02*
X135386959Y-106426323D01*
X108941638Y-107749947D02*
X108941638Y-108154709D01*
X108941638Y-108154709D02*
X108965448Y-108202328D01*
X108965448Y-108202328D02*
X108989257Y-108226138D01*
X108989257Y-108226138D02*
X109036876Y-108249947D01*
X109036876Y-108249947D02*
X109132114Y-108249947D01*
X109132114Y-108249947D02*
X109179733Y-108226138D01*
X109179733Y-108226138D02*
X109203543Y-108202328D01*
X109203543Y-108202328D02*
X109227352Y-108154709D01*
X109227352Y-108154709D02*
X109227352Y-107749947D01*
X109727353Y-108249947D02*
X109441639Y-108249947D01*
X109584496Y-108249947D02*
X109584496Y-107749947D01*
X109584496Y-107749947D02*
X109536877Y-107821376D01*
X109536877Y-107821376D02*
X109489258Y-107868995D01*
X109489258Y-107868995D02*
X109441639Y-107892804D01*
X109917829Y-107797566D02*
X109941638Y-107773757D01*
X109941638Y-107773757D02*
X109989257Y-107749947D01*
X109989257Y-107749947D02*
X110108305Y-107749947D01*
X110108305Y-107749947D02*
X110155924Y-107773757D01*
X110155924Y-107773757D02*
X110179733Y-107797566D01*
X110179733Y-107797566D02*
X110203543Y-107845185D01*
X110203543Y-107845185D02*
X110203543Y-107892804D01*
X110203543Y-107892804D02*
X110179733Y-107964233D01*
X110179733Y-107964233D02*
X109894019Y-108249947D01*
X109894019Y-108249947D02*
X110203543Y-108249947D01*
X139470294Y-112507918D02*
X139303628Y-112269823D01*
X139184580Y-112507918D02*
X139184580Y-112007918D01*
X139184580Y-112007918D02*
X139375056Y-112007918D01*
X139375056Y-112007918D02*
X139422675Y-112031728D01*
X139422675Y-112031728D02*
X139446485Y-112055537D01*
X139446485Y-112055537D02*
X139470294Y-112103156D01*
X139470294Y-112103156D02*
X139470294Y-112174585D01*
X139470294Y-112174585D02*
X139446485Y-112222204D01*
X139446485Y-112222204D02*
X139422675Y-112246013D01*
X139422675Y-112246013D02*
X139375056Y-112269823D01*
X139375056Y-112269823D02*
X139184580Y-112269823D01*
X139946485Y-112507918D02*
X139660771Y-112507918D01*
X139803628Y-112507918D02*
X139803628Y-112007918D01*
X139803628Y-112007918D02*
X139756009Y-112079347D01*
X139756009Y-112079347D02*
X139708390Y-112126966D01*
X139708390Y-112126966D02*
X139660771Y-112150775D01*
X140375056Y-112007918D02*
X140279818Y-112007918D01*
X140279818Y-112007918D02*
X140232199Y-112031728D01*
X140232199Y-112031728D02*
X140208389Y-112055537D01*
X140208389Y-112055537D02*
X140160770Y-112126966D01*
X140160770Y-112126966D02*
X140136961Y-112222204D01*
X140136961Y-112222204D02*
X140136961Y-112412680D01*
X140136961Y-112412680D02*
X140160770Y-112460299D01*
X140160770Y-112460299D02*
X140184580Y-112484109D01*
X140184580Y-112484109D02*
X140232199Y-112507918D01*
X140232199Y-112507918D02*
X140327437Y-112507918D01*
X140327437Y-112507918D02*
X140375056Y-112484109D01*
X140375056Y-112484109D02*
X140398865Y-112460299D01*
X140398865Y-112460299D02*
X140422675Y-112412680D01*
X140422675Y-112412680D02*
X140422675Y-112293632D01*
X140422675Y-112293632D02*
X140398865Y-112246013D01*
X140398865Y-112246013D02*
X140375056Y-112222204D01*
X140375056Y-112222204D02*
X140327437Y-112198394D01*
X140327437Y-112198394D02*
X140232199Y-112198394D01*
X140232199Y-112198394D02*
X140184580Y-112222204D01*
X140184580Y-112222204D02*
X140160770Y-112246013D01*
X140160770Y-112246013D02*
X140136961Y-112293632D01*
X131928708Y-101167680D02*
X131904899Y-101191490D01*
X131904899Y-101191490D02*
X131833470Y-101215299D01*
X131833470Y-101215299D02*
X131785851Y-101215299D01*
X131785851Y-101215299D02*
X131714423Y-101191490D01*
X131714423Y-101191490D02*
X131666804Y-101143870D01*
X131666804Y-101143870D02*
X131642994Y-101096251D01*
X131642994Y-101096251D02*
X131619185Y-101001013D01*
X131619185Y-101001013D02*
X131619185Y-100929585D01*
X131619185Y-100929585D02*
X131642994Y-100834347D01*
X131642994Y-100834347D02*
X131666804Y-100786728D01*
X131666804Y-100786728D02*
X131714423Y-100739109D01*
X131714423Y-100739109D02*
X131785851Y-100715299D01*
X131785851Y-100715299D02*
X131833470Y-100715299D01*
X131833470Y-100715299D02*
X131904899Y-100739109D01*
X131904899Y-100739109D02*
X131928708Y-100762918D01*
X132119185Y-100762918D02*
X132142994Y-100739109D01*
X132142994Y-100739109D02*
X132190613Y-100715299D01*
X132190613Y-100715299D02*
X132309661Y-100715299D01*
X132309661Y-100715299D02*
X132357280Y-100739109D01*
X132357280Y-100739109D02*
X132381089Y-100762918D01*
X132381089Y-100762918D02*
X132404899Y-100810537D01*
X132404899Y-100810537D02*
X132404899Y-100858156D01*
X132404899Y-100858156D02*
X132381089Y-100929585D01*
X132381089Y-100929585D02*
X132095375Y-101215299D01*
X132095375Y-101215299D02*
X132404899Y-101215299D01*
X132833470Y-100881966D02*
X132833470Y-101215299D01*
X132714422Y-100691490D02*
X132595375Y-101048632D01*
X132595375Y-101048632D02*
X132904898Y-101048632D01*
X128587341Y-102632916D02*
X128420675Y-102394821D01*
X128301627Y-102632916D02*
X128301627Y-102132916D01*
X128301627Y-102132916D02*
X128492103Y-102132916D01*
X128492103Y-102132916D02*
X128539722Y-102156726D01*
X128539722Y-102156726D02*
X128563532Y-102180535D01*
X128563532Y-102180535D02*
X128587341Y-102228154D01*
X128587341Y-102228154D02*
X128587341Y-102299583D01*
X128587341Y-102299583D02*
X128563532Y-102347202D01*
X128563532Y-102347202D02*
X128539722Y-102371011D01*
X128539722Y-102371011D02*
X128492103Y-102394821D01*
X128492103Y-102394821D02*
X128301627Y-102394821D01*
X129039722Y-102132916D02*
X128801627Y-102132916D01*
X128801627Y-102132916D02*
X128777818Y-102371011D01*
X128777818Y-102371011D02*
X128801627Y-102347202D01*
X128801627Y-102347202D02*
X128849246Y-102323392D01*
X128849246Y-102323392D02*
X128968294Y-102323392D01*
X128968294Y-102323392D02*
X129015913Y-102347202D01*
X129015913Y-102347202D02*
X129039722Y-102371011D01*
X129039722Y-102371011D02*
X129063532Y-102418630D01*
X129063532Y-102418630D02*
X129063532Y-102537678D01*
X129063532Y-102537678D02*
X129039722Y-102585297D01*
X129039722Y-102585297D02*
X129015913Y-102609107D01*
X129015913Y-102609107D02*
X128968294Y-102632916D01*
X128968294Y-102632916D02*
X128849246Y-102632916D01*
X128849246Y-102632916D02*
X128801627Y-102609107D01*
X128801627Y-102609107D02*
X128777818Y-102585297D01*
X137404291Y-116586371D02*
X137237625Y-116348276D01*
X137118577Y-116586371D02*
X137118577Y-116086371D01*
X137118577Y-116086371D02*
X137309053Y-116086371D01*
X137309053Y-116086371D02*
X137356672Y-116110181D01*
X137356672Y-116110181D02*
X137380482Y-116133990D01*
X137380482Y-116133990D02*
X137404291Y-116181609D01*
X137404291Y-116181609D02*
X137404291Y-116253038D01*
X137404291Y-116253038D02*
X137380482Y-116300657D01*
X137380482Y-116300657D02*
X137356672Y-116324466D01*
X137356672Y-116324466D02*
X137309053Y-116348276D01*
X137309053Y-116348276D02*
X137118577Y-116348276D01*
X137880482Y-116586371D02*
X137594768Y-116586371D01*
X137737625Y-116586371D02*
X137737625Y-116086371D01*
X137737625Y-116086371D02*
X137690006Y-116157800D01*
X137690006Y-116157800D02*
X137642387Y-116205419D01*
X137642387Y-116205419D02*
X137594768Y-116229228D01*
X138190005Y-116086371D02*
X138237624Y-116086371D01*
X138237624Y-116086371D02*
X138285243Y-116110181D01*
X138285243Y-116110181D02*
X138309053Y-116133990D01*
X138309053Y-116133990D02*
X138332862Y-116181609D01*
X138332862Y-116181609D02*
X138356672Y-116276847D01*
X138356672Y-116276847D02*
X138356672Y-116395895D01*
X138356672Y-116395895D02*
X138332862Y-116491133D01*
X138332862Y-116491133D02*
X138309053Y-116538752D01*
X138309053Y-116538752D02*
X138285243Y-116562562D01*
X138285243Y-116562562D02*
X138237624Y-116586371D01*
X138237624Y-116586371D02*
X138190005Y-116586371D01*
X138190005Y-116586371D02*
X138142386Y-116562562D01*
X138142386Y-116562562D02*
X138118577Y-116538752D01*
X138118577Y-116538752D02*
X138094767Y-116491133D01*
X138094767Y-116491133D02*
X138070958Y-116395895D01*
X138070958Y-116395895D02*
X138070958Y-116276847D01*
X138070958Y-116276847D02*
X138094767Y-116181609D01*
X138094767Y-116181609D02*
X138118577Y-116133990D01*
X138118577Y-116133990D02*
X138142386Y-116110181D01*
X138142386Y-116110181D02*
X138190005Y-116086371D01*
X112733333Y-100624809D02*
X112733333Y-100981952D01*
X112733333Y-100981952D02*
X112709524Y-101053380D01*
X112709524Y-101053380D02*
X112661905Y-101101000D01*
X112661905Y-101101000D02*
X112590476Y-101124809D01*
X112590476Y-101124809D02*
X112542857Y-101124809D01*
X112923809Y-100624809D02*
X113233333Y-100624809D01*
X113233333Y-100624809D02*
X113066666Y-100815285D01*
X113066666Y-100815285D02*
X113138095Y-100815285D01*
X113138095Y-100815285D02*
X113185714Y-100839095D01*
X113185714Y-100839095D02*
X113209523Y-100862904D01*
X113209523Y-100862904D02*
X113233333Y-100910523D01*
X113233333Y-100910523D02*
X113233333Y-101029571D01*
X113233333Y-101029571D02*
X113209523Y-101077190D01*
X113209523Y-101077190D02*
X113185714Y-101101000D01*
X113185714Y-101101000D02*
X113138095Y-101124809D01*
X113138095Y-101124809D02*
X112995238Y-101124809D01*
X112995238Y-101124809D02*
X112947619Y-101101000D01*
X112947619Y-101101000D02*
X112923809Y-101077190D01*
X143574907Y-112836627D02*
X143074907Y-112836627D01*
X143074907Y-112836627D02*
X143074907Y-112717579D01*
X143074907Y-112717579D02*
X143098717Y-112646151D01*
X143098717Y-112646151D02*
X143146336Y-112598532D01*
X143146336Y-112598532D02*
X143193955Y-112574722D01*
X143193955Y-112574722D02*
X143289193Y-112550913D01*
X143289193Y-112550913D02*
X143360621Y-112550913D01*
X143360621Y-112550913D02*
X143455859Y-112574722D01*
X143455859Y-112574722D02*
X143503478Y-112598532D01*
X143503478Y-112598532D02*
X143551098Y-112646151D01*
X143551098Y-112646151D02*
X143574907Y-112717579D01*
X143574907Y-112717579D02*
X143574907Y-112836627D01*
X143074907Y-112384246D02*
X143074907Y-112074722D01*
X143074907Y-112074722D02*
X143265383Y-112241389D01*
X143265383Y-112241389D02*
X143265383Y-112169960D01*
X143265383Y-112169960D02*
X143289193Y-112122341D01*
X143289193Y-112122341D02*
X143313002Y-112098532D01*
X143313002Y-112098532D02*
X143360621Y-112074722D01*
X143360621Y-112074722D02*
X143479669Y-112074722D01*
X143479669Y-112074722D02*
X143527288Y-112098532D01*
X143527288Y-112098532D02*
X143551098Y-112122341D01*
X143551098Y-112122341D02*
X143574907Y-112169960D01*
X143574907Y-112169960D02*
X143574907Y-112312817D01*
X143574907Y-112312817D02*
X143551098Y-112360436D01*
X143551098Y-112360436D02*
X143527288Y-112384246D01*
X143016866Y-117741388D02*
X142969247Y-117717579D01*
X142969247Y-117717579D02*
X142921628Y-117669960D01*
X142921628Y-117669960D02*
X142850200Y-117598531D01*
X142850200Y-117598531D02*
X142802581Y-117574721D01*
X142802581Y-117574721D02*
X142754962Y-117574721D01*
X142778771Y-117693769D02*
X142731152Y-117669960D01*
X142731152Y-117669960D02*
X142683533Y-117622340D01*
X142683533Y-117622340D02*
X142659724Y-117527102D01*
X142659724Y-117527102D02*
X142659724Y-117360436D01*
X142659724Y-117360436D02*
X142683533Y-117265198D01*
X142683533Y-117265198D02*
X142731152Y-117217579D01*
X142731152Y-117217579D02*
X142778771Y-117193769D01*
X142778771Y-117193769D02*
X142874009Y-117193769D01*
X142874009Y-117193769D02*
X142921628Y-117217579D01*
X142921628Y-117217579D02*
X142969247Y-117265198D01*
X142969247Y-117265198D02*
X142993057Y-117360436D01*
X142993057Y-117360436D02*
X142993057Y-117527102D01*
X142993057Y-117527102D02*
X142969247Y-117622340D01*
X142969247Y-117622340D02*
X142921628Y-117669960D01*
X142921628Y-117669960D02*
X142874009Y-117693769D01*
X142874009Y-117693769D02*
X142778771Y-117693769D01*
X143469248Y-117693769D02*
X143183534Y-117693769D01*
X143326391Y-117693769D02*
X143326391Y-117193769D01*
X143326391Y-117193769D02*
X143278772Y-117265198D01*
X143278772Y-117265198D02*
X143231153Y-117312817D01*
X143231153Y-117312817D02*
X143183534Y-117336626D01*
X134247271Y-117243191D02*
X134080605Y-117005096D01*
X133961557Y-117243191D02*
X133961557Y-116743191D01*
X133961557Y-116743191D02*
X134152033Y-116743191D01*
X134152033Y-116743191D02*
X134199652Y-116767001D01*
X134199652Y-116767001D02*
X134223462Y-116790810D01*
X134223462Y-116790810D02*
X134247271Y-116838429D01*
X134247271Y-116838429D02*
X134247271Y-116909858D01*
X134247271Y-116909858D02*
X134223462Y-116957477D01*
X134223462Y-116957477D02*
X134199652Y-116981286D01*
X134199652Y-116981286D02*
X134152033Y-117005096D01*
X134152033Y-117005096D02*
X133961557Y-117005096D01*
X134485367Y-117243191D02*
X134580605Y-117243191D01*
X134580605Y-117243191D02*
X134628224Y-117219382D01*
X134628224Y-117219382D02*
X134652033Y-117195572D01*
X134652033Y-117195572D02*
X134699652Y-117124143D01*
X134699652Y-117124143D02*
X134723462Y-117028905D01*
X134723462Y-117028905D02*
X134723462Y-116838429D01*
X134723462Y-116838429D02*
X134699652Y-116790810D01*
X134699652Y-116790810D02*
X134675843Y-116767001D01*
X134675843Y-116767001D02*
X134628224Y-116743191D01*
X134628224Y-116743191D02*
X134532986Y-116743191D01*
X134532986Y-116743191D02*
X134485367Y-116767001D01*
X134485367Y-116767001D02*
X134461557Y-116790810D01*
X134461557Y-116790810D02*
X134437748Y-116838429D01*
X134437748Y-116838429D02*
X134437748Y-116957477D01*
X134437748Y-116957477D02*
X134461557Y-117005096D01*
X134461557Y-117005096D02*
X134485367Y-117028905D01*
X134485367Y-117028905D02*
X134532986Y-117052715D01*
X134532986Y-117052715D02*
X134628224Y-117052715D01*
X134628224Y-117052715D02*
X134675843Y-117028905D01*
X134675843Y-117028905D02*
X134699652Y-117005096D01*
X134699652Y-117005096D02*
X134723462Y-116957477D01*
X122958711Y-105918347D02*
X122958711Y-106323109D01*
X122958711Y-106323109D02*
X122982521Y-106370728D01*
X122982521Y-106370728D02*
X123006330Y-106394538D01*
X123006330Y-106394538D02*
X123053949Y-106418347D01*
X123053949Y-106418347D02*
X123149187Y-106418347D01*
X123149187Y-106418347D02*
X123196806Y-106394538D01*
X123196806Y-106394538D02*
X123220616Y-106370728D01*
X123220616Y-106370728D02*
X123244425Y-106323109D01*
X123244425Y-106323109D02*
X123244425Y-105918347D01*
X123434902Y-105918347D02*
X123744426Y-105918347D01*
X123744426Y-105918347D02*
X123577759Y-106108823D01*
X123577759Y-106108823D02*
X123649188Y-106108823D01*
X123649188Y-106108823D02*
X123696807Y-106132633D01*
X123696807Y-106132633D02*
X123720616Y-106156442D01*
X123720616Y-106156442D02*
X123744426Y-106204061D01*
X123744426Y-106204061D02*
X123744426Y-106323109D01*
X123744426Y-106323109D02*
X123720616Y-106370728D01*
X123720616Y-106370728D02*
X123696807Y-106394538D01*
X123696807Y-106394538D02*
X123649188Y-106418347D01*
X123649188Y-106418347D02*
X123506331Y-106418347D01*
X123506331Y-106418347D02*
X123458712Y-106394538D01*
X123458712Y-106394538D02*
X123434902Y-106370728D01*
X135209520Y-100503669D02*
X135209520Y-100908431D01*
X135209520Y-100908431D02*
X135233330Y-100956050D01*
X135233330Y-100956050D02*
X135257139Y-100979860D01*
X135257139Y-100979860D02*
X135304758Y-101003669D01*
X135304758Y-101003669D02*
X135399996Y-101003669D01*
X135399996Y-101003669D02*
X135447615Y-100979860D01*
X135447615Y-100979860D02*
X135471425Y-100956050D01*
X135471425Y-100956050D02*
X135495234Y-100908431D01*
X135495234Y-100908431D02*
X135495234Y-100503669D01*
X135995235Y-101003669D02*
X135709521Y-101003669D01*
X135852378Y-101003669D02*
X135852378Y-100503669D01*
X135852378Y-100503669D02*
X135804759Y-100575098D01*
X135804759Y-100575098D02*
X135757140Y-100622717D01*
X135757140Y-100622717D02*
X135709521Y-100646526D01*
X103651833Y-111576580D02*
X103628024Y-111600390D01*
X103628024Y-111600390D02*
X103556595Y-111624199D01*
X103556595Y-111624199D02*
X103508976Y-111624199D01*
X103508976Y-111624199D02*
X103437548Y-111600390D01*
X103437548Y-111600390D02*
X103389929Y-111552770D01*
X103389929Y-111552770D02*
X103366119Y-111505151D01*
X103366119Y-111505151D02*
X103342310Y-111409913D01*
X103342310Y-111409913D02*
X103342310Y-111338485D01*
X103342310Y-111338485D02*
X103366119Y-111243247D01*
X103366119Y-111243247D02*
X103389929Y-111195628D01*
X103389929Y-111195628D02*
X103437548Y-111148009D01*
X103437548Y-111148009D02*
X103508976Y-111124199D01*
X103508976Y-111124199D02*
X103556595Y-111124199D01*
X103556595Y-111124199D02*
X103628024Y-111148009D01*
X103628024Y-111148009D02*
X103651833Y-111171818D01*
X104128024Y-111624199D02*
X103842310Y-111624199D01*
X103985167Y-111624199D02*
X103985167Y-111124199D01*
X103985167Y-111124199D02*
X103937548Y-111195628D01*
X103937548Y-111195628D02*
X103889929Y-111243247D01*
X103889929Y-111243247D02*
X103842310Y-111267056D01*
X104294690Y-111124199D02*
X104628023Y-111124199D01*
X104628023Y-111124199D02*
X104413738Y-111624199D01*
X118975634Y-106419985D02*
X118808968Y-106181890D01*
X118689920Y-106419985D02*
X118689920Y-105919985D01*
X118689920Y-105919985D02*
X118880396Y-105919985D01*
X118880396Y-105919985D02*
X118928015Y-105943795D01*
X118928015Y-105943795D02*
X118951825Y-105967604D01*
X118951825Y-105967604D02*
X118975634Y-106015223D01*
X118975634Y-106015223D02*
X118975634Y-106086652D01*
X118975634Y-106086652D02*
X118951825Y-106134271D01*
X118951825Y-106134271D02*
X118928015Y-106158080D01*
X118928015Y-106158080D02*
X118880396Y-106181890D01*
X118880396Y-106181890D02*
X118689920Y-106181890D01*
X119166111Y-105967604D02*
X119189920Y-105943795D01*
X119189920Y-105943795D02*
X119237539Y-105919985D01*
X119237539Y-105919985D02*
X119356587Y-105919985D01*
X119356587Y-105919985D02*
X119404206Y-105943795D01*
X119404206Y-105943795D02*
X119428015Y-105967604D01*
X119428015Y-105967604D02*
X119451825Y-106015223D01*
X119451825Y-106015223D02*
X119451825Y-106062842D01*
X119451825Y-106062842D02*
X119428015Y-106134271D01*
X119428015Y-106134271D02*
X119142301Y-106419985D01*
X119142301Y-106419985D02*
X119451825Y-106419985D01*
X100676432Y-105359313D02*
X100652623Y-105383123D01*
X100652623Y-105383123D02*
X100581194Y-105406932D01*
X100581194Y-105406932D02*
X100533575Y-105406932D01*
X100533575Y-105406932D02*
X100462147Y-105383123D01*
X100462147Y-105383123D02*
X100414528Y-105335503D01*
X100414528Y-105335503D02*
X100390718Y-105287884D01*
X100390718Y-105287884D02*
X100366909Y-105192646D01*
X100366909Y-105192646D02*
X100366909Y-105121218D01*
X100366909Y-105121218D02*
X100390718Y-105025980D01*
X100390718Y-105025980D02*
X100414528Y-104978361D01*
X100414528Y-104978361D02*
X100462147Y-104930742D01*
X100462147Y-104930742D02*
X100533575Y-104906932D01*
X100533575Y-104906932D02*
X100581194Y-104906932D01*
X100581194Y-104906932D02*
X100652623Y-104930742D01*
X100652623Y-104930742D02*
X100676432Y-104954551D01*
X100866909Y-104954551D02*
X100890718Y-104930742D01*
X100890718Y-104930742D02*
X100938337Y-104906932D01*
X100938337Y-104906932D02*
X101057385Y-104906932D01*
X101057385Y-104906932D02*
X101105004Y-104930742D01*
X101105004Y-104930742D02*
X101128813Y-104954551D01*
X101128813Y-104954551D02*
X101152623Y-105002170D01*
X101152623Y-105002170D02*
X101152623Y-105049789D01*
X101152623Y-105049789D02*
X101128813Y-105121218D01*
X101128813Y-105121218D02*
X100843099Y-105406932D01*
X100843099Y-105406932D02*
X101152623Y-105406932D01*
X101581194Y-104906932D02*
X101485956Y-104906932D01*
X101485956Y-104906932D02*
X101438337Y-104930742D01*
X101438337Y-104930742D02*
X101414527Y-104954551D01*
X101414527Y-104954551D02*
X101366908Y-105025980D01*
X101366908Y-105025980D02*
X101343099Y-105121218D01*
X101343099Y-105121218D02*
X101343099Y-105311694D01*
X101343099Y-105311694D02*
X101366908Y-105359313D01*
X101366908Y-105359313D02*
X101390718Y-105383123D01*
X101390718Y-105383123D02*
X101438337Y-105406932D01*
X101438337Y-105406932D02*
X101533575Y-105406932D01*
X101533575Y-105406932D02*
X101581194Y-105383123D01*
X101581194Y-105383123D02*
X101605003Y-105359313D01*
X101605003Y-105359313D02*
X101628813Y-105311694D01*
X101628813Y-105311694D02*
X101628813Y-105192646D01*
X101628813Y-105192646D02*
X101605003Y-105145027D01*
X101605003Y-105145027D02*
X101581194Y-105121218D01*
X101581194Y-105121218D02*
X101533575Y-105097408D01*
X101533575Y-105097408D02*
X101438337Y-105097408D01*
X101438337Y-105097408D02*
X101390718Y-105121218D01*
X101390718Y-105121218D02*
X101366908Y-105145027D01*
X101366908Y-105145027D02*
X101343099Y-105192646D01*
X138359154Y-113441940D02*
X138192488Y-113203845D01*
X138073440Y-113441940D02*
X138073440Y-112941940D01*
X138073440Y-112941940D02*
X138263916Y-112941940D01*
X138263916Y-112941940D02*
X138311535Y-112965750D01*
X138311535Y-112965750D02*
X138335345Y-112989559D01*
X138335345Y-112989559D02*
X138359154Y-113037178D01*
X138359154Y-113037178D02*
X138359154Y-113108607D01*
X138359154Y-113108607D02*
X138335345Y-113156226D01*
X138335345Y-113156226D02*
X138311535Y-113180035D01*
X138311535Y-113180035D02*
X138263916Y-113203845D01*
X138263916Y-113203845D02*
X138073440Y-113203845D01*
X138525821Y-112941940D02*
X138859154Y-112941940D01*
X138859154Y-112941940D02*
X138644869Y-113441940D01*
X101435454Y-102259159D02*
X101435454Y-102663921D01*
X101435454Y-102663921D02*
X101459264Y-102711540D01*
X101459264Y-102711540D02*
X101483073Y-102735350D01*
X101483073Y-102735350D02*
X101530692Y-102759159D01*
X101530692Y-102759159D02*
X101625930Y-102759159D01*
X101625930Y-102759159D02*
X101673549Y-102735350D01*
X101673549Y-102735350D02*
X101697359Y-102711540D01*
X101697359Y-102711540D02*
X101721168Y-102663921D01*
X101721168Y-102663921D02*
X101721168Y-102259159D01*
X102221169Y-102759159D02*
X101935455Y-102759159D01*
X102078312Y-102759159D02*
X102078312Y-102259159D01*
X102078312Y-102259159D02*
X102030693Y-102330588D01*
X102030693Y-102330588D02*
X101983074Y-102378207D01*
X101983074Y-102378207D02*
X101935455Y-102402016D01*
X102530692Y-102259159D02*
X102578311Y-102259159D01*
X102578311Y-102259159D02*
X102625930Y-102282969D01*
X102625930Y-102282969D02*
X102649740Y-102306778D01*
X102649740Y-102306778D02*
X102673549Y-102354397D01*
X102673549Y-102354397D02*
X102697359Y-102449635D01*
X102697359Y-102449635D02*
X102697359Y-102568683D01*
X102697359Y-102568683D02*
X102673549Y-102663921D01*
X102673549Y-102663921D02*
X102649740Y-102711540D01*
X102649740Y-102711540D02*
X102625930Y-102735350D01*
X102625930Y-102735350D02*
X102578311Y-102759159D01*
X102578311Y-102759159D02*
X102530692Y-102759159D01*
X102530692Y-102759159D02*
X102483073Y-102735350D01*
X102483073Y-102735350D02*
X102459264Y-102711540D01*
X102459264Y-102711540D02*
X102435454Y-102663921D01*
X102435454Y-102663921D02*
X102411645Y-102568683D01*
X102411645Y-102568683D02*
X102411645Y-102449635D01*
X102411645Y-102449635D02*
X102435454Y-102354397D01*
X102435454Y-102354397D02*
X102459264Y-102306778D01*
X102459264Y-102306778D02*
X102483073Y-102282969D01*
X102483073Y-102282969D02*
X102530692Y-102259159D01*
X129292259Y-106124136D02*
X129125593Y-105886041D01*
X129006545Y-106124136D02*
X129006545Y-105624136D01*
X129006545Y-105624136D02*
X129197021Y-105624136D01*
X129197021Y-105624136D02*
X129244640Y-105647946D01*
X129244640Y-105647946D02*
X129268450Y-105671755D01*
X129268450Y-105671755D02*
X129292259Y-105719374D01*
X129292259Y-105719374D02*
X129292259Y-105790803D01*
X129292259Y-105790803D02*
X129268450Y-105838422D01*
X129268450Y-105838422D02*
X129244640Y-105862231D01*
X129244640Y-105862231D02*
X129197021Y-105886041D01*
X129197021Y-105886041D02*
X129006545Y-105886041D01*
X129720831Y-105624136D02*
X129625593Y-105624136D01*
X129625593Y-105624136D02*
X129577974Y-105647946D01*
X129577974Y-105647946D02*
X129554164Y-105671755D01*
X129554164Y-105671755D02*
X129506545Y-105743184D01*
X129506545Y-105743184D02*
X129482736Y-105838422D01*
X129482736Y-105838422D02*
X129482736Y-106028898D01*
X129482736Y-106028898D02*
X129506545Y-106076517D01*
X129506545Y-106076517D02*
X129530355Y-106100327D01*
X129530355Y-106100327D02*
X129577974Y-106124136D01*
X129577974Y-106124136D02*
X129673212Y-106124136D01*
X129673212Y-106124136D02*
X129720831Y-106100327D01*
X129720831Y-106100327D02*
X129744640Y-106076517D01*
X129744640Y-106076517D02*
X129768450Y-106028898D01*
X129768450Y-106028898D02*
X129768450Y-105909850D01*
X129768450Y-105909850D02*
X129744640Y-105862231D01*
X129744640Y-105862231D02*
X129720831Y-105838422D01*
X129720831Y-105838422D02*
X129673212Y-105814612D01*
X129673212Y-105814612D02*
X129577974Y-105814612D01*
X129577974Y-105814612D02*
X129530355Y-105838422D01*
X129530355Y-105838422D02*
X129506545Y-105862231D01*
X129506545Y-105862231D02*
X129482736Y-105909850D01*
X121605122Y-106010300D02*
X121438456Y-105772205D01*
X121319408Y-106010300D02*
X121319408Y-105510300D01*
X121319408Y-105510300D02*
X121509884Y-105510300D01*
X121509884Y-105510300D02*
X121557503Y-105534110D01*
X121557503Y-105534110D02*
X121581313Y-105557919D01*
X121581313Y-105557919D02*
X121605122Y-105605538D01*
X121605122Y-105605538D02*
X121605122Y-105676967D01*
X121605122Y-105676967D02*
X121581313Y-105724586D01*
X121581313Y-105724586D02*
X121557503Y-105748395D01*
X121557503Y-105748395D02*
X121509884Y-105772205D01*
X121509884Y-105772205D02*
X121319408Y-105772205D01*
X122081313Y-106010300D02*
X121795599Y-106010300D01*
X121938456Y-106010300D02*
X121938456Y-105510300D01*
X121938456Y-105510300D02*
X121890837Y-105581729D01*
X121890837Y-105581729D02*
X121843218Y-105629348D01*
X121843218Y-105629348D02*
X121795599Y-105653157D01*
X122319408Y-106010300D02*
X122414646Y-106010300D01*
X122414646Y-106010300D02*
X122462265Y-105986491D01*
X122462265Y-105986491D02*
X122486074Y-105962681D01*
X122486074Y-105962681D02*
X122533693Y-105891252D01*
X122533693Y-105891252D02*
X122557503Y-105796014D01*
X122557503Y-105796014D02*
X122557503Y-105605538D01*
X122557503Y-105605538D02*
X122533693Y-105557919D01*
X122533693Y-105557919D02*
X122509884Y-105534110D01*
X122509884Y-105534110D02*
X122462265Y-105510300D01*
X122462265Y-105510300D02*
X122367027Y-105510300D01*
X122367027Y-105510300D02*
X122319408Y-105534110D01*
X122319408Y-105534110D02*
X122295598Y-105557919D01*
X122295598Y-105557919D02*
X122271789Y-105605538D01*
X122271789Y-105605538D02*
X122271789Y-105724586D01*
X122271789Y-105724586D02*
X122295598Y-105772205D01*
X122295598Y-105772205D02*
X122319408Y-105796014D01*
X122319408Y-105796014D02*
X122367027Y-105819824D01*
X122367027Y-105819824D02*
X122462265Y-105819824D01*
X122462265Y-105819824D02*
X122509884Y-105796014D01*
X122509884Y-105796014D02*
X122533693Y-105772205D01*
X122533693Y-105772205D02*
X122557503Y-105724586D01*
D12*
%TO.C,R13*%
X108423365Y-111086339D02*
X107948849Y-111086339D01*
X108423365Y-110041339D02*
X107948849Y-110041339D01*
%TO.C,Y1*%
X120332190Y-109689158D02*
X118332190Y-109689158D01*
X118332190Y-109689158D02*
X117932190Y-109689158D01*
X120332190Y-109889158D02*
X120332190Y-110889158D01*
X118332190Y-109889158D02*
X120332190Y-109889158D01*
X118332190Y-109889158D02*
X117932190Y-109889158D01*
X117932190Y-110889158D02*
X117932190Y-109889158D01*
X117932190Y-110889158D02*
X117532190Y-110889158D01*
X120332190Y-112689158D02*
X120332190Y-113489158D01*
X120332190Y-113489158D02*
X118332190Y-113489158D01*
X118332190Y-113489158D02*
X117932190Y-113489158D01*
X117932190Y-113489158D02*
X117932190Y-112689158D01*
%TO.C,J1*%
X112702636Y-114212428D02*
X112702636Y-113082428D01*
X113462636Y-114212428D02*
X112702636Y-114212428D01*
X114222636Y-114212428D02*
X116697636Y-114212428D01*
X114222636Y-114212428D02*
X114222636Y-113645899D01*
X116697636Y-114212428D02*
X116697636Y-113389958D01*
X116697636Y-112774898D02*
X116697636Y-112119958D01*
X114222636Y-112518957D02*
X114222636Y-112375899D01*
X112767636Y-112322428D02*
X112767636Y-112119958D01*
X112899165Y-112322428D02*
X112767636Y-112322428D01*
X114169165Y-112322428D02*
X114026107Y-112322428D01*
X112767636Y-111504898D02*
X112767636Y-110682428D01*
X116697636Y-111504898D02*
X116697636Y-110682428D01*
X112767636Y-110682428D02*
X116697636Y-110682428D01*
%TO.C,C22*%
X136288600Y-110265743D02*
X136569760Y-110265743D01*
X136288600Y-111285743D02*
X136569760Y-111285743D01*
%TO.C,R8*%
X140427614Y-115720436D02*
X139953098Y-115720436D01*
X140427614Y-114675436D02*
X139953098Y-114675436D01*
%TO.C,U6*%
X125132782Y-102072709D02*
X123132782Y-102072709D01*
X124132782Y-104292709D02*
X123132782Y-104292709D01*
%TO.C,R4*%
X117745299Y-102522105D02*
X117745299Y-102996621D01*
X116700299Y-102522105D02*
X116700299Y-102996621D01*
%TO.C,R1*%
X115631082Y-108472219D02*
X116105598Y-108472219D01*
X115631082Y-109517219D02*
X116105598Y-109517219D01*
%TO.C,C23*%
X103826498Y-101742877D02*
X103545338Y-101742877D01*
X103826498Y-100722877D02*
X103545338Y-100722877D01*
%TO.C,C30*%
X109453355Y-104789415D02*
X109172195Y-104789415D01*
X109453355Y-103769415D02*
X109172195Y-103769415D01*
%TO.C,U7*%
X107711094Y-114458624D02*
X110711094Y-114458624D01*
X107711094Y-112258624D02*
X109911094Y-112258624D01*
%TO.C,C29*%
X109718046Y-106068435D02*
X109502374Y-106068435D01*
X109718046Y-105348435D02*
X109502374Y-105348435D01*
%TO.C,U9*%
X134803215Y-111224479D02*
X134803215Y-108299479D01*
X134803215Y-111224479D02*
X134803215Y-112724479D01*
X131583215Y-111224479D02*
X131583215Y-109724479D01*
X131583215Y-111224479D02*
X131583215Y-112724479D01*
%TO.C,C6*%
X120106465Y-108878198D02*
X120106465Y-109093870D01*
X119386465Y-108878198D02*
X119386465Y-109093870D01*
%TO.C,C28*%
X105784051Y-108816850D02*
X105784051Y-108601178D01*
X106504051Y-108816850D02*
X106504051Y-108601178D01*
%TO.C,C15*%
X105529248Y-113752084D02*
X105529248Y-113967756D01*
X104809248Y-113752084D02*
X104809248Y-113967756D01*
%TO.C,U11*%
X103610034Y-109485397D02*
X105410034Y-109485397D01*
X103610034Y-109485397D02*
X102810034Y-109485397D01*
X103610034Y-106365397D02*
X104410034Y-106365397D01*
X103610034Y-106365397D02*
X102810034Y-106365397D01*
%TO.C,C21*%
X136001647Y-111618319D02*
X136217319Y-111618319D01*
X136001647Y-112338319D02*
X136217319Y-112338319D01*
%TO.C,Q2*%
X141838652Y-107920255D02*
X141838652Y-110180255D01*
X139798652Y-107960255D02*
X139618652Y-107960255D01*
X139618652Y-107960255D02*
X139618652Y-110180255D01*
X141838652Y-110180255D02*
X141658652Y-110180255D01*
X139798652Y-110180255D02*
X139618652Y-110180255D01*
%TO.C,R17*%
X137714462Y-108140302D02*
X137714462Y-107686174D01*
X139184462Y-108140302D02*
X139184462Y-107686174D01*
%TO.C,R18*%
X125848524Y-103310816D02*
X125848524Y-102836300D01*
X126893524Y-103310816D02*
X126893524Y-102836300D01*
%TO.C,R15*%
X136571091Y-104919049D02*
X137045607Y-104919049D01*
X136571091Y-105964049D02*
X137045607Y-105964049D01*
%TO.C,C3*%
X126061689Y-109180179D02*
X126061689Y-108964507D01*
X126781689Y-109180179D02*
X126781689Y-108964507D01*
%TO.C,C25*%
X101308730Y-108066806D02*
X101308730Y-108347966D01*
X100288730Y-108066806D02*
X100288730Y-108347966D01*
%TO.C,R14*%
X136703514Y-107889805D02*
X136703514Y-108364321D01*
X135658514Y-107889805D02*
X135658514Y-108364321D01*
%TO.C,U12*%
X109069622Y-106456341D02*
X107269622Y-106456341D01*
X109069622Y-106456341D02*
X109869622Y-106456341D01*
X109069622Y-109576341D02*
X108269622Y-109576341D01*
X109069622Y-109576341D02*
X109869622Y-109576341D01*
%TO.C,R16*%
X140007454Y-111801940D02*
X139532938Y-111801940D01*
X140007454Y-110756940D02*
X139532938Y-110756940D01*
%TO.C,C24*%
X133259785Y-103012830D02*
X133259785Y-104435334D01*
X131439785Y-103012830D02*
X131439785Y-104435334D01*
%TO.C,R5*%
X129408406Y-100775398D02*
X129882922Y-100775398D01*
X129408406Y-101820398D02*
X129882922Y-101820398D01*
%TO.C,R10*%
X135190761Y-115902201D02*
X135190761Y-115448073D01*
X136660761Y-115902201D02*
X136660761Y-115448073D01*
%TO.C,J3*%
X111871610Y-101601401D02*
X112931610Y-101601401D01*
X111871610Y-102661401D02*
X111871610Y-101601401D01*
X111871610Y-103661401D02*
X111871610Y-107721401D01*
X111871610Y-103661401D02*
X113931610Y-103661401D01*
X111871610Y-107721401D02*
X115991610Y-107721401D01*
X113931610Y-101601401D02*
X115991610Y-101601401D01*
X113931610Y-103661401D02*
X113931610Y-101601401D01*
X115991610Y-101601401D02*
X115991610Y-107721401D01*
%TO.C,Q1*%
X144248240Y-114736426D02*
X144248240Y-116996426D01*
X142208240Y-114776426D02*
X142028240Y-114776426D01*
X142028240Y-114776426D02*
X142028240Y-116996426D01*
X144248240Y-116996426D02*
X144068240Y-116996426D01*
X142208240Y-116996426D02*
X142028240Y-116996426D01*
%TO.C,R9*%
X133105795Y-116397049D02*
X132631279Y-116397049D01*
X133105795Y-115352049D02*
X132631279Y-115352049D01*
D13*
%TO.C,*%
X144126811Y-114385928D02*
X144126811Y-113985928D01*
X144126811Y-113985928D02*
X143576811Y-113985928D01*
X144126811Y-113985928D02*
X144676811Y-113985928D01*
X144126811Y-113985928D02*
X143726811Y-113385928D01*
X143726811Y-113385928D02*
X144526811Y-113385928D01*
X144126811Y-113385928D02*
X144126811Y-112885928D01*
X144526811Y-113385928D02*
X144126811Y-113985928D01*
D12*
%TO.C,U3*%
X121106412Y-111297195D02*
X121106412Y-110922195D01*
X121481412Y-107077195D02*
X121106412Y-107077195D01*
X121481412Y-111297195D02*
X121106412Y-111297195D01*
X124951412Y-107077195D02*
X125326412Y-107077195D01*
X124951412Y-111297195D02*
X125326412Y-111297195D01*
X125326412Y-107077195D02*
X125326412Y-107452195D01*
X125326412Y-111297195D02*
X125326412Y-110922195D01*
%TO.C,U1*%
X135629689Y-104443327D02*
X137429689Y-104443327D01*
X135629689Y-104443327D02*
X134829689Y-104443327D01*
X135629689Y-101323327D02*
X136429689Y-101323327D01*
X135629689Y-101323327D02*
X134829689Y-101323327D01*
%TO.C,C17*%
X104893262Y-111539970D02*
X104893262Y-111258810D01*
X105913262Y-111539970D02*
X105913262Y-111258810D01*
D13*
%TO.C,*%
X144013794Y-108180680D02*
X144013794Y-107780680D01*
X144013794Y-107780680D02*
X143463794Y-107780680D01*
X144013794Y-107780680D02*
X144563794Y-107780680D01*
X144013794Y-107780680D02*
X143613794Y-107180680D01*
X143613794Y-107180680D02*
X144413794Y-107180680D01*
X144013794Y-107180680D02*
X144013794Y-106680680D01*
X144413794Y-107180680D02*
X144013794Y-107780680D01*
D12*
%TO.C,R2*%
X119292495Y-105630597D02*
X118817979Y-105630597D01*
X119292495Y-104585597D02*
X118817979Y-104585597D01*
%TO.C,C26*%
X101881463Y-105259853D02*
X101881463Y-105044181D01*
X102601463Y-105259853D02*
X102601463Y-105044181D01*
%TO.C,R7*%
X136699701Y-113735608D02*
X136225185Y-113735608D01*
X136699701Y-112690608D02*
X136225185Y-112690608D01*
%TO.C,U10*%
X102978579Y-104045413D02*
X102978579Y-105845413D01*
X102978579Y-104045413D02*
X102978579Y-103245413D01*
X106098579Y-104045413D02*
X106098579Y-104845413D01*
X106098579Y-104045413D02*
X106098579Y-103245413D01*
D13*
%TO.C,*%
X101555707Y-114459635D02*
X101555707Y-114059635D01*
X101555707Y-114059635D02*
X101005707Y-114059635D01*
X101555707Y-114059635D02*
X102105707Y-114059635D01*
X101555707Y-114059635D02*
X101155707Y-113459635D01*
X101155707Y-113459635D02*
X101955707Y-113459635D01*
X101555707Y-113459635D02*
X101555707Y-112959635D01*
X101955707Y-113459635D02*
X101555707Y-114059635D01*
D12*
%TO.C,R6*%
X130951492Y-103543024D02*
X130951492Y-103997152D01*
X129481492Y-103543024D02*
X129481492Y-103997152D01*
%TO.C,R19*%
X121384823Y-104241023D02*
X121384823Y-103766507D01*
X122429823Y-104241023D02*
X122429823Y-103766507D01*
%TD*%
M02*
