M48
; DRILL file {KiCad 7.0.6} date Mon Nov  6 16:32:37 2023
; FORMAT={-:-/ absolute / inch / decimal}
; #@! TF.CreationDate,2023-11-06T16:32:37+11:00
; #@! TF.GenerationSoftware,Kicad,Pcbnew,7.0.6
; #@! TF.FileFunction,Plated,1,4,PTH
FMAT,2
INCH
; #@! TA.AperFunction,Plated,PTH,ViaDrill
T1C0.0118
; #@! TA.AperFunction,Plated,PTH,ViaDrill
T2C0.0236
; #@! TA.AperFunction,Plated,PTH,ComponentDrill
T3C0.0256
; #@! TA.AperFunction,Plated,PTH,ComponentDrill
T4C0.0315
; #@! TA.AperFunction,Plated,PTH,ComponentDrill
T5C0.0354
%
G90
G05
T1
X3.9632Y-4.0844
X4.0092Y-4.1013
X4.0975Y-4.3151
X4.1157Y-4.1843
X4.1591Y-4.5438
X4.1593Y-4.5874
X4.1666Y-4.2991
X4.1688Y-4.0018
X4.1689Y-4.4088
X4.18Y-4.2748
X4.18Y-4.6099
X4.1825Y-4.1707
X4.185Y-4.2414
X4.1941Y-4.5455
X4.2003Y-4.0112
X4.2005Y-4.4305
X4.2305Y-4.07
X4.2389Y-4.1464
X4.2552Y-4.4981
X4.2554Y-4.5221
X4.2704Y-4.448
X4.2714Y-4.0571
X4.2879Y-4.2524
X4.2983Y-4.611
X4.3229Y-4.47
X4.3297Y-4.5354
X4.3472Y-4.147
X4.3623Y-4.3465
X4.3691Y-4.1044
X4.3826Y-4.2967
X4.3841Y-4.15
X4.3946Y-4.2175
X4.4081Y-4.5507
X4.4241Y-4.305
X4.4335Y-4.4829
X4.4642Y-4.5222
X4.4855Y-4.2195
X4.4937Y-4.2776
X4.494Y-4.526
X4.5291Y-4.3459
X4.5666Y-4.505
X4.5785Y-4.0301
X4.5787Y-4.1201
X4.5923Y-4.5303
X4.6002Y-4.493
X4.6022Y-4.3283
X4.6177Y-4.5491
X4.6217Y-4.5148
X4.6272Y-4.1764
X4.6335Y-4.4211
X4.6517Y-4.5494
X4.6547Y-4.5209
X4.6614Y-4.2579
X4.6645Y-4.2075
X4.6742Y-4.1744
X4.6828Y-4.0285
X4.6835Y-4.5421
X4.6909Y-4.2829
X4.6934Y-4.0658
X4.7107Y-4.5554
X4.7203Y-4.2386
X4.7561Y-4.148
X4.764Y-4.1932
X4.765Y-4.3691
X4.7779Y-3.9976
X4.7849Y-4.4263
X4.8069Y-4.4083
X4.8138Y-4.5135
X4.8287Y-4.2972
X4.8344Y-4.4101
X4.8629Y-4.4066
X4.876Y-4.2972
X4.8986Y-4.0001
X4.9007Y-4.4473
X4.9119Y-4.3881
X4.9122Y-4.1126
X4.9347Y-4.2002
X4.943Y-4.0857
X4.9582Y-4.4046
X4.962Y-4.1794
X4.9673Y-4.3433
X4.971Y-4.5104
X4.9717Y-4.4835
X4.9811Y-4.1596
X4.9906Y-4.1858
X5.0098Y-4.0732
X5.0366Y-4.4247
X5.0501Y-4.2171
X5.0546Y-4.5106
X5.0552Y-4.4842
X5.0659Y-4.1847
X5.0875Y-4.1626
X5.0877Y-4.2674
X5.1112Y-4.1857
X5.1311Y-4.1618
X5.1357Y-4.483
X5.137Y-4.5109
X5.1386Y-4.4175
X5.1664Y-4.4833
X5.1673Y-4.5094
X5.1738Y-4.173
X5.1766Y-4.4234
X5.2201Y-4.1705
X5.2697Y-4.1283
X5.2812Y-4.2084
X5.2836Y-4.1786
X5.3152Y-4.1532
X5.3163Y-4.1799
X5.3171Y-4.2138
X5.3247Y-4.0414
X5.3931Y-4.4933
X5.3992Y-4.52
X5.4Y-4.5519
X5.4246Y-4.0753
X5.4315Y-4.5491
X5.4329Y-4.489
X5.4337Y-4.5163
X5.4487Y-4.1467
X5.4492Y-4.1787
X5.4568Y-4.0414
X5.4635Y-4.5519
X5.4681Y-4.5228
X5.4684Y-4.4896
X5.472Y-4.104
X5.4759Y-4.1478
X5.4759Y-4.1773
X5.5019Y-4.5519
X5.5021Y-4.4908
X5.5024Y-4.5231
X5.5046Y-4.1815
X5.5051Y-4.2115
X5.5062Y-4.1495
X5.5124Y-4.1049
X5.5355Y-4.1815
X5.536Y-4.1493
X5.5378Y-4.2101
X5.5538Y-4.1022
X5.5659Y-4.1511
X5.5667Y-4.18
X5.568Y-4.2097
X5.5887Y-4.1049
X5.5968Y-4.153
X5.5977Y-4.1829
X5.5982Y-4.2101
T2
X3.974Y-4.334
X5.0508Y-4.2614
X5.0928Y-4.2197
X5.1502Y-4.204
X5.2135Y-4.2065
X5.2932Y-4.3643
X5.4176Y-4.407
T3
X4.467Y-4.4021
X4.467Y-4.4521
X4.517Y-4.4021
X4.517Y-4.4521
X4.567Y-4.4021
X4.567Y-4.4521
T4
X4.4461Y-4.0418
X4.4461Y-4.1205
X4.4461Y-4.1993
X4.5249Y-4.0418
X4.5249Y-4.1205
X4.5249Y-4.1993
T5
X3.9863Y-4.4405
X3.9863Y-4.5405
X5.7346Y-4.1866
X5.7346Y-4.2866
X5.7346Y-4.4449
X5.7346Y-4.5449
T0
M30
