%TF.GenerationSoftware,KiCad,Pcbnew,7.0.6*%
%TF.CreationDate,2023-09-08T17:54:17+10:00*%
%TF.ProjectId,turbidity_sensor_v2,74757262-6964-4697-9479-5f73656e736f,0.1.0*%
%TF.SameCoordinates,Original*%
%TF.FileFunction,Copper,L2,Inr*%
%TF.FilePolarity,Positive*%
%FSLAX46Y46*%
G04 Gerber Fmt 4.6, Leading zero omitted, Abs format (unit mm)*
G04 Created by KiCad (PCBNEW 7.0.6) date 2023-09-08 17:54:17*
%MOMM*%
%LPD*%
G01*
G04 APERTURE LIST*
%TA.AperFunction,ComponentPad*%
%ADD10R,1.000000X1.000000*%
%TD*%
%TA.AperFunction,ComponentPad*%
%ADD11O,1.000000X1.000000*%
%TD*%
%TA.AperFunction,ComponentPad*%
%ADD12R,1.800000X1.800000*%
%TD*%
%TA.AperFunction,ComponentPad*%
%ADD13C,1.800000*%
%TD*%
%TA.AperFunction,ComponentPad*%
%ADD14R,1.350000X1.350000*%
%TD*%
%TA.AperFunction,ComponentPad*%
%ADD15O,1.350000X1.350000*%
%TD*%
%TA.AperFunction,ViaPad*%
%ADD16C,0.500000*%
%TD*%
%TA.AperFunction,ViaPad*%
%ADD17C,0.900000*%
%TD*%
%TA.AperFunction,Conductor*%
%ADD18C,0.250000*%
%TD*%
%TA.AperFunction,Conductor*%
%ADD19C,1.200000*%
%TD*%
%TA.AperFunction,Conductor*%
%ADD20C,2.000000*%
%TD*%
G04 APERTURE END LIST*
D10*
%TO.N,MISO*%
%TO.C,J1*%
X113462636Y-113082428D03*
D11*
%TO.N,+3.3V*%
X113462636Y-111812428D03*
%TO.N,CLKO*%
X114732636Y-113082428D03*
%TO.N,MOSI*%
X114732636Y-111812428D03*
%TO.N,RST*%
X116002636Y-113082428D03*
%TO.N,GND*%
X116002636Y-111812428D03*
%TD*%
D12*
%TO.N,Net-(D1-K)*%
%TO.C,D1*%
X145658563Y-108880210D03*
D13*
%TO.N,LED_PWR*%
X145658563Y-106340210D03*
%TD*%
D12*
%TO.N,Net-(D2-K)*%
%TO.C,D2*%
X103249445Y-115439646D03*
D13*
%TO.N,Net-(D2-A)*%
X103249445Y-112899646D03*
%TD*%
D14*
%TO.N,WKE*%
%TO.C,J3*%
X112931610Y-102661401D03*
D15*
%TO.N,GND*%
X114931610Y-102661401D03*
%TO.N,TX*%
X112931610Y-104661401D03*
%TO.N,RST*%
X114931610Y-104661401D03*
%TO.N,RX*%
X112931610Y-106661401D03*
%TO.N,+BATT*%
X114931610Y-106661401D03*
%TD*%
D12*
%TO.N,Net-(D3-K)*%
%TO.C,D3*%
X145658563Y-115439646D03*
D13*
%TO.N,LED_PWR*%
X145658563Y-112899646D03*
%TD*%
D16*
%TO.N,GND*%
X117431747Y-112819419D03*
D17*
X112439941Y-116357410D03*
X129115383Y-107720303D03*
X131916497Y-110400000D03*
X137339946Y-114413730D03*
X137075085Y-115338137D03*
X106770139Y-107705797D03*
D16*
X117530213Y-106080213D03*
D17*
X143000000Y-113790146D03*
X138294980Y-114399037D03*
X128127156Y-107570595D03*
D16*
X130329681Y-105709526D03*
D17*
X142900000Y-103200000D03*
X138713663Y-105704613D03*
X112439941Y-115433819D03*
X119062593Y-115131928D03*
X137128358Y-106515591D03*
X106573442Y-111706900D03*
D16*
X124425417Y-101601571D03*
D17*
X141117864Y-113765385D03*
D16*
X122650000Y-109150000D03*
D17*
X128915491Y-110076860D03*
D16*
X111200000Y-114550000D03*
D17*
X144100000Y-103200000D03*
D16*
X135652093Y-102620014D03*
D17*
X108559432Y-103023520D03*
X138575957Y-112404485D03*
X117733790Y-115131928D03*
X138074588Y-115338137D03*
X129139116Y-108918792D03*
X132423771Y-106844088D03*
X101089244Y-110565149D03*
X128143041Y-108614172D03*
D16*
X123850000Y-109150000D03*
D17*
X100655381Y-106182875D03*
X106278799Y-114431872D03*
X130900000Y-110400000D03*
D16*
%TO.N,+3.3VADC*%
X131490783Y-106776486D03*
D17*
X106191672Y-113322508D03*
D16*
X133898623Y-106645275D03*
X135268698Y-108145547D03*
D17*
%TO.N,+BATT*%
X125297802Y-115108976D03*
D16*
X111173423Y-112034124D03*
D17*
X129250000Y-115100000D03*
X127320103Y-115108132D03*
D16*
%TO.N,+3.3V*%
X138222899Y-102799822D03*
X126200000Y-110400000D03*
X117800000Y-100700000D03*
D17*
X141313086Y-105752987D03*
X133668546Y-112049979D03*
D16*
X121528931Y-101642406D03*
D17*
X141800000Y-104200000D03*
X106451058Y-105153746D03*
D16*
X127278974Y-103552871D03*
D17*
X141317983Y-106710135D03*
D16*
X110622782Y-107981360D03*
X119056862Y-108506034D03*
D17*
%TO.N,TIA_PWR*%
X111120805Y-104268265D03*
D16*
%TO.N,TIA_BIAS*%
X107000000Y-109500000D03*
%TO.N,MISO*%
X124690517Y-112182843D03*
X125673591Y-112824704D03*
%TO.N,CLKO*%
X114777217Y-114931928D03*
%TO.N,MOSI*%
X115038274Y-110386668D03*
X121779195Y-112825204D03*
%TO.N,TX*%
X113800000Y-105600000D03*
X118214751Y-106224125D03*
%TO.N,RX*%
X121004999Y-106507162D03*
X111963403Y-108125869D03*
%TO.N,LED_DIGITAL_SIGNAL*%
X126760000Y-106320000D03*
X137742074Y-103529169D03*
%TO.N,LED_PWR_EN*%
X118999723Y-102584220D03*
X119896763Y-107660255D03*
X120953579Y-105305378D03*
%TO.N,LED_PWR_FAULT*%
X118400000Y-108150000D03*
X121291912Y-111151834D03*
X116858319Y-109902604D03*
%TO.N,LED_2_EN*%
X127600000Y-112500000D03*
X120850000Y-112950000D03*
%TO.N,LED_1_EN*%
X131703088Y-113400111D03*
X122400000Y-112250704D03*
%TO.N,SS*%
X113983227Y-109664507D03*
X123200000Y-112000000D03*
%TO.N,REF_EN*%
X115863418Y-115431235D03*
%TO.N,TIA_PWR_EN*%
X125340989Y-106685682D03*
%TO.N,SDA*%
X124600000Y-106000000D03*
X123300517Y-104800517D03*
%TO.N,SCL*%
X125531155Y-104154887D03*
X125815945Y-105303887D03*
%TO.N,NEG_VOLT_EN*%
X111931610Y-103850644D03*
X102582347Y-103363524D03*
X105500000Y-101750000D03*
X118479281Y-106871680D03*
%TO.N,WKE*%
X116300000Y-104649406D03*
%TD*%
D18*
%TO.N,+3.3VADC*%
X106972508Y-113322508D02*
X106191672Y-113322508D01*
X129348512Y-116309636D02*
X117815482Y-116309636D01*
X117815482Y-116309636D02*
X116992708Y-117132410D01*
X134443546Y-108970699D02*
X134443546Y-113042951D01*
X135268698Y-108145547D02*
X134443546Y-108970699D01*
X134443546Y-113042951D02*
X131916497Y-115570000D01*
X110782410Y-117132410D02*
X106972508Y-113322508D01*
X116992708Y-117132410D02*
X110782410Y-117132410D01*
X130088148Y-115570000D02*
X129348512Y-116309636D01*
X131916497Y-115570000D02*
X130088148Y-115570000D01*
D19*
%TO.N,+BATT*%
X120400000Y-114300000D02*
X119200000Y-113100000D01*
X124488826Y-114300000D02*
X120400000Y-114300000D01*
X119200000Y-113100000D02*
X119200000Y-110759360D01*
X125297802Y-115108976D02*
X125298646Y-115108132D01*
X129250000Y-115100000D02*
X127328235Y-115100000D01*
X119200000Y-110759360D02*
X115102041Y-106661401D01*
X115102041Y-106661401D02*
X114931610Y-106661401D01*
X125298646Y-115108132D02*
X127320103Y-115108132D01*
X125297802Y-115108976D02*
X124488826Y-114300000D01*
X127328235Y-115100000D02*
X127320103Y-115108132D01*
D20*
%TO.N,LED_PWR*%
X143558563Y-110799646D02*
X145658563Y-112899646D01*
X143998563Y-106340210D02*
X143558563Y-106780210D01*
X145658563Y-106340210D02*
X143998563Y-106340210D01*
X143558563Y-106780210D02*
X143558563Y-110799646D01*
%TD*%
%TA.AperFunction,Conductor*%
%TO.N,+3.3V*%
G36*
X146942539Y-100020185D02*
G01*
X146988294Y-100072989D01*
X146999500Y-100124500D01*
X146999500Y-105258880D01*
X146979815Y-105325919D01*
X146927011Y-105371674D01*
X146857853Y-105381618D01*
X146794297Y-105352593D01*
X146777649Y-105335047D01*
X146766301Y-105320466D01*
X146765301Y-105319545D01*
X146583345Y-105152043D01*
X146375169Y-105016036D01*
X146147444Y-104916146D01*
X145906387Y-104855102D01*
X145906376Y-104855100D01*
X145738986Y-104841231D01*
X145720630Y-104839710D01*
X145720628Y-104839710D01*
X144095582Y-104839710D01*
X144087910Y-104839234D01*
X144060784Y-104835853D01*
X144060782Y-104835853D01*
X143967528Y-104839710D01*
X143936496Y-104839710D01*
X143905572Y-104842272D01*
X143812326Y-104846129D01*
X143812313Y-104846130D01*
X143785579Y-104851736D01*
X143777971Y-104852845D01*
X143750748Y-104855100D01*
X143750738Y-104855102D01*
X143660274Y-104878011D01*
X143568958Y-104897158D01*
X143568942Y-104897163D01*
X143543498Y-104907091D01*
X143536179Y-104909436D01*
X143509686Y-104916145D01*
X143424226Y-104953630D01*
X143337289Y-104987553D01*
X143337280Y-104987558D01*
X143313807Y-105001545D01*
X143306972Y-105005063D01*
X143281960Y-105016034D01*
X143281953Y-105016038D01*
X143203841Y-105067070D01*
X143123667Y-105114845D01*
X143102813Y-105132507D01*
X143096650Y-105137102D01*
X143073779Y-105152044D01*
X143049942Y-105173988D01*
X143005127Y-105215243D01*
X142995539Y-105223364D01*
X142981432Y-105235312D01*
X142959485Y-105257259D01*
X142890825Y-105320466D01*
X142874034Y-105342037D01*
X142868945Y-105347798D01*
X142566151Y-105650592D01*
X142560390Y-105655681D01*
X142538819Y-105672472D01*
X142475612Y-105741132D01*
X142453665Y-105763079D01*
X142453661Y-105763084D01*
X142433596Y-105786774D01*
X142410515Y-105811847D01*
X142370397Y-105855426D01*
X142355455Y-105878297D01*
X142350860Y-105884460D01*
X142333198Y-105905314D01*
X142285423Y-105985488D01*
X142234391Y-106063600D01*
X142234387Y-106063607D01*
X142223416Y-106088619D01*
X142219898Y-106095454D01*
X142205911Y-106118927D01*
X142205906Y-106118936D01*
X142171983Y-106205873D01*
X142134498Y-106291333D01*
X142127789Y-106317826D01*
X142125444Y-106325145D01*
X142115516Y-106350589D01*
X142115511Y-106350605D01*
X142096364Y-106441921D01*
X142073455Y-106532385D01*
X142073453Y-106532395D01*
X142071198Y-106559618D01*
X142070089Y-106567226D01*
X142064483Y-106593960D01*
X142064482Y-106593973D01*
X142060625Y-106687219D01*
X142058063Y-106718146D01*
X142058063Y-106749174D01*
X142054205Y-106842429D01*
X142054205Y-106842430D01*
X142057586Y-106869552D01*
X142058063Y-106877228D01*
X142058063Y-110702627D01*
X142057587Y-110710302D01*
X142054206Y-110737425D01*
X142058063Y-110830681D01*
X142058063Y-110861710D01*
X142060625Y-110892636D01*
X142064481Y-110985879D01*
X142070089Y-111012629D01*
X142071198Y-111020236D01*
X142073454Y-111047464D01*
X142073454Y-111047465D01*
X142087149Y-111101544D01*
X142096364Y-111137934D01*
X142115514Y-111229260D01*
X142115515Y-111229262D01*
X142125445Y-111254713D01*
X142127790Y-111262033D01*
X142132055Y-111278875D01*
X142134500Y-111288527D01*
X142163700Y-111355098D01*
X142171983Y-111373981D01*
X142205907Y-111460921D01*
X142219895Y-111484396D01*
X142223415Y-111491234D01*
X142234388Y-111516250D01*
X142234390Y-111516253D01*
X142285423Y-111594366D01*
X142333197Y-111674540D01*
X142350859Y-111695393D01*
X142355450Y-111701550D01*
X142370399Y-111724431D01*
X142370400Y-111724432D01*
X142433596Y-111793081D01*
X142453663Y-111816775D01*
X142475612Y-111838724D01*
X142538820Y-111907385D01*
X142560385Y-111924170D01*
X142566150Y-111929261D01*
X143278443Y-112641554D01*
X143311928Y-112702877D01*
X143306944Y-112772569D01*
X143265072Y-112828502D01*
X143199608Y-112852919D01*
X143178608Y-112852638D01*
X143000000Y-112835047D01*
X142813668Y-112853398D01*
X142813666Y-112853399D01*
X142634497Y-112907750D01*
X142469376Y-112996008D01*
X142469373Y-112996010D01*
X142324642Y-113114788D01*
X142205865Y-113259519D01*
X142174907Y-113317437D01*
X142125944Y-113367281D01*
X142057807Y-113382741D01*
X141992127Y-113358909D01*
X141956191Y-113317437D01*
X141912000Y-113234760D01*
X141910139Y-113232492D01*
X141793221Y-113090027D01*
X141648490Y-112971249D01*
X141648487Y-112971247D01*
X141483366Y-112882989D01*
X141304197Y-112828638D01*
X141304195Y-112828637D01*
X141117864Y-112810286D01*
X140931532Y-112828637D01*
X140931530Y-112828638D01*
X140752361Y-112882989D01*
X140587240Y-112971247D01*
X140587237Y-112971249D01*
X140442506Y-113090027D01*
X140323728Y-113234758D01*
X140323726Y-113234761D01*
X140235468Y-113399882D01*
X140181117Y-113579051D01*
X140181116Y-113579053D01*
X140162765Y-113765385D01*
X140181116Y-113951716D01*
X140181117Y-113951718D01*
X140235467Y-114130886D01*
X140243746Y-114146374D01*
X140257987Y-114214777D01*
X140232986Y-114280021D01*
X140176680Y-114321390D01*
X140130424Y-114328763D01*
X139347358Y-114303726D01*
X139280982Y-114281909D01*
X139236938Y-114227670D01*
X139232660Y-114215784D01*
X139231727Y-114212709D01*
X139231727Y-114212706D01*
X139177376Y-114033536D01*
X139177374Y-114033533D01*
X139177374Y-114033531D01*
X139089117Y-113868413D01*
X139089115Y-113868410D01*
X138970337Y-113723679D01*
X138825606Y-113604902D01*
X138825605Y-113604901D01*
X138786240Y-113583860D01*
X138752000Y-113565558D01*
X138702156Y-113516595D01*
X138686696Y-113448458D01*
X138710528Y-113382778D01*
X138766086Y-113340409D01*
X138774435Y-113337547D01*
X138941458Y-113286881D01*
X138963606Y-113275043D01*
X139106580Y-113198622D01*
X139106583Y-113198620D01*
X139144987Y-113167103D01*
X139251314Y-113079842D01*
X139370093Y-112935110D01*
X139458353Y-112769986D01*
X139512704Y-112590816D01*
X139531056Y-112404485D01*
X139512704Y-112218154D01*
X139458353Y-112038984D01*
X139453075Y-112029109D01*
X139370094Y-111873861D01*
X139370092Y-111873858D01*
X139251314Y-111729127D01*
X139106583Y-111610349D01*
X139106580Y-111610347D01*
X138941459Y-111522089D01*
X138762290Y-111467738D01*
X138762288Y-111467737D01*
X138575957Y-111449386D01*
X138389625Y-111467737D01*
X138389623Y-111467738D01*
X138210454Y-111522089D01*
X138045333Y-111610347D01*
X138045330Y-111610349D01*
X137900599Y-111729127D01*
X137781821Y-111873858D01*
X137781819Y-111873861D01*
X137693561Y-112038982D01*
X137639210Y-112218151D01*
X137639209Y-112218153D01*
X137620858Y-112404484D01*
X137639209Y-112590816D01*
X137639210Y-112590818D01*
X137693561Y-112769987D01*
X137781819Y-112935108D01*
X137781821Y-112935111D01*
X137900599Y-113079842D01*
X138045330Y-113198620D01*
X138045333Y-113198622D01*
X138118935Y-113237963D01*
X138168779Y-113286925D01*
X138184240Y-113355063D01*
X138160408Y-113420743D01*
X138104851Y-113463111D01*
X138096478Y-113465981D01*
X137929483Y-113516639D01*
X137929474Y-113516642D01*
X137862169Y-113552617D01*
X137793766Y-113566858D01*
X137745267Y-113552617D01*
X137705450Y-113531335D01*
X137705443Y-113531332D01*
X137526279Y-113476983D01*
X137526277Y-113476982D01*
X137339946Y-113458631D01*
X137153614Y-113476982D01*
X137153612Y-113476983D01*
X136974443Y-113531334D01*
X136809322Y-113619592D01*
X136809319Y-113619594D01*
X136664588Y-113738372D01*
X136545810Y-113883103D01*
X136545808Y-113883106D01*
X136457551Y-114048225D01*
X136436145Y-114118788D01*
X136397846Y-114177225D01*
X136334034Y-114205681D01*
X136313522Y-114206727D01*
X134517130Y-114149292D01*
X134450754Y-114127475D01*
X134406710Y-114073236D01*
X134398982Y-114003795D01*
X134430023Y-113941199D01*
X134433387Y-113937699D01*
X134827334Y-113543752D01*
X134839588Y-113533937D01*
X134839405Y-113533715D01*
X134845412Y-113528743D01*
X134845423Y-113528737D01*
X134886721Y-113484759D01*
X134892773Y-113478315D01*
X134903217Y-113467869D01*
X134913666Y-113457422D01*
X134917925Y-113451929D01*
X134921698Y-113447512D01*
X134953608Y-113413533D01*
X134963261Y-113395971D01*
X134973935Y-113379721D01*
X134986219Y-113363887D01*
X135004726Y-113321118D01*
X135007295Y-113315875D01*
X135021350Y-113290309D01*
X135029743Y-113275043D01*
X135034723Y-113255642D01*
X135041024Y-113237239D01*
X135048984Y-113218847D01*
X135056276Y-113172800D01*
X135057457Y-113167103D01*
X135069046Y-113121970D01*
X135069046Y-113101933D01*
X135070573Y-113082533D01*
X135073706Y-113062755D01*
X135069321Y-113016366D01*
X135069046Y-113010528D01*
X135069046Y-109281150D01*
X135088731Y-109214111D01*
X135105361Y-109193473D01*
X135386314Y-108912519D01*
X135433039Y-108883160D01*
X135436752Y-108881860D01*
X135436757Y-108881860D01*
X135596388Y-108826003D01*
X135596390Y-108826002D01*
X135596395Y-108825999D01*
X135739582Y-108736028D01*
X135739583Y-108736027D01*
X135739588Y-108736024D01*
X135859175Y-108616437D01*
X135868905Y-108600952D01*
X135949150Y-108473244D01*
X135949152Y-108473241D01*
X135949152Y-108473239D01*
X135949154Y-108473237D01*
X136005011Y-108313606D01*
X136005011Y-108313605D01*
X136005012Y-108313603D01*
X136023947Y-108145549D01*
X136023947Y-108145544D01*
X136005012Y-107977490D01*
X135949152Y-107817852D01*
X135949150Y-107817849D01*
X135859179Y-107674662D01*
X135859174Y-107674656D01*
X135739588Y-107555070D01*
X135739582Y-107555065D01*
X135596395Y-107465094D01*
X135596392Y-107465092D01*
X135436754Y-107409232D01*
X135268701Y-107390298D01*
X135268695Y-107390298D01*
X135100641Y-107409232D01*
X134941003Y-107465092D01*
X134941000Y-107465094D01*
X134797813Y-107555065D01*
X134797807Y-107555070D01*
X134678221Y-107674656D01*
X134678216Y-107674662D01*
X134588245Y-107817849D01*
X134588242Y-107817855D01*
X134531086Y-107981200D01*
X134501725Y-108027927D01*
X134059754Y-108469898D01*
X134047497Y-108479719D01*
X134047680Y-108479940D01*
X134041669Y-108484912D01*
X133994318Y-108535335D01*
X133973435Y-108556218D01*
X133973423Y-108556231D01*
X133969167Y-108561716D01*
X133965383Y-108566146D01*
X133933483Y-108600117D01*
X133933482Y-108600119D01*
X133923830Y-108617675D01*
X133913156Y-108633925D01*
X133900875Y-108649760D01*
X133900870Y-108649767D01*
X133882361Y-108692537D01*
X133879791Y-108697783D01*
X133857349Y-108738605D01*
X133852368Y-108758006D01*
X133846067Y-108776409D01*
X133838108Y-108794801D01*
X133838107Y-108794804D01*
X133830817Y-108840826D01*
X133829633Y-108846545D01*
X133818047Y-108891671D01*
X133818046Y-108891681D01*
X133818046Y-108911715D01*
X133816519Y-108931114D01*
X133813386Y-108950893D01*
X133813386Y-108950894D01*
X133817771Y-108997282D01*
X133818046Y-109003120D01*
X133818045Y-112732497D01*
X133798360Y-112799536D01*
X133781726Y-112820178D01*
X132554547Y-114047357D01*
X132493224Y-114080842D01*
X132462904Y-114083613D01*
X132378972Y-114080930D01*
X132312596Y-114059113D01*
X132268551Y-114004874D01*
X132260823Y-113935433D01*
X132289833Y-113876930D01*
X132289224Y-113876444D01*
X132291473Y-113873623D01*
X132291863Y-113872838D01*
X132293252Y-113871392D01*
X132293561Y-113871004D01*
X132293565Y-113871001D01*
X132293569Y-113870995D01*
X132383540Y-113727808D01*
X132383542Y-113727805D01*
X132383542Y-113727803D01*
X132383544Y-113727801D01*
X132439401Y-113568170D01*
X132439401Y-113568169D01*
X132439402Y-113568167D01*
X132458337Y-113400113D01*
X132458337Y-113400108D01*
X132439402Y-113232054D01*
X132400882Y-113121970D01*
X132383544Y-113072421D01*
X132383543Y-113072420D01*
X132383542Y-113072416D01*
X132383540Y-113072413D01*
X132293569Y-112929226D01*
X132293564Y-112929220D01*
X132173978Y-112809634D01*
X132173972Y-112809629D01*
X132030785Y-112719658D01*
X132030782Y-112719656D01*
X131871144Y-112663796D01*
X131703091Y-112644862D01*
X131703085Y-112644862D01*
X131535031Y-112663796D01*
X131375393Y-112719656D01*
X131375390Y-112719658D01*
X131232203Y-112809629D01*
X131232197Y-112809634D01*
X131112611Y-112929220D01*
X131112606Y-112929226D01*
X131022635Y-113072413D01*
X131022633Y-113072416D01*
X130966773Y-113232054D01*
X130947839Y-113400108D01*
X130947839Y-113400113D01*
X130966773Y-113568167D01*
X131022633Y-113727803D01*
X131097252Y-113846558D01*
X131116252Y-113913795D01*
X131095884Y-113980630D01*
X131042617Y-114025844D01*
X130988295Y-114036467D01*
X125658696Y-113866066D01*
X125592320Y-113844249D01*
X125574978Y-113829810D01*
X125531450Y-113786282D01*
X125497965Y-113724959D01*
X125502949Y-113655267D01*
X125544821Y-113599334D01*
X125610285Y-113574917D01*
X125633013Y-113575380D01*
X125659987Y-113578420D01*
X125673590Y-113579953D01*
X125673591Y-113579953D01*
X125673594Y-113579953D01*
X125841647Y-113561018D01*
X125841650Y-113561017D01*
X126001281Y-113505160D01*
X126001283Y-113505158D01*
X126001285Y-113505158D01*
X126001288Y-113505156D01*
X126144475Y-113415185D01*
X126144476Y-113415184D01*
X126144481Y-113415181D01*
X126264068Y-113295594D01*
X126271509Y-113283752D01*
X126354043Y-113152401D01*
X126354045Y-113152398D01*
X126354045Y-113152396D01*
X126354047Y-113152394D01*
X126409904Y-112992763D01*
X126409904Y-112992762D01*
X126409905Y-112992760D01*
X126428840Y-112824706D01*
X126428840Y-112824701D01*
X126409905Y-112656647D01*
X126367179Y-112534544D01*
X126355093Y-112500002D01*
X126844751Y-112500002D01*
X126863685Y-112668056D01*
X126919545Y-112827694D01*
X126919547Y-112827697D01*
X127009518Y-112970884D01*
X127009523Y-112970890D01*
X127129109Y-113090476D01*
X127129115Y-113090481D01*
X127272302Y-113180452D01*
X127272305Y-113180454D01*
X127272309Y-113180455D01*
X127272310Y-113180456D01*
X127326735Y-113199500D01*
X127431943Y-113236314D01*
X127599997Y-113255249D01*
X127600000Y-113255249D01*
X127600003Y-113255249D01*
X127768056Y-113236314D01*
X127772503Y-113234758D01*
X127927690Y-113180456D01*
X127927692Y-113180454D01*
X127927694Y-113180454D01*
X127927697Y-113180452D01*
X128070884Y-113090481D01*
X128070885Y-113090480D01*
X128070890Y-113090477D01*
X128190477Y-112970890D01*
X128198289Y-112958458D01*
X128280452Y-112827697D01*
X128280454Y-112827694D01*
X128280454Y-112827692D01*
X128280456Y-112827690D01*
X128336313Y-112668059D01*
X128336313Y-112668058D01*
X128336314Y-112668056D01*
X128355249Y-112500002D01*
X128355249Y-112499997D01*
X128336314Y-112331943D01*
X128302362Y-112234914D01*
X128280456Y-112172310D01*
X128280455Y-112172309D01*
X128280454Y-112172305D01*
X128280452Y-112172302D01*
X128190481Y-112029115D01*
X128190476Y-112029109D01*
X128070890Y-111909523D01*
X128070884Y-111909518D01*
X127927697Y-111819547D01*
X127927694Y-111819545D01*
X127768056Y-111763685D01*
X127600003Y-111744751D01*
X127599997Y-111744751D01*
X127431943Y-111763685D01*
X127272305Y-111819545D01*
X127272302Y-111819547D01*
X127129115Y-111909518D01*
X127129109Y-111909523D01*
X127009523Y-112029109D01*
X127009518Y-112029115D01*
X126919547Y-112172302D01*
X126919545Y-112172305D01*
X126863685Y-112331943D01*
X126844751Y-112499997D01*
X126844751Y-112500002D01*
X126355093Y-112500002D01*
X126354047Y-112497014D01*
X126354046Y-112497013D01*
X126354045Y-112497009D01*
X126354043Y-112497006D01*
X126264072Y-112353819D01*
X126264067Y-112353813D01*
X126144481Y-112234227D01*
X126144475Y-112234222D01*
X126001288Y-112144251D01*
X126001285Y-112144249D01*
X125841647Y-112088389D01*
X125673594Y-112069455D01*
X125673587Y-112069455D01*
X125552859Y-112083057D01*
X125484037Y-112071002D01*
X125432658Y-112023653D01*
X125421934Y-112000792D01*
X125389144Y-111907083D01*
X125370973Y-111855153D01*
X125370972Y-111855152D01*
X125370971Y-111855148D01*
X125370969Y-111855145D01*
X125280998Y-111711958D01*
X125280993Y-111711952D01*
X125161407Y-111592366D01*
X125161401Y-111592361D01*
X125018214Y-111502390D01*
X125018211Y-111502388D01*
X124858573Y-111446528D01*
X124690520Y-111427594D01*
X124690514Y-111427594D01*
X124522460Y-111446528D01*
X124362822Y-111502388D01*
X124362819Y-111502390D01*
X124219632Y-111592361D01*
X124219626Y-111592366D01*
X124100039Y-111711953D01*
X124096948Y-111715830D01*
X124039759Y-111755969D01*
X123969947Y-111758817D01*
X123909678Y-111723471D01*
X123882961Y-111679469D01*
X123880455Y-111672308D01*
X123880452Y-111672302D01*
X123790481Y-111529115D01*
X123790476Y-111529109D01*
X123670890Y-111409523D01*
X123670884Y-111409518D01*
X123527697Y-111319547D01*
X123527694Y-111319545D01*
X123368056Y-111263685D01*
X123200003Y-111244751D01*
X123199997Y-111244751D01*
X123031943Y-111263685D01*
X122872305Y-111319545D01*
X122872302Y-111319547D01*
X122729112Y-111409520D01*
X122729105Y-111409526D01*
X122660775Y-111477855D01*
X122599451Y-111511340D01*
X122559212Y-111513393D01*
X122400004Y-111495455D01*
X122399997Y-111495455D01*
X122231940Y-111514390D01*
X122165286Y-111537713D01*
X122095507Y-111541274D01*
X122034881Y-111506544D01*
X122002654Y-111444551D01*
X122007292Y-111379715D01*
X122009299Y-111373981D01*
X122028225Y-111319893D01*
X122038437Y-111229260D01*
X122047161Y-111151836D01*
X122047161Y-111151831D01*
X122028226Y-110983777D01*
X121979059Y-110843267D01*
X121972368Y-110824144D01*
X121972367Y-110824143D01*
X121972366Y-110824139D01*
X121972364Y-110824136D01*
X121882393Y-110680949D01*
X121882388Y-110680943D01*
X121762802Y-110561357D01*
X121762796Y-110561352D01*
X121619609Y-110471381D01*
X121619606Y-110471379D01*
X121459968Y-110415519D01*
X121291915Y-110396585D01*
X121291909Y-110396585D01*
X121123855Y-110415519D01*
X120964217Y-110471379D01*
X120964214Y-110471381D01*
X120821027Y-110561352D01*
X120821021Y-110561357D01*
X120701435Y-110680943D01*
X120701430Y-110680949D01*
X120611459Y-110824136D01*
X120611457Y-110824139D01*
X120555597Y-110983777D01*
X120547720Y-111053697D01*
X120520654Y-111118111D01*
X120469180Y-111153461D01*
X120505703Y-111170141D01*
X120543477Y-111228919D01*
X120547720Y-111249971D01*
X120555597Y-111319889D01*
X120611457Y-111479528D01*
X120611459Y-111479531D01*
X120701430Y-111622718D01*
X120701435Y-111622724D01*
X120821021Y-111742310D01*
X120821027Y-111742315D01*
X120964214Y-111832286D01*
X120964217Y-111832288D01*
X120964221Y-111832289D01*
X120964222Y-111832290D01*
X121029538Y-111855145D01*
X121123855Y-111888148D01*
X121291909Y-111907083D01*
X121291912Y-111907083D01*
X121291915Y-111907083D01*
X121435470Y-111890908D01*
X121504292Y-111902962D01*
X121555672Y-111950311D01*
X121573296Y-112017922D01*
X121551570Y-112084327D01*
X121497391Y-112128446D01*
X121490309Y-112131169D01*
X121451508Y-112144746D01*
X121451497Y-112144751D01*
X121308307Y-112234724D01*
X121308303Y-112234727D01*
X121303745Y-112239286D01*
X121242420Y-112272768D01*
X121175114Y-112268642D01*
X121018057Y-112213686D01*
X120850003Y-112194751D01*
X120849997Y-112194751D01*
X120681943Y-112213685D01*
X120522307Y-112269545D01*
X120490472Y-112289549D01*
X120423236Y-112308549D01*
X120356400Y-112288181D01*
X120311186Y-112234914D01*
X120300500Y-112184555D01*
X120300500Y-111263854D01*
X120320185Y-111196815D01*
X120372989Y-111151060D01*
X120377560Y-111150402D01*
X120333315Y-111123845D01*
X120302360Y-111061207D01*
X120300500Y-111039813D01*
X120300500Y-110861597D01*
X120302218Y-110841030D01*
X120302687Y-110838236D01*
X120302689Y-110838226D01*
X120300500Y-110746276D01*
X120300500Y-110706935D01*
X120299462Y-110696068D01*
X120299199Y-110691658D01*
X120297687Y-110628115D01*
X120290070Y-110593106D01*
X120288933Y-110585812D01*
X120288721Y-110583589D01*
X120285528Y-110550142D01*
X120267613Y-110489132D01*
X120266524Y-110484863D01*
X120253013Y-110422748D01*
X120238901Y-110389794D01*
X120236411Y-110382867D01*
X120226316Y-110348485D01*
X120226313Y-110348480D01*
X120226312Y-110348475D01*
X120197186Y-110291980D01*
X120195305Y-110287987D01*
X120170279Y-110229547D01*
X120170278Y-110229545D01*
X120170277Y-110229543D01*
X120170276Y-110229542D01*
X120150195Y-110199871D01*
X120146429Y-110193524D01*
X120130016Y-110161688D01*
X120130011Y-110161678D01*
X120090706Y-110111699D01*
X120088099Y-110108127D01*
X120066937Y-110076860D01*
X120052477Y-110055495D01*
X120027130Y-110030148D01*
X120022245Y-110024643D01*
X120000092Y-109996474D01*
X120000090Y-109996472D01*
X119952048Y-109954843D01*
X119948808Y-109951826D01*
X119146984Y-109150002D01*
X121894751Y-109150002D01*
X121913685Y-109318056D01*
X121969545Y-109477694D01*
X121969547Y-109477697D01*
X122059518Y-109620884D01*
X122059523Y-109620890D01*
X122179109Y-109740476D01*
X122179115Y-109740481D01*
X122322302Y-109830452D01*
X122322305Y-109830454D01*
X122322309Y-109830455D01*
X122322310Y-109830456D01*
X122394913Y-109855860D01*
X122481943Y-109886314D01*
X122649997Y-109905249D01*
X122650000Y-109905249D01*
X122650003Y-109905249D01*
X122818056Y-109886314D01*
X122866465Y-109869375D01*
X122977690Y-109830456D01*
X122977692Y-109830454D01*
X122977694Y-109830454D01*
X122977697Y-109830452D01*
X123120884Y-109740481D01*
X123120885Y-109740480D01*
X123120890Y-109740477D01*
X123162319Y-109699047D01*
X123223640Y-109665563D01*
X123293331Y-109670547D01*
X123337679Y-109699047D01*
X123379108Y-109740475D01*
X123379115Y-109740481D01*
X123522302Y-109830452D01*
X123522305Y-109830454D01*
X123522309Y-109830455D01*
X123522310Y-109830456D01*
X123594913Y-109855860D01*
X123681943Y-109886314D01*
X123849997Y-109905249D01*
X123850000Y-109905249D01*
X123850003Y-109905249D01*
X124018056Y-109886314D01*
X124066465Y-109869375D01*
X124177690Y-109830456D01*
X124177692Y-109830454D01*
X124177694Y-109830454D01*
X124177697Y-109830452D01*
X124320884Y-109740481D01*
X124320885Y-109740480D01*
X124320890Y-109740477D01*
X124440477Y-109620890D01*
X124460238Y-109589441D01*
X124530452Y-109477697D01*
X124530454Y-109477694D01*
X124530454Y-109477692D01*
X124530456Y-109477690D01*
X124586313Y-109318059D01*
X124586313Y-109318058D01*
X124586314Y-109318056D01*
X124605249Y-109150002D01*
X124605249Y-109149997D01*
X124586314Y-108981943D01*
X124538936Y-108846545D01*
X124530456Y-108822310D01*
X124530455Y-108822309D01*
X124530454Y-108822305D01*
X124530452Y-108822302D01*
X124440481Y-108679115D01*
X124440476Y-108679109D01*
X124320890Y-108559523D01*
X124320884Y-108559518D01*
X124177697Y-108469547D01*
X124177694Y-108469545D01*
X124018056Y-108413685D01*
X123850003Y-108394751D01*
X123849997Y-108394751D01*
X123681943Y-108413685D01*
X123522305Y-108469545D01*
X123522302Y-108469547D01*
X123379115Y-108559518D01*
X123379108Y-108559524D01*
X123337680Y-108600952D01*
X123276357Y-108634436D01*
X123206665Y-108629451D01*
X123162320Y-108600952D01*
X123120891Y-108559524D01*
X123120884Y-108559518D01*
X122977697Y-108469547D01*
X122977694Y-108469545D01*
X122818056Y-108413685D01*
X122650003Y-108394751D01*
X122649997Y-108394751D01*
X122481943Y-108413685D01*
X122322305Y-108469545D01*
X122322302Y-108469547D01*
X122179115Y-108559518D01*
X122179109Y-108559523D01*
X122059523Y-108679109D01*
X122059518Y-108679115D01*
X121969547Y-108822302D01*
X121969545Y-108822305D01*
X121913685Y-108981943D01*
X121894751Y-109149997D01*
X121894751Y-109150002D01*
X119146984Y-109150002D01*
X118891855Y-108894873D01*
X118858370Y-108833550D01*
X118863354Y-108763858D01*
X118891851Y-108719515D01*
X118990477Y-108620890D01*
X119003005Y-108600952D01*
X119080452Y-108477697D01*
X119080454Y-108477694D01*
X119080454Y-108477692D01*
X119080456Y-108477690D01*
X119136313Y-108318059D01*
X119136313Y-108318057D01*
X119136314Y-108318055D01*
X119143623Y-108253182D01*
X119170689Y-108188768D01*
X119228283Y-108149212D01*
X119298120Y-108147073D01*
X119354524Y-108179383D01*
X119425872Y-108250731D01*
X119425878Y-108250736D01*
X119569065Y-108340707D01*
X119569068Y-108340709D01*
X119569072Y-108340710D01*
X119569073Y-108340711D01*
X119641676Y-108366115D01*
X119728706Y-108396569D01*
X119896760Y-108415504D01*
X119896763Y-108415504D01*
X119896766Y-108415504D01*
X120064819Y-108396569D01*
X120070015Y-108394751D01*
X120224453Y-108340711D01*
X120224455Y-108340709D01*
X120224457Y-108340709D01*
X120224460Y-108340707D01*
X120367647Y-108250736D01*
X120367648Y-108250735D01*
X120367653Y-108250732D01*
X120487240Y-108131145D01*
X120524845Y-108071298D01*
X120577215Y-107987952D01*
X120577217Y-107987949D01*
X120577217Y-107987947D01*
X120577219Y-107987945D01*
X120633076Y-107828314D01*
X120633076Y-107828313D01*
X120633077Y-107828311D01*
X120652012Y-107660257D01*
X120652012Y-107660252D01*
X120633076Y-107492195D01*
X120633076Y-107492193D01*
X120590502Y-107370524D01*
X120586940Y-107300745D01*
X120621668Y-107240118D01*
X120683662Y-107207890D01*
X120748498Y-107212528D01*
X120836938Y-107243475D01*
X121004996Y-107262411D01*
X121004999Y-107262411D01*
X121005002Y-107262411D01*
X121173055Y-107243476D01*
X121173058Y-107243475D01*
X121332689Y-107187618D01*
X121332691Y-107187616D01*
X121332693Y-107187616D01*
X121332696Y-107187614D01*
X121475883Y-107097643D01*
X121475884Y-107097642D01*
X121475889Y-107097639D01*
X121595476Y-106978052D01*
X121598670Y-106972969D01*
X121685451Y-106834859D01*
X121685453Y-106834856D01*
X121685453Y-106834854D01*
X121685455Y-106834852D01*
X121741312Y-106675221D01*
X121741312Y-106675220D01*
X121741313Y-106675218D01*
X121760248Y-106507164D01*
X121760248Y-106507159D01*
X121741313Y-106339105D01*
X121694693Y-106205873D01*
X121685455Y-106179472D01*
X121685454Y-106179471D01*
X121685453Y-106179467D01*
X121685451Y-106179464D01*
X121595480Y-106036277D01*
X121595475Y-106036271D01*
X121559206Y-106000002D01*
X123844751Y-106000002D01*
X123863685Y-106168056D01*
X123919545Y-106327694D01*
X123919547Y-106327697D01*
X124009518Y-106470884D01*
X124009523Y-106470890D01*
X124129109Y-106590476D01*
X124129115Y-106590481D01*
X124272302Y-106680452D01*
X124272305Y-106680454D01*
X124272309Y-106680455D01*
X124272310Y-106680456D01*
X124431941Y-106736313D01*
X124431944Y-106736314D01*
X124495229Y-106743444D01*
X124559644Y-106770510D01*
X124599199Y-106828104D01*
X124604566Y-106852765D01*
X124604675Y-106853738D01*
X124660533Y-107013374D01*
X124660536Y-107013379D01*
X124750507Y-107156566D01*
X124750512Y-107156572D01*
X124870098Y-107276158D01*
X124870104Y-107276163D01*
X125013291Y-107366134D01*
X125013294Y-107366136D01*
X125013298Y-107366137D01*
X125013299Y-107366138D01*
X125077932Y-107388754D01*
X125172932Y-107421996D01*
X125340986Y-107440931D01*
X125340989Y-107440931D01*
X125340992Y-107440931D01*
X125509045Y-107421996D01*
X125509048Y-107421995D01*
X125668679Y-107366138D01*
X125668681Y-107366136D01*
X125668683Y-107366136D01*
X125668686Y-107366134D01*
X125811873Y-107276163D01*
X125811874Y-107276162D01*
X125811879Y-107276159D01*
X125931466Y-107156572D01*
X125931470Y-107156566D01*
X126021441Y-107013379D01*
X126021442Y-107013375D01*
X126021445Y-107013372D01*
X126052320Y-106925135D01*
X126093040Y-106868360D01*
X126157993Y-106842612D01*
X126226554Y-106856068D01*
X126257042Y-106878409D01*
X126289109Y-106910476D01*
X126289115Y-106910481D01*
X126432302Y-107000452D01*
X126432305Y-107000454D01*
X126432309Y-107000455D01*
X126432310Y-107000456D01*
X126504913Y-107025860D01*
X126591943Y-107056314D01*
X126759997Y-107075249D01*
X126760000Y-107075249D01*
X126760003Y-107075249D01*
X126928056Y-107056314D01*
X126941728Y-107051530D01*
X127087690Y-107000456D01*
X127093341Y-106996905D01*
X127160574Y-106977902D01*
X127227410Y-106998265D01*
X127272628Y-107051530D01*
X127281870Y-107120786D01*
X127268676Y-107160347D01*
X127244760Y-107205091D01*
X127190409Y-107384261D01*
X127190408Y-107384263D01*
X127172057Y-107570594D01*
X127190408Y-107756926D01*
X127190409Y-107756928D01*
X127244760Y-107936097D01*
X127304995Y-108048790D01*
X127319237Y-108117193D01*
X127304996Y-108165695D01*
X127260644Y-108248672D01*
X127260643Y-108248674D01*
X127206294Y-108427838D01*
X127206293Y-108427840D01*
X127189657Y-108596759D01*
X127187942Y-108614172D01*
X127188165Y-108616437D01*
X127206293Y-108800503D01*
X127206294Y-108800505D01*
X127260645Y-108979674D01*
X127348903Y-109144795D01*
X127348905Y-109144798D01*
X127467683Y-109289529D01*
X127612414Y-109408307D01*
X127612417Y-109408309D01*
X127777535Y-109496566D01*
X127777537Y-109496566D01*
X127777540Y-109496568D01*
X127952686Y-109549698D01*
X128011123Y-109587995D01*
X128039579Y-109651807D01*
X128032694Y-109704872D01*
X128034863Y-109705530D01*
X127978744Y-109890526D01*
X127978743Y-109890528D01*
X127960392Y-110076860D01*
X127978743Y-110263191D01*
X127978744Y-110263193D01*
X128033095Y-110442362D01*
X128121353Y-110607483D01*
X128121355Y-110607486D01*
X128240133Y-110752217D01*
X128384864Y-110870995D01*
X128384867Y-110870997D01*
X128549988Y-110959255D01*
X128549990Y-110959256D01*
X128725936Y-111012629D01*
X128729157Y-111013606D01*
X128729159Y-111013607D01*
X128745865Y-111015252D01*
X128915491Y-111031959D01*
X129101822Y-111013607D01*
X129280992Y-110959256D01*
X129446116Y-110870996D01*
X129590848Y-110752217D01*
X129709627Y-110607485D01*
X129734403Y-110561131D01*
X129783364Y-110511288D01*
X129851502Y-110495827D01*
X129917182Y-110519658D01*
X129959551Y-110575215D01*
X129962422Y-110583589D01*
X129963252Y-110586327D01*
X129963253Y-110586331D01*
X130015701Y-110759227D01*
X130017606Y-110765507D01*
X130105862Y-110930623D01*
X130105864Y-110930626D01*
X130224642Y-111075357D01*
X130369373Y-111194135D01*
X130369376Y-111194137D01*
X130534497Y-111282395D01*
X130534499Y-111282396D01*
X130713666Y-111336746D01*
X130713668Y-111336747D01*
X130730374Y-111338392D01*
X130900000Y-111355099D01*
X131086331Y-111336747D01*
X131265501Y-111282396D01*
X131349795Y-111237339D01*
X131418196Y-111223097D01*
X131466697Y-111237337D01*
X131544409Y-111278875D01*
X131550996Y-111282396D01*
X131730163Y-111336746D01*
X131730165Y-111336747D01*
X131746871Y-111338392D01*
X131916497Y-111355099D01*
X132102828Y-111336747D01*
X132281998Y-111282396D01*
X132447122Y-111194136D01*
X132591854Y-111075357D01*
X132710633Y-110930625D01*
X132798893Y-110765501D01*
X132853244Y-110586331D01*
X132871596Y-110400000D01*
X132853244Y-110213669D01*
X132798893Y-110034499D01*
X132792501Y-110022541D01*
X132710634Y-109869376D01*
X132710632Y-109869373D01*
X132591854Y-109724642D01*
X132447123Y-109605864D01*
X132447120Y-109605862D01*
X132281999Y-109517604D01*
X132102830Y-109463253D01*
X132102828Y-109463252D01*
X131916497Y-109444901D01*
X131730165Y-109463252D01*
X131730163Y-109463253D01*
X131550999Y-109517602D01*
X131550996Y-109517603D01*
X131466700Y-109562660D01*
X131398297Y-109576901D01*
X131349796Y-109562660D01*
X131265499Y-109517603D01*
X131265497Y-109517602D01*
X131086333Y-109463253D01*
X131086331Y-109463252D01*
X130900000Y-109444901D01*
X130713668Y-109463252D01*
X130713666Y-109463253D01*
X130534497Y-109517604D01*
X130369376Y-109605862D01*
X130369373Y-109605864D01*
X130224642Y-109724642D01*
X130105864Y-109869373D01*
X130105862Y-109869376D01*
X130081086Y-109915729D01*
X130032123Y-109965572D01*
X129963985Y-109981032D01*
X129898306Y-109957199D01*
X129855938Y-109901641D01*
X129853068Y-109893269D01*
X129852238Y-109890534D01*
X129852238Y-109890529D01*
X129797887Y-109711359D01*
X129797885Y-109711356D01*
X129796118Y-109705529D01*
X129798470Y-109704815D01*
X129792159Y-109646084D01*
X129818332Y-109589445D01*
X129933252Y-109449417D01*
X130021512Y-109284293D01*
X130075863Y-109105123D01*
X130094215Y-108918792D01*
X130075863Y-108732461D01*
X130021512Y-108553291D01*
X129992992Y-108499933D01*
X129933255Y-108388172D01*
X129933253Y-108388170D01*
X129933252Y-108388167D01*
X129927020Y-108380573D01*
X129899706Y-108316264D01*
X129911496Y-108247396D01*
X129913514Y-108243454D01*
X129947760Y-108179383D01*
X129997779Y-108085804D01*
X130052130Y-107906634D01*
X130070482Y-107720303D01*
X130052130Y-107533972D01*
X129997779Y-107354802D01*
X129991238Y-107342564D01*
X129909520Y-107189679D01*
X129909518Y-107189676D01*
X129790740Y-107044945D01*
X129646009Y-106926167D01*
X129646006Y-106926165D01*
X129480885Y-106837907D01*
X129301716Y-106783556D01*
X129301714Y-106783555D01*
X129115383Y-106765204D01*
X128929053Y-106783555D01*
X128800729Y-106822482D01*
X128730862Y-106823105D01*
X128686069Y-106799674D01*
X128657782Y-106776459D01*
X128657775Y-106776455D01*
X128492658Y-106688199D01*
X128313489Y-106633848D01*
X128313487Y-106633847D01*
X128127156Y-106615496D01*
X127940824Y-106633847D01*
X127940822Y-106633848D01*
X127761653Y-106688199D01*
X127629691Y-106758734D01*
X127561288Y-106772976D01*
X127496044Y-106747976D01*
X127454674Y-106691671D01*
X127450312Y-106621937D01*
X127454197Y-106608421D01*
X127496313Y-106488061D01*
X127496313Y-106488059D01*
X127515249Y-106320002D01*
X127515249Y-106319997D01*
X127496314Y-106151943D01*
X127457204Y-106040173D01*
X127440456Y-105992310D01*
X127440455Y-105992309D01*
X127440454Y-105992305D01*
X127440452Y-105992302D01*
X127350481Y-105849115D01*
X127350476Y-105849109D01*
X127230890Y-105729523D01*
X127230884Y-105729518D01*
X127199070Y-105709528D01*
X129574432Y-105709528D01*
X129593366Y-105877582D01*
X129649226Y-106037220D01*
X129649228Y-106037223D01*
X129739199Y-106180410D01*
X129739204Y-106180416D01*
X129858790Y-106300002D01*
X129858796Y-106300007D01*
X130001983Y-106389978D01*
X130001986Y-106389980D01*
X130001990Y-106389981D01*
X130001991Y-106389982D01*
X130032876Y-106400789D01*
X130161624Y-106445840D01*
X130329678Y-106464775D01*
X130329681Y-106464775D01*
X130329684Y-106464775D01*
X130471496Y-106448796D01*
X130497740Y-106445839D01*
X130612080Y-106405829D01*
X130681857Y-106402267D01*
X130742485Y-106436996D01*
X130774712Y-106498989D01*
X130770076Y-106563824D01*
X130754471Y-106608421D01*
X130754469Y-106608426D01*
X130735534Y-106776483D01*
X130735534Y-106776488D01*
X130754468Y-106944542D01*
X130810328Y-107104180D01*
X130810330Y-107104183D01*
X130900301Y-107247370D01*
X130900306Y-107247376D01*
X131019892Y-107366962D01*
X131019898Y-107366967D01*
X131163085Y-107456938D01*
X131163088Y-107456940D01*
X131163092Y-107456941D01*
X131163093Y-107456942D01*
X131202380Y-107470689D01*
X131322726Y-107512800D01*
X131490780Y-107531735D01*
X131490783Y-107531735D01*
X131490786Y-107531735D01*
X131658838Y-107512800D01*
X131663310Y-107511779D01*
X131733049Y-107516045D01*
X131769576Y-107536812D01*
X131835866Y-107591215D01*
X131893144Y-107638223D01*
X131893147Y-107638225D01*
X131993060Y-107691629D01*
X132058270Y-107726484D01*
X132158630Y-107756928D01*
X132237437Y-107780834D01*
X132237439Y-107780835D01*
X132255791Y-107782642D01*
X132423771Y-107799187D01*
X132610102Y-107780835D01*
X132789272Y-107726484D01*
X132954396Y-107638224D01*
X133099128Y-107519445D01*
X133217907Y-107374713D01*
X133263560Y-107289300D01*
X133312520Y-107239458D01*
X133380657Y-107223997D01*
X133438888Y-107242761D01*
X133570930Y-107325729D01*
X133570928Y-107325729D01*
X133570932Y-107325730D01*
X133570933Y-107325731D01*
X133643536Y-107351135D01*
X133730566Y-107381589D01*
X133898620Y-107400524D01*
X133898623Y-107400524D01*
X133898626Y-107400524D01*
X134066679Y-107381589D01*
X134066682Y-107381588D01*
X134226313Y-107325731D01*
X134226315Y-107325729D01*
X134226317Y-107325729D01*
X134226320Y-107325727D01*
X134369507Y-107235756D01*
X134369508Y-107235755D01*
X134369513Y-107235752D01*
X134489100Y-107116165D01*
X134500741Y-107097639D01*
X134579075Y-106972972D01*
X134579077Y-106972969D01*
X134579077Y-106972967D01*
X134579079Y-106972965D01*
X134634936Y-106813334D01*
X134634936Y-106813333D01*
X134634937Y-106813331D01*
X134653872Y-106645277D01*
X134653872Y-106645272D01*
X134639261Y-106515591D01*
X136173259Y-106515591D01*
X136191610Y-106701922D01*
X136191611Y-106701924D01*
X136245962Y-106881093D01*
X136334220Y-107046214D01*
X136334222Y-107046217D01*
X136453000Y-107190948D01*
X136597731Y-107309726D01*
X136597734Y-107309728D01*
X136748472Y-107390298D01*
X136762857Y-107397987D01*
X136942024Y-107452337D01*
X136942026Y-107452338D01*
X136958732Y-107453983D01*
X137128358Y-107470690D01*
X137314689Y-107452338D01*
X137493859Y-107397987D01*
X137658983Y-107309727D01*
X137803715Y-107190948D01*
X137922494Y-107046216D01*
X138010754Y-106881092D01*
X138065105Y-106701922D01*
X138071823Y-106633711D01*
X138097984Y-106568925D01*
X138155018Y-106528566D01*
X138224818Y-106525449D01*
X138253678Y-106536506D01*
X138314329Y-106568925D01*
X138348164Y-106587010D01*
X138418767Y-106608427D01*
X138502568Y-106633848D01*
X138527329Y-106641359D01*
X138527331Y-106641360D01*
X138545682Y-106643167D01*
X138713663Y-106659712D01*
X138899994Y-106641360D01*
X139079164Y-106587009D01*
X139244288Y-106498749D01*
X139389020Y-106379970D01*
X139507799Y-106235238D01*
X139596059Y-106070114D01*
X139650410Y-105890944D01*
X139668762Y-105704613D01*
X139651477Y-105529115D01*
X139650410Y-105518281D01*
X139650409Y-105518279D01*
X139649930Y-105516701D01*
X139596059Y-105339112D01*
X139577231Y-105303887D01*
X139507800Y-105173989D01*
X139507798Y-105173986D01*
X139389020Y-105029255D01*
X139244289Y-104910477D01*
X139244286Y-104910475D01*
X139079165Y-104822217D01*
X138899996Y-104767866D01*
X138899994Y-104767865D01*
X138713663Y-104749514D01*
X138527331Y-104767865D01*
X138527329Y-104767866D01*
X138348160Y-104822217D01*
X138183039Y-104910475D01*
X138183036Y-104910477D01*
X138038305Y-105029255D01*
X137919527Y-105173986D01*
X137919525Y-105173989D01*
X137831267Y-105339110D01*
X137776916Y-105518279D01*
X137776916Y-105518280D01*
X137770197Y-105586493D01*
X137744035Y-105651279D01*
X137687000Y-105691638D01*
X137617200Y-105694754D01*
X137588342Y-105683696D01*
X137493858Y-105633194D01*
X137314691Y-105578844D01*
X137314689Y-105578843D01*
X137128358Y-105560492D01*
X136942026Y-105578843D01*
X136942024Y-105578844D01*
X136762855Y-105633195D01*
X136597734Y-105721453D01*
X136597731Y-105721455D01*
X136453000Y-105840233D01*
X136334222Y-105984964D01*
X136334220Y-105984967D01*
X136245962Y-106150088D01*
X136191611Y-106329257D01*
X136191610Y-106329259D01*
X136173259Y-106515591D01*
X134639261Y-106515591D01*
X134634937Y-106477218D01*
X134590630Y-106350596D01*
X134579079Y-106317585D01*
X134579078Y-106317584D01*
X134579077Y-106317580D01*
X134579075Y-106317577D01*
X134489104Y-106174390D01*
X134489099Y-106174384D01*
X134369513Y-106054798D01*
X134369507Y-106054793D01*
X134226320Y-105964822D01*
X134226317Y-105964820D01*
X134066679Y-105908960D01*
X133898626Y-105890026D01*
X133898620Y-105890026D01*
X133730566Y-105908960D01*
X133570928Y-105964820D01*
X133570925Y-105964822D01*
X133427738Y-106054793D01*
X133427732Y-106054798D01*
X133308144Y-106174386D01*
X133303799Y-106179835D01*
X133301591Y-106178074D01*
X133258785Y-106215929D01*
X133189730Y-106226570D01*
X133125885Y-106198187D01*
X133110285Y-106182325D01*
X133099128Y-106168730D01*
X132954397Y-106049952D01*
X132954394Y-106049950D01*
X132789273Y-105961692D01*
X132610104Y-105907341D01*
X132610102Y-105907340D01*
X132423771Y-105888989D01*
X132237439Y-105907340D01*
X132237437Y-105907341D01*
X132058268Y-105961692D01*
X131893147Y-106049950D01*
X131893141Y-106049955D01*
X131885314Y-106056378D01*
X131821003Y-106083688D01*
X131765700Y-106077563D01*
X131658840Y-106040172D01*
X131490786Y-106021237D01*
X131490780Y-106021237D01*
X131322725Y-106040172D01*
X131208383Y-106080182D01*
X131138605Y-106083743D01*
X131077977Y-106049014D01*
X131045750Y-105987021D01*
X131050388Y-105922184D01*
X131056184Y-105905621D01*
X131065994Y-105877585D01*
X131073401Y-105811847D01*
X131084930Y-105709528D01*
X131084930Y-105709523D01*
X131065995Y-105541469D01*
X131028788Y-105435138D01*
X131010137Y-105381836D01*
X131010136Y-105381835D01*
X131010135Y-105381831D01*
X131010133Y-105381828D01*
X130920162Y-105238641D01*
X130920157Y-105238635D01*
X130800571Y-105119049D01*
X130800565Y-105119044D01*
X130657378Y-105029073D01*
X130657375Y-105029071D01*
X130497737Y-104973211D01*
X130329684Y-104954277D01*
X130329678Y-104954277D01*
X130161624Y-104973211D01*
X130001986Y-105029071D01*
X130001983Y-105029073D01*
X129858796Y-105119044D01*
X129858790Y-105119049D01*
X129739204Y-105238635D01*
X129739199Y-105238641D01*
X129649228Y-105381828D01*
X129649226Y-105381831D01*
X129593366Y-105541469D01*
X129574432Y-105709523D01*
X129574432Y-105709528D01*
X127199070Y-105709528D01*
X127087697Y-105639547D01*
X127087694Y-105639545D01*
X126928056Y-105583685D01*
X126760003Y-105564751D01*
X126759996Y-105564751D01*
X126693508Y-105572242D01*
X126624686Y-105560187D01*
X126573307Y-105512838D01*
X126555683Y-105445227D01*
X126556405Y-105435138D01*
X126559075Y-105411448D01*
X126566686Y-105343898D01*
X126571194Y-105303889D01*
X126571194Y-105303884D01*
X126552259Y-105135830D01*
X126510342Y-105016038D01*
X126496401Y-104976197D01*
X126496400Y-104976196D01*
X126496399Y-104976192D01*
X126496397Y-104976189D01*
X126406426Y-104833002D01*
X126406421Y-104832996D01*
X126286835Y-104713410D01*
X126233910Y-104680155D01*
X126187619Y-104627820D01*
X126176971Y-104558766D01*
X126194889Y-104509188D01*
X126211611Y-104482577D01*
X126267468Y-104322946D01*
X126286404Y-104154887D01*
X126284360Y-104136746D01*
X126267469Y-103986830D01*
X126225216Y-103866077D01*
X126211611Y-103827197D01*
X126211610Y-103827196D01*
X126211609Y-103827192D01*
X126211607Y-103827189D01*
X126121636Y-103684002D01*
X126121631Y-103683996D01*
X126002045Y-103564410D01*
X126002039Y-103564405D01*
X125945965Y-103529171D01*
X136986825Y-103529171D01*
X137005759Y-103697225D01*
X137061619Y-103856863D01*
X137061621Y-103856866D01*
X137151592Y-104000053D01*
X137151597Y-104000059D01*
X137271183Y-104119645D01*
X137271189Y-104119650D01*
X137414376Y-104209621D01*
X137414379Y-104209623D01*
X137414383Y-104209624D01*
X137414384Y-104209625D01*
X137486987Y-104235029D01*
X137574017Y-104265483D01*
X137742071Y-104284418D01*
X137742074Y-104284418D01*
X137742077Y-104284418D01*
X137910130Y-104265483D01*
X137910133Y-104265482D01*
X138069764Y-104209625D01*
X138069766Y-104209623D01*
X138069768Y-104209623D01*
X138069771Y-104209621D01*
X138212958Y-104119650D01*
X138212959Y-104119649D01*
X138212964Y-104119646D01*
X138332551Y-104000059D01*
X138336273Y-103994136D01*
X138422526Y-103856866D01*
X138422528Y-103856863D01*
X138422528Y-103856861D01*
X138422530Y-103856859D01*
X138478387Y-103697228D01*
X138478387Y-103697227D01*
X138478388Y-103697225D01*
X138497323Y-103529171D01*
X138497323Y-103529166D01*
X138478388Y-103361112D01*
X138422528Y-103201474D01*
X138422526Y-103201471D01*
X138421602Y-103200000D01*
X141944901Y-103200000D01*
X141963252Y-103386331D01*
X141963253Y-103386333D01*
X142017604Y-103565502D01*
X142105862Y-103730623D01*
X142105864Y-103730626D01*
X142224642Y-103875357D01*
X142369373Y-103994135D01*
X142369376Y-103994137D01*
X142490595Y-104058929D01*
X142534499Y-104082396D01*
X142713666Y-104136746D01*
X142713668Y-104136747D01*
X142730374Y-104138392D01*
X142900000Y-104155099D01*
X143086331Y-104136747D01*
X143265501Y-104082396D01*
X143430625Y-103994136D01*
X143430635Y-103994127D01*
X143431101Y-103993817D01*
X143431394Y-103993725D01*
X143435997Y-103991265D01*
X143436463Y-103992137D01*
X143497777Y-103972934D01*
X143565159Y-103991414D01*
X143568899Y-103993817D01*
X143569368Y-103994130D01*
X143569375Y-103994136D01*
X143569382Y-103994140D01*
X143569384Y-103994141D01*
X143690595Y-104058929D01*
X143734499Y-104082396D01*
X143913666Y-104136746D01*
X143913668Y-104136747D01*
X143930374Y-104138392D01*
X144100000Y-104155099D01*
X144286331Y-104136747D01*
X144465501Y-104082396D01*
X144630625Y-103994136D01*
X144775357Y-103875357D01*
X144894136Y-103730625D01*
X144982396Y-103565501D01*
X145036747Y-103386331D01*
X145055099Y-103200000D01*
X145036747Y-103013669D01*
X144982396Y-102834499D01*
X144960138Y-102792856D01*
X144894137Y-102669376D01*
X144894135Y-102669373D01*
X144775357Y-102524642D01*
X144630626Y-102405864D01*
X144630623Y-102405862D01*
X144465502Y-102317604D01*
X144286333Y-102263253D01*
X144286331Y-102263252D01*
X144100000Y-102244901D01*
X143913668Y-102263252D01*
X143913666Y-102263253D01*
X143734497Y-102317604D01*
X143569380Y-102405860D01*
X143568886Y-102406191D01*
X143568587Y-102406284D01*
X143564003Y-102408735D01*
X143563538Y-102407865D01*
X143502207Y-102427065D01*
X143434828Y-102408577D01*
X143431114Y-102406191D01*
X143430619Y-102405860D01*
X143265502Y-102317604D01*
X143086333Y-102263253D01*
X143086331Y-102263252D01*
X142900000Y-102244901D01*
X142713668Y-102263252D01*
X142713666Y-102263253D01*
X142534497Y-102317604D01*
X142369376Y-102405862D01*
X142369373Y-102405864D01*
X142224642Y-102524642D01*
X142105864Y-102669373D01*
X142105862Y-102669376D01*
X142017604Y-102834497D01*
X141963253Y-103013666D01*
X141963252Y-103013668D01*
X141944901Y-103200000D01*
X138421602Y-103200000D01*
X138332555Y-103058284D01*
X138332550Y-103058278D01*
X138212964Y-102938692D01*
X138212958Y-102938687D01*
X138069771Y-102848716D01*
X138069768Y-102848714D01*
X137910130Y-102792854D01*
X137742077Y-102773920D01*
X137742071Y-102773920D01*
X137574017Y-102792854D01*
X137414379Y-102848714D01*
X137414376Y-102848716D01*
X137271189Y-102938687D01*
X137271183Y-102938692D01*
X137151597Y-103058278D01*
X137151592Y-103058284D01*
X137061621Y-103201471D01*
X137061619Y-103201474D01*
X137005759Y-103361112D01*
X136986825Y-103529166D01*
X136986825Y-103529171D01*
X125945965Y-103529171D01*
X125858852Y-103474434D01*
X125858849Y-103474432D01*
X125699211Y-103418572D01*
X125531158Y-103399638D01*
X125531152Y-103399638D01*
X125363098Y-103418572D01*
X125203460Y-103474432D01*
X125203457Y-103474434D01*
X125060270Y-103564405D01*
X125060264Y-103564410D01*
X124940678Y-103683996D01*
X124940673Y-103684002D01*
X124850702Y-103827189D01*
X124850700Y-103827192D01*
X124794840Y-103986830D01*
X124775906Y-104154884D01*
X124775906Y-104154889D01*
X124794840Y-104322943D01*
X124850700Y-104482581D01*
X124850702Y-104482584D01*
X124940673Y-104625771D01*
X124940678Y-104625777D01*
X125060266Y-104745365D01*
X125113189Y-104778619D01*
X125159479Y-104830954D01*
X125170127Y-104900007D01*
X125152212Y-104949581D01*
X125135489Y-104976196D01*
X125079631Y-105135830D01*
X125071362Y-105209213D01*
X125044295Y-105273627D01*
X124986699Y-105313181D01*
X124916862Y-105315318D01*
X124907192Y-105312371D01*
X124876304Y-105301563D01*
X124768056Y-105263685D01*
X124600003Y-105244751D01*
X124599997Y-105244751D01*
X124431943Y-105263685D01*
X124272305Y-105319545D01*
X124272302Y-105319547D01*
X124129115Y-105409518D01*
X124129109Y-105409523D01*
X124009523Y-105529109D01*
X124009518Y-105529115D01*
X123919547Y-105672302D01*
X123919545Y-105672305D01*
X123863685Y-105831943D01*
X123844751Y-105999997D01*
X123844751Y-106000002D01*
X121559206Y-106000002D01*
X121527445Y-105968241D01*
X121493960Y-105906918D01*
X121498944Y-105837226D01*
X121527447Y-105792877D01*
X121544055Y-105776269D01*
X121544056Y-105776268D01*
X121634035Y-105633068D01*
X121689892Y-105473437D01*
X121689892Y-105473436D01*
X121689893Y-105473434D01*
X121708828Y-105305380D01*
X121708828Y-105305375D01*
X121689893Y-105137321D01*
X121642383Y-105001545D01*
X121634035Y-104977688D01*
X121634034Y-104977687D01*
X121634033Y-104977683D01*
X121634031Y-104977680D01*
X121544060Y-104834493D01*
X121544055Y-104834487D01*
X121510087Y-104800519D01*
X122545268Y-104800519D01*
X122564202Y-104968573D01*
X122620062Y-105128211D01*
X122620064Y-105128214D01*
X122710035Y-105271401D01*
X122710040Y-105271407D01*
X122829626Y-105390993D01*
X122829632Y-105390998D01*
X122972819Y-105480969D01*
X122972822Y-105480971D01*
X122972826Y-105480972D01*
X122972827Y-105480973D01*
X123027566Y-105500127D01*
X123132460Y-105536831D01*
X123300514Y-105555766D01*
X123300517Y-105555766D01*
X123300520Y-105555766D01*
X123468573Y-105536831D01*
X123490624Y-105529115D01*
X123628207Y-105480973D01*
X123628209Y-105480971D01*
X123628211Y-105480971D01*
X123628214Y-105480969D01*
X123771401Y-105390998D01*
X123771402Y-105390997D01*
X123771407Y-105390994D01*
X123890994Y-105271407D01*
X123895846Y-105263685D01*
X123980969Y-105128214D01*
X123980971Y-105128211D01*
X123980971Y-105128209D01*
X123980973Y-105128207D01*
X124036830Y-104968576D01*
X124036830Y-104968575D01*
X124036831Y-104968573D01*
X124055766Y-104800519D01*
X124055766Y-104800514D01*
X124036831Y-104632460D01*
X123984386Y-104482581D01*
X123980973Y-104472827D01*
X123980972Y-104472826D01*
X123980971Y-104472822D01*
X123980969Y-104472819D01*
X123890998Y-104329632D01*
X123890993Y-104329626D01*
X123771407Y-104210040D01*
X123771401Y-104210035D01*
X123628214Y-104120064D01*
X123628211Y-104120062D01*
X123468573Y-104064202D01*
X123300520Y-104045268D01*
X123300514Y-104045268D01*
X123132460Y-104064202D01*
X122972822Y-104120062D01*
X122972819Y-104120064D01*
X122829632Y-104210035D01*
X122829626Y-104210040D01*
X122710040Y-104329626D01*
X122710035Y-104329632D01*
X122620064Y-104472819D01*
X122620062Y-104472822D01*
X122564202Y-104632460D01*
X122545268Y-104800514D01*
X122545268Y-104800519D01*
X121510087Y-104800519D01*
X121424469Y-104714901D01*
X121424463Y-104714896D01*
X121281276Y-104624925D01*
X121281273Y-104624923D01*
X121121635Y-104569063D01*
X120953582Y-104550129D01*
X120953576Y-104550129D01*
X120785522Y-104569063D01*
X120625884Y-104624923D01*
X120625881Y-104624925D01*
X120482694Y-104714896D01*
X120482688Y-104714901D01*
X120363102Y-104834487D01*
X120363097Y-104834493D01*
X120273126Y-104977680D01*
X120273124Y-104977683D01*
X120217264Y-105137321D01*
X120198330Y-105305375D01*
X120198330Y-105305380D01*
X120217264Y-105473434D01*
X120273124Y-105633072D01*
X120273126Y-105633075D01*
X120363097Y-105776262D01*
X120363102Y-105776268D01*
X120431132Y-105844298D01*
X120464617Y-105905621D01*
X120459633Y-105975313D01*
X120431134Y-106019658D01*
X120414525Y-106036267D01*
X120414519Y-106036274D01*
X120324546Y-106179464D01*
X120324544Y-106179467D01*
X120268684Y-106339105D01*
X120249750Y-106507159D01*
X120249750Y-106507164D01*
X120268685Y-106675219D01*
X120311260Y-106796893D01*
X120314821Y-106866672D01*
X120280092Y-106927299D01*
X120218099Y-106959526D01*
X120153263Y-106954888D01*
X120064823Y-106923941D01*
X119896766Y-106905006D01*
X119896760Y-106905006D01*
X119728706Y-106923940D01*
X119569068Y-106979800D01*
X119569065Y-106979802D01*
X119425875Y-107069775D01*
X119425164Y-107070343D01*
X119424617Y-107070565D01*
X119419977Y-107073482D01*
X119419466Y-107072669D01*
X119360477Y-107096750D01*
X119291782Y-107083992D01*
X119240889Y-107036120D01*
X119223957Y-106968333D01*
X119224634Y-106959510D01*
X119234530Y-106871682D01*
X119234530Y-106871677D01*
X119215595Y-106703623D01*
X119174790Y-106587009D01*
X119159737Y-106543990D01*
X119159736Y-106543989D01*
X119159735Y-106543985D01*
X119159733Y-106543982D01*
X119069762Y-106400795D01*
X119069757Y-106400789D01*
X119004437Y-106335469D01*
X118970952Y-106274146D01*
X118968898Y-106233901D01*
X118969725Y-106226570D01*
X118970000Y-106224125D01*
X118969077Y-106215929D01*
X118951065Y-106056068D01*
X118899590Y-105908962D01*
X118895207Y-105896435D01*
X118895206Y-105896434D01*
X118895205Y-105896430D01*
X118895203Y-105896427D01*
X118805232Y-105753240D01*
X118805227Y-105753234D01*
X118685641Y-105633648D01*
X118685635Y-105633643D01*
X118542448Y-105543672D01*
X118542445Y-105543670D01*
X118382807Y-105487810D01*
X118214754Y-105468876D01*
X118214747Y-105468876D01*
X118048554Y-105487601D01*
X117979732Y-105475546D01*
X117968699Y-105469375D01*
X117857905Y-105399758D01*
X117857904Y-105399757D01*
X117857903Y-105399757D01*
X117817787Y-105385720D01*
X117698269Y-105343898D01*
X117530216Y-105324964D01*
X117530210Y-105324964D01*
X117362156Y-105343898D01*
X117202518Y-105399758D01*
X117202515Y-105399760D01*
X117059328Y-105489731D01*
X117059322Y-105489736D01*
X116939736Y-105609322D01*
X116939731Y-105609328D01*
X116849760Y-105752515D01*
X116849758Y-105752518D01*
X116793898Y-105912156D01*
X116774964Y-106080210D01*
X116774964Y-106080215D01*
X116793898Y-106248269D01*
X116849758Y-106407907D01*
X116849760Y-106407910D01*
X116939731Y-106551097D01*
X116939736Y-106551103D01*
X117059322Y-106670689D01*
X117059328Y-106670694D01*
X117202515Y-106760665D01*
X117202518Y-106760667D01*
X117202522Y-106760668D01*
X117202523Y-106760669D01*
X117267928Y-106783555D01*
X117362156Y-106816527D01*
X117530210Y-106835462D01*
X117530213Y-106835462D01*
X117530214Y-106835462D01*
X117544829Y-106833815D01*
X117594351Y-106828235D01*
X117663172Y-106840289D01*
X117714552Y-106887637D01*
X117731455Y-106937571D01*
X117742966Y-107039735D01*
X117798826Y-107199374D01*
X117798828Y-107199377D01*
X117888799Y-107342564D01*
X117888804Y-107342570D01*
X117929752Y-107383518D01*
X117963237Y-107444841D01*
X117958253Y-107514533D01*
X117929752Y-107558880D01*
X117830488Y-107658144D01*
X117769165Y-107691629D01*
X117699473Y-107686645D01*
X117655126Y-107658144D01*
X115952507Y-105955525D01*
X115939178Y-105939767D01*
X115937529Y-105937451D01*
X115937526Y-105937448D01*
X115870956Y-105873973D01*
X115852407Y-105855425D01*
X115843142Y-105846160D01*
X115843136Y-105846155D01*
X115843133Y-105846152D01*
X115834720Y-105839205D01*
X115831410Y-105836267D01*
X115805799Y-105811847D01*
X115785419Y-105792415D01*
X115785416Y-105792413D01*
X115785412Y-105792410D01*
X115755285Y-105773048D01*
X115749327Y-105768698D01*
X115721686Y-105745877D01*
X115717305Y-105742912D01*
X115672819Y-105689035D01*
X115664524Y-105619659D01*
X115695052Y-105556812D01*
X115703258Y-105548594D01*
X115804037Y-105456723D01*
X115860465Y-105381998D01*
X115916573Y-105340362D01*
X115986285Y-105335669D01*
X116000370Y-105339680D01*
X116037272Y-105352593D01*
X116131943Y-105385720D01*
X116299997Y-105404655D01*
X116300000Y-105404655D01*
X116300003Y-105404655D01*
X116468056Y-105385720D01*
X116479779Y-105381618D01*
X116627690Y-105329862D01*
X116627692Y-105329860D01*
X116627694Y-105329860D01*
X116627697Y-105329858D01*
X116770884Y-105239887D01*
X116770885Y-105239886D01*
X116770890Y-105239883D01*
X116890477Y-105120296D01*
X116910858Y-105087860D01*
X116980452Y-104977103D01*
X116980454Y-104977100D01*
X116980454Y-104977098D01*
X116980456Y-104977096D01*
X117036313Y-104817465D01*
X117036313Y-104817464D01*
X117036314Y-104817462D01*
X117055249Y-104649408D01*
X117055249Y-104649403D01*
X117036314Y-104481349D01*
X116980886Y-104322946D01*
X116980456Y-104321716D01*
X116980455Y-104321715D01*
X116980454Y-104321711D01*
X116980452Y-104321708D01*
X116890481Y-104178521D01*
X116890476Y-104178515D01*
X116770890Y-104058929D01*
X116770884Y-104058924D01*
X116627697Y-103968953D01*
X116627694Y-103968951D01*
X116468056Y-103913091D01*
X116300003Y-103894157D01*
X116299997Y-103894157D01*
X116131942Y-103913092D01*
X115986045Y-103964143D01*
X115916266Y-103967704D01*
X115855639Y-103932975D01*
X115846137Y-103921828D01*
X115804035Y-103866077D01*
X115680036Y-103753037D01*
X115643754Y-103693326D01*
X115645515Y-103623479D01*
X115680034Y-103569766D01*
X115804037Y-103456723D01*
X115935322Y-103282873D01*
X116032427Y-103087860D01*
X116092045Y-102878324D01*
X116112146Y-102661401D01*
X116111832Y-102658017D01*
X116104994Y-102584222D01*
X118244474Y-102584222D01*
X118263408Y-102752276D01*
X118319268Y-102911914D01*
X118319270Y-102911917D01*
X118409241Y-103055104D01*
X118409246Y-103055110D01*
X118528832Y-103174696D01*
X118528838Y-103174701D01*
X118672025Y-103264672D01*
X118672028Y-103264674D01*
X118672032Y-103264675D01*
X118672033Y-103264676D01*
X118744636Y-103290080D01*
X118831666Y-103320534D01*
X118999720Y-103339469D01*
X118999723Y-103339469D01*
X118999726Y-103339469D01*
X119167779Y-103320534D01*
X119167782Y-103320533D01*
X119327413Y-103264676D01*
X119327415Y-103264674D01*
X119327417Y-103264674D01*
X119327420Y-103264672D01*
X119470607Y-103174701D01*
X119470608Y-103174700D01*
X119470613Y-103174697D01*
X119590200Y-103055110D01*
X119606637Y-103028951D01*
X119680175Y-102911917D01*
X119680177Y-102911914D01*
X119680177Y-102911912D01*
X119680179Y-102911910D01*
X119736036Y-102752279D01*
X119736036Y-102752278D01*
X119736037Y-102752276D01*
X119750939Y-102620016D01*
X134896844Y-102620016D01*
X134915778Y-102788070D01*
X134971638Y-102947708D01*
X134971640Y-102947711D01*
X135061611Y-103090898D01*
X135061616Y-103090904D01*
X135181202Y-103210490D01*
X135181208Y-103210495D01*
X135324395Y-103300466D01*
X135324398Y-103300468D01*
X135324402Y-103300469D01*
X135324403Y-103300470D01*
X135381740Y-103320533D01*
X135484036Y-103356328D01*
X135652090Y-103375263D01*
X135652093Y-103375263D01*
X135652096Y-103375263D01*
X135820149Y-103356328D01*
X135836356Y-103350657D01*
X135979783Y-103300470D01*
X135979785Y-103300468D01*
X135979787Y-103300468D01*
X135979790Y-103300466D01*
X136122977Y-103210495D01*
X136122978Y-103210494D01*
X136122983Y-103210491D01*
X136242570Y-103090904D01*
X136263070Y-103058279D01*
X136332545Y-102947711D01*
X136332547Y-102947708D01*
X136332547Y-102947706D01*
X136332549Y-102947704D01*
X136388406Y-102788073D01*
X136388406Y-102788072D01*
X136388407Y-102788070D01*
X136407342Y-102620016D01*
X136407342Y-102620011D01*
X136388407Y-102451957D01*
X136332547Y-102292319D01*
X136332545Y-102292316D01*
X136242574Y-102149129D01*
X136242569Y-102149123D01*
X136122983Y-102029537D01*
X136122977Y-102029532D01*
X135979790Y-101939561D01*
X135979787Y-101939559D01*
X135820149Y-101883699D01*
X135652096Y-101864765D01*
X135652090Y-101864765D01*
X135484036Y-101883699D01*
X135324398Y-101939559D01*
X135324395Y-101939561D01*
X135181208Y-102029532D01*
X135181202Y-102029537D01*
X135061616Y-102149123D01*
X135061611Y-102149129D01*
X134971640Y-102292316D01*
X134971638Y-102292319D01*
X134915778Y-102451957D01*
X134896844Y-102620011D01*
X134896844Y-102620016D01*
X119750939Y-102620016D01*
X119754972Y-102584222D01*
X119754972Y-102584217D01*
X119736037Y-102416163D01*
X119680177Y-102256525D01*
X119680175Y-102256522D01*
X119590204Y-102113335D01*
X119590199Y-102113329D01*
X119470613Y-101993743D01*
X119470607Y-101993738D01*
X119327420Y-101903767D01*
X119327417Y-101903765D01*
X119167779Y-101847905D01*
X118999726Y-101828971D01*
X118999720Y-101828971D01*
X118831666Y-101847905D01*
X118672028Y-101903765D01*
X118672025Y-101903767D01*
X118528838Y-101993738D01*
X118528832Y-101993743D01*
X118409246Y-102113329D01*
X118409241Y-102113335D01*
X118319270Y-102256522D01*
X118319268Y-102256525D01*
X118263408Y-102416163D01*
X118244474Y-102584217D01*
X118244474Y-102584222D01*
X116104994Y-102584222D01*
X116097676Y-102505249D01*
X116092045Y-102444478D01*
X116032427Y-102234942D01*
X115935322Y-102039929D01*
X115804037Y-101866079D01*
X115776626Y-101841091D01*
X115687606Y-101759938D01*
X115643042Y-101719313D01*
X115643038Y-101719310D01*
X115643033Y-101719307D01*
X115457823Y-101604630D01*
X115457817Y-101604627D01*
X115449934Y-101601573D01*
X123670168Y-101601573D01*
X123689102Y-101769627D01*
X123744962Y-101929265D01*
X123744964Y-101929268D01*
X123834935Y-102072455D01*
X123834940Y-102072461D01*
X123954526Y-102192047D01*
X123954532Y-102192052D01*
X124097719Y-102282023D01*
X124097722Y-102282025D01*
X124097726Y-102282026D01*
X124097727Y-102282027D01*
X124170330Y-102307431D01*
X124257360Y-102337885D01*
X124425414Y-102356820D01*
X124425417Y-102356820D01*
X124425420Y-102356820D01*
X124593473Y-102337885D01*
X124651433Y-102317604D01*
X124753107Y-102282027D01*
X124753109Y-102282025D01*
X124753111Y-102282025D01*
X124753114Y-102282023D01*
X124896301Y-102192052D01*
X124896302Y-102192051D01*
X124896307Y-102192048D01*
X125015894Y-102072461D01*
X125018433Y-102068421D01*
X125105869Y-101929268D01*
X125105871Y-101929265D01*
X125105871Y-101929263D01*
X125105873Y-101929261D01*
X125161730Y-101769630D01*
X125161730Y-101769629D01*
X125161731Y-101769627D01*
X125180666Y-101601573D01*
X125180666Y-101601568D01*
X125161731Y-101433514D01*
X125107704Y-101279115D01*
X125105873Y-101273881D01*
X125105872Y-101273880D01*
X125105871Y-101273876D01*
X125105869Y-101273873D01*
X125015898Y-101130686D01*
X125015893Y-101130680D01*
X124896307Y-101011094D01*
X124896301Y-101011089D01*
X124753114Y-100921118D01*
X124753111Y-100921116D01*
X124593473Y-100865256D01*
X124425420Y-100846322D01*
X124425414Y-100846322D01*
X124257360Y-100865256D01*
X124097722Y-100921116D01*
X124097719Y-100921118D01*
X123954532Y-101011089D01*
X123954526Y-101011094D01*
X123834940Y-101130680D01*
X123834935Y-101130686D01*
X123744964Y-101273873D01*
X123744962Y-101273876D01*
X123689102Y-101433514D01*
X123670168Y-101601568D01*
X123670168Y-101601573D01*
X115449934Y-101601573D01*
X115372723Y-101571661D01*
X115254679Y-101525931D01*
X115040536Y-101485901D01*
X114822684Y-101485901D01*
X114608541Y-101525931D01*
X114565506Y-101542603D01*
X114405402Y-101604627D01*
X114405396Y-101604630D01*
X114220175Y-101719314D01*
X114209195Y-101729324D01*
X114146390Y-101759938D01*
X114077003Y-101751737D01*
X114026395Y-101711995D01*
X114000458Y-101677349D01*
X113964156Y-101628855D01*
X113964154Y-101628854D01*
X113964154Y-101628853D01*
X113848945Y-101542607D01*
X113848938Y-101542603D01*
X113714092Y-101492309D01*
X113714093Y-101492309D01*
X113654493Y-101485902D01*
X113654491Y-101485901D01*
X113654483Y-101485901D01*
X113654474Y-101485901D01*
X112208739Y-101485901D01*
X112208733Y-101485902D01*
X112149126Y-101492309D01*
X112014281Y-101542603D01*
X112014274Y-101542607D01*
X111899065Y-101628853D01*
X111899062Y-101628856D01*
X111812816Y-101744065D01*
X111812812Y-101744072D01*
X111762518Y-101878918D01*
X111756111Y-101938517D01*
X111756110Y-101938536D01*
X111756110Y-103028951D01*
X111736425Y-103095990D01*
X111683621Y-103141745D01*
X111673066Y-103145992D01*
X111603918Y-103170188D01*
X111603910Y-103170192D01*
X111460722Y-103260164D01*
X111460715Y-103260169D01*
X111422590Y-103298295D01*
X111361267Y-103331780D01*
X111310721Y-103332231D01*
X111307135Y-103331517D01*
X111139155Y-103314973D01*
X111120805Y-103313166D01*
X111120804Y-103313166D01*
X110934473Y-103331517D01*
X110934471Y-103331518D01*
X110755302Y-103385869D01*
X110590181Y-103474127D01*
X110590178Y-103474129D01*
X110445447Y-103592907D01*
X110326669Y-103737638D01*
X110326667Y-103737641D01*
X110238409Y-103902762D01*
X110184058Y-104081931D01*
X110184057Y-104081933D01*
X110165706Y-104268264D01*
X110184057Y-104454596D01*
X110184058Y-104454598D01*
X110238409Y-104633767D01*
X110326667Y-104798888D01*
X110326669Y-104798891D01*
X110445447Y-104943622D01*
X110590178Y-105062400D01*
X110590181Y-105062402D01*
X110730346Y-105137321D01*
X110755304Y-105150661D01*
X110832206Y-105173989D01*
X110934471Y-105205011D01*
X110934473Y-105205012D01*
X110951179Y-105206657D01*
X111120805Y-105223364D01*
X111307136Y-105205012D01*
X111486306Y-105150661D01*
X111651430Y-105062401D01*
X111651434Y-105062397D01*
X111656486Y-105059022D01*
X111657536Y-105060593D01*
X111713735Y-105036706D01*
X111782606Y-105048477D01*
X111834180Y-105095614D01*
X111839126Y-105104596D01*
X111927898Y-105282873D01*
X112059184Y-105456725D01*
X112183182Y-105569764D01*
X112219464Y-105629475D01*
X112217703Y-105699323D01*
X112183182Y-105753038D01*
X112059184Y-105866076D01*
X111927898Y-106039928D01*
X111830794Y-106234938D01*
X111806593Y-106319997D01*
X111781580Y-106407910D01*
X111771174Y-106444482D01*
X111751074Y-106661400D01*
X111751074Y-106661401D01*
X111771174Y-106878319D01*
X111771174Y-106878321D01*
X111771175Y-106878324D01*
X111790152Y-106945020D01*
X111830794Y-107087865D01*
X111830795Y-107087866D01*
X111892157Y-107211098D01*
X111904418Y-107279883D01*
X111877545Y-107344378D01*
X111820069Y-107384105D01*
X111798854Y-107388754D01*
X111795349Y-107389553D01*
X111635708Y-107445414D01*
X111635705Y-107445416D01*
X111492518Y-107535387D01*
X111492512Y-107535392D01*
X111372926Y-107654978D01*
X111372921Y-107654984D01*
X111282950Y-107798171D01*
X111282948Y-107798174D01*
X111227088Y-107957812D01*
X111208154Y-108125866D01*
X111208154Y-108125871D01*
X111227088Y-108293925D01*
X111282948Y-108453563D01*
X111282950Y-108453566D01*
X111372921Y-108596753D01*
X111372926Y-108596759D01*
X111492512Y-108716345D01*
X111492518Y-108716350D01*
X111635705Y-108806321D01*
X111635708Y-108806323D01*
X111635712Y-108806324D01*
X111635713Y-108806325D01*
X111691947Y-108826002D01*
X111795346Y-108862183D01*
X111963400Y-108881118D01*
X111963403Y-108881118D01*
X111963406Y-108881118D01*
X112131459Y-108862183D01*
X112192494Y-108840826D01*
X112291093Y-108806325D01*
X112291095Y-108806323D01*
X112291097Y-108806323D01*
X112291100Y-108806321D01*
X112434287Y-108716350D01*
X112434288Y-108716349D01*
X112434293Y-108716346D01*
X112553880Y-108596759D01*
X112553884Y-108596753D01*
X112643855Y-108453566D01*
X112643857Y-108453563D01*
X112643857Y-108453561D01*
X112643859Y-108453559D01*
X112699716Y-108293928D01*
X112699716Y-108293927D01*
X112699717Y-108293925D01*
X112718652Y-108125871D01*
X112718652Y-108125866D01*
X112701629Y-107974785D01*
X112713683Y-107905963D01*
X112761032Y-107854583D01*
X112824849Y-107836901D01*
X113040534Y-107836901D01*
X113040536Y-107836901D01*
X113254679Y-107796871D01*
X113457820Y-107718173D01*
X113643042Y-107603489D01*
X113804037Y-107456723D01*
X113832658Y-107418822D01*
X113888761Y-107377188D01*
X113958472Y-107372495D01*
X114019655Y-107406235D01*
X114030558Y-107418817D01*
X114055871Y-107452337D01*
X114059185Y-107456725D01*
X114059188Y-107456728D01*
X114124256Y-107516045D01*
X114220178Y-107603489D01*
X114220185Y-107603493D01*
X114220186Y-107603494D01*
X114405396Y-107718171D01*
X114405411Y-107718178D01*
X114608533Y-107796869D01*
X114608538Y-107796870D01*
X114608541Y-107796871D01*
X114660122Y-107806512D01*
X114722402Y-107838179D01*
X114725018Y-107840720D01*
X116216506Y-109332208D01*
X116249991Y-109393531D01*
X116245007Y-109463223D01*
X116233819Y-109485861D01*
X116177864Y-109574911D01*
X116122004Y-109734547D01*
X116103070Y-109902601D01*
X116103070Y-109902606D01*
X116122004Y-110070660D01*
X116177864Y-110230298D01*
X116177866Y-110230301D01*
X116267837Y-110373488D01*
X116267842Y-110373494D01*
X116387428Y-110493080D01*
X116387434Y-110493085D01*
X116530621Y-110583056D01*
X116530624Y-110583058D01*
X116530628Y-110583059D01*
X116530629Y-110583060D01*
X116559342Y-110593107D01*
X116690262Y-110638918D01*
X116858316Y-110657853D01*
X116858319Y-110657853D01*
X116858322Y-110657853D01*
X117026375Y-110638918D01*
X117026378Y-110638917D01*
X117186009Y-110583060D01*
X117275064Y-110527102D01*
X117342296Y-110508103D01*
X117409131Y-110528470D01*
X117428714Y-110544416D01*
X118063180Y-111178882D01*
X118096665Y-111240205D01*
X118099499Y-111266563D01*
X118099499Y-112128446D01*
X118079814Y-112195485D01*
X118027010Y-112241240D01*
X117957852Y-112251184D01*
X117909909Y-112230454D01*
X117908533Y-112232646D01*
X117759444Y-112138966D01*
X117759441Y-112138964D01*
X117599803Y-112083104D01*
X117431750Y-112064170D01*
X117431744Y-112064170D01*
X117263689Y-112083105D01*
X117154641Y-112121262D01*
X117084862Y-112124823D01*
X117024235Y-112090094D01*
X116992008Y-112028100D01*
X116990284Y-111992066D01*
X116991725Y-111977435D01*
X117007977Y-111812428D01*
X116988660Y-111616296D01*
X116931450Y-111427701D01*
X116931447Y-111427697D01*
X116931447Y-111427694D01*
X116838549Y-111253895D01*
X116838545Y-111253888D01*
X116713519Y-111101544D01*
X116561175Y-110976518D01*
X116561168Y-110976514D01*
X116387369Y-110883616D01*
X116387363Y-110883614D01*
X116237740Y-110838226D01*
X116198765Y-110826403D01*
X116002636Y-110807087D01*
X116002635Y-110807087D01*
X115868361Y-110820311D01*
X115799715Y-110807292D01*
X115749005Y-110759227D01*
X115732331Y-110691376D01*
X115739167Y-110655953D01*
X115774587Y-110554729D01*
X115774587Y-110554727D01*
X115793523Y-110386670D01*
X115793523Y-110386665D01*
X115774588Y-110218611D01*
X115744134Y-110131581D01*
X115718730Y-110058978D01*
X115718729Y-110058977D01*
X115718728Y-110058973D01*
X115718726Y-110058970D01*
X115628755Y-109915783D01*
X115628750Y-109915777D01*
X115509164Y-109796191D01*
X115509158Y-109796186D01*
X115365971Y-109706215D01*
X115365968Y-109706213D01*
X115206330Y-109650353D01*
X115038277Y-109631419D01*
X115038271Y-109631419D01*
X114863296Y-109651134D01*
X114862985Y-109648381D01*
X114805759Y-109644873D01*
X114749403Y-109603573D01*
X114724689Y-109542140D01*
X114719541Y-109496451D01*
X114688699Y-109408309D01*
X114663683Y-109336817D01*
X114663682Y-109336816D01*
X114663681Y-109336812D01*
X114663679Y-109336809D01*
X114573708Y-109193622D01*
X114573703Y-109193616D01*
X114454117Y-109074030D01*
X114454111Y-109074025D01*
X114310924Y-108984054D01*
X114310921Y-108984052D01*
X114151283Y-108928192D01*
X113983230Y-108909258D01*
X113983224Y-108909258D01*
X113815170Y-108928192D01*
X113655532Y-108984052D01*
X113655529Y-108984054D01*
X113512342Y-109074025D01*
X113512336Y-109074030D01*
X113392750Y-109193616D01*
X113392745Y-109193622D01*
X113302774Y-109336809D01*
X113302772Y-109336812D01*
X113246912Y-109496450D01*
X113227978Y-109664504D01*
X113227978Y-109664509D01*
X113246912Y-109832563D01*
X113302771Y-109992197D01*
X113302774Y-109992204D01*
X113392745Y-110135391D01*
X113392750Y-110135397D01*
X113512336Y-110254983D01*
X113512342Y-110254988D01*
X113655529Y-110344959D01*
X113655532Y-110344961D01*
X113655536Y-110344962D01*
X113655537Y-110344963D01*
X113702440Y-110361375D01*
X113815170Y-110400821D01*
X113983224Y-110419756D01*
X113983227Y-110419756D01*
X113983230Y-110419756D01*
X114158206Y-110400041D01*
X114158516Y-110402799D01*
X114215707Y-110406289D01*
X114272076Y-110447574D01*
X114296811Y-110509032D01*
X114301960Y-110554724D01*
X114357819Y-110714362D01*
X114357820Y-110714363D01*
X114364170Y-110724469D01*
X114383170Y-110791706D01*
X114362802Y-110858541D01*
X114317629Y-110899798D01*
X114174103Y-110976513D01*
X114169035Y-110979901D01*
X114168022Y-110978386D01*
X114111572Y-111002348D01*
X114042707Y-110990543D01*
X114026210Y-110979939D01*
X114025958Y-110980318D01*
X114020889Y-110976931D01*
X113847177Y-110884080D01*
X113712636Y-110843267D01*
X113712636Y-111604755D01*
X113674765Y-111559623D01*
X113575507Y-111502316D01*
X113491072Y-111487428D01*
X113434200Y-111487428D01*
X113349765Y-111502316D01*
X113250507Y-111559623D01*
X113176835Y-111647421D01*
X113137636Y-111755122D01*
X113137636Y-111869734D01*
X113176835Y-111977435D01*
X113248153Y-112062428D01*
X112493476Y-112062428D01*
X112534287Y-112196965D01*
X112535287Y-112198835D01*
X112535514Y-112199929D01*
X112536617Y-112202590D01*
X112536112Y-112202798D01*
X112549532Y-112267237D01*
X112525200Y-112331600D01*
X112518841Y-112340094D01*
X112518838Y-112340099D01*
X112468544Y-112474945D01*
X112462137Y-112534544D01*
X112462136Y-112534563D01*
X112462136Y-113316111D01*
X112442451Y-113383150D01*
X112389647Y-113428905D01*
X112334173Y-113440048D01*
X108925409Y-113331062D01*
X108859033Y-113309245D01*
X108814989Y-113255006D01*
X108805379Y-113205801D01*
X108817894Y-112034126D01*
X110418174Y-112034126D01*
X110437108Y-112202180D01*
X110492968Y-112361818D01*
X110492970Y-112361821D01*
X110582941Y-112505008D01*
X110582946Y-112505014D01*
X110702532Y-112624600D01*
X110702538Y-112624605D01*
X110845725Y-112714576D01*
X110845728Y-112714578D01*
X110845732Y-112714579D01*
X110845733Y-112714580D01*
X110866221Y-112721749D01*
X111005366Y-112770438D01*
X111173420Y-112789373D01*
X111173423Y-112789373D01*
X111173426Y-112789373D01*
X111341479Y-112770438D01*
X111370835Y-112760166D01*
X111501113Y-112714580D01*
X111501115Y-112714578D01*
X111501117Y-112714578D01*
X111501120Y-112714576D01*
X111644307Y-112624605D01*
X111644308Y-112624604D01*
X111644313Y-112624601D01*
X111763900Y-112505014D01*
X111766400Y-112501036D01*
X111853875Y-112361821D01*
X111853877Y-112361818D01*
X111853877Y-112361816D01*
X111853879Y-112361814D01*
X111909736Y-112202183D01*
X111909736Y-112202182D01*
X111909737Y-112202180D01*
X111928672Y-112034126D01*
X111928672Y-112034121D01*
X111909737Y-111866067D01*
X111873912Y-111763685D01*
X111853879Y-111706434D01*
X111853878Y-111706433D01*
X111853877Y-111706429D01*
X111853875Y-111706426D01*
X111763904Y-111563239D01*
X111763899Y-111563233D01*
X111763093Y-111562427D01*
X112493475Y-111562427D01*
X112493476Y-111562428D01*
X113212636Y-111562428D01*
X113212636Y-110843267D01*
X113212635Y-110843267D01*
X113078094Y-110884080D01*
X112904382Y-110976931D01*
X112904375Y-110976935D01*
X112752107Y-111101899D01*
X112627143Y-111254167D01*
X112627139Y-111254174D01*
X112534288Y-111427886D01*
X112493475Y-111562427D01*
X111763093Y-111562427D01*
X111644313Y-111443647D01*
X111644307Y-111443642D01*
X111501120Y-111353671D01*
X111501117Y-111353669D01*
X111341479Y-111297809D01*
X111173426Y-111278875D01*
X111173420Y-111278875D01*
X111005366Y-111297809D01*
X110845728Y-111353669D01*
X110845725Y-111353671D01*
X110702538Y-111443642D01*
X110702532Y-111443647D01*
X110582946Y-111563233D01*
X110582941Y-111563239D01*
X110492970Y-111706426D01*
X110492968Y-111706429D01*
X110437108Y-111866067D01*
X110418174Y-112034121D01*
X110418174Y-112034126D01*
X108817894Y-112034126D01*
X108858238Y-108257019D01*
X108715267Y-106489371D01*
X108715266Y-106489370D01*
X104994708Y-106261942D01*
X104928995Y-106238204D01*
X104886547Y-106182706D01*
X104878274Y-106138173D01*
X104878274Y-103023519D01*
X107604333Y-103023519D01*
X107622684Y-103209851D01*
X107622685Y-103209853D01*
X107677036Y-103389022D01*
X107765294Y-103554143D01*
X107765296Y-103554146D01*
X107884074Y-103698877D01*
X108028805Y-103817655D01*
X108028808Y-103817657D01*
X108171931Y-103894157D01*
X108193931Y-103905916D01*
X108373098Y-103960266D01*
X108373100Y-103960267D01*
X108389806Y-103961912D01*
X108559432Y-103978619D01*
X108745763Y-103960267D01*
X108924933Y-103905916D01*
X109090057Y-103817656D01*
X109234789Y-103698877D01*
X109353568Y-103554145D01*
X109441828Y-103389021D01*
X109496179Y-103209851D01*
X109514531Y-103023520D01*
X109496179Y-102837189D01*
X109441828Y-102658019D01*
X109421514Y-102620014D01*
X109353569Y-102492896D01*
X109353567Y-102492893D01*
X109234789Y-102348162D01*
X109090058Y-102229384D01*
X109090055Y-102229382D01*
X108924934Y-102141124D01*
X108745765Y-102086773D01*
X108745763Y-102086772D01*
X108559432Y-102068421D01*
X108373100Y-102086772D01*
X108373098Y-102086773D01*
X108193929Y-102141124D01*
X108028808Y-102229382D01*
X108028805Y-102229384D01*
X107884074Y-102348162D01*
X107765296Y-102492893D01*
X107765294Y-102492896D01*
X107677036Y-102658017D01*
X107622685Y-102837186D01*
X107622684Y-102837188D01*
X107604333Y-103023519D01*
X104878274Y-103023519D01*
X104878274Y-102470061D01*
X104897959Y-102403022D01*
X104950763Y-102357267D01*
X105019921Y-102347323D01*
X105068244Y-102365067D01*
X105121454Y-102398501D01*
X105172306Y-102430454D01*
X105172307Y-102430454D01*
X105172310Y-102430456D01*
X105233757Y-102451957D01*
X105331943Y-102486314D01*
X105499997Y-102505249D01*
X105500000Y-102505249D01*
X105500003Y-102505249D01*
X105668056Y-102486314D01*
X105668059Y-102486313D01*
X105827690Y-102430456D01*
X105827692Y-102430454D01*
X105827694Y-102430454D01*
X105827697Y-102430452D01*
X105970884Y-102340481D01*
X105970885Y-102340480D01*
X105970890Y-102340477D01*
X106090477Y-102220890D01*
X106108600Y-102192048D01*
X106180452Y-102077697D01*
X106180454Y-102077694D01*
X106180454Y-102077692D01*
X106180456Y-102077690D01*
X106236313Y-101918059D01*
X106236313Y-101918058D01*
X106236314Y-101918056D01*
X106255249Y-101750002D01*
X106255249Y-101749997D01*
X106236314Y-101581943D01*
X106180454Y-101422305D01*
X106180452Y-101422302D01*
X106090481Y-101279115D01*
X106090476Y-101279109D01*
X105970890Y-101159523D01*
X105970884Y-101159518D01*
X105827697Y-101069547D01*
X105827694Y-101069545D01*
X105668056Y-101013685D01*
X105500003Y-100994751D01*
X105499997Y-100994751D01*
X105331943Y-101013685D01*
X105172307Y-101069545D01*
X105068246Y-101134932D01*
X105001010Y-101153932D01*
X104934174Y-101133564D01*
X104888960Y-101080297D01*
X104878274Y-101029938D01*
X104878274Y-100124500D01*
X104897959Y-100057461D01*
X104950763Y-100011706D01*
X105002274Y-100000500D01*
X146875500Y-100000500D01*
X146942539Y-100020185D01*
G37*
%TD.AperFunction*%
%TD*%
M02*
