%TF.GenerationSoftware,KiCad,Pcbnew,7.0.6*%
%TF.CreationDate,2023-09-08T17:54:17+10:00*%
%TF.ProjectId,turbidity_sensor_v2,74757262-6964-4697-9479-5f73656e736f,0.1.0*%
%TF.SameCoordinates,Original*%
%TF.FileFunction,Legend,Bot*%
%TF.FilePolarity,Positive*%
%FSLAX46Y46*%
G04 Gerber Fmt 4.6, Leading zero omitted, Abs format (unit mm)*
G04 Created by KiCad (PCBNEW 7.0.6) date 2023-09-08 17:54:17*
%MOMM*%
%LPD*%
G01*
G04 APERTURE LIST*
%ADD10C,0.150000*%
%ADD11C,0.125000*%
%ADD12C,0.075000*%
%ADD13C,0.120000*%
G04 APERTURE END LIST*
D10*
X113072987Y-116864133D02*
X113068464Y-117376961D01*
X113072987Y-115594133D02*
X119422987Y-115594133D01*
X119418464Y-117376961D02*
X119422987Y-115594133D01*
X113891700Y-114254149D02*
X114342987Y-115594133D01*
X113072987Y-115594133D02*
X113072987Y-116864133D01*
X113068464Y-117376961D02*
X119418464Y-117376961D01*
D11*
X112883129Y-108555879D02*
X112716463Y-108317784D01*
X112597415Y-108555879D02*
X112597415Y-108055879D01*
X112597415Y-108055879D02*
X112787891Y-108055879D01*
X112787891Y-108055879D02*
X112835510Y-108079689D01*
X112835510Y-108079689D02*
X112859320Y-108103498D01*
X112859320Y-108103498D02*
X112883129Y-108151117D01*
X112883129Y-108151117D02*
X112883129Y-108222546D01*
X112883129Y-108222546D02*
X112859320Y-108270165D01*
X112859320Y-108270165D02*
X112835510Y-108293974D01*
X112835510Y-108293974D02*
X112787891Y-108317784D01*
X112787891Y-108317784D02*
X112597415Y-108317784D01*
X113049796Y-108055879D02*
X113383129Y-108555879D01*
X113383129Y-108055879D02*
X113049796Y-108555879D01*
X113321774Y-115868119D02*
X113631298Y-115868119D01*
X113631298Y-115868119D02*
X113464631Y-116058595D01*
X113464631Y-116058595D02*
X113536060Y-116058595D01*
X113536060Y-116058595D02*
X113583679Y-116082405D01*
X113583679Y-116082405D02*
X113607488Y-116106214D01*
X113607488Y-116106214D02*
X113631298Y-116153833D01*
X113631298Y-116153833D02*
X113631298Y-116272881D01*
X113631298Y-116272881D02*
X113607488Y-116320500D01*
X113607488Y-116320500D02*
X113583679Y-116344310D01*
X113583679Y-116344310D02*
X113536060Y-116368119D01*
X113536060Y-116368119D02*
X113393203Y-116368119D01*
X113393203Y-116368119D02*
X113345584Y-116344310D01*
X113345584Y-116344310D02*
X113321774Y-116320500D01*
X113845583Y-116320500D02*
X113869393Y-116344310D01*
X113869393Y-116344310D02*
X113845583Y-116368119D01*
X113845583Y-116368119D02*
X113821774Y-116344310D01*
X113821774Y-116344310D02*
X113845583Y-116320500D01*
X113845583Y-116320500D02*
X113845583Y-116368119D01*
X114036059Y-115868119D02*
X114345583Y-115868119D01*
X114345583Y-115868119D02*
X114178916Y-116058595D01*
X114178916Y-116058595D02*
X114250345Y-116058595D01*
X114250345Y-116058595D02*
X114297964Y-116082405D01*
X114297964Y-116082405D02*
X114321773Y-116106214D01*
X114321773Y-116106214D02*
X114345583Y-116153833D01*
X114345583Y-116153833D02*
X114345583Y-116272881D01*
X114345583Y-116272881D02*
X114321773Y-116320500D01*
X114321773Y-116320500D02*
X114297964Y-116344310D01*
X114297964Y-116344310D02*
X114250345Y-116368119D01*
X114250345Y-116368119D02*
X114107488Y-116368119D01*
X114107488Y-116368119D02*
X114059869Y-116344310D01*
X114059869Y-116344310D02*
X114036059Y-116320500D01*
X114488440Y-115868119D02*
X114655106Y-116368119D01*
X114655106Y-116368119D02*
X114821773Y-115868119D01*
X115369391Y-116368119D02*
X115369391Y-115868119D01*
X115369391Y-115868119D02*
X115536058Y-116225262D01*
X115536058Y-116225262D02*
X115702724Y-115868119D01*
X115702724Y-115868119D02*
X115702724Y-116368119D01*
X116036058Y-115868119D02*
X116131296Y-115868119D01*
X116131296Y-115868119D02*
X116178915Y-115891929D01*
X116178915Y-115891929D02*
X116226534Y-115939548D01*
X116226534Y-115939548D02*
X116250344Y-116034786D01*
X116250344Y-116034786D02*
X116250344Y-116201452D01*
X116250344Y-116201452D02*
X116226534Y-116296690D01*
X116226534Y-116296690D02*
X116178915Y-116344310D01*
X116178915Y-116344310D02*
X116131296Y-116368119D01*
X116131296Y-116368119D02*
X116036058Y-116368119D01*
X116036058Y-116368119D02*
X115988439Y-116344310D01*
X115988439Y-116344310D02*
X115940820Y-116296690D01*
X115940820Y-116296690D02*
X115917011Y-116201452D01*
X115917011Y-116201452D02*
X115917011Y-116034786D01*
X115917011Y-116034786D02*
X115940820Y-115939548D01*
X115940820Y-115939548D02*
X115988439Y-115891929D01*
X115988439Y-115891929D02*
X116036058Y-115868119D01*
X116440821Y-116344310D02*
X116512249Y-116368119D01*
X116512249Y-116368119D02*
X116631297Y-116368119D01*
X116631297Y-116368119D02*
X116678916Y-116344310D01*
X116678916Y-116344310D02*
X116702725Y-116320500D01*
X116702725Y-116320500D02*
X116726535Y-116272881D01*
X116726535Y-116272881D02*
X116726535Y-116225262D01*
X116726535Y-116225262D02*
X116702725Y-116177643D01*
X116702725Y-116177643D02*
X116678916Y-116153833D01*
X116678916Y-116153833D02*
X116631297Y-116130024D01*
X116631297Y-116130024D02*
X116536059Y-116106214D01*
X116536059Y-116106214D02*
X116488440Y-116082405D01*
X116488440Y-116082405D02*
X116464630Y-116058595D01*
X116464630Y-116058595D02*
X116440821Y-116010976D01*
X116440821Y-116010976D02*
X116440821Y-115963357D01*
X116440821Y-115963357D02*
X116464630Y-115915738D01*
X116464630Y-115915738D02*
X116488440Y-115891929D01*
X116488440Y-115891929D02*
X116536059Y-115868119D01*
X116536059Y-115868119D02*
X116655106Y-115868119D01*
X116655106Y-115868119D02*
X116726535Y-115891929D01*
X116940820Y-116368119D02*
X116940820Y-115868119D01*
X117821772Y-115891929D02*
X117774153Y-115868119D01*
X117774153Y-115868119D02*
X117702724Y-115868119D01*
X117702724Y-115868119D02*
X117631296Y-115891929D01*
X117631296Y-115891929D02*
X117583677Y-115939548D01*
X117583677Y-115939548D02*
X117559867Y-115987167D01*
X117559867Y-115987167D02*
X117536058Y-116082405D01*
X117536058Y-116082405D02*
X117536058Y-116153833D01*
X117536058Y-116153833D02*
X117559867Y-116249071D01*
X117559867Y-116249071D02*
X117583677Y-116296690D01*
X117583677Y-116296690D02*
X117631296Y-116344310D01*
X117631296Y-116344310D02*
X117702724Y-116368119D01*
X117702724Y-116368119D02*
X117750343Y-116368119D01*
X117750343Y-116368119D02*
X117821772Y-116344310D01*
X117821772Y-116344310D02*
X117845581Y-116320500D01*
X117845581Y-116320500D02*
X117845581Y-116153833D01*
X117845581Y-116153833D02*
X117750343Y-116153833D01*
X118059867Y-116368119D02*
X118059867Y-115868119D01*
X118059867Y-115868119D02*
X118345581Y-116368119D01*
X118345581Y-116368119D02*
X118345581Y-115868119D01*
X118583677Y-116368119D02*
X118583677Y-115868119D01*
X118583677Y-115868119D02*
X118702725Y-115868119D01*
X118702725Y-115868119D02*
X118774153Y-115891929D01*
X118774153Y-115891929D02*
X118821772Y-115939548D01*
X118821772Y-115939548D02*
X118845582Y-115987167D01*
X118845582Y-115987167D02*
X118869391Y-116082405D01*
X118869391Y-116082405D02*
X118869391Y-116153833D01*
X118869391Y-116153833D02*
X118845582Y-116249071D01*
X118845582Y-116249071D02*
X118821772Y-116296690D01*
X118821772Y-116296690D02*
X118774153Y-116344310D01*
X118774153Y-116344310D02*
X118702725Y-116368119D01*
X118702725Y-116368119D02*
X118583677Y-116368119D01*
X113369393Y-117173119D02*
X113369393Y-116673119D01*
X113369393Y-116673119D02*
X113536060Y-117030262D01*
X113536060Y-117030262D02*
X113702726Y-116673119D01*
X113702726Y-116673119D02*
X113702726Y-117173119D01*
X113940822Y-117173119D02*
X113940822Y-116673119D01*
X114155108Y-117149310D02*
X114226536Y-117173119D01*
X114226536Y-117173119D02*
X114345584Y-117173119D01*
X114345584Y-117173119D02*
X114393203Y-117149310D01*
X114393203Y-117149310D02*
X114417012Y-117125500D01*
X114417012Y-117125500D02*
X114440822Y-117077881D01*
X114440822Y-117077881D02*
X114440822Y-117030262D01*
X114440822Y-117030262D02*
X114417012Y-116982643D01*
X114417012Y-116982643D02*
X114393203Y-116958833D01*
X114393203Y-116958833D02*
X114345584Y-116935024D01*
X114345584Y-116935024D02*
X114250346Y-116911214D01*
X114250346Y-116911214D02*
X114202727Y-116887405D01*
X114202727Y-116887405D02*
X114178917Y-116863595D01*
X114178917Y-116863595D02*
X114155108Y-116815976D01*
X114155108Y-116815976D02*
X114155108Y-116768357D01*
X114155108Y-116768357D02*
X114178917Y-116720738D01*
X114178917Y-116720738D02*
X114202727Y-116696929D01*
X114202727Y-116696929D02*
X114250346Y-116673119D01*
X114250346Y-116673119D02*
X114369393Y-116673119D01*
X114369393Y-116673119D02*
X114440822Y-116696929D01*
X114750345Y-116673119D02*
X114845583Y-116673119D01*
X114845583Y-116673119D02*
X114893202Y-116696929D01*
X114893202Y-116696929D02*
X114940821Y-116744548D01*
X114940821Y-116744548D02*
X114964631Y-116839786D01*
X114964631Y-116839786D02*
X114964631Y-117006452D01*
X114964631Y-117006452D02*
X114940821Y-117101690D01*
X114940821Y-117101690D02*
X114893202Y-117149310D01*
X114893202Y-117149310D02*
X114845583Y-117173119D01*
X114845583Y-117173119D02*
X114750345Y-117173119D01*
X114750345Y-117173119D02*
X114702726Y-117149310D01*
X114702726Y-117149310D02*
X114655107Y-117101690D01*
X114655107Y-117101690D02*
X114631298Y-117006452D01*
X114631298Y-117006452D02*
X114631298Y-116839786D01*
X114631298Y-116839786D02*
X114655107Y-116744548D01*
X114655107Y-116744548D02*
X114702726Y-116696929D01*
X114702726Y-116696929D02*
X114750345Y-116673119D01*
X115845583Y-117125500D02*
X115821774Y-117149310D01*
X115821774Y-117149310D02*
X115750345Y-117173119D01*
X115750345Y-117173119D02*
X115702726Y-117173119D01*
X115702726Y-117173119D02*
X115631298Y-117149310D01*
X115631298Y-117149310D02*
X115583679Y-117101690D01*
X115583679Y-117101690D02*
X115559869Y-117054071D01*
X115559869Y-117054071D02*
X115536060Y-116958833D01*
X115536060Y-116958833D02*
X115536060Y-116887405D01*
X115536060Y-116887405D02*
X115559869Y-116792167D01*
X115559869Y-116792167D02*
X115583679Y-116744548D01*
X115583679Y-116744548D02*
X115631298Y-116696929D01*
X115631298Y-116696929D02*
X115702726Y-116673119D01*
X115702726Y-116673119D02*
X115750345Y-116673119D01*
X115750345Y-116673119D02*
X115821774Y-116696929D01*
X115821774Y-116696929D02*
X115845583Y-116720738D01*
X116297964Y-117173119D02*
X116059869Y-117173119D01*
X116059869Y-117173119D02*
X116059869Y-116673119D01*
X116464631Y-117173119D02*
X116464631Y-116673119D01*
X116750345Y-117173119D02*
X116536060Y-116887405D01*
X116750345Y-116673119D02*
X116464631Y-116958833D01*
X117059869Y-116673119D02*
X117155107Y-116673119D01*
X117155107Y-116673119D02*
X117202726Y-116696929D01*
X117202726Y-116696929D02*
X117250345Y-116744548D01*
X117250345Y-116744548D02*
X117274155Y-116839786D01*
X117274155Y-116839786D02*
X117274155Y-117006452D01*
X117274155Y-117006452D02*
X117250345Y-117101690D01*
X117250345Y-117101690D02*
X117202726Y-117149310D01*
X117202726Y-117149310D02*
X117155107Y-117173119D01*
X117155107Y-117173119D02*
X117059869Y-117173119D01*
X117059869Y-117173119D02*
X117012250Y-117149310D01*
X117012250Y-117149310D02*
X116964631Y-117101690D01*
X116964631Y-117101690D02*
X116940822Y-117006452D01*
X116940822Y-117006452D02*
X116940822Y-116839786D01*
X116940822Y-116839786D02*
X116964631Y-116744548D01*
X116964631Y-116744548D02*
X117012250Y-116696929D01*
X117012250Y-116696929D02*
X117059869Y-116673119D01*
X118155107Y-117173119D02*
X117988441Y-116935024D01*
X117869393Y-117173119D02*
X117869393Y-116673119D01*
X117869393Y-116673119D02*
X118059869Y-116673119D01*
X118059869Y-116673119D02*
X118107488Y-116696929D01*
X118107488Y-116696929D02*
X118131298Y-116720738D01*
X118131298Y-116720738D02*
X118155107Y-116768357D01*
X118155107Y-116768357D02*
X118155107Y-116839786D01*
X118155107Y-116839786D02*
X118131298Y-116887405D01*
X118131298Y-116887405D02*
X118107488Y-116911214D01*
X118107488Y-116911214D02*
X118059869Y-116935024D01*
X118059869Y-116935024D02*
X117869393Y-116935024D01*
X118345584Y-117149310D02*
X118417012Y-117173119D01*
X118417012Y-117173119D02*
X118536060Y-117173119D01*
X118536060Y-117173119D02*
X118583679Y-117149310D01*
X118583679Y-117149310D02*
X118607488Y-117125500D01*
X118607488Y-117125500D02*
X118631298Y-117077881D01*
X118631298Y-117077881D02*
X118631298Y-117030262D01*
X118631298Y-117030262D02*
X118607488Y-116982643D01*
X118607488Y-116982643D02*
X118583679Y-116958833D01*
X118583679Y-116958833D02*
X118536060Y-116935024D01*
X118536060Y-116935024D02*
X118440822Y-116911214D01*
X118440822Y-116911214D02*
X118393203Y-116887405D01*
X118393203Y-116887405D02*
X118369393Y-116863595D01*
X118369393Y-116863595D02*
X118345584Y-116815976D01*
X118345584Y-116815976D02*
X118345584Y-116768357D01*
X118345584Y-116768357D02*
X118369393Y-116720738D01*
X118369393Y-116720738D02*
X118393203Y-116696929D01*
X118393203Y-116696929D02*
X118440822Y-116673119D01*
X118440822Y-116673119D02*
X118559869Y-116673119D01*
X118559869Y-116673119D02*
X118631298Y-116696929D01*
X118774155Y-116673119D02*
X119059869Y-116673119D01*
X118917012Y-117173119D02*
X118917012Y-116673119D01*
X117014775Y-104995253D02*
X116848109Y-104757158D01*
X116729061Y-104995253D02*
X116729061Y-104495253D01*
X116729061Y-104495253D02*
X116919537Y-104495253D01*
X116919537Y-104495253D02*
X116967156Y-104519063D01*
X116967156Y-104519063D02*
X116990966Y-104542872D01*
X116990966Y-104542872D02*
X117014775Y-104590491D01*
X117014775Y-104590491D02*
X117014775Y-104661920D01*
X117014775Y-104661920D02*
X116990966Y-104709539D01*
X116990966Y-104709539D02*
X116967156Y-104733348D01*
X116967156Y-104733348D02*
X116919537Y-104757158D01*
X116919537Y-104757158D02*
X116729061Y-104757158D01*
X117205252Y-104971444D02*
X117276680Y-104995253D01*
X117276680Y-104995253D02*
X117395728Y-104995253D01*
X117395728Y-104995253D02*
X117443347Y-104971444D01*
X117443347Y-104971444D02*
X117467156Y-104947634D01*
X117467156Y-104947634D02*
X117490966Y-104900015D01*
X117490966Y-104900015D02*
X117490966Y-104852396D01*
X117490966Y-104852396D02*
X117467156Y-104804777D01*
X117467156Y-104804777D02*
X117443347Y-104780967D01*
X117443347Y-104780967D02*
X117395728Y-104757158D01*
X117395728Y-104757158D02*
X117300490Y-104733348D01*
X117300490Y-104733348D02*
X117252871Y-104709539D01*
X117252871Y-104709539D02*
X117229061Y-104685729D01*
X117229061Y-104685729D02*
X117205252Y-104638110D01*
X117205252Y-104638110D02*
X117205252Y-104590491D01*
X117205252Y-104590491D02*
X117229061Y-104542872D01*
X117229061Y-104542872D02*
X117252871Y-104519063D01*
X117252871Y-104519063D02*
X117300490Y-104495253D01*
X117300490Y-104495253D02*
X117419537Y-104495253D01*
X117419537Y-104495253D02*
X117490966Y-104519063D01*
X117633823Y-104495253D02*
X117919537Y-104495253D01*
X117776680Y-104995253D02*
X117776680Y-104495253D01*
X114757871Y-100915441D02*
X114710252Y-100891631D01*
X114710252Y-100891631D02*
X114638823Y-100891631D01*
X114638823Y-100891631D02*
X114567395Y-100915441D01*
X114567395Y-100915441D02*
X114519776Y-100963060D01*
X114519776Y-100963060D02*
X114495966Y-101010679D01*
X114495966Y-101010679D02*
X114472157Y-101105917D01*
X114472157Y-101105917D02*
X114472157Y-101177345D01*
X114472157Y-101177345D02*
X114495966Y-101272583D01*
X114495966Y-101272583D02*
X114519776Y-101320202D01*
X114519776Y-101320202D02*
X114567395Y-101367822D01*
X114567395Y-101367822D02*
X114638823Y-101391631D01*
X114638823Y-101391631D02*
X114686442Y-101391631D01*
X114686442Y-101391631D02*
X114757871Y-101367822D01*
X114757871Y-101367822D02*
X114781680Y-101344012D01*
X114781680Y-101344012D02*
X114781680Y-101177345D01*
X114781680Y-101177345D02*
X114686442Y-101177345D01*
X114995966Y-101391631D02*
X114995966Y-100891631D01*
X114995966Y-100891631D02*
X115281680Y-101391631D01*
X115281680Y-101391631D02*
X115281680Y-100891631D01*
X115519776Y-101391631D02*
X115519776Y-100891631D01*
X115519776Y-100891631D02*
X115638824Y-100891631D01*
X115638824Y-100891631D02*
X115710252Y-100915441D01*
X115710252Y-100915441D02*
X115757871Y-100963060D01*
X115757871Y-100963060D02*
X115781681Y-101010679D01*
X115781681Y-101010679D02*
X115805490Y-101105917D01*
X115805490Y-101105917D02*
X115805490Y-101177345D01*
X115805490Y-101177345D02*
X115781681Y-101272583D01*
X115781681Y-101272583D02*
X115757871Y-101320202D01*
X115757871Y-101320202D02*
X115710252Y-101367822D01*
X115710252Y-101367822D02*
X115638824Y-101391631D01*
X115638824Y-101391631D02*
X115519776Y-101391631D01*
X110301142Y-102439462D02*
X110420190Y-102939462D01*
X110420190Y-102939462D02*
X110515428Y-102582319D01*
X110515428Y-102582319D02*
X110610666Y-102939462D01*
X110610666Y-102939462D02*
X110729714Y-102439462D01*
X110920190Y-102939462D02*
X110920190Y-102439462D01*
X111205904Y-102939462D02*
X110991619Y-102653748D01*
X111205904Y-102439462D02*
X110920190Y-102725176D01*
X111420190Y-102677557D02*
X111586857Y-102677557D01*
X111658285Y-102939462D02*
X111420190Y-102939462D01*
X111420190Y-102939462D02*
X111420190Y-102439462D01*
X111420190Y-102439462D02*
X111658285Y-102439462D01*
X112794557Y-100690509D02*
X112794557Y-101047652D01*
X112794557Y-101047652D02*
X112770748Y-101119080D01*
X112770748Y-101119080D02*
X112723129Y-101166700D01*
X112723129Y-101166700D02*
X112651700Y-101190509D01*
X112651700Y-101190509D02*
X112604081Y-101190509D01*
X112985033Y-100690509D02*
X113294557Y-100690509D01*
X113294557Y-100690509D02*
X113127890Y-100880985D01*
X113127890Y-100880985D02*
X113199319Y-100880985D01*
X113199319Y-100880985D02*
X113246938Y-100904795D01*
X113246938Y-100904795D02*
X113270747Y-100928604D01*
X113270747Y-100928604D02*
X113294557Y-100976223D01*
X113294557Y-100976223D02*
X113294557Y-101095271D01*
X113294557Y-101095271D02*
X113270747Y-101142890D01*
X113270747Y-101142890D02*
X113246938Y-101166700D01*
X113246938Y-101166700D02*
X113199319Y-101190509D01*
X113199319Y-101190509D02*
X113056462Y-101190509D01*
X113056462Y-101190509D02*
X113008843Y-101166700D01*
X113008843Y-101166700D02*
X112985033Y-101142890D01*
X110974880Y-104973525D02*
X111260594Y-104973525D01*
X111117737Y-105473525D02*
X111117737Y-104973525D01*
X111379641Y-104973525D02*
X111712974Y-105473525D01*
X111712974Y-104973525D02*
X111379641Y-105473525D01*
X116491079Y-106898009D02*
X116657745Y-107398009D01*
X116657745Y-107398009D02*
X116824412Y-106898009D01*
X116991078Y-107207533D02*
X117372031Y-107207533D01*
X117181554Y-107398009D02*
X117181554Y-107017057D01*
D12*
X118022413Y-102420557D02*
X118122413Y-102277700D01*
X118193842Y-102420557D02*
X118193842Y-102120557D01*
X118193842Y-102120557D02*
X118079556Y-102120557D01*
X118079556Y-102120557D02*
X118050985Y-102134843D01*
X118050985Y-102134843D02*
X118036699Y-102149129D01*
X118036699Y-102149129D02*
X118022413Y-102177700D01*
X118022413Y-102177700D02*
X118022413Y-102220557D01*
X118022413Y-102220557D02*
X118036699Y-102249129D01*
X118036699Y-102249129D02*
X118050985Y-102263414D01*
X118050985Y-102263414D02*
X118079556Y-102277700D01*
X118079556Y-102277700D02*
X118193842Y-102277700D01*
X117922413Y-102120557D02*
X117736699Y-102120557D01*
X117736699Y-102120557D02*
X117836699Y-102234843D01*
X117836699Y-102234843D02*
X117793842Y-102234843D01*
X117793842Y-102234843D02*
X117765271Y-102249129D01*
X117765271Y-102249129D02*
X117750985Y-102263414D01*
X117750985Y-102263414D02*
X117736699Y-102291986D01*
X117736699Y-102291986D02*
X117736699Y-102363414D01*
X117736699Y-102363414D02*
X117750985Y-102391986D01*
X117750985Y-102391986D02*
X117765271Y-102406272D01*
X117765271Y-102406272D02*
X117793842Y-102420557D01*
X117793842Y-102420557D02*
X117879556Y-102420557D01*
X117879556Y-102420557D02*
X117908128Y-102406272D01*
X117908128Y-102406272D02*
X117922413Y-102391986D01*
X124192448Y-109980660D02*
X124206734Y-109994946D01*
X124206734Y-109994946D02*
X124249591Y-110009231D01*
X124249591Y-110009231D02*
X124278163Y-110009231D01*
X124278163Y-110009231D02*
X124321020Y-109994946D01*
X124321020Y-109994946D02*
X124349591Y-109966374D01*
X124349591Y-109966374D02*
X124363877Y-109937803D01*
X124363877Y-109937803D02*
X124378163Y-109880660D01*
X124378163Y-109880660D02*
X124378163Y-109837803D01*
X124378163Y-109837803D02*
X124363877Y-109780660D01*
X124363877Y-109780660D02*
X124349591Y-109752088D01*
X124349591Y-109752088D02*
X124321020Y-109723517D01*
X124321020Y-109723517D02*
X124278163Y-109709231D01*
X124278163Y-109709231D02*
X124249591Y-109709231D01*
X124249591Y-109709231D02*
X124206734Y-109723517D01*
X124206734Y-109723517D02*
X124192448Y-109737803D01*
X124049591Y-110009231D02*
X123992448Y-110009231D01*
X123992448Y-110009231D02*
X123963877Y-109994946D01*
X123963877Y-109994946D02*
X123949591Y-109980660D01*
X123949591Y-109980660D02*
X123921020Y-109937803D01*
X123921020Y-109937803D02*
X123906734Y-109880660D01*
X123906734Y-109880660D02*
X123906734Y-109766374D01*
X123906734Y-109766374D02*
X123921020Y-109737803D01*
X123921020Y-109737803D02*
X123935306Y-109723517D01*
X123935306Y-109723517D02*
X123963877Y-109709231D01*
X123963877Y-109709231D02*
X124021020Y-109709231D01*
X124021020Y-109709231D02*
X124049591Y-109723517D01*
X124049591Y-109723517D02*
X124063877Y-109737803D01*
X124063877Y-109737803D02*
X124078163Y-109766374D01*
X124078163Y-109766374D02*
X124078163Y-109837803D01*
X124078163Y-109837803D02*
X124063877Y-109866374D01*
X124063877Y-109866374D02*
X124049591Y-109880660D01*
X124049591Y-109880660D02*
X124021020Y-109894946D01*
X124021020Y-109894946D02*
X123963877Y-109894946D01*
X123963877Y-109894946D02*
X123935306Y-109880660D01*
X123935306Y-109880660D02*
X123921020Y-109866374D01*
X123921020Y-109866374D02*
X123906734Y-109837803D01*
X140164431Y-109844155D02*
X140164431Y-110087012D01*
X140164431Y-110087012D02*
X140150145Y-110115584D01*
X140150145Y-110115584D02*
X140135860Y-110129870D01*
X140135860Y-110129870D02*
X140107288Y-110144155D01*
X140107288Y-110144155D02*
X140050145Y-110144155D01*
X140050145Y-110144155D02*
X140021574Y-110129870D01*
X140021574Y-110129870D02*
X140007288Y-110115584D01*
X140007288Y-110115584D02*
X139993002Y-110087012D01*
X139993002Y-110087012D02*
X139993002Y-109844155D01*
X139721574Y-109944155D02*
X139721574Y-110144155D01*
X139793002Y-109829870D02*
X139864431Y-110044155D01*
X139864431Y-110044155D02*
X139678716Y-110044155D01*
X134616305Y-105791484D02*
X134630591Y-105805770D01*
X134630591Y-105805770D02*
X134673448Y-105820055D01*
X134673448Y-105820055D02*
X134702020Y-105820055D01*
X134702020Y-105820055D02*
X134744877Y-105805770D01*
X134744877Y-105805770D02*
X134773448Y-105777198D01*
X134773448Y-105777198D02*
X134787734Y-105748627D01*
X134787734Y-105748627D02*
X134802020Y-105691484D01*
X134802020Y-105691484D02*
X134802020Y-105648627D01*
X134802020Y-105648627D02*
X134787734Y-105591484D01*
X134787734Y-105591484D02*
X134773448Y-105562912D01*
X134773448Y-105562912D02*
X134744877Y-105534341D01*
X134744877Y-105534341D02*
X134702020Y-105520055D01*
X134702020Y-105520055D02*
X134673448Y-105520055D01*
X134673448Y-105520055D02*
X134630591Y-105534341D01*
X134630591Y-105534341D02*
X134616305Y-105548627D01*
X134330591Y-105820055D02*
X134502020Y-105820055D01*
X134416305Y-105820055D02*
X134416305Y-105520055D01*
X134416305Y-105520055D02*
X134444877Y-105562912D01*
X134444877Y-105562912D02*
X134473448Y-105591484D01*
X134473448Y-105591484D02*
X134502020Y-105605770D01*
X134216306Y-105548627D02*
X134202020Y-105534341D01*
X134202020Y-105534341D02*
X134173449Y-105520055D01*
X134173449Y-105520055D02*
X134102020Y-105520055D01*
X134102020Y-105520055D02*
X134073449Y-105534341D01*
X134073449Y-105534341D02*
X134059163Y-105548627D01*
X134059163Y-105548627D02*
X134044877Y-105577198D01*
X134044877Y-105577198D02*
X134044877Y-105605770D01*
X134044877Y-105605770D02*
X134059163Y-105648627D01*
X134059163Y-105648627D02*
X134230591Y-105820055D01*
X134230591Y-105820055D02*
X134044877Y-105820055D01*
X134395596Y-108639820D02*
X134409882Y-108654106D01*
X134409882Y-108654106D02*
X134452739Y-108668391D01*
X134452739Y-108668391D02*
X134481311Y-108668391D01*
X134481311Y-108668391D02*
X134524168Y-108654106D01*
X134524168Y-108654106D02*
X134552739Y-108625534D01*
X134552739Y-108625534D02*
X134567025Y-108596963D01*
X134567025Y-108596963D02*
X134581311Y-108539820D01*
X134581311Y-108539820D02*
X134581311Y-108496963D01*
X134581311Y-108496963D02*
X134567025Y-108439820D01*
X134567025Y-108439820D02*
X134552739Y-108411248D01*
X134552739Y-108411248D02*
X134524168Y-108382677D01*
X134524168Y-108382677D02*
X134481311Y-108368391D01*
X134481311Y-108368391D02*
X134452739Y-108368391D01*
X134452739Y-108368391D02*
X134409882Y-108382677D01*
X134409882Y-108382677D02*
X134395596Y-108396963D01*
X134109882Y-108668391D02*
X134281311Y-108668391D01*
X134195596Y-108668391D02*
X134195596Y-108368391D01*
X134195596Y-108368391D02*
X134224168Y-108411248D01*
X134224168Y-108411248D02*
X134252739Y-108439820D01*
X134252739Y-108439820D02*
X134281311Y-108454106D01*
X133824168Y-108668391D02*
X133995597Y-108668391D01*
X133909882Y-108668391D02*
X133909882Y-108368391D01*
X133909882Y-108368391D02*
X133938454Y-108411248D01*
X133938454Y-108411248D02*
X133967025Y-108439820D01*
X133967025Y-108439820D02*
X133995597Y-108454106D01*
X102123920Y-109257521D02*
X102138206Y-109271807D01*
X102138206Y-109271807D02*
X102181063Y-109286092D01*
X102181063Y-109286092D02*
X102209635Y-109286092D01*
X102209635Y-109286092D02*
X102252492Y-109271807D01*
X102252492Y-109271807D02*
X102281063Y-109243235D01*
X102281063Y-109243235D02*
X102295349Y-109214664D01*
X102295349Y-109214664D02*
X102309635Y-109157521D01*
X102309635Y-109157521D02*
X102309635Y-109114664D01*
X102309635Y-109114664D02*
X102295349Y-109057521D01*
X102295349Y-109057521D02*
X102281063Y-109028949D01*
X102281063Y-109028949D02*
X102252492Y-109000378D01*
X102252492Y-109000378D02*
X102209635Y-108986092D01*
X102209635Y-108986092D02*
X102181063Y-108986092D01*
X102181063Y-108986092D02*
X102138206Y-109000378D01*
X102138206Y-109000378D02*
X102123920Y-109014664D01*
X102023920Y-108986092D02*
X101838206Y-108986092D01*
X101838206Y-108986092D02*
X101938206Y-109100378D01*
X101938206Y-109100378D02*
X101895349Y-109100378D01*
X101895349Y-109100378D02*
X101866778Y-109114664D01*
X101866778Y-109114664D02*
X101852492Y-109128949D01*
X101852492Y-109128949D02*
X101838206Y-109157521D01*
X101838206Y-109157521D02*
X101838206Y-109228949D01*
X101838206Y-109228949D02*
X101852492Y-109257521D01*
X101852492Y-109257521D02*
X101866778Y-109271807D01*
X101866778Y-109271807D02*
X101895349Y-109286092D01*
X101895349Y-109286092D02*
X101981063Y-109286092D01*
X101981063Y-109286092D02*
X102009635Y-109271807D01*
X102009635Y-109271807D02*
X102023920Y-109257521D01*
X101723921Y-109014664D02*
X101709635Y-109000378D01*
X101709635Y-109000378D02*
X101681064Y-108986092D01*
X101681064Y-108986092D02*
X101609635Y-108986092D01*
X101609635Y-108986092D02*
X101581064Y-109000378D01*
X101581064Y-109000378D02*
X101566778Y-109014664D01*
X101566778Y-109014664D02*
X101552492Y-109043235D01*
X101552492Y-109043235D02*
X101552492Y-109071807D01*
X101552492Y-109071807D02*
X101566778Y-109114664D01*
X101566778Y-109114664D02*
X101738206Y-109286092D01*
X101738206Y-109286092D02*
X101552492Y-109286092D01*
X143981096Y-109899379D02*
X143995382Y-109913665D01*
X143995382Y-109913665D02*
X144038239Y-109927950D01*
X144038239Y-109927950D02*
X144066811Y-109927950D01*
X144066811Y-109927950D02*
X144109668Y-109913665D01*
X144109668Y-109913665D02*
X144138239Y-109885093D01*
X144138239Y-109885093D02*
X144152525Y-109856522D01*
X144152525Y-109856522D02*
X144166811Y-109799379D01*
X144166811Y-109799379D02*
X144166811Y-109756522D01*
X144166811Y-109756522D02*
X144152525Y-109699379D01*
X144152525Y-109699379D02*
X144138239Y-109670807D01*
X144138239Y-109670807D02*
X144109668Y-109642236D01*
X144109668Y-109642236D02*
X144066811Y-109627950D01*
X144066811Y-109627950D02*
X144038239Y-109627950D01*
X144038239Y-109627950D02*
X143995382Y-109642236D01*
X143995382Y-109642236D02*
X143981096Y-109656522D01*
X143695382Y-109927950D02*
X143866811Y-109927950D01*
X143781096Y-109927950D02*
X143781096Y-109627950D01*
X143781096Y-109627950D02*
X143809668Y-109670807D01*
X143809668Y-109670807D02*
X143838239Y-109699379D01*
X143838239Y-109699379D02*
X143866811Y-109713665D01*
X143509668Y-109627950D02*
X143481097Y-109627950D01*
X143481097Y-109627950D02*
X143452525Y-109642236D01*
X143452525Y-109642236D02*
X143438240Y-109656522D01*
X143438240Y-109656522D02*
X143423954Y-109685093D01*
X143423954Y-109685093D02*
X143409668Y-109742236D01*
X143409668Y-109742236D02*
X143409668Y-109813665D01*
X143409668Y-109813665D02*
X143423954Y-109870807D01*
X143423954Y-109870807D02*
X143438240Y-109899379D01*
X143438240Y-109899379D02*
X143452525Y-109913665D01*
X143452525Y-109913665D02*
X143481097Y-109927950D01*
X143481097Y-109927950D02*
X143509668Y-109927950D01*
X143509668Y-109927950D02*
X143538240Y-109913665D01*
X143538240Y-109913665D02*
X143552525Y-109899379D01*
X143552525Y-109899379D02*
X143566811Y-109870807D01*
X143566811Y-109870807D02*
X143581097Y-109813665D01*
X143581097Y-109813665D02*
X143581097Y-109742236D01*
X143581097Y-109742236D02*
X143566811Y-109685093D01*
X143566811Y-109685093D02*
X143552525Y-109656522D01*
X143552525Y-109656522D02*
X143538240Y-109642236D01*
X143538240Y-109642236D02*
X143509668Y-109627950D01*
X109370526Y-108806274D02*
X109384812Y-108820560D01*
X109384812Y-108820560D02*
X109427669Y-108834845D01*
X109427669Y-108834845D02*
X109456241Y-108834845D01*
X109456241Y-108834845D02*
X109499098Y-108820560D01*
X109499098Y-108820560D02*
X109527669Y-108791988D01*
X109527669Y-108791988D02*
X109541955Y-108763417D01*
X109541955Y-108763417D02*
X109556241Y-108706274D01*
X109556241Y-108706274D02*
X109556241Y-108663417D01*
X109556241Y-108663417D02*
X109541955Y-108606274D01*
X109541955Y-108606274D02*
X109527669Y-108577702D01*
X109527669Y-108577702D02*
X109499098Y-108549131D01*
X109499098Y-108549131D02*
X109456241Y-108534845D01*
X109456241Y-108534845D02*
X109427669Y-108534845D01*
X109427669Y-108534845D02*
X109384812Y-108549131D01*
X109384812Y-108549131D02*
X109370526Y-108563417D01*
X109099098Y-108534845D02*
X109241955Y-108534845D01*
X109241955Y-108534845D02*
X109256241Y-108677702D01*
X109256241Y-108677702D02*
X109241955Y-108663417D01*
X109241955Y-108663417D02*
X109213384Y-108649131D01*
X109213384Y-108649131D02*
X109141955Y-108649131D01*
X109141955Y-108649131D02*
X109113384Y-108663417D01*
X109113384Y-108663417D02*
X109099098Y-108677702D01*
X109099098Y-108677702D02*
X109084812Y-108706274D01*
X109084812Y-108706274D02*
X109084812Y-108777702D01*
X109084812Y-108777702D02*
X109099098Y-108806274D01*
X109099098Y-108806274D02*
X109113384Y-108820560D01*
X109113384Y-108820560D02*
X109141955Y-108834845D01*
X109141955Y-108834845D02*
X109213384Y-108834845D01*
X109213384Y-108834845D02*
X109241955Y-108820560D01*
X109241955Y-108820560D02*
X109256241Y-108806274D01*
X119913223Y-100771119D02*
X119913223Y-101013976D01*
X119913223Y-101013976D02*
X119898937Y-101042548D01*
X119898937Y-101042548D02*
X119884652Y-101056834D01*
X119884652Y-101056834D02*
X119856080Y-101071119D01*
X119856080Y-101071119D02*
X119798937Y-101071119D01*
X119798937Y-101071119D02*
X119770366Y-101056834D01*
X119770366Y-101056834D02*
X119756080Y-101042548D01*
X119756080Y-101042548D02*
X119741794Y-101013976D01*
X119741794Y-101013976D02*
X119741794Y-100771119D01*
X119613223Y-100799691D02*
X119598937Y-100785405D01*
X119598937Y-100785405D02*
X119570366Y-100771119D01*
X119570366Y-100771119D02*
X119498937Y-100771119D01*
X119498937Y-100771119D02*
X119470366Y-100785405D01*
X119470366Y-100785405D02*
X119456080Y-100799691D01*
X119456080Y-100799691D02*
X119441794Y-100828262D01*
X119441794Y-100828262D02*
X119441794Y-100856834D01*
X119441794Y-100856834D02*
X119456080Y-100899691D01*
X119456080Y-100899691D02*
X119627508Y-101071119D01*
X119627508Y-101071119D02*
X119441794Y-101071119D01*
X102596664Y-108581788D02*
X102696664Y-108438931D01*
X102768093Y-108581788D02*
X102768093Y-108281788D01*
X102768093Y-108281788D02*
X102653807Y-108281788D01*
X102653807Y-108281788D02*
X102625236Y-108296074D01*
X102625236Y-108296074D02*
X102610950Y-108310360D01*
X102610950Y-108310360D02*
X102596664Y-108338931D01*
X102596664Y-108338931D02*
X102596664Y-108381788D01*
X102596664Y-108381788D02*
X102610950Y-108410360D01*
X102610950Y-108410360D02*
X102625236Y-108424645D01*
X102625236Y-108424645D02*
X102653807Y-108438931D01*
X102653807Y-108438931D02*
X102768093Y-108438931D01*
X102310950Y-108581788D02*
X102482379Y-108581788D01*
X102396664Y-108581788D02*
X102396664Y-108281788D01*
X102396664Y-108281788D02*
X102425236Y-108324645D01*
X102425236Y-108324645D02*
X102453807Y-108353217D01*
X102453807Y-108353217D02*
X102482379Y-108367503D01*
X102025236Y-108581788D02*
X102196665Y-108581788D01*
X102110950Y-108581788D02*
X102110950Y-108281788D01*
X102110950Y-108281788D02*
X102139522Y-108324645D01*
X102139522Y-108324645D02*
X102168093Y-108353217D01*
X102168093Y-108353217D02*
X102196665Y-108367503D01*
X107810039Y-102945249D02*
X107810039Y-103188106D01*
X107810039Y-103188106D02*
X107795753Y-103216678D01*
X107795753Y-103216678D02*
X107781468Y-103230964D01*
X107781468Y-103230964D02*
X107752896Y-103245249D01*
X107752896Y-103245249D02*
X107695753Y-103245249D01*
X107695753Y-103245249D02*
X107667182Y-103230964D01*
X107667182Y-103230964D02*
X107652896Y-103216678D01*
X107652896Y-103216678D02*
X107638610Y-103188106D01*
X107638610Y-103188106D02*
X107638610Y-102945249D01*
X107352896Y-102945249D02*
X107495753Y-102945249D01*
X107495753Y-102945249D02*
X107510039Y-103088106D01*
X107510039Y-103088106D02*
X107495753Y-103073821D01*
X107495753Y-103073821D02*
X107467182Y-103059535D01*
X107467182Y-103059535D02*
X107395753Y-103059535D01*
X107395753Y-103059535D02*
X107367182Y-103073821D01*
X107367182Y-103073821D02*
X107352896Y-103088106D01*
X107352896Y-103088106D02*
X107338610Y-103116678D01*
X107338610Y-103116678D02*
X107338610Y-103188106D01*
X107338610Y-103188106D02*
X107352896Y-103216678D01*
X107352896Y-103216678D02*
X107367182Y-103230964D01*
X107367182Y-103230964D02*
X107395753Y-103245249D01*
X107395753Y-103245249D02*
X107467182Y-103245249D01*
X107467182Y-103245249D02*
X107495753Y-103230964D01*
X107495753Y-103230964D02*
X107510039Y-103216678D01*
X137165724Y-105760157D02*
X137180010Y-105774443D01*
X137180010Y-105774443D02*
X137222867Y-105788728D01*
X137222867Y-105788728D02*
X137251439Y-105788728D01*
X137251439Y-105788728D02*
X137294296Y-105774443D01*
X137294296Y-105774443D02*
X137322867Y-105745871D01*
X137322867Y-105745871D02*
X137337153Y-105717300D01*
X137337153Y-105717300D02*
X137351439Y-105660157D01*
X137351439Y-105660157D02*
X137351439Y-105617300D01*
X137351439Y-105617300D02*
X137337153Y-105560157D01*
X137337153Y-105560157D02*
X137322867Y-105531585D01*
X137322867Y-105531585D02*
X137294296Y-105503014D01*
X137294296Y-105503014D02*
X137251439Y-105488728D01*
X137251439Y-105488728D02*
X137222867Y-105488728D01*
X137222867Y-105488728D02*
X137180010Y-105503014D01*
X137180010Y-105503014D02*
X137165724Y-105517300D01*
X136880010Y-105788728D02*
X137051439Y-105788728D01*
X136965724Y-105788728D02*
X136965724Y-105488728D01*
X136965724Y-105488728D02*
X136994296Y-105531585D01*
X136994296Y-105531585D02*
X137022867Y-105560157D01*
X137022867Y-105560157D02*
X137051439Y-105574443D01*
X136780010Y-105488728D02*
X136594296Y-105488728D01*
X136594296Y-105488728D02*
X136694296Y-105603014D01*
X136694296Y-105603014D02*
X136651439Y-105603014D01*
X136651439Y-105603014D02*
X136622868Y-105617300D01*
X136622868Y-105617300D02*
X136608582Y-105631585D01*
X136608582Y-105631585D02*
X136594296Y-105660157D01*
X136594296Y-105660157D02*
X136594296Y-105731585D01*
X136594296Y-105731585D02*
X136608582Y-105760157D01*
X136608582Y-105760157D02*
X136622868Y-105774443D01*
X136622868Y-105774443D02*
X136651439Y-105788728D01*
X136651439Y-105788728D02*
X136737153Y-105788728D01*
X136737153Y-105788728D02*
X136765725Y-105774443D01*
X136765725Y-105774443D02*
X136780010Y-105760157D01*
X144474723Y-105722691D02*
X144489009Y-105736977D01*
X144489009Y-105736977D02*
X144531866Y-105751262D01*
X144531866Y-105751262D02*
X144560438Y-105751262D01*
X144560438Y-105751262D02*
X144603295Y-105736977D01*
X144603295Y-105736977D02*
X144631866Y-105708405D01*
X144631866Y-105708405D02*
X144646152Y-105679834D01*
X144646152Y-105679834D02*
X144660438Y-105622691D01*
X144660438Y-105622691D02*
X144660438Y-105579834D01*
X144660438Y-105579834D02*
X144646152Y-105522691D01*
X144646152Y-105522691D02*
X144631866Y-105494119D01*
X144631866Y-105494119D02*
X144603295Y-105465548D01*
X144603295Y-105465548D02*
X144560438Y-105451262D01*
X144560438Y-105451262D02*
X144531866Y-105451262D01*
X144531866Y-105451262D02*
X144489009Y-105465548D01*
X144489009Y-105465548D02*
X144474723Y-105479834D01*
X144189009Y-105751262D02*
X144360438Y-105751262D01*
X144274723Y-105751262D02*
X144274723Y-105451262D01*
X144274723Y-105451262D02*
X144303295Y-105494119D01*
X144303295Y-105494119D02*
X144331866Y-105522691D01*
X144331866Y-105522691D02*
X144360438Y-105536977D01*
X143931867Y-105451262D02*
X143989009Y-105451262D01*
X143989009Y-105451262D02*
X144017581Y-105465548D01*
X144017581Y-105465548D02*
X144031867Y-105479834D01*
X144031867Y-105479834D02*
X144060438Y-105522691D01*
X144060438Y-105522691D02*
X144074724Y-105579834D01*
X144074724Y-105579834D02*
X144074724Y-105694119D01*
X144074724Y-105694119D02*
X144060438Y-105722691D01*
X144060438Y-105722691D02*
X144046152Y-105736977D01*
X144046152Y-105736977D02*
X144017581Y-105751262D01*
X144017581Y-105751262D02*
X143960438Y-105751262D01*
X143960438Y-105751262D02*
X143931867Y-105736977D01*
X143931867Y-105736977D02*
X143917581Y-105722691D01*
X143917581Y-105722691D02*
X143903295Y-105694119D01*
X143903295Y-105694119D02*
X143903295Y-105622691D01*
X143903295Y-105622691D02*
X143917581Y-105594119D01*
X143917581Y-105594119D02*
X143931867Y-105579834D01*
X143931867Y-105579834D02*
X143960438Y-105565548D01*
X143960438Y-105565548D02*
X144017581Y-105565548D01*
X144017581Y-105565548D02*
X144046152Y-105579834D01*
X144046152Y-105579834D02*
X144060438Y-105594119D01*
X144060438Y-105594119D02*
X144074724Y-105622691D01*
X137220235Y-109581420D02*
X137234521Y-109595706D01*
X137234521Y-109595706D02*
X137277378Y-109609991D01*
X137277378Y-109609991D02*
X137305950Y-109609991D01*
X137305950Y-109609991D02*
X137348807Y-109595706D01*
X137348807Y-109595706D02*
X137377378Y-109567134D01*
X137377378Y-109567134D02*
X137391664Y-109538563D01*
X137391664Y-109538563D02*
X137405950Y-109481420D01*
X137405950Y-109481420D02*
X137405950Y-109438563D01*
X137405950Y-109438563D02*
X137391664Y-109381420D01*
X137391664Y-109381420D02*
X137377378Y-109352848D01*
X137377378Y-109352848D02*
X137348807Y-109324277D01*
X137348807Y-109324277D02*
X137305950Y-109309991D01*
X137305950Y-109309991D02*
X137277378Y-109309991D01*
X137277378Y-109309991D02*
X137234521Y-109324277D01*
X137234521Y-109324277D02*
X137220235Y-109338563D01*
X136963093Y-109409991D02*
X136963093Y-109609991D01*
X137034521Y-109295706D02*
X137105950Y-109509991D01*
X137105950Y-109509991D02*
X136920235Y-109509991D01*
X140091300Y-116178129D02*
X140105586Y-116192415D01*
X140105586Y-116192415D02*
X140148443Y-116206700D01*
X140148443Y-116206700D02*
X140177015Y-116206700D01*
X140177015Y-116206700D02*
X140219872Y-116192415D01*
X140219872Y-116192415D02*
X140248443Y-116163843D01*
X140248443Y-116163843D02*
X140262729Y-116135272D01*
X140262729Y-116135272D02*
X140277015Y-116078129D01*
X140277015Y-116078129D02*
X140277015Y-116035272D01*
X140277015Y-116035272D02*
X140262729Y-115978129D01*
X140262729Y-115978129D02*
X140248443Y-115949557D01*
X140248443Y-115949557D02*
X140219872Y-115920986D01*
X140219872Y-115920986D02*
X140177015Y-115906700D01*
X140177015Y-115906700D02*
X140148443Y-115906700D01*
X140148443Y-115906700D02*
X140105586Y-115920986D01*
X140105586Y-115920986D02*
X140091300Y-115935272D01*
X139991300Y-115906700D02*
X139791300Y-115906700D01*
X139791300Y-115906700D02*
X139919872Y-116206700D01*
X118683108Y-105288029D02*
X118697394Y-105302315D01*
X118697394Y-105302315D02*
X118740251Y-105316600D01*
X118740251Y-105316600D02*
X118768823Y-105316600D01*
X118768823Y-105316600D02*
X118811680Y-105302315D01*
X118811680Y-105302315D02*
X118840251Y-105273743D01*
X118840251Y-105273743D02*
X118854537Y-105245172D01*
X118854537Y-105245172D02*
X118868823Y-105188029D01*
X118868823Y-105188029D02*
X118868823Y-105145172D01*
X118868823Y-105145172D02*
X118854537Y-105088029D01*
X118854537Y-105088029D02*
X118840251Y-105059457D01*
X118840251Y-105059457D02*
X118811680Y-105030886D01*
X118811680Y-105030886D02*
X118768823Y-105016600D01*
X118768823Y-105016600D02*
X118740251Y-105016600D01*
X118740251Y-105016600D02*
X118697394Y-105030886D01*
X118697394Y-105030886D02*
X118683108Y-105045172D01*
X118568823Y-105045172D02*
X118554537Y-105030886D01*
X118554537Y-105030886D02*
X118525966Y-105016600D01*
X118525966Y-105016600D02*
X118454537Y-105016600D01*
X118454537Y-105016600D02*
X118425966Y-105030886D01*
X118425966Y-105030886D02*
X118411680Y-105045172D01*
X118411680Y-105045172D02*
X118397394Y-105073743D01*
X118397394Y-105073743D02*
X118397394Y-105102315D01*
X118397394Y-105102315D02*
X118411680Y-105145172D01*
X118411680Y-105145172D02*
X118583108Y-105316600D01*
X118583108Y-105316600D02*
X118397394Y-105316600D01*
X137132502Y-107014026D02*
X137146788Y-107028312D01*
X137146788Y-107028312D02*
X137189645Y-107042597D01*
X137189645Y-107042597D02*
X137218217Y-107042597D01*
X137218217Y-107042597D02*
X137261074Y-107028312D01*
X137261074Y-107028312D02*
X137289645Y-106999740D01*
X137289645Y-106999740D02*
X137303931Y-106971169D01*
X137303931Y-106971169D02*
X137318217Y-106914026D01*
X137318217Y-106914026D02*
X137318217Y-106871169D01*
X137318217Y-106871169D02*
X137303931Y-106814026D01*
X137303931Y-106814026D02*
X137289645Y-106785454D01*
X137289645Y-106785454D02*
X137261074Y-106756883D01*
X137261074Y-106756883D02*
X137218217Y-106742597D01*
X137218217Y-106742597D02*
X137189645Y-106742597D01*
X137189645Y-106742597D02*
X137146788Y-106756883D01*
X137146788Y-106756883D02*
X137132502Y-106771169D01*
X136846788Y-107042597D02*
X137018217Y-107042597D01*
X136932502Y-107042597D02*
X136932502Y-106742597D01*
X136932502Y-106742597D02*
X136961074Y-106785454D01*
X136961074Y-106785454D02*
X136989645Y-106814026D01*
X136989645Y-106814026D02*
X137018217Y-106828312D01*
X136675360Y-106871169D02*
X136703931Y-106856883D01*
X136703931Y-106856883D02*
X136718217Y-106842597D01*
X136718217Y-106842597D02*
X136732503Y-106814026D01*
X136732503Y-106814026D02*
X136732503Y-106799740D01*
X136732503Y-106799740D02*
X136718217Y-106771169D01*
X136718217Y-106771169D02*
X136703931Y-106756883D01*
X136703931Y-106756883D02*
X136675360Y-106742597D01*
X136675360Y-106742597D02*
X136618217Y-106742597D01*
X136618217Y-106742597D02*
X136589646Y-106756883D01*
X136589646Y-106756883D02*
X136575360Y-106771169D01*
X136575360Y-106771169D02*
X136561074Y-106799740D01*
X136561074Y-106799740D02*
X136561074Y-106814026D01*
X136561074Y-106814026D02*
X136575360Y-106842597D01*
X136575360Y-106842597D02*
X136589646Y-106856883D01*
X136589646Y-106856883D02*
X136618217Y-106871169D01*
X136618217Y-106871169D02*
X136675360Y-106871169D01*
X136675360Y-106871169D02*
X136703931Y-106885454D01*
X136703931Y-106885454D02*
X136718217Y-106899740D01*
X136718217Y-106899740D02*
X136732503Y-106928312D01*
X136732503Y-106928312D02*
X136732503Y-106985454D01*
X136732503Y-106985454D02*
X136718217Y-107014026D01*
X136718217Y-107014026D02*
X136703931Y-107028312D01*
X136703931Y-107028312D02*
X136675360Y-107042597D01*
X136675360Y-107042597D02*
X136618217Y-107042597D01*
X136618217Y-107042597D02*
X136589646Y-107028312D01*
X136589646Y-107028312D02*
X136575360Y-107014026D01*
X136575360Y-107014026D02*
X136561074Y-106985454D01*
X136561074Y-106985454D02*
X136561074Y-106928312D01*
X136561074Y-106928312D02*
X136575360Y-106899740D01*
X136575360Y-106899740D02*
X136589646Y-106885454D01*
X136589646Y-106885454D02*
X136618217Y-106871169D01*
X120043399Y-112527417D02*
X120057685Y-112541703D01*
X120057685Y-112541703D02*
X120100542Y-112555988D01*
X120100542Y-112555988D02*
X120129114Y-112555988D01*
X120129114Y-112555988D02*
X120171971Y-112541703D01*
X120171971Y-112541703D02*
X120200542Y-112513131D01*
X120200542Y-112513131D02*
X120214828Y-112484560D01*
X120214828Y-112484560D02*
X120229114Y-112427417D01*
X120229114Y-112427417D02*
X120229114Y-112384560D01*
X120229114Y-112384560D02*
X120214828Y-112327417D01*
X120214828Y-112327417D02*
X120200542Y-112298845D01*
X120200542Y-112298845D02*
X120171971Y-112270274D01*
X120171971Y-112270274D02*
X120129114Y-112255988D01*
X120129114Y-112255988D02*
X120100542Y-112255988D01*
X120100542Y-112255988D02*
X120057685Y-112270274D01*
X120057685Y-112270274D02*
X120043399Y-112284560D01*
X119757685Y-112555988D02*
X119929114Y-112555988D01*
X119843399Y-112555988D02*
X119843399Y-112255988D01*
X119843399Y-112255988D02*
X119871971Y-112298845D01*
X119871971Y-112298845D02*
X119900542Y-112327417D01*
X119900542Y-112327417D02*
X119929114Y-112341703D01*
X141935745Y-105256703D02*
X141950031Y-105270989D01*
X141950031Y-105270989D02*
X141992888Y-105285274D01*
X141992888Y-105285274D02*
X142021460Y-105285274D01*
X142021460Y-105285274D02*
X142064317Y-105270989D01*
X142064317Y-105270989D02*
X142092888Y-105242417D01*
X142092888Y-105242417D02*
X142107174Y-105213846D01*
X142107174Y-105213846D02*
X142121460Y-105156703D01*
X142121460Y-105156703D02*
X142121460Y-105113846D01*
X142121460Y-105113846D02*
X142107174Y-105056703D01*
X142107174Y-105056703D02*
X142092888Y-105028131D01*
X142092888Y-105028131D02*
X142064317Y-104999560D01*
X142064317Y-104999560D02*
X142021460Y-104985274D01*
X142021460Y-104985274D02*
X141992888Y-104985274D01*
X141992888Y-104985274D02*
X141950031Y-104999560D01*
X141950031Y-104999560D02*
X141935745Y-105013846D01*
X141650031Y-105285274D02*
X141821460Y-105285274D01*
X141735745Y-105285274D02*
X141735745Y-104985274D01*
X141735745Y-104985274D02*
X141764317Y-105028131D01*
X141764317Y-105028131D02*
X141792888Y-105056703D01*
X141792888Y-105056703D02*
X141821460Y-105070989D01*
X141392889Y-105085274D02*
X141392889Y-105285274D01*
X141464317Y-104970989D02*
X141535746Y-105185274D01*
X141535746Y-105185274D02*
X141350031Y-105185274D01*
X109897064Y-117482730D02*
X109911350Y-117497016D01*
X109911350Y-117497016D02*
X109954207Y-117511301D01*
X109954207Y-117511301D02*
X109982779Y-117511301D01*
X109982779Y-117511301D02*
X110025636Y-117497016D01*
X110025636Y-117497016D02*
X110054207Y-117468444D01*
X110054207Y-117468444D02*
X110068493Y-117439873D01*
X110068493Y-117439873D02*
X110082779Y-117382730D01*
X110082779Y-117382730D02*
X110082779Y-117339873D01*
X110082779Y-117339873D02*
X110068493Y-117282730D01*
X110068493Y-117282730D02*
X110054207Y-117254158D01*
X110054207Y-117254158D02*
X110025636Y-117225587D01*
X110025636Y-117225587D02*
X109982779Y-117211301D01*
X109982779Y-117211301D02*
X109954207Y-117211301D01*
X109954207Y-117211301D02*
X109911350Y-117225587D01*
X109911350Y-117225587D02*
X109897064Y-117239873D01*
X109782779Y-117239873D02*
X109768493Y-117225587D01*
X109768493Y-117225587D02*
X109739922Y-117211301D01*
X109739922Y-117211301D02*
X109668493Y-117211301D01*
X109668493Y-117211301D02*
X109639922Y-117225587D01*
X109639922Y-117225587D02*
X109625636Y-117239873D01*
X109625636Y-117239873D02*
X109611350Y-117268444D01*
X109611350Y-117268444D02*
X109611350Y-117297016D01*
X109611350Y-117297016D02*
X109625636Y-117339873D01*
X109625636Y-117339873D02*
X109797064Y-117511301D01*
X109797064Y-117511301D02*
X109611350Y-117511301D01*
X109425636Y-117211301D02*
X109397065Y-117211301D01*
X109397065Y-117211301D02*
X109368493Y-117225587D01*
X109368493Y-117225587D02*
X109354208Y-117239873D01*
X109354208Y-117239873D02*
X109339922Y-117268444D01*
X109339922Y-117268444D02*
X109325636Y-117325587D01*
X109325636Y-117325587D02*
X109325636Y-117397016D01*
X109325636Y-117397016D02*
X109339922Y-117454158D01*
X109339922Y-117454158D02*
X109354208Y-117482730D01*
X109354208Y-117482730D02*
X109368493Y-117497016D01*
X109368493Y-117497016D02*
X109397065Y-117511301D01*
X109397065Y-117511301D02*
X109425636Y-117511301D01*
X109425636Y-117511301D02*
X109454208Y-117497016D01*
X109454208Y-117497016D02*
X109468493Y-117482730D01*
X109468493Y-117482730D02*
X109482779Y-117454158D01*
X109482779Y-117454158D02*
X109497065Y-117397016D01*
X109497065Y-117397016D02*
X109497065Y-117325587D01*
X109497065Y-117325587D02*
X109482779Y-117268444D01*
X109482779Y-117268444D02*
X109468493Y-117239873D01*
X109468493Y-117239873D02*
X109454208Y-117225587D01*
X109454208Y-117225587D02*
X109425636Y-117211301D01*
X142744725Y-116178129D02*
X142759011Y-116192415D01*
X142759011Y-116192415D02*
X142801868Y-116206700D01*
X142801868Y-116206700D02*
X142830440Y-116206700D01*
X142830440Y-116206700D02*
X142873297Y-116192415D01*
X142873297Y-116192415D02*
X142901868Y-116163843D01*
X142901868Y-116163843D02*
X142916154Y-116135272D01*
X142916154Y-116135272D02*
X142930440Y-116078129D01*
X142930440Y-116078129D02*
X142930440Y-116035272D01*
X142930440Y-116035272D02*
X142916154Y-115978129D01*
X142916154Y-115978129D02*
X142901868Y-115949557D01*
X142901868Y-115949557D02*
X142873297Y-115920986D01*
X142873297Y-115920986D02*
X142830440Y-115906700D01*
X142830440Y-115906700D02*
X142801868Y-115906700D01*
X142801868Y-115906700D02*
X142759011Y-115920986D01*
X142759011Y-115920986D02*
X142744725Y-115935272D01*
X142573297Y-116035272D02*
X142601868Y-116020986D01*
X142601868Y-116020986D02*
X142616154Y-116006700D01*
X142616154Y-116006700D02*
X142630440Y-115978129D01*
X142630440Y-115978129D02*
X142630440Y-115963843D01*
X142630440Y-115963843D02*
X142616154Y-115935272D01*
X142616154Y-115935272D02*
X142601868Y-115920986D01*
X142601868Y-115920986D02*
X142573297Y-115906700D01*
X142573297Y-115906700D02*
X142516154Y-115906700D01*
X142516154Y-115906700D02*
X142487583Y-115920986D01*
X142487583Y-115920986D02*
X142473297Y-115935272D01*
X142473297Y-115935272D02*
X142459011Y-115963843D01*
X142459011Y-115963843D02*
X142459011Y-115978129D01*
X142459011Y-115978129D02*
X142473297Y-116006700D01*
X142473297Y-116006700D02*
X142487583Y-116020986D01*
X142487583Y-116020986D02*
X142516154Y-116035272D01*
X142516154Y-116035272D02*
X142573297Y-116035272D01*
X142573297Y-116035272D02*
X142601868Y-116049557D01*
X142601868Y-116049557D02*
X142616154Y-116063843D01*
X142616154Y-116063843D02*
X142630440Y-116092415D01*
X142630440Y-116092415D02*
X142630440Y-116149557D01*
X142630440Y-116149557D02*
X142616154Y-116178129D01*
X142616154Y-116178129D02*
X142601868Y-116192415D01*
X142601868Y-116192415D02*
X142573297Y-116206700D01*
X142573297Y-116206700D02*
X142516154Y-116206700D01*
X142516154Y-116206700D02*
X142487583Y-116192415D01*
X142487583Y-116192415D02*
X142473297Y-116178129D01*
X142473297Y-116178129D02*
X142459011Y-116149557D01*
X142459011Y-116149557D02*
X142459011Y-116092415D01*
X142459011Y-116092415D02*
X142473297Y-116063843D01*
X142473297Y-116063843D02*
X142487583Y-116049557D01*
X142487583Y-116049557D02*
X142516154Y-116035272D01*
X138703728Y-106518719D02*
X138718014Y-106533005D01*
X138718014Y-106533005D02*
X138760871Y-106547290D01*
X138760871Y-106547290D02*
X138789443Y-106547290D01*
X138789443Y-106547290D02*
X138832300Y-106533005D01*
X138832300Y-106533005D02*
X138860871Y-106504433D01*
X138860871Y-106504433D02*
X138875157Y-106475862D01*
X138875157Y-106475862D02*
X138889443Y-106418719D01*
X138889443Y-106418719D02*
X138889443Y-106375862D01*
X138889443Y-106375862D02*
X138875157Y-106318719D01*
X138875157Y-106318719D02*
X138860871Y-106290147D01*
X138860871Y-106290147D02*
X138832300Y-106261576D01*
X138832300Y-106261576D02*
X138789443Y-106247290D01*
X138789443Y-106247290D02*
X138760871Y-106247290D01*
X138760871Y-106247290D02*
X138718014Y-106261576D01*
X138718014Y-106261576D02*
X138703728Y-106275862D01*
X138418014Y-106547290D02*
X138589443Y-106547290D01*
X138503728Y-106547290D02*
X138503728Y-106247290D01*
X138503728Y-106247290D02*
X138532300Y-106290147D01*
X138532300Y-106290147D02*
X138560871Y-106318719D01*
X138560871Y-106318719D02*
X138589443Y-106333005D01*
X138275157Y-106547290D02*
X138218014Y-106547290D01*
X138218014Y-106547290D02*
X138189443Y-106533005D01*
X138189443Y-106533005D02*
X138175157Y-106518719D01*
X138175157Y-106518719D02*
X138146586Y-106475862D01*
X138146586Y-106475862D02*
X138132300Y-106418719D01*
X138132300Y-106418719D02*
X138132300Y-106304433D01*
X138132300Y-106304433D02*
X138146586Y-106275862D01*
X138146586Y-106275862D02*
X138160872Y-106261576D01*
X138160872Y-106261576D02*
X138189443Y-106247290D01*
X138189443Y-106247290D02*
X138246586Y-106247290D01*
X138246586Y-106247290D02*
X138275157Y-106261576D01*
X138275157Y-106261576D02*
X138289443Y-106275862D01*
X138289443Y-106275862D02*
X138303729Y-106304433D01*
X138303729Y-106304433D02*
X138303729Y-106375862D01*
X138303729Y-106375862D02*
X138289443Y-106404433D01*
X138289443Y-106404433D02*
X138275157Y-106418719D01*
X138275157Y-106418719D02*
X138246586Y-106433005D01*
X138246586Y-106433005D02*
X138189443Y-106433005D01*
X138189443Y-106433005D02*
X138160872Y-106418719D01*
X138160872Y-106418719D02*
X138146586Y-106404433D01*
X138146586Y-106404433D02*
X138132300Y-106375862D01*
X107176165Y-110106018D02*
X107176165Y-110348875D01*
X107176165Y-110348875D02*
X107161879Y-110377447D01*
X107161879Y-110377447D02*
X107147594Y-110391733D01*
X107147594Y-110391733D02*
X107119022Y-110406018D01*
X107119022Y-110406018D02*
X107061879Y-110406018D01*
X107061879Y-110406018D02*
X107033308Y-110391733D01*
X107033308Y-110391733D02*
X107019022Y-110377447D01*
X107019022Y-110377447D02*
X107004736Y-110348875D01*
X107004736Y-110348875D02*
X107004736Y-110106018D01*
X106819022Y-110234590D02*
X106847593Y-110220304D01*
X106847593Y-110220304D02*
X106861879Y-110206018D01*
X106861879Y-110206018D02*
X106876165Y-110177447D01*
X106876165Y-110177447D02*
X106876165Y-110163161D01*
X106876165Y-110163161D02*
X106861879Y-110134590D01*
X106861879Y-110134590D02*
X106847593Y-110120304D01*
X106847593Y-110120304D02*
X106819022Y-110106018D01*
X106819022Y-110106018D02*
X106761879Y-110106018D01*
X106761879Y-110106018D02*
X106733308Y-110120304D01*
X106733308Y-110120304D02*
X106719022Y-110134590D01*
X106719022Y-110134590D02*
X106704736Y-110163161D01*
X106704736Y-110163161D02*
X106704736Y-110177447D01*
X106704736Y-110177447D02*
X106719022Y-110206018D01*
X106719022Y-110206018D02*
X106733308Y-110220304D01*
X106733308Y-110220304D02*
X106761879Y-110234590D01*
X106761879Y-110234590D02*
X106819022Y-110234590D01*
X106819022Y-110234590D02*
X106847593Y-110248875D01*
X106847593Y-110248875D02*
X106861879Y-110263161D01*
X106861879Y-110263161D02*
X106876165Y-110291733D01*
X106876165Y-110291733D02*
X106876165Y-110348875D01*
X106876165Y-110348875D02*
X106861879Y-110377447D01*
X106861879Y-110377447D02*
X106847593Y-110391733D01*
X106847593Y-110391733D02*
X106819022Y-110406018D01*
X106819022Y-110406018D02*
X106761879Y-110406018D01*
X106761879Y-110406018D02*
X106733308Y-110391733D01*
X106733308Y-110391733D02*
X106719022Y-110377447D01*
X106719022Y-110377447D02*
X106704736Y-110348875D01*
X106704736Y-110348875D02*
X106704736Y-110291733D01*
X106704736Y-110291733D02*
X106719022Y-110263161D01*
X106719022Y-110263161D02*
X106733308Y-110248875D01*
X106733308Y-110248875D02*
X106761879Y-110234590D01*
X104863541Y-105839710D02*
X104963541Y-105696853D01*
X105034970Y-105839710D02*
X105034970Y-105539710D01*
X105034970Y-105539710D02*
X104920684Y-105539710D01*
X104920684Y-105539710D02*
X104892113Y-105553996D01*
X104892113Y-105553996D02*
X104877827Y-105568282D01*
X104877827Y-105568282D02*
X104863541Y-105596853D01*
X104863541Y-105596853D02*
X104863541Y-105639710D01*
X104863541Y-105639710D02*
X104877827Y-105668282D01*
X104877827Y-105668282D02*
X104892113Y-105682567D01*
X104892113Y-105682567D02*
X104920684Y-105696853D01*
X104920684Y-105696853D02*
X105034970Y-105696853D01*
X104577827Y-105839710D02*
X104749256Y-105839710D01*
X104663541Y-105839710D02*
X104663541Y-105539710D01*
X104663541Y-105539710D02*
X104692113Y-105582567D01*
X104692113Y-105582567D02*
X104720684Y-105611139D01*
X104720684Y-105611139D02*
X104749256Y-105625425D01*
X104463542Y-105568282D02*
X104449256Y-105553996D01*
X104449256Y-105553996D02*
X104420685Y-105539710D01*
X104420685Y-105539710D02*
X104349256Y-105539710D01*
X104349256Y-105539710D02*
X104320685Y-105553996D01*
X104320685Y-105553996D02*
X104306399Y-105568282D01*
X104306399Y-105568282D02*
X104292113Y-105596853D01*
X104292113Y-105596853D02*
X104292113Y-105625425D01*
X104292113Y-105625425D02*
X104306399Y-105668282D01*
X104306399Y-105668282D02*
X104477827Y-105839710D01*
X104477827Y-105839710D02*
X104292113Y-105839710D01*
D13*
%TO.C,R3*%
X118038302Y-101850506D02*
X117563786Y-101850506D01*
X118038302Y-100805506D02*
X117563786Y-100805506D01*
%TO.C,C9*%
X128485915Y-100675373D02*
X128485915Y-108735373D01*
X123965915Y-100675373D02*
X128485915Y-100675373D01*
X123965915Y-108735373D02*
X123965915Y-100675373D01*
%TO.C,U4*%
X139755726Y-107634635D02*
X139755726Y-108434635D01*
X139755726Y-107634635D02*
X139755726Y-106834635D01*
X142875726Y-107634635D02*
X142875726Y-109434635D01*
X142875726Y-107634635D02*
X142875726Y-106834635D01*
%TO.C,C12*%
X136022862Y-102359262D02*
X136022862Y-103781766D01*
X134202862Y-102359262D02*
X134202862Y-103781766D01*
%TO.C,C11*%
X133630646Y-100774988D02*
X133630646Y-108834988D01*
X129110646Y-100774988D02*
X133630646Y-100774988D01*
X129110646Y-108834988D02*
X129110646Y-100774988D01*
%TO.C,C32*%
X104570712Y-111480944D02*
X103148208Y-111480944D01*
X104570712Y-109660944D02*
X103148208Y-109660944D01*
%TO.C,C10*%
X143556421Y-108169616D02*
X143556421Y-107888456D01*
X144576421Y-108169616D02*
X144576421Y-107888456D01*
%TO.C,C5*%
X109439345Y-108318882D02*
X109223673Y-108318882D01*
X109439345Y-107598882D02*
X109223673Y-107598882D01*
%TO.C,U2*%
X121467917Y-101385681D02*
X120667917Y-101385681D01*
X121467917Y-101385681D02*
X122267917Y-101385681D01*
X121467917Y-104505681D02*
X119667917Y-104505681D01*
X121467917Y-104505681D02*
X122267917Y-104505681D01*
%TO.C,R11*%
X104247498Y-107705203D02*
X104701626Y-107705203D01*
X104247498Y-109175203D02*
X104701626Y-109175203D01*
%TO.C,U5*%
X107470397Y-105405765D02*
X107470397Y-106205765D01*
X107470397Y-105405765D02*
X107470397Y-104605765D01*
X110590397Y-105405765D02*
X110590397Y-107205765D01*
X110590397Y-105405765D02*
X110590397Y-104605765D01*
%TO.C,C13*%
X138541289Y-102367417D02*
X138541289Y-103789921D01*
X136721289Y-102367417D02*
X136721289Y-103789921D01*
%TO.C,C16*%
X144381405Y-102316789D02*
X144381405Y-103739293D01*
X142561405Y-102316789D02*
X142561405Y-103739293D01*
%TO.C,C4*%
X137496595Y-114319908D02*
X129436595Y-114319908D01*
X137496595Y-109799908D02*
X137496595Y-114319908D01*
X129436595Y-109799908D02*
X137496595Y-109799908D01*
%TO.C,C7*%
X141810608Y-112726592D02*
X141810608Y-114149096D01*
X139990608Y-112726592D02*
X139990608Y-114149096D01*
%TO.C,C2*%
X118452232Y-104112911D02*
X118452232Y-103897239D01*
X119172232Y-104112911D02*
X119172232Y-103897239D01*
%TO.C,C18*%
X137047482Y-108427712D02*
X136831810Y-108427712D01*
X137047482Y-107707712D02*
X136831810Y-107707712D01*
%TO.C,C1*%
X128617603Y-117368132D02*
X120557603Y-117368132D01*
X128617603Y-112848132D02*
X128617603Y-117368132D01*
X120557603Y-112848132D02*
X128617603Y-112848132D01*
%TO.C,C14*%
X141026620Y-102463626D02*
X141026620Y-103886130D01*
X139206620Y-102463626D02*
X139206620Y-103886130D01*
%TO.C,C20*%
X109011138Y-115029364D02*
X110433642Y-115029364D01*
X109011138Y-116849364D02*
X110433642Y-116849364D01*
%TO.C,C8*%
X144250657Y-112726592D02*
X144250657Y-114149096D01*
X142430657Y-112726592D02*
X142430657Y-114149096D01*
%TO.C,C19*%
X138299160Y-108269914D02*
X138299160Y-107988754D01*
X139319160Y-108269914D02*
X139319160Y-107988754D01*
%TO.C,U8*%
X109928274Y-112538990D02*
X109928274Y-111738990D01*
X109928274Y-112538990D02*
X109928274Y-113338990D01*
X106808274Y-112538990D02*
X106808274Y-110738990D01*
X106808274Y-112538990D02*
X106808274Y-113338990D01*
%TO.C,R12*%
X104903018Y-107225704D02*
X104428502Y-107225704D01*
X104903018Y-106180704D02*
X104428502Y-106180704D01*
%TD*%
M02*
