%TF.GenerationSoftware,KiCad,Pcbnew,7.0.6*%
%TF.CreationDate,2023-09-08T17:54:17+10:00*%
%TF.ProjectId,turbidity_sensor_v2,74757262-6964-4697-9479-5f73656e736f,0.1.0*%
%TF.SameCoordinates,Original*%
%TF.FileFunction,Copper,L4,Bot*%
%TF.FilePolarity,Positive*%
%FSLAX46Y46*%
G04 Gerber Fmt 4.6, Leading zero omitted, Abs format (unit mm)*
G04 Created by KiCad (PCBNEW 7.0.6) date 2023-09-08 17:54:17*
%MOMM*%
%LPD*%
G01*
G04 APERTURE LIST*
G04 Aperture macros list*
%AMRoundRect*
0 Rectangle with rounded corners*
0 $1 Rounding radius*
0 $2 $3 $4 $5 $6 $7 $8 $9 X,Y pos of 4 corners*
0 Add a 4 corners polygon primitive as box body*
4,1,4,$2,$3,$4,$5,$6,$7,$8,$9,$2,$3,0*
0 Add four circle primitives for the rounded corners*
1,1,$1+$1,$2,$3*
1,1,$1+$1,$4,$5*
1,1,$1+$1,$6,$7*
1,1,$1+$1,$8,$9*
0 Add four rect primitives between the rounded corners*
20,1,$1+$1,$2,$3,$4,$5,0*
20,1,$1+$1,$4,$5,$6,$7,0*
20,1,$1+$1,$6,$7,$8,$9,0*
20,1,$1+$1,$8,$9,$2,$3,0*%
G04 Aperture macros list end*
%TA.AperFunction,ComponentPad*%
%ADD10R,1.000000X1.000000*%
%TD*%
%TA.AperFunction,ComponentPad*%
%ADD11O,1.000000X1.000000*%
%TD*%
%TA.AperFunction,ComponentPad*%
%ADD12R,1.800000X1.800000*%
%TD*%
%TA.AperFunction,ComponentPad*%
%ADD13C,1.800000*%
%TD*%
%TA.AperFunction,ComponentPad*%
%ADD14R,1.350000X1.350000*%
%TD*%
%TA.AperFunction,ComponentPad*%
%ADD15O,1.350000X1.350000*%
%TD*%
%TA.AperFunction,SMDPad,CuDef*%
%ADD16RoundRect,0.200000X0.200000X0.275000X-0.200000X0.275000X-0.200000X-0.275000X0.200000X-0.275000X0*%
%TD*%
%TA.AperFunction,SMDPad,CuDef*%
%ADD17RoundRect,0.250000X-1.025000X0.787500X-1.025000X-0.787500X1.025000X-0.787500X1.025000X0.787500X0*%
%TD*%
%TA.AperFunction,SMDPad,CuDef*%
%ADD18RoundRect,0.150000X0.150000X-0.512500X0.150000X0.512500X-0.150000X0.512500X-0.150000X-0.512500X0*%
%TD*%
%TA.AperFunction,SMDPad,CuDef*%
%ADD19RoundRect,0.250000X-0.650000X0.325000X-0.650000X-0.325000X0.650000X-0.325000X0.650000X0.325000X0*%
%TD*%
%TA.AperFunction,SMDPad,CuDef*%
%ADD20RoundRect,0.250000X0.325000X0.650000X-0.325000X0.650000X-0.325000X-0.650000X0.325000X-0.650000X0*%
%TD*%
%TA.AperFunction,SMDPad,CuDef*%
%ADD21RoundRect,0.225000X0.250000X-0.225000X0.250000X0.225000X-0.250000X0.225000X-0.250000X-0.225000X0*%
%TD*%
%TA.AperFunction,SMDPad,CuDef*%
%ADD22RoundRect,0.140000X0.140000X0.170000X-0.140000X0.170000X-0.140000X-0.170000X0.140000X-0.170000X0*%
%TD*%
%TA.AperFunction,SMDPad,CuDef*%
%ADD23RoundRect,0.150000X-0.512500X-0.150000X0.512500X-0.150000X0.512500X0.150000X-0.512500X0.150000X0*%
%TD*%
%TA.AperFunction,SMDPad,CuDef*%
%ADD24RoundRect,0.250000X-0.262500X-0.450000X0.262500X-0.450000X0.262500X0.450000X-0.262500X0.450000X0*%
%TD*%
%TA.AperFunction,SMDPad,CuDef*%
%ADD25RoundRect,0.250000X0.787500X1.025000X-0.787500X1.025000X-0.787500X-1.025000X0.787500X-1.025000X0*%
%TD*%
%TA.AperFunction,SMDPad,CuDef*%
%ADD26RoundRect,0.140000X0.170000X-0.140000X0.170000X0.140000X-0.170000X0.140000X-0.170000X-0.140000X0*%
%TD*%
%TA.AperFunction,SMDPad,CuDef*%
%ADD27RoundRect,0.250000X-0.325000X-0.650000X0.325000X-0.650000X0.325000X0.650000X-0.325000X0.650000X0*%
%TD*%
%TA.AperFunction,SMDPad,CuDef*%
%ADD28RoundRect,0.150000X-0.150000X0.512500X-0.150000X-0.512500X0.150000X-0.512500X0.150000X0.512500X0*%
%TD*%
%TA.AperFunction,ViaPad*%
%ADD29C,0.500000*%
%TD*%
%TA.AperFunction,ViaPad*%
%ADD30C,0.900000*%
%TD*%
%TA.AperFunction,Conductor*%
%ADD31C,0.508000*%
%TD*%
%TA.AperFunction,Conductor*%
%ADD32C,0.812800*%
%TD*%
%TA.AperFunction,Conductor*%
%ADD33C,0.381000*%
%TD*%
%TA.AperFunction,Conductor*%
%ADD34C,0.250000*%
%TD*%
%TA.AperFunction,Conductor*%
%ADD35C,0.254000*%
%TD*%
%TA.AperFunction,Conductor*%
%ADD36C,2.000000*%
%TD*%
%TA.AperFunction,Conductor*%
%ADD37C,1.200000*%
%TD*%
G04 APERTURE END LIST*
D10*
%TO.P,J1,1,Pin_1*%
%TO.N,MISO*%
X113462636Y-113082428D03*
D11*
%TO.P,J1,2,Pin_2*%
%TO.N,+3.3V*%
X113462636Y-111812428D03*
%TO.P,J1,3,Pin_3*%
%TO.N,CLKO*%
X114732636Y-113082428D03*
%TO.P,J1,4,Pin_4*%
%TO.N,MOSI*%
X114732636Y-111812428D03*
%TO.P,J1,5,Pin_5*%
%TO.N,RST*%
X116002636Y-113082428D03*
%TO.P,J1,6,Pin_6*%
%TO.N,GND*%
X116002636Y-111812428D03*
%TD*%
D12*
%TO.P,D1,1,K*%
%TO.N,Net-(D1-K)*%
X145658563Y-108880210D03*
D13*
%TO.P,D1,2,A*%
%TO.N,LED_PWR*%
X145658563Y-106340210D03*
%TD*%
D12*
%TO.P,D2,1,K*%
%TO.N,Net-(D2-K)*%
X103249445Y-115439646D03*
D13*
%TO.P,D2,2,A*%
%TO.N,Net-(D2-A)*%
X103249445Y-112899646D03*
%TD*%
D14*
%TO.P,J3,1,Pin_1*%
%TO.N,WKE*%
X112931610Y-102661401D03*
D15*
%TO.P,J3,2,Pin_2*%
%TO.N,GND*%
X114931610Y-102661401D03*
%TO.P,J3,3,Pin_3*%
%TO.N,TX*%
X112931610Y-104661401D03*
%TO.P,J3,4,Pin_4*%
%TO.N,RST*%
X114931610Y-104661401D03*
%TO.P,J3,5,Pin_5*%
%TO.N,RX*%
X112931610Y-106661401D03*
%TO.P,J3,6,Pin_6*%
%TO.N,+BATT*%
X114931610Y-106661401D03*
%TD*%
D12*
%TO.P,D3,1,K*%
%TO.N,Net-(D3-K)*%
X145658563Y-115439646D03*
D13*
%TO.P,D3,2,A*%
%TO.N,LED_PWR*%
X145658563Y-112899646D03*
%TD*%
D16*
%TO.P,R3,1*%
%TO.N,Net-(U2-ILM)*%
X118626044Y-101328006D03*
%TO.P,R3,2*%
%TO.N,GND*%
X116976044Y-101328006D03*
%TD*%
D17*
%TO.P,C9,1*%
%TO.N,LED_PWR*%
X126225915Y-101972873D03*
%TO.P,C9,2*%
%TO.N,GND*%
X126225915Y-108197873D03*
%TD*%
D18*
%TO.P,U4,1,IN*%
%TO.N,+BATT*%
X142265726Y-108772135D03*
%TO.P,U4,2,GND*%
%TO.N,GND*%
X141315726Y-108772135D03*
%TO.P,U4,3,EN*%
%TO.N,+BATT*%
X140365726Y-108772135D03*
%TO.P,U4,4,NC*%
%TO.N,unconnected-(U4-NC-Pad4)*%
X140365726Y-106497135D03*
%TO.P,U4,5,OUT*%
%TO.N,+3.3V*%
X142265726Y-106497135D03*
%TD*%
D19*
%TO.P,C12,1*%
%TO.N,LED_PWR*%
X135112862Y-101595514D03*
%TO.P,C12,2*%
%TO.N,GND*%
X135112862Y-104545514D03*
%TD*%
D17*
%TO.P,C11,1*%
%TO.N,LED_PWR*%
X131370646Y-102072488D03*
%TO.P,C11,2*%
%TO.N,GND*%
X131370646Y-108297488D03*
%TD*%
D20*
%TO.P,C32,1*%
%TO.N,TIA_BIAS*%
X105334460Y-110570944D03*
%TO.P,C32,2*%
%TO.N,GND*%
X102384460Y-110570944D03*
%TD*%
D21*
%TO.P,C10,1*%
%TO.N,GND*%
X144066421Y-108804036D03*
%TO.P,C10,2*%
%TO.N,+3.3V*%
X144066421Y-107254036D03*
%TD*%
D22*
%TO.P,C5,1*%
%TO.N,+3.3V*%
X109811509Y-107958882D03*
%TO.P,C5,2*%
%TO.N,GND*%
X108851509Y-107958882D03*
%TD*%
D23*
%TO.P,U2,1,IN*%
%TO.N,+BATT*%
X120330417Y-103895681D03*
%TO.P,U2,2,GND*%
%TO.N,GND*%
X120330417Y-102945681D03*
%TO.P,U2,3,EN*%
%TO.N,LED_PWR_EN*%
X120330417Y-101995681D03*
%TO.P,U2,4,~{FAULT}*%
%TO.N,LED_PWR_FAULT*%
X122605417Y-101995681D03*
%TO.P,U2,5,ILM*%
%TO.N,Net-(U2-ILM)*%
X122605417Y-102945681D03*
%TO.P,U2,6,OUT*%
%TO.N,LED_PWR*%
X122605417Y-103895681D03*
%TD*%
D24*
%TO.P,R11,1*%
%TO.N,+3.3VADC*%
X103562062Y-108440203D03*
%TO.P,R11,2*%
%TO.N,TIA_BIAS*%
X105387062Y-108440203D03*
%TD*%
D18*
%TO.P,U5,1,VIN*%
%TO.N,+3.3V*%
X109980397Y-106543265D03*
%TO.P,U5,2,GND*%
%TO.N,GND*%
X109030397Y-106543265D03*
%TO.P,U5,3,ON*%
%TO.N,TIA_PWR_EN*%
X108080397Y-106543265D03*
%TO.P,U5,4,CT*%
%TO.N,unconnected-(U5-CT-Pad4)*%
X108080397Y-104268265D03*
%TO.P,U5,5,QOD*%
%TO.N,TIA_PWR*%
X109030397Y-104268265D03*
%TO.P,U5,6,VOUT*%
X109980397Y-104268265D03*
%TD*%
D19*
%TO.P,C13,1*%
%TO.N,LED_PWR*%
X137631289Y-101603669D03*
%TO.P,C13,2*%
%TO.N,GND*%
X137631289Y-104553669D03*
%TD*%
%TO.P,C16,1*%
%TO.N,LED_PWR*%
X143471405Y-101553041D03*
%TO.P,C16,2*%
%TO.N,GND*%
X143471405Y-104503041D03*
%TD*%
D25*
%TO.P,C4,1*%
%TO.N,+BATT*%
X136199095Y-112059908D03*
%TO.P,C4,2*%
%TO.N,GND*%
X129974095Y-112059908D03*
%TD*%
D19*
%TO.P,C7,1*%
%TO.N,+BATT*%
X140900608Y-111962844D03*
%TO.P,C7,2*%
%TO.N,GND*%
X140900608Y-114912844D03*
%TD*%
D26*
%TO.P,C2,1*%
%TO.N,+BATT*%
X118812232Y-104485075D03*
%TO.P,C2,2*%
%TO.N,GND*%
X118812232Y-103525075D03*
%TD*%
D22*
%TO.P,C18,1*%
%TO.N,+BATT*%
X137419646Y-108067712D03*
%TO.P,C18,2*%
%TO.N,GND*%
X136459646Y-108067712D03*
%TD*%
D25*
%TO.P,C1,1*%
%TO.N,+BATT*%
X127320103Y-115108132D03*
%TO.P,C1,2*%
%TO.N,GND*%
X121095103Y-115108132D03*
%TD*%
D19*
%TO.P,C14,1*%
%TO.N,LED_PWR*%
X140116620Y-101699878D03*
%TO.P,C14,2*%
%TO.N,GND*%
X140116620Y-104649878D03*
%TD*%
D27*
%TO.P,C20,1*%
%TO.N,Net-(U8-NR)*%
X108247390Y-115939364D03*
%TO.P,C20,2*%
%TO.N,GND*%
X111197390Y-115939364D03*
%TD*%
D19*
%TO.P,C8,1*%
%TO.N,+BATT*%
X143340657Y-111962844D03*
%TO.P,C8,2*%
%TO.N,GND*%
X143340657Y-114912844D03*
%TD*%
D21*
%TO.P,C19,1*%
%TO.N,+BATT*%
X138809160Y-108904334D03*
%TO.P,C19,2*%
%TO.N,GND*%
X138809160Y-107354334D03*
%TD*%
D28*
%TO.P,U8,1,GND*%
%TO.N,GND*%
X107418274Y-111401490D03*
%TO.P,U8,2,GND*%
X108368274Y-111401490D03*
%TO.P,U8,3,EN*%
%TO.N,REF_EN*%
X109318274Y-111401490D03*
%TO.P,U8,4,VIN*%
%TO.N,+BATT*%
X109318274Y-113676490D03*
%TO.P,U8,5,NR*%
%TO.N,Net-(U8-NR)*%
X108368274Y-113676490D03*
%TO.P,U8,6,VREF*%
%TO.N,+3.3VADC*%
X107418274Y-113676490D03*
%TD*%
D16*
%TO.P,R12,1*%
%TO.N,TIA_BIAS*%
X105490760Y-106703204D03*
%TO.P,R12,2*%
%TO.N,GND*%
X103840760Y-106703204D03*
%TD*%
D29*
%TO.N,GND*%
X117431747Y-112819419D03*
D30*
X112439941Y-116357410D03*
X129115383Y-107720303D03*
X131916497Y-110400000D03*
X137339946Y-114413730D03*
X137075085Y-115338137D03*
X106770139Y-107705797D03*
D29*
X117530213Y-106080213D03*
D30*
X143000000Y-113790146D03*
X138294980Y-114399037D03*
X128127156Y-107570595D03*
D29*
X130329681Y-105709526D03*
D30*
X142900000Y-103200000D03*
X138713663Y-105704613D03*
X112439941Y-115433819D03*
X119062593Y-115131928D03*
X137128358Y-106515591D03*
X106573442Y-111706900D03*
D29*
X124425417Y-101601571D03*
D30*
X141117864Y-113765385D03*
D29*
X122650000Y-109150000D03*
D30*
X128915491Y-110076860D03*
D29*
X111200000Y-114550000D03*
D30*
X144100000Y-103200000D03*
D29*
X135652093Y-102620014D03*
D30*
X108559432Y-103023520D03*
X138575957Y-112404485D03*
X117733790Y-115131928D03*
X138074588Y-115338137D03*
X129139116Y-108918792D03*
X132423771Y-106844088D03*
X101089244Y-110565149D03*
X128143041Y-108614172D03*
D29*
X123850000Y-109150000D03*
D30*
X100655381Y-106182875D03*
X106278799Y-114431872D03*
X130900000Y-110400000D03*
D29*
%TO.N,+3.3VADC*%
X131490783Y-106776486D03*
D30*
X106191672Y-113322508D03*
D29*
X133898623Y-106645275D03*
X135268698Y-108145547D03*
D30*
%TO.N,+BATT*%
X125297802Y-115108976D03*
D29*
X111173423Y-112034124D03*
D30*
X129250000Y-115100000D03*
X127320103Y-115108132D03*
D29*
%TO.N,+3.3V*%
X138222899Y-102799822D03*
X126200000Y-110400000D03*
X117800000Y-100700000D03*
D30*
X141313086Y-105752987D03*
X133668546Y-112049979D03*
D29*
X121528931Y-101642406D03*
D30*
X141800000Y-104200000D03*
X106451058Y-105153746D03*
D29*
X127278974Y-103552871D03*
D30*
X141317983Y-106710135D03*
D29*
X110622782Y-107981360D03*
X119056862Y-108506034D03*
D30*
%TO.N,TIA_PWR*%
X111120805Y-104268265D03*
D29*
%TO.N,TIA_BIAS*%
X107000000Y-109500000D03*
%TO.N,MISO*%
X124690517Y-112182843D03*
X125673591Y-112824704D03*
%TO.N,CLKO*%
X114777217Y-114931928D03*
%TO.N,MOSI*%
X115038274Y-110386668D03*
X121779195Y-112825204D03*
%TO.N,TX*%
X113800000Y-105600000D03*
X118214751Y-106224125D03*
%TO.N,RX*%
X121004999Y-106507162D03*
X111963403Y-108125869D03*
%TO.N,LED_DIGITAL_SIGNAL*%
X126760000Y-106320000D03*
X137742074Y-103529169D03*
%TO.N,LED_PWR_EN*%
X118999723Y-102584220D03*
X119896763Y-107660255D03*
X120953579Y-105305378D03*
%TO.N,LED_PWR_FAULT*%
X118400000Y-108150000D03*
X121291912Y-111151834D03*
X116858319Y-109902604D03*
%TO.N,LED_2_EN*%
X127600000Y-112500000D03*
X120850000Y-112950000D03*
%TO.N,LED_1_EN*%
X131703088Y-113400111D03*
X122400000Y-112250704D03*
%TO.N,SS*%
X113983227Y-109664507D03*
X123200000Y-112000000D03*
%TO.N,REF_EN*%
X115863418Y-115431235D03*
%TO.N,TIA_PWR_EN*%
X125340989Y-106685682D03*
%TO.N,SDA*%
X124600000Y-106000000D03*
X123300517Y-104800517D03*
%TO.N,SCL*%
X125531155Y-104154887D03*
X125815945Y-105303887D03*
%TO.N,NEG_VOLT_EN*%
X111931610Y-103850644D03*
X102582347Y-103363524D03*
X105500000Y-101750000D03*
X118479281Y-106871680D03*
%TO.N,WKE*%
X116300000Y-104649406D03*
%TD*%
D31*
%TO.N,GND*%
X141315726Y-108772135D02*
X141315726Y-108205450D01*
D32*
X143340657Y-114912844D02*
X143340657Y-114130803D01*
D31*
X141315726Y-108205450D02*
X140723911Y-107613635D01*
X144066421Y-108804036D02*
X142918020Y-107655635D01*
D33*
X112439941Y-116357410D02*
X111615436Y-116357410D01*
X114931610Y-102661401D02*
X114931610Y-102168390D01*
D34*
X111200000Y-114550000D02*
X111200000Y-115936754D01*
D33*
X107008882Y-107958882D02*
X108851509Y-107958882D01*
X111702935Y-115433819D02*
X111197390Y-115939364D01*
D32*
X101089244Y-110565149D02*
X102378665Y-110565149D01*
D31*
X118812232Y-103525075D02*
X117825075Y-103525075D01*
D33*
X115771994Y-101328006D02*
X116976044Y-101328006D01*
X107418274Y-111401490D02*
X106878852Y-111401490D01*
D31*
X141865541Y-107655635D02*
X141315726Y-108205450D01*
D35*
X109030397Y-106543265D02*
X109030397Y-107319603D01*
D32*
X103840760Y-106703204D02*
X101175710Y-106703204D01*
D36*
X121095103Y-115108132D02*
X119086389Y-115108132D01*
D32*
X117800000Y-103500000D02*
X116961401Y-102661401D01*
D33*
X114931610Y-102168390D02*
X115771994Y-101328006D01*
D31*
X117825075Y-103525075D02*
X117800000Y-103500000D01*
D33*
X119654319Y-102945681D02*
X120330417Y-102945681D01*
D36*
X117733790Y-115131928D02*
X119062593Y-115131928D01*
D32*
X140900608Y-113982641D02*
X141117864Y-113765385D01*
D33*
X106878852Y-111401490D02*
X106573442Y-111706900D01*
X119074925Y-103525075D02*
X119654319Y-102945681D01*
X111615436Y-116357410D02*
X111197390Y-115939364D01*
D35*
X108851509Y-107498491D02*
X108851509Y-107958882D01*
D31*
X139454334Y-107354334D02*
X138809160Y-107354334D01*
D35*
X109030397Y-107319603D02*
X108851509Y-107498491D01*
D33*
X106770139Y-107720139D02*
X107008882Y-107958882D01*
X112439941Y-115433819D02*
X111702935Y-115433819D01*
D32*
X140900608Y-114912844D02*
X140900608Y-113982641D01*
X143340657Y-114130803D02*
X143000000Y-113790146D01*
X116961401Y-102661401D02*
X114931610Y-102661401D01*
D33*
X108368274Y-111401490D02*
X107418274Y-111401490D01*
D36*
X119086389Y-115108132D02*
X119062593Y-115131928D01*
D33*
X118812232Y-103525075D02*
X119074925Y-103525075D01*
D31*
X139713635Y-107613635D02*
X139454334Y-107354334D01*
D32*
X101175710Y-106703204D02*
X100655381Y-106182875D01*
D31*
X140723911Y-107613635D02*
X142876020Y-107613635D01*
D33*
X106770139Y-107705797D02*
X106770139Y-107720139D01*
D34*
%TO.N,+3.3VADC*%
X133322436Y-106069088D02*
X132102755Y-106069088D01*
D33*
X106976490Y-113676490D02*
X106622508Y-113322508D01*
D34*
X131490783Y-106681060D02*
X131490783Y-106776486D01*
D33*
X107418274Y-113676490D02*
X106976490Y-113676490D01*
D32*
X103590860Y-111061973D02*
X105851395Y-113322508D01*
X103590860Y-108469001D02*
X103590860Y-111061973D01*
D34*
X133898623Y-106645275D02*
X133322436Y-106069088D01*
X132102755Y-106069088D02*
X131490783Y-106681060D01*
D32*
X105851395Y-113322508D02*
X106191672Y-113322508D01*
D33*
X106622508Y-113322508D02*
X106191672Y-113322508D01*
D31*
%TO.N,+BATT*%
X140365726Y-108772135D02*
X140365726Y-110325114D01*
D32*
X142390840Y-110340840D02*
X143340657Y-111290657D01*
X138809160Y-110340840D02*
X140350000Y-110340840D01*
D34*
X109531057Y-113676490D02*
X109318274Y-113676490D01*
X111173423Y-112034124D02*
X109531057Y-113676490D01*
D33*
X142265726Y-110215726D02*
X142390840Y-110340840D01*
X117914925Y-104485075D02*
X117700000Y-104700000D01*
D34*
X137419646Y-108469646D02*
X137419646Y-108067712D01*
D33*
X118812232Y-104485075D02*
X119164925Y-104485075D01*
D31*
X140365726Y-110325114D02*
X140350000Y-110340840D01*
D37*
X133150871Y-115108132D02*
X136199095Y-112059908D01*
D32*
X117700000Y-104700000D02*
X115738599Y-106661401D01*
X136199095Y-112059908D02*
X137090092Y-112059908D01*
D37*
X129250000Y-115100000D02*
X127328235Y-115100000D01*
X125297802Y-115108976D02*
X125298646Y-115108132D01*
D33*
X142265726Y-108772135D02*
X142265726Y-110215726D01*
D32*
X140900000Y-110340840D02*
X140900000Y-111962236D01*
X140350000Y-110340840D02*
X140900000Y-110340840D01*
D33*
X119164925Y-104485075D02*
X119754319Y-103895681D01*
D37*
X129258132Y-115108132D02*
X133150871Y-115108132D01*
D34*
X137854334Y-108904334D02*
X137419646Y-108469646D01*
D32*
X143340657Y-111290657D02*
X143340657Y-111962844D01*
D37*
X129250000Y-115100000D02*
X129258132Y-115108132D01*
D33*
X118812232Y-104485075D02*
X117914925Y-104485075D01*
D37*
X125298646Y-115108132D02*
X127320103Y-115108132D01*
D32*
X138809160Y-110340840D02*
X138809160Y-108904334D01*
X140900000Y-110340840D02*
X142390840Y-110340840D01*
X137090092Y-112059908D02*
X138809160Y-110340840D01*
X115738599Y-106661401D02*
X114931610Y-106661401D01*
D34*
X138809160Y-108904334D02*
X137854334Y-108904334D01*
D33*
X119754319Y-103895681D02*
X120330417Y-103895681D01*
D32*
%TO.N,+3.3V*%
X141317983Y-106710135D02*
X141317983Y-105757884D01*
X141800000Y-105266073D02*
X141800000Y-104200000D01*
D31*
X142265726Y-106497135D02*
X143847135Y-106497135D01*
X142265726Y-105731799D02*
X141800000Y-105266073D01*
D32*
X141317983Y-105757884D02*
X141313086Y-105752987D01*
D31*
X142265726Y-106497135D02*
X142265726Y-105731799D01*
D35*
X109811509Y-107958882D02*
X110600304Y-107958882D01*
X110600304Y-107958882D02*
X110622782Y-107981360D01*
D32*
X141313086Y-105752987D02*
X141800000Y-105266073D01*
D35*
X109850000Y-106673662D02*
X109850000Y-107920391D01*
D31*
X144066421Y-106716421D02*
X144066421Y-107254036D01*
X143847135Y-106497135D02*
X144066421Y-106716421D01*
D37*
%TO.N,LED_PWR*%
X126225915Y-101972873D02*
X131271031Y-101972873D01*
D32*
X141750000Y-101700000D02*
X141896959Y-101553041D01*
D37*
X145353041Y-101553041D02*
X145658563Y-101858563D01*
D32*
X137631289Y-101603669D02*
X140020411Y-101603669D01*
X132927512Y-102072488D02*
X133404486Y-101595514D01*
D37*
X145658563Y-101858563D02*
X145658563Y-106340210D01*
D32*
X133404486Y-101595514D02*
X135112862Y-101595514D01*
X135112862Y-101595514D02*
X137623134Y-101595514D01*
D31*
X124303107Y-103895681D02*
X126225915Y-101972873D01*
X122605417Y-103895681D02*
X124303107Y-103895681D01*
D32*
X141896959Y-101553041D02*
X143471405Y-101553041D01*
X131370646Y-102072488D02*
X132927512Y-102072488D01*
X145353041Y-101553041D02*
X143471405Y-101553041D01*
X141749878Y-101699878D02*
X141750000Y-101700000D01*
X140116620Y-101699878D02*
X141749878Y-101699878D01*
D33*
%TO.N,Net-(U8-NR)*%
X108368274Y-113676490D02*
X108368274Y-115818480D01*
D31*
%TO.N,TIA_PWR*%
X109980397Y-104268265D02*
X111120805Y-104268265D01*
X109980397Y-104268265D02*
X109030397Y-104268265D01*
D33*
%TO.N,TIA_BIAS*%
X105490760Y-106703204D02*
X105490760Y-108336505D01*
X105940203Y-108440203D02*
X105387062Y-108440203D01*
X105387062Y-108440203D02*
X105387062Y-110518342D01*
X107000000Y-109500000D02*
X105940203Y-108440203D01*
D34*
%TO.N,MISO*%
X125031730Y-112182843D02*
X125673591Y-112824704D01*
X124690517Y-112182843D02*
X125031730Y-112182843D01*
%TO.N,CLKO*%
X114777217Y-114931928D02*
X114732636Y-114887347D01*
X114732636Y-114887347D02*
X114732636Y-113082428D01*
%TO.N,MOSI*%
X115886668Y-110386668D02*
X115038274Y-110386668D01*
X117849387Y-112349387D02*
X115886668Y-110386668D01*
X121303378Y-112349387D02*
X117849387Y-112349387D01*
X121779195Y-112825204D02*
X121303378Y-112349387D01*
%TO.N,TX*%
X116777475Y-107661401D02*
X118214751Y-106224125D01*
X113931610Y-105731610D02*
X113931610Y-107075615D01*
X114517396Y-107661401D02*
X116777475Y-107661401D01*
X113800000Y-105600000D02*
X113931610Y-105731610D01*
X113931610Y-107075615D02*
X114517396Y-107661401D01*
%TO.N,RX*%
X112398935Y-108561401D02*
X117911401Y-108561401D01*
X117911401Y-108561401D02*
X118709387Y-109359387D01*
X118709387Y-109359387D02*
X119690613Y-109359387D01*
X121004999Y-108045001D02*
X121004999Y-106507162D01*
X119690613Y-109359387D02*
X121004999Y-108045001D01*
X111963403Y-108125869D02*
X112398935Y-108561401D01*
%TO.N,LED_DIGITAL_SIGNAL*%
X137625729Y-103645514D02*
X128775238Y-103645514D01*
X137742074Y-103529169D02*
X137625729Y-103645514D01*
X128601737Y-104510410D02*
X126792147Y-106320000D01*
X128601737Y-103819015D02*
X128601737Y-104510410D01*
X128775238Y-103645514D02*
X128601737Y-103819015D01*
X126792147Y-106320000D02*
X126760000Y-106320000D01*
%TO.N,LED_PWR_EN*%
X120953579Y-105305378D02*
X119896763Y-106362194D01*
X119588262Y-101995681D02*
X120330417Y-101995681D01*
X118999723Y-102584220D02*
X119588262Y-101995681D01*
X119896763Y-106362194D02*
X119896763Y-107660255D01*
%TO.N,LED_PWR_FAULT*%
X119300000Y-107454079D02*
X119300000Y-106050000D01*
X121291912Y-111151834D02*
X118107549Y-111151834D01*
X118107549Y-111151834D02*
X116858319Y-109902604D01*
X121500000Y-104300000D02*
X121500000Y-102716847D01*
X119300000Y-106050000D02*
X120620613Y-104729387D01*
X121070613Y-104729387D02*
X121500000Y-104300000D01*
X118599723Y-108150000D02*
X118818689Y-107931034D01*
X118823045Y-107931034D02*
X119300000Y-107454079D01*
X118818689Y-107931034D02*
X118823045Y-107931034D01*
X121500000Y-102716847D02*
X122221166Y-101995681D01*
X118400000Y-108150000D02*
X118599723Y-108150000D01*
X120620613Y-104729387D02*
X121070613Y-104729387D01*
D33*
%TO.N,Net-(U2-ILM)*%
X119650000Y-100900000D02*
X123348650Y-100900000D01*
X118626044Y-101328006D02*
X119221994Y-101328006D01*
X123784917Y-101336267D02*
X123784917Y-102615083D01*
X123784917Y-102615083D02*
X123454319Y-102945681D01*
X123454319Y-102945681D02*
X122605417Y-102945681D01*
X123348650Y-100900000D02*
X123784917Y-101336267D01*
X119221994Y-101328006D02*
X119650000Y-100900000D01*
D34*
%TO.N,LED_2_EN*%
X126700296Y-113399704D02*
X121299704Y-113399704D01*
X121299704Y-113399704D02*
X120850000Y-112950000D01*
X127600000Y-112500000D02*
X126700296Y-113399704D01*
%TO.N,LED_1_EN*%
X122801631Y-112652335D02*
X123407853Y-112652335D01*
X128900000Y-113783132D02*
X131320067Y-113783132D01*
X127704395Y-111502335D02*
X128345776Y-112143716D01*
X124557853Y-111502335D02*
X127704395Y-111502335D01*
X122400000Y-112250704D02*
X122801631Y-112652335D01*
X131320067Y-113783132D02*
X131703088Y-113400111D01*
X128345776Y-113228908D02*
X128900000Y-113783132D01*
X123407853Y-112652335D02*
X124557853Y-111502335D01*
X128345776Y-112143716D02*
X128345776Y-113228908D01*
%TO.N,SS*%
X121624296Y-111675704D02*
X121500000Y-111800000D01*
X121500000Y-111800000D02*
X117942542Y-111800000D01*
X117942542Y-111800000D02*
X115807049Y-109664507D01*
X115807049Y-109664507D02*
X113983227Y-109664507D01*
X123200000Y-112000000D02*
X122875704Y-111675704D01*
X122875704Y-111675704D02*
X121624296Y-111675704D01*
%TO.N,REF_EN*%
X115863418Y-115431235D02*
X115787725Y-115506928D01*
X114237136Y-115506928D02*
X112637636Y-113907428D01*
X111550377Y-111401490D02*
X109318274Y-111401490D01*
X112637636Y-113907428D02*
X112637636Y-112488749D01*
X115787725Y-115506928D02*
X114237136Y-115506928D01*
X112637636Y-112488749D02*
X111550377Y-111401490D01*
%TO.N,TIA_PWR_EN*%
X111300000Y-106200000D02*
X110497580Y-105397580D01*
X122124013Y-107625987D02*
X119940613Y-109809387D01*
X111300000Y-108398836D02*
X111300000Y-106200000D01*
X124147567Y-107625987D02*
X122124013Y-107625987D01*
X118409387Y-109809387D02*
X117690007Y-109090007D01*
X117690007Y-109090007D02*
X111991171Y-109090007D01*
X125340989Y-106685682D02*
X125087872Y-106685682D01*
X108402420Y-105397580D02*
X108080397Y-105719603D01*
X125087872Y-106685682D02*
X124147567Y-107625987D01*
X119940613Y-109809387D02*
X118409387Y-109809387D01*
X108080397Y-105719603D02*
X108080397Y-106107750D01*
X110497580Y-105397580D02*
X108402420Y-105397580D01*
X111991171Y-109090007D02*
X111300000Y-108398836D01*
%TO.N,SDA*%
X123400517Y-104800517D02*
X124600000Y-106000000D01*
X123300517Y-104800517D02*
X123400517Y-104800517D01*
%TO.N,SCL*%
X125815945Y-104439677D02*
X125531155Y-104154887D01*
X125815945Y-105303887D02*
X125815945Y-104439677D01*
%TO.N,NEG_VOLT_EN*%
X112761401Y-108111401D02*
X111931610Y-107281610D01*
X105500000Y-101750000D02*
X104195871Y-101750000D01*
X117239560Y-108111401D02*
X112761401Y-108111401D01*
X111931610Y-107281610D02*
X111931610Y-103850644D01*
X104195871Y-101750000D02*
X102582347Y-103363524D01*
X118479281Y-106871680D02*
X117239560Y-108111401D01*
%TO.N,WKE*%
X116056049Y-104371626D02*
X115345824Y-103661401D01*
X116300000Y-104649406D02*
X116056049Y-104371626D01*
X115345824Y-103661401D02*
X113931610Y-103661401D01*
X113931610Y-103661401D02*
X112931610Y-102661401D01*
%TD*%
%TA.AperFunction,Conductor*%
%TO.N,GND*%
G36*
X142455368Y-102229626D02*
G01*
X142462640Y-102234675D01*
X142579069Y-102321834D01*
X142579076Y-102321838D01*
X142713922Y-102372132D01*
X142713921Y-102372132D01*
X142720849Y-102372876D01*
X142773532Y-102378541D01*
X144169277Y-102378540D01*
X144228888Y-102372132D01*
X144363736Y-102321837D01*
X144397414Y-102296626D01*
X144480170Y-102234675D01*
X144545634Y-102210257D01*
X144554481Y-102209941D01*
X144684063Y-102209941D01*
X144751102Y-102229626D01*
X144796857Y-102282430D01*
X144808063Y-102333941D01*
X144808063Y-105515776D01*
X144788378Y-105582815D01*
X144783017Y-105590503D01*
X144676195Y-105731956D01*
X144581159Y-105922815D01*
X144581159Y-105922817D01*
X144522807Y-106127898D01*
X144519071Y-106168211D01*
X144493283Y-106233147D01*
X144436482Y-106273834D01*
X144366701Y-106277352D01*
X144307919Y-106244448D01*
X144251650Y-106188179D01*
X144235017Y-106167540D01*
X144232331Y-106163360D01*
X144232330Y-106163359D01*
X144232329Y-106163357D01*
X144232326Y-106163355D01*
X144192799Y-106129105D01*
X144189570Y-106126099D01*
X144178356Y-106114885D01*
X144165660Y-106105380D01*
X144162218Y-106102606D01*
X144122697Y-106068361D01*
X144122695Y-106068359D01*
X144122693Y-106068358D01*
X144118172Y-106066293D01*
X144095379Y-106052769D01*
X144091404Y-106049793D01*
X144091402Y-106049792D01*
X144042381Y-106031507D01*
X144038321Y-106029826D01*
X144022426Y-106022567D01*
X143990733Y-106008093D01*
X143990730Y-106008092D01*
X143985814Y-106007386D01*
X143960130Y-106000830D01*
X143955479Y-105999095D01*
X143903308Y-105995362D01*
X143898914Y-105994890D01*
X143883231Y-105992636D01*
X143883218Y-105992635D01*
X143883217Y-105992635D01*
X143867366Y-105992635D01*
X143862943Y-105992477D01*
X143854218Y-105991853D01*
X143810779Y-105988746D01*
X143810773Y-105988746D01*
X143807438Y-105989471D01*
X143805924Y-105989801D01*
X143779568Y-105992635D01*
X142928391Y-105992635D01*
X142861352Y-105972950D01*
X142815597Y-105920146D01*
X142805917Y-105888032D01*
X142801372Y-105859333D01*
X142801372Y-105859331D01*
X142801371Y-105859329D01*
X142801371Y-105859328D01*
X142801370Y-105859327D01*
X142787412Y-105831933D01*
X142776263Y-105776896D01*
X142774748Y-105777005D01*
X142770384Y-105715992D01*
X142770226Y-105711568D01*
X142770226Y-105695719D01*
X142770226Y-105695716D01*
X142767965Y-105679994D01*
X142767498Y-105675644D01*
X142763766Y-105623457D01*
X142762031Y-105618807D01*
X142755475Y-105593116D01*
X142754769Y-105588206D01*
X142754768Y-105588203D01*
X142733024Y-105540591D01*
X142731357Y-105536565D01*
X142713069Y-105487532D01*
X142710090Y-105483553D01*
X142696565Y-105460757D01*
X142694503Y-105456241D01*
X142660247Y-105416708D01*
X142657476Y-105413269D01*
X142647977Y-105400580D01*
X142647976Y-105400578D01*
X142636759Y-105389361D01*
X142633755Y-105386134D01*
X142628691Y-105380290D01*
X142599501Y-105346603D01*
X142595319Y-105343915D01*
X142574681Y-105327283D01*
X142493219Y-105245821D01*
X142459734Y-105184498D01*
X142456900Y-105158140D01*
X142456900Y-104466058D01*
X142464958Y-104422088D01*
X142485140Y-104368872D01*
X142505645Y-104200000D01*
X142485140Y-104031128D01*
X142424818Y-103872070D01*
X142328183Y-103732071D01*
X142200852Y-103619266D01*
X142200849Y-103619263D01*
X142050226Y-103540210D01*
X141885056Y-103499500D01*
X141714944Y-103499500D01*
X141549773Y-103540210D01*
X141399150Y-103619263D01*
X141271816Y-103732072D01*
X141175182Y-103872068D01*
X141114860Y-104031125D01*
X141114859Y-104031130D01*
X141094355Y-104200000D01*
X141114859Y-104368870D01*
X141114861Y-104368878D01*
X141135041Y-104422088D01*
X141143099Y-104466058D01*
X141143100Y-104942612D01*
X141123416Y-105009651D01*
X141106781Y-105030293D01*
X141036256Y-105100818D01*
X141006201Y-105122933D01*
X140912234Y-105172253D01*
X140870189Y-105209502D01*
X140784902Y-105285059D01*
X140688268Y-105425055D01*
X140688268Y-105425056D01*
X140658289Y-105504106D01*
X140616111Y-105559809D01*
X140550514Y-105583866D01*
X140542347Y-105584135D01*
X140184208Y-105584135D01*
X140105033Y-105596675D01*
X140090422Y-105598989D01*
X139977384Y-105656585D01*
X139977382Y-105656585D01*
X139977383Y-105656586D01*
X139977378Y-105656589D01*
X139887680Y-105746287D01*
X139887677Y-105746292D01*
X139887676Y-105746293D01*
X139878735Y-105763841D01*
X139830078Y-105859333D01*
X139815226Y-105953110D01*
X139815226Y-107041152D01*
X139824817Y-107101705D01*
X139830080Y-107134939D01*
X139887676Y-107247977D01*
X139887678Y-107247979D01*
X139887680Y-107247982D01*
X139977378Y-107337680D01*
X139977380Y-107337681D01*
X139977384Y-107337685D01*
X140090420Y-107395280D01*
X140090424Y-107395282D01*
X140184201Y-107410134D01*
X140184207Y-107410135D01*
X140547244Y-107410134D01*
X140641030Y-107395281D01*
X140754068Y-107337685D01*
X140776378Y-107315374D01*
X140837699Y-107281890D01*
X140907391Y-107286873D01*
X140921685Y-107293260D01*
X141006330Y-107337685D01*
X141067758Y-107369925D01*
X141232927Y-107410635D01*
X141403039Y-107410635D01*
X141568208Y-107369925D01*
X141629645Y-107337680D01*
X141711320Y-107294814D01*
X141779828Y-107281088D01*
X141844882Y-107306580D01*
X141856627Y-107316929D01*
X141877378Y-107337680D01*
X141877380Y-107337681D01*
X141877384Y-107337685D01*
X141990420Y-107395280D01*
X141990424Y-107395282D01*
X142084201Y-107410134D01*
X142084207Y-107410135D01*
X142447244Y-107410134D01*
X142541030Y-107395281D01*
X142654068Y-107337685D01*
X142743776Y-107247977D01*
X142801372Y-107134939D01*
X142801372Y-107134937D01*
X142801373Y-107134936D01*
X142805919Y-107106236D01*
X142835849Y-107043101D01*
X142895161Y-107006171D01*
X142928392Y-107001635D01*
X143216921Y-107001635D01*
X143283960Y-107021320D01*
X143329715Y-107074124D01*
X143340921Y-107125635D01*
X143340921Y-107524517D01*
X143340922Y-107524526D01*
X143347008Y-107581150D01*
X143380388Y-107670642D01*
X143394793Y-107709262D01*
X143476734Y-107818723D01*
X143586195Y-107900664D01*
X143714307Y-107948448D01*
X143770936Y-107954536D01*
X144361905Y-107954535D01*
X144370804Y-107953578D01*
X144439562Y-107965980D01*
X144490702Y-108013588D01*
X144508063Y-108076867D01*
X144508063Y-109486537D01*
X144488378Y-109553576D01*
X144435574Y-109599331D01*
X144381682Y-109610514D01*
X142913496Y-109582319D01*
X142846847Y-109561351D01*
X142802114Y-109507678D01*
X142793501Y-109438342D01*
X142799638Y-109419634D01*
X142798357Y-109419218D01*
X142801373Y-109409936D01*
X142816225Y-109316159D01*
X142816225Y-109316158D01*
X142816226Y-109316154D01*
X142816225Y-108228117D01*
X142801372Y-108134331D01*
X142743776Y-108021293D01*
X142743772Y-108021289D01*
X142743771Y-108021287D01*
X142654073Y-107931589D01*
X142654070Y-107931587D01*
X142654068Y-107931585D01*
X142577243Y-107892440D01*
X142541027Y-107873987D01*
X142447250Y-107859135D01*
X142084208Y-107859135D01*
X142003245Y-107871958D01*
X141990422Y-107873989D01*
X141877384Y-107931585D01*
X141877382Y-107931586D01*
X141877383Y-107931586D01*
X141877378Y-107931589D01*
X141787680Y-108021287D01*
X141787677Y-108021292D01*
X141730078Y-108134333D01*
X141715226Y-108228110D01*
X141715226Y-109316152D01*
X141730697Y-109413833D01*
X141721741Y-109483127D01*
X141676744Y-109536578D01*
X141609992Y-109557217D01*
X141605842Y-109557207D01*
X141022621Y-109546007D01*
X140955972Y-109525039D01*
X140911239Y-109471366D01*
X140902529Y-109402631D01*
X140902675Y-109401713D01*
X140916226Y-109316154D01*
X140916225Y-108228117D01*
X140901372Y-108134331D01*
X140843776Y-108021293D01*
X140843772Y-108021289D01*
X140843771Y-108021287D01*
X140754073Y-107931589D01*
X140754070Y-107931587D01*
X140754068Y-107931585D01*
X140677243Y-107892440D01*
X140641027Y-107873987D01*
X140547250Y-107859135D01*
X140184208Y-107859135D01*
X140103245Y-107871958D01*
X140090422Y-107873989D01*
X139977384Y-107931585D01*
X139977382Y-107931586D01*
X139977383Y-107931586D01*
X139977378Y-107931589D01*
X139887680Y-108021287D01*
X139887677Y-108021292D01*
X139830078Y-108134333D01*
X139815226Y-108228110D01*
X139815226Y-109316154D01*
X139824900Y-109377236D01*
X139815943Y-109446529D01*
X139770946Y-109499980D01*
X139704194Y-109520618D01*
X139700045Y-109520608D01*
X139597657Y-109518642D01*
X139531008Y-109497674D01*
X139486276Y-109444002D01*
X139477662Y-109374665D01*
X139483857Y-109351331D01*
X139496976Y-109316158D01*
X139528572Y-109231448D01*
X139533676Y-109183973D01*
X139534659Y-109174835D01*
X139534659Y-109174828D01*
X139534660Y-109174819D01*
X139534659Y-108633850D01*
X139528572Y-108577220D01*
X139480788Y-108449108D01*
X139398847Y-108339647D01*
X139303740Y-108268451D01*
X139289388Y-108257707D01*
X139289386Y-108257706D01*
X139161274Y-108209922D01*
X139161272Y-108209921D01*
X139161270Y-108209921D01*
X139104653Y-108203834D01*
X138513678Y-108203834D01*
X138513669Y-108203835D01*
X138457045Y-108209921D01*
X138328933Y-108257706D01*
X138288460Y-108288004D01*
X138245019Y-108320524D01*
X138219472Y-108339648D01*
X138163636Y-108414235D01*
X138107702Y-108456105D01*
X138038010Y-108461089D01*
X137976688Y-108427603D01*
X137943203Y-108366280D01*
X137941897Y-108320527D01*
X137950146Y-108268447D01*
X137950145Y-107866978D01*
X137950145Y-107866976D01*
X137950145Y-107866972D01*
X137935664Y-107775541D01*
X137935664Y-107775540D01*
X137935663Y-107775538D01*
X137935663Y-107775537D01*
X137879505Y-107665321D01*
X137879503Y-107665319D01*
X137879500Y-107665315D01*
X137792042Y-107577857D01*
X137792039Y-107577855D01*
X137792037Y-107577853D01*
X137681821Y-107521695D01*
X137681820Y-107521694D01*
X137681817Y-107521693D01*
X137590381Y-107507212D01*
X137248906Y-107507212D01*
X137248906Y-107507213D01*
X137157475Y-107521693D01*
X137157474Y-107521693D01*
X137047253Y-107577854D01*
X137047249Y-107577857D01*
X136959791Y-107665315D01*
X136959789Y-107665319D01*
X136959787Y-107665321D01*
X136941067Y-107702059D01*
X136903627Y-107775539D01*
X136903627Y-107775540D01*
X136889146Y-107866976D01*
X136889146Y-108268451D01*
X136903627Y-108359882D01*
X136903627Y-108359883D01*
X136903628Y-108359886D01*
X136903629Y-108359887D01*
X136959787Y-108470103D01*
X137027085Y-108537401D01*
X137056683Y-108584814D01*
X137059581Y-108593257D01*
X137085701Y-108641523D01*
X137109820Y-108690857D01*
X137114388Y-108697255D01*
X137119228Y-108703473D01*
X137159617Y-108740655D01*
X137552183Y-109133220D01*
X137568312Y-109153081D01*
X137574250Y-109162170D01*
X137602263Y-109183973D01*
X137608025Y-109189062D01*
X137610817Y-109191854D01*
X137629820Y-109205422D01*
X137673145Y-109239143D01*
X137673147Y-109239143D01*
X137680063Y-109242886D01*
X137685314Y-109245454D01*
X137689372Y-109249162D01*
X137695468Y-109252293D01*
X137695591Y-109252381D01*
X137694524Y-109253871D01*
X137736892Y-109292587D01*
X137754800Y-109360123D01*
X137733352Y-109426619D01*
X137679359Y-109470964D01*
X137628462Y-109480826D01*
X133508854Y-109401713D01*
X131760261Y-112831927D01*
X131712277Y-112882714D01*
X131649787Y-112899611D01*
X131631124Y-112899611D01*
X131493037Y-112940156D01*
X131371961Y-113017967D01*
X131277711Y-113126737D01*
X131277710Y-113126739D01*
X131217923Y-113257652D01*
X131217922Y-113257657D01*
X131211650Y-113301280D01*
X131182624Y-113364836D01*
X131123846Y-113402609D01*
X131088912Y-113407632D01*
X129106899Y-113407632D01*
X129039860Y-113387947D01*
X129019218Y-113371313D01*
X128757595Y-113109689D01*
X128724110Y-113048366D01*
X128721276Y-113022008D01*
X128721276Y-112195519D01*
X128723915Y-112170074D01*
X128723953Y-112169891D01*
X128726143Y-112159448D01*
X128724101Y-112143069D01*
X128721753Y-112124223D01*
X128721276Y-112116547D01*
X128721276Y-112112605D01*
X128721274Y-112112592D01*
X128717433Y-112089575D01*
X128710642Y-112035092D01*
X128710642Y-112035090D01*
X128710640Y-112035086D01*
X128708398Y-112027556D01*
X128705841Y-112020108D01*
X128705841Y-112020106D01*
X128679720Y-111971838D01*
X128655602Y-111922505D01*
X128655600Y-111922503D01*
X128655600Y-111922502D01*
X128651052Y-111916132D01*
X128646196Y-111909892D01*
X128646195Y-111909890D01*
X128636366Y-111900842D01*
X128605806Y-111872709D01*
X128006544Y-111273446D01*
X127990417Y-111253587D01*
X127984481Y-111244502D01*
X127984478Y-111244498D01*
X127956469Y-111222698D01*
X127950705Y-111217607D01*
X127947910Y-111214812D01*
X127928900Y-111201241D01*
X127885584Y-111167525D01*
X127878669Y-111163783D01*
X127871595Y-111160325D01*
X127818991Y-111144664D01*
X127767053Y-111126834D01*
X127759318Y-111125543D01*
X127751480Y-111124566D01*
X127696639Y-111126835D01*
X126363575Y-111126835D01*
X126296536Y-111107150D01*
X126250781Y-111054346D01*
X126240837Y-110985188D01*
X126269862Y-110921632D01*
X126328640Y-110883858D01*
X126328641Y-110883858D01*
X126410050Y-110859954D01*
X126410050Y-110859953D01*
X126410053Y-110859953D01*
X126531128Y-110782143D01*
X126625377Y-110673373D01*
X126685165Y-110542457D01*
X126705647Y-110400000D01*
X126685165Y-110257543D01*
X126625377Y-110126627D01*
X126531128Y-110017857D01*
X126410053Y-109940047D01*
X126410051Y-109940046D01*
X126410049Y-109940045D01*
X126410050Y-109940045D01*
X126271963Y-109899500D01*
X126271961Y-109899500D01*
X126128039Y-109899500D01*
X126128036Y-109899500D01*
X125989949Y-109940045D01*
X125868873Y-110017856D01*
X125774623Y-110126626D01*
X125774622Y-110126628D01*
X125714834Y-110257543D01*
X125694353Y-110400000D01*
X125714834Y-110542456D01*
X125737055Y-110591112D01*
X125774623Y-110673373D01*
X125868872Y-110782143D01*
X125989947Y-110859953D01*
X125989950Y-110859954D01*
X125989949Y-110859954D01*
X126071359Y-110883858D01*
X126130138Y-110921632D01*
X126159163Y-110985187D01*
X126149220Y-111054346D01*
X126103465Y-111107150D01*
X126036426Y-111126835D01*
X125366597Y-111126835D01*
X125299558Y-111107150D01*
X125288807Y-111099400D01*
X124366353Y-110356296D01*
X124326495Y-110298910D01*
X124320161Y-110257616D01*
X124356190Y-108145547D01*
X134763051Y-108145547D01*
X134783532Y-108288003D01*
X134807118Y-108339648D01*
X134843321Y-108418920D01*
X134937570Y-108527690D01*
X135058645Y-108605500D01*
X135058648Y-108605501D01*
X135058647Y-108605501D01*
X135155197Y-108633850D01*
X135181329Y-108641523D01*
X135196734Y-108646046D01*
X135196736Y-108646047D01*
X135196737Y-108646047D01*
X135340660Y-108646047D01*
X135340660Y-108646046D01*
X135478751Y-108605500D01*
X135599826Y-108527690D01*
X135694075Y-108418920D01*
X135753863Y-108288004D01*
X135774345Y-108145547D01*
X135753863Y-108003090D01*
X135694075Y-107872174D01*
X135599826Y-107763404D01*
X135478751Y-107685594D01*
X135478749Y-107685593D01*
X135478747Y-107685592D01*
X135478748Y-107685592D01*
X135340661Y-107645047D01*
X135340659Y-107645047D01*
X135196737Y-107645047D01*
X135196734Y-107645047D01*
X135058647Y-107685592D01*
X134937571Y-107763403D01*
X134843321Y-107872173D01*
X134843320Y-107872175D01*
X134783532Y-108003090D01*
X134763051Y-108145547D01*
X124356190Y-108145547D01*
X124358718Y-107997322D01*
X124379543Y-107930632D01*
X124391462Y-107915466D01*
X124418575Y-107886015D01*
X125100573Y-107204016D01*
X125161894Y-107170533D01*
X125223188Y-107172722D01*
X125269027Y-107186182D01*
X125269028Y-107186182D01*
X125412951Y-107186182D01*
X125412951Y-107186181D01*
X125529385Y-107151994D01*
X125551039Y-107145636D01*
X125551039Y-107145635D01*
X125551042Y-107145635D01*
X125672117Y-107067825D01*
X125693803Y-107042797D01*
X125752579Y-107005024D01*
X125787516Y-107000000D01*
X127500000Y-107000000D01*
X127500000Y-106776486D01*
X130985136Y-106776486D01*
X130986753Y-106787731D01*
X131005617Y-106918942D01*
X131062182Y-107042799D01*
X131065406Y-107049859D01*
X131159655Y-107158629D01*
X131280730Y-107236439D01*
X131280733Y-107236440D01*
X131280732Y-107236440D01*
X131418819Y-107276985D01*
X131418821Y-107276986D01*
X131418822Y-107276986D01*
X131562745Y-107276986D01*
X131562745Y-107276985D01*
X131700836Y-107236439D01*
X131821911Y-107158629D01*
X131916160Y-107049859D01*
X131975948Y-106918943D01*
X131996430Y-106776486D01*
X131996430Y-106776485D01*
X131996430Y-106767617D01*
X131997765Y-106767617D01*
X132006401Y-106707535D01*
X132031511Y-106671368D01*
X132221974Y-106480904D01*
X132283297Y-106447422D01*
X132309654Y-106444588D01*
X133115537Y-106444588D01*
X133182576Y-106464273D01*
X133203218Y-106480907D01*
X133368055Y-106645744D01*
X133401540Y-106707067D01*
X133403112Y-106715777D01*
X133413457Y-106787729D01*
X133413458Y-106787733D01*
X133431911Y-106828139D01*
X133473246Y-106918648D01*
X133567495Y-107027418D01*
X133688570Y-107105228D01*
X133688573Y-107105229D01*
X133688572Y-107105229D01*
X133795730Y-107136692D01*
X133826185Y-107145635D01*
X133826659Y-107145774D01*
X133826661Y-107145775D01*
X133826662Y-107145775D01*
X133970585Y-107145775D01*
X133970585Y-107145774D01*
X134108676Y-107105228D01*
X134229751Y-107027418D01*
X134324000Y-106918648D01*
X134383788Y-106787732D01*
X134404270Y-106645275D01*
X134383788Y-106502818D01*
X134324000Y-106371902D01*
X134229751Y-106263132D01*
X134108676Y-106185322D01*
X134108674Y-106185321D01*
X134108672Y-106185320D01*
X134108673Y-106185320D01*
X133970581Y-106144773D01*
X133963052Y-106143691D01*
X133899497Y-106114665D01*
X133893021Y-106108635D01*
X133624585Y-105840199D01*
X133608458Y-105820340D01*
X133602522Y-105811255D01*
X133602519Y-105811251D01*
X133574510Y-105789451D01*
X133568746Y-105784360D01*
X133565951Y-105781565D01*
X133547884Y-105768667D01*
X133546940Y-105767993D01*
X133535719Y-105759259D01*
X133503625Y-105734278D01*
X133496710Y-105730536D01*
X133489636Y-105727078D01*
X133437032Y-105711417D01*
X133385094Y-105693587D01*
X133377359Y-105692296D01*
X133369521Y-105691319D01*
X133314680Y-105693588D01*
X132154559Y-105693588D01*
X132129114Y-105690949D01*
X132118488Y-105688721D01*
X132118485Y-105688721D01*
X132083263Y-105693111D01*
X132075587Y-105693588D01*
X132071641Y-105693588D01*
X132054370Y-105696469D01*
X132048613Y-105697430D01*
X131994125Y-105704222D01*
X131986612Y-105706459D01*
X131979142Y-105709024D01*
X131930877Y-105735143D01*
X131881547Y-105759259D01*
X131875130Y-105763841D01*
X131868930Y-105768667D01*
X131831747Y-105809058D01*
X131364750Y-106276053D01*
X131312008Y-106307348D01*
X131280732Y-106316532D01*
X131280728Y-106316534D01*
X131159656Y-106394342D01*
X131065406Y-106503112D01*
X131065405Y-106503114D01*
X131005617Y-106634029D01*
X130986411Y-106767617D01*
X130985136Y-106776486D01*
X127500000Y-106776486D01*
X127500000Y-106194544D01*
X127519685Y-106127505D01*
X127536314Y-106106868D01*
X128830626Y-104812556D01*
X128850483Y-104796432D01*
X128859573Y-104790494D01*
X128881388Y-104762464D01*
X128886456Y-104756726D01*
X128889257Y-104753927D01*
X128902825Y-104734923D01*
X128936546Y-104691599D01*
X128936547Y-104691593D01*
X128940279Y-104684699D01*
X128943740Y-104677617D01*
X128943747Y-104677609D01*
X128959407Y-104625006D01*
X128977237Y-104573070D01*
X128977237Y-104573065D01*
X128978527Y-104565334D01*
X128979505Y-104557495D01*
X128977237Y-104502654D01*
X128977237Y-104145014D01*
X128996922Y-104077975D01*
X129049726Y-104032220D01*
X129101237Y-104021014D01*
X137573923Y-104021014D01*
X137599371Y-104023653D01*
X137600705Y-104023932D01*
X137609997Y-104025881D01*
X137617576Y-104024936D01*
X137661321Y-104028477D01*
X137661332Y-104028407D01*
X137662475Y-104028571D01*
X137667856Y-104029007D01*
X137670110Y-104029668D01*
X137670111Y-104029669D01*
X137670113Y-104029669D01*
X137814036Y-104029669D01*
X137814036Y-104029668D01*
X137952127Y-103989122D01*
X138073202Y-103911312D01*
X138167451Y-103802542D01*
X138227239Y-103671626D01*
X138247721Y-103529169D01*
X138233351Y-103429223D01*
X138243295Y-103360067D01*
X138289049Y-103307263D01*
X138321153Y-103292601D01*
X138399705Y-103269537D01*
X138432949Y-103259776D01*
X138432949Y-103259775D01*
X138432952Y-103259775D01*
X138554027Y-103181965D01*
X138648276Y-103073195D01*
X138708064Y-102942279D01*
X138728546Y-102799822D01*
X138708064Y-102657365D01*
X138648276Y-102526449D01*
X138648274Y-102526447D01*
X138648273Y-102526444D01*
X138605516Y-102477100D01*
X138576491Y-102413544D01*
X138586435Y-102344386D01*
X138624923Y-102296629D01*
X138635622Y-102288619D01*
X138640062Y-102285297D01*
X138705528Y-102260884D01*
X138714365Y-102260569D01*
X138955784Y-102260569D01*
X139022823Y-102280254D01*
X139055049Y-102310256D01*
X139109074Y-102382424D01*
X139150645Y-102413544D01*
X139224284Y-102468671D01*
X139224291Y-102468675D01*
X139359137Y-102518969D01*
X139359136Y-102518969D01*
X139366064Y-102519713D01*
X139418747Y-102525378D01*
X140814492Y-102525377D01*
X140874103Y-102518969D01*
X141008951Y-102468674D01*
X141061724Y-102429168D01*
X141125385Y-102381512D01*
X141190849Y-102357094D01*
X141199696Y-102356778D01*
X141663239Y-102356778D01*
X141679902Y-102358618D01*
X141679918Y-102358449D01*
X141687681Y-102359182D01*
X141687684Y-102359181D01*
X141687689Y-102359183D01*
X141696858Y-102358894D01*
X141720156Y-102360360D01*
X141729203Y-102361794D01*
X141779358Y-102357052D01*
X141785195Y-102356778D01*
X141791201Y-102356778D01*
X141791206Y-102356778D01*
X141797246Y-102356014D01*
X141803069Y-102355556D01*
X141853578Y-102353969D01*
X141862382Y-102351410D01*
X141885300Y-102347038D01*
X141894437Y-102346175D01*
X141894439Y-102346174D01*
X141902055Y-102344472D01*
X141902091Y-102344633D01*
X141907060Y-102343440D01*
X141906983Y-102343137D01*
X141914535Y-102341197D01*
X141914541Y-102341197D01*
X141958690Y-102323716D01*
X141964212Y-102321827D01*
X141976943Y-102318128D01*
X142012960Y-102307665D01*
X142020850Y-102302998D01*
X142041973Y-102293057D01*
X142050596Y-102289954D01*
X142050604Y-102289948D01*
X142057547Y-102286412D01*
X142057616Y-102286548D01*
X142062176Y-102284134D01*
X142062023Y-102283856D01*
X142068851Y-102280102D01*
X142068852Y-102280100D01*
X142068857Y-102280099D01*
X142107139Y-102252284D01*
X142112004Y-102249088D01*
X142149004Y-102227207D01*
X142212123Y-102209941D01*
X142388329Y-102209941D01*
X142455368Y-102229626D01*
G37*
%TD.AperFunction*%
%TA.AperFunction,Conductor*%
G36*
X134096825Y-102272099D02*
G01*
X134104097Y-102277148D01*
X134220526Y-102364307D01*
X134220533Y-102364311D01*
X134355379Y-102414605D01*
X134355378Y-102414605D01*
X134362306Y-102415349D01*
X134414989Y-102421014D01*
X135810734Y-102421013D01*
X135870345Y-102414605D01*
X136005193Y-102364310D01*
X136033072Y-102343440D01*
X136121627Y-102277148D01*
X136187091Y-102252730D01*
X136195938Y-102252414D01*
X136538579Y-102252414D01*
X136605618Y-102272099D01*
X136616604Y-102280951D01*
X136616643Y-102280900D01*
X136623743Y-102286215D01*
X136738958Y-102372465D01*
X136738959Y-102372465D01*
X136738960Y-102372466D01*
X136873806Y-102422760D01*
X136873805Y-102422760D01*
X136880733Y-102423504D01*
X136933416Y-102429169D01*
X137649000Y-102429168D01*
X137716039Y-102448852D01*
X137761794Y-102501656D01*
X137771738Y-102570815D01*
X137761795Y-102604679D01*
X137737733Y-102657366D01*
X137717252Y-102799822D01*
X137731621Y-102899766D01*
X137721677Y-102968924D01*
X137675922Y-103021728D01*
X137643818Y-103036389D01*
X137532023Y-103069214D01*
X137410947Y-103147025D01*
X137410946Y-103147025D01*
X137410946Y-103147026D01*
X137380672Y-103181965D01*
X137341461Y-103227217D01*
X137282683Y-103264991D01*
X137247748Y-103270014D01*
X132955489Y-103270014D01*
X132888450Y-103250329D01*
X132842695Y-103197525D01*
X132832751Y-103128367D01*
X132839307Y-103102681D01*
X132844768Y-103088038D01*
X132889737Y-102967471D01*
X132896146Y-102907861D01*
X132896145Y-102850861D01*
X132915828Y-102783824D01*
X132968632Y-102738068D01*
X133016251Y-102726923D01*
X133031090Y-102726457D01*
X133051773Y-102720447D01*
X133070811Y-102716505D01*
X133092175Y-102713807D01*
X133137817Y-102695735D01*
X133143316Y-102693852D01*
X133190472Y-102680153D01*
X133209012Y-102669187D01*
X133226470Y-102660635D01*
X133246491Y-102652709D01*
X133286204Y-102623853D01*
X133291058Y-102620664D01*
X133333330Y-102595666D01*
X133348548Y-102580447D01*
X133363349Y-102567806D01*
X133367006Y-102565149D01*
X133380765Y-102555153D01*
X133412058Y-102517324D01*
X133415971Y-102513023D01*
X133595055Y-102333941D01*
X133640265Y-102288732D01*
X133701589Y-102255248D01*
X133727946Y-102252414D01*
X134029786Y-102252414D01*
X134096825Y-102272099D01*
G37*
%TD.AperFunction*%
%TD*%
M02*
