%TF.GenerationSoftware,KiCad,Pcbnew,7.0.6*%
%TF.CreationDate,2024-01-08T15:45:07+11:00*%
%TF.ProjectId,turbidity_sensor_v2,74757262-6964-4697-9479-5f73656e736f,0.1.0*%
%TF.SameCoordinates,Original*%
%TF.FileFunction,Copper,L2,Inr*%
%TF.FilePolarity,Positive*%
%FSLAX46Y46*%
G04 Gerber Fmt 4.6, Leading zero omitted, Abs format (unit mm)*
G04 Created by KiCad (PCBNEW 7.0.6) date 2024-01-08 15:45:07*
%MOMM*%
%LPD*%
G01*
G04 APERTURE LIST*
%TA.AperFunction,ComponentPad*%
%ADD10R,1.000000X1.000000*%
%TD*%
%TA.AperFunction,ComponentPad*%
%ADD11O,1.000000X1.000000*%
%TD*%
%TA.AperFunction,ComponentPad*%
%ADD12R,1.800000X1.800000*%
%TD*%
%TA.AperFunction,ComponentPad*%
%ADD13C,1.800000*%
%TD*%
%TA.AperFunction,ComponentPad*%
%ADD14R,1.700000X1.700000*%
%TD*%
%TA.AperFunction,ComponentPad*%
%ADD15O,1.700000X1.700000*%
%TD*%
%TA.AperFunction,ViaPad*%
%ADD16C,0.500000*%
%TD*%
%TA.AperFunction,ViaPad*%
%ADD17C,0.900000*%
%TD*%
%TA.AperFunction,Conductor*%
%ADD18C,0.250000*%
%TD*%
%TA.AperFunction,Conductor*%
%ADD19C,0.508000*%
%TD*%
%TA.AperFunction,Conductor*%
%ADD20C,1.200000*%
%TD*%
%TA.AperFunction,Conductor*%
%ADD21C,2.000000*%
%TD*%
G04 APERTURE END LIST*
D10*
%TO.N,MISO*%
%TO.C,J1*%
X113462636Y-113082428D03*
D11*
%TO.N,+3.3V*%
X113462636Y-111812428D03*
%TO.N,CLKO*%
X114732636Y-113082428D03*
%TO.N,MOSI*%
X114732636Y-111812428D03*
%TO.N,RST*%
X116002636Y-113082428D03*
%TO.N,GND*%
X116002636Y-111812428D03*
%TD*%
D12*
%TO.N,Net-(D3-K)*%
%TO.C,D3*%
X145658563Y-108880210D03*
D13*
%TO.N,LED_PWR*%
X145658563Y-106340210D03*
%TD*%
D12*
%TO.N,Net-(D2-K)*%
%TO.C,D2*%
X101251799Y-115329787D03*
D13*
%TO.N,Net-(D2-A)*%
X101251799Y-112789787D03*
%TD*%
D14*
%TO.N,WRE*%
%TO.C,J2*%
X112931610Y-102661401D03*
D15*
%TO.N,GND*%
X115471610Y-102661401D03*
%TO.N,TX*%
X112931610Y-105201401D03*
%TO.N,RST*%
X115471610Y-105201401D03*
%TO.N,RX*%
X112931610Y-107741401D03*
%TO.N,+BATT*%
X115471610Y-107741401D03*
%TD*%
D12*
%TO.N,Net-(D1-K)*%
%TO.C,D1*%
X145658563Y-115439646D03*
D13*
%TO.N,LED_PWR*%
X145658563Y-112899646D03*
%TD*%
D16*
%TO.N,GND*%
X134141348Y-106893000D03*
X128673412Y-106290729D03*
X142130632Y-105323581D03*
X139818031Y-106209139D03*
X137160000Y-115617975D03*
X139754562Y-114065459D03*
X137994441Y-114021819D03*
X138016261Y-114712776D03*
X139858240Y-105398174D03*
X110656733Y-110271178D03*
X142193329Y-106935944D03*
X106299328Y-107730322D03*
X135248282Y-102650885D03*
X138889048Y-114880060D03*
X118324615Y-106099530D03*
X135054361Y-107029427D03*
X129228296Y-108392283D03*
X100720810Y-102502848D03*
X138752266Y-102963416D03*
X135033372Y-106168887D03*
X111622025Y-107124103D03*
X108082266Y-114252181D03*
X140602223Y-106210587D03*
X107849827Y-114896537D03*
X134204315Y-106137404D03*
X129825447Y-106316033D03*
X138396322Y-105325442D03*
X131414790Y-105994489D03*
X110744556Y-109456017D03*
X141066849Y-104194629D03*
X136984873Y-114129458D03*
X130329681Y-105709526D03*
X106529497Y-115456382D03*
X104538579Y-106282458D03*
X138772677Y-115618861D03*
X109545372Y-116110397D03*
X141782523Y-106443051D03*
X124425417Y-101601571D03*
X141952314Y-104265466D03*
X128272853Y-107115297D03*
D17*
X128354162Y-108215816D03*
D16*
X122650000Y-109150000D03*
X139749142Y-115618861D03*
X137959928Y-115547344D03*
X140016098Y-104265466D03*
X139087278Y-106103677D03*
X140531948Y-106980937D03*
X138410868Y-106140044D03*
X132590719Y-105930181D03*
X139761836Y-114887333D03*
X112118931Y-109646712D03*
X141374377Y-105438433D03*
X105645577Y-116521225D03*
X142727189Y-105684290D03*
X105641402Y-115411494D03*
X108916400Y-107995975D03*
X108452142Y-103179000D03*
X135007136Y-105491998D03*
X139828941Y-106972828D03*
D17*
X137607304Y-111938414D03*
D16*
X138988959Y-104241853D03*
X137139906Y-114807328D03*
D17*
X129358171Y-107180129D03*
D16*
X107454046Y-103377931D03*
X106171792Y-117090724D03*
X141495805Y-106970241D03*
D17*
X132423771Y-106844088D03*
X100939600Y-110083600D03*
D16*
X140613922Y-105391635D03*
D17*
X130813929Y-106781430D03*
D16*
X119211517Y-103270574D03*
X123850000Y-109150000D03*
X129221903Y-105730709D03*
X138896322Y-114036366D03*
X139087278Y-105354535D03*
%TO.N,+3.3VADC*%
X104103195Y-109645969D03*
X106692387Y-112534207D03*
X106766734Y-101594988D03*
X108471111Y-112969845D03*
%TO.N,+BATT*%
X130447926Y-113869119D03*
X126264533Y-114565232D03*
X131249015Y-114538523D03*
X126281865Y-113880440D03*
X130478704Y-114576994D03*
X122270311Y-114642175D03*
X128385855Y-114569300D03*
X128401244Y-113899896D03*
X131225933Y-113876813D03*
%TO.N,+3.3V*%
X110479371Y-105510766D03*
X117618875Y-102746247D03*
X118152539Y-115554170D03*
X126425000Y-110613977D03*
X116844508Y-114123031D03*
D17*
X134447142Y-110852979D03*
D16*
X121393923Y-101540000D03*
X119652926Y-115708056D03*
X107603002Y-105327851D03*
X109213760Y-117039396D03*
X137783655Y-103512762D03*
X118229482Y-114830906D03*
X127315105Y-103568824D03*
X115990621Y-114428238D03*
X118960440Y-115369507D03*
X117390803Y-114677020D03*
X116644457Y-115069429D03*
X118959986Y-108973160D03*
X117289040Y-115548185D03*
%TO.N,TIA_PWR*%
X110833803Y-104484332D03*
%TO.N,Net-(D2-K)*%
X105889990Y-111983678D03*
%TO.N,TIA_BIAS*%
X105855976Y-109221541D03*
%TO.N,MISO*%
X124755241Y-111405331D03*
X127181979Y-112151458D03*
%TO.N,CLKO*%
X125146396Y-112972248D03*
%TO.N,Net-(U6-SCLK)*%
X112611260Y-113865399D03*
%TO.N,MOSI*%
X113661382Y-110825000D03*
X124289107Y-111929591D03*
%TO.N,RST*%
X113600000Y-116044431D03*
X112205589Y-110658844D03*
X121059339Y-104969499D03*
%TO.N,LED_DIGITAL_SIGNAL*%
X126760000Y-106320000D03*
X133851631Y-104858502D03*
%TO.N,LED_PWR_EN*%
X118858745Y-102408315D03*
X120052844Y-107771289D03*
X120749079Y-105598650D03*
%TO.N,LED_PWR_FAULT*%
X123614560Y-104882713D03*
X121291912Y-111033174D03*
%TO.N,LED_2_EN*%
X121672165Y-111727701D03*
X129808544Y-110781973D03*
%TO.N,LED_1_EN*%
X128733162Y-112079830D03*
X125072492Y-112029315D03*
%TO.N,Net-(U6-CONVST)*%
X111458000Y-115385280D03*
%TO.N,SS*%
X123590724Y-111977185D03*
%TO.N,REF_EN*%
X114779193Y-115954703D03*
%TO.N,TIA_PWR_EN*%
X107776390Y-101440500D03*
X124216496Y-105429514D03*
X107430723Y-106017362D03*
X125197873Y-106710879D03*
%TO.N,SDA*%
X126033609Y-106157532D03*
X124769115Y-104458902D03*
%TO.N,SCL*%
X125551656Y-103776487D03*
X126519758Y-105654577D03*
%TO.N,NEG_VOLT_EN*%
X121225710Y-107196289D03*
X118975000Y-107227063D03*
%TO.N,Net-(U8-VREF)*%
X106235096Y-105936811D03*
X106171437Y-108581016D03*
%TO.N,REF_BUFFER_EN*%
X127908456Y-111251588D03*
X106083992Y-101440500D03*
X122835335Y-111919399D03*
X101363896Y-103788467D03*
%TD*%
D18*
%TO.N,+3.3VADC*%
X105410000Y-108339164D02*
X105410000Y-102951722D01*
D19*
X106692387Y-112534207D02*
X106692387Y-111790468D01*
X104547888Y-109645969D02*
X104103195Y-109645969D01*
X106692387Y-111790468D02*
X104547888Y-109645969D01*
X106692387Y-112534207D02*
X107128025Y-112969845D01*
D18*
X105410000Y-102951722D02*
X106766734Y-101594988D01*
D19*
X107128025Y-112969845D02*
X108471111Y-112969845D01*
D18*
X104103195Y-109645969D02*
X105410000Y-108339164D01*
D20*
%TO.N,+BATT*%
X116500000Y-108769791D02*
X116500000Y-109000000D01*
X115471610Y-107741401D02*
X116500000Y-108769791D01*
D21*
%TO.N,LED_PWR*%
X143558563Y-110799646D02*
X145658563Y-112899646D01*
X145658563Y-106340210D02*
X144699282Y-106340210D01*
X144699282Y-106340210D02*
X143558563Y-107480929D01*
X143558563Y-107480929D02*
X143558563Y-110799646D01*
D18*
%TO.N,TIA_PWR_EN*%
X107430723Y-106017362D02*
X106879046Y-105465685D01*
X106879046Y-102337844D02*
X107776390Y-101440500D01*
X106879046Y-105465685D02*
X106879046Y-102337844D01*
D19*
%TO.N,Net-(U8-VREF)*%
X107003328Y-106705043D02*
X107003328Y-108302237D01*
X106724549Y-108581016D02*
X106171437Y-108581016D01*
X106235096Y-105936811D02*
X107003328Y-106705043D01*
X107003328Y-108302237D02*
X106724549Y-108581016D01*
D18*
%TO.N,REF_BUFFER_EN*%
X103795988Y-103788467D02*
X106083992Y-101500463D01*
X106083992Y-101500463D02*
X106083992Y-101440500D01*
X101363896Y-103788467D02*
X103795988Y-103788467D01*
%TD*%
%TA.AperFunction,Conductor*%
%TO.N,+3.3V*%
G36*
X143298118Y-99651612D02*
G01*
X143343873Y-99704416D01*
X143355078Y-99756511D01*
X143330588Y-104953297D01*
X143310587Y-105020243D01*
X143257568Y-105065749D01*
X143188364Y-105075366D01*
X143140617Y-105057707D01*
X143054881Y-105003835D01*
X143054880Y-105003834D01*
X143054879Y-105003834D01*
X142980498Y-104977807D01*
X142895244Y-104947975D01*
X142831614Y-104940806D01*
X142767200Y-104913739D01*
X142740505Y-104883559D01*
X142721110Y-104852692D01*
X142636632Y-104768214D01*
X142603147Y-104706891D01*
X142608131Y-104637199D01*
X142619317Y-104614565D01*
X142632770Y-104593156D01*
X142688627Y-104433525D01*
X142704906Y-104289046D01*
X142707563Y-104265468D01*
X142707563Y-104265463D01*
X142688628Y-104097409D01*
X142650348Y-103988011D01*
X142632770Y-103937776D01*
X142632769Y-103937775D01*
X142632768Y-103937771D01*
X142632766Y-103937768D01*
X142542795Y-103794581D01*
X142542790Y-103794575D01*
X142423204Y-103674989D01*
X142423198Y-103674984D01*
X142280011Y-103585013D01*
X142280008Y-103585011D01*
X142120370Y-103529151D01*
X141952317Y-103510217D01*
X141952311Y-103510217D01*
X141784257Y-103529151D01*
X141624615Y-103585013D01*
X141619931Y-103587269D01*
X141550990Y-103598619D01*
X141500161Y-103580540D01*
X141394541Y-103514174D01*
X141394543Y-103514174D01*
X141234905Y-103458314D01*
X141066852Y-103439380D01*
X141066846Y-103439380D01*
X140898792Y-103458314D01*
X140739154Y-103514174D01*
X140739151Y-103514176D01*
X140595964Y-103604147D01*
X140595956Y-103604153D01*
X140580328Y-103619782D01*
X140519004Y-103653266D01*
X140449313Y-103648280D01*
X140426676Y-103637092D01*
X140343790Y-103585011D01*
X140343792Y-103585011D01*
X140184154Y-103529151D01*
X140016101Y-103510217D01*
X140016095Y-103510217D01*
X139848041Y-103529151D01*
X139688405Y-103585011D01*
X139587290Y-103648546D01*
X139520053Y-103667546D01*
X139455346Y-103648546D01*
X139383098Y-103603150D01*
X139336807Y-103550816D01*
X139326158Y-103481762D01*
X139344077Y-103432183D01*
X139402483Y-103339231D01*
X139432722Y-103291106D01*
X139488579Y-103131475D01*
X139488579Y-103131474D01*
X139488580Y-103131472D01*
X139507515Y-102963418D01*
X139507515Y-102963413D01*
X139488580Y-102795359D01*
X139438025Y-102650882D01*
X139432722Y-102635726D01*
X139432721Y-102635725D01*
X139432720Y-102635721D01*
X139432718Y-102635718D01*
X139342747Y-102492531D01*
X139342742Y-102492525D01*
X139223156Y-102372939D01*
X139223150Y-102372934D01*
X139079963Y-102282963D01*
X139079960Y-102282961D01*
X138920322Y-102227101D01*
X138752269Y-102208167D01*
X138752263Y-102208167D01*
X138584209Y-102227101D01*
X138424571Y-102282961D01*
X138424568Y-102282963D01*
X138281381Y-102372934D01*
X138281375Y-102372939D01*
X138161789Y-102492525D01*
X138161784Y-102492531D01*
X138071813Y-102635718D01*
X138071811Y-102635721D01*
X138015951Y-102795359D01*
X137997017Y-102963413D01*
X137997017Y-102963418D01*
X138015951Y-103131472D01*
X138071811Y-103291110D01*
X138071813Y-103291113D01*
X138161784Y-103434300D01*
X138161789Y-103434306D01*
X138281376Y-103553893D01*
X138298483Y-103564642D01*
X138358127Y-103602120D01*
X138404418Y-103654455D01*
X138415065Y-103723508D01*
X138397148Y-103773085D01*
X138308504Y-103914160D01*
X138252644Y-104073796D01*
X138233710Y-104241850D01*
X138233710Y-104241855D01*
X138252645Y-104409910D01*
X138264901Y-104444937D01*
X138268462Y-104514716D01*
X138233733Y-104575343D01*
X138188813Y-104602933D01*
X138068630Y-104644986D01*
X138068624Y-104644989D01*
X137925437Y-104734960D01*
X137925431Y-104734965D01*
X137805845Y-104854551D01*
X137805840Y-104854557D01*
X137715869Y-104997744D01*
X137715867Y-104997747D01*
X137660007Y-105157385D01*
X137641073Y-105325439D01*
X137641073Y-105325444D01*
X137660008Y-105493499D01*
X137715866Y-105653133D01*
X137731708Y-105678345D01*
X137750709Y-105745582D01*
X137733005Y-105805876D01*
X137733432Y-105806082D01*
X137732184Y-105808673D01*
X137731710Y-105810288D01*
X137730412Y-105812352D01*
X137674553Y-105971987D01*
X137655619Y-106140041D01*
X137655619Y-106140046D01*
X137674553Y-106308100D01*
X137730413Y-106467738D01*
X137730415Y-106467741D01*
X137820386Y-106610928D01*
X137820391Y-106610934D01*
X137939977Y-106730520D01*
X137939983Y-106730525D01*
X138083170Y-106820496D01*
X138083173Y-106820498D01*
X138083177Y-106820499D01*
X138083178Y-106820500D01*
X138150589Y-106844088D01*
X138242811Y-106876358D01*
X138410865Y-106895293D01*
X138410868Y-106895293D01*
X138410871Y-106895293D01*
X138578927Y-106876357D01*
X138578929Y-106876357D01*
X138642779Y-106854014D01*
X138738558Y-106820500D01*
X138738567Y-106820493D01*
X138744835Y-106817477D01*
X138746329Y-106820580D01*
X138798447Y-106805178D01*
X138839618Y-106812136D01*
X138911797Y-106837393D01*
X138919222Y-106839991D01*
X138963574Y-106844988D01*
X139027989Y-106872054D01*
X139067544Y-106929648D01*
X139073692Y-106968208D01*
X139073692Y-106972830D01*
X139092626Y-107140884D01*
X139148486Y-107300522D01*
X139148488Y-107300525D01*
X139238459Y-107443712D01*
X139238464Y-107443718D01*
X139358050Y-107563304D01*
X139358056Y-107563309D01*
X139501243Y-107653280D01*
X139501246Y-107653282D01*
X139501250Y-107653283D01*
X139501251Y-107653284D01*
X139544122Y-107668285D01*
X139660884Y-107709142D01*
X139828938Y-107728077D01*
X139828941Y-107728077D01*
X139828944Y-107728077D01*
X139997000Y-107709141D01*
X139997002Y-107709141D01*
X140127902Y-107663337D01*
X140197681Y-107659775D01*
X140209804Y-107663333D01*
X140272272Y-107685192D01*
X140363891Y-107717251D01*
X140531945Y-107736186D01*
X140531948Y-107736186D01*
X140531951Y-107736186D01*
X140700004Y-107717251D01*
X140707640Y-107714579D01*
X140859638Y-107661393D01*
X140956414Y-107600583D01*
X141023651Y-107581583D01*
X141088359Y-107600583D01*
X141117980Y-107619195D01*
X141168115Y-107650697D01*
X141266691Y-107685190D01*
X141327748Y-107706555D01*
X141495802Y-107725490D01*
X141495805Y-107725490D01*
X141495808Y-107725490D01*
X141663864Y-107706554D01*
X141663866Y-107706554D01*
X141727716Y-107684211D01*
X141823495Y-107650697D01*
X141823504Y-107650690D01*
X141829772Y-107647674D01*
X141830365Y-107648906D01*
X141890290Y-107631965D01*
X141929990Y-107638917D01*
X141975019Y-107654673D01*
X142031794Y-107695395D01*
X142057541Y-107760348D01*
X142058063Y-107771714D01*
X142058063Y-110702627D01*
X142057587Y-110710302D01*
X142054206Y-110737425D01*
X142058063Y-110830681D01*
X142058063Y-110861710D01*
X142060625Y-110892636D01*
X142064481Y-110985879D01*
X142070089Y-111012629D01*
X142071198Y-111020236D01*
X142073454Y-111047464D01*
X142073454Y-111047465D01*
X142096184Y-111137223D01*
X142096364Y-111137934D01*
X142115514Y-111229260D01*
X142115515Y-111229262D01*
X142125445Y-111254713D01*
X142127790Y-111262033D01*
X142134494Y-111288507D01*
X142134500Y-111288527D01*
X142167126Y-111362907D01*
X142171983Y-111373981D01*
X142205907Y-111460921D01*
X142219895Y-111484396D01*
X142223415Y-111491234D01*
X142234388Y-111516250D01*
X142251683Y-111542722D01*
X142285423Y-111594366D01*
X142333197Y-111674540D01*
X142350859Y-111695393D01*
X142355450Y-111701550D01*
X142370399Y-111724431D01*
X142370400Y-111724432D01*
X142433596Y-111793081D01*
X142453663Y-111816775D01*
X142475612Y-111838724D01*
X142538820Y-111907385D01*
X142560385Y-111924170D01*
X142566150Y-111929261D01*
X143257723Y-112620834D01*
X143291208Y-112682157D01*
X143294041Y-112709099D01*
X143270858Y-117629128D01*
X143250857Y-117696074D01*
X143197838Y-117741580D01*
X143146859Y-117752544D01*
X109016141Y-117752544D01*
X108949102Y-117732859D01*
X108903347Y-117680055D01*
X108892560Y-117618363D01*
X108956622Y-116840730D01*
X108981743Y-116775537D01*
X109038125Y-116734272D01*
X109107866Y-116730040D01*
X109146175Y-116745922D01*
X109217679Y-116790851D01*
X109217677Y-116790851D01*
X109217681Y-116790852D01*
X109217682Y-116790853D01*
X109290285Y-116816257D01*
X109377315Y-116846711D01*
X109545369Y-116865646D01*
X109545372Y-116865646D01*
X109545375Y-116865646D01*
X109713428Y-116846711D01*
X109730521Y-116840730D01*
X109873062Y-116790853D01*
X109873064Y-116790851D01*
X109873066Y-116790851D01*
X109873069Y-116790849D01*
X110016256Y-116700878D01*
X110016257Y-116700877D01*
X110016262Y-116700874D01*
X110135849Y-116581287D01*
X110135853Y-116581281D01*
X110225824Y-116438094D01*
X110225826Y-116438091D01*
X110225826Y-116438089D01*
X110225828Y-116438087D01*
X110281685Y-116278456D01*
X110281685Y-116278455D01*
X110281686Y-116278453D01*
X110300621Y-116110399D01*
X110300621Y-116110394D01*
X110281685Y-115942337D01*
X110281685Y-115942336D01*
X110254998Y-115866070D01*
X110251435Y-115796292D01*
X110286164Y-115735664D01*
X110348157Y-115703437D01*
X110368148Y-115701177D01*
X110524404Y-115696294D01*
X110524403Y-115696292D01*
X110559070Y-115655150D01*
X110617320Y-115616566D01*
X110687183Y-115615600D01*
X110746478Y-115652558D01*
X110770938Y-115694093D01*
X110777543Y-115712968D01*
X110777547Y-115712977D01*
X110867518Y-115856164D01*
X110867523Y-115856170D01*
X110987109Y-115975756D01*
X110987115Y-115975761D01*
X111130302Y-116065732D01*
X111130305Y-116065734D01*
X111130309Y-116065735D01*
X111130310Y-116065736D01*
X111196392Y-116088859D01*
X111289943Y-116121594D01*
X111457997Y-116140529D01*
X111458000Y-116140529D01*
X111458003Y-116140529D01*
X111626056Y-116121594D01*
X111626059Y-116121593D01*
X111785690Y-116065736D01*
X111785692Y-116065734D01*
X111785694Y-116065734D01*
X111785697Y-116065732D01*
X111819594Y-116044433D01*
X112844751Y-116044433D01*
X112863685Y-116212487D01*
X112919545Y-116372125D01*
X112919547Y-116372128D01*
X113009518Y-116515315D01*
X113009523Y-116515321D01*
X113129109Y-116634907D01*
X113129115Y-116634912D01*
X113272302Y-116724883D01*
X113272305Y-116724885D01*
X113272309Y-116724886D01*
X113272310Y-116724887D01*
X113287037Y-116730040D01*
X113431943Y-116780745D01*
X113599997Y-116799680D01*
X113600000Y-116799680D01*
X113600003Y-116799680D01*
X113768056Y-116780745D01*
X113782940Y-116775537D01*
X113927690Y-116724887D01*
X113927692Y-116724885D01*
X113927694Y-116724885D01*
X113927697Y-116724883D01*
X114070884Y-116634912D01*
X114070885Y-116634911D01*
X114070890Y-116634908D01*
X114147784Y-116558014D01*
X114209107Y-116524529D01*
X114278799Y-116529513D01*
X114301755Y-116542512D01*
X114302407Y-116541476D01*
X114451495Y-116635155D01*
X114451498Y-116635157D01*
X114451502Y-116635158D01*
X114451503Y-116635159D01*
X114524106Y-116660563D01*
X114611136Y-116691017D01*
X114779190Y-116709952D01*
X114779193Y-116709952D01*
X114779196Y-116709952D01*
X114947249Y-116691017D01*
X114947252Y-116691016D01*
X115106883Y-116635159D01*
X115106885Y-116635157D01*
X115106887Y-116635157D01*
X115106890Y-116635155D01*
X115250077Y-116545184D01*
X115250078Y-116545183D01*
X115250083Y-116545180D01*
X115369670Y-116425593D01*
X115402576Y-116373224D01*
X115459645Y-116282400D01*
X115459647Y-116282397D01*
X115459647Y-116282395D01*
X115459649Y-116282393D01*
X115515506Y-116122762D01*
X115515506Y-116122761D01*
X115515507Y-116122759D01*
X115534442Y-115954705D01*
X115534442Y-115954700D01*
X115515507Y-115786646D01*
X115475126Y-115671244D01*
X115459649Y-115627013D01*
X115459648Y-115627012D01*
X115459647Y-115627008D01*
X115459645Y-115627005D01*
X115369674Y-115483818D01*
X115369669Y-115483812D01*
X115250083Y-115364226D01*
X115250077Y-115364221D01*
X115106890Y-115274250D01*
X115106887Y-115274248D01*
X114947249Y-115218388D01*
X114779196Y-115199454D01*
X114779190Y-115199454D01*
X114611136Y-115218388D01*
X114451498Y-115274248D01*
X114451495Y-115274250D01*
X114308308Y-115364221D01*
X114231409Y-115441120D01*
X114170085Y-115474604D01*
X114100394Y-115469620D01*
X114077433Y-115456627D01*
X114076786Y-115457658D01*
X113927697Y-115363978D01*
X113927694Y-115363976D01*
X113768056Y-115308116D01*
X113600003Y-115289182D01*
X113599997Y-115289182D01*
X113431943Y-115308116D01*
X113272305Y-115363976D01*
X113272302Y-115363978D01*
X113129115Y-115453949D01*
X113129109Y-115453954D01*
X113009523Y-115573540D01*
X113009518Y-115573546D01*
X112919547Y-115716733D01*
X112919545Y-115716736D01*
X112863685Y-115876374D01*
X112844751Y-116044428D01*
X112844751Y-116044433D01*
X111819594Y-116044433D01*
X111928884Y-115975761D01*
X111928885Y-115975760D01*
X111928890Y-115975757D01*
X112048477Y-115856170D01*
X112092162Y-115786646D01*
X112138452Y-115712977D01*
X112138454Y-115712974D01*
X112138454Y-115712972D01*
X112138456Y-115712970D01*
X112194313Y-115553339D01*
X112194313Y-115553338D01*
X112194314Y-115553336D01*
X112213249Y-115385282D01*
X112213249Y-115385277D01*
X112194314Y-115217223D01*
X112138454Y-115057585D01*
X112138452Y-115057582D01*
X112048481Y-114914395D01*
X112048476Y-114914389D01*
X111928890Y-114794803D01*
X111928884Y-114794798D01*
X111785697Y-114704827D01*
X111785694Y-114704825D01*
X111626056Y-114648965D01*
X111458003Y-114630031D01*
X111457997Y-114630031D01*
X111289943Y-114648965D01*
X111130305Y-114704825D01*
X111130302Y-114704827D01*
X110987115Y-114794798D01*
X110987109Y-114794803D01*
X110867523Y-114914389D01*
X110867518Y-114914395D01*
X110777547Y-115057582D01*
X110777545Y-115057585D01*
X110721685Y-115217223D01*
X110713700Y-115288100D01*
X110686633Y-115352514D01*
X110629038Y-115392069D01*
X110559201Y-115394206D01*
X110499295Y-115358248D01*
X110468339Y-115295610D01*
X110467686Y-115291471D01*
X110163213Y-113118264D01*
X110163211Y-113118263D01*
X109454832Y-112947977D01*
X109394251Y-112913169D01*
X109362105Y-112851133D01*
X109359822Y-112826062D01*
X109387821Y-110271180D01*
X109901484Y-110271180D01*
X109920418Y-110439234D01*
X109976278Y-110598872D01*
X109976280Y-110598875D01*
X110066251Y-110742062D01*
X110066256Y-110742068D01*
X110185842Y-110861654D01*
X110185848Y-110861659D01*
X110329035Y-110951630D01*
X110329038Y-110951632D01*
X110329042Y-110951633D01*
X110329043Y-110951634D01*
X110401646Y-110977038D01*
X110488676Y-111007492D01*
X110656730Y-111026427D01*
X110656733Y-111026427D01*
X110656736Y-111026427D01*
X110824789Y-111007492D01*
X110841439Y-111001666D01*
X110984423Y-110951634D01*
X110984425Y-110951632D01*
X110984427Y-110951632D01*
X110984430Y-110951630D01*
X111127617Y-110861659D01*
X111127618Y-110861658D01*
X111127623Y-110861655D01*
X111247210Y-110742068D01*
X111247210Y-110742067D01*
X111252134Y-110737144D01*
X111253145Y-110738155D01*
X111303926Y-110702498D01*
X111373737Y-110699635D01*
X111434013Y-110734970D01*
X111465618Y-110797283D01*
X111466926Y-110806057D01*
X111469275Y-110826900D01*
X111469275Y-110826902D01*
X111469276Y-110826903D01*
X111474645Y-110842248D01*
X111525134Y-110986538D01*
X111525136Y-110986541D01*
X111615107Y-111129728D01*
X111615112Y-111129734D01*
X111734698Y-111249320D01*
X111734704Y-111249325D01*
X111877891Y-111339296D01*
X111877894Y-111339298D01*
X111877898Y-111339299D01*
X111877899Y-111339300D01*
X111889045Y-111343200D01*
X112037532Y-111395158D01*
X112205586Y-111414093D01*
X112205589Y-111414093D01*
X112205592Y-111414093D01*
X112363010Y-111396356D01*
X112431832Y-111408410D01*
X112483212Y-111455759D01*
X112500836Y-111523370D01*
X112495555Y-111555571D01*
X112493475Y-111562427D01*
X112493476Y-111562428D01*
X113248153Y-111562428D01*
X113176835Y-111647421D01*
X113137636Y-111755122D01*
X113137636Y-111869734D01*
X113176835Y-111977435D01*
X113248153Y-112062428D01*
X112493476Y-112062428D01*
X112534287Y-112196965D01*
X112535287Y-112198835D01*
X112535514Y-112199929D01*
X112536617Y-112202590D01*
X112536112Y-112202798D01*
X112549532Y-112267237D01*
X112525200Y-112331600D01*
X112518841Y-112340094D01*
X112518838Y-112340099D01*
X112468544Y-112474945D01*
X112462137Y-112534544D01*
X112462136Y-112534563D01*
X112462136Y-113034477D01*
X112442451Y-113101516D01*
X112389647Y-113147271D01*
X112379091Y-113151518D01*
X112283573Y-113184941D01*
X112283562Y-113184946D01*
X112140375Y-113274917D01*
X112140369Y-113274922D01*
X112020783Y-113394508D01*
X112020778Y-113394514D01*
X111930807Y-113537701D01*
X111930805Y-113537704D01*
X111874945Y-113697342D01*
X111856011Y-113865396D01*
X111856011Y-113865401D01*
X111874945Y-114033455D01*
X111930805Y-114193093D01*
X111930807Y-114193096D01*
X112020778Y-114336283D01*
X112020783Y-114336289D01*
X112140369Y-114455875D01*
X112140375Y-114455880D01*
X112283562Y-114545851D01*
X112283565Y-114545853D01*
X112283569Y-114545854D01*
X112283570Y-114545855D01*
X112322957Y-114559637D01*
X112443203Y-114601713D01*
X112611257Y-114620648D01*
X112611260Y-114620648D01*
X112611263Y-114620648D01*
X112779316Y-114601713D01*
X112783217Y-114600348D01*
X112938950Y-114545855D01*
X112938952Y-114545853D01*
X112938954Y-114545853D01*
X112938957Y-114545851D01*
X113082144Y-114455880D01*
X113082145Y-114455879D01*
X113082150Y-114455876D01*
X113201737Y-114336289D01*
X113226101Y-114297514D01*
X113291712Y-114193096D01*
X113291715Y-114193091D01*
X113301204Y-114165973D01*
X113341925Y-114109197D01*
X113406878Y-114083449D01*
X113418246Y-114082927D01*
X114010507Y-114082927D01*
X114010508Y-114082927D01*
X114070119Y-114076519D01*
X114204967Y-114026224D01*
X114213015Y-114020198D01*
X114278478Y-113995779D01*
X114342110Y-114009323D01*
X114342281Y-114008911D01*
X114344511Y-114009834D01*
X114345782Y-114010105D01*
X114347909Y-114011242D01*
X114536504Y-114068452D01*
X114732636Y-114087769D01*
X114928768Y-114068452D01*
X115117363Y-114011242D01*
X115291174Y-113918338D01*
X115291180Y-113918332D01*
X115296243Y-113914951D01*
X115297339Y-113916592D01*
X115353275Y-113892833D01*
X115422143Y-113904622D01*
X115438784Y-113915316D01*
X115439029Y-113914951D01*
X115444094Y-113918335D01*
X115444098Y-113918338D01*
X115588980Y-113995779D01*
X115615783Y-114010106D01*
X115617909Y-114011242D01*
X115806504Y-114068452D01*
X116002636Y-114087769D01*
X116198768Y-114068452D01*
X116387363Y-114011242D01*
X116389489Y-114010106D01*
X116480613Y-113961399D01*
X116561174Y-113918338D01*
X116713519Y-113793311D01*
X116838546Y-113640966D01*
X116863346Y-113594569D01*
X116884249Y-113555463D01*
X116933211Y-113505619D01*
X117001349Y-113490158D01*
X117064037Y-113511858D01*
X119921481Y-115483818D01*
X120034710Y-115561959D01*
X120040804Y-115566035D01*
X120043558Y-115567847D01*
X120046945Y-115570076D01*
X120177605Y-115630322D01*
X120244572Y-115650250D01*
X120386908Y-115671244D01*
X132892567Y-115716803D01*
X133008770Y-115703700D01*
X133054660Y-115693041D01*
X133064274Y-115690809D01*
X133064274Y-115690808D01*
X133064282Y-115690807D01*
X133174385Y-115651344D01*
X133292898Y-115569758D01*
X133344225Y-115522352D01*
X133434945Y-115410693D01*
X133454414Y-115364221D01*
X133490539Y-115277990D01*
X133490542Y-115277981D01*
X133504492Y-115224227D01*
X133508091Y-115210358D01*
X133508092Y-115210354D01*
X133524045Y-115067361D01*
X133494312Y-114129460D01*
X136229624Y-114129460D01*
X136248558Y-114297514D01*
X136291008Y-114418828D01*
X136303973Y-114455880D01*
X136304418Y-114457150D01*
X136382828Y-114581938D01*
X136401828Y-114649174D01*
X136401054Y-114661793D01*
X136384657Y-114807324D01*
X136384657Y-114807330D01*
X136403591Y-114975384D01*
X136431587Y-115055390D01*
X136459450Y-115135018D01*
X136476825Y-115162670D01*
X136495824Y-115229907D01*
X136480271Y-115282909D01*
X136482564Y-115284013D01*
X136479546Y-115290278D01*
X136423685Y-115449918D01*
X136404751Y-115617972D01*
X136404751Y-115617977D01*
X136423685Y-115786031D01*
X136479545Y-115945669D01*
X136479547Y-115945672D01*
X136569518Y-116088859D01*
X136569523Y-116088865D01*
X136689109Y-116208451D01*
X136689115Y-116208456D01*
X136832302Y-116298427D01*
X136832305Y-116298429D01*
X136832309Y-116298430D01*
X136832310Y-116298431D01*
X136904913Y-116323835D01*
X136991943Y-116354289D01*
X137159997Y-116373224D01*
X137160000Y-116373224D01*
X137160003Y-116373224D01*
X137260835Y-116361862D01*
X137328059Y-116354288D01*
X137487690Y-116298431D01*
X137561033Y-116252345D01*
X137628265Y-116233346D01*
X137667957Y-116240299D01*
X137791867Y-116283657D01*
X137959925Y-116302593D01*
X137959928Y-116302593D01*
X137959931Y-116302593D01*
X138085972Y-116288391D01*
X138127987Y-116283657D01*
X138259228Y-116237733D01*
X138329003Y-116234171D01*
X138366153Y-116249782D01*
X138420064Y-116283657D01*
X138444984Y-116299315D01*
X138444982Y-116299315D01*
X138444986Y-116299316D01*
X138444987Y-116299317D01*
X138517590Y-116324721D01*
X138604620Y-116355175D01*
X138772674Y-116374110D01*
X138772677Y-116374110D01*
X138772680Y-116374110D01*
X138940733Y-116355175D01*
X138943268Y-116354288D01*
X139100367Y-116299317D01*
X139194939Y-116239893D01*
X139262172Y-116220893D01*
X139326880Y-116239893D01*
X139342618Y-116249782D01*
X139421448Y-116299315D01*
X139421449Y-116299315D01*
X139421452Y-116299317D01*
X139527872Y-116336554D01*
X139581085Y-116355175D01*
X139749139Y-116374110D01*
X139749142Y-116374110D01*
X139749145Y-116374110D01*
X139917198Y-116355175D01*
X139919733Y-116354288D01*
X140076832Y-116299317D01*
X140076834Y-116299315D01*
X140076836Y-116299315D01*
X140076839Y-116299313D01*
X140220026Y-116209342D01*
X140220027Y-116209341D01*
X140220032Y-116209338D01*
X140339619Y-116089751D01*
X140340176Y-116088865D01*
X140429594Y-115946558D01*
X140429596Y-115946555D01*
X140429596Y-115946553D01*
X140429598Y-115946551D01*
X140485455Y-115786920D01*
X140485455Y-115786919D01*
X140485456Y-115786917D01*
X140504391Y-115618863D01*
X140504391Y-115618858D01*
X140485456Y-115450804D01*
X140436471Y-115310814D01*
X140432910Y-115241035D01*
X140441803Y-115216037D01*
X140442288Y-115215029D01*
X140442292Y-115215023D01*
X140498149Y-115055392D01*
X140514036Y-114914395D01*
X140517085Y-114887335D01*
X140517085Y-114887330D01*
X140498150Y-114719276D01*
X140449370Y-114579871D01*
X140442292Y-114559643D01*
X140442291Y-114559642D01*
X140442290Y-114559638D01*
X140442289Y-114559637D01*
X140427800Y-114536577D01*
X140408800Y-114469340D01*
X140427800Y-114404634D01*
X140435018Y-114393149D01*
X140490875Y-114233518D01*
X140507297Y-114087769D01*
X140509811Y-114065461D01*
X140509811Y-114065456D01*
X140490876Y-113897402D01*
X140435016Y-113737764D01*
X140435014Y-113737761D01*
X140345043Y-113594574D01*
X140345038Y-113594568D01*
X140225452Y-113474982D01*
X140225446Y-113474977D01*
X140082259Y-113385006D01*
X140082256Y-113385004D01*
X139922618Y-113329144D01*
X139754565Y-113310210D01*
X139754559Y-113310210D01*
X139586505Y-113329144D01*
X139426868Y-113385004D01*
X139414560Y-113392738D01*
X139347323Y-113411736D01*
X139282619Y-113392735D01*
X139224014Y-113355911D01*
X139224016Y-113355911D01*
X139064378Y-113300051D01*
X138896325Y-113281117D01*
X138896319Y-113281117D01*
X138728265Y-113300051D01*
X138568630Y-113355910D01*
X138522928Y-113384627D01*
X138455691Y-113403626D01*
X138390986Y-113384626D01*
X138322136Y-113341365D01*
X138322135Y-113341364D01*
X138162497Y-113285504D01*
X137994444Y-113266570D01*
X137994438Y-113266570D01*
X137826384Y-113285504D01*
X137666746Y-113341364D01*
X137666743Y-113341366D01*
X137523553Y-113431339D01*
X137523545Y-113431345D01*
X137501209Y-113453681D01*
X137439885Y-113487164D01*
X137370193Y-113482177D01*
X137347559Y-113470991D01*
X137312565Y-113449003D01*
X137312564Y-113449002D01*
X137312563Y-113449002D01*
X137262102Y-113431345D01*
X137152929Y-113393143D01*
X136984876Y-113374209D01*
X136984870Y-113374209D01*
X136816816Y-113393143D01*
X136657178Y-113449003D01*
X136657175Y-113449005D01*
X136513988Y-113538976D01*
X136513982Y-113538981D01*
X136394396Y-113658567D01*
X136394391Y-113658573D01*
X136304420Y-113801760D01*
X136304418Y-113801763D01*
X136248558Y-113961401D01*
X136229624Y-114129455D01*
X136229624Y-114129460D01*
X133494312Y-114129460D01*
X133452370Y-112806431D01*
X133439107Y-112706334D01*
X133437226Y-112698363D01*
X133427788Y-112658372D01*
X133427780Y-112658346D01*
X133394893Y-112562896D01*
X133376533Y-112534544D01*
X133316686Y-112442124D01*
X133270749Y-112389479D01*
X133161691Y-112295637D01*
X133030607Y-112236319D01*
X133030605Y-112236318D01*
X133030602Y-112236317D01*
X132963536Y-112216876D01*
X132963498Y-112216864D01*
X132821008Y-112196880D01*
X129612839Y-112207962D01*
X129545732Y-112188509D01*
X129499795Y-112135864D01*
X129488411Y-112083963D01*
X129488411Y-112079827D01*
X129472478Y-111938414D01*
X136652205Y-111938414D01*
X136670556Y-112124745D01*
X136670557Y-112124747D01*
X136724908Y-112303916D01*
X136813166Y-112469037D01*
X136813168Y-112469040D01*
X136931946Y-112613771D01*
X137076677Y-112732549D01*
X137076680Y-112732551D01*
X137241801Y-112820809D01*
X137241803Y-112820810D01*
X137355313Y-112855243D01*
X137420970Y-112875160D01*
X137420972Y-112875161D01*
X137437678Y-112876806D01*
X137607304Y-112893513D01*
X137793635Y-112875161D01*
X137972805Y-112820810D01*
X138137929Y-112732550D01*
X138282661Y-112613771D01*
X138401440Y-112469039D01*
X138489700Y-112303915D01*
X138544051Y-112124745D01*
X138562403Y-111938414D01*
X138544051Y-111752083D01*
X138489700Y-111572913D01*
X138460502Y-111518287D01*
X138401441Y-111407790D01*
X138401439Y-111407787D01*
X138282661Y-111263056D01*
X138137930Y-111144278D01*
X138137927Y-111144276D01*
X137972806Y-111056018D01*
X137793637Y-111001667D01*
X137793635Y-111001666D01*
X137607304Y-110983315D01*
X137420972Y-111001666D01*
X137420970Y-111001667D01*
X137241801Y-111056018D01*
X137076680Y-111144276D01*
X137076677Y-111144278D01*
X136931946Y-111263056D01*
X136813168Y-111407787D01*
X136813166Y-111407790D01*
X136724908Y-111572911D01*
X136670557Y-111752080D01*
X136670556Y-111752082D01*
X136652205Y-111938414D01*
X129472478Y-111938414D01*
X129469476Y-111911773D01*
X129443915Y-111838724D01*
X129413618Y-111752140D01*
X129413616Y-111752137D01*
X129413616Y-111752136D01*
X129349865Y-111650678D01*
X129330864Y-111583441D01*
X129351231Y-111516606D01*
X129404499Y-111471391D01*
X129473755Y-111462153D01*
X129495809Y-111467662D01*
X129573910Y-111494990D01*
X129640487Y-111518287D01*
X129808541Y-111537222D01*
X129808544Y-111537222D01*
X129808547Y-111537222D01*
X129976600Y-111518287D01*
X129982413Y-111516253D01*
X130136234Y-111462429D01*
X130136236Y-111462427D01*
X130136238Y-111462427D01*
X130136241Y-111462425D01*
X130279428Y-111372454D01*
X130279429Y-111372453D01*
X130279434Y-111372450D01*
X130399021Y-111252863D01*
X130401363Y-111249136D01*
X130488996Y-111109670D01*
X130488998Y-111109667D01*
X130488998Y-111109665D01*
X130489000Y-111109663D01*
X130544857Y-110950032D01*
X130544857Y-110950031D01*
X130544858Y-110950029D01*
X130563793Y-110781975D01*
X130563793Y-110781970D01*
X130544858Y-110613916D01*
X130503716Y-110496339D01*
X130489000Y-110454283D01*
X130488999Y-110454282D01*
X130488998Y-110454278D01*
X130488996Y-110454275D01*
X130399025Y-110311088D01*
X130399020Y-110311082D01*
X130279434Y-110191496D01*
X130279428Y-110191491D01*
X130136241Y-110101520D01*
X130136238Y-110101518D01*
X129976600Y-110045658D01*
X129808547Y-110026724D01*
X129808541Y-110026724D01*
X129640487Y-110045658D01*
X129480849Y-110101518D01*
X129480846Y-110101520D01*
X129337659Y-110191491D01*
X129337653Y-110191496D01*
X129218067Y-110311082D01*
X129218062Y-110311088D01*
X129128091Y-110454275D01*
X129128089Y-110454278D01*
X129072229Y-110613916D01*
X129053295Y-110781970D01*
X129053295Y-110781975D01*
X129072229Y-110950029D01*
X129101323Y-111033174D01*
X129118944Y-111083532D01*
X129128089Y-111109665D01*
X129191841Y-111211125D01*
X129210841Y-111278361D01*
X129190473Y-111345197D01*
X129137206Y-111390411D01*
X129067949Y-111399649D01*
X129045893Y-111394139D01*
X128901219Y-111343516D01*
X128769406Y-111328664D01*
X128704992Y-111301597D01*
X128665437Y-111244002D01*
X128660070Y-111219327D01*
X128644770Y-111083532D01*
X128636445Y-111059741D01*
X128588912Y-110923898D01*
X128588911Y-110923897D01*
X128588910Y-110923893D01*
X128588908Y-110923890D01*
X128498937Y-110780703D01*
X128498932Y-110780697D01*
X128379346Y-110661111D01*
X128379340Y-110661106D01*
X128236153Y-110571135D01*
X128236150Y-110571133D01*
X128076512Y-110515273D01*
X127908459Y-110496339D01*
X127908453Y-110496339D01*
X127740399Y-110515273D01*
X127580761Y-110571133D01*
X127580758Y-110571135D01*
X127437571Y-110661106D01*
X127437565Y-110661111D01*
X127317979Y-110780697D01*
X127317974Y-110780703D01*
X127228003Y-110923890D01*
X127228001Y-110923893D01*
X127172141Y-111083531D01*
X127153207Y-111251585D01*
X127153207Y-111251592D01*
X127155774Y-111274378D01*
X127143719Y-111343200D01*
X127096369Y-111394579D01*
X127046439Y-111411480D01*
X127013925Y-111415143D01*
X126854286Y-111471002D01*
X126854281Y-111471005D01*
X126711094Y-111560976D01*
X126711088Y-111560981D01*
X126591502Y-111680567D01*
X126591497Y-111680573D01*
X126501526Y-111823760D01*
X126501524Y-111823763D01*
X126445664Y-111983401D01*
X126431484Y-112109260D01*
X126404417Y-112173674D01*
X126346822Y-112213229D01*
X126308693Y-112219375D01*
X126010479Y-112220405D01*
X126010467Y-112220405D01*
X126010466Y-112220406D01*
X125961087Y-112227251D01*
X125891980Y-112216957D01*
X125839408Y-112170935D01*
X125820064Y-112103797D01*
X125820842Y-112090540D01*
X125821091Y-112088337D01*
X125827741Y-112029315D01*
X125827227Y-112024752D01*
X125808806Y-111861258D01*
X125770604Y-111752083D01*
X125752948Y-111701625D01*
X125752947Y-111701624D01*
X125752946Y-111701620D01*
X125752944Y-111701617D01*
X125662973Y-111558430D01*
X125662968Y-111558424D01*
X125541249Y-111436705D01*
X125507764Y-111375382D01*
X125505710Y-111362907D01*
X125491555Y-111237275D01*
X125482405Y-111211125D01*
X125435697Y-111077641D01*
X125435696Y-111077639D01*
X125435695Y-111077636D01*
X125435693Y-111077633D01*
X125345722Y-110934446D01*
X125345717Y-110934440D01*
X125226131Y-110814854D01*
X125226125Y-110814849D01*
X125082938Y-110724878D01*
X125082935Y-110724876D01*
X124923297Y-110669016D01*
X124755244Y-110650082D01*
X124755238Y-110650082D01*
X124587184Y-110669016D01*
X124427546Y-110724876D01*
X124427543Y-110724878D01*
X124284356Y-110814849D01*
X124284350Y-110814854D01*
X124164764Y-110934440D01*
X124164759Y-110934446D01*
X124074789Y-111077631D01*
X124074785Y-111077639D01*
X124041943Y-111171496D01*
X124001221Y-111228271D01*
X123965860Y-111247580D01*
X123961419Y-111249134D01*
X123961413Y-111249136D01*
X123947942Y-111257601D01*
X123880705Y-111276599D01*
X123841019Y-111269647D01*
X123758781Y-111240871D01*
X123590727Y-111221936D01*
X123590721Y-111221936D01*
X123422666Y-111240871D01*
X123314231Y-111278814D01*
X123244452Y-111282375D01*
X123207305Y-111266765D01*
X123163032Y-111238946D01*
X123163029Y-111238944D01*
X123003391Y-111183084D01*
X122835338Y-111164150D01*
X122835332Y-111164150D01*
X122667278Y-111183084D01*
X122507640Y-111238944D01*
X122507639Y-111238945D01*
X122428762Y-111288507D01*
X122361526Y-111307507D01*
X122294691Y-111287139D01*
X122265847Y-111260830D01*
X122262640Y-111256809D01*
X122143054Y-111137223D01*
X122103033Y-111112076D01*
X122056742Y-111059741D01*
X122045785Y-111020965D01*
X122045270Y-111016398D01*
X122036036Y-110934440D01*
X122028226Y-110865118D01*
X122027035Y-110861713D01*
X121972368Y-110705484D01*
X121972367Y-110705483D01*
X121972366Y-110705479D01*
X121972364Y-110705476D01*
X121882393Y-110562289D01*
X121882388Y-110562283D01*
X121762802Y-110442697D01*
X121762796Y-110442692D01*
X121619609Y-110352721D01*
X121619606Y-110352719D01*
X121459968Y-110296859D01*
X121291915Y-110277925D01*
X121291909Y-110277925D01*
X121123855Y-110296859D01*
X120964219Y-110352719D01*
X120862896Y-110416385D01*
X120795659Y-110435385D01*
X120728824Y-110415017D01*
X120723494Y-110411311D01*
X119645759Y-109619292D01*
X119639268Y-109613799D01*
X119418540Y-109399398D01*
X119357935Y-109349084D01*
X119326467Y-109326861D01*
X119326464Y-109326859D01*
X119258791Y-109286579D01*
X119258790Y-109286578D01*
X119258789Y-109286578D01*
X119188691Y-109263650D01*
X119122040Y-109241849D01*
X119094024Y-109236944D01*
X119060362Y-109231050D01*
X119060150Y-109230945D01*
X119058019Y-109230639D01*
X119053234Y-109229802D01*
X119053210Y-109229798D01*
X119050672Y-109229720D01*
X119045629Y-109229359D01*
X118919007Y-109215092D01*
X118891935Y-109208913D01*
X118866198Y-109199907D01*
X118841183Y-109187860D01*
X118818095Y-109173353D01*
X118796385Y-109156040D01*
X118790347Y-109150002D01*
X121894751Y-109150002D01*
X121913685Y-109318056D01*
X121969545Y-109477694D01*
X121969547Y-109477697D01*
X122059518Y-109620884D01*
X122059523Y-109620890D01*
X122179109Y-109740476D01*
X122179115Y-109740481D01*
X122322302Y-109830452D01*
X122322305Y-109830454D01*
X122322309Y-109830455D01*
X122322310Y-109830456D01*
X122344310Y-109838154D01*
X122481943Y-109886314D01*
X122649997Y-109905249D01*
X122650000Y-109905249D01*
X122650003Y-109905249D01*
X122818056Y-109886314D01*
X122818059Y-109886313D01*
X122977690Y-109830456D01*
X122977692Y-109830454D01*
X122977694Y-109830454D01*
X122977697Y-109830452D01*
X123120884Y-109740481D01*
X123120885Y-109740480D01*
X123120890Y-109740477D01*
X123162319Y-109699047D01*
X123223640Y-109665563D01*
X123293331Y-109670547D01*
X123337679Y-109699047D01*
X123379108Y-109740475D01*
X123379115Y-109740481D01*
X123522302Y-109830452D01*
X123522305Y-109830454D01*
X123522309Y-109830455D01*
X123522310Y-109830456D01*
X123544310Y-109838154D01*
X123681943Y-109886314D01*
X123849997Y-109905249D01*
X123850000Y-109905249D01*
X123850003Y-109905249D01*
X124018056Y-109886314D01*
X124018059Y-109886313D01*
X124177690Y-109830456D01*
X124177692Y-109830454D01*
X124177694Y-109830454D01*
X124177697Y-109830452D01*
X124320884Y-109740481D01*
X124320885Y-109740480D01*
X124320890Y-109740477D01*
X124440477Y-109620890D01*
X124530452Y-109477697D01*
X124530454Y-109477694D01*
X124530454Y-109477692D01*
X124530456Y-109477690D01*
X124586313Y-109318059D01*
X124586313Y-109318058D01*
X124586314Y-109318056D01*
X124605249Y-109150002D01*
X124605249Y-109149997D01*
X124586314Y-108981943D01*
X124553870Y-108889223D01*
X124530456Y-108822310D01*
X124530455Y-108822309D01*
X124530454Y-108822305D01*
X124530452Y-108822302D01*
X124440481Y-108679115D01*
X124440476Y-108679109D01*
X124320890Y-108559523D01*
X124320884Y-108559518D01*
X124177697Y-108469547D01*
X124177694Y-108469545D01*
X124018056Y-108413685D01*
X123850003Y-108394751D01*
X123849997Y-108394751D01*
X123681943Y-108413685D01*
X123522305Y-108469545D01*
X123522302Y-108469547D01*
X123379115Y-108559518D01*
X123379108Y-108559524D01*
X123337680Y-108600952D01*
X123276357Y-108634436D01*
X123206665Y-108629451D01*
X123162320Y-108600952D01*
X123120891Y-108559524D01*
X123120884Y-108559518D01*
X122977697Y-108469547D01*
X122977694Y-108469545D01*
X122818056Y-108413685D01*
X122650003Y-108394751D01*
X122649997Y-108394751D01*
X122481943Y-108413685D01*
X122322305Y-108469545D01*
X122322302Y-108469547D01*
X122179115Y-108559518D01*
X122179109Y-108559523D01*
X122059523Y-108679109D01*
X122059518Y-108679115D01*
X121969547Y-108822302D01*
X121969545Y-108822305D01*
X121913685Y-108981943D01*
X121894751Y-109149997D01*
X121894751Y-109150002D01*
X118790347Y-109150002D01*
X118777102Y-109136757D01*
X118759793Y-109115054D01*
X118745283Y-109091961D01*
X118733239Y-109066956D01*
X118724228Y-109041203D01*
X118718051Y-109014143D01*
X118706279Y-108909645D01*
X118705307Y-108904399D01*
X118704682Y-108900233D01*
X118703707Y-108891734D01*
X118693840Y-108834781D01*
X118641605Y-108700718D01*
X118607233Y-108639890D01*
X118586334Y-108612803D01*
X118519343Y-108525974D01*
X118146723Y-108164034D01*
X117378635Y-107417962D01*
X117364735Y-107407706D01*
X117268980Y-107337055D01*
X117210866Y-107305273D01*
X117210865Y-107305272D01*
X117210864Y-107305272D01*
X117083585Y-107256597D01*
X117083584Y-107256596D01*
X117083582Y-107256596D01*
X116940249Y-107244056D01*
X116872208Y-107247839D01*
X116871154Y-107247868D01*
X116870485Y-107247934D01*
X116839117Y-107254239D01*
X116769513Y-107248149D01*
X116714251Y-107205395D01*
X116702303Y-107185075D01*
X116700761Y-107181769D01*
X116645645Y-107063572D01*
X116643886Y-107061059D01*
X116510104Y-106869998D01*
X116343012Y-106702907D01*
X116343006Y-106702902D01*
X116157452Y-106572976D01*
X116113827Y-106518399D01*
X116106633Y-106448901D01*
X116138156Y-106386546D01*
X116157452Y-106369826D01*
X116215426Y-106329232D01*
X116343011Y-106239896D01*
X116483375Y-106099532D01*
X117569366Y-106099532D01*
X117588300Y-106267586D01*
X117644160Y-106427224D01*
X117644162Y-106427227D01*
X117734133Y-106570414D01*
X117734138Y-106570420D01*
X117853724Y-106690006D01*
X117853730Y-106690011D01*
X117996917Y-106779982D01*
X117996920Y-106779984D01*
X117996924Y-106779985D01*
X117996925Y-106779986D01*
X118043848Y-106796405D01*
X118156561Y-106835845D01*
X118163344Y-106837393D01*
X118163048Y-106838688D01*
X118220587Y-106862860D01*
X118260148Y-106920450D01*
X118262292Y-106990287D01*
X118259341Y-106999974D01*
X118238686Y-107059003D01*
X118219751Y-107227060D01*
X118219751Y-107227065D01*
X118238685Y-107395119D01*
X118294545Y-107554757D01*
X118294547Y-107554760D01*
X118384518Y-107697947D01*
X118384523Y-107697953D01*
X118504109Y-107817539D01*
X118504115Y-107817544D01*
X118647302Y-107907515D01*
X118647305Y-107907517D01*
X118647309Y-107907518D01*
X118647310Y-107907519D01*
X118702132Y-107926702D01*
X118806943Y-107963377D01*
X118974997Y-107982312D01*
X118975000Y-107982312D01*
X118975003Y-107982312D01*
X119101044Y-107968110D01*
X119143059Y-107963376D01*
X119188056Y-107947630D01*
X119257833Y-107944068D01*
X119318461Y-107978796D01*
X119346053Y-108023717D01*
X119372389Y-108098983D01*
X119372391Y-108098986D01*
X119462362Y-108242173D01*
X119462367Y-108242179D01*
X119581953Y-108361765D01*
X119581959Y-108361770D01*
X119725146Y-108451741D01*
X119725149Y-108451743D01*
X119725153Y-108451744D01*
X119725154Y-108451745D01*
X119797757Y-108477149D01*
X119884787Y-108507603D01*
X120052841Y-108526538D01*
X120052844Y-108526538D01*
X120052847Y-108526538D01*
X120220900Y-108507603D01*
X120220903Y-108507602D01*
X120380534Y-108451745D01*
X120380536Y-108451743D01*
X120380538Y-108451743D01*
X120380541Y-108451741D01*
X120523728Y-108361770D01*
X120523729Y-108361769D01*
X120523734Y-108361766D01*
X120643321Y-108242179D01*
X120659886Y-108215816D01*
X120733296Y-108098986D01*
X120733299Y-108098981D01*
X120745698Y-108063547D01*
X120779594Y-107966677D01*
X120820315Y-107909903D01*
X120885267Y-107884155D01*
X120937589Y-107890591D01*
X120991285Y-107909379D01*
X121057651Y-107932602D01*
X121099665Y-107937336D01*
X121225707Y-107951538D01*
X121225710Y-107951538D01*
X121225713Y-107951538D01*
X121393766Y-107932603D01*
X121465452Y-107907519D01*
X121553400Y-107876745D01*
X121553402Y-107876743D01*
X121553404Y-107876743D01*
X121553407Y-107876741D01*
X121696594Y-107786770D01*
X121696595Y-107786769D01*
X121696600Y-107786766D01*
X121816187Y-107667179D01*
X121818294Y-107663826D01*
X121906162Y-107523986D01*
X121906164Y-107523983D01*
X121906164Y-107523981D01*
X121906166Y-107523979D01*
X121962023Y-107364348D01*
X121962023Y-107364347D01*
X121962024Y-107364345D01*
X121980959Y-107196291D01*
X121980959Y-107196286D01*
X121962024Y-107028232D01*
X121915698Y-106895841D01*
X121906166Y-106868599D01*
X121906165Y-106868598D01*
X121906164Y-106868594D01*
X121906162Y-106868591D01*
X121816191Y-106725404D01*
X121816186Y-106725398D01*
X121696600Y-106605812D01*
X121696594Y-106605807D01*
X121553407Y-106515836D01*
X121553404Y-106515834D01*
X121393766Y-106459974D01*
X121233028Y-106441864D01*
X121168614Y-106414797D01*
X121129059Y-106357203D01*
X121126922Y-106287366D01*
X121162880Y-106227459D01*
X121180935Y-106213653D01*
X121219969Y-106189127D01*
X121339556Y-106069540D01*
X121364135Y-106030423D01*
X121429531Y-105926347D01*
X121429533Y-105926344D01*
X121429533Y-105926342D01*
X121429535Y-105926340D01*
X121485392Y-105766709D01*
X121485392Y-105766707D01*
X121485393Y-105766705D01*
X121501092Y-105627372D01*
X121528158Y-105562958D01*
X121536631Y-105553574D01*
X121585421Y-105504784D01*
X121649816Y-105440389D01*
X121649820Y-105440383D01*
X121739791Y-105297196D01*
X121739793Y-105297193D01*
X121739793Y-105297191D01*
X121739795Y-105297189D01*
X121795652Y-105137558D01*
X121795652Y-105137557D01*
X121795653Y-105137555D01*
X121814588Y-104969501D01*
X121814588Y-104969496D01*
X121804810Y-104882715D01*
X122859311Y-104882715D01*
X122878245Y-105050769D01*
X122934105Y-105210407D01*
X122934107Y-105210410D01*
X123024078Y-105353597D01*
X123024083Y-105353603D01*
X123143669Y-105473189D01*
X123143675Y-105473194D01*
X123286862Y-105563165D01*
X123286868Y-105563168D01*
X123286870Y-105563169D01*
X123437071Y-105615726D01*
X123493847Y-105656448D01*
X123513159Y-105691814D01*
X123536040Y-105757207D01*
X123626014Y-105900398D01*
X123626019Y-105900404D01*
X123745605Y-106019990D01*
X123745611Y-106019995D01*
X123888798Y-106109966D01*
X123888801Y-106109968D01*
X123888805Y-106109969D01*
X123888806Y-106109970D01*
X123961409Y-106135374D01*
X124048439Y-106165828D01*
X124216493Y-106184763D01*
X124216496Y-106184763D01*
X124216499Y-106184763D01*
X124317331Y-106173401D01*
X124384555Y-106165827D01*
X124395440Y-106162017D01*
X124465218Y-106158454D01*
X124525847Y-106193180D01*
X124558077Y-106255172D01*
X124551674Y-106324748D01*
X124541393Y-106345029D01*
X124517419Y-106383183D01*
X124517418Y-106383184D01*
X124461558Y-106542822D01*
X124442624Y-106710876D01*
X124442624Y-106710881D01*
X124461558Y-106878935D01*
X124517418Y-107038573D01*
X124517420Y-107038576D01*
X124607391Y-107181763D01*
X124607396Y-107181769D01*
X124726982Y-107301355D01*
X124726988Y-107301360D01*
X124870175Y-107391331D01*
X124870178Y-107391333D01*
X124870182Y-107391334D01*
X124870183Y-107391335D01*
X124910659Y-107405498D01*
X125029816Y-107447193D01*
X125197870Y-107466128D01*
X125197873Y-107466128D01*
X125197876Y-107466128D01*
X125365929Y-107447193D01*
X125377955Y-107442985D01*
X125525563Y-107391335D01*
X125525565Y-107391333D01*
X125525567Y-107391333D01*
X125525570Y-107391331D01*
X125668757Y-107301360D01*
X125668758Y-107301359D01*
X125668763Y-107301356D01*
X125788350Y-107181769D01*
X125830116Y-107115299D01*
X125878325Y-107038576D01*
X125878326Y-107038574D01*
X125878326Y-107038573D01*
X125878329Y-107038569D01*
X125893904Y-106994055D01*
X125934623Y-106937282D01*
X125999575Y-106911533D01*
X126024831Y-106911791D01*
X126033609Y-106912781D01*
X126033612Y-106912781D01*
X126208588Y-106893066D01*
X126208900Y-106895841D01*
X126266033Y-106899330D01*
X126289885Y-106910964D01*
X126406900Y-106984490D01*
X126432307Y-107000454D01*
X126432305Y-107000454D01*
X126432309Y-107000455D01*
X126432310Y-107000456D01*
X126504913Y-107025860D01*
X126591943Y-107056314D01*
X126759997Y-107075249D01*
X126760000Y-107075249D01*
X126760003Y-107075249D01*
X126928056Y-107056314D01*
X126944040Y-107050721D01*
X127087690Y-107000456D01*
X127087692Y-107000454D01*
X127087694Y-107000454D01*
X127087697Y-107000452D01*
X127230884Y-106910481D01*
X127230884Y-106910480D01*
X127230890Y-106910477D01*
X127336692Y-106804674D01*
X127398011Y-106771192D01*
X127467703Y-106776176D01*
X127523637Y-106818047D01*
X127548054Y-106883511D01*
X127541413Y-106933310D01*
X127536539Y-106947239D01*
X127517604Y-107115294D01*
X127517604Y-107115299D01*
X127536539Y-107283354D01*
X127580052Y-107407706D01*
X127592397Y-107442987D01*
X127617044Y-107482212D01*
X127636045Y-107549448D01*
X127615678Y-107616283D01*
X127607905Y-107626849D01*
X127560026Y-107685190D01*
X127560024Y-107685192D01*
X127471766Y-107850313D01*
X127417415Y-108029482D01*
X127417414Y-108029484D01*
X127399063Y-108215816D01*
X127417414Y-108402147D01*
X127417415Y-108402149D01*
X127471766Y-108581318D01*
X127560024Y-108746439D01*
X127560026Y-108746442D01*
X127678804Y-108891173D01*
X127823535Y-109009951D01*
X127823538Y-109009953D01*
X127976979Y-109091968D01*
X127988661Y-109098212D01*
X128156346Y-109149079D01*
X128167828Y-109152562D01*
X128167830Y-109152563D01*
X128186181Y-109154370D01*
X128354162Y-109170915D01*
X128540493Y-109152563D01*
X128719663Y-109098212D01*
X128775861Y-109068173D01*
X128844260Y-109053931D01*
X128893979Y-109070445D01*
X128894330Y-109069717D01*
X128899984Y-109072439D01*
X128900293Y-109072542D01*
X128900606Y-109072739D01*
X128997856Y-109106768D01*
X129060239Y-109128597D01*
X129228293Y-109147532D01*
X129228296Y-109147532D01*
X129228299Y-109147532D01*
X129396352Y-109128597D01*
X129397138Y-109128322D01*
X129555986Y-109072739D01*
X129555988Y-109072737D01*
X129555990Y-109072737D01*
X129555993Y-109072735D01*
X129699180Y-108982764D01*
X129699181Y-108982763D01*
X129699186Y-108982760D01*
X129818773Y-108863173D01*
X129836613Y-108834781D01*
X129908748Y-108719980D01*
X129908750Y-108719977D01*
X129908750Y-108719975D01*
X129908752Y-108719973D01*
X129964609Y-108560342D01*
X129964609Y-108560341D01*
X129964610Y-108560339D01*
X129983545Y-108392285D01*
X129983545Y-108392280D01*
X129964610Y-108224226D01*
X129940287Y-108154717D01*
X129908752Y-108064593D01*
X129908751Y-108064591D01*
X129908373Y-108063511D01*
X129904812Y-107993732D01*
X129939541Y-107933104D01*
X129946751Y-107926702D01*
X130033528Y-107855486D01*
X130152307Y-107710754D01*
X130179166Y-107660503D01*
X130228126Y-107610661D01*
X130296263Y-107595200D01*
X130346976Y-107609600D01*
X130443872Y-107661391D01*
X130448428Y-107663826D01*
X130627595Y-107718176D01*
X130627597Y-107718177D01*
X130645949Y-107719984D01*
X130813929Y-107736529D01*
X131000260Y-107718177D01*
X131179430Y-107663826D01*
X131344554Y-107575566D01*
X131489286Y-107456787D01*
X131497285Y-107447039D01*
X131555027Y-107407706D01*
X131624871Y-107405833D01*
X131684641Y-107442019D01*
X131688991Y-107447039D01*
X131748413Y-107519445D01*
X131893144Y-107638223D01*
X131893147Y-107638225D01*
X132056410Y-107725490D01*
X132058270Y-107726484D01*
X132237437Y-107780834D01*
X132237439Y-107780835D01*
X132255791Y-107782642D01*
X132423771Y-107799187D01*
X132610102Y-107780835D01*
X132789272Y-107726484D01*
X132954396Y-107638224D01*
X133099128Y-107519445D01*
X133217907Y-107374713D01*
X133273381Y-107270926D01*
X133322342Y-107221083D01*
X133390480Y-107205622D01*
X133456160Y-107229453D01*
X133487732Y-107263407D01*
X133550869Y-107363887D01*
X133550871Y-107363890D01*
X133670457Y-107483476D01*
X133670463Y-107483481D01*
X133813650Y-107573452D01*
X133813653Y-107573454D01*
X133813657Y-107573455D01*
X133813658Y-107573456D01*
X133875208Y-107594993D01*
X133973291Y-107629314D01*
X134141345Y-107648249D01*
X134141348Y-107648249D01*
X134141351Y-107648249D01*
X134309407Y-107629313D01*
X134309409Y-107629313D01*
X134445858Y-107581567D01*
X134515637Y-107578005D01*
X134574494Y-107610927D01*
X134583470Y-107619903D01*
X134583476Y-107619908D01*
X134726663Y-107709879D01*
X134726666Y-107709881D01*
X134726670Y-107709882D01*
X134726671Y-107709883D01*
X134774114Y-107726484D01*
X134886304Y-107765741D01*
X135054358Y-107784676D01*
X135054361Y-107784676D01*
X135054364Y-107784676D01*
X135222417Y-107765741D01*
X135226612Y-107764273D01*
X135382051Y-107709883D01*
X135382053Y-107709881D01*
X135382055Y-107709881D01*
X135382058Y-107709879D01*
X135525245Y-107619908D01*
X135525246Y-107619907D01*
X135525251Y-107619904D01*
X135644838Y-107500317D01*
X135655417Y-107483481D01*
X135734813Y-107357124D01*
X135734815Y-107357121D01*
X135734815Y-107357119D01*
X135734817Y-107357117D01*
X135790674Y-107197486D01*
X135790674Y-107197485D01*
X135790675Y-107197483D01*
X135809610Y-107029429D01*
X135809610Y-107029424D01*
X135790674Y-106861369D01*
X135788293Y-106854563D01*
X135734817Y-106701737D01*
X135708039Y-106659120D01*
X135701320Y-106648427D01*
X135682319Y-106581191D01*
X135701318Y-106516484D01*
X135713828Y-106496577D01*
X135769685Y-106336946D01*
X135786340Y-106189131D01*
X135788621Y-106168889D01*
X135788621Y-106168884D01*
X135769686Y-106000830D01*
X135727138Y-105879235D01*
X135713828Y-105841197D01*
X135713827Y-105841195D01*
X135711528Y-105834625D01*
X135714382Y-105833626D01*
X135705204Y-105777948D01*
X135711235Y-105752118D01*
X135743449Y-105660057D01*
X135743856Y-105656448D01*
X135762385Y-105492000D01*
X135762385Y-105491995D01*
X135743450Y-105323941D01*
X135697935Y-105193866D01*
X135687592Y-105164308D01*
X135687591Y-105164307D01*
X135687590Y-105164303D01*
X135687588Y-105164300D01*
X135597617Y-105021113D01*
X135597612Y-105021107D01*
X135478026Y-104901521D01*
X135478020Y-104901516D01*
X135334833Y-104811545D01*
X135334830Y-104811543D01*
X135175192Y-104755683D01*
X135007139Y-104736749D01*
X135007133Y-104736749D01*
X134839078Y-104755684D01*
X134751276Y-104786407D01*
X134681497Y-104789968D01*
X134620870Y-104755239D01*
X134589430Y-104696953D01*
X134587945Y-104690446D01*
X134570926Y-104641809D01*
X134532087Y-104530812D01*
X134532086Y-104530811D01*
X134532085Y-104530807D01*
X134532083Y-104530804D01*
X134442112Y-104387617D01*
X134442107Y-104387611D01*
X134322521Y-104268025D01*
X134322515Y-104268020D01*
X134179328Y-104178049D01*
X134179325Y-104178047D01*
X134019687Y-104122187D01*
X133851634Y-104103253D01*
X133851628Y-104103253D01*
X133683574Y-104122187D01*
X133523936Y-104178047D01*
X133523933Y-104178049D01*
X133380746Y-104268020D01*
X133380740Y-104268025D01*
X133261154Y-104387611D01*
X133261149Y-104387617D01*
X133171178Y-104530804D01*
X133171176Y-104530807D01*
X133115316Y-104690445D01*
X133096382Y-104858499D01*
X133096382Y-104858504D01*
X133115317Y-105026559D01*
X133153867Y-105136730D01*
X133157428Y-105206509D01*
X133122699Y-105267136D01*
X133060706Y-105299363D01*
X132991130Y-105292957D01*
X132970852Y-105282677D01*
X132918411Y-105249726D01*
X132918413Y-105249726D01*
X132758775Y-105193866D01*
X132590722Y-105174932D01*
X132590716Y-105174932D01*
X132422662Y-105193866D01*
X132263024Y-105249726D01*
X132263021Y-105249728D01*
X132119834Y-105339699D01*
X132058281Y-105401252D01*
X131996957Y-105434736D01*
X131927266Y-105429751D01*
X131892087Y-105407143D01*
X131891123Y-105408353D01*
X131885674Y-105404007D01*
X131742487Y-105314036D01*
X131742484Y-105314034D01*
X131582846Y-105258174D01*
X131414793Y-105239240D01*
X131414787Y-105239240D01*
X131246732Y-105258175D01*
X131082420Y-105315670D01*
X131012641Y-105319231D01*
X130952014Y-105284502D01*
X130936472Y-105264600D01*
X130931860Y-105257260D01*
X130920158Y-105238636D01*
X130800571Y-105119049D01*
X130800565Y-105119044D01*
X130657378Y-105029073D01*
X130657375Y-105029071D01*
X130497737Y-104973211D01*
X130329684Y-104954277D01*
X130329678Y-104954277D01*
X130161624Y-104973211D01*
X130001986Y-105029071D01*
X130001983Y-105029073D01*
X129858793Y-105119046D01*
X129851646Y-105126193D01*
X129790321Y-105159675D01*
X129720630Y-105154688D01*
X129697995Y-105143501D01*
X129692793Y-105140232D01*
X129588680Y-105074813D01*
X129549595Y-105050254D01*
X129549597Y-105050254D01*
X129389959Y-104994394D01*
X129221906Y-104975460D01*
X129221900Y-104975460D01*
X129053846Y-104994394D01*
X128894208Y-105050254D01*
X128894205Y-105050256D01*
X128751018Y-105140227D01*
X128751012Y-105140232D01*
X128631426Y-105259818D01*
X128631421Y-105259824D01*
X128541451Y-105403009D01*
X128541447Y-105403017D01*
X128505837Y-105504784D01*
X128465115Y-105561559D01*
X128429752Y-105580869D01*
X128345720Y-105610273D01*
X128345712Y-105610277D01*
X128202527Y-105700247D01*
X128202521Y-105700252D01*
X128082935Y-105819838D01*
X128082930Y-105819844D01*
X127992959Y-105963031D01*
X127992957Y-105963034D01*
X127937097Y-106122672D01*
X127918163Y-106290726D01*
X127918163Y-106290731D01*
X127926388Y-106363731D01*
X127914334Y-106432553D01*
X127869141Y-106482608D01*
X127801967Y-106524816D01*
X127696163Y-106630620D01*
X127634840Y-106664104D01*
X127565148Y-106659120D01*
X127509215Y-106617248D01*
X127484798Y-106551784D01*
X127491442Y-106501979D01*
X127493332Y-106496577D01*
X127496313Y-106488059D01*
X127511057Y-106357203D01*
X127515249Y-106320002D01*
X127515249Y-106319997D01*
X127496314Y-106151943D01*
X127450142Y-106019991D01*
X127440456Y-105992310D01*
X127440455Y-105992309D01*
X127440454Y-105992305D01*
X127440452Y-105992302D01*
X127350481Y-105849115D01*
X127350476Y-105849109D01*
X127305175Y-105803808D01*
X127271690Y-105742485D01*
X127269636Y-105702242D01*
X127269861Y-105700252D01*
X127275007Y-105654577D01*
X127275007Y-105654574D01*
X127256072Y-105486520D01*
X127221767Y-105388483D01*
X127200214Y-105326887D01*
X127200213Y-105326885D01*
X127200212Y-105326882D01*
X127200210Y-105326879D01*
X127110239Y-105183692D01*
X127110234Y-105183686D01*
X126990648Y-105064100D01*
X126990642Y-105064095D01*
X126847455Y-104974124D01*
X126847452Y-104974122D01*
X126687814Y-104918262D01*
X126519761Y-104899328D01*
X126519755Y-104899328D01*
X126351701Y-104918262D01*
X126192063Y-104974122D01*
X126192060Y-104974124D01*
X126048873Y-105064095D01*
X126048867Y-105064100D01*
X125929281Y-105183686D01*
X125929276Y-105183692D01*
X125839306Y-105326877D01*
X125839302Y-105326885D01*
X125817748Y-105388483D01*
X125777026Y-105445259D01*
X125741664Y-105464568D01*
X125705915Y-105477077D01*
X125705909Y-105477080D01*
X125562724Y-105567050D01*
X125562718Y-105567055D01*
X125443132Y-105686641D01*
X125443127Y-105686647D01*
X125353157Y-105829832D01*
X125353154Y-105829838D01*
X125337577Y-105874355D01*
X125296854Y-105931130D01*
X125231901Y-105956876D01*
X125206659Y-105956619D01*
X125197877Y-105955630D01*
X125197870Y-105955630D01*
X125029814Y-105974565D01*
X125018920Y-105978377D01*
X124949141Y-105981936D01*
X124888515Y-105947206D01*
X124856290Y-105885211D01*
X124862697Y-105815636D01*
X124872972Y-105795367D01*
X124896952Y-105757204D01*
X124952809Y-105597573D01*
X124952809Y-105597572D01*
X124952810Y-105597570D01*
X124971745Y-105429516D01*
X124971745Y-105429511D01*
X124956108Y-105290729D01*
X124968162Y-105221907D01*
X125015511Y-105170527D01*
X125038371Y-105159804D01*
X125096805Y-105139358D01*
X125096808Y-105139355D01*
X125096812Y-105139354D01*
X125239999Y-105049383D01*
X125240000Y-105049382D01*
X125240005Y-105049379D01*
X125359592Y-104929792D01*
X125380096Y-104897161D01*
X125449567Y-104786599D01*
X125449570Y-104786593D01*
X125449571Y-104786592D01*
X125505428Y-104626961D01*
X125505428Y-104626959D01*
X125506937Y-104620349D01*
X125541044Y-104559369D01*
X125602705Y-104526510D01*
X125613946Y-104524718D01*
X125719711Y-104512801D01*
X125719713Y-104512800D01*
X125719715Y-104512800D01*
X125879346Y-104456943D01*
X125879348Y-104456941D01*
X125879350Y-104456941D01*
X125879353Y-104456939D01*
X126022540Y-104366968D01*
X126022541Y-104366967D01*
X126022546Y-104366964D01*
X126142133Y-104247377D01*
X126170482Y-104202260D01*
X126232108Y-104104184D01*
X126232110Y-104104181D01*
X126232110Y-104104179D01*
X126232112Y-104104177D01*
X126287969Y-103944546D01*
X126287969Y-103944545D01*
X126287970Y-103944543D01*
X126306905Y-103776489D01*
X126306905Y-103776484D01*
X126287970Y-103608430D01*
X126252371Y-103506694D01*
X126232112Y-103448797D01*
X126232111Y-103448796D01*
X126232110Y-103448792D01*
X126232108Y-103448789D01*
X126142137Y-103305602D01*
X126142132Y-103305596D01*
X126022546Y-103186010D01*
X126022540Y-103186005D01*
X125879353Y-103096034D01*
X125879350Y-103096032D01*
X125719712Y-103040172D01*
X125551659Y-103021238D01*
X125551653Y-103021238D01*
X125383599Y-103040172D01*
X125223961Y-103096032D01*
X125223958Y-103096034D01*
X125080771Y-103186005D01*
X125080765Y-103186010D01*
X124961179Y-103305596D01*
X124961174Y-103305602D01*
X124871203Y-103448789D01*
X124871200Y-103448794D01*
X124815340Y-103608437D01*
X124813829Y-103615056D01*
X124779715Y-103676031D01*
X124718050Y-103708882D01*
X124706825Y-103710671D01*
X124601058Y-103722587D01*
X124441420Y-103778447D01*
X124441417Y-103778449D01*
X124298230Y-103868420D01*
X124298224Y-103868425D01*
X124178638Y-103988011D01*
X124178633Y-103988017D01*
X124088662Y-104131204D01*
X124086348Y-104136011D01*
X124039527Y-104187872D01*
X123972100Y-104206187D01*
X123933672Y-104199255D01*
X123782617Y-104146399D01*
X123614563Y-104127464D01*
X123614557Y-104127464D01*
X123446503Y-104146398D01*
X123286865Y-104202258D01*
X123286862Y-104202260D01*
X123143675Y-104292231D01*
X123143669Y-104292236D01*
X123024083Y-104411822D01*
X123024078Y-104411828D01*
X122934107Y-104555015D01*
X122934105Y-104555018D01*
X122878245Y-104714656D01*
X122859311Y-104882710D01*
X122859311Y-104882715D01*
X121804810Y-104882715D01*
X121795653Y-104801442D01*
X121743497Y-104652388D01*
X121739795Y-104641809D01*
X121739794Y-104641808D01*
X121739793Y-104641804D01*
X121739791Y-104641801D01*
X121649820Y-104498614D01*
X121649815Y-104498608D01*
X121530229Y-104379022D01*
X121530223Y-104379017D01*
X121387036Y-104289046D01*
X121387033Y-104289044D01*
X121227395Y-104233184D01*
X121059342Y-104214250D01*
X121059336Y-104214250D01*
X120891282Y-104233184D01*
X120731644Y-104289044D01*
X120731641Y-104289046D01*
X120588454Y-104379017D01*
X120588448Y-104379022D01*
X120468862Y-104498608D01*
X120468857Y-104498614D01*
X120378886Y-104641801D01*
X120378884Y-104641804D01*
X120323024Y-104801443D01*
X120307325Y-104940777D01*
X120280258Y-105005191D01*
X120271787Y-105014573D01*
X120158603Y-105127758D01*
X120158597Y-105127765D01*
X120068626Y-105270952D01*
X120068624Y-105270955D01*
X120012764Y-105430593D01*
X119993830Y-105598647D01*
X119993830Y-105598652D01*
X120012764Y-105766706D01*
X120068624Y-105926344D01*
X120068626Y-105926347D01*
X120158597Y-106069534D01*
X120158602Y-106069540D01*
X120278188Y-106189126D01*
X120278194Y-106189131D01*
X120421381Y-106279102D01*
X120421384Y-106279104D01*
X120421388Y-106279105D01*
X120421389Y-106279106D01*
X120538258Y-106320000D01*
X120581023Y-106334964D01*
X120701517Y-106348539D01*
X120741759Y-106353074D01*
X120806173Y-106380140D01*
X120845728Y-106437735D01*
X120847866Y-106507572D01*
X120811908Y-106567478D01*
X120793850Y-106581286D01*
X120754824Y-106605808D01*
X120754819Y-106605812D01*
X120635233Y-106725398D01*
X120635228Y-106725404D01*
X120545257Y-106868591D01*
X120545252Y-106868602D01*
X120498959Y-107000900D01*
X120458238Y-107057676D01*
X120393285Y-107083423D01*
X120340963Y-107076986D01*
X120220904Y-107034975D01*
X120052847Y-107016040D01*
X120052841Y-107016040D01*
X119884786Y-107034975D01*
X119839786Y-107050721D01*
X119770007Y-107054282D01*
X119709380Y-107019553D01*
X119681790Y-106974633D01*
X119681159Y-106972830D01*
X119655456Y-106899373D01*
X119655455Y-106899370D01*
X119655452Y-106899365D01*
X119565481Y-106756178D01*
X119565476Y-106756172D01*
X119445890Y-106636586D01*
X119445884Y-106636581D01*
X119302697Y-106546610D01*
X119302692Y-106546607D01*
X119159712Y-106496577D01*
X119143059Y-106490750D01*
X119143058Y-106490749D01*
X119143050Y-106490747D01*
X119136263Y-106489198D01*
X119136558Y-106487904D01*
X119079014Y-106463722D01*
X119039461Y-106406126D01*
X119037326Y-106336289D01*
X119040274Y-106326615D01*
X119042590Y-106319997D01*
X119060928Y-106267589D01*
X119073225Y-106158454D01*
X119079864Y-106099532D01*
X119079864Y-106099527D01*
X119060929Y-105931473D01*
X119018524Y-105810288D01*
X119005071Y-105771840D01*
X119005070Y-105771839D01*
X119005069Y-105771835D01*
X119005067Y-105771832D01*
X118915096Y-105628645D01*
X118915091Y-105628639D01*
X118795505Y-105509053D01*
X118795499Y-105509048D01*
X118652312Y-105419077D01*
X118652309Y-105419075D01*
X118492671Y-105363215D01*
X118324618Y-105344281D01*
X118324612Y-105344281D01*
X118156558Y-105363215D01*
X117996920Y-105419075D01*
X117996917Y-105419077D01*
X117853730Y-105509048D01*
X117853724Y-105509053D01*
X117734138Y-105628639D01*
X117734133Y-105628645D01*
X117644162Y-105771832D01*
X117644160Y-105771835D01*
X117588300Y-105931473D01*
X117569366Y-106099527D01*
X117569366Y-106099532D01*
X116483375Y-106099532D01*
X116510105Y-106072802D01*
X116645645Y-105879231D01*
X116745513Y-105665064D01*
X116806673Y-105436809D01*
X116827269Y-105201401D01*
X116827175Y-105200332D01*
X116821459Y-105134994D01*
X116806673Y-104965993D01*
X116758605Y-104786599D01*
X116745515Y-104737745D01*
X116745514Y-104737744D01*
X116745513Y-104737738D01*
X116645645Y-104523572D01*
X116640035Y-104515559D01*
X116510104Y-104329998D01*
X116343012Y-104162907D01*
X116343006Y-104162902D01*
X116157452Y-104032976D01*
X116113827Y-103978399D01*
X116106633Y-103908901D01*
X116138156Y-103846546D01*
X116157452Y-103829826D01*
X116207794Y-103794576D01*
X116343011Y-103699896D01*
X116510105Y-103532802D01*
X116645645Y-103339231D01*
X116745513Y-103125064D01*
X116806673Y-102896809D01*
X116827269Y-102661401D01*
X116824590Y-102630786D01*
X116816407Y-102537251D01*
X116806673Y-102425993D01*
X116801937Y-102408317D01*
X118103496Y-102408317D01*
X118122430Y-102576371D01*
X118178290Y-102736009D01*
X118178292Y-102736012D01*
X118268263Y-102879199D01*
X118268268Y-102879205D01*
X118387855Y-102998792D01*
X118414371Y-103015453D01*
X118460661Y-103067786D01*
X118471618Y-103134329D01*
X118456268Y-103270570D01*
X118456268Y-103270576D01*
X118475202Y-103438630D01*
X118531062Y-103598268D01*
X118531064Y-103598271D01*
X118621035Y-103741458D01*
X118621040Y-103741464D01*
X118740626Y-103861050D01*
X118740632Y-103861055D01*
X118883819Y-103951026D01*
X118883822Y-103951028D01*
X118883826Y-103951029D01*
X118883827Y-103951030D01*
X118895736Y-103955197D01*
X119043460Y-104006888D01*
X119211514Y-104025823D01*
X119211517Y-104025823D01*
X119211520Y-104025823D01*
X119379573Y-104006888D01*
X119383563Y-104005492D01*
X119539207Y-103951030D01*
X119539209Y-103951028D01*
X119539211Y-103951028D01*
X119539214Y-103951026D01*
X119682401Y-103861055D01*
X119682402Y-103861054D01*
X119682407Y-103861051D01*
X119801994Y-103741464D01*
X119813854Y-103722589D01*
X119891969Y-103598271D01*
X119891971Y-103598268D01*
X119891971Y-103598266D01*
X119891973Y-103598264D01*
X119947830Y-103438633D01*
X119947830Y-103438632D01*
X119947831Y-103438630D01*
X119966766Y-103270576D01*
X119966766Y-103270571D01*
X119947831Y-103102517D01*
X119891971Y-102942879D01*
X119891969Y-102942876D01*
X119801998Y-102799689D01*
X119801993Y-102799683D01*
X119682405Y-102680095D01*
X119682403Y-102680094D01*
X119655890Y-102663434D01*
X119644792Y-102650887D01*
X134493033Y-102650887D01*
X134511967Y-102818941D01*
X134567827Y-102978579D01*
X134567829Y-102978582D01*
X134657800Y-103121769D01*
X134657805Y-103121775D01*
X134777391Y-103241361D01*
X134777397Y-103241366D01*
X134920584Y-103331337D01*
X134920587Y-103331339D01*
X134920591Y-103331340D01*
X134920592Y-103331341D01*
X134943152Y-103339235D01*
X135080225Y-103387199D01*
X135248279Y-103406134D01*
X135248282Y-103406134D01*
X135248285Y-103406134D01*
X135416338Y-103387199D01*
X135416341Y-103387198D01*
X135575972Y-103331341D01*
X135575974Y-103331339D01*
X135575976Y-103331339D01*
X135575979Y-103331337D01*
X135719166Y-103241366D01*
X135719167Y-103241365D01*
X135719172Y-103241362D01*
X135838759Y-103121775D01*
X135854933Y-103096034D01*
X135928734Y-102978582D01*
X135928736Y-102978579D01*
X135928736Y-102978577D01*
X135928738Y-102978575D01*
X135984595Y-102818944D01*
X135984595Y-102818943D01*
X135984596Y-102818941D01*
X136003531Y-102650887D01*
X136003531Y-102650882D01*
X135984596Y-102482828D01*
X135928736Y-102323190D01*
X135928734Y-102323187D01*
X135838763Y-102180000D01*
X135838758Y-102179994D01*
X135719172Y-102060408D01*
X135719166Y-102060403D01*
X135575979Y-101970432D01*
X135575976Y-101970430D01*
X135416338Y-101914570D01*
X135248285Y-101895636D01*
X135248279Y-101895636D01*
X135080225Y-101914570D01*
X134920587Y-101970430D01*
X134920584Y-101970432D01*
X134777397Y-102060403D01*
X134777391Y-102060408D01*
X134657805Y-102179994D01*
X134657800Y-102180000D01*
X134567829Y-102323187D01*
X134567827Y-102323190D01*
X134511967Y-102482828D01*
X134493033Y-102650882D01*
X134493033Y-102650887D01*
X119644792Y-102650887D01*
X119609599Y-102611099D01*
X119598643Y-102544557D01*
X119613994Y-102408317D01*
X119613994Y-102408312D01*
X119595059Y-102240258D01*
X119539199Y-102080620D01*
X119539197Y-102080617D01*
X119449226Y-101937430D01*
X119449221Y-101937424D01*
X119329635Y-101817838D01*
X119329629Y-101817833D01*
X119186442Y-101727862D01*
X119186439Y-101727860D01*
X119026801Y-101672000D01*
X118858748Y-101653066D01*
X118858742Y-101653066D01*
X118690688Y-101672000D01*
X118531050Y-101727860D01*
X118531047Y-101727862D01*
X118387860Y-101817833D01*
X118387854Y-101817838D01*
X118268268Y-101937424D01*
X118268263Y-101937430D01*
X118178292Y-102080617D01*
X118178290Y-102080620D01*
X118122430Y-102240258D01*
X118103496Y-102408312D01*
X118103496Y-102408317D01*
X116801937Y-102408317D01*
X116753381Y-102227101D01*
X116745515Y-102197745D01*
X116745514Y-102197744D01*
X116745513Y-102197738D01*
X116645645Y-101983572D01*
X116636445Y-101970432D01*
X116510104Y-101789998D01*
X116343012Y-101622907D01*
X116343005Y-101622902D01*
X116312544Y-101601573D01*
X123670168Y-101601573D01*
X123689102Y-101769627D01*
X123744962Y-101929265D01*
X123744964Y-101929268D01*
X123834935Y-102072455D01*
X123834940Y-102072461D01*
X123954526Y-102192047D01*
X123954532Y-102192052D01*
X124097719Y-102282023D01*
X124097722Y-102282025D01*
X124097726Y-102282026D01*
X124097727Y-102282027D01*
X124170330Y-102307431D01*
X124257360Y-102337885D01*
X124425414Y-102356820D01*
X124425417Y-102356820D01*
X124425420Y-102356820D01*
X124593473Y-102337885D01*
X124593476Y-102337884D01*
X124753107Y-102282027D01*
X124753109Y-102282025D01*
X124753111Y-102282025D01*
X124753114Y-102282023D01*
X124896301Y-102192052D01*
X124896302Y-102192051D01*
X124896307Y-102192048D01*
X125015894Y-102072461D01*
X125015898Y-102072455D01*
X125105869Y-101929268D01*
X125105871Y-101929265D01*
X125105871Y-101929263D01*
X125105873Y-101929261D01*
X125161730Y-101769630D01*
X125161730Y-101769629D01*
X125161731Y-101769627D01*
X125180666Y-101601573D01*
X125180666Y-101601568D01*
X125161731Y-101433514D01*
X125118827Y-101310901D01*
X125105873Y-101273881D01*
X125105872Y-101273880D01*
X125105871Y-101273876D01*
X125105869Y-101273873D01*
X125015898Y-101130686D01*
X125015893Y-101130680D01*
X124896307Y-101011094D01*
X124896301Y-101011089D01*
X124753114Y-100921118D01*
X124753111Y-100921116D01*
X124593473Y-100865256D01*
X124425420Y-100846322D01*
X124425414Y-100846322D01*
X124257360Y-100865256D01*
X124097722Y-100921116D01*
X124097719Y-100921118D01*
X123954532Y-101011089D01*
X123954526Y-101011094D01*
X123834940Y-101130680D01*
X123834935Y-101130686D01*
X123744964Y-101273873D01*
X123744962Y-101273876D01*
X123689102Y-101433514D01*
X123670168Y-101601568D01*
X123670168Y-101601573D01*
X116312544Y-101601573D01*
X116149444Y-101487368D01*
X116149440Y-101487366D01*
X116149438Y-101487365D01*
X115935273Y-101387498D01*
X115935269Y-101387497D01*
X115935265Y-101387495D01*
X115707023Y-101326339D01*
X115707013Y-101326337D01*
X115471611Y-101305742D01*
X115471609Y-101305742D01*
X115236206Y-101326337D01*
X115236196Y-101326339D01*
X115007954Y-101387495D01*
X115007945Y-101387499D01*
X114793781Y-101487365D01*
X114793779Y-101487366D01*
X114600210Y-101622904D01*
X114478283Y-101744831D01*
X114416960Y-101778315D01*
X114347268Y-101773331D01*
X114291335Y-101731459D01*
X114274420Y-101700482D01*
X114225407Y-101569072D01*
X114225403Y-101569065D01*
X114139157Y-101453856D01*
X114139154Y-101453853D01*
X114023945Y-101367607D01*
X114023938Y-101367603D01*
X113889092Y-101317309D01*
X113889093Y-101317309D01*
X113829493Y-101310902D01*
X113829491Y-101310901D01*
X113829483Y-101310901D01*
X113829474Y-101310901D01*
X112033739Y-101310901D01*
X112033733Y-101310902D01*
X111974126Y-101317309D01*
X111839281Y-101367603D01*
X111839274Y-101367607D01*
X111724065Y-101453853D01*
X111724062Y-101453856D01*
X111637816Y-101569065D01*
X111637812Y-101569072D01*
X111587518Y-101703918D01*
X111581111Y-101763517D01*
X111581110Y-101763536D01*
X111581110Y-103559271D01*
X111581111Y-103559277D01*
X111587518Y-103618884D01*
X111637812Y-103753729D01*
X111637816Y-103753736D01*
X111724062Y-103868945D01*
X111724065Y-103868948D01*
X111839274Y-103955194D01*
X111839281Y-103955198D01*
X111970691Y-104004211D01*
X112026625Y-104046082D01*
X112051042Y-104111546D01*
X112036190Y-104179819D01*
X112015040Y-104208074D01*
X111893115Y-104329998D01*
X111804300Y-104456841D01*
X111749723Y-104500465D01*
X111680224Y-104507658D01*
X111617870Y-104476136D01*
X111582456Y-104415906D01*
X111579505Y-104399600D01*
X111570117Y-104316276D01*
X111530221Y-104202260D01*
X111514259Y-104156642D01*
X111514258Y-104156641D01*
X111514257Y-104156637D01*
X111514255Y-104156634D01*
X111424284Y-104013447D01*
X111424279Y-104013441D01*
X111304693Y-103893855D01*
X111304687Y-103893850D01*
X111161500Y-103803879D01*
X111161497Y-103803877D01*
X111001859Y-103748017D01*
X110833806Y-103729083D01*
X110833800Y-103729083D01*
X110665746Y-103748017D01*
X110506108Y-103803877D01*
X110506105Y-103803879D01*
X110362918Y-103893850D01*
X110362912Y-103893855D01*
X110243326Y-104013441D01*
X110243321Y-104013447D01*
X110153350Y-104156634D01*
X110153348Y-104156637D01*
X110097488Y-104316275D01*
X110078554Y-104484329D01*
X110078554Y-104484334D01*
X110097488Y-104652388D01*
X110153348Y-104812026D01*
X110153350Y-104812029D01*
X110243321Y-104955216D01*
X110243326Y-104955222D01*
X110362912Y-105074808D01*
X110362918Y-105074813D01*
X110506105Y-105164784D01*
X110506108Y-105164786D01*
X110506112Y-105164787D01*
X110506113Y-105164788D01*
X110578716Y-105190192D01*
X110665746Y-105220646D01*
X110833800Y-105239581D01*
X110833803Y-105239581D01*
X110833806Y-105239581D01*
X111001859Y-105220646D01*
X111031112Y-105210410D01*
X111161493Y-105164788D01*
X111161495Y-105164786D01*
X111161497Y-105164786D01*
X111161500Y-105164784D01*
X111304687Y-105074813D01*
X111304687Y-105074812D01*
X111304693Y-105074809D01*
X111373196Y-105006305D01*
X111434515Y-104972823D01*
X111504207Y-104977807D01*
X111560141Y-105019678D01*
X111584558Y-105085142D01*
X111584402Y-105104796D01*
X111575951Y-105201398D01*
X111575951Y-105201401D01*
X111596546Y-105436804D01*
X111596548Y-105436814D01*
X111657704Y-105665056D01*
X111657706Y-105665060D01*
X111657707Y-105665064D01*
X111736309Y-105833626D01*
X111757575Y-105879231D01*
X111757577Y-105879235D01*
X111854293Y-106017359D01*
X111893111Y-106072797D01*
X111893116Y-106072803D01*
X112048949Y-106228636D01*
X112082434Y-106289959D01*
X112077450Y-106359651D01*
X112035578Y-106415584D01*
X111970114Y-106440001D01*
X111920313Y-106433359D01*
X111790081Y-106387788D01*
X111622028Y-106368854D01*
X111622022Y-106368854D01*
X111453968Y-106387788D01*
X111294330Y-106443648D01*
X111294327Y-106443650D01*
X111151140Y-106533621D01*
X111151134Y-106533626D01*
X111031548Y-106653212D01*
X111031543Y-106653218D01*
X110941572Y-106796405D01*
X110941570Y-106796408D01*
X110885710Y-106956046D01*
X110866776Y-107124100D01*
X110866776Y-107124105D01*
X110885710Y-107292159D01*
X110941570Y-107451797D01*
X110941572Y-107451800D01*
X111031543Y-107594987D01*
X111031548Y-107594993D01*
X111151134Y-107714579D01*
X111151140Y-107714584D01*
X111294327Y-107804555D01*
X111294330Y-107804557D01*
X111294334Y-107804558D01*
X111294335Y-107804559D01*
X111453966Y-107860416D01*
X111486879Y-107864124D01*
X111551290Y-107891189D01*
X111590847Y-107948783D01*
X111595493Y-107971499D01*
X111595607Y-107971479D01*
X111596341Y-107975645D01*
X111596523Y-107976532D01*
X111596547Y-107976809D01*
X111657704Y-108205056D01*
X111657706Y-108205060D01*
X111657707Y-108205064D01*
X111733892Y-108368443D01*
X111757575Y-108419231D01*
X111757577Y-108419235D01*
X111855805Y-108559518D01*
X111893111Y-108612797D01*
X111893116Y-108612803D01*
X111988998Y-108708685D01*
X112022483Y-108770008D01*
X112017499Y-108839700D01*
X111975627Y-108895633D01*
X111942272Y-108913407D01*
X111791244Y-108966254D01*
X111791233Y-108966259D01*
X111648046Y-109056230D01*
X111593204Y-109111072D01*
X111531880Y-109144556D01*
X111462188Y-109139571D01*
X111406255Y-109097700D01*
X111400530Y-109089363D01*
X111335034Y-108985128D01*
X111215446Y-108865540D01*
X111215440Y-108865535D01*
X111072253Y-108775564D01*
X111072250Y-108775562D01*
X110912612Y-108719702D01*
X110744559Y-108700768D01*
X110744553Y-108700768D01*
X110576499Y-108719702D01*
X110416861Y-108775562D01*
X110416858Y-108775564D01*
X110273671Y-108865535D01*
X110273665Y-108865540D01*
X110154079Y-108985126D01*
X110154074Y-108985132D01*
X110064103Y-109128319D01*
X110064101Y-109128322D01*
X110008241Y-109287960D01*
X109989307Y-109456014D01*
X109989307Y-109456019D01*
X110008242Y-109624074D01*
X110048875Y-109740197D01*
X110052436Y-109809975D01*
X110036827Y-109847123D01*
X109976278Y-109943485D01*
X109920418Y-110103121D01*
X109901484Y-110271175D01*
X109901484Y-110271180D01*
X109387821Y-110271180D01*
X109390223Y-110052037D01*
X109040678Y-108872609D01*
X109040503Y-108802743D01*
X109078129Y-108743870D01*
X109118610Y-108720337D01*
X109244090Y-108676431D01*
X109244092Y-108676430D01*
X109244097Y-108676427D01*
X109387284Y-108586456D01*
X109387285Y-108586455D01*
X109387290Y-108586452D01*
X109506877Y-108466865D01*
X109518035Y-108449107D01*
X109596852Y-108323672D01*
X109596854Y-108323669D01*
X109596854Y-108323667D01*
X109596856Y-108323665D01*
X109652713Y-108164034D01*
X109652713Y-108164033D01*
X109652714Y-108164031D01*
X109671649Y-107995977D01*
X109671649Y-107995972D01*
X109652714Y-107827918D01*
X109614314Y-107718177D01*
X109596856Y-107668285D01*
X109596855Y-107668284D01*
X109596854Y-107668280D01*
X109596852Y-107668277D01*
X109506881Y-107525090D01*
X109506876Y-107525084D01*
X109387290Y-107405498D01*
X109387284Y-107405493D01*
X109244097Y-107315522D01*
X109244094Y-107315520D01*
X109084456Y-107259660D01*
X108916403Y-107240726D01*
X108916397Y-107240726D01*
X108748343Y-107259660D01*
X108588707Y-107315520D01*
X108499381Y-107371648D01*
X108432144Y-107390648D01*
X108365309Y-107370280D01*
X108325833Y-107328326D01*
X108312617Y-107305273D01*
X108166687Y-107050721D01*
X108024047Y-106801908D01*
X108024044Y-106801905D01*
X107967248Y-106773870D01*
X107915846Y-106726545D01*
X107898190Y-106658943D01*
X107919886Y-106592527D01*
X107934443Y-106575008D01*
X108021200Y-106488252D01*
X108021204Y-106488246D01*
X108111175Y-106345059D01*
X108111177Y-106345056D01*
X108111177Y-106345054D01*
X108111179Y-106345052D01*
X108167036Y-106185421D01*
X108167036Y-106185420D01*
X108167037Y-106185418D01*
X108185972Y-106017364D01*
X108185972Y-106017359D01*
X108167037Y-105849305D01*
X108114879Y-105700247D01*
X108111179Y-105689672D01*
X108111178Y-105689671D01*
X108111177Y-105689667D01*
X108111175Y-105689664D01*
X108021204Y-105546477D01*
X108021199Y-105546471D01*
X107901613Y-105426885D01*
X107901607Y-105426880D01*
X107758420Y-105336909D01*
X107758409Y-105336904D01*
X107595066Y-105279747D01*
X107548340Y-105250387D01*
X107540865Y-105242912D01*
X107507380Y-105181589D01*
X107504546Y-105155231D01*
X107504546Y-104238303D01*
X107524231Y-104171264D01*
X107577035Y-104125509D01*
X107614661Y-104115082D01*
X107622105Y-104114244D01*
X107781736Y-104058387D01*
X107781739Y-104058384D01*
X107781743Y-104058383D01*
X107924930Y-103968412D01*
X107924930Y-103968411D01*
X107924936Y-103968408D01*
X108002272Y-103891071D01*
X108063591Y-103857589D01*
X108130905Y-103861714D01*
X108284081Y-103915313D01*
X108452139Y-103934249D01*
X108452142Y-103934249D01*
X108452145Y-103934249D01*
X108620198Y-103915314D01*
X108620201Y-103915313D01*
X108779832Y-103859456D01*
X108779834Y-103859454D01*
X108779836Y-103859454D01*
X108779839Y-103859452D01*
X108923026Y-103769481D01*
X108923027Y-103769480D01*
X108923032Y-103769477D01*
X109042619Y-103649890D01*
X109042623Y-103649884D01*
X109132594Y-103506697D01*
X109132596Y-103506694D01*
X109132596Y-103506692D01*
X109132598Y-103506690D01*
X109188455Y-103347059D01*
X109188455Y-103347058D01*
X109188456Y-103347056D01*
X109207391Y-103179002D01*
X109207391Y-103178997D01*
X109188456Y-103010943D01*
X109132596Y-102851305D01*
X109132594Y-102851302D01*
X109042623Y-102708115D01*
X109042618Y-102708109D01*
X108923032Y-102588523D01*
X108923026Y-102588518D01*
X108779839Y-102498547D01*
X108779836Y-102498545D01*
X108620198Y-102442685D01*
X108452145Y-102423751D01*
X108452139Y-102423751D01*
X108284085Y-102442685D01*
X108124449Y-102498545D01*
X107986491Y-102585230D01*
X107919254Y-102604230D01*
X107852419Y-102583862D01*
X107807205Y-102530594D01*
X107797968Y-102461338D01*
X107805733Y-102433335D01*
X107883805Y-102242323D01*
X107927387Y-102187719D01*
X107957625Y-102172202D01*
X108104080Y-102120956D01*
X108104082Y-102120955D01*
X108104087Y-102120952D01*
X108247274Y-102030981D01*
X108247275Y-102030980D01*
X108247280Y-102030977D01*
X108366867Y-101911390D01*
X108453616Y-101773331D01*
X108456842Y-101768197D01*
X108456844Y-101768194D01*
X108456844Y-101768192D01*
X108456846Y-101768190D01*
X108512703Y-101608559D01*
X108512703Y-101608558D01*
X108512704Y-101608556D01*
X108531639Y-101440502D01*
X108531639Y-101440497D01*
X108512704Y-101272443D01*
X108499294Y-101234121D01*
X108456846Y-101112810D01*
X108423250Y-101059342D01*
X108404250Y-100992105D01*
X108413461Y-100946459D01*
X108919240Y-99709012D01*
X108962826Y-99654404D01*
X109029016Y-99632028D01*
X109034023Y-99631927D01*
X143231079Y-99631927D01*
X143298118Y-99651612D01*
G37*
%TD.AperFunction*%
%TD*%
%TA.AperFunction,Conductor*%
%TO.N,+BATT*%
G36*
X117026427Y-107780563D02*
G01*
X118167135Y-108888575D01*
X118201507Y-108949403D01*
X118203447Y-108966297D01*
X118203957Y-108966240D01*
X118223671Y-109141216D01*
X118279531Y-109300854D01*
X118279533Y-109300857D01*
X118369504Y-109444044D01*
X118369509Y-109444050D01*
X118489095Y-109563636D01*
X118489101Y-109563641D01*
X118632288Y-109653612D01*
X118632291Y-109653614D01*
X118632295Y-109653615D01*
X118632296Y-109653616D01*
X118704899Y-109679020D01*
X118791929Y-109709474D01*
X118959983Y-109728409D01*
X118959984Y-109728409D01*
X118959984Y-109728408D01*
X118959986Y-109728409D01*
X118966043Y-109727726D01*
X119034863Y-109739775D01*
X119066331Y-109761998D01*
X119315014Y-110003553D01*
X120492557Y-110868920D01*
X120534921Y-110924480D01*
X120542347Y-110982722D01*
X120536663Y-111033170D01*
X120536663Y-111033176D01*
X120555597Y-111201230D01*
X120611457Y-111360868D01*
X120611459Y-111360871D01*
X120701430Y-111504058D01*
X120701435Y-111504064D01*
X120821022Y-111623651D01*
X120861043Y-111648798D01*
X120907334Y-111701132D01*
X120918291Y-111739908D01*
X120935850Y-111895757D01*
X120991710Y-112055395D01*
X120991712Y-112055398D01*
X121081683Y-112198585D01*
X121081688Y-112198591D01*
X121201274Y-112318177D01*
X121201280Y-112318182D01*
X121344467Y-112408153D01*
X121344470Y-112408155D01*
X121344474Y-112408156D01*
X121344475Y-112408157D01*
X121417078Y-112433561D01*
X121504108Y-112464015D01*
X121672162Y-112482950D01*
X121672165Y-112482950D01*
X121672168Y-112482950D01*
X121840221Y-112464015D01*
X121840224Y-112464014D01*
X121999855Y-112408157D01*
X122078735Y-112358592D01*
X122145972Y-112339592D01*
X122212807Y-112359959D01*
X122241651Y-112386268D01*
X122244858Y-112390289D01*
X122364444Y-112509875D01*
X122364450Y-112509880D01*
X122507637Y-112599851D01*
X122507640Y-112599853D01*
X122507644Y-112599854D01*
X122507645Y-112599855D01*
X122571927Y-112622348D01*
X122667278Y-112655713D01*
X122835332Y-112674648D01*
X122835335Y-112674648D01*
X122835338Y-112674648D01*
X123003394Y-112655712D01*
X123003395Y-112655712D01*
X123111827Y-112617770D01*
X123181606Y-112614208D01*
X123218754Y-112629818D01*
X123230388Y-112637128D01*
X123263034Y-112657641D01*
X123422665Y-112713498D01*
X123462559Y-112717993D01*
X123590721Y-112732434D01*
X123590724Y-112732434D01*
X123590727Y-112732434D01*
X123758783Y-112713498D01*
X123758785Y-112713498D01*
X123860387Y-112677945D01*
X123918414Y-112657641D01*
X123931885Y-112649176D01*
X123999119Y-112630175D01*
X124038810Y-112637127D01*
X124097434Y-112657641D01*
X124121051Y-112665905D01*
X124296027Y-112685620D01*
X124295751Y-112688063D01*
X124351813Y-112704525D01*
X124397568Y-112757329D01*
X124407994Y-112822724D01*
X124391147Y-112972245D01*
X124391147Y-112972250D01*
X124410081Y-113140304D01*
X124465941Y-113299942D01*
X124465943Y-113299945D01*
X124555914Y-113443132D01*
X124555919Y-113443138D01*
X124675505Y-113562724D01*
X124675511Y-113562729D01*
X124818698Y-113652700D01*
X124818701Y-113652702D01*
X124818705Y-113652703D01*
X124818706Y-113652704D01*
X124891309Y-113678108D01*
X124978339Y-113708562D01*
X125146393Y-113727497D01*
X125146396Y-113727497D01*
X125146399Y-113727497D01*
X125314452Y-113708562D01*
X125314455Y-113708561D01*
X125474086Y-113652704D01*
X125474088Y-113652702D01*
X125474090Y-113652702D01*
X125474093Y-113652700D01*
X125617280Y-113562729D01*
X125617281Y-113562728D01*
X125617286Y-113562725D01*
X125736873Y-113443138D01*
X125737227Y-113442575D01*
X125826848Y-113299945D01*
X125826850Y-113299942D01*
X125826850Y-113299940D01*
X125826852Y-113299938D01*
X125882709Y-113140307D01*
X125882709Y-113140306D01*
X125882710Y-113140304D01*
X125901645Y-112972250D01*
X125901645Y-112972245D01*
X125889424Y-112863785D01*
X125901478Y-112794963D01*
X125948827Y-112743584D01*
X126012212Y-112725903D01*
X126645939Y-112723714D01*
X126712336Y-112742718D01*
X126839224Y-112822448D01*
X126854286Y-112831912D01*
X126854284Y-112831912D01*
X126854288Y-112831913D01*
X126854289Y-112831914D01*
X126926892Y-112857318D01*
X127013922Y-112887772D01*
X127181976Y-112906707D01*
X127181979Y-112906707D01*
X127181982Y-112906707D01*
X127350035Y-112887772D01*
X127354253Y-112886296D01*
X127509669Y-112831914D01*
X127652869Y-112741935D01*
X127652872Y-112741931D01*
X127657541Y-112738998D01*
X127723080Y-112719993D01*
X128302011Y-112717993D01*
X128368409Y-112736998D01*
X128377514Y-112742719D01*
X128405472Y-112760286D01*
X128504574Y-112794963D01*
X128565105Y-112816144D01*
X128733159Y-112835079D01*
X128733162Y-112835079D01*
X128733165Y-112835079D01*
X128845263Y-112822448D01*
X128901221Y-112816143D01*
X129060852Y-112760286D01*
X129102673Y-112734007D01*
X129168215Y-112715001D01*
X132822759Y-112702378D01*
X132889865Y-112721831D01*
X132935802Y-112774476D01*
X132947124Y-112822448D01*
X133018799Y-115083378D01*
X133001248Y-115151007D01*
X132949921Y-115198413D01*
X132894409Y-115211306D01*
X120388750Y-115165747D01*
X120321783Y-115145819D01*
X120318771Y-115143805D01*
X117008720Y-112859495D01*
X116964725Y-112805216D01*
X116960491Y-112793434D01*
X116931450Y-112697701D01*
X116919128Y-112674648D01*
X116838546Y-112523890D01*
X116838543Y-112523886D01*
X116835159Y-112518821D01*
X116836800Y-112517724D01*
X116813041Y-112461789D01*
X116824830Y-112392921D01*
X116835524Y-112376279D01*
X116835159Y-112376035D01*
X116838540Y-112370972D01*
X116838546Y-112370966D01*
X116931450Y-112197155D01*
X116988660Y-112008560D01*
X117007977Y-111812428D01*
X116988660Y-111616296D01*
X116931450Y-111427701D01*
X116931447Y-111427697D01*
X116931447Y-111427694D01*
X116838549Y-111253895D01*
X116838545Y-111253888D01*
X116713519Y-111101544D01*
X116561175Y-110976518D01*
X116561168Y-110976514D01*
X116387369Y-110883616D01*
X116387363Y-110883614D01*
X116198768Y-110826404D01*
X116198765Y-110826403D01*
X116002636Y-110807087D01*
X115806506Y-110826403D01*
X115617902Y-110883616D01*
X115444103Y-110976514D01*
X115439035Y-110979901D01*
X115437941Y-110978264D01*
X115381973Y-111002024D01*
X115313107Y-110990223D01*
X115296479Y-110979537D01*
X115296237Y-110979901D01*
X115291168Y-110976514D01*
X115117365Y-110883614D01*
X115069971Y-110869237D01*
X115011533Y-110830939D01*
X114983077Y-110767126D01*
X114981979Y-110752190D01*
X114961659Y-109165565D01*
X114980484Y-109098282D01*
X115032697Y-109051855D01*
X115101723Y-109041026D01*
X115117742Y-109044205D01*
X115221610Y-109072035D01*
X115221610Y-108176902D01*
X115329295Y-108226081D01*
X115435847Y-108241401D01*
X115507373Y-108241401D01*
X115613925Y-108226081D01*
X115721610Y-108176902D01*
X115721610Y-109072034D01*
X115935093Y-109014834D01*
X115935102Y-109014830D01*
X116149188Y-108915001D01*
X116342692Y-108779506D01*
X116509715Y-108612483D01*
X116645210Y-108418979D01*
X116745039Y-108204893D01*
X116745043Y-108204884D01*
X116806177Y-107976727D01*
X116806179Y-107976716D01*
X116816504Y-107858704D01*
X116841956Y-107793635D01*
X116898547Y-107752656D01*
X116968309Y-107748778D01*
X117026427Y-107780563D01*
G37*
%TD.AperFunction*%
%TD*%
M02*
