%TF.GenerationSoftware,KiCad,Pcbnew,7.0.6*%
%TF.CreationDate,2023-11-06T16:55:08+11:00*%
%TF.ProjectId,turbidity_sensor_v2,74757262-6964-4697-9479-5f73656e736f,0.1.0*%
%TF.SameCoordinates,Original*%
%TF.FileFunction,Copper,L1,Top*%
%TF.FilePolarity,Positive*%
%FSLAX46Y46*%
G04 Gerber Fmt 4.6, Leading zero omitted, Abs format (unit mm)*
G04 Created by KiCad (PCBNEW 7.0.6) date 2023-11-06 16:55:08*
%MOMM*%
%LPD*%
G01*
G04 APERTURE LIST*
G04 Aperture macros list*
%AMRoundRect*
0 Rectangle with rounded corners*
0 $1 Rounding radius*
0 $2 $3 $4 $5 $6 $7 $8 $9 X,Y pos of 4 corners*
0 Add a 4 corners polygon primitive as box body*
4,1,4,$2,$3,$4,$5,$6,$7,$8,$9,$2,$3,0*
0 Add four circle primitives for the rounded corners*
1,1,$1+$1,$2,$3*
1,1,$1+$1,$4,$5*
1,1,$1+$1,$6,$7*
1,1,$1+$1,$8,$9*
0 Add four rect primitives between the rounded corners*
20,1,$1+$1,$2,$3,$4,$5,0*
20,1,$1+$1,$4,$5,$6,$7,0*
20,1,$1+$1,$6,$7,$8,$9,0*
20,1,$1+$1,$8,$9,$2,$3,0*%
%AMFreePoly0*
4,1,6,1.000000,0.000000,0.500000,-0.750000,-0.500000,-0.750000,-0.500000,0.750000,0.500000,0.750000,1.000000,0.000000,1.000000,0.000000,$1*%
%AMFreePoly1*
4,1,6,0.500000,-0.750000,-0.650000,-0.750000,-0.150000,0.000000,-0.650000,0.750000,0.500000,0.750000,0.500000,-0.750000,0.500000,-0.750000,$1*%
%AMFreePoly2*
4,1,14,0.318306,0.106694,0.381694,0.043306,0.400000,-0.000888,0.400000,-0.062500,0.381694,-0.106694,0.337500,-0.125000,-0.337500,-0.125000,-0.381694,-0.106694,-0.400000,-0.062500,-0.400000,0.062500,-0.381694,0.106694,-0.337500,0.125000,0.274112,0.125000,0.318306,0.106694,0.318306,0.106694,$1*%
%AMFreePoly3*
4,1,14,0.381694,0.106694,0.400000,0.062500,0.400000,0.000888,0.381694,-0.043306,0.318306,-0.106694,0.274112,-0.125000,-0.337500,-0.125000,-0.381694,-0.106694,-0.400000,-0.062500,-0.400000,0.062500,-0.381694,0.106694,-0.337500,0.125000,0.337500,0.125000,0.381694,0.106694,0.381694,0.106694,$1*%
%AMFreePoly4*
4,1,14,0.106694,0.381694,0.125000,0.337500,0.125000,-0.337500,0.106694,-0.381694,0.062500,-0.400000,-0.062500,-0.400000,-0.106694,-0.381694,-0.125000,-0.337500,-0.125000,0.274112,-0.106694,0.318306,-0.043306,0.381694,0.000888,0.400000,0.062500,0.400000,0.106694,0.381694,0.106694,0.381694,$1*%
%AMFreePoly5*
4,1,14,0.043306,0.381694,0.106694,0.318306,0.125000,0.274112,0.125000,-0.337500,0.106694,-0.381694,0.062500,-0.400000,-0.062500,-0.400000,-0.106694,-0.381694,-0.125000,-0.337500,-0.125000,0.337500,-0.106694,0.381694,-0.062500,0.400000,-0.000888,0.400000,0.043306,0.381694,0.043306,0.381694,$1*%
%AMFreePoly6*
4,1,14,0.381694,0.106694,0.400000,0.062500,0.400000,-0.062500,0.381694,-0.106694,0.337500,-0.125000,-0.274112,-0.125000,-0.318306,-0.106694,-0.381694,-0.043306,-0.400000,0.000888,-0.400000,0.062500,-0.381694,0.106694,-0.337500,0.125000,0.337500,0.125000,0.381694,0.106694,0.381694,0.106694,$1*%
%AMFreePoly7*
4,1,14,0.381694,0.106694,0.400000,0.062500,0.400000,-0.062500,0.381694,-0.106694,0.337500,-0.125000,-0.337500,-0.125000,-0.381694,-0.106694,-0.400000,-0.062500,-0.400000,-0.000888,-0.381694,0.043306,-0.318306,0.106694,-0.274112,0.125000,0.337500,0.125000,0.381694,0.106694,0.381694,0.106694,$1*%
%AMFreePoly8*
4,1,14,0.106694,0.381694,0.125000,0.337500,0.125000,-0.274112,0.106694,-0.318306,0.043306,-0.381694,-0.000888,-0.400000,-0.062500,-0.400000,-0.106694,-0.381694,-0.125000,-0.337500,-0.125000,0.337500,-0.106694,0.381694,-0.062500,0.400000,0.062500,0.400000,0.106694,0.381694,0.106694,0.381694,$1*%
%AMFreePoly9*
4,1,14,0.106694,0.381694,0.125000,0.337500,0.125000,-0.337500,0.106694,-0.381694,0.062500,-0.400000,0.000888,-0.400000,-0.043306,-0.381694,-0.106694,-0.318306,-0.125000,-0.274112,-0.125000,0.337500,-0.106694,0.381694,-0.062500,0.400000,0.062500,0.400000,0.106694,0.381694,0.106694,0.381694,$1*%
G04 Aperture macros list end*
%TA.AperFunction,SMDPad,CuDef*%
%ADD10RoundRect,0.200000X0.200000X0.275000X-0.200000X0.275000X-0.200000X-0.275000X0.200000X-0.275000X0*%
%TD*%
%TA.AperFunction,SMDPad,CuDef*%
%ADD11R,1.900000X0.400000*%
%TD*%
%TA.AperFunction,SMDPad,CuDef*%
%ADD12RoundRect,0.100000X-0.130000X-0.100000X0.130000X-0.100000X0.130000X0.100000X-0.130000X0.100000X0*%
%TD*%
%TA.AperFunction,ComponentPad*%
%ADD13R,1.000000X1.000000*%
%TD*%
%TA.AperFunction,ComponentPad*%
%ADD14O,1.000000X1.000000*%
%TD*%
%TA.AperFunction,SMDPad,CuDef*%
%ADD15RoundRect,0.225000X-0.225000X-0.250000X0.225000X-0.250000X0.225000X0.250000X-0.225000X0.250000X0*%
%TD*%
%TA.AperFunction,SMDPad,CuDef*%
%ADD16RoundRect,0.200000X-0.275000X0.200000X-0.275000X-0.200000X0.275000X-0.200000X0.275000X0.200000X0*%
%TD*%
%TA.AperFunction,SMDPad,CuDef*%
%ADD17RoundRect,0.135000X-0.185000X0.135000X-0.185000X-0.135000X0.185000X-0.135000X0.185000X0.135000X0*%
%TD*%
%TA.AperFunction,SMDPad,CuDef*%
%ADD18RoundRect,0.140000X0.140000X0.170000X-0.140000X0.170000X-0.140000X-0.170000X0.140000X-0.170000X0*%
%TD*%
%TA.AperFunction,SMDPad,CuDef*%
%ADD19RoundRect,0.140000X0.170000X-0.140000X0.170000X0.140000X-0.170000X0.140000X-0.170000X-0.140000X0*%
%TD*%
%TA.AperFunction,SMDPad,CuDef*%
%ADD20RoundRect,0.093750X0.093750X0.106250X-0.093750X0.106250X-0.093750X-0.106250X0.093750X-0.106250X0*%
%TD*%
%TA.AperFunction,SMDPad,CuDef*%
%ADD21R,1.000000X1.600000*%
%TD*%
%TA.AperFunction,SMDPad,CuDef*%
%ADD22RoundRect,0.100000X0.130000X0.100000X-0.130000X0.100000X-0.130000X-0.100000X0.130000X-0.100000X0*%
%TD*%
%TA.AperFunction,SMDPad,CuDef*%
%ADD23RoundRect,0.200000X-0.200000X-0.275000X0.200000X-0.275000X0.200000X0.275000X-0.200000X0.275000X0*%
%TD*%
%TA.AperFunction,ComponentPad*%
%ADD24R,1.800000X1.800000*%
%TD*%
%TA.AperFunction,ComponentPad*%
%ADD25C,1.800000*%
%TD*%
%TA.AperFunction,SMDPad,CuDef*%
%ADD26RoundRect,0.225000X-0.250000X0.225000X-0.250000X-0.225000X0.250000X-0.225000X0.250000X0.225000X0*%
%TD*%
%TA.AperFunction,SMDPad,CuDef*%
%ADD27RoundRect,0.225000X0.225000X0.250000X-0.225000X0.250000X-0.225000X-0.250000X0.225000X-0.250000X0*%
%TD*%
%TA.AperFunction,SMDPad,CuDef*%
%ADD28RoundRect,0.140000X-0.170000X0.140000X-0.170000X-0.140000X0.170000X-0.140000X0.170000X0.140000X0*%
%TD*%
%TA.AperFunction,SMDPad,CuDef*%
%ADD29RoundRect,0.075000X-0.075000X0.650000X-0.075000X-0.650000X0.075000X-0.650000X0.075000X0.650000X0*%
%TD*%
%TA.AperFunction,SMDPad,CuDef*%
%ADD30RoundRect,0.150000X0.512500X0.150000X-0.512500X0.150000X-0.512500X-0.150000X0.512500X-0.150000X0*%
%TD*%
%TA.AperFunction,SMDPad,CuDef*%
%ADD31RoundRect,0.140000X-0.140000X-0.170000X0.140000X-0.170000X0.140000X0.170000X-0.140000X0.170000X0*%
%TD*%
%TA.AperFunction,SMDPad,CuDef*%
%ADD32RoundRect,0.050100X-0.099900X0.174900X-0.099900X-0.174900X0.099900X-0.174900X0.099900X0.174900X0*%
%TD*%
%TA.AperFunction,SMDPad,CuDef*%
%ADD33RoundRect,0.050100X-0.099900X0.324900X-0.099900X-0.324900X0.099900X-0.324900X0.099900X0.324900X0*%
%TD*%
%TA.AperFunction,SMDPad,CuDef*%
%ADD34RoundRect,0.050350X-0.424650X0.449650X-0.424650X-0.449650X0.424650X-0.449650X0.424650X0.449650X0*%
%TD*%
%TA.AperFunction,SMDPad,CuDef*%
%ADD35RoundRect,0.250000X0.450000X-0.262500X0.450000X0.262500X-0.450000X0.262500X-0.450000X-0.262500X0*%
%TD*%
%TA.AperFunction,SMDPad,CuDef*%
%ADD36RoundRect,0.200000X0.275000X-0.200000X0.275000X0.200000X-0.275000X0.200000X-0.275000X-0.200000X0*%
%TD*%
%TA.AperFunction,SMDPad,CuDef*%
%ADD37RoundRect,0.150000X-0.512500X-0.150000X0.512500X-0.150000X0.512500X0.150000X-0.512500X0.150000X0*%
%TD*%
%TA.AperFunction,SMDPad,CuDef*%
%ADD38RoundRect,0.250000X-0.650000X0.325000X-0.650000X-0.325000X0.650000X-0.325000X0.650000X0.325000X0*%
%TD*%
%TA.AperFunction,SMDPad,CuDef*%
%ADD39RoundRect,0.075000X-0.650000X-0.075000X0.650000X-0.075000X0.650000X0.075000X-0.650000X0.075000X0*%
%TD*%
%TA.AperFunction,SMDPad,CuDef*%
%ADD40FreePoly0,0.000000*%
%TD*%
%TA.AperFunction,SMDPad,CuDef*%
%ADD41FreePoly1,0.000000*%
%TD*%
%TA.AperFunction,ComponentPad*%
%ADD42R,1.350000X1.350000*%
%TD*%
%TA.AperFunction,ComponentPad*%
%ADD43O,1.350000X1.350000*%
%TD*%
%TA.AperFunction,SMDPad,CuDef*%
%ADD44RoundRect,0.135000X0.185000X-0.135000X0.185000X0.135000X-0.185000X0.135000X-0.185000X-0.135000X0*%
%TD*%
%TA.AperFunction,SMDPad,CuDef*%
%ADD45FreePoly2,0.000000*%
%TD*%
%TA.AperFunction,SMDPad,CuDef*%
%ADD46RoundRect,0.062500X-0.337500X-0.062500X0.337500X-0.062500X0.337500X0.062500X-0.337500X0.062500X0*%
%TD*%
%TA.AperFunction,SMDPad,CuDef*%
%ADD47FreePoly3,0.000000*%
%TD*%
%TA.AperFunction,SMDPad,CuDef*%
%ADD48FreePoly4,0.000000*%
%TD*%
%TA.AperFunction,SMDPad,CuDef*%
%ADD49RoundRect,0.062500X-0.062500X-0.337500X0.062500X-0.337500X0.062500X0.337500X-0.062500X0.337500X0*%
%TD*%
%TA.AperFunction,SMDPad,CuDef*%
%ADD50FreePoly5,0.000000*%
%TD*%
%TA.AperFunction,SMDPad,CuDef*%
%ADD51FreePoly6,0.000000*%
%TD*%
%TA.AperFunction,SMDPad,CuDef*%
%ADD52FreePoly7,0.000000*%
%TD*%
%TA.AperFunction,SMDPad,CuDef*%
%ADD53FreePoly8,0.000000*%
%TD*%
%TA.AperFunction,SMDPad,CuDef*%
%ADD54FreePoly9,0.000000*%
%TD*%
%TA.AperFunction,SMDPad,CuDef*%
%ADD55R,2.400000X2.400000*%
%TD*%
%TA.AperFunction,SMDPad,CuDef*%
%ADD56RoundRect,0.225000X0.250000X-0.225000X0.250000X0.225000X-0.250000X0.225000X-0.250000X-0.225000X0*%
%TD*%
%TA.AperFunction,SMDPad,CuDef*%
%ADD57RoundRect,0.150000X0.150000X-0.512500X0.150000X0.512500X-0.150000X0.512500X-0.150000X-0.512500X0*%
%TD*%
%TA.AperFunction,SMDPad,CuDef*%
%ADD58RoundRect,0.250000X-0.450000X0.262500X-0.450000X-0.262500X0.450000X-0.262500X0.450000X0.262500X0*%
%TD*%
%TA.AperFunction,ViaPad*%
%ADD59C,0.500000*%
%TD*%
%TA.AperFunction,ViaPad*%
%ADD60C,0.900000*%
%TD*%
%TA.AperFunction,Conductor*%
%ADD61C,0.812800*%
%TD*%
%TA.AperFunction,Conductor*%
%ADD62C,0.508000*%
%TD*%
%TA.AperFunction,Conductor*%
%ADD63C,0.250000*%
%TD*%
%TA.AperFunction,Conductor*%
%ADD64C,0.254000*%
%TD*%
%TA.AperFunction,Conductor*%
%ADD65C,0.381000*%
%TD*%
%TA.AperFunction,Conductor*%
%ADD66C,0.152400*%
%TD*%
%TA.AperFunction,Conductor*%
%ADD67C,2.000000*%
%TD*%
%TA.AperFunction,Conductor*%
%ADD68C,1.200000*%
%TD*%
G04 APERTURE END LIST*
D10*
%TO.P,R21,1*%
%TO.N,Net-(D2-K)*%
X109011107Y-110563839D03*
%TO.P,R21,2*%
%TO.N,TIA_SIGNAL*%
X107361107Y-110563839D03*
%TD*%
D11*
%TO.P,Y1,1,1*%
%TO.N,Net-(U3-XTAL1{slash}PB6)*%
X119132190Y-110489158D03*
%TO.P,Y1,2,2*%
%TO.N,GND*%
X119132190Y-111689158D03*
%TO.P,Y1,3,3*%
%TO.N,Net-(U3-XTAL2{slash}PB7)*%
X119132190Y-112889158D03*
%TD*%
D12*
%TO.P,C37,1*%
%TO.N,Net-(U10A--)*%
X133781227Y-107624240D03*
%TO.P,C37,2*%
%TO.N,Net-(C37-Pad2)*%
X134421227Y-107624240D03*
%TD*%
D13*
%TO.P,J1,1,Pin_1*%
%TO.N,MISO*%
X113462636Y-113082428D03*
D14*
%TO.P,J1,2,Pin_2*%
%TO.N,+3.3V*%
X113462636Y-111812428D03*
%TO.P,J1,3,Pin_3*%
%TO.N,CLKO*%
X114732636Y-113082428D03*
%TO.P,J1,4,Pin_4*%
%TO.N,MOSI*%
X114732636Y-111812428D03*
%TO.P,J1,5,Pin_5*%
%TO.N,RST*%
X116002636Y-113082428D03*
%TO.P,J1,6,Pin_6*%
%TO.N,GND*%
X116002636Y-111812428D03*
%TD*%
D15*
%TO.P,C24,1*%
%TO.N,+3.3V*%
X135654180Y-110775743D03*
%TO.P,C24,2*%
%TO.N,GND*%
X137204180Y-110775743D03*
%TD*%
D16*
%TO.P,R9,1*%
%TO.N,TIA_SIGNAL*%
X104956477Y-110396840D03*
%TO.P,R9,2*%
%TO.N,Net-(U6-AINP)*%
X104956477Y-112046840D03*
%TD*%
%TO.P,R16,1*%
%TO.N,Net-(Q1-G)*%
X141101825Y-112909595D03*
%TO.P,R16,2*%
%TO.N,GND*%
X141101825Y-114559595D03*
%TD*%
D17*
%TO.P,R22,1*%
%TO.N,TIA_SIGNAL*%
X106163884Y-110221800D03*
%TO.P,R22,2*%
%TO.N,Net-(JP1-B)*%
X106163884Y-111241800D03*
%TD*%
D18*
%TO.P,C32,1*%
%TO.N,Net-(D2-A)*%
X101935301Y-111138842D03*
%TO.P,C32,2*%
%TO.N,GND*%
X100975301Y-111138842D03*
%TD*%
D19*
%TO.P,C5,1*%
%TO.N,+3.3V*%
X137797426Y-102599870D03*
%TO.P,C5,2*%
%TO.N,GND*%
X137797426Y-101639870D03*
%TD*%
D20*
%TO.P,U7,1,SCL*%
%TO.N,SCL*%
X125020282Y-103832709D03*
%TO.P,U7,2,GND*%
%TO.N,GND*%
X125020282Y-103182709D03*
%TO.P,U7,3,ALERT*%
X125020282Y-102532709D03*
%TO.P,U7,4,ADD0*%
X123245282Y-102532709D03*
%TO.P,U7,5,V+*%
%TO.N,+3.3V*%
X123245282Y-103182709D03*
%TO.P,U7,6,SDA*%
%TO.N,SDA*%
X123245282Y-103832709D03*
D21*
%TO.P,U7,7*%
%TO.N,N/C*%
X124132782Y-103182709D03*
%TD*%
D19*
%TO.P,C26,1*%
%TO.N,+3.3V*%
X106814972Y-105118553D03*
%TO.P,C26,2*%
%TO.N,GND*%
X106814972Y-104158553D03*
%TD*%
D22*
%TO.P,C35,1*%
%TO.N,Net-(D2-K)*%
X109139455Y-111667668D03*
%TO.P,C35,2*%
%TO.N,TIA_SIGNAL*%
X108499455Y-111667668D03*
%TD*%
D16*
%TO.P,R4,1*%
%TO.N,+3.3V*%
X117222799Y-101934363D03*
%TO.P,R4,2*%
%TO.N,RST*%
X117222799Y-103584363D03*
%TD*%
D23*
%TO.P,R1,1*%
%TO.N,+BATT*%
X115043340Y-108994719D03*
%TO.P,R1,2*%
%TO.N,LED_PWR_FAULT*%
X116693340Y-108994719D03*
%TD*%
D24*
%TO.P,D3,1,K*%
%TO.N,Net-(D3-K)*%
X145658563Y-108880210D03*
D25*
%TO.P,D3,2,A*%
%TO.N,LED_PWR*%
X145658563Y-106340210D03*
%TD*%
D22*
%TO.P,C30,1*%
%TO.N,Net-(C30-Pad1)*%
X133749400Y-114774286D03*
%TO.P,C30,2*%
%TO.N,Net-(U10B--)*%
X133109400Y-114774286D03*
%TD*%
D26*
%TO.P,C25,1*%
%TO.N,Net-(U11-C1+)*%
X102096082Y-101541824D03*
%TO.P,C25,2*%
%TO.N,Net-(U11-C1-)*%
X102096082Y-103091824D03*
%TD*%
D27*
%TO.P,C34,1*%
%TO.N,TIA_PWR*%
X110087775Y-104279415D03*
%TO.P,C34,2*%
%TO.N,GND*%
X108537775Y-104279415D03*
%TD*%
D28*
%TO.P,C33,1*%
%TO.N,TIA_PWR*%
X110947200Y-106375200D03*
%TO.P,C33,2*%
%TO.N,GND*%
X110947200Y-107335200D03*
%TD*%
D29*
%TO.P,U10,1*%
%TO.N,Net-(C37-Pad2)*%
X134193215Y-109024479D03*
%TO.P,U10,2,-*%
%TO.N,Net-(U10A--)*%
X133693215Y-109024479D03*
%TO.P,U10,3,+*%
%TO.N,LED_ANALOG_SIGNAL*%
X133193215Y-109024479D03*
%TO.P,U10,4,V-*%
%TO.N,GND*%
X132693215Y-109024479D03*
%TO.P,U10,5,SHDN*%
%TO.N,LED_2_EN*%
X132193215Y-109024479D03*
%TO.P,U10,6,SHDN*%
%TO.N,LED_1_EN*%
X132193215Y-113424479D03*
%TO.P,U10,7,+*%
%TO.N,LED_ANALOG_SIGNAL*%
X132693215Y-113424479D03*
%TO.P,U10,8,-*%
%TO.N,Net-(U10B--)*%
X133193215Y-113424479D03*
%TO.P,U10,9*%
%TO.N,Net-(C30-Pad1)*%
X133693215Y-113424479D03*
%TO.P,U10,10,V+*%
%TO.N,+3.3V*%
X134193215Y-113424479D03*
%TD*%
D26*
%TO.P,C18,1*%
%TO.N,Net-(U6-AINP)*%
X103446605Y-112834052D03*
%TO.P,C18,2*%
%TO.N,Net-(U6-AINN)*%
X103446605Y-114384052D03*
%TD*%
D28*
%TO.P,C6,1*%
%TO.N,+3.3V*%
X119746465Y-108506034D03*
%TO.P,C6,2*%
%TO.N,GND*%
X119746465Y-109466034D03*
%TD*%
D18*
%TO.P,C31,1*%
%TO.N,Net-(D2-A)*%
X102985416Y-110137529D03*
%TO.P,C31,2*%
%TO.N,GND*%
X102025416Y-110137529D03*
%TD*%
D30*
%TO.P,U12,1,VOUT*%
%TO.N,Net-(D2-A)*%
X104747534Y-108875397D03*
%TO.P,U12,2,GND*%
%TO.N,Net-(U11-VOUT)*%
X104747534Y-107925397D03*
%TO.P,U12,3,VIN*%
%TO.N,GND*%
X104747534Y-106975397D03*
%TO.P,U12,4,EN*%
%TO.N,NEG_VOLT_EN*%
X102472534Y-106975397D03*
%TO.P,U12,5,C1+*%
%TO.N,Net-(U12-C1+)*%
X102472534Y-107925397D03*
%TO.P,U12,6,C1-*%
%TO.N,Net-(U12-C1-)*%
X102472534Y-108875397D03*
%TD*%
D31*
%TO.P,C23,1*%
%TO.N,+3.3V*%
X135629483Y-111978319D03*
%TO.P,C23,2*%
%TO.N,GND*%
X136589483Y-111978319D03*
%TD*%
D24*
%TO.P,D2,1,K*%
%TO.N,Net-(D2-K)*%
X101251799Y-115329787D03*
D25*
%TO.P,D2,2,A*%
%TO.N,Net-(D2-A)*%
X101251799Y-112789787D03*
%TD*%
D27*
%TO.P,C16,1*%
%TO.N,+3.3V*%
X108387044Y-116442840D03*
%TO.P,C16,2*%
%TO.N,GND*%
X106837044Y-116442840D03*
%TD*%
D32*
%TO.P,Q2,1,D*%
%TO.N,Net-(D3-K)*%
X141378652Y-108095255D03*
%TO.P,Q2,2,D*%
X140728652Y-108095255D03*
%TO.P,Q2,3,G*%
%TO.N,Net-(Q2-G)*%
X140078652Y-108095255D03*
%TO.P,Q2,4,S*%
%TO.N,Net-(Q2-S-Pad4)*%
X140078652Y-110045255D03*
%TO.P,Q2,5,D*%
%TO.N,Net-(D3-K)*%
X140728652Y-110045255D03*
%TO.P,Q2,6,D*%
X141378652Y-110045255D03*
D33*
%TO.P,Q2,7,S*%
%TO.N,Net-(Q2-S-Pad4)*%
X140078652Y-109165255D03*
D34*
%TO.P,Q2,8,D*%
%TO.N,Net-(D3-K)*%
X141053652Y-109070255D03*
%TD*%
D35*
%TO.P,R26,1*%
%TO.N,Net-(Q2-S-Pad4)*%
X138449462Y-108825738D03*
%TO.P,R26,2*%
%TO.N,GND*%
X138449462Y-107000738D03*
%TD*%
D36*
%TO.P,R6,1*%
%TO.N,SCL*%
X126371024Y-103898558D03*
%TO.P,R6,2*%
%TO.N,+3.3V*%
X126371024Y-102248558D03*
%TD*%
D23*
%TO.P,R24,1*%
%TO.N,Net-(Q2-G)*%
X135983349Y-105441549D03*
%TO.P,R24,2*%
%TO.N,GND*%
X137633349Y-105441549D03*
%TD*%
D19*
%TO.P,C3,1*%
%TO.N,Net-(U3-AREF)*%
X126421689Y-109552343D03*
%TO.P,C3,2*%
%TO.N,GND*%
X126421689Y-108592343D03*
%TD*%
D26*
%TO.P,C28,1*%
%TO.N,Net-(U12-C1+)*%
X100798730Y-107432386D03*
%TO.P,C28,2*%
%TO.N,Net-(U12-C1-)*%
X100798730Y-108982386D03*
%TD*%
D16*
%TO.P,R23,1*%
%TO.N,Net-(Q2-G)*%
X136181014Y-107302063D03*
%TO.P,R23,2*%
%TO.N,Net-(C37-Pad2)*%
X136181014Y-108952063D03*
%TD*%
D37*
%TO.P,U13,1*%
%TO.N,TIA_SIGNAL*%
X107218900Y-107101600D03*
%TO.P,U13,2,V-*%
%TO.N,GND*%
X107218900Y-108051600D03*
%TO.P,U13,3,+*%
%TO.N,TIA_BIAS*%
X107218900Y-109001600D03*
%TO.P,U13,4,-*%
%TO.N,Net-(D2-K)*%
X109493900Y-109001600D03*
%TO.P,U13,5,V+*%
%TO.N,TIA_PWR*%
X109493900Y-107101600D03*
%TD*%
D10*
%TO.P,R25,1*%
%TO.N,Net-(Q2-S-Pad4)*%
X140595196Y-111279440D03*
%TO.P,R25,2*%
%TO.N,Net-(U10A--)*%
X138945196Y-111279440D03*
%TD*%
D38*
%TO.P,C27,1*%
%TO.N,Net-(C27-Pad1)*%
X131947378Y-102074239D03*
%TO.P,C27,2*%
%TO.N,GND*%
X131947378Y-105024239D03*
%TD*%
D39*
%TO.P,U6,1,REF*%
%TO.N,+3.3VADC*%
X106731668Y-112944565D03*
%TO.P,U6,2,AVDD*%
%TO.N,+3.3V*%
X106731668Y-113444565D03*
%TO.P,U6,3,AINP*%
%TO.N,Net-(U6-AINP)*%
X106731668Y-113944565D03*
%TO.P,U6,4,AINN*%
%TO.N,Net-(U6-AINN)*%
X106731668Y-114444565D03*
%TO.P,U6,5,GND*%
%TO.N,GND*%
X106731668Y-114944565D03*
%TO.P,U6,6,CONVST*%
%TO.N,SS*%
X111131668Y-114944565D03*
%TO.P,U6,7,DOUT*%
%TO.N,MISO*%
X111131668Y-114444565D03*
%TO.P,U6,8,SCLK*%
%TO.N,CLKO*%
X111131668Y-113944565D03*
%TO.P,U6,9,DIN*%
%TO.N,+3.3V*%
X111131668Y-113444565D03*
%TO.P,U6,10,DVDD*%
X111131668Y-112944565D03*
%TD*%
D23*
%TO.P,R13,1*%
%TO.N,+3.3VADC*%
X128418257Y-101123055D03*
%TO.P,R13,2*%
%TO.N,Net-(C27-Pad1)*%
X130068257Y-101123055D03*
%TD*%
D35*
%TO.P,R18,1*%
%TO.N,Net-(Q1-S-Pad4)*%
X135925761Y-116587637D03*
%TO.P,R18,2*%
%TO.N,GND*%
X135925761Y-114762637D03*
%TD*%
D40*
%TO.P,JP1,1,A*%
%TO.N,Net-(D2-K)*%
X103246077Y-116360263D03*
D41*
%TO.P,JP1,2,B*%
%TO.N,Net-(JP1-B)*%
X104696077Y-116360263D03*
%TD*%
D42*
%TO.P,J3,1,Pin_1*%
%TO.N,WKE*%
X112931610Y-102661401D03*
D43*
%TO.P,J3,2,Pin_2*%
%TO.N,GND*%
X114931610Y-102661401D03*
%TO.P,J3,3,Pin_3*%
%TO.N,TX*%
X112931610Y-104661401D03*
%TO.P,J3,4,Pin_4*%
%TO.N,RST*%
X114931610Y-104661401D03*
%TO.P,J3,5,Pin_5*%
%TO.N,RX*%
X112931610Y-106661401D03*
%TO.P,J3,6,Pin_6*%
%TO.N,+BATT*%
X114931610Y-106661401D03*
%TD*%
D24*
%TO.P,D1,1,K*%
%TO.N,Net-(D1-K)*%
X145658563Y-115439646D03*
D25*
%TO.P,D1,2,A*%
%TO.N,LED_PWR*%
X145658563Y-112899646D03*
%TD*%
D32*
%TO.P,Q1,1,D*%
%TO.N,Net-(D1-K)*%
X143788240Y-114911426D03*
%TO.P,Q1,2,D*%
X143138240Y-114911426D03*
%TO.P,Q1,3,G*%
%TO.N,Net-(Q1-G)*%
X142488240Y-114911426D03*
%TO.P,Q1,4,S*%
%TO.N,Net-(Q1-S-Pad4)*%
X142488240Y-116861426D03*
%TO.P,Q1,5,D*%
%TO.N,Net-(D1-K)*%
X143138240Y-116861426D03*
%TO.P,Q1,6,D*%
X143788240Y-116861426D03*
D33*
%TO.P,Q1,7,S*%
%TO.N,Net-(Q1-S-Pad4)*%
X142488240Y-115981426D03*
D34*
%TO.P,Q1,8,D*%
%TO.N,Net-(D1-K)*%
X143463240Y-115886426D03*
%TD*%
D10*
%TO.P,R17,1*%
%TO.N,Net-(Q1-S-Pad4)*%
X133693537Y-115874549D03*
%TO.P,R17,2*%
%TO.N,Net-(U10B--)*%
X132043537Y-115874549D03*
%TD*%
D44*
%TO.P,R5,1*%
%TO.N,+3.3V*%
X112682219Y-116145815D03*
%TO.P,R5,2*%
%TO.N,SS*%
X112682219Y-115125815D03*
%TD*%
D45*
%TO.P,U3,1,PD3*%
%TO.N,WKE*%
X121266412Y-107837195D03*
D46*
%TO.P,U3,2,PD4*%
%TO.N,LED_PWR_EN*%
X121266412Y-108287195D03*
%TO.P,U3,3,VCC*%
%TO.N,+3.3V*%
X121266412Y-108737195D03*
%TO.P,U3,4,GND*%
%TO.N,GND*%
X121266412Y-109187195D03*
%TO.P,U3,5,XTAL1/PB6*%
%TO.N,Net-(U3-XTAL1{slash}PB6)*%
X121266412Y-109637195D03*
%TO.P,U3,6,XTAL2/PB7*%
%TO.N,Net-(U3-XTAL2{slash}PB7)*%
X121266412Y-110087195D03*
D47*
%TO.P,U3,7,PD5*%
%TO.N,LED_PWR_FAULT*%
X121266412Y-110537195D03*
D48*
%TO.P,U3,8,PD6*%
%TO.N,LED_2_EN*%
X121866412Y-111137195D03*
D49*
%TO.P,U3,9,PD7*%
%TO.N,LED_1_EN*%
X122316412Y-111137195D03*
%TO.P,U3,10,PB0*%
%TO.N,REF_BUFFER_EN*%
X122766412Y-111137195D03*
%TO.P,U3,11,PB1*%
%TO.N,unconnected-(U3-PB1-Pad11)*%
X123216412Y-111137195D03*
%TO.P,U3,12,PB2*%
%TO.N,SS*%
X123666412Y-111137195D03*
%TO.P,U3,13,PB3*%
%TO.N,MOSI*%
X124116412Y-111137195D03*
D50*
%TO.P,U3,14,PB4*%
%TO.N,MISO*%
X124566412Y-111137195D03*
D51*
%TO.P,U3,15,PB5*%
%TO.N,CLKO*%
X125166412Y-110537195D03*
D46*
%TO.P,U3,16,AVCC*%
%TO.N,+3.3V*%
X125166412Y-110087195D03*
%TO.P,U3,17,AREF*%
%TO.N,Net-(U3-AREF)*%
X125166412Y-109637195D03*
%TO.P,U3,18,GND*%
%TO.N,GND*%
X125166412Y-109187195D03*
%TO.P,U3,19,PC0*%
%TO.N,unconnected-(U3-PC0-Pad19)*%
X125166412Y-108737195D03*
%TO.P,U3,20,PC1*%
%TO.N,REF_EN*%
X125166412Y-108287195D03*
D52*
%TO.P,U3,21,PC2*%
%TO.N,LED_DIGITAL_SIGNAL*%
X125166412Y-107837195D03*
D53*
%TO.P,U3,22,PC3*%
%TO.N,TIA_PWR_EN*%
X124566412Y-107237195D03*
D49*
%TO.P,U3,23,PC4*%
%TO.N,SDA*%
X124116412Y-107237195D03*
%TO.P,U3,24,PC5*%
%TO.N,SCL*%
X123666412Y-107237195D03*
%TO.P,U3,25,~{RESET}/PC6*%
%TO.N,RST*%
X123216412Y-107237195D03*
%TO.P,U3,26,PD0*%
%TO.N,TX*%
X122766412Y-107237195D03*
%TO.P,U3,27,PD1*%
%TO.N,RX*%
X122316412Y-107237195D03*
D54*
%TO.P,U3,28,PD2*%
%TO.N,NEG_VOLT_EN*%
X121866412Y-107237195D03*
D55*
%TO.P,U3,29,GND*%
%TO.N,GND*%
X123216412Y-109187195D03*
%TD*%
D56*
%TO.P,C13,1*%
%TO.N,+3.3V*%
X111565475Y-111434083D03*
%TO.P,C13,2*%
%TO.N,GND*%
X111565475Y-109884083D03*
%TD*%
D30*
%TO.P,U1,1*%
%TO.N,LED_DIGITAL_SIGNAL*%
X136364782Y-103658484D03*
%TO.P,U1,2,V+*%
%TO.N,+3.3V*%
X136364782Y-102708484D03*
%TO.P,U1,3,GND*%
%TO.N,GND*%
X136364782Y-101758484D03*
%TO.P,U1,4*%
X134089782Y-101758484D03*
%TO.P,U1,5*%
%TO.N,LED_ANALOG_SIGNAL*%
X134089782Y-102708484D03*
%TO.P,U1,6*%
%TO.N,Net-(C27-Pad1)*%
X134089782Y-103658484D03*
%TD*%
D10*
%TO.P,R2,1*%
%TO.N,LED_PWR_EN*%
X119880237Y-105108097D03*
%TO.P,R2,2*%
%TO.N,GND*%
X118230237Y-105108097D03*
%TD*%
D19*
%TO.P,C29,1*%
%TO.N,Net-(U11-VOUT)*%
X102241463Y-105632017D03*
%TO.P,C29,2*%
%TO.N,GND*%
X102241463Y-104672017D03*
%TD*%
D10*
%TO.P,R15,1*%
%TO.N,Net-(Q1-G)*%
X137287443Y-113213108D03*
%TO.P,R15,2*%
%TO.N,Net-(C30-Pad1)*%
X135637443Y-113213108D03*
%TD*%
D57*
%TO.P,U11,1,VOUT*%
%TO.N,Net-(U11-VOUT)*%
X103588579Y-105182913D03*
%TO.P,U11,2,GND*%
%TO.N,GND*%
X104538579Y-105182913D03*
%TO.P,U11,3,VIN*%
%TO.N,+3.3V*%
X105488579Y-105182913D03*
%TO.P,U11,4,EN*%
%TO.N,NEG_VOLT_EN*%
X105488579Y-102907913D03*
%TO.P,U11,5,C1+*%
%TO.N,Net-(U11-C1+)*%
X104538579Y-102907913D03*
%TO.P,U11,6,C1-*%
%TO.N,Net-(U11-C1-)*%
X103588579Y-102907913D03*
%TD*%
D44*
%TO.P,R10,1*%
%TO.N,GND*%
X104710260Y-114640284D03*
%TO.P,R10,2*%
%TO.N,Net-(U6-AINN)*%
X104710260Y-113620284D03*
%TD*%
D58*
%TO.P,R14,1*%
%TO.N,Net-(C27-Pad1)*%
X129814085Y-102682745D03*
%TO.P,R14,2*%
%TO.N,GND*%
X129814085Y-104507745D03*
%TD*%
D36*
%TO.P,R7,1*%
%TO.N,SDA*%
X121975954Y-103855479D03*
%TO.P,R7,2*%
%TO.N,+3.3V*%
X121975954Y-102205479D03*
%TD*%
D59*
%TO.N,GND*%
X134141348Y-106893000D03*
X128673412Y-106290729D03*
X142158231Y-105485230D03*
X139818031Y-106209139D03*
X137160000Y-115617975D03*
X139754562Y-114065459D03*
X137994441Y-114021819D03*
X138016261Y-114712776D03*
X139858240Y-105398174D03*
X110801964Y-110401796D03*
X142193329Y-106935944D03*
X106299328Y-107730322D03*
X135248282Y-102650885D03*
X138889048Y-114880060D03*
X117530213Y-106080213D03*
X135054361Y-107029427D03*
X129228296Y-108392283D03*
X138601825Y-102650885D03*
X135033372Y-106168887D03*
X111622025Y-107124103D03*
X108082266Y-114252181D03*
X140602223Y-106210587D03*
X108087435Y-114861242D03*
X134204315Y-106137404D03*
X129825447Y-106316033D03*
X138396322Y-105325442D03*
X131414790Y-105994489D03*
X111318460Y-109137069D03*
X101833485Y-104173024D03*
X141066849Y-104194629D03*
X136984873Y-114129458D03*
X130329681Y-105709526D03*
X106529497Y-115456382D03*
X104538579Y-106282458D03*
X138772677Y-115618861D03*
X109974041Y-115199791D03*
X141395176Y-106171589D03*
X124425417Y-101601571D03*
X141952314Y-104265466D03*
X128272853Y-107115297D03*
D60*
X128290236Y-108239045D03*
D59*
X100665939Y-103742631D03*
X122650000Y-109150000D03*
X139749142Y-115618861D03*
X137959928Y-115547344D03*
X140016098Y-104265466D03*
X139087278Y-106103677D03*
X117691322Y-112296477D03*
X140660719Y-106935944D03*
X138410868Y-106140044D03*
X132590719Y-105930181D03*
X139761836Y-114887333D03*
X112372137Y-109347176D03*
X141374377Y-105438433D03*
X105645577Y-116521225D03*
X142181630Y-106245685D03*
X105641402Y-115411494D03*
X108911900Y-108011148D03*
X108492693Y-103050406D03*
X135007136Y-105491998D03*
X139828941Y-106972828D03*
D60*
X137607304Y-111938414D03*
D59*
X138988959Y-104241853D03*
X137139906Y-114807328D03*
D60*
X129358171Y-107180129D03*
D59*
X107454046Y-103377931D03*
X106171792Y-117090724D03*
X141426374Y-106925545D03*
D60*
X132423771Y-106844088D03*
X100939600Y-110083600D03*
D59*
X140613922Y-105391635D03*
D60*
X130813929Y-106781430D03*
D59*
X119211517Y-103270574D03*
X123850000Y-109150000D03*
X129221903Y-105730709D03*
X138896322Y-114036366D03*
X139087278Y-105354535D03*
%TO.N,+3.3VADC*%
X104075862Y-109603918D03*
X106692387Y-112534207D03*
X106687640Y-101885610D03*
X108469198Y-112978761D03*
%TO.N,+BATT*%
X130447926Y-113869119D03*
X126264533Y-114565232D03*
X131249015Y-114538523D03*
X109801581Y-113537382D03*
X126281865Y-113880440D03*
X130478704Y-114576994D03*
X122270311Y-114642175D03*
X128385855Y-114569300D03*
X128401244Y-113899896D03*
X131225933Y-113876813D03*
%TO.N,+3.3V*%
X110420011Y-105333886D03*
X118152539Y-115554170D03*
X126169015Y-110320284D03*
X116844508Y-114123031D03*
X116293780Y-102363865D03*
D60*
X134447142Y-110852979D03*
D59*
X121358180Y-101540000D03*
X119652926Y-115708056D03*
X107668182Y-105319441D03*
X109177217Y-117119774D03*
X111966007Y-115587964D03*
X137783655Y-103512762D03*
X118229482Y-114830906D03*
X127249926Y-103459491D03*
X115990621Y-114428238D03*
X118960440Y-115369507D03*
X117390803Y-114677020D03*
X116644457Y-115069429D03*
X119148260Y-108784887D03*
X117289040Y-115548185D03*
%TO.N,TIA_PWR*%
X110975181Y-104251787D03*
%TO.N,Net-(D2-K)*%
X105889990Y-111983678D03*
%TO.N,TIA_BIAS*%
X105832480Y-109198045D03*
%TO.N,MISO*%
X124761001Y-111457203D03*
X125937050Y-111878000D03*
%TO.N,CLKO*%
X112611260Y-113865399D03*
%TO.N,MOSI*%
X115038274Y-110386668D03*
X121537274Y-112427338D03*
%TO.N,TX*%
X113931811Y-107175312D03*
X118724915Y-106029390D03*
%TO.N,RX*%
X121004999Y-106507162D03*
X114141222Y-108651216D03*
%TO.N,LED_DIGITAL_SIGNAL*%
X126760000Y-106320000D03*
X133851631Y-104858502D03*
%TO.N,LED_PWR_EN*%
X118943014Y-102324047D03*
X119896763Y-107660255D03*
X120803730Y-105358162D03*
%TO.N,LED_PWR_FAULT*%
X118400000Y-108150000D03*
X121029932Y-110975633D03*
X116894820Y-109938398D03*
%TO.N,LED_2_EN*%
X131484445Y-112355555D03*
X124477124Y-112961904D03*
%TO.N,LED_1_EN*%
X130520024Y-112203601D03*
X122095166Y-111970028D03*
%TO.N,SS*%
X113390783Y-114864773D03*
X123518192Y-111927007D03*
%TO.N,REF_EN*%
X114146844Y-114961413D03*
%TO.N,TIA_PWR_EN*%
X125340989Y-106685682D03*
%TO.N,SDA*%
X126033609Y-106157532D03*
X124769115Y-104458902D03*
%TO.N,SCL*%
X125551656Y-103776487D03*
X126519758Y-105654577D03*
%TO.N,NEG_VOLT_EN*%
X111356427Y-105410000D03*
X118479281Y-106871680D03*
%TO.N,WKE*%
X116300000Y-104649406D03*
%TO.N,Net-(U8-VREF)*%
X106235096Y-105936811D03*
X106171437Y-108581016D03*
%TO.N,REF_BUFFER_EN*%
X105886685Y-101645146D03*
X127930430Y-112386904D03*
X122793503Y-112017256D03*
%TD*%
D61*
%TO.N,GND*%
X100939600Y-111103141D02*
X100975301Y-111138842D01*
D62*
X104538579Y-106766442D02*
X104538579Y-106282458D01*
X104710260Y-114640284D02*
X104870192Y-114640284D01*
X104538579Y-106282458D02*
X104538579Y-105182913D01*
D61*
X132477315Y-106928428D02*
X132423771Y-106874884D01*
X111565475Y-109884083D02*
X111835230Y-109884083D01*
D62*
X106529497Y-115146736D02*
X106627668Y-115048565D01*
X134656467Y-101758484D02*
X135248282Y-102350299D01*
X106171792Y-117090724D02*
X106189160Y-117090724D01*
D63*
X121266412Y-109187195D02*
X120212805Y-109187195D01*
D62*
X111410928Y-107335200D02*
X111622025Y-107124103D01*
D63*
X125664420Y-109187195D02*
X125166412Y-109187195D01*
X119933966Y-109466034D02*
X119746465Y-109466034D01*
D62*
X135248282Y-102350299D02*
X135248282Y-102650885D01*
D61*
X100939600Y-110083600D02*
X100939600Y-111103141D01*
D62*
X104870192Y-114640284D02*
X105641402Y-115411494D01*
X129814085Y-105193930D02*
X130329681Y-105709526D01*
D61*
X100939600Y-110083600D02*
X101971487Y-110083600D01*
D62*
X106456215Y-107855600D02*
X106330937Y-107730322D01*
X131947378Y-105024239D02*
X131947378Y-105461901D01*
D63*
X126259272Y-108592343D02*
X125664420Y-109187195D01*
D62*
X106189160Y-117090724D02*
X106837044Y-116442840D01*
D61*
X101971487Y-110083600D02*
X102025416Y-110137529D01*
D62*
X129814085Y-104507745D02*
X129814085Y-105193930D01*
D63*
X117691322Y-112296477D02*
X118298641Y-111689158D01*
D62*
X106529497Y-115456382D02*
X106529497Y-115146736D01*
X106627668Y-115048565D02*
X106731668Y-115048565D01*
D63*
X122612805Y-109187195D02*
X121266412Y-109187195D01*
D62*
X129814085Y-104507745D02*
X129814085Y-105138527D01*
X137987469Y-101639870D02*
X137797426Y-101639870D01*
X106330937Y-107730322D02*
X106299328Y-107730322D01*
X131947378Y-105024239D02*
X131947378Y-105286840D01*
X110947200Y-107335200D02*
X111410928Y-107335200D01*
D63*
X125020282Y-102532709D02*
X125020282Y-102196436D01*
X125166412Y-109187195D02*
X123887195Y-109187195D01*
X123245282Y-102120209D02*
X123763920Y-101601571D01*
D62*
X129814085Y-105138527D02*
X129221903Y-105730709D01*
D61*
X136589483Y-111978319D02*
X137567399Y-111978319D01*
D63*
X123763920Y-101601571D02*
X124425417Y-101601571D01*
D62*
X103988764Y-104066413D02*
X104538579Y-104616228D01*
X134089782Y-101758484D02*
X134656467Y-101758484D01*
D61*
X137204180Y-110775743D02*
X137204180Y-111535290D01*
D63*
X125020282Y-103182709D02*
X125020282Y-102532709D01*
D61*
X137567399Y-111978319D02*
X137607304Y-111938414D01*
D62*
X102847067Y-104066413D02*
X103988764Y-104066413D01*
X131947378Y-105461901D02*
X131414790Y-105994489D01*
X107218900Y-108051600D02*
X107022900Y-107855600D01*
X137797426Y-101639870D02*
X136483396Y-101639870D01*
D63*
X120212805Y-109187195D02*
X119933966Y-109466034D01*
D61*
X137204180Y-111535290D02*
X137607304Y-111938414D01*
X132423771Y-106874884D02*
X132423771Y-106844088D01*
X111835230Y-109884083D02*
X112372137Y-109347176D01*
D62*
X138601825Y-102254226D02*
X138601825Y-102650885D01*
D64*
X132693215Y-107156321D02*
X132693215Y-109024479D01*
D63*
X123245282Y-102532709D02*
X123245282Y-102120209D01*
D65*
X132693215Y-107156321D02*
X132693215Y-108141162D01*
D62*
X108537775Y-104279415D02*
X108537775Y-103095488D01*
X102241463Y-104672017D02*
X102847067Y-104066413D01*
D63*
X118298641Y-111689158D02*
X119132190Y-111689158D01*
X125020282Y-102196436D02*
X124425417Y-101601571D01*
D62*
X136483396Y-101639870D02*
X136364782Y-101758484D01*
X108537775Y-103095488D02*
X108492693Y-103050406D01*
X104747534Y-106975397D02*
X104538579Y-106766442D01*
X106814972Y-104158553D02*
X106814972Y-104017005D01*
D64*
X118230237Y-105380189D02*
X117530213Y-106080213D01*
D62*
X107022900Y-107855600D02*
X106456215Y-107855600D01*
X104538579Y-104616228D02*
X104538579Y-105182913D01*
X131947378Y-105286840D02*
X132590719Y-105930181D01*
X138601825Y-102254226D02*
X137987469Y-101639870D01*
X106814972Y-104017005D02*
X107454046Y-103377931D01*
D65*
%TO.N,+3.3VADC*%
X108394502Y-112904065D02*
X108469198Y-112978761D01*
D63*
X107829549Y-100743701D02*
X106687640Y-101885610D01*
D65*
X106751470Y-112883367D02*
X106692387Y-112824284D01*
D63*
X128038903Y-100743701D02*
X107829549Y-100743701D01*
D65*
X106692387Y-112824284D02*
X106692387Y-112534207D01*
X106731668Y-112904065D02*
X108394502Y-112904065D01*
X106805935Y-112904065D02*
X106805935Y-112647755D01*
D63*
X128418257Y-101123055D02*
X128038903Y-100743701D01*
D65*
X106805935Y-112647755D02*
X106692387Y-112534207D01*
D62*
%TO.N,+BATT*%
X110610400Y-108736705D02*
X110610400Y-109592096D01*
X112820859Y-108429069D02*
X110918036Y-108429069D01*
X115043340Y-108043340D02*
X114931610Y-107931610D01*
X115043340Y-108994719D02*
X115043340Y-108043340D01*
X114931610Y-107931610D02*
X114931610Y-106661401D01*
X110075146Y-110127350D02*
X110075146Y-112190195D01*
X114668981Y-109369078D02*
X113760868Y-109369078D01*
X115043340Y-108994719D02*
X114668981Y-109369078D01*
X110918036Y-108429069D02*
X110610400Y-108736705D01*
X110075146Y-112190195D02*
X109801581Y-112463760D01*
X113760868Y-109369078D02*
X112820859Y-108429069D01*
X109801581Y-112463760D02*
X109801581Y-113537382D01*
X110610400Y-109592096D02*
X110075146Y-110127350D01*
D63*
%TO.N,Net-(U3-AREF)*%
X126336837Y-109637195D02*
X125166412Y-109637195D01*
D62*
%TO.N,+3.3V*%
X135629483Y-111978319D02*
X135472336Y-111978319D01*
D61*
X113084291Y-111434083D02*
X113462636Y-111812428D01*
D65*
X108953929Y-114239656D02*
X108953929Y-114155512D01*
D62*
X109177217Y-117119774D02*
X109063978Y-117119774D01*
X109063978Y-117119774D02*
X108387044Y-116442840D01*
X105552939Y-105118553D02*
X105488579Y-105182913D01*
X121358180Y-101587705D02*
X121975954Y-102205479D01*
D61*
X111565475Y-113010758D02*
X111388068Y-113188165D01*
D62*
X107668182Y-105319441D02*
X107467294Y-105118553D01*
D63*
X127249926Y-103459491D02*
X127249926Y-103149926D01*
D61*
X111388068Y-113188165D02*
X111131668Y-113188165D01*
X111565475Y-111434083D02*
X111565475Y-113010758D01*
D65*
X108203894Y-113619261D02*
X108132024Y-113547391D01*
X112682219Y-116145815D02*
X112523858Y-116145815D01*
D63*
X122949240Y-103178765D02*
X123241338Y-103178765D01*
D61*
X108953929Y-115875955D02*
X108953929Y-114239656D01*
D63*
X127249926Y-103149926D02*
X126371024Y-102271024D01*
D61*
X108387044Y-116442840D02*
X108953929Y-115875955D01*
D62*
X134447142Y-110852979D02*
X134524378Y-110775743D01*
X121358180Y-101540000D02*
X121358180Y-101587705D01*
X137783655Y-103512762D02*
X137783655Y-102613641D01*
D65*
X108417678Y-113619261D02*
X108203894Y-113619261D01*
D63*
X125166412Y-110087195D02*
X125935926Y-110087195D01*
D65*
X119427113Y-108506034D02*
X119746465Y-108506034D01*
D63*
X120083750Y-108506034D02*
X119746465Y-108506034D01*
D65*
X119148260Y-108784887D02*
X119427113Y-108506034D01*
D62*
X137797426Y-102599870D02*
X136473396Y-102599870D01*
X135472336Y-111978319D02*
X134297215Y-113153440D01*
D65*
X108132024Y-113547391D02*
X107950000Y-113547391D01*
D62*
X107467294Y-105118553D02*
X106814972Y-105118553D01*
D63*
X117272358Y-102363865D02*
X116293780Y-102363865D01*
X125935926Y-110087195D02*
X126169015Y-110320284D01*
X121266412Y-108737195D02*
X120314911Y-108737195D01*
D62*
X136473396Y-102599870D02*
X136364782Y-102708484D01*
D64*
X107847174Y-113444565D02*
X107950000Y-113547391D01*
D61*
X111565475Y-111434083D02*
X113084291Y-111434083D01*
D63*
X117571285Y-102064938D02*
X117272358Y-102363865D01*
X121975954Y-102205479D02*
X122949240Y-103178765D01*
X120314911Y-108737195D02*
X120083750Y-108506034D01*
D64*
X106731668Y-113444565D02*
X107847174Y-113444565D01*
D62*
X106814972Y-105118553D02*
X105552939Y-105118553D01*
X135629483Y-111978319D02*
X135629483Y-110800440D01*
X134524378Y-110775743D02*
X135654180Y-110775743D01*
D65*
X112523858Y-116145815D02*
X111966007Y-115587964D01*
X108953929Y-114155512D02*
X108417678Y-113619261D01*
D66*
%TO.N,Net-(U6-AINP)*%
X105675871Y-113243759D02*
X105675871Y-113610440D01*
D65*
X104169265Y-112834052D02*
X104956477Y-112046840D01*
D66*
X104956477Y-112524365D02*
X105675871Y-113243759D01*
X104956477Y-112046840D02*
X104956477Y-112524365D01*
D65*
X103446605Y-112834052D02*
X104169265Y-112834052D01*
D66*
X105675871Y-113610440D02*
X106009996Y-113944565D01*
X106009996Y-113944565D02*
X106731668Y-113944565D01*
%TO.N,Net-(U6-AINN)*%
X106731668Y-114444565D02*
X106008365Y-114444565D01*
X106008365Y-114444565D02*
X105184084Y-113620284D01*
D65*
X103446605Y-114384052D02*
X104210373Y-113620284D01*
X104210373Y-113620284D02*
X104710260Y-113620284D01*
D66*
X105184084Y-113620284D02*
X104710260Y-113620284D01*
D65*
%TO.N,Net-(U11-C1+)*%
X102096082Y-101541824D02*
X104081824Y-101541824D01*
X104081824Y-101541824D02*
X104538579Y-101998579D01*
X104538579Y-101998579D02*
X104538579Y-102907913D01*
%TO.N,Net-(U11-C1-)*%
X103588579Y-102907913D02*
X102279993Y-102907913D01*
D64*
%TO.N,Net-(C27-Pad1)*%
X133162272Y-103658484D02*
X134089782Y-103658484D01*
X130068257Y-101123055D02*
X130996194Y-101123055D01*
X130996194Y-101123055D02*
X131947378Y-102074239D01*
X131947378Y-102443590D02*
X133162272Y-103658484D01*
X129814085Y-102682745D02*
X129814085Y-101377227D01*
D65*
%TO.N,Net-(D2-A)*%
X103899416Y-108875397D02*
X104747534Y-108875397D01*
X101935301Y-111138842D02*
X101935301Y-111374825D01*
X102151089Y-111138842D02*
X102985416Y-110304515D01*
X101935301Y-111138842D02*
X102151089Y-111138842D01*
X102985416Y-110137529D02*
X102985416Y-109789397D01*
X101935301Y-111374825D02*
X101251799Y-112058327D01*
X102985416Y-109789397D02*
X103899416Y-108875397D01*
X101251799Y-112058327D02*
X101251799Y-112789787D01*
X102985416Y-110304515D02*
X102985416Y-110137529D01*
D61*
%TO.N,TIA_PWR*%
X110220300Y-106375200D02*
X110947200Y-106375200D01*
X109493900Y-107101600D02*
X110220300Y-106375200D01*
X109559611Y-104807579D02*
X110087775Y-104279415D01*
X110098925Y-104268265D02*
X110958703Y-104268265D01*
X110220300Y-106375200D02*
X109559611Y-105714511D01*
X109559611Y-105714511D02*
X109559611Y-104807579D01*
X110958703Y-104268265D02*
X110975181Y-104251787D01*
D65*
%TO.N,Net-(D2-K)*%
X108748110Y-109747390D02*
X109493900Y-109001600D01*
X109011107Y-110563839D02*
X108748110Y-110300842D01*
X107694454Y-111786339D02*
X106682514Y-111786339D01*
X109139455Y-111951340D02*
X108832627Y-112258168D01*
X108748110Y-110300842D02*
X108748110Y-109747390D01*
D62*
X102215601Y-115329787D02*
X103246077Y-116360263D01*
D65*
X108166283Y-112258168D02*
X107694454Y-111786339D01*
X108832627Y-112258168D02*
X108166283Y-112258168D01*
D62*
X101251799Y-115329787D02*
X102215601Y-115329787D01*
D65*
X105971368Y-111902300D02*
X105889990Y-111983678D01*
X106682514Y-111786339D02*
X106566553Y-111902300D01*
X106566553Y-111902300D02*
X105971368Y-111902300D01*
X109139455Y-111667668D02*
X109139455Y-111951340D01*
X109139455Y-110692187D02*
X109139455Y-111667668D01*
%TO.N,TIA_SIGNAL*%
X104956477Y-110396840D02*
X105988844Y-110396840D01*
X107361107Y-110563839D02*
X108464936Y-111667668D01*
X106163884Y-110221800D02*
X106505923Y-110563839D01*
X108271900Y-109375482D02*
X107361107Y-110286275D01*
X107695782Y-107101600D02*
X108271900Y-107677718D01*
X108271900Y-107677718D02*
X108271900Y-109375482D01*
X105988844Y-110396840D02*
X106163884Y-110221800D01*
X107218900Y-107101600D02*
X107695782Y-107101600D01*
X106505923Y-110563839D02*
X107361107Y-110563839D01*
%TO.N,TIA_BIAS*%
X106998984Y-109221516D02*
X105855951Y-109221516D01*
X105855951Y-109221516D02*
X105832480Y-109198045D01*
X107218900Y-109001600D02*
X106998984Y-109221516D01*
%TO.N,Net-(U12-C1+)*%
X101625397Y-107925397D02*
X102472534Y-107925397D01*
X100798730Y-107432386D02*
X101132386Y-107432386D01*
X101132386Y-107432386D02*
X101625397Y-107925397D01*
%TO.N,Net-(U12-C1-)*%
X102472534Y-108875397D02*
X101624603Y-108875397D01*
X101517614Y-108982386D02*
X100798730Y-108982386D01*
X101624603Y-108875397D02*
X101517614Y-108982386D01*
D67*
%TO.N,Net-(D1-K)*%
X145658563Y-115439646D02*
X143971028Y-115439646D01*
X143971028Y-115439646D02*
X143901012Y-115509662D01*
D64*
%TO.N,Net-(D3-K)*%
X140728652Y-110045255D02*
X140728652Y-108095255D01*
D67*
X145658563Y-108880210D02*
X141768697Y-108880210D01*
D63*
%TO.N,MISO*%
X116731660Y-116733056D02*
X114362802Y-114364198D01*
X113462636Y-113464032D02*
X113462636Y-113082428D01*
X125937050Y-111878000D02*
X125937050Y-113081955D01*
X112903000Y-114444565D02*
X111131668Y-114444565D01*
X125937050Y-113081955D02*
X122285949Y-116733056D01*
X124566412Y-111262614D02*
X124761001Y-111457203D01*
X114288377Y-114289773D02*
X113057792Y-114289773D01*
X113057792Y-114289773D02*
X112903000Y-114444565D01*
X122285949Y-116733056D02*
X116731660Y-116733056D01*
X114362802Y-114364198D02*
X114288377Y-114289773D01*
X114362802Y-114364198D02*
X113462636Y-113464032D01*
%TO.N,CLKO*%
X112532094Y-113944565D02*
X112611260Y-113865399D01*
X125340000Y-113042609D02*
X122099553Y-116283056D01*
X116918056Y-116283056D02*
X114732636Y-114097636D01*
X114732636Y-114097636D02*
X114732636Y-113082428D01*
D64*
X125166412Y-110900000D02*
X125166412Y-110539195D01*
D63*
X122099553Y-116283056D02*
X116918056Y-116283056D01*
X125340000Y-111073588D02*
X125340000Y-113042609D01*
X125166412Y-110900000D02*
X125340000Y-111073588D01*
X111131668Y-113944565D02*
X112532094Y-113944565D01*
%TO.N,MOSI*%
X114750000Y-110674942D02*
X114750000Y-111795064D01*
X115038274Y-110386668D02*
X114750000Y-110674942D01*
X121702113Y-112592177D02*
X121537274Y-112427338D01*
D64*
X124114412Y-111806902D02*
X124114412Y-112271526D01*
D63*
X123793761Y-112592177D02*
X121702113Y-112592177D01*
X124116412Y-111804902D02*
X124116412Y-111137195D01*
X124079540Y-112306398D02*
X123793761Y-112592177D01*
D64*
X124114412Y-112271526D02*
X124079540Y-112306398D01*
D63*
%TO.N,RST*%
X115038274Y-103968951D02*
X115038274Y-104729387D01*
X118701577Y-101741695D02*
X119179492Y-101741695D01*
X114931610Y-104661401D02*
X115931610Y-105661401D01*
X121741403Y-105482662D02*
X122765055Y-105482662D01*
X119179492Y-101741695D02*
X120605237Y-103167440D01*
X120605237Y-104346496D02*
X121741403Y-105482662D01*
X117222799Y-103584363D02*
X115422862Y-103584363D01*
X118345365Y-102322289D02*
X118345365Y-102097907D01*
X120605237Y-103167440D02*
X120605237Y-104346496D01*
X115931610Y-105661401D02*
X115931610Y-110031610D01*
X115931610Y-110031610D02*
X117000000Y-111100000D01*
X122765055Y-105482662D02*
X123216412Y-105934019D01*
X123216412Y-105934019D02*
X123216412Y-107237195D01*
X117000000Y-111100000D02*
X117000000Y-112400000D01*
X117222799Y-103444855D02*
X118345365Y-102322289D01*
X117000000Y-112400000D02*
X116317572Y-113082428D01*
X118345365Y-102097907D02*
X118701577Y-101741695D01*
X115422862Y-103584363D02*
X115038274Y-103968951D01*
%TO.N,TX*%
X122478308Y-105932662D02*
X122766412Y-106220766D01*
X118821643Y-105932662D02*
X122478308Y-105932662D01*
X113088083Y-104888083D02*
X113931811Y-105731811D01*
X118724915Y-106029390D02*
X118821643Y-105932662D01*
X122766412Y-106220766D02*
X122766412Y-107237195D01*
X113931811Y-105731811D02*
X113931811Y-107175312D01*
%TO.N,RX*%
X121042161Y-106470000D02*
X121004999Y-106507162D01*
X122316412Y-107237195D02*
X122316412Y-106696412D01*
X122090000Y-106470000D02*
X121042161Y-106470000D01*
X112931610Y-107441604D02*
X114141222Y-108651216D01*
X122316412Y-106696412D02*
X122090000Y-106470000D01*
X112931610Y-106661401D02*
X112931610Y-107441604D01*
D62*
%TO.N,Net-(Q1-G)*%
X137590956Y-112909595D02*
X137287443Y-113213108D01*
X141101825Y-112909595D02*
X142488240Y-114296010D01*
X141101825Y-112909595D02*
X137590956Y-112909595D01*
X142488240Y-114296010D02*
X142488240Y-114911426D01*
D65*
%TO.N,Net-(Q1-S-Pad4)*%
X134837637Y-116587637D02*
X135925761Y-116587637D01*
D61*
X142381840Y-116755026D02*
X142381840Y-116861426D01*
X142214451Y-116587637D02*
X142214451Y-116255215D01*
D68*
X136006485Y-116668361D02*
X142107516Y-116668361D01*
D65*
X133693537Y-115874549D02*
X134124549Y-115874549D01*
D68*
X135925761Y-116587637D02*
X136006485Y-116668361D01*
D65*
X134124549Y-115874549D02*
X134837637Y-116587637D01*
D61*
X142214451Y-116255215D02*
X142294612Y-116175054D01*
D68*
X142107516Y-116668361D02*
X142188240Y-116587637D01*
D61*
X142214451Y-116587637D02*
X142381840Y-116755026D01*
D65*
%TO.N,Net-(Q2-G)*%
X136181014Y-107302063D02*
X136782689Y-107903738D01*
D62*
X136181014Y-106491014D02*
X136181014Y-107302063D01*
X135983349Y-105441549D02*
X135983349Y-106293349D01*
D65*
X136782689Y-107903738D02*
X139526262Y-107903738D01*
D62*
X135983349Y-106293349D02*
X136181014Y-106491014D01*
D65*
X139717779Y-108095255D02*
X140078652Y-108095255D01*
X139526262Y-107903738D02*
X139717779Y-108095255D01*
D61*
%TO.N,Net-(Q2-S-Pad4)*%
X138449462Y-108825738D02*
X138788979Y-109165255D01*
X139394408Y-110078652D02*
X139972252Y-110078652D01*
D62*
X140078652Y-110762896D02*
X140595196Y-111279440D01*
D61*
X138449462Y-109133706D02*
X139394408Y-110078652D01*
X138449462Y-108825738D02*
X138449462Y-109133706D01*
X138788979Y-109165255D02*
X139972252Y-109165255D01*
X138825738Y-108825738D02*
X139972252Y-109972252D01*
D64*
X140078652Y-109165255D02*
X140078652Y-110045255D01*
D62*
X140078652Y-110045255D02*
X140078652Y-110762896D01*
D61*
X138449462Y-108825738D02*
X138825738Y-108825738D01*
D63*
%TO.N,LED_DIGITAL_SIGNAL*%
X126683607Y-106320000D02*
X125166412Y-107837195D01*
X136364782Y-103658484D02*
X135164764Y-104858502D01*
X126760000Y-106320000D02*
X126683607Y-106320000D01*
X135164764Y-104858502D02*
X133851631Y-104858502D01*
D64*
%TO.N,LED_ANALOG_SIGNAL*%
X132693215Y-113424479D02*
X132693215Y-110317993D01*
D63*
X134474033Y-102708484D02*
X135077282Y-103311733D01*
X133589608Y-104283484D02*
X133210715Y-104662377D01*
D64*
X133210715Y-109006979D02*
X133210715Y-106520715D01*
D63*
X135077282Y-104005235D02*
X134799033Y-104283484D01*
X135077282Y-103311733D02*
X135077282Y-104005235D01*
D64*
X133193215Y-109817993D02*
X133193215Y-109024479D01*
D63*
X133210715Y-104662377D02*
X133210715Y-106520715D01*
D64*
X132693215Y-110317993D02*
X133193215Y-109817993D01*
D63*
X134799033Y-104283484D02*
X133589608Y-104283484D01*
%TO.N,LED_PWR_EN*%
X118943014Y-102725904D02*
X118636517Y-103032401D01*
X118636517Y-103032401D02*
X118636517Y-103864377D01*
D65*
X120750946Y-105305378D02*
X120077518Y-105305378D01*
X120803730Y-105358162D02*
X120750946Y-105305378D01*
D63*
X118636517Y-103864377D02*
X119880237Y-105108097D01*
X120501307Y-108287195D02*
X121266412Y-108287195D01*
X119896763Y-107682651D02*
X120501307Y-108287195D01*
X119896763Y-107660255D02*
X119896763Y-107682651D01*
X118943014Y-102324047D02*
X118943014Y-102725904D01*
%TO.N,LED_PWR_FAULT*%
X121266412Y-110537195D02*
X121266412Y-110739153D01*
X117555281Y-108994719D02*
X116693340Y-108994719D01*
X116858319Y-109901897D02*
X116858319Y-109159698D01*
X116894820Y-109938398D02*
X116858319Y-109901897D01*
X118400000Y-108150000D02*
X117555281Y-108994719D01*
X121266412Y-110739153D02*
X121029932Y-110975633D01*
%TO.N,Net-(U3-XTAL1{slash}PB6)*%
X120547757Y-109637195D02*
X119695794Y-110489158D01*
X121266412Y-109637195D02*
X120547757Y-109637195D01*
%TO.N,Net-(U3-XTAL2{slash}PB7)*%
X120407190Y-110414158D02*
X120407190Y-112030710D01*
X121266412Y-110087195D02*
X120734153Y-110087195D01*
X120734153Y-110087195D02*
X120407190Y-110414158D01*
X119882190Y-112555710D02*
X119882190Y-112889158D01*
X120407190Y-112030710D02*
X119882190Y-112555710D01*
%TO.N,LED_2_EN*%
X120857190Y-112729190D02*
X121170177Y-113042177D01*
X131484445Y-112355555D02*
X131484445Y-110529480D01*
X124396851Y-113042177D02*
X124477124Y-112961904D01*
X121170177Y-113042177D02*
X124396851Y-113042177D01*
X132193215Y-109820710D02*
X132193215Y-109024479D01*
X131484445Y-110529480D02*
X132193215Y-109820710D01*
X121866412Y-111137195D02*
X120857190Y-112146417D01*
X120857190Y-112146417D02*
X120857190Y-112729190D01*
%TO.N,LED_1_EN*%
X132168847Y-113400111D02*
X131716534Y-113400111D01*
X131716534Y-113400111D02*
X130520024Y-112203601D01*
X122316412Y-111679951D02*
X122095166Y-111901197D01*
X122316412Y-111137195D02*
X122316412Y-111679951D01*
X122095166Y-111901197D02*
X122095166Y-111970028D01*
D65*
%TO.N,Net-(U11-VOUT)*%
X104747534Y-107925397D02*
X103975397Y-107925397D01*
X103588579Y-106250000D02*
X103588579Y-105182913D01*
X102850000Y-106250000D02*
X103588579Y-106250000D01*
X102241463Y-105641463D02*
X102850000Y-106250000D01*
X103975397Y-107925397D02*
X103588579Y-107538579D01*
X103588579Y-107538579D02*
X103588579Y-106250000D01*
D63*
%TO.N,SS*%
X112500969Y-114944565D02*
X112682219Y-115125815D01*
X111131668Y-114944565D02*
X112500969Y-114944565D01*
X123666412Y-111635203D02*
X123518192Y-111783423D01*
X112682219Y-115125815D02*
X113129741Y-115125815D01*
X123518192Y-111783423D02*
X123518192Y-111927007D01*
X113129741Y-115125815D02*
X113390783Y-114864773D01*
X123666412Y-111137195D02*
X123666412Y-111635203D01*
%TO.N,REF_EN*%
X125964272Y-107987343D02*
X126784298Y-107987343D01*
X127056689Y-108259734D02*
X127056689Y-114586249D01*
X116368487Y-117183056D02*
X114146844Y-114961413D01*
X125664420Y-108287195D02*
X125964272Y-107987343D01*
X126784298Y-107987343D02*
X127056689Y-108259734D01*
X127056689Y-114586249D02*
X124459882Y-117183056D01*
X125166412Y-108287195D02*
X125664420Y-108287195D01*
X124459882Y-117183056D02*
X116368487Y-117183056D01*
%TO.N,TIA_PWR_EN*%
X125340989Y-106685682D02*
X125117925Y-106685682D01*
X125117925Y-106685682D02*
X124566412Y-107237195D01*
%TO.N,SDA*%
X122355479Y-103855479D02*
X122788995Y-104288995D01*
X125986759Y-106110682D02*
X124744917Y-106110682D01*
X124744917Y-106110682D02*
X124116412Y-106739187D01*
X122788995Y-104288995D02*
X123245282Y-103832709D01*
X124116412Y-106739187D02*
X124116412Y-107237195D01*
X124769115Y-104458902D02*
X122958902Y-104458902D01*
X122958902Y-104458902D02*
X122788995Y-104288995D01*
X121975954Y-103855479D02*
X122355479Y-103855479D01*
X126033609Y-106157532D02*
X125986759Y-106110682D01*
%TO.N,SCL*%
X124204295Y-105582532D02*
X123666412Y-106120415D01*
X125607878Y-103832709D02*
X126305175Y-103832709D01*
X126447713Y-105582532D02*
X124204295Y-105582532D01*
X126519758Y-105654577D02*
X126447713Y-105582532D01*
X125551656Y-103776487D02*
X125495434Y-103832709D01*
X125495434Y-103832709D02*
X125020282Y-103832709D01*
X123666412Y-106120415D02*
X123666412Y-107237195D01*
X125551656Y-103776487D02*
X125607878Y-103832709D01*
%TO.N,NEG_VOLT_EN*%
X101220006Y-105722869D02*
X102472534Y-106975397D01*
X109131117Y-102235000D02*
X110375532Y-103479415D01*
X111931610Y-104173860D02*
X111931610Y-104834817D01*
X101296082Y-103820296D02*
X101220006Y-103896372D01*
X118479281Y-106871680D02*
X118747515Y-106603446D01*
X105488579Y-102907913D02*
X105720991Y-103140325D01*
X111237165Y-103479415D02*
X111931610Y-104173860D01*
X101618265Y-100766824D02*
X101296082Y-101089007D01*
X101220006Y-103896372D02*
X101220006Y-105722869D01*
X120288816Y-106603446D02*
X120922565Y-107237195D01*
X105720991Y-103140325D02*
X106872822Y-103140325D01*
X120922565Y-107237195D02*
X121866412Y-107237195D01*
X111931610Y-104834817D02*
X111356427Y-105410000D01*
X105488579Y-102219551D02*
X104295352Y-101026324D01*
X105488579Y-102907913D02*
X105488579Y-102219551D01*
X110375532Y-103479415D02*
X111237165Y-103479415D01*
X118747515Y-106603446D02*
X120288816Y-106603446D01*
X104295352Y-101026324D02*
X102833399Y-101026324D01*
X107688005Y-102798931D02*
X108251936Y-102235000D01*
X101296082Y-101089007D02*
X101296082Y-103820296D01*
X107214216Y-102798931D02*
X107688005Y-102798931D01*
X102833399Y-101026324D02*
X102573899Y-100766824D01*
X106872822Y-103140325D02*
X107214216Y-102798931D01*
X108251936Y-102235000D02*
X109131117Y-102235000D01*
X102573899Y-100766824D02*
X101618265Y-100766824D01*
%TO.N,WKE*%
X121266412Y-107837195D02*
X120886169Y-107837195D01*
X116800000Y-105149406D02*
X116800000Y-106250000D01*
X119364745Y-107085255D02*
X120134229Y-107085255D01*
X120886169Y-107837195D02*
X120134229Y-107085255D01*
X116800000Y-106250000D02*
X117996680Y-107446680D01*
X117996680Y-107446680D02*
X119003320Y-107446680D01*
X116300000Y-104649406D02*
X116800000Y-105149406D01*
X119003320Y-107446680D02*
X119364745Y-107085255D01*
D65*
%TO.N,Net-(C30-Pad1)*%
X133983707Y-114539979D02*
X134461031Y-114539979D01*
X134461031Y-114539979D02*
X135637443Y-113363567D01*
X133749400Y-114774286D02*
X133983707Y-114539979D01*
D64*
X133693215Y-113424479D02*
X133693215Y-114718101D01*
%TO.N,Net-(U10B--)*%
X132625714Y-114774286D02*
X133109400Y-114774286D01*
X132043537Y-115874549D02*
X132043537Y-115356463D01*
X133193215Y-113424479D02*
X133193215Y-114690471D01*
X132043537Y-115356463D02*
X132625714Y-114774286D01*
X133193215Y-114690471D02*
X133109400Y-114774286D01*
D63*
%TO.N,Net-(U10A--)*%
X134564625Y-110076479D02*
X133951701Y-110076479D01*
X134658715Y-109982389D02*
X134564625Y-110076479D01*
D64*
X133693215Y-109024479D02*
X133693215Y-107712252D01*
D65*
X138945196Y-110939533D02*
X137748226Y-109742563D01*
D64*
X133693215Y-109817993D02*
X133693215Y-109024479D01*
D65*
X137748226Y-109742563D02*
X134898541Y-109742563D01*
D64*
X133951701Y-110076479D02*
X133693215Y-109817993D01*
D65*
X138945196Y-111279440D02*
X138945196Y-110939533D01*
D64*
X133693215Y-107712252D02*
X133781227Y-107624240D01*
D65*
X134898541Y-109742563D02*
X134658715Y-109982389D01*
D64*
%TO.N,Net-(C37-Pad2)*%
X136181014Y-108952063D02*
X134265631Y-108952063D01*
X134193215Y-109024479D02*
X134193215Y-108216785D01*
X134265631Y-108952063D02*
X134193215Y-109024479D01*
X134193215Y-108216785D02*
X134421227Y-107988773D01*
X134421227Y-107988773D02*
X134421227Y-107624240D01*
D63*
%TO.N,Net-(JP1-B)*%
X106112094Y-111293590D02*
X103734250Y-111293590D01*
X103880697Y-115285263D02*
X104696077Y-116100643D01*
X103734250Y-111293590D02*
X102646605Y-112381235D01*
X102646605Y-112381235D02*
X102646605Y-114836869D01*
X102646605Y-114836869D02*
X103094999Y-115285263D01*
X103094999Y-115285263D02*
X103880697Y-115285263D01*
%TO.N,REF_BUFFER_EN*%
X124966098Y-105033902D02*
X125000000Y-105000000D01*
X127515405Y-105837051D02*
X127515405Y-110357807D01*
X126678354Y-105000000D02*
X127515405Y-105837051D01*
X128074351Y-110916753D02*
X128074351Y-112242983D01*
X108656839Y-101193701D02*
X119273825Y-101193701D01*
X122766412Y-111137195D02*
X122766412Y-111990165D01*
X107027820Y-102348931D02*
X107501609Y-102348931D01*
X107501609Y-102348931D02*
X108656839Y-101193701D01*
X119273825Y-101193701D02*
X121175954Y-103095830D01*
X122915687Y-105033902D02*
X124966098Y-105033902D01*
X125000000Y-105000000D02*
X126678354Y-105000000D01*
X128074351Y-112242983D02*
X127930430Y-112386904D01*
X106449406Y-102690325D02*
X106686426Y-102690325D01*
X121935675Y-105032662D02*
X122914447Y-105032662D01*
X105886685Y-101645146D02*
X106113579Y-101872040D01*
X121175954Y-104272941D02*
X121935675Y-105032662D01*
X122766412Y-111990165D02*
X122793503Y-112017256D01*
X121175954Y-103095830D02*
X121175954Y-104272941D01*
X106686426Y-102690325D02*
X107027820Y-102348931D01*
X106113579Y-102354498D02*
X106449406Y-102690325D01*
X122914447Y-105032662D02*
X122915687Y-105033902D01*
X106113579Y-101872040D02*
X106113579Y-102354498D01*
X127515405Y-110357807D02*
X128074351Y-110916753D01*
%TD*%
%TA.AperFunction,Conductor*%
%TO.N,Net-(D1-K)*%
G36*
X144200199Y-114434910D02*
G01*
X144246657Y-114487097D01*
X144258563Y-114540114D01*
X144258563Y-115189646D01*
X144376074Y-115189646D01*
X144383050Y-115689646D01*
X144258563Y-115689646D01*
X144258563Y-116387490D01*
X144264964Y-116447018D01*
X144264966Y-116447025D01*
X144315208Y-116581732D01*
X144315210Y-116581735D01*
X144372863Y-116658750D01*
X144397280Y-116724215D01*
X144397584Y-116731331D01*
X144404487Y-117226025D01*
X144385740Y-117293332D01*
X144333579Y-117339820D01*
X144284321Y-117351696D01*
X142995346Y-117391444D01*
X142927732Y-117373835D01*
X142880371Y-117322467D01*
X142868301Y-117253647D01*
X142893149Y-117192015D01*
X142911966Y-117167494D01*
X142973119Y-117019859D01*
X142988740Y-116901205D01*
X142988740Y-116798872D01*
X142989271Y-116790770D01*
X142993977Y-116755026D01*
X142988444Y-116713005D01*
X142988164Y-116682938D01*
X142988740Y-116677827D01*
X142988740Y-116497444D01*
X142988739Y-116497436D01*
X142948600Y-116321577D01*
X142947281Y-116318839D01*
X142916630Y-116255191D01*
X142905279Y-116186251D01*
X142905413Y-116185199D01*
X142906749Y-116175054D01*
X142906749Y-116175053D01*
X142885891Y-116016623D01*
X142885891Y-116016622D01*
X142855901Y-115944218D01*
X142846467Y-115897632D01*
X142841911Y-115238614D01*
X142861131Y-115171446D01*
X142863397Y-115167995D01*
X142902356Y-115110854D01*
X142942740Y-114979931D01*
X142942740Y-114554415D01*
X142962425Y-114487377D01*
X143015229Y-114441622D01*
X143065075Y-114430427D01*
X144132907Y-114416126D01*
X144200199Y-114434910D01*
G37*
%TD.AperFunction*%
%TD*%
%TA.AperFunction,Conductor*%
%TO.N,Net-(D3-K)*%
G36*
X141756134Y-107606139D02*
G01*
X141802591Y-107658326D01*
X141814485Y-107709613D01*
X141852006Y-110398705D01*
X141833259Y-110466013D01*
X141781098Y-110512500D01*
X141731840Y-110524376D01*
X140660974Y-110557398D01*
X140593360Y-110539789D01*
X140545999Y-110488421D01*
X140533152Y-110433457D01*
X140533152Y-110335091D01*
X140542591Y-110287638D01*
X140563531Y-110237085D01*
X140584389Y-110078652D01*
X140579515Y-110041630D01*
X140579515Y-110009272D01*
X140584389Y-109972252D01*
X140563531Y-109813819D01*
X140502379Y-109666184D01*
X140485539Y-109644238D01*
X140460345Y-109579073D01*
X140474382Y-109510628D01*
X140485535Y-109493273D01*
X140502378Y-109471324D01*
X140563531Y-109323688D01*
X140584389Y-109165255D01*
X140563531Y-109006822D01*
X140502378Y-108859187D01*
X140426553Y-108760369D01*
X140421937Y-108752369D01*
X140421397Y-108752731D01*
X140359228Y-108659685D01*
X140359226Y-108659683D01*
X140359225Y-108659682D01*
X140357239Y-108658355D01*
X140353892Y-108654350D01*
X140350591Y-108651049D01*
X140350886Y-108650753D01*
X140312436Y-108604743D01*
X140303730Y-108535418D01*
X140333886Y-108472391D01*
X140357246Y-108452150D01*
X140359225Y-108450828D01*
X140414612Y-108367934D01*
X140422567Y-108327944D01*
X140429152Y-108294841D01*
X140429749Y-108288779D01*
X140431417Y-108288943D01*
X140442667Y-108242087D01*
X140455151Y-108217587D01*
X140455152Y-108217583D01*
X140474526Y-108095258D01*
X140474526Y-108095251D01*
X140455152Y-107972927D01*
X140455151Y-107972925D01*
X140455151Y-107972923D01*
X140442665Y-107948419D01*
X140431418Y-107901566D01*
X140429749Y-107901731D01*
X140429152Y-107895668D01*
X140414613Y-107822579D01*
X140414612Y-107822576D01*
X140396972Y-107796176D01*
X140376095Y-107729499D01*
X140394580Y-107662119D01*
X140446559Y-107615429D01*
X140498411Y-107603297D01*
X141688838Y-107587354D01*
X141756134Y-107606139D01*
G37*
%TD.AperFunction*%
%TD*%
%TA.AperFunction,Conductor*%
%TO.N,GND*%
G36*
X142443787Y-103821337D02*
G01*
X142489647Y-103874049D01*
X142500610Y-103916523D01*
X142768778Y-107496447D01*
X142754156Y-107564770D01*
X142704917Y-107614341D01*
X142645124Y-107629710D01*
X142147375Y-107629710D01*
X142080336Y-107610025D01*
X142040451Y-107568506D01*
X142038257Y-107564770D01*
X141993430Y-107488441D01*
X141946973Y-107436254D01*
X141913775Y-107405068D01*
X141913773Y-107405067D01*
X141913773Y-107405066D01*
X141824830Y-107360048D01*
X141824831Y-107360048D01*
X141824828Y-107360047D01*
X141805014Y-107354516D01*
X141757527Y-107341260D01*
X141685421Y-107331877D01*
X141685416Y-107331877D01*
X140494989Y-107347820D01*
X140440200Y-107354516D01*
X140388350Y-107366648D01*
X140388349Y-107366648D01*
X140377226Y-107369901D01*
X140361557Y-107374483D01*
X140361556Y-107374483D01*
X140275833Y-107425345D01*
X140275819Y-107425355D01*
X140223848Y-107472037D01*
X140223849Y-107472037D01*
X140192806Y-107505379D01*
X140169839Y-107551261D01*
X140122228Y-107602397D01*
X140058957Y-107619755D01*
X139933868Y-107619755D01*
X139931010Y-107619921D01*
X139930298Y-107619755D01*
X139930292Y-107619756D01*
X139930291Y-107619754D01*
X139862948Y-107604133D01*
X139837248Y-107582238D01*
X139836419Y-107583133D01*
X139829609Y-107576814D01*
X139829606Y-107576811D01*
X139781495Y-107544009D01*
X139734655Y-107509440D01*
X139734653Y-107509439D01*
X139727265Y-107505534D01*
X139719764Y-107501922D01*
X139664120Y-107484758D01*
X139609180Y-107465533D01*
X139600965Y-107463979D01*
X139592733Y-107462738D01*
X139592732Y-107462738D01*
X139592730Y-107462738D01*
X139534507Y-107462738D01*
X139476329Y-107460560D01*
X139467096Y-107461601D01*
X139466999Y-107460746D01*
X139451879Y-107462738D01*
X137373756Y-107462738D01*
X137306717Y-107443053D01*
X137260962Y-107390249D01*
X137249882Y-107344326D01*
X137249744Y-107341260D01*
X137211825Y-106500737D01*
X137615458Y-106500737D01*
X137615459Y-106500738D01*
X137949462Y-106500738D01*
X137949462Y-106288238D01*
X138949462Y-106288238D01*
X138949462Y-106500738D01*
X139283465Y-106500738D01*
X139283465Y-106500737D01*
X139221254Y-106416445D01*
X139112107Y-106335891D01*
X138984064Y-106291088D01*
X138953669Y-106288238D01*
X138949462Y-106288238D01*
X137949462Y-106288238D01*
X137945260Y-106288239D01*
X137945236Y-106288240D01*
X137914861Y-106291088D01*
X137914856Y-106291089D01*
X137786816Y-106335891D01*
X137677669Y-106416445D01*
X137615458Y-106500737D01*
X137211825Y-106500737D01*
X137196510Y-106161254D01*
X137213153Y-106093399D01*
X137233349Y-106072719D01*
X137233349Y-105841549D01*
X138033349Y-105841549D01*
X138033349Y-106063573D01*
X138071390Y-106044191D01*
X138071392Y-106044190D01*
X138160988Y-105954595D01*
X138160988Y-105954594D01*
X138218515Y-105841693D01*
X138218538Y-105841549D01*
X138033349Y-105841549D01*
X137233349Y-105841549D01*
X137233349Y-105165549D01*
X137253034Y-105098510D01*
X137305838Y-105052755D01*
X137357349Y-105041549D01*
X138218537Y-105041549D01*
X138218515Y-105041404D01*
X138174470Y-104954962D01*
X138161574Y-104886293D01*
X138187850Y-104821553D01*
X138244956Y-104781295D01*
X138288105Y-104774707D01*
X138399184Y-104777535D01*
X138539707Y-103913312D01*
X138569896Y-103850304D01*
X138629359Y-103813617D01*
X138661848Y-103809216D01*
X142376709Y-103801786D01*
X142443787Y-103821337D01*
G37*
%TD.AperFunction*%
%TD*%
%TA.AperFunction,Conductor*%
%TO.N,GND*%
G36*
X139329567Y-113620529D02*
G01*
X140350968Y-113781803D01*
X140544637Y-113796364D01*
X140610011Y-113821020D01*
X140651678Y-113877105D01*
X140656408Y-113946815D01*
X140622700Y-114008015D01*
X140591638Y-114030498D01*
X140588780Y-114031954D01*
X140588774Y-114031958D01*
X140499188Y-114121544D01*
X140499185Y-114121549D01*
X140479799Y-114159594D01*
X140479800Y-114159595D01*
X141377825Y-114159595D01*
X141444864Y-114179280D01*
X141490619Y-114232084D01*
X141501825Y-114283595D01*
X141501825Y-115144783D01*
X141501969Y-115144761D01*
X141614870Y-115087234D01*
X141614874Y-115087232D01*
X141648469Y-115053637D01*
X141709791Y-115020151D01*
X141779483Y-115025135D01*
X141835417Y-115067005D01*
X141859835Y-115132469D01*
X141860016Y-115135541D01*
X141884902Y-115669203D01*
X141868362Y-115737086D01*
X141848718Y-115762660D01*
X141816313Y-115795065D01*
X141810211Y-115800417D01*
X141781602Y-115822370D01*
X141775858Y-115828115D01*
X141774195Y-115826452D01*
X141727487Y-115860553D01*
X141685547Y-115867861D01*
X136304398Y-115867861D01*
X136250596Y-115855581D01*
X136191821Y-115827276D01*
X136015961Y-115787137D01*
X136015955Y-115787137D01*
X135835567Y-115787137D01*
X135835565Y-115787137D01*
X135835558Y-115787138D01*
X135756263Y-115805236D01*
X135714429Y-115807524D01*
X135411946Y-115772548D01*
X135347611Y-115745294D01*
X135308224Y-115687583D01*
X135302232Y-115652631D01*
X135300910Y-115602396D01*
X135318824Y-115534864D01*
X135370406Y-115487736D01*
X135424839Y-115475136D01*
X135425760Y-115475135D01*
X135425761Y-115475135D01*
X135425761Y-115262637D01*
X136425761Y-115262637D01*
X136425761Y-115475136D01*
X136429957Y-115475136D01*
X136460367Y-115472285D01*
X136588406Y-115427483D01*
X136697553Y-115346929D01*
X136759764Y-115262637D01*
X136425761Y-115262637D01*
X135425761Y-115262637D01*
X135425761Y-114959595D01*
X140479800Y-114959595D01*
X140499185Y-114997640D01*
X140499188Y-114997645D01*
X140588774Y-115087231D01*
X140588779Y-115087234D01*
X140701681Y-115144761D01*
X140701679Y-115144761D01*
X140701825Y-115144783D01*
X140701825Y-114959595D01*
X140479800Y-114959595D01*
X135425761Y-114959595D01*
X135425761Y-114386637D01*
X135445446Y-114319598D01*
X135498250Y-114273843D01*
X135549761Y-114262637D01*
X136759764Y-114262637D01*
X136759764Y-114262636D01*
X136697553Y-114178344D01*
X136588407Y-114097791D01*
X136584513Y-114096429D01*
X136580823Y-114093782D01*
X136580188Y-114093447D01*
X136580233Y-114093360D01*
X136527736Y-114055708D01*
X136501987Y-113990756D01*
X136515442Y-113922194D01*
X136563828Y-113871790D01*
X136614584Y-113855865D01*
X136845545Y-113835531D01*
X136912707Y-113848567D01*
X136962139Y-113873754D01*
X136962140Y-113873754D01*
X136962142Y-113873755D01*
X136962141Y-113873755D01*
X137055918Y-113888607D01*
X137055924Y-113888608D01*
X137518961Y-113888607D01*
X137612747Y-113873754D01*
X137725785Y-113816158D01*
X137757636Y-113784306D01*
X137818956Y-113750822D01*
X137834431Y-113748467D01*
X139299366Y-113619491D01*
X139329567Y-113620529D01*
G37*
%TD.AperFunction*%
%TD*%
M02*
